<?xml version = "1.0" encoding="utf-8"?>
<svg version="1.1" baseProfile="full" xmlns="http://www.w3.org/2000/svg" xmlns:xlink="http://www.w3.org/1999/xlink" width="471" height="684" viewBox="0 0 471 684" clip="0 471 0 684"><defs><clipPath id="did1"><rect x="-1.25" y="-80.1" width="8.5" height="10.7"/></clipPath><clipPath id="did2"><path d="M-1.83333,-74.5l-0.333334,-0.5l0.333334,-0.5h0.666667l0.333333,-0.5h0.666667l0.333333,-0.5l-0.333333,-0.5l0.333333,-0.5l-0.333333,-0.5l0.333333,-0.5l-0.333333,-0.5h-0.666667l-0.333333,-0.5l0.333333,-0.5h0.666667l0.333333,0.5h0.666667l0.333333,-0.5h0.666667l0.333334,0.5h0.666667l0.333334,-0.5h0.666667l0.333333,0.5l-0.333333,0.5l0.333333,0.5l-0.333333,0.5l0.333333,0.5l-0.333333,0.5l0.333333,0.5h0.666667l0.333333,0.5h0.666667l0.333333,0.5h0.666667l0.333333,0.5h0.666667l0.333334,-0.5h0.666666l0.333334,0.5h0.666666l0.333334,-0.5h0.666666l0.333334,-0.5h0.666666l0.333334,0.5h0.666666l0.333334,0.5h0.666666l0.333334,-0.5h0.666666l0.333334,-0.5h0.666666l0.333333,0.5h0.666668l0.333332,0.5h0.666668l0.333332,-0.5h0.666668l0.333332,-0.5h0.666668l0.333332,0.5h0.666668l0.333332,0.5h0.666668l0.333332,0.5h0.666668l0.333332,-0.5h0.666668l0.333332,-0.5h0.666668l0.333332,-0.5h0.666668l0.333332,0.5h0.666668l0.333332,-0.5h0.666668l0.333332,0.5h0.666668l0.333332,0.5h0.666668l0.333332,0.5h0.666668l0.333332,-0.5l-0.333332,-0.5l0.333332,-0.5l-0.333332,-0.5l0.333332,-0.5l-0.333332,-0.5l0.333332,-0.5l-0.333332,-0.5l0.333332,-0.5h0.666668l0.333334,0.5l-0.333334,0.5l0.333334,0.5l-0.333334,0.5l0.333334,0.5l-0.333334,0.5l0.333334,0.5l-0.333334,0.5l0.333334,0.5l-0.333334,0.5l0.333334,0.5l-0.333334,0.5l0.333334,0.5l-0.333334,0.5l0.333334,0.5l-0.333334,0.5l0.333334,0.5l-0.333334,0.5l0.333334,0.5l-0.333334,0.5l0.333334,0.5l-0.333334,0.5l0.333334,0.5l-0.333334,0.5l0.333334,0.5l-0.333334,0.5l0.333334,0.5l-0.333334,0.5l0.333334,0.5l-0.333334,0.5l0.333334,0.5l-0.333334,0.5l0.333334,0.5l-0.333334,0.5l0.333334,0.5l-0.333334,0.5l0.333334,0.5l-0.333334,0.5l0.333334,0.5l-0.333334,0.5l0.333334,0.5l-0.333334,0.5l0.333334,0.5l-0.333334,0.5l0.333334,0.5l-0.333334,0.5l0.333334,0.5l-0.333334,0.5l0.333334,0.5l-0.333334,0.5l0.333334,0.5l-0.333334,0.5l0.333334,0.5l-0.333334,0.5l0.333334,0.5l-0.333334,0.5l0.333334,0.5l-0.333334,0.5l0.333334,0.5l-0.333334,0.5l0.333334,0.5l-0.333334,0.5l0.333334,0.5l-0.333334,0.5l0.333334,0.5l-0.333334,0.5l0.333334,0.5l-0.333334,0.5l0.333334,0.5l-0.333334,0.5l0.333334,0.5l-0.333334,0.5l0.333334,0.5l-0.333334,0.5l0.333334,0.5l-0.333334,0.5l0.333334,0.5l-0.333334,0.5l0.333334,0.5l-0.333334,0.5h-0.666668l-0.333332,0.5h-0.666668l-0.333332,-0.5h-0.666668l-0.333332,0.5h-0.666668l-0.333332,-0.5h-0.666668l-0.333332,0.5h-0.666668l-0.333332,-0.5h-0.666668l-0.333332,0.5h-0.666668l-0.333332,-0.5h-0.666668l-0.333332,0.5h-0.666668l-0.333332,-0.5h-0.666668l-0.333332,0.5h-0.666668l-0.333332,-0.5h-0.666668l-0.333332,0.5h-0.666668l-0.333332,-0.5h-0.666668l-0.333332,0.5h-0.666668l-0.333333,-0.5h-0.666666l-0.333334,0.5h-0.666666l-0.333334,-0.5h-0.666666l-0.333334,0.5h-0.666666l-0.333334,-0.5h-0.666666l-0.333334,0.5h-0.666666l-0.333334,-0.5h-0.666666l-0.333334,0.5h-0.666666l-0.333334,-0.5h-0.666667l-0.333333,0.5h-0.666667l-0.333333,-0.5h-0.666667l-0.333333,0.5h-0.666667l-0.333333,-0.5h-0.666667l-0.333334,0.5h-0.666667l-0.333334,-0.5h-0.666667l-0.333333,0.5h-0.666667l-0.333333,-0.5h-0.666667l-0.333333,0.5h-0.666667l-0.333334,-0.5l0.333334,-0.5l-0.333334,-0.5l0.333334,-0.5l-0.333334,-0.5l0.333334,-0.5l-0.333334,-0.5l0.333334,-0.5l-0.333334,-0.5l0.333334,-0.5l-0.333334,-0.5l0.333334,-0.5l-0.333334,-0.5l0.333334,-0.5l-0.333334,-0.5l0.333334,-0.5l-0.333334,-0.5l0.333334,-0.5l-0.333334,-0.5l0.333334,-0.5l-0.333334,-0.5l0.333334,-0.5l-0.333334,-0.5l0.333334,-0.5l-0.333334,-0.5l0.333334,-0.5l-0.333334,-0.5l0.333334,-0.5l-0.333334,-0.5l0.333334,-0.5l-0.333334,-0.5l0.333334,-0.5l-0.333334,-0.5l0.333334,-0.5l-0.333334,-0.5l0.333334,-0.5l-0.333334,-0.5l0.333334,-0.5l-0.333334,-0.5l0.333334,-0.5l-0.333334,-0.5l0.333334,-0.5l-0.333334,-0.5l0.333334,-0.5l-0.333334,-0.5l0.333334,-0.5l-0.333334,-0.5l0.333334,-0.5l-0.333334,-0.5l0.333334,-0.5l-0.333334,-0.5l0.333334,-0.5l-0.333334,-0.5l0.333334,-0.5l-0.333334,-0.5l0.333334,-0.5l-0.333334,-0.5l0.333334,-0.5l-0.333334,-0.5l0.333334,-0.5l-0.333334,-0.5l0.333334,-0.5l-0.333334,-0.5l0.333334,-0.5l-0.333334,-0.5l0.333334,-0.5l-0.333334,-0.5l0.333334,-0.5l-0.333334,-0.5l0.333334,-0.5l-0.333334,-0.5Z"/></clipPath><clipPath id="did3"><rect x="-1.25" y="-80.1" width="8.5" height="10.7"/></clipPath><clipPath id="did4"><rect x="-1.25" y="-80.1" width="8.5" height="10.7"/></clipPath></defs><g fill="None" stroke="None" transform="matrix(1,0,0,1,0,0) matrix(55.4256,0,0,64,69.282,5126.4)"><g clip-path="url(#did1)"><rect x="-2.1" y="-81.17" width="10.2" height="12.84" stroke="none" fill="White"/><path d="M-3.16667,-81.5v0l0.333334,0.5h0.666667l0.333333,-0.5" stroke="#808080" stroke-width="0.015625" fill="none"/><path d="M-3.16667,-80.5v0l0.333334,0.5h0.666667l0.333333,-0.5" stroke="#808080" stroke-width="0.015625" fill="none"/><path d="M-3.16667,-79.5v0l0.333334,0.5h0.666667l0.333333,-0.5" stroke="#808080" stroke-width="0.015625" fill="none"/><path d="M-3.16667,-78.5v0l0.333334,0.5h0.666667l0.333333,-0.5" stroke="#808080" stroke-width="0.015625" fill="none"/><path d="M-3.16667,-77.5v0l0.333334,0.5h0.666667l0.333333,-0.5" stroke="#808080" stroke-width="0.015625" fill="none"/><path d="M-3.16667,-76.5v0l0.333334,0.5h0.666667l0.333333,-0.5" stroke="#808080" stroke-width="0.015625" fill="none"/><path d="M-3.16667,-75.5v0l0.333334,0.5h0.666667l0.333333,-0.5" stroke="#808080" stroke-width="0.015625" fill="none"/><path d="M-3.16667,-74.5v0l0.333334,0.5h0.666667l0.333333,-0.5" stroke="#808080" stroke-width="0.015625" fill="none"/><path d="M-3.16667,-73.5v0l0.333334,0.5h0.666667l0.333333,-0.5" stroke="#808080" stroke-width="0.015625" fill="none"/><path d="M-3.16667,-72.5v0l0.333334,0.5h0.666667l0.333333,-0.5" stroke="#808080" stroke-width="0.015625" fill="none"/><path d="M-3.16667,-71.5v0l0.333334,0.5h0.666667l0.333333,-0.5" stroke="#808080" stroke-width="0.015625" fill="none"/><path d="M-3.16667,-70.5v0l0.333334,0.5h0.666667l0.333333,-0.5" stroke="#808080" stroke-width="0.015625" fill="none"/><path d="M-3.16667,-69.5v0l0.333334,0.5h0.666667l0.333333,-0.5" stroke="#808080" stroke-width="0.015625" fill="none"/><path d="M-2.16667,-81v0l0.333333,0.5h0.666667l0.333333,-0.5" stroke="#808080" stroke-width="0.015625" fill="none"/><path d="M-2.16667,-80v0l0.333333,0.5h0.666667l0.333333,-0.5" stroke="#808080" stroke-width="0.015625" fill="none"/><path d="M-2.16667,-79v0l0.333333,0.5h0.666667l0.333333,-0.5" stroke="#808080" stroke-width="0.015625" fill="none"/><path d="M-2.16667,-78v0l0.333333,0.5h0.666667l0.333333,-0.5" stroke="#808080" stroke-width="0.015625" fill="none"/><path d="M-2.16667,-77v0l0.333333,0.5h0.666667l0.333333,-0.5" stroke="#808080" stroke-width="0.015625" fill="none"/><path d="M-2.16667,-76v0l0.333333,0.5h0.666667l0.333333,-0.5" stroke="#808080" stroke-width="0.015625" fill="none"/><path d="M-2.16667,-75v0l0.333333,0.5h0.666667l0.333333,-0.5" stroke="#808080" stroke-width="0.015625" fill="none"/><path d="M-2.16667,-74v0l0.333333,0.5h0.666667l0.333333,-0.5" stroke="#808080" stroke-width="0.015625" fill="none"/><path d="M-2.16667,-73v0l0.333333,0.5h0.666667l0.333333,-0.5" stroke="#808080" stroke-width="0.015625" fill="none"/><path d="M-2.16667,-72v0l0.333333,0.5h0.666667l0.333333,-0.5" stroke="#808080" stroke-width="0.015625" fill="none"/><path d="M-2.16667,-71v0l0.333333,0.5h0.666667l0.333333,-0.5" stroke="#808080" stroke-width="0.015625" fill="none"/><path d="M-2.16667,-70v0l0.333333,0.5h0.666667l0.333333,-0.5" stroke="#808080" stroke-width="0.015625" fill="none"/><path d="M-2.16667,-69v0l0.333333,0.5h0.666667l0.333333,-0.5" stroke="#808080" stroke-width="0.015625" fill="none"/><path d="M-1.16667,-81.5v0l0.333333,0.5h0.666667l0.333333,-0.5" stroke="#808080" stroke-width="0.015625" fill="none"/><path d="M-1.16667,-80.5v0l0.333333,0.5h0.666667l0.333333,-0.5" stroke="#808080" stroke-width="0.015625" fill="none"/><path d="M-1.16667,-79.5v0l0.333333,0.5h0.666667l0.333333,-0.5" stroke="#808080" stroke-width="0.015625" fill="none"/><path d="M-1.16667,-78.5v0l0.333333,0.5h0.666667l0.333333,-0.5" stroke="#808080" stroke-width="0.015625" fill="none"/><path d="M-1.16667,-77.5v0l0.333333,0.5h0.666667l0.333333,-0.5" stroke="#808080" stroke-width="0.015625" fill="none"/><path d="M-1.16667,-76.5v0l0.333333,0.5h0.666667l0.333333,-0.5" stroke="#808080" stroke-width="0.015625" fill="none"/><path d="M-1.16667,-75.5v0l0.333333,0.5h0.666667l0.333333,-0.5" stroke="#808080" stroke-width="0.015625" fill="none"/><path d="M-1.16667,-74.5v0l0.333333,0.5h0.666667l0.333333,-0.5" stroke="#808080" stroke-width="0.015625" fill="none"/><path d="M-1.16667,-73.5v0l0.333333,0.5h0.666667l0.333333,-0.5" stroke="#808080" stroke-width="0.015625" fill="none"/><path d="M-1.16667,-72.5v0l0.333333,0.5h0.666667l0.333333,-0.5" stroke="#808080" stroke-width="0.015625" fill="none"/><path d="M-1.16667,-71.5v0l0.333333,0.5h0.666667l0.333333,-0.5" stroke="#808080" stroke-width="0.015625" fill="none"/><path d="M-1.16667,-70.5v0l0.333333,0.5h0.666667l0.333333,-0.5" stroke="#808080" stroke-width="0.015625" fill="none"/><path d="M-1.16667,-69.5v0l0.333333,0.5h0.666667l0.333333,-0.5" stroke="#808080" stroke-width="0.015625" fill="none"/><path d="M-0.166667,-81v0l0.333333,0.5h0.666667l0.333333,-0.5" stroke="#808080" stroke-width="0.015625" fill="none"/><path d="M-0.166667,-80v0l0.333333,0.5h0.666667l0.333333,-0.5" stroke="#808080" stroke-width="0.015625" fill="none"/><path d="M-0.166667,-79v0l0.333333,0.5h0.666667l0.333333,-0.5" stroke="#808080" stroke-width="0.015625" fill="none"/><path d="M-0.166667,-78v0l0.333333,0.5h0.666667l0.333333,-0.5" stroke="#808080" stroke-width="0.015625" fill="none"/><path d="M-0.166667,-77v0l0.333333,0.5h0.666667l0.333333,-0.5" stroke="#808080" stroke-width="0.015625" fill="none"/><path d="M-0.166667,-76v0l0.333333,0.5h0.666667l0.333333,-0.5" stroke="#808080" stroke-width="0.015625" fill="none"/><path d="M-0.166667,-75v0l0.333333,0.5h0.666667l0.333333,-0.5" stroke="#808080" stroke-width="0.015625" fill="none"/><path d="M-0.166667,-74v0l0.333333,0.5h0.666667l0.333333,-0.5" stroke="#808080" stroke-width="0.015625" fill="none"/><path d="M-0.166667,-73v0l0.333333,0.5h0.666667l0.333333,-0.5" stroke="#808080" stroke-width="0.015625" fill="none"/><path d="M-0.166667,-72v0l0.333333,0.5h0.666667l0.333333,-0.5" stroke="#808080" stroke-width="0.015625" fill="none"/><path d="M-0.166667,-71v0l0.333333,0.5h0.666667l0.333333,-0.5" stroke="#808080" stroke-width="0.015625" fill="none"/><path d="M-0.166667,-70v0l0.333333,0.5h0.666667l0.333333,-0.5" stroke="#808080" stroke-width="0.015625" fill="none"/><path d="M-0.166667,-69v0l0.333333,0.5h0.666667l0.333333,-0.5" stroke="#808080" stroke-width="0.015625" fill="none"/><path d="M0.833333,-81.5v0l0.333333,0.5h0.666667l0.333333,-0.5" stroke="#808080" stroke-width="0.015625" fill="none"/><path d="M0.833333,-80.5v0l0.333333,0.5h0.666667l0.333333,-0.5" stroke="#808080" stroke-width="0.015625" fill="none"/><path d="M0.833333,-79.5v0l0.333333,0.5h0.666667l0.333333,-0.5" stroke="#808080" stroke-width="0.015625" fill="none"/><path d="M0.833333,-78.5v0l0.333333,0.5h0.666667l0.333333,-0.5" stroke="#808080" stroke-width="0.015625" fill="none"/><path d="M0.833333,-77.5v0l0.333333,0.5h0.666667l0.333333,-0.5" stroke="#808080" stroke-width="0.015625" fill="none"/><path d="M0.833333,-76.5v0l0.333333,0.5h0.666667l0.333333,-0.5" stroke="#808080" stroke-width="0.015625" fill="none"/><path d="M0.833333,-75.5v0l0.333333,0.5h0.666667l0.333333,-0.5" stroke="#808080" stroke-width="0.015625" fill="none"/><path d="M0.833333,-74.5v0l0.333333,0.5h0.666667l0.333333,-0.5" stroke="#808080" stroke-width="0.015625" fill="none"/><path d="M0.833333,-73.5v0l0.333333,0.5h0.666667l0.333333,-0.5" stroke="#808080" stroke-width="0.015625" fill="none"/><path d="M0.833333,-72.5v0l0.333333,0.5h0.666667l0.333333,-0.5" stroke="#808080" stroke-width="0.015625" fill="none"/><path d="M0.833333,-71.5v0l0.333333,0.5h0.666667l0.333333,-0.5" stroke="#808080" stroke-width="0.015625" fill="none"/><path d="M0.833333,-70.5v0l0.333333,0.5h0.666667l0.333333,-0.5" stroke="#808080" stroke-width="0.015625" fill="none"/><path d="M0.833333,-69.5v0l0.333333,0.5h0.666667l0.333333,-0.5" stroke="#808080" stroke-width="0.015625" fill="none"/><path d="M1.83333,-81v0l0.333333,0.5h0.666667l0.333334,-0.5" stroke="#808080" stroke-width="0.015625" fill="none"/><path d="M1.83333,-80v0l0.333333,0.5h0.666667l0.333334,-0.5" stroke="#808080" stroke-width="0.015625" fill="none"/><path d="M1.83333,-79v0l0.333333,0.5h0.666667l0.333334,-0.5" stroke="#808080" stroke-width="0.015625" fill="none"/><path d="M1.83333,-78v0l0.333333,0.5h0.666667l0.333334,-0.5" stroke="#808080" stroke-width="0.015625" fill="none"/><path d="M1.83333,-77v0l0.333333,0.5h0.666667l0.333334,-0.5" stroke="#808080" stroke-width="0.015625" fill="none"/><path d="M1.83333,-76v0l0.333333,0.5h0.666667l0.333334,-0.5" stroke="#808080" stroke-width="0.015625" fill="none"/><path d="M1.83333,-75v0l0.333333,0.5h0.666667l0.333334,-0.5" stroke="#808080" stroke-width="0.015625" fill="none"/><path d="M1.83333,-74v0l0.333333,0.5h0.666667l0.333334,-0.5" stroke="#808080" stroke-width="0.015625" fill="none"/><path d="M1.83333,-73v0l0.333333,0.5h0.666667l0.333334,-0.5" stroke="#808080" stroke-width="0.015625" fill="none"/><path d="M1.83333,-72v0l0.333333,0.5h0.666667l0.333334,-0.5" stroke="#808080" stroke-width="0.015625" fill="none"/><path d="M1.83333,-71v0l0.333333,0.5h0.666667l0.333334,-0.5" stroke="#808080" stroke-width="0.015625" fill="none"/><path d="M1.83333,-70v0l0.333333,0.5h0.666667l0.333334,-0.5" stroke="#808080" stroke-width="0.015625" fill="none"/><path d="M1.83333,-69v0l0.333333,0.5h0.666667l0.333334,-0.5" stroke="#808080" stroke-width="0.015625" fill="none"/><path d="M2.83333,-81.5v0l0.333334,0.5h0.666667l0.333333,-0.5" stroke="#808080" stroke-width="0.015625" fill="none"/><path d="M2.83333,-80.5v0l0.333334,0.5h0.666667l0.333333,-0.5" stroke="#808080" stroke-width="0.015625" fill="none"/><path d="M2.83333,-79.5v0l0.333334,0.5h0.666667l0.333333,-0.5" stroke="#808080" stroke-width="0.015625" fill="none"/><path d="M2.83333,-78.5v0l0.333334,0.5h0.666667l0.333333,-0.5" stroke="#808080" stroke-width="0.015625" fill="none"/><path d="M2.83333,-77.5v0l0.333334,0.5h0.666667l0.333333,-0.5" stroke="#808080" stroke-width="0.015625" fill="none"/><path d="M2.83333,-76.5v0l0.333334,0.5h0.666667l0.333333,-0.5" stroke="#808080" stroke-width="0.015625" fill="none"/><path d="M2.83333,-75.5v0l0.333334,0.5h0.666667l0.333333,-0.5" stroke="#808080" stroke-width="0.015625" fill="none"/><path d="M2.83333,-74.5v0l0.333334,0.5h0.666667l0.333333,-0.5" stroke="#808080" stroke-width="0.015625" fill="none"/><path d="M2.83333,-73.5v0l0.333334,0.5h0.666667l0.333333,-0.5" stroke="#808080" stroke-width="0.015625" fill="none"/><path d="M2.83333,-72.5v0l0.333334,0.5h0.666667l0.333333,-0.5" stroke="#808080" stroke-width="0.015625" fill="none"/><path d="M2.83333,-71.5v0l0.333334,0.5h0.666667l0.333333,-0.5" stroke="#808080" stroke-width="0.015625" fill="none"/><path d="M2.83333,-70.5v0l0.333334,0.5h0.666667l0.333333,-0.5" stroke="#808080" stroke-width="0.015625" fill="none"/><path d="M2.83333,-69.5v0l0.333334,0.5h0.666667l0.333333,-0.5" stroke="#808080" stroke-width="0.015625" fill="none"/><path d="M3.83333,-81v0l0.333333,0.5h0.666667l0.333333,-0.5" stroke="#808080" stroke-width="0.015625" fill="none"/><path d="M3.83333,-80v0l0.333333,0.5h0.666667l0.333333,-0.5" stroke="#808080" stroke-width="0.015625" fill="none"/><path d="M3.83333,-79v0l0.333333,0.5h0.666667l0.333333,-0.5" stroke="#808080" stroke-width="0.015625" fill="none"/><path d="M3.83333,-78v0l0.333333,0.5h0.666667l0.333333,-0.5" stroke="#808080" stroke-width="0.015625" fill="none"/><path d="M3.83333,-77v0l0.333333,0.5h0.666667l0.333333,-0.5" stroke="#808080" stroke-width="0.015625" fill="none"/><path d="M3.83333,-76v0l0.333333,0.5h0.666667l0.333333,-0.5" stroke="#808080" stroke-width="0.015625" fill="none"/><path d="M3.83333,-75v0l0.333333,0.5h0.666667l0.333333,-0.5" stroke="#808080" stroke-width="0.015625" fill="none"/><path d="M3.83333,-74v0l0.333333,0.5h0.666667l0.333333,-0.5" stroke="#808080" stroke-width="0.015625" fill="none"/><path d="M3.83333,-73v0l0.333333,0.5h0.666667l0.333333,-0.5" stroke="#808080" stroke-width="0.015625" fill="none"/><path d="M3.83333,-72v0l0.333333,0.5h0.666667l0.333333,-0.5" stroke="#808080" stroke-width="0.015625" fill="none"/><path d="M3.83333,-71v0l0.333333,0.5h0.666667l0.333333,-0.5" stroke="#808080" stroke-width="0.015625" fill="none"/><path d="M3.83333,-70v0l0.333333,0.5h0.666667l0.333333,-0.5" stroke="#808080" stroke-width="0.015625" fill="none"/><path d="M3.83333,-69v0l0.333333,0.5h0.666667l0.333333,-0.5" stroke="#808080" stroke-width="0.015625" fill="none"/><path d="M4.83333,-81.5v0l0.333333,0.5h0.666667l0.333333,-0.5" stroke="#808080" stroke-width="0.015625" fill="none"/><path d="M4.83333,-80.5v0l0.333333,0.5h0.666667l0.333333,-0.5" stroke="#808080" stroke-width="0.015625" fill="none"/><path d="M4.83333,-79.5v0l0.333333,0.5h0.666667l0.333333,-0.5" stroke="#808080" stroke-width="0.015625" fill="none"/><path d="M4.83333,-78.5v0l0.333333,0.5h0.666667l0.333333,-0.5" stroke="#808080" stroke-width="0.015625" fill="none"/><path d="M4.83333,-77.5v0l0.333333,0.5h0.666667l0.333333,-0.5" stroke="#808080" stroke-width="0.015625" fill="none"/><path d="M4.83333,-76.5v0l0.333333,0.5h0.666667l0.333333,-0.5" stroke="#808080" stroke-width="0.015625" fill="none"/><path d="M4.83333,-75.5v0l0.333333,0.5h0.666667l0.333333,-0.5" stroke="#808080" stroke-width="0.015625" fill="none"/><path d="M4.83333,-74.5v0l0.333333,0.5h0.666667l0.333333,-0.5" stroke="#808080" stroke-width="0.015625" fill="none"/><path d="M4.83333,-73.5v0l0.333333,0.5h0.666667l0.333333,-0.5" stroke="#808080" stroke-width="0.015625" fill="none"/><path d="M4.83333,-72.5v0l0.333333,0.5h0.666667l0.333333,-0.5" stroke="#808080" stroke-width="0.015625" fill="none"/><path d="M4.83333,-71.5v0l0.333333,0.5h0.666667l0.333333,-0.5" stroke="#808080" stroke-width="0.015625" fill="none"/><path d="M4.83333,-70.5v0l0.333333,0.5h0.666667l0.333333,-0.5" stroke="#808080" stroke-width="0.015625" fill="none"/><path d="M4.83333,-69.5v0l0.333333,0.5h0.666667l0.333333,-0.5" stroke="#808080" stroke-width="0.015625" fill="none"/><path d="M5.83333,-81v0l0.333333,0.5h0.666667l0.333333,-0.5" stroke="#808080" stroke-width="0.015625" fill="none"/><path d="M5.83333,-80v0l0.333333,0.5h0.666667l0.333333,-0.5" stroke="#808080" stroke-width="0.015625" fill="none"/><path d="M5.83333,-79v0l0.333333,0.5h0.666667l0.333333,-0.5" stroke="#808080" stroke-width="0.015625" fill="none"/><path d="M5.83333,-78v0l0.333333,0.5h0.666667l0.333333,-0.5" stroke="#808080" stroke-width="0.015625" fill="none"/><path d="M5.83333,-77v0l0.333333,0.5h0.666667l0.333333,-0.5" stroke="#808080" stroke-width="0.015625" fill="none"/><path d="M5.83333,-76v0l0.333333,0.5h0.666667l0.333333,-0.5" stroke="#808080" stroke-width="0.015625" fill="none"/><path d="M5.83333,-75v0l0.333333,0.5h0.666667l0.333333,-0.5" stroke="#808080" stroke-width="0.015625" fill="none"/><path d="M5.83333,-74v0l0.333333,0.5h0.666667l0.333333,-0.5" stroke="#808080" stroke-width="0.015625" fill="none"/><path d="M5.83333,-73v0l0.333333,0.5h0.666667l0.333333,-0.5" stroke="#808080" stroke-width="0.015625" fill="none"/><path d="M5.83333,-72v0l0.333333,0.5h0.666667l0.333333,-0.5" stroke="#808080" stroke-width="0.015625" fill="none"/><path d="M5.83333,-71v0l0.333333,0.5h0.666667l0.333333,-0.5" stroke="#808080" stroke-width="0.015625" fill="none"/><path d="M5.83333,-70v0l0.333333,0.5h0.666667l0.333333,-0.5" stroke="#808080" stroke-width="0.015625" fill="none"/><path d="M5.83333,-69v0l0.333333,0.5h0.666667l0.333333,-0.5" stroke="#808080" stroke-width="0.015625" fill="none"/><path d="M6.83333,-81.5v0l0.333333,0.5h0.666667l0.333334,-0.5" stroke="#808080" stroke-width="0.015625" fill="none"/><path d="M6.83333,-80.5v0l0.333333,0.5h0.666667l0.333334,-0.5" stroke="#808080" stroke-width="0.015625" fill="none"/><path d="M6.83333,-79.5v0l0.333333,0.5h0.666667l0.333334,-0.5" stroke="#808080" stroke-width="0.015625" fill="none"/><path d="M6.83333,-78.5v0l0.333333,0.5h0.666667l0.333334,-0.5" stroke="#808080" stroke-width="0.015625" fill="none"/><path d="M6.83333,-77.5v0l0.333333,0.5h0.666667l0.333334,-0.5" stroke="#808080" stroke-width="0.015625" fill="none"/><path d="M6.83333,-76.5v0l0.333333,0.5h0.666667l0.333334,-0.5" stroke="#808080" stroke-width="0.015625" fill="none"/><path d="M6.83333,-75.5v0l0.333333,0.5h0.666667l0.333334,-0.5" stroke="#808080" stroke-width="0.015625" fill="none"/><path d="M6.83333,-74.5v0l0.333333,0.5h0.666667l0.333334,-0.5" stroke="#808080" stroke-width="0.015625" fill="none"/><path d="M6.83333,-73.5v0l0.333333,0.5h0.666667l0.333334,-0.5" stroke="#808080" stroke-width="0.015625" fill="none"/><path d="M6.83333,-72.5v0l0.333333,0.5h0.666667l0.333334,-0.5" stroke="#808080" stroke-width="0.015625" fill="none"/><path d="M6.83333,-71.5v0l0.333333,0.5h0.666667l0.333334,-0.5" stroke="#808080" stroke-width="0.015625" fill="none"/><path d="M6.83333,-70.5v0l0.333333,0.5h0.666667l0.333334,-0.5" stroke="#808080" stroke-width="0.015625" fill="none"/><path d="M6.83333,-69.5v0l0.333333,0.5h0.666667l0.333334,-0.5" stroke="#808080" stroke-width="0.015625" fill="none"/><path clip-path="url(#did2)" d="M-1.83333,-74.5l-0.333334,-0.5l0.333334,-0.5h0.666667l0.333333,-0.5h0.666667l0.333333,-0.5l-0.333333,-0.5l0.333333,-0.5l-0.333333,-0.5l0.333333,-0.5l-0.333333,-0.5h-0.666667l-0.333333,-0.5l0.333333,-0.5h0.666667l0.333333,0.5h0.666667l0.333333,-0.5h0.666667l0.333334,0.5h0.666667l0.333334,-0.5h0.666667l0.333333,0.5l-0.333333,0.5l0.333333,0.5l-0.333333,0.5l0.333333,0.5l-0.333333,0.5l0.333333,0.5h0.666667l0.333333,0.5h0.666667l0.333333,0.5h0.666667l0.333333,0.5h0.666667l0.333334,-0.5h0.666666l0.333334,0.5h0.666666l0.333334,-0.5h0.666666l0.333334,-0.5h0.666666l0.333334,0.5h0.666666l0.333334,0.5h0.666666l0.333334,-0.5h0.666666l0.333334,-0.5h0.666666l0.333333,0.5h0.666668l0.333332,0.5h0.666668l0.333332,-0.5h0.666668l0.333332,-0.5h0.666668l0.333332,0.5h0.666668l0.333332,0.5h0.666668l0.333332,0.5h0.666668l0.333332,-0.5h0.666668l0.333332,-0.5h0.666668l0.333332,-0.5h0.666668l0.333332,0.5h0.666668l0.333332,-0.5h0.666668l0.333332,0.5h0.666668l0.333332,0.5h0.666668l0.333332,0.5h0.666668l0.333332,-0.5l-0.333332,-0.5l0.333332,-0.5l-0.333332,-0.5l0.333332,-0.5l-0.333332,-0.5l0.333332,-0.5l-0.333332,-0.5l0.333332,-0.5h0.666668l0.333334,0.5l-0.333334,0.5l0.333334,0.5l-0.333334,0.5l0.333334,0.5l-0.333334,0.5l0.333334,0.5l-0.333334,0.5l0.333334,0.5l-0.333334,0.5l0.333334,0.5l-0.333334,0.5l0.333334,0.5l-0.333334,0.5l0.333334,0.5l-0.333334,0.5l0.333334,0.5l-0.333334,0.5l0.333334,0.5l-0.333334,0.5l0.333334,0.5l-0.333334,0.5l0.333334,0.5l-0.333334,0.5l0.333334,0.5l-0.333334,0.5l0.333334,0.5l-0.333334,0.5l0.333334,0.5l-0.333334,0.5l0.333334,0.5l-0.333334,0.5l0.333334,0.5l-0.333334,0.5l0.333334,0.5l-0.333334,0.5l0.333334,0.5l-0.333334,0.5l0.333334,0.5l-0.333334,0.5l0.333334,0.5l-0.333334,0.5l0.333334,0.5l-0.333334,0.5l0.333334,0.5l-0.333334,0.5l0.333334,0.5l-0.333334,0.5l0.333334,0.5l-0.333334,0.5l0.333334,0.5l-0.333334,0.5l0.333334,0.5l-0.333334,0.5l0.333334,0.5l-0.333334,0.5l0.333334,0.5l-0.333334,0.5l0.333334,0.5l-0.333334,0.5l0.333334,0.5l-0.333334,0.5l0.333334,0.5l-0.333334,0.5l0.333334,0.5l-0.333334,0.5l0.333334,0.5l-0.333334,0.5l0.333334,0.5l-0.333334,0.5l0.333334,0.5l-0.333334,0.5l0.333334,0.5l-0.333334,0.5l0.333334,0.5l-0.333334,0.5l0.333334,0.5l-0.333334,0.5l0.333334,0.5l-0.333334,0.5h-0.666668l-0.333332,0.5h-0.666668l-0.333332,-0.5h-0.666668l-0.333332,0.5h-0.666668l-0.333332,-0.5h-0.666668l-0.333332,0.5h-0.666668l-0.333332,-0.5h-0.666668l-0.333332,0.5h-0.666668l-0.333332,-0.5h-0.666668l-0.333332,0.5h-0.666668l-0.333332,-0.5h-0.666668l-0.333332,0.5h-0.666668l-0.333332,-0.5h-0.666668l-0.333332,0.5h-0.666668l-0.333332,-0.5h-0.666668l-0.333332,0.5h-0.666668l-0.333333,-0.5h-0.666666l-0.333334,0.5h-0.666666l-0.333334,-0.5h-0.666666l-0.333334,0.5h-0.666666l-0.333334,-0.5h-0.666666l-0.333334,0.5h-0.666666l-0.333334,-0.5h-0.666666l-0.333334,0.5h-0.666666l-0.333334,-0.5h-0.666667l-0.333333,0.5h-0.666667l-0.333333,-0.5h-0.666667l-0.333333,0.5h-0.666667l-0.333333,-0.5h-0.666667l-0.333334,0.5h-0.666667l-0.333334,-0.5h-0.666667l-0.333333,0.5h-0.666667l-0.333333,-0.5h-0.666667l-0.333333,0.5h-0.666667l-0.333334,-0.5l0.333334,-0.5l-0.333334,-0.5l0.333334,-0.5l-0.333334,-0.5l0.333334,-0.5l-0.333334,-0.5l0.333334,-0.5l-0.333334,-0.5l0.333334,-0.5l-0.333334,-0.5l0.333334,-0.5l-0.333334,-0.5l0.333334,-0.5l-0.333334,-0.5l0.333334,-0.5l-0.333334,-0.5l0.333334,-0.5l-0.333334,-0.5l0.333334,-0.5l-0.333334,-0.5l0.333334,-0.5l-0.333334,-0.5l0.333334,-0.5l-0.333334,-0.5l0.333334,-0.5l-0.333334,-0.5l0.333334,-0.5l-0.333334,-0.5l0.333334,-0.5l-0.333334,-0.5l0.333334,-0.5l-0.333334,-0.5l0.333334,-0.5l-0.333334,-0.5l0.333334,-0.5l-0.333334,-0.5l0.333334,-0.5l-0.333334,-0.5l0.333334,-0.5l-0.333334,-0.5l0.333334,-0.5l-0.333334,-0.5l0.333334,-0.5l-0.333334,-0.5l0.333334,-0.5l-0.333334,-0.5l0.333334,-0.5l-0.333334,-0.5l0.333334,-0.5l-0.333334,-0.5l0.333334,-0.5l-0.333334,-0.5l0.333334,-0.5l-0.333334,-0.5l0.333334,-0.5l-0.333334,-0.5l0.333334,-0.5l-0.333334,-0.5l0.333334,-0.5l-0.333334,-0.5l0.333334,-0.5l-0.333334,-0.5l0.333334,-0.5l-0.333334,-0.5l0.333334,-0.5l-0.333334,-0.5l0.333334,-0.5l-0.333334,-0.5l0.333334,-0.5l-0.333334,-0.5Z" stroke="#E32736" stroke-width="0.16" fill="none"/><line x1="-0.311018" y1="-69.689" x2="1.31102" y2="-71.311" stroke="#048104" stroke-width="0.08"/><line x1="1.75" y1="-71.625" x2="4.25" y2="-72.875" stroke="#048104" stroke-width="0.08"/><line x1="4.75" y1="-73.125" x2="6.25" y2="-73.875" stroke="#048104" stroke-width="0.08"/><line x1="6.78868" y1="-74" x2="8.21133" y2="-74" stroke="#048104" stroke-width="0.08"/><line x1="-2.25" y1="-73.375" x2="1.25" y2="-71.625" stroke="#048104" stroke-width="0.08"/></g><g clip-path="url(#did3)"><text transform="translate(-0.5,-79.5) scale(1.1547 1)" font-family="Arial" font-size="0.14" text-anchor="middle" x="0" y="-0.381" fill="DarkGray">0101</text><text transform="translate(-0.5,-70.5) scale(1.1547 1)" font-family="Arial" font-size="0.14" text-anchor="middle" x="0" y="-0.381" fill="DarkGray">0110</text><text transform="translate(0.5,-79) scale(1.1547 1)" font-family="Arial" font-size="0.14" text-anchor="middle" x="0" y="-0.381" fill="DarkGray">0201</text><text transform="translate(0.5,-77) scale(1.1547 1)" font-family="Arial" font-size="0.14" text-anchor="middle" x="0" y="-0.381" fill="DarkGray">0203</text><text transform="translate(0.5,-75) scale(1.1547 1)" font-family="Arial" font-size="0.14" text-anchor="middle" x="0" y="-0.381" fill="DarkGray">0205</text><text transform="translate(0.5,-74) scale(1.1547 1)" font-family="Arial" font-size="0.14" text-anchor="middle" x="0" y="-0.381" fill="DarkGray">0206</text><text transform="translate(0.5,-70) scale(1.1547 1)" font-family="Arial" font-size="0.14" text-anchor="middle" x="0" y="-0.381" fill="DarkGray">0210</text><g transform="translate(1.5,-79.5) scale(1.1547 1)"><circle r="0.4" cx="0" cy="0" stroke="#FFCC00" stroke-width="0.05" fill="none"/><text font-family="Arial" font-size="0.14" text-anchor="middle" x="0" y="-0.381" fill="DarkGray">0301</text></g><text transform="translate(1.5,-77.5) scale(1.1547 1)" font-family="Arial" font-size="0.14" text-anchor="middle" x="0" y="-0.381" fill="DarkGray">0303</text><text transform="translate(1.5,-71.5) scale(1.1547 1)" font-family="Arial" font-size="0.14" text-anchor="middle" x="0" y="-0.381" fill="DarkGray">0309</text><text transform="translate(2.5,-79) scale(1.1547 1)" font-family="Arial" font-size="0.14" text-anchor="middle" x="0" y="-0.381" fill="DarkGray">0401</text><text transform="translate(2.5,-74) scale(1.1547 1)" font-family="Arial" font-size="0.14" text-anchor="middle" x="0" y="-0.381" fill="DarkGray">0406</text><text transform="translate(2.5,-73) scale(1.1547 1)" font-family="Arial" font-size="0.14" text-anchor="middle" x="0" y="-0.381" fill="DarkGray">0407</text><text transform="translate(2.5,-72) scale(1.1547 1)" font-family="Arial" font-size="0.14" text-anchor="middle" x="0" y="-0.381" fill="DarkGray">0408</text><text transform="translate(3.5,-79.5) scale(1.1547 1)" font-family="Arial" font-size="0.14" text-anchor="middle" x="0" y="-0.381" fill="DarkGray">0501</text><text transform="translate(3.5,-76.5) scale(1.1547 1)" font-family="Arial" font-size="0.14" text-anchor="middle" x="0" y="-0.381" fill="DarkGray">0504</text><text transform="translate(3.5,-75.5) scale(1.1547 1)" font-family="Arial" font-size="0.14" text-anchor="middle" x="0" y="-0.381" fill="DarkGray">0505</text><text transform="translate(4.5,-76) scale(1.1547 1)" font-family="Arial" font-size="0.14" text-anchor="middle" x="0" y="-0.381" fill="DarkGray">0604</text><g transform="translate(4.5,-73) scale(1.1547 1)"><circle r="0.4" cx="0" cy="0" stroke="#FFCC00" stroke-width="0.05" fill="none"/><text font-family="Arial" font-size="0.14" text-anchor="middle" x="0" y="-0.381" fill="DarkGray">0607</text></g><text transform="translate(4.5,-70) scale(1.1547 1)" font-family="Arial" font-size="0.14" text-anchor="middle" x="0" y="-0.381" fill="DarkGray">0610</text><text transform="translate(5.5,-78.5) scale(1.1547 1)" font-family="Arial" font-size="0.14" text-anchor="middle" x="0" y="-0.381" fill="DarkGray">0702</text><text transform="translate(5.5,-75.5) scale(1.1547 1)" font-family="Arial" font-size="0.14" text-anchor="middle" x="0" y="-0.381" fill="DarkGray">0705</text><g transform="translate(5.5,-73.5) scale(1.1547 1)"><circle r="0.4" cx="0" cy="0" stroke="#FFCC00" stroke-width="0.05" fill="none"/><text font-family="Arial" font-size="0.14" text-anchor="middle" x="0" y="-0.381" fill="DarkGray">0707</text></g><text transform="translate(6.5,-78) scale(1.1547 1)" font-family="Arial" font-size="0.14" text-anchor="middle" x="0" y="-0.381" fill="DarkGray">0802</text><text transform="translate(6.5,-75) scale(1.1547 1)" font-family="Arial" font-size="0.14" text-anchor="middle" x="0" y="-0.381" fill="DarkGray">0805</text><text transform="translate(6.5,-74) scale(1.1547 1)" font-family="Arial" font-size="0.14" text-anchor="middle" x="0" y="-0.381" fill="DarkGray">0806</text><text transform="translate(6.5,-72) scale(1.1547 1)" font-family="Arial" font-size="0.14" text-anchor="middle" x="0" y="-0.381" fill="DarkGray">0808</text><text transform="translate(6.5,-70) scale(1.1547 1)" font-family="Arial" font-size="0.14" text-anchor="middle" x="0" y="-0.381" fill="DarkGray">0810</text></g><g transform="translate(-0.5,-79.5) scale(1.1547 1)"><circle transform="translate(0.25,-0.18)" r="0.05" cx="0" cy="0" stroke="none" fill="Black"/><rect x="-0.113084" y="-0.35543" width="0.226167" height="0.260859" stroke="none" fill="White"/><text font-family="Arial" font-size="0.21" font-weight="bold" text-anchor="middle" x="0" y="-0.13575" fill="Black">A</text><circle r="0.1" cx="0" cy="0" stroke="none" fill="DeepSkyBlue"/><rect x="-0.50386" y="0.23957" width="1.00772" height="0.260859" stroke="none" fill="White"/><text font-family="Arial" font-size="0.21" font-weight="bold" text-anchor="middle" x="0" y="0.45925" fill="Black">Ishimaga</text></g><g transform="translate(-0.5,-70.5) scale(1.1547 1)"><circle transform="translate(0.25,-0.18)" r="0.05" cx="0" cy="0" stroke="none" fill="Black"/><rect x="-0.113084" y="-0.35543" width="0.226167" height="0.260859" stroke="none" fill="White"/><text font-family="Arial" font-size="0.21" font-weight="bold" text-anchor="middle" x="0" y="-0.13575" fill="Black">A</text><text font-family="Arial Unicode MS,Segoe UI Symbol,Arial" font-size="0.21" font-weight="bold" text-anchor="middle" x="-0.25" y="0.26925" fill="Black">▲</text><circle r="0.1" cx="0" cy="0" stroke="none" fill="DeepSkyBlue"/><rect x="-0.467971" y="0.23957" width="0.935942" height="0.260859" stroke="none" fill="White"/><text font-family="Arial" font-size="0.21" font-weight="bold" text-anchor="middle" x="0" y="0.45925" fill="Black">Jesikara</text></g><g transform="translate(0.5,-79) scale(1.1547 1)"><circle transform="translate(0.25,-0.18)" r="0.05" cx="0" cy="0" stroke="none" fill="Black"/><rect x="-0.107136" y="-0.35543" width="0.214273" height="0.260859" stroke="none" fill="White"/><text font-family="Arial" font-size="0.21" font-weight="bold" text-anchor="middle" x="0" y="-0.13575" fill="Black">E</text><ellipse rx="0.0303059" ry="0.0295039" cx="0" cy="-0.07" stroke="none" fill="Black"/><ellipse rx="0.0270606" ry="0.0312584" cx="0.07" cy="-0.07" stroke="none" fill="Black"/><ellipse rx="0.0331233" ry="0.0316069" cx="-0.105" cy="0" stroke="none" fill="Black"/><ellipse rx="0.0338671" ry="0.0294312" cx="-0.035" cy="0" stroke="none" fill="Black"/><ellipse rx="0.0346985" ry="0.0348806" cx="0.035" cy="0" stroke="none" fill="Black"/><ellipse rx="0.0289294" ry="0.0326422" cx="0.105" cy="0" stroke="none" fill="Black"/><ellipse rx="0.0266983" ry="0.0271248" cx="-0.07" cy="0.07" stroke="none" fill="Black"/><ellipse rx="0.0347044" ry="0.028106" cx="0" cy="0.07" stroke="none" fill="Black"/><rect x="-0.359587" y="0.23957" width="0.719175" height="0.260859" stroke="none" fill="White"/><text font-family="Arial" font-size="0.21" font-weight="bold" text-anchor="middle" x="0" y="0.45925" fill="Black">Rasan</text></g><g transform="translate(0.5,-77) scale(1.1547 1)"><circle transform="translate(0.25,-0.18)" r="0.05" cx="0" cy="0" stroke="none" fill="Black"/><rect x="-0.107136" y="-0.35543" width="0.214273" height="0.260859" stroke="none" fill="White"/><text font-family="Arial" font-size="0.21" font-weight="bold" text-anchor="middle" x="0" y="-0.13575" fill="Black">E</text><circle r="0.1" cx="0" cy="0" stroke="Black" stroke-width="0.015625" fill="White"/><rect x="-0.251357" y="0.23957" width="0.502715" height="0.260859" stroke="none" fill="White"/><text font-family="Arial" font-size="0.21" font-weight="bold" text-anchor="middle" x="0" y="0.45925" fill="Black">Ilani</text></g><g transform="translate(0.5,-75) scale(1.1547 1)"><circle transform="translate(0.25,-0.18)" r="0.05" cx="0" cy="0" stroke="none" fill="Black"/><rect x="-0.113084" y="-0.35543" width="0.226167" height="0.260859" stroke="none" fill="White"/><text font-family="Arial" font-size="0.21" font-weight="bold" text-anchor="middle" x="0" y="-0.13575" fill="Black">B</text><text font-family="Arial Unicode MS,Segoe UI Symbol,Arial" font-size="0.21" font-weight="bold" text-anchor="middle" x="-0.25" y="0.26925" fill="Black">▲</text><circle r="0.1" cx="0" cy="0" stroke="Black" stroke-width="0.015625" fill="White"/><rect x="-0.359587" y="0.23957" width="0.719175" height="0.260859" stroke="none" fill="White"/><text font-family="Arial" font-size="0.21" font-weight="bold" text-anchor="middle" x="0" y="0.45925" fill="Black">Shuka</text></g><g transform="translate(0.5,-74) scale(1.1547 1)"><circle transform="translate(0.25,-0.18)" r="0.05" cx="0" cy="0" stroke="none" fill="Black"/><rect x="-0.113084" y="-0.35543" width="0.226167" height="0.260859" stroke="none" fill="White"/><text font-family="Arial" font-size="0.21" font-weight="bold" text-anchor="middle" x="0" y="-0.13575" fill="Black">B</text><circle r="0.1" cx="0" cy="0" stroke="Black" stroke-width="0.015625" fill="White"/><rect x="-0.371585" y="0.23957" width="0.743169" height="0.260859" stroke="none" fill="White"/><text font-family="Arial" font-size="0.21" font-weight="bold" text-anchor="middle" x="0" y="0.45925" fill="Black">Odsad</text></g><g transform="translate(0.5,-70) scale(1.1547 1)"><circle transform="translate(0.25,-0.18)" r="0.05" cx="0" cy="0" stroke="none" fill="Black"/><rect x="-0.113084" y="-0.35543" width="0.226167" height="0.260859" stroke="none" fill="White"/><text font-family="Arial" font-size="0.21" font-weight="bold" text-anchor="middle" x="0" y="-0.13575" fill="Black">B</text><text font-family="Arial Unicode MS,Segoe UI Symbol,Arial" font-size="0.21" font-weight="bold" text-anchor="middle" x="-0.25" y="0.26925" fill="#E32736">▲</text><circle r="0.1" cx="0" cy="0" stroke="none" fill="DeepSkyBlue"/><rect x="-0.485762" y="0.23957" width="0.971524" height="0.260859" stroke="none" fill="White"/><text font-family="Arial" font-size="0.21" font-weight="bold" text-anchor="middle" x="0" y="0.45925" fill="Black">Umilikha</text></g><g transform="translate(1.5,-79.5) scale(1.1547 1)"><circle transform="translate(0.25,-0.18)" r="0.05" cx="0" cy="0" stroke="none" fill="Black"/><rect x="-0.107136" y="-0.35543" width="0.214273" height="0.260859" stroke="none" fill="White"/><text font-family="Arial" font-size="0.21" font-weight="bold" text-anchor="middle" x="0" y="-0.13575" fill="Black">E</text><circle r="0.1" cx="0" cy="0" stroke="Black" stroke-width="0.015625" fill="White"/><rect x="-0.443464" y="0.23957" width="0.886929" height="0.260859" stroke="none" fill="White"/><text font-family="Arial" font-size="0.21" font-weight="bold" text-anchor="middle" x="0" y="0.45925" fill="Black">AMBON</text></g><g transform="translate(1.5,-77.5) scale(1.1547 1)"><circle transform="translate(0.25,-0.18)" r="0.05" cx="0" cy="0" stroke="none" fill="Black"/><rect x="-0.107136" y="-0.35543" width="0.214273" height="0.260859" stroke="none" fill="White"/><text font-family="Arial" font-size="0.21" font-weight="bold" text-anchor="middle" x="0" y="-0.13575" fill="Black">E</text><circle r="0.1" cx="0" cy="0" stroke="none" fill="DeepSkyBlue"/><rect x="-0.461511" y="0.23957" width="0.923022" height="0.260859" stroke="none" fill="White"/><text font-family="Arial" font-size="0.21" font-weight="bold" text-anchor="middle" x="0" y="0.45925" fill="Black">IRGUKH</text></g><g transform="translate(1.5,-71.5) scale(1.1547 1)"><rect x="-0.113084" y="-0.35543" width="0.226167" height="0.260859" stroke="none" fill="White"/><text font-family="Arial" font-size="0.21" font-weight="bold" text-anchor="middle" x="0" y="-0.13575" fill="Black">A</text><circle r="0.1" cx="0" cy="0" stroke="Black" stroke-width="0.015625" fill="White"/><rect x="-0.365535" y="0.23957" width="0.731069" height="0.260859" stroke="none" fill="White"/><text font-family="Arial" font-size="0.21" font-weight="bold" text-anchor="middle" x="0" y="0.45925" fill="Black">Kilikiir</text></g><g transform="translate(2.5,-79) scale(1.1547 1)"><circle transform="translate(0.25,-0.18)" r="0.05" cx="0" cy="0" stroke="none" fill="Black"/><rect x="-0.107136" y="-0.35543" width="0.214273" height="0.260859" stroke="none" fill="White"/><text font-family="Arial" font-size="0.21" font-weight="bold" text-anchor="middle" x="0" y="-0.13575" fill="Black">E</text><circle r="0.1" cx="0" cy="0" stroke="none" fill="DeepSkyBlue"/><rect x="-0.774153" y="0.23957" width="1.54831" height="0.260859" stroke="none" fill="White"/><text font-family="Arial" font-size="0.21" font-weight="bold" text-anchor="middle" x="0" y="0.45925" fill="Black">Zheos Theong</text></g><g transform="translate(2.5,-74) scale(1.1547 1)"><circle transform="translate(0.25,-0.18)" r="0.05" cx="0" cy="0" stroke="none" fill="Black"/><rect x="-0.113084" y="-0.35543" width="0.226167" height="0.260859" stroke="none" fill="White"/><text font-family="Arial" font-size="0.21" font-weight="bold" text-anchor="middle" x="0" y="-0.13575" fill="Black">C</text><text font-family="Arial Unicode MS,Segoe UI Symbol,Arial" font-size="0.21" font-weight="bold" text-anchor="middle" x="-0.25" y="0.26925" fill="Black">▲</text><circle r="0.1" cx="0" cy="0" stroke="Black" stroke-width="0.015625" fill="White"/><rect x="-0.497656" y="0.23957" width="0.995313" height="0.260859" stroke="none" fill="White"/><text font-family="Arial" font-size="0.21" font-weight="bold" text-anchor="middle" x="0" y="0.45925" fill="Black">SPROAN</text></g><g transform="translate(2.5,-73) scale(1.1547 1)"><rect x="-0.113084" y="-0.35543" width="0.226167" height="0.260859" stroke="none" fill="White"/><text font-family="Arial" font-size="0.21" font-weight="bold" text-anchor="middle" x="0" y="-0.13575" fill="Black">B</text><circle r="0.1" cx="0" cy="0" stroke="none" fill="DeepSkyBlue"/><rect x="-0.359587" y="0.23957" width="0.719175" height="0.260859" stroke="none" fill="White"/><text font-family="Arial" font-size="0.21" font-weight="bold" text-anchor="middle" x="0" y="0.45925" fill="Black">Saden</text></g><g transform="translate(2.5,-72) scale(1.1547 1)"><circle transform="translate(0.25,-0.18)" r="0.05" cx="0" cy="0" stroke="none" fill="Black"/><rect x="-0.107136" y="-0.35543" width="0.214273" height="0.260859" stroke="none" fill="White"/><text font-family="Arial" font-size="0.21" font-weight="bold" text-anchor="middle" x="0" y="-0.13575" fill="Black">E</text><circle r="0.1" cx="0" cy="0" stroke="Black" stroke-width="0.015625" fill="White"/><rect x="-0.467766" y="0.23957" width="0.935532" height="0.260859" stroke="none" fill="White"/><text font-family="Arial" font-size="0.21" font-weight="bold" text-anchor="middle" x="0" y="0.45925" fill="Black">Breeden</text></g><g transform="translate(3.5,-79.5) scale(1.1547 1)"><circle transform="translate(0.25,-0.18)" r="0.05" cx="0" cy="0" stroke="none" fill="Black"/><rect x="-0.107136" y="-0.35543" width="0.214273" height="0.260859" stroke="none" fill="White"/><text font-family="Arial" font-size="0.21" font-weight="bold" text-anchor="middle" x="0" y="-0.13575" fill="Black">E</text><circle r="0.1" cx="0" cy="0" stroke="Black" stroke-width="0.015625" fill="White"/><rect x="-0.557949" y="0.23957" width="1.1159" height="0.260859" stroke="none" fill="White"/><text font-family="Arial" font-size="0.21" font-weight="bold" text-anchor="middle" x="0" y="0.45925" fill="Black">Barapalok</text></g><g transform="translate(3.5,-76.5) scale(1.1547 1)"><circle transform="translate(0.25,-0.18)" r="0.05" cx="0" cy="0" stroke="none" fill="Black"/><rect x="-0.113084" y="-0.35543" width="0.226167" height="0.260859" stroke="none" fill="White"/><text font-family="Arial" font-size="0.21" font-weight="bold" text-anchor="middle" x="0" y="-0.13575" fill="Black">D</text><circle r="0.1" cx="0" cy="0" stroke="none" fill="DeepSkyBlue"/><rect x="-0.359434" y="0.23957" width="0.718867" height="0.260859" stroke="none" fill="White"/><text font-family="Arial" font-size="0.21" font-weight="bold" text-anchor="middle" x="0" y="0.45925" fill="Black">SATIN</text></g><g transform="translate(3.5,-75.5) scale(1.1547 1)"><rect x="-0.107136" y="-0.35543" width="0.214273" height="0.260859" stroke="none" fill="White"/><text font-family="Arial" font-size="0.21" font-weight="bold" text-anchor="middle" x="0" y="-0.13575" fill="Black">E</text><circle r="0.1" cx="0" cy="0" stroke="Black" stroke-width="0.015625" fill="White"/><rect x="-0.49176" y="0.23957" width="0.983521" height="0.260859" stroke="none" fill="White"/><text font-family="Arial" font-size="0.21" font-weight="bold" text-anchor="middle" x="0" y="0.45925" fill="Black">Aamigim</text></g><g transform="translate(4.5,-76) scale(1.1547 1)"><circle transform="translate(0.25,-0.18)" r="0.05" cx="0" cy="0" stroke="none" fill="Black"/><rect x="-0.113084" y="-0.35543" width="0.226167" height="0.260859" stroke="none" fill="White"/><text font-family="Arial" font-size="0.21" font-weight="bold" text-anchor="middle" x="0" y="-0.13575" fill="Black">C</text><text font-family="Arial Unicode MS,Segoe UI Symbol,Arial" font-size="0.21" font-weight="bold" text-anchor="middle" x="-0.25" y="0.26925" fill="Black">▲</text><circle r="0.1" cx="0" cy="0" stroke="none" fill="DeepSkyBlue"/><rect x="-0.563999" y="0.23957" width="1.128" height="0.260859" stroke="none" fill="White"/><text font-family="Arial" font-size="0.21" font-weight="bold" text-anchor="middle" x="0" y="0.45925" fill="Black">Sorsa Pha</text></g><g transform="translate(4.5,-73) scale(1.1547 1)"><circle transform="translate(0.25,-0.18)" r="0.05" cx="0" cy="0" stroke="none" fill="Black"/><rect x="-0.113084" y="-0.35543" width="0.226167" height="0.260859" stroke="none" fill="White"/><text font-family="Arial" font-size="0.21" font-weight="bold" text-anchor="middle" x="0" y="-0.13575" fill="Black">A</text><circle r="0.1" cx="0" cy="0" stroke="none" fill="DeepSkyBlue"/><rect x="-0.587634" y="0.23957" width="1.17527" height="0.260859" stroke="none" fill="White"/><text font-family="Arial" font-size="0.21" font-weight="bold" text-anchor="middle" x="0" y="0.45925" fill="#E32736">VAKKUUM</text></g><g transform="translate(4.5,-70) scale(1.1547 1)"><rect x="-0.113084" y="-0.35543" width="0.226167" height="0.260859" stroke="none" fill="White"/><text font-family="Arial" font-size="0.21" font-weight="bold" text-anchor="middle" x="0" y="-0.13575" fill="Black">C</text><circle r="0.1" cx="0" cy="0" stroke="none" fill="DeepSkyBlue"/><rect x="-0.359536" y="0.23957" width="0.719072" height="0.260859" stroke="none" fill="White"/><text font-family="Arial" font-size="0.21" font-weight="bold" text-anchor="middle" x="0" y="0.45925" fill="Black">Irgiida</text></g><g transform="translate(5.5,-78.5) scale(1.1547 1)"><circle transform="translate(0.25,-0.18)" r="0.05" cx="0" cy="0" stroke="none" fill="Black"/><rect x="-0.107136" y="-0.35543" width="0.214273" height="0.260859" stroke="none" fill="White"/><text font-family="Arial" font-size="0.21" font-weight="bold" text-anchor="middle" x="0" y="-0.13575" fill="Black">E</text><ellipse rx="0.0217571" ry="0.0333667" cx="-0.07" cy="-0.07" stroke="none" fill="Black"/><ellipse rx="0.0277842" ry="0.0346268" cx="0" cy="-0.07" stroke="none" fill="Black"/><ellipse rx="0.0257003" ry="0.0244818" cx="-0.105" cy="0" stroke="none" fill="Black"/><ellipse rx="0.0320242" ry="0.0331841" cx="-0.035" cy="0" stroke="none" fill="Black"/><ellipse rx="0.0227002" ry="0.0274093" cx="0.035" cy="0" stroke="none" fill="Black"/><ellipse rx="0.031018" ry="0.0311324" cx="-0.07" cy="0.07" stroke="none" fill="Black"/><ellipse rx="0.0325442" ry="0.0287437" cx="0.07" cy="0.07" stroke="none" fill="Black"/><rect x="-0.389631" y="0.23957" width="0.779263" height="0.260859" stroke="none" fill="White"/><text font-family="Arial" font-size="0.21" font-weight="bold" text-anchor="middle" x="0" y="0.45925" fill="Black">Shiime</text><text font-family="Arial" font-size="0.14" text-anchor="middle" x="0.25" y="0.2395" fill="Black">CsIm</text></g><g transform="translate(5.5,-75.5) scale(1.1547 1)"><rect x="-0.113084" y="-0.35543" width="0.226167" height="0.260859" stroke="none" fill="White"/><text font-family="Arial" font-size="0.21" font-weight="bold" text-anchor="middle" x="0" y="-0.13575" fill="Black">C</text><text font-family="Arial Unicode MS,Segoe UI Symbol,Arial" font-size="0.21" font-weight="bold" text-anchor="middle" x="-0.25" y="0.26925" fill="Black">▲</text><circle r="0.1" cx="0" cy="0" stroke="none" fill="DeepSkyBlue"/><rect x="-0.347437" y="0.23957" width="0.694873" height="0.260859" stroke="none" fill="White"/><text font-family="Arial" font-size="0.21" font-weight="bold" text-anchor="middle" x="0" y="0.45925" fill="Black">Norijo</text></g><g transform="translate(5.5,-73.5) scale(1.1547 1)"><rect x="-0.113084" y="-0.35543" width="0.226167" height="0.260859" stroke="none" fill="White"/><text font-family="Arial" font-size="0.21" font-weight="bold" text-anchor="middle" x="0" y="-0.13575" fill="Black">B</text><circle r="0.1" cx="0" cy="0" stroke="none" fill="DeepSkyBlue"/><rect x="-0.323442" y="0.23957" width="0.646885" height="0.260859" stroke="none" fill="White"/><text font-family="Arial" font-size="0.21" font-weight="bold" text-anchor="middle" x="0" y="0.45925" fill="Black">Naloz</text></g><g transform="translate(6.5,-78) scale(1.1547 1)"><rect x="-0.113084" y="-0.35543" width="0.226167" height="0.260859" stroke="none" fill="White"/><text font-family="Arial" font-size="0.21" font-weight="bold" text-anchor="middle" x="0" y="-0.13575" fill="Black">C</text><circle r="0.1" cx="0" cy="0" stroke="none" fill="DeepSkyBlue"/><rect x="-0.690173" y="0.23957" width="1.38035" height="0.260859" stroke="none" fill="White"/><text font-family="Arial" font-size="0.21" font-weight="bold" text-anchor="middle" x="0" y="0.45925" fill="Black">Amumisshar</text><text font-family="Arial" font-size="0.14" text-anchor="middle" x="0.25" y="0.2395" fill="Black">NaHu</text></g><g transform="translate(6.5,-75) scale(1.1547 1)"><circle transform="translate(0.25,-0.18)" r="0.05" cx="0" cy="0" stroke="none" fill="Black"/><rect x="-0.113084" y="-0.35543" width="0.226167" height="0.260859" stroke="none" fill="White"/><text font-family="Arial" font-size="0.21" font-weight="bold" text-anchor="middle" x="0" y="-0.13575" fill="Black">A</text><circle r="0.1" cx="0" cy="0" stroke="none" fill="DeepSkyBlue"/><rect x="-0.61814" y="0.23957" width="1.23628" height="0.260859" stroke="none" fill="White"/><text font-family="Arial" font-size="0.21" font-weight="bold" text-anchor="middle" x="0" y="0.45925" fill="Black">Sharasham</text></g><g transform="translate(6.5,-74) scale(1.1547 1)"><circle transform="translate(0.25,-0.18)" r="0.05" cx="0" cy="0" stroke="none" fill="Black"/><rect x="-0.113084" y="-0.35543" width="0.226167" height="0.260859" stroke="none" fill="White"/><text font-family="Arial" font-size="0.21" font-weight="bold" text-anchor="middle" x="0" y="-0.13575" fill="Black">A</text><text font-family="Arial Unicode MS,Segoe UI Symbol,Arial" font-size="0.21" font-weight="bold" text-anchor="middle" x="-0.25" y="-0.09075" fill="Black">★</text><circle r="0.1" cx="0" cy="0" stroke="Black" stroke-width="0.015625" fill="White"/><rect x="-0.371636" y="0.23957" width="0.743272" height="0.260859" stroke="none" fill="White"/><text font-family="Arial" font-size="0.21" font-weight="bold" text-anchor="middle" x="0" y="0.45925" fill="Black">Pei Ok</text></g><g transform="translate(6.5,-72) scale(1.1547 1)"><circle transform="translate(0.25,-0.18)" r="0.05" cx="0" cy="0" stroke="none" fill="Black"/><rect x="-0.113084" y="-0.35543" width="0.226167" height="0.260859" stroke="none" fill="White"/><text font-family="Arial" font-size="0.21" font-weight="bold" text-anchor="middle" x="0" y="-0.13575" fill="Black">C</text><text font-family="Arial Unicode MS,Segoe UI Symbol,Arial" font-size="0.21" font-weight="bold" text-anchor="middle" x="-0.25" y="0.26925" fill="Black">▲</text><circle r="0.1" cx="0" cy="0" stroke="Black" stroke-width="0.015625" fill="White"/><rect x="-0.425674" y="0.23957" width="0.851348" height="0.260859" stroke="none" fill="White"/><text font-family="Arial" font-size="0.21" font-weight="bold" text-anchor="middle" x="0" y="0.45925" fill="Black">Gegirur</text></g><g transform="translate(6.5,-70) scale(1.1547 1)"><circle transform="translate(0.25,-0.18)" r="0.05" cx="0" cy="0" stroke="none" fill="Black"/><rect x="-0.113084" y="-0.35543" width="0.226167" height="0.260859" stroke="none" fill="White"/><text font-family="Arial" font-size="0.21" font-weight="bold" text-anchor="middle" x="0" y="-0.13575" fill="Black">B</text><text font-family="Arial Unicode MS,Segoe UI Symbol,Arial" font-size="0.21" font-weight="bold" text-anchor="middle" x="-0.25" y="-0.09075" fill="Black">★</text><circle r="0.1" cx="0" cy="0" stroke="Black" stroke-width="0.015625" fill="White"/><rect x="-0.365535" y="0.23957" width="0.731069" height="0.260859" stroke="none" fill="White"/><text font-family="Arial" font-size="0.21" font-weight="bold" text-anchor="middle" x="0" y="0.45925" fill="Black">Phago</text></g></g></svg>