<?xml version = "1.0" encoding="utf-8"?>
<svg version="1.1" baseProfile="full" xmlns="http://www.w3.org/2000/svg" xmlns:xlink="http://www.w3.org/1999/xlink" width="471" height="684" viewBox="0 0 471 684" clip="0 471 0 684"><defs><clipPath id="did1"><rect x="-97.25" y="-60.1" width="8.5" height="10.7"/></clipPath><clipPath id="did2"><path d="M-97.8333,-78.5l-0.333328,-0.5l0.333328,-0.5h0.666672l0.333328,0.5h0.666672l0.333328,-0.5h0.666672l0.333328,0.5h0.666672l0.333328,0.5h0.666672l0.333328,-0.5h0.666672l0.333328,0.5h0.666672l0.333328,0.5l-0.333328,0.5l0.333328,0.5l-0.333328,0.5l0.333328,0.5h0.666672l0.333328,0.5h0.666672l0.333328,0.5h0.666672l0.333328,0.5h0.666672l0.333328,0.5h0.666672l0.333328,-0.5h0.666672l0.333328,-0.5h0.666672l0.333328,-0.5h0.666672l0.333328,-0.5h0.666672l0.333328,0.5h0.666672l0.333328,0.5h0.666672l0.333328,-0.5h0.666672l0.333328,-0.5h0.666672l0.333328,0.5h0.666672l0.333328,-0.5h0.666672l0.333328,0.5h0.666672l0.333328,0.5h0.666672l0.333328,-0.5h0.666672l0.333328,0.5h0.666672l0.333328,0.5h0.666672l0.333328,-0.5h0.666672l0.333328,-0.5h0.666672l0.333328,-0.5h0.666672l0.333328,0.5h0.666672l0.333328,-0.5h0.666672l0.333328,-0.5h0.666672l0.333328,-0.5l-0.333328,-0.5l0.333328,-0.5h0.666672l0.333332,0.5l-0.333332,0.5l0.333332,0.5l-0.333332,0.5l0.333332,0.5l-0.333332,0.5l0.333332,0.5l-0.333332,0.5l0.333332,0.5l-0.333332,0.5l0.333332,0.5l-0.333332,0.5l0.333332,0.5l-0.333332,0.5l0.333332,0.5l-0.333332,0.5l0.333332,0.5l-0.333332,0.5l0.333332,0.5l-0.333332,0.5l0.333332,0.5l-0.333332,0.5l0.333332,0.5l-0.333332,0.5l0.333332,0.5l-0.333332,0.5l0.333332,0.5l-0.333332,0.5l0.333332,0.5l-0.333332,0.5l0.333332,0.5l-0.333332,0.5l0.333332,0.5l-0.333332,0.5h-0.666672l-0.333328,0.5h-0.666672l-0.333328,-0.5h-0.666672l-0.333328,0.5h-0.666672l-0.333328,0.5h-0.666672l-0.333328,0.5h-0.666672l-0.333328,0.5h-0.666672l-0.333328,0.5h-0.666672l-0.333328,0.5l0.333328,0.5l-0.333328,0.5h-0.666672l-0.333328,0.5l0.333328,0.5l-0.333328,0.5l0.333328,0.5l-0.333328,0.5h-0.666672l-0.333328,0.5h-0.666672l-0.333328,0.5l0.333328,0.5l-0.333328,0.5l0.333328,0.5l-0.333328,0.5h-0.666672l-0.333328,0.5l0.333328,0.5l-0.333328,0.5l0.333328,0.5l-0.333328,0.5h-0.666672l-0.333328,0.5h-0.666672l-0.333328,0.5l0.333328,0.5l-0.333328,0.5h-0.666672l-0.333328,0.5l0.333328,0.5l-0.333328,0.5l0.333328,0.5l-0.333328,0.5h-0.666672l-0.333328,0.5l0.333328,0.5l-0.333328,0.5h-0.666672l-0.333328,0.5l0.333328,0.5l-0.333328,0.5l0.333328,0.5l-0.333328,0.5l0.333328,0.5l-0.333328,0.5h-0.666672l-0.333328,0.5h-0.666672l-0.333328,0.5h-0.666672l-0.333328,-0.5h-0.666672l-0.333328,0.5h-0.666672l-0.333328,-0.5h-0.666672l-0.333328,0.5h-0.666672l-0.333328,-0.5h-0.666672l-0.333328,0.5h-0.666672l-0.333328,-0.5h-0.666672l-0.333328,0.5h-0.666672l-0.333328,-0.5h-0.666672l-0.333328,0.5h-0.666672l-0.333328,-0.5h-0.666672l-0.333328,0.5h-0.666672l-0.333328,-0.5h-0.666672l-0.333328,0.5h-0.666672l-0.333328,-0.5l0.333328,-0.5l-0.333328,-0.5l0.333328,-0.5l-0.333328,-0.5l0.333328,-0.5l-0.333328,-0.5l0.333328,-0.5l-0.333328,-0.5l0.333328,-0.5l-0.333328,-0.5l0.333328,-0.5l-0.333328,-0.5l0.333328,-0.5l-0.333328,-0.5l0.333328,-0.5l-0.333328,-0.5l0.333328,-0.5l-0.333328,-0.5l0.333328,-0.5l-0.333328,-0.5l0.333328,-0.5l-0.333328,-0.5l0.333328,-0.5l-0.333328,-0.5l0.333328,-0.5l-0.333328,-0.5l0.333328,-0.5l-0.333328,-0.5l0.333328,-0.5l-0.333328,-0.5l0.333328,-0.5l-0.333328,-0.5l0.333328,-0.5l-0.333328,-0.5l0.333328,-0.5l-0.333328,-0.5l0.333328,-0.5l-0.333328,-0.5l0.333328,-0.5l-0.333328,-0.5l0.333328,-0.5l-0.333328,-0.5l0.333328,-0.5l-0.333328,-0.5l0.333328,-0.5l-0.333328,-0.5l0.333328,-0.5l-0.333328,-0.5l0.333328,-0.5l-0.333328,-0.5l0.333328,-0.5l-0.333328,-0.5l0.333328,-0.5l-0.333328,-0.5l0.333328,-0.5l-0.333328,-0.5l0.333328,-0.5l-0.333328,-0.5l0.333328,-0.5l-0.333328,-0.5l0.333328,-0.5l-0.333328,-0.5l0.333328,-0.5l-0.333328,-0.5l0.333328,-0.5l-0.333328,-0.5l0.333328,-0.5l-0.333328,-0.5l0.333328,-0.5l-0.333328,-0.5l0.333328,-0.5l-0.333328,-0.5l0.333328,-0.5l-0.333328,-0.5l0.333328,-0.5l-0.333328,-0.5l0.333328,-0.5l-0.333328,-0.5Z"/></clipPath><clipPath id="did3"><path d="M-65.8333,-79.5l-0.333328,-0.5l0.333328,-0.5h0.666672l0.333328,-0.5h0.666672l0.333332,0.5l-0.333332,0.5l0.333332,0.5l-0.333332,0.5h-0.666672l-0.333328,0.5h-0.666672l-0.333328,-0.5Z"/></clipPath><clipPath id="did4"><path d="M-71.8333,-76.5l-0.333328,-0.5l0.333328,-0.5h0.666672l0.333328,-0.5l-0.333328,-0.5l0.333328,-0.5l-0.333328,-0.5l0.333328,-0.5h0.666672l0.333328,-0.5h0.666672l0.333328,-0.5h0.666672l0.333328,0.5l-0.333328,0.5h-0.666672l-0.333328,0.5h-0.666672l-0.333328,0.5l0.333328,0.5l-0.333328,0.5l0.333328,0.5h0.666672l0.333328,0.5h0.666672l0.333328,0.5h0.666672l0.333328,0.5l-0.333328,0.5h-0.666672l-0.333328,-0.5h-0.666672l-0.333328,-0.5h-0.666672l-0.333328,0.5h-0.666672l-0.333328,-0.5Z"/></clipPath><clipPath id="did5"><rect x="-97.25" y="-60.1" width="8.5" height="10.7"/></clipPath><clipPath id="did6"><rect x="-97.25" y="-60.1" width="8.5" height="10.7"/></clipPath></defs><g fill="None" stroke="None" transform="matrix(1,0,0,1,0,0) matrix(55.4256,0,0,64,5390.14,3846.4)"><g clip-path="url(#did1)"><rect x="-98.1" y="-61.17" width="10.2" height="12.84" stroke="none" fill="White"/><path d="M-99.1667,-61.5v0l0.333328,0.5h0.666672l0.333328,-0.5" stroke="#808080" stroke-width="0.015625" fill="none"/><path d="M-99.1667,-60.5v0l0.333328,0.5h0.666672l0.333328,-0.5" stroke="#808080" stroke-width="0.015625" fill="none"/><path d="M-99.1667,-59.5v0l0.333328,0.5h0.666672l0.333328,-0.5" stroke="#808080" stroke-width="0.015625" fill="none"/><path d="M-99.1667,-58.5v0l0.333328,0.5h0.666672l0.333328,-0.5" stroke="#808080" stroke-width="0.015625" fill="none"/><path d="M-99.1667,-57.5v0l0.333328,0.5h0.666672l0.333328,-0.5" stroke="#808080" stroke-width="0.015625" fill="none"/><path d="M-99.1667,-56.5v0l0.333328,0.5h0.666672l0.333328,-0.5" stroke="#808080" stroke-width="0.015625" fill="none"/><path d="M-99.1667,-55.5v0l0.333328,0.5h0.666672l0.333328,-0.5" stroke="#808080" stroke-width="0.015625" fill="none"/><path d="M-99.1667,-54.5v0l0.333328,0.5h0.666672l0.333328,-0.5" stroke="#808080" stroke-width="0.015625" fill="none"/><path d="M-99.1667,-53.5v0l0.333328,0.5h0.666672l0.333328,-0.5" stroke="#808080" stroke-width="0.015625" fill="none"/><path d="M-99.1667,-52.5v0l0.333328,0.5h0.666672l0.333328,-0.5" stroke="#808080" stroke-width="0.015625" fill="none"/><path d="M-99.1667,-51.5v0l0.333328,0.5h0.666672l0.333328,-0.5" stroke="#808080" stroke-width="0.015625" fill="none"/><path d="M-99.1667,-50.5v0l0.333328,0.5h0.666672l0.333328,-0.5" stroke="#808080" stroke-width="0.015625" fill="none"/><path d="M-99.1667,-49.5v0l0.333328,0.5h0.666672l0.333328,-0.5" stroke="#808080" stroke-width="0.015625" fill="none"/><path d="M-98.1667,-61v0l0.333328,0.5h0.666672l0.333328,-0.5" stroke="#808080" stroke-width="0.015625" fill="none"/><path d="M-98.1667,-60v0l0.333328,0.5h0.666672l0.333328,-0.5" stroke="#808080" stroke-width="0.015625" fill="none"/><path d="M-98.1667,-59v0l0.333328,0.5h0.666672l0.333328,-0.5" stroke="#808080" stroke-width="0.015625" fill="none"/><path d="M-98.1667,-58v0l0.333328,0.5h0.666672l0.333328,-0.5" stroke="#808080" stroke-width="0.015625" fill="none"/><path d="M-98.1667,-57v0l0.333328,0.5h0.666672l0.333328,-0.5" stroke="#808080" stroke-width="0.015625" fill="none"/><path d="M-98.1667,-56v0l0.333328,0.5h0.666672l0.333328,-0.5" stroke="#808080" stroke-width="0.015625" fill="none"/><path d="M-98.1667,-55v0l0.333328,0.5h0.666672l0.333328,-0.5" stroke="#808080" stroke-width="0.015625" fill="none"/><path d="M-98.1667,-54v0l0.333328,0.5h0.666672l0.333328,-0.5" stroke="#808080" stroke-width="0.015625" fill="none"/><path d="M-98.1667,-53v0l0.333328,0.5h0.666672l0.333328,-0.5" stroke="#808080" stroke-width="0.015625" fill="none"/><path d="M-98.1667,-52v0l0.333328,0.5h0.666672l0.333328,-0.5" stroke="#808080" stroke-width="0.015625" fill="none"/><path d="M-98.1667,-51v0l0.333328,0.5h0.666672l0.333328,-0.5" stroke="#808080" stroke-width="0.015625" fill="none"/><path d="M-98.1667,-50v0l0.333328,0.5h0.666672l0.333328,-0.5" stroke="#808080" stroke-width="0.015625" fill="none"/><path d="M-98.1667,-49v0l0.333328,0.5h0.666672l0.333328,-0.5" stroke="#808080" stroke-width="0.015625" fill="none"/><path d="M-97.1667,-61.5v0l0.333328,0.5h0.666672l0.333328,-0.5" stroke="#808080" stroke-width="0.015625" fill="none"/><path d="M-97.1667,-60.5v0l0.333328,0.5h0.666672l0.333328,-0.5" stroke="#808080" stroke-width="0.015625" fill="none"/><path d="M-97.1667,-59.5v0l0.333328,0.5h0.666672l0.333328,-0.5" stroke="#808080" stroke-width="0.015625" fill="none"/><path d="M-97.1667,-58.5v0l0.333328,0.5h0.666672l0.333328,-0.5" stroke="#808080" stroke-width="0.015625" fill="none"/><path d="M-97.1667,-57.5v0l0.333328,0.5h0.666672l0.333328,-0.5" stroke="#808080" stroke-width="0.015625" fill="none"/><path d="M-97.1667,-56.5v0l0.333328,0.5h0.666672l0.333328,-0.5" stroke="#808080" stroke-width="0.015625" fill="none"/><path d="M-97.1667,-55.5v0l0.333328,0.5h0.666672l0.333328,-0.5" stroke="#808080" stroke-width="0.015625" fill="none"/><path d="M-97.1667,-54.5v0l0.333328,0.5h0.666672l0.333328,-0.5" stroke="#808080" stroke-width="0.015625" fill="none"/><path d="M-97.1667,-53.5v0l0.333328,0.5h0.666672l0.333328,-0.5" stroke="#808080" stroke-width="0.015625" fill="none"/><path d="M-97.1667,-52.5v0l0.333328,0.5h0.666672l0.333328,-0.5" stroke="#808080" stroke-width="0.015625" fill="none"/><path d="M-97.1667,-51.5v0l0.333328,0.5h0.666672l0.333328,-0.5" stroke="#808080" stroke-width="0.015625" fill="none"/><path d="M-97.1667,-50.5v0l0.333328,0.5h0.666672l0.333328,-0.5" stroke="#808080" stroke-width="0.015625" fill="none"/><path d="M-97.1667,-49.5v0l0.333328,0.5h0.666672l0.333328,-0.5" stroke="#808080" stroke-width="0.015625" fill="none"/><path d="M-96.1667,-61v0l0.333328,0.5h0.666672l0.333328,-0.5" stroke="#808080" stroke-width="0.015625" fill="none"/><path d="M-96.1667,-60v0l0.333328,0.5h0.666672l0.333328,-0.5" stroke="#808080" stroke-width="0.015625" fill="none"/><path d="M-96.1667,-59v0l0.333328,0.5h0.666672l0.333328,-0.5" stroke="#808080" stroke-width="0.015625" fill="none"/><path d="M-96.1667,-58v0l0.333328,0.5h0.666672l0.333328,-0.5" stroke="#808080" stroke-width="0.015625" fill="none"/><path d="M-96.1667,-57v0l0.333328,0.5h0.666672l0.333328,-0.5" stroke="#808080" stroke-width="0.015625" fill="none"/><path d="M-96.1667,-56v0l0.333328,0.5h0.666672l0.333328,-0.5" stroke="#808080" stroke-width="0.015625" fill="none"/><path d="M-96.1667,-55v0l0.333328,0.5h0.666672l0.333328,-0.5" stroke="#808080" stroke-width="0.015625" fill="none"/><path d="M-96.1667,-54v0l0.333328,0.5h0.666672l0.333328,-0.5" stroke="#808080" stroke-width="0.015625" fill="none"/><path d="M-96.1667,-53v0l0.333328,0.5h0.666672l0.333328,-0.5" stroke="#808080" stroke-width="0.015625" fill="none"/><path d="M-96.1667,-52v0l0.333328,0.5h0.666672l0.333328,-0.5" stroke="#808080" stroke-width="0.015625" fill="none"/><path d="M-96.1667,-51v0l0.333328,0.5h0.666672l0.333328,-0.5" stroke="#808080" stroke-width="0.015625" fill="none"/><path d="M-96.1667,-50v0l0.333328,0.5h0.666672l0.333328,-0.5" stroke="#808080" stroke-width="0.015625" fill="none"/><path d="M-96.1667,-49v0l0.333328,0.5h0.666672l0.333328,-0.5" stroke="#808080" stroke-width="0.015625" fill="none"/><path d="M-95.1667,-61.5v0l0.333328,0.5h0.666672l0.333328,-0.5" stroke="#808080" stroke-width="0.015625" fill="none"/><path d="M-95.1667,-60.5v0l0.333328,0.5h0.666672l0.333328,-0.5" stroke="#808080" stroke-width="0.015625" fill="none"/><path d="M-95.1667,-59.5v0l0.333328,0.5h0.666672l0.333328,-0.5" stroke="#808080" stroke-width="0.015625" fill="none"/><path d="M-95.1667,-58.5v0l0.333328,0.5h0.666672l0.333328,-0.5" stroke="#808080" stroke-width="0.015625" fill="none"/><path d="M-95.1667,-57.5v0l0.333328,0.5h0.666672l0.333328,-0.5" stroke="#808080" stroke-width="0.015625" fill="none"/><path d="M-95.1667,-56.5v0l0.333328,0.5h0.666672l0.333328,-0.5" stroke="#808080" stroke-width="0.015625" fill="none"/><path d="M-95.1667,-55.5v0l0.333328,0.5h0.666672l0.333328,-0.5" stroke="#808080" stroke-width="0.015625" fill="none"/><path d="M-95.1667,-54.5v0l0.333328,0.5h0.666672l0.333328,-0.5" stroke="#808080" stroke-width="0.015625" fill="none"/><path d="M-95.1667,-53.5v0l0.333328,0.5h0.666672l0.333328,-0.5" stroke="#808080" stroke-width="0.015625" fill="none"/><path d="M-95.1667,-52.5v0l0.333328,0.5h0.666672l0.333328,-0.5" stroke="#808080" stroke-width="0.015625" fill="none"/><path d="M-95.1667,-51.5v0l0.333328,0.5h0.666672l0.333328,-0.5" stroke="#808080" stroke-width="0.015625" fill="none"/><path d="M-95.1667,-50.5v0l0.333328,0.5h0.666672l0.333328,-0.5" stroke="#808080" stroke-width="0.015625" fill="none"/><path d="M-95.1667,-49.5v0l0.333328,0.5h0.666672l0.333328,-0.5" stroke="#808080" stroke-width="0.015625" fill="none"/><path d="M-94.1667,-61v0l0.333328,0.5h0.666672l0.333328,-0.5" stroke="#808080" stroke-width="0.015625" fill="none"/><path d="M-94.1667,-60v0l0.333328,0.5h0.666672l0.333328,-0.5" stroke="#808080" stroke-width="0.015625" fill="none"/><path d="M-94.1667,-59v0l0.333328,0.5h0.666672l0.333328,-0.5" stroke="#808080" stroke-width="0.015625" fill="none"/><path d="M-94.1667,-58v0l0.333328,0.5h0.666672l0.333328,-0.5" stroke="#808080" stroke-width="0.015625" fill="none"/><path d="M-94.1667,-57v0l0.333328,0.5h0.666672l0.333328,-0.5" stroke="#808080" stroke-width="0.015625" fill="none"/><path d="M-94.1667,-56v0l0.333328,0.5h0.666672l0.333328,-0.5" stroke="#808080" stroke-width="0.015625" fill="none"/><path d="M-94.1667,-55v0l0.333328,0.5h0.666672l0.333328,-0.5" stroke="#808080" stroke-width="0.015625" fill="none"/><path d="M-94.1667,-54v0l0.333328,0.5h0.666672l0.333328,-0.5" stroke="#808080" stroke-width="0.015625" fill="none"/><path d="M-94.1667,-53v0l0.333328,0.5h0.666672l0.333328,-0.5" stroke="#808080" stroke-width="0.015625" fill="none"/><path d="M-94.1667,-52v0l0.333328,0.5h0.666672l0.333328,-0.5" stroke="#808080" stroke-width="0.015625" fill="none"/><path d="M-94.1667,-51v0l0.333328,0.5h0.666672l0.333328,-0.5" stroke="#808080" stroke-width="0.015625" fill="none"/><path d="M-94.1667,-50v0l0.333328,0.5h0.666672l0.333328,-0.5" stroke="#808080" stroke-width="0.015625" fill="none"/><path d="M-94.1667,-49v0l0.333328,0.5h0.666672l0.333328,-0.5" stroke="#808080" stroke-width="0.015625" fill="none"/><path d="M-93.1667,-61.5v0l0.333328,0.5h0.666672l0.333328,-0.5" stroke="#808080" stroke-width="0.015625" fill="none"/><path d="M-93.1667,-60.5v0l0.333328,0.5h0.666672l0.333328,-0.5" stroke="#808080" stroke-width="0.015625" fill="none"/><path d="M-93.1667,-59.5v0l0.333328,0.5h0.666672l0.333328,-0.5" stroke="#808080" stroke-width="0.015625" fill="none"/><path d="M-93.1667,-58.5v0l0.333328,0.5h0.666672l0.333328,-0.5" stroke="#808080" stroke-width="0.015625" fill="none"/><path d="M-93.1667,-57.5v0l0.333328,0.5h0.666672l0.333328,-0.5" stroke="#808080" stroke-width="0.015625" fill="none"/><path d="M-93.1667,-56.5v0l0.333328,0.5h0.666672l0.333328,-0.5" stroke="#808080" stroke-width="0.015625" fill="none"/><path d="M-93.1667,-55.5v0l0.333328,0.5h0.666672l0.333328,-0.5" stroke="#808080" stroke-width="0.015625" fill="none"/><path d="M-93.1667,-54.5v0l0.333328,0.5h0.666672l0.333328,-0.5" stroke="#808080" stroke-width="0.015625" fill="none"/><path d="M-93.1667,-53.5v0l0.333328,0.5h0.666672l0.333328,-0.5" stroke="#808080" stroke-width="0.015625" fill="none"/><path d="M-93.1667,-52.5v0l0.333328,0.5h0.666672l0.333328,-0.5" stroke="#808080" stroke-width="0.015625" fill="none"/><path d="M-93.1667,-51.5v0l0.333328,0.5h0.666672l0.333328,-0.5" stroke="#808080" stroke-width="0.015625" fill="none"/><path d="M-93.1667,-50.5v0l0.333328,0.5h0.666672l0.333328,-0.5" stroke="#808080" stroke-width="0.015625" fill="none"/><path d="M-93.1667,-49.5v0l0.333328,0.5h0.666672l0.333328,-0.5" stroke="#808080" stroke-width="0.015625" fill="none"/><path d="M-92.1667,-61v0l0.333328,0.5h0.666672l0.333328,-0.5" stroke="#808080" stroke-width="0.015625" fill="none"/><path d="M-92.1667,-60v0l0.333328,0.5h0.666672l0.333328,-0.5" stroke="#808080" stroke-width="0.015625" fill="none"/><path d="M-92.1667,-59v0l0.333328,0.5h0.666672l0.333328,-0.5" stroke="#808080" stroke-width="0.015625" fill="none"/><path d="M-92.1667,-58v0l0.333328,0.5h0.666672l0.333328,-0.5" stroke="#808080" stroke-width="0.015625" fill="none"/><path d="M-92.1667,-57v0l0.333328,0.5h0.666672l0.333328,-0.5" stroke="#808080" stroke-width="0.015625" fill="none"/><path d="M-92.1667,-56v0l0.333328,0.5h0.666672l0.333328,-0.5" stroke="#808080" stroke-width="0.015625" fill="none"/><path d="M-92.1667,-55v0l0.333328,0.5h0.666672l0.333328,-0.5" stroke="#808080" stroke-width="0.015625" fill="none"/><path d="M-92.1667,-54v0l0.333328,0.5h0.666672l0.333328,-0.5" stroke="#808080" stroke-width="0.015625" fill="none"/><path d="M-92.1667,-53v0l0.333328,0.5h0.666672l0.333328,-0.5" stroke="#808080" stroke-width="0.015625" fill="none"/><path d="M-92.1667,-52v0l0.333328,0.5h0.666672l0.333328,-0.5" stroke="#808080" stroke-width="0.015625" fill="none"/><path d="M-92.1667,-51v0l0.333328,0.5h0.666672l0.333328,-0.5" stroke="#808080" stroke-width="0.015625" fill="none"/><path d="M-92.1667,-50v0l0.333328,0.5h0.666672l0.333328,-0.5" stroke="#808080" stroke-width="0.015625" fill="none"/><path d="M-92.1667,-49v0l0.333328,0.5h0.666672l0.333328,-0.5" stroke="#808080" stroke-width="0.015625" fill="none"/><path d="M-91.1667,-61.5v0l0.333328,0.5h0.666672l0.333328,-0.5" stroke="#808080" stroke-width="0.015625" fill="none"/><path d="M-91.1667,-60.5v0l0.333328,0.5h0.666672l0.333328,-0.5" stroke="#808080" stroke-width="0.015625" fill="none"/><path d="M-91.1667,-59.5v0l0.333328,0.5h0.666672l0.333328,-0.5" stroke="#808080" stroke-width="0.015625" fill="none"/><path d="M-91.1667,-58.5v0l0.333328,0.5h0.666672l0.333328,-0.5" stroke="#808080" stroke-width="0.015625" fill="none"/><path d="M-91.1667,-57.5v0l0.333328,0.5h0.666672l0.333328,-0.5" stroke="#808080" stroke-width="0.015625" fill="none"/><path d="M-91.1667,-56.5v0l0.333328,0.5h0.666672l0.333328,-0.5" stroke="#808080" stroke-width="0.015625" fill="none"/><path d="M-91.1667,-55.5v0l0.333328,0.5h0.666672l0.333328,-0.5" stroke="#808080" stroke-width="0.015625" fill="none"/><path d="M-91.1667,-54.5v0l0.333328,0.5h0.666672l0.333328,-0.5" stroke="#808080" stroke-width="0.015625" fill="none"/><path d="M-91.1667,-53.5v0l0.333328,0.5h0.666672l0.333328,-0.5" stroke="#808080" stroke-width="0.015625" fill="none"/><path d="M-91.1667,-52.5v0l0.333328,0.5h0.666672l0.333328,-0.5" stroke="#808080" stroke-width="0.015625" fill="none"/><path d="M-91.1667,-51.5v0l0.333328,0.5h0.666672l0.333328,-0.5" stroke="#808080" stroke-width="0.015625" fill="none"/><path d="M-91.1667,-50.5v0l0.333328,0.5h0.666672l0.333328,-0.5" stroke="#808080" stroke-width="0.015625" fill="none"/><path d="M-91.1667,-49.5v0l0.333328,0.5h0.666672l0.333328,-0.5" stroke="#808080" stroke-width="0.015625" fill="none"/><path d="M-90.1667,-61v0l0.333328,0.5h0.666672l0.333328,-0.5" stroke="#808080" stroke-width="0.015625" fill="none"/><path d="M-90.1667,-60v0l0.333328,0.5h0.666672l0.333328,-0.5" stroke="#808080" stroke-width="0.015625" fill="none"/><path d="M-90.1667,-59v0l0.333328,0.5h0.666672l0.333328,-0.5" stroke="#808080" stroke-width="0.015625" fill="none"/><path d="M-90.1667,-58v0l0.333328,0.5h0.666672l0.333328,-0.5" stroke="#808080" stroke-width="0.015625" fill="none"/><path d="M-90.1667,-57v0l0.333328,0.5h0.666672l0.333328,-0.5" stroke="#808080" stroke-width="0.015625" fill="none"/><path d="M-90.1667,-56v0l0.333328,0.5h0.666672l0.333328,-0.5" stroke="#808080" stroke-width="0.015625" fill="none"/><path d="M-90.1667,-55v0l0.333328,0.5h0.666672l0.333328,-0.5" stroke="#808080" stroke-width="0.015625" fill="none"/><path d="M-90.1667,-54v0l0.333328,0.5h0.666672l0.333328,-0.5" stroke="#808080" stroke-width="0.015625" fill="none"/><path d="M-90.1667,-53v0l0.333328,0.5h0.666672l0.333328,-0.5" stroke="#808080" stroke-width="0.015625" fill="none"/><path d="M-90.1667,-52v0l0.333328,0.5h0.666672l0.333328,-0.5" stroke="#808080" stroke-width="0.015625" fill="none"/><path d="M-90.1667,-51v0l0.333328,0.5h0.666672l0.333328,-0.5" stroke="#808080" stroke-width="0.015625" fill="none"/><path d="M-90.1667,-50v0l0.333328,0.5h0.666672l0.333328,-0.5" stroke="#808080" stroke-width="0.015625" fill="none"/><path d="M-90.1667,-49v0l0.333328,0.5h0.666672l0.333328,-0.5" stroke="#808080" stroke-width="0.015625" fill="none"/><path d="M-89.1667,-61.5v0l0.333328,0.5h0.666672l0.333328,-0.5" stroke="#808080" stroke-width="0.015625" fill="none"/><path d="M-89.1667,-60.5v0l0.333328,0.5h0.666672l0.333328,-0.5" stroke="#808080" stroke-width="0.015625" fill="none"/><path d="M-89.1667,-59.5v0l0.333328,0.5h0.666672l0.333328,-0.5" stroke="#808080" stroke-width="0.015625" fill="none"/><path d="M-89.1667,-58.5v0l0.333328,0.5h0.666672l0.333328,-0.5" stroke="#808080" stroke-width="0.015625" fill="none"/><path d="M-89.1667,-57.5v0l0.333328,0.5h0.666672l0.333328,-0.5" stroke="#808080" stroke-width="0.015625" fill="none"/><path d="M-89.1667,-56.5v0l0.333328,0.5h0.666672l0.333328,-0.5" stroke="#808080" stroke-width="0.015625" fill="none"/><path d="M-89.1667,-55.5v0l0.333328,0.5h0.666672l0.333328,-0.5" stroke="#808080" stroke-width="0.015625" fill="none"/><path d="M-89.1667,-54.5v0l0.333328,0.5h0.666672l0.333328,-0.5" stroke="#808080" stroke-width="0.015625" fill="none"/><path d="M-89.1667,-53.5v0l0.333328,0.5h0.666672l0.333328,-0.5" stroke="#808080" stroke-width="0.015625" fill="none"/><path d="M-89.1667,-52.5v0l0.333328,0.5h0.666672l0.333328,-0.5" stroke="#808080" stroke-width="0.015625" fill="none"/><path d="M-89.1667,-51.5v0l0.333328,0.5h0.666672l0.333328,-0.5" stroke="#808080" stroke-width="0.015625" fill="none"/><path d="M-89.1667,-50.5v0l0.333328,0.5h0.666672l0.333328,-0.5" stroke="#808080" stroke-width="0.015625" fill="none"/><path d="M-89.1667,-49.5v0l0.333328,0.5h0.666672l0.333328,-0.5" stroke="#808080" stroke-width="0.015625" fill="none"/><path clip-path="url(#did2)" d="M-97.8333,-78.5l-0.333328,-0.5l0.333328,-0.5h0.666672l0.333328,0.5h0.666672l0.333328,-0.5h0.666672l0.333328,0.5h0.666672l0.333328,0.5h0.666672l0.333328,-0.5h0.666672l0.333328,0.5h0.666672l0.333328,0.5l-0.333328,0.5l0.333328,0.5l-0.333328,0.5l0.333328,0.5h0.666672l0.333328,0.5h0.666672l0.333328,0.5h0.666672l0.333328,0.5h0.666672l0.333328,0.5h0.666672l0.333328,-0.5h0.666672l0.333328,-0.5h0.666672l0.333328,-0.5h0.666672l0.333328,-0.5h0.666672l0.333328,0.5h0.666672l0.333328,0.5h0.666672l0.333328,-0.5h0.666672l0.333328,-0.5h0.666672l0.333328,0.5h0.666672l0.333328,-0.5h0.666672l0.333328,0.5h0.666672l0.333328,0.5h0.666672l0.333328,-0.5h0.666672l0.333328,0.5h0.666672l0.333328,0.5h0.666672l0.333328,-0.5h0.666672l0.333328,-0.5h0.666672l0.333328,-0.5h0.666672l0.333328,0.5h0.666672l0.333328,-0.5h0.666672l0.333328,-0.5h0.666672l0.333328,-0.5l-0.333328,-0.5l0.333328,-0.5h0.666672l0.333332,0.5l-0.333332,0.5l0.333332,0.5l-0.333332,0.5l0.333332,0.5l-0.333332,0.5l0.333332,0.5l-0.333332,0.5l0.333332,0.5l-0.333332,0.5l0.333332,0.5l-0.333332,0.5l0.333332,0.5l-0.333332,0.5l0.333332,0.5l-0.333332,0.5l0.333332,0.5l-0.333332,0.5l0.333332,0.5l-0.333332,0.5l0.333332,0.5l-0.333332,0.5l0.333332,0.5l-0.333332,0.5l0.333332,0.5l-0.333332,0.5l0.333332,0.5l-0.333332,0.5l0.333332,0.5l-0.333332,0.5l0.333332,0.5l-0.333332,0.5l0.333332,0.5l-0.333332,0.5h-0.666672l-0.333328,0.5h-0.666672l-0.333328,-0.5h-0.666672l-0.333328,0.5h-0.666672l-0.333328,0.5h-0.666672l-0.333328,0.5h-0.666672l-0.333328,0.5h-0.666672l-0.333328,0.5h-0.666672l-0.333328,0.5l0.333328,0.5l-0.333328,0.5h-0.666672l-0.333328,0.5l0.333328,0.5l-0.333328,0.5l0.333328,0.5l-0.333328,0.5h-0.666672l-0.333328,0.5h-0.666672l-0.333328,0.5l0.333328,0.5l-0.333328,0.5l0.333328,0.5l-0.333328,0.5h-0.666672l-0.333328,0.5l0.333328,0.5l-0.333328,0.5l0.333328,0.5l-0.333328,0.5h-0.666672l-0.333328,0.5h-0.666672l-0.333328,0.5l0.333328,0.5l-0.333328,0.5h-0.666672l-0.333328,0.5l0.333328,0.5l-0.333328,0.5l0.333328,0.5l-0.333328,0.5h-0.666672l-0.333328,0.5l0.333328,0.5l-0.333328,0.5h-0.666672l-0.333328,0.5l0.333328,0.5l-0.333328,0.5l0.333328,0.5l-0.333328,0.5l0.333328,0.5l-0.333328,0.5h-0.666672l-0.333328,0.5h-0.666672l-0.333328,0.5h-0.666672l-0.333328,-0.5h-0.666672l-0.333328,0.5h-0.666672l-0.333328,-0.5h-0.666672l-0.333328,0.5h-0.666672l-0.333328,-0.5h-0.666672l-0.333328,0.5h-0.666672l-0.333328,-0.5h-0.666672l-0.333328,0.5h-0.666672l-0.333328,-0.5h-0.666672l-0.333328,0.5h-0.666672l-0.333328,-0.5h-0.666672l-0.333328,0.5h-0.666672l-0.333328,-0.5h-0.666672l-0.333328,0.5h-0.666672l-0.333328,-0.5l0.333328,-0.5l-0.333328,-0.5l0.333328,-0.5l-0.333328,-0.5l0.333328,-0.5l-0.333328,-0.5l0.333328,-0.5l-0.333328,-0.5l0.333328,-0.5l-0.333328,-0.5l0.333328,-0.5l-0.333328,-0.5l0.333328,-0.5l-0.333328,-0.5l0.333328,-0.5l-0.333328,-0.5l0.333328,-0.5l-0.333328,-0.5l0.333328,-0.5l-0.333328,-0.5l0.333328,-0.5l-0.333328,-0.5l0.333328,-0.5l-0.333328,-0.5l0.333328,-0.5l-0.333328,-0.5l0.333328,-0.5l-0.333328,-0.5l0.333328,-0.5l-0.333328,-0.5l0.333328,-0.5l-0.333328,-0.5l0.333328,-0.5l-0.333328,-0.5l0.333328,-0.5l-0.333328,-0.5l0.333328,-0.5l-0.333328,-0.5l0.333328,-0.5l-0.333328,-0.5l0.333328,-0.5l-0.333328,-0.5l0.333328,-0.5l-0.333328,-0.5l0.333328,-0.5l-0.333328,-0.5l0.333328,-0.5l-0.333328,-0.5l0.333328,-0.5l-0.333328,-0.5l0.333328,-0.5l-0.333328,-0.5l0.333328,-0.5l-0.333328,-0.5l0.333328,-0.5l-0.333328,-0.5l0.333328,-0.5l-0.333328,-0.5l0.333328,-0.5l-0.333328,-0.5l0.333328,-0.5l-0.333328,-0.5l0.333328,-0.5l-0.333328,-0.5l0.333328,-0.5l-0.333328,-0.5l0.333328,-0.5l-0.333328,-0.5l0.333328,-0.5l-0.333328,-0.5l0.333328,-0.5l-0.333328,-0.5l0.333328,-0.5l-0.333328,-0.5l0.333328,-0.5l-0.333328,-0.5l0.333328,-0.5l-0.333328,-0.5Z" stroke="#E32736" stroke-width="0.16" fill="none"/><path clip-path="url(#did3)" d="M-65.8333,-79.5l-0.333328,-0.5l0.333328,-0.5h0.666672l0.333328,-0.5h0.666672l0.333332,0.5l-0.333332,0.5l0.333332,0.5l-0.333332,0.5h-0.666672l-0.333328,0.5h-0.666672l-0.333328,-0.5Z" stroke="OliveDrab" stroke-width="0.16" fill="none"/><path clip-path="url(#did4)" d="M-71.8333,-76.5l-0.333328,-0.5l0.333328,-0.5h0.666672l0.333328,-0.5l-0.333328,-0.5l0.333328,-0.5l-0.333328,-0.5l0.333328,-0.5h0.666672l0.333328,-0.5h0.666672l0.333328,-0.5h0.666672l0.333328,0.5l-0.333328,0.5h-0.666672l-0.333328,0.5h-0.666672l-0.333328,0.5l0.333328,0.5l-0.333328,0.5l0.333328,0.5h0.666672l0.333328,0.5h0.666672l0.333328,0.5h0.666672l0.333328,0.5l-0.333328,0.5h-0.666672l-0.333328,-0.5h-0.666672l-0.333328,-0.5h-0.666672l-0.333328,0.5h-0.666672l-0.333328,-0.5Z" stroke="OliveDrab" stroke-width="0.16" fill="none"/><line x1="-96.2113" y1="-56.5" x2="-92.7887" y2="-56.5" stroke="#048104" stroke-width="0.08"/><line x1="-92.292" y1="-56.3267" x2="-89.708" y2="-54.1733" stroke="#048104" stroke-width="0.08"/><line x1="-90.5" y1="-51.25" x2="-90.5" y2="-49.75" stroke="#048104" stroke-width="0.08"/><line x1="-90.4055" y1="-51.7362" x2="-89.5945" y2="-53.7638" stroke="#048104" stroke-width="0.08"/><line x1="-90.5" y1="-50.25" x2="-90.5" y2="-49.75" stroke="#048104" stroke-width="0.08"/><line x1="-89.3557" y1="-54.2165" x2="-88.6443" y2="-55.2835" stroke="#048104" stroke-width="0.08"/></g><g clip-path="url(#did5)"><text transform="translate(-96.5,-57.5) scale(1.1547 1)" font-family="Arial" font-size="0.14" text-anchor="middle" x="0" y="-0.381" fill="DarkGray">0123</text><text transform="translate(-96.5,-56.5) scale(1.1547 1)" font-family="Arial" font-size="0.14" text-anchor="middle" x="0" y="-0.381" fill="DarkGray">0124</text><g transform="translate(-96.5,-50.5) scale(1.1547 1)"><circle r="0.4" cx="0" cy="0" stroke="#FFCC00" stroke-width="0.05" fill="none"/><text font-family="Arial" font-size="0.14" text-anchor="middle" x="0" y="-0.381" fill="DarkGray">0130</text></g><text transform="translate(-95.5,-59) scale(1.1547 1)" font-family="Arial" font-size="0.14" text-anchor="middle" x="0" y="-0.381" fill="DarkGray">0221</text><g transform="translate(-95.5,-58) scale(1.1547 1)"><circle r="0.4" cx="0" cy="0" stroke="#E32736" stroke-width="0.05" fill="none"/><text font-family="Arial" font-size="0.14" text-anchor="middle" x="0" y="-0.381" fill="DarkGray">0222</text></g><text transform="translate(-95.5,-57) scale(1.1547 1)" font-family="Arial" font-size="0.14" text-anchor="middle" x="0" y="-0.381" fill="DarkGray">0223</text><text transform="translate(-95.5,-56) scale(1.1547 1)" font-family="Arial" font-size="0.14" text-anchor="middle" x="0" y="-0.381" fill="DarkGray">0224</text><g transform="translate(-95.5,-54) scale(1.1547 1)"><circle r="0.4" cx="0" cy="0" stroke="#FFCC00" stroke-width="0.05" fill="none"/><text font-family="Arial" font-size="0.14" text-anchor="middle" x="0" y="-0.381" fill="DarkGray">0226</text></g><text transform="translate(-95.5,-52) scale(1.1547 1)" font-family="Arial" font-size="0.14" text-anchor="middle" x="0" y="-0.381" fill="DarkGray">0228</text><text transform="translate(-95.5,-51) scale(1.1547 1)" font-family="Arial" font-size="0.14" text-anchor="middle" x="0" y="-0.381" fill="DarkGray">0229</text><g transform="translate(-94.5,-53.5) scale(1.1547 1)"><circle r="0.4" cx="0" cy="0" stroke="#FFCC00" stroke-width="0.05" fill="none"/><text font-family="Arial" font-size="0.14" text-anchor="middle" x="0" y="-0.381" fill="DarkGray">0327</text></g><text transform="translate(-94.5,-52.5) scale(1.1547 1)" font-family="Arial" font-size="0.14" text-anchor="middle" x="0" y="-0.381" fill="DarkGray">0328</text><g transform="translate(-94.5,-50.5) scale(1.1547 1)"><circle r="0.4" cx="0" cy="0" stroke="#FFCC00" stroke-width="0.05" fill="none"/><text font-family="Arial" font-size="0.14" text-anchor="middle" x="0" y="-0.381" fill="DarkGray">0330</text></g><text transform="translate(-93.5,-58) scale(1.1547 1)" font-family="Arial" font-size="0.14" text-anchor="middle" x="0" y="-0.381" fill="DarkGray">0422</text><text transform="translate(-92.5,-56.5) scale(1.1547 1)" font-family="Arial" font-size="0.14" text-anchor="middle" x="0" y="-0.381" fill="DarkGray">0524</text><text transform="translate(-92.5,-55.5) scale(1.1547 1)" font-family="Arial" font-size="0.14" text-anchor="middle" x="0" y="-0.381" fill="DarkGray">0525</text><text transform="translate(-92.5,-51.5) scale(1.1547 1)" font-family="Arial" font-size="0.14" text-anchor="middle" x="0" y="-0.381" fill="DarkGray">0529</text><text transform="translate(-91.5,-58) scale(1.1547 1)" font-family="Arial" font-size="0.14" text-anchor="middle" x="0" y="-0.381" fill="DarkGray">0622</text><text transform="translate(-91.5,-57) scale(1.1547 1)" font-family="Arial" font-size="0.14" text-anchor="middle" x="0" y="-0.381" fill="DarkGray">0623</text><text transform="translate(-91.5,-56) scale(1.1547 1)" font-family="Arial" font-size="0.14" text-anchor="middle" x="0" y="-0.381" fill="DarkGray">0624</text><text transform="translate(-91.5,-54) scale(1.1547 1)" font-family="Arial" font-size="0.14" text-anchor="middle" x="0" y="-0.381" fill="DarkGray">0626</text><text transform="translate(-91.5,-51) scale(1.1547 1)" font-family="Arial" font-size="0.14" text-anchor="middle" x="0" y="-0.381" fill="DarkGray">0629</text><text transform="translate(-90.5,-53.5) scale(1.1547 1)" font-family="Arial" font-size="0.14" text-anchor="middle" x="0" y="-0.381" fill="DarkGray">0727</text><text transform="translate(-90.5,-51.5) scale(1.1547 1)" font-family="Arial" font-size="0.14" text-anchor="middle" x="0" y="-0.381" fill="DarkGray">0729</text><text transform="translate(-90.5,-50.5) scale(1.1547 1)" font-family="Arial" font-size="0.14" text-anchor="middle" x="0" y="-0.381" fill="DarkGray">0730</text><text transform="translate(-89.5,-56) scale(1.1547 1)" font-family="Arial" font-size="0.14" text-anchor="middle" x="0" y="-0.381" fill="DarkGray">0824</text><text transform="translate(-89.5,-54) scale(1.1547 1)" font-family="Arial" font-size="0.14" text-anchor="middle" x="0" y="-0.381" fill="DarkGray">0826</text><text transform="translate(-89.5,-53) scale(1.1547 1)" font-family="Arial" font-size="0.14" text-anchor="middle" x="0" y="-0.381" fill="DarkGray">0827</text><text transform="translate(-89.5,-52) scale(1.1547 1)" font-family="Arial" font-size="0.14" text-anchor="middle" x="0" y="-0.381" fill="DarkGray">0828</text><text transform="translate(-89.5,-50) scale(1.1547 1)" font-family="Arial" font-size="0.14" text-anchor="middle" x="0" y="-0.381" fill="DarkGray">0830</text></g><g transform="translate(-96.5,-57.5) scale(1.1547 1)"><circle transform="translate(0.25,-0.18)" r="0.05" cx="0" cy="0" stroke="none" fill="Black"/><rect x="-0.113084" y="-0.35543" width="0.226167" height="0.260859" stroke="none" fill="White"/><text font-family="Arial" font-size="0.21" font-weight="bold" text-anchor="middle" x="0" y="-0.13575" fill="Black">D</text><text font-family="Arial Unicode MS,Segoe UI Symbol,Arial" font-size="0.21" font-weight="bold" text-anchor="middle" x="-0.25" y="0.26925" fill="Black">▲</text><circle r="0.1" cx="0" cy="0" stroke="none" fill="DeepSkyBlue"/><rect x="-0.299448" y="0.23957" width="0.598896" height="0.260859" stroke="none" fill="White"/><text font-family="Arial" font-size="0.21" font-weight="bold" text-anchor="middle" x="0" y="0.45925" fill="Black">Rena</text></g><g transform="translate(-96.5,-56.5) scale(1.1547 1)"><rect x="-0.113084" y="-0.35543" width="0.226167" height="0.260859" stroke="none" fill="White"/><text font-family="Arial" font-size="0.21" font-weight="bold" text-anchor="middle" x="0" y="-0.13575" fill="Black">C</text><text font-family="Arial Unicode MS,Segoe UI Symbol,Arial" font-size="0.21" font-weight="bold" text-anchor="middle" x="-0.25" y="0.26925" fill="Black">▲</text><circle r="0.1" cx="0" cy="0" stroke="Black" stroke-width="0.015625" fill="White"/><rect x="-0.467664" y="0.23957" width="0.935327" height="0.260859" stroke="none" fill="White"/><text font-family="Arial" font-size="0.21" font-weight="bold" text-anchor="middle" x="0" y="0.45925" fill="Black">Gulistan</text></g><g transform="translate(-96.5,-50.5) scale(1.1547 1)"><circle transform="translate(0.25,-0.18)" r="0.05" cx="0" cy="0" stroke="none" fill="Black"/><rect x="-0.107136" y="-0.35543" width="0.214273" height="0.260859" stroke="none" fill="White"/><text font-family="Arial" font-size="0.21" font-weight="bold" text-anchor="middle" x="0" y="-0.13575" fill="Black">E</text><circle r="0.1" cx="0" cy="0" stroke="none" fill="DeepSkyBlue"/><rect x="-0.557847" y="0.23957" width="1.11569" height="0.260859" stroke="none" fill="White"/><text font-family="Arial" font-size="0.21" font-weight="bold" text-anchor="middle" x="0" y="0.45925" fill="Black">Chaosheo</text></g><g transform="translate(-95.5,-59) scale(1.1547 1)"><circle transform="translate(0.25,-0.18)" r="0.05" cx="0" cy="0" stroke="none" fill="Black"/><rect x="-0.113084" y="-0.35543" width="0.226167" height="0.260859" stroke="none" fill="White"/><text font-family="Arial" font-size="0.21" font-weight="bold" text-anchor="middle" x="0" y="-0.13575" fill="Black">B</text><circle r="0.1" cx="0" cy="0" stroke="none" fill="DeepSkyBlue"/><rect x="-0.617935" y="0.23957" width="1.23587" height="0.260859" stroke="none" fill="White"/><text font-family="Arial" font-size="0.21" font-weight="bold" text-anchor="middle" x="0" y="0.45925" fill="Black">Mater Nova</text></g><g transform="translate(-95.5,-58) scale(1.1547 1)"><circle transform="translate(0.25,-0.18)" r="0.05" cx="0" cy="0" stroke="none" fill="Black"/><rect x="-0.107136" y="-0.35543" width="0.214273" height="0.260859" stroke="none" fill="White"/><text font-family="Arial" font-size="0.21" font-weight="bold" text-anchor="middle" x="0" y="-0.13575" fill="Black">X</text><circle r="0.1" cx="0" cy="0" stroke="Black" stroke-width="0.015625" fill="White"/><rect x="-0.455718" y="0.23957" width="0.911436" height="0.260859" stroke="none" fill="White"/><text font-family="Arial" font-size="0.21" font-weight="bold" text-anchor="middle" x="0" y="0.45925" fill="Black">Breslow</text></g><g transform="translate(-95.5,-57) scale(1.1547 1)"><rect x="-0.113084" y="-0.35543" width="0.226167" height="0.260859" stroke="none" fill="White"/><text font-family="Arial" font-size="0.21" font-weight="bold" text-anchor="middle" x="0" y="-0.13575" fill="Black">B</text><circle r="0.1" cx="0" cy="0" stroke="none" fill="DeepSkyBlue"/><rect x="-0.467766" y="0.23957" width="0.935532" height="0.260859" stroke="none" fill="White"/><text font-family="Arial" font-size="0.21" font-weight="bold" text-anchor="middle" x="0" y="0.45925" fill="Black">Daumier</text></g><g transform="translate(-95.5,-56) scale(1.1547 1)"><circle transform="translate(0.25,-0.18)" r="0.05" cx="0" cy="0" stroke="none" fill="Black"/><rect x="-0.107136" y="-0.35543" width="0.214273" height="0.260859" stroke="none" fill="White"/><text font-family="Arial" font-size="0.21" font-weight="bold" text-anchor="middle" x="0" y="-0.13575" fill="Black">E</text><circle r="0.1" cx="0" cy="0" stroke="none" fill="DeepSkyBlue"/><rect x="-0.461716" y="0.23957" width="0.923433" height="0.260859" stroke="none" fill="White"/><text font-family="Arial" font-size="0.21" font-weight="bold" text-anchor="middle" x="0" y="0.45925" fill="Black">Adapam</text></g><g transform="translate(-95.5,-54) scale(1.1547 1)"><circle transform="translate(0.25,-0.18)" r="0.05" cx="0" cy="0" stroke="none" fill="Black"/><rect x="-0.113084" y="-0.35543" width="0.226167" height="0.260859" stroke="none" fill="White"/><text font-family="Arial" font-size="0.21" font-weight="bold" text-anchor="middle" x="0" y="-0.13575" fill="Black">C</text><circle r="0.1" cx="0" cy="0" stroke="none" fill="DeepSkyBlue"/><rect x="-0.479712" y="0.23957" width="0.959424" height="0.260859" stroke="none" fill="White"/><text font-family="Arial" font-size="0.21" font-weight="bold" text-anchor="middle" x="0" y="0.45925" fill="Black">Wroclaw</text></g><g transform="translate(-95.5,-52) scale(1.1547 1)"><circle transform="translate(0.25,-0.18)" r="0.05" cx="0" cy="0" stroke="none" fill="Black"/><rect x="-0.113084" y="-0.35543" width="0.226167" height="0.260859" stroke="none" fill="White"/><text font-family="Arial" font-size="0.21" font-weight="bold" text-anchor="middle" x="0" y="-0.13575" fill="Black">D</text><text font-family="Arial Unicode MS,Segoe UI Symbol,Arial" font-size="0.21" font-weight="bold" text-anchor="middle" x="-0.25" y="0.26925" fill="Black">▲</text><circle r="0.1" cx="0" cy="0" stroke="Black" stroke-width="0.015625" fill="White"/><rect x="-0.49176" y="0.23957" width="0.983521" height="0.260859" stroke="none" fill="White"/><text font-family="Arial" font-size="0.21" font-weight="bold" text-anchor="middle" x="0" y="0.45925" fill="Black">Rimkuku</text></g><g transform="translate(-95.5,-51) scale(1.1547 1)"><circle transform="translate(0.25,-0.18)" r="0.05" cx="0" cy="0" stroke="none" fill="Black"/><rect x="-0.113084" y="-0.35543" width="0.226167" height="0.260859" stroke="none" fill="White"/><text font-family="Arial" font-size="0.21" font-weight="bold" text-anchor="middle" x="0" y="-0.13575" fill="Black">C</text><circle r="0.1" cx="0" cy="0" stroke="none" fill="DeepSkyBlue"/><rect x="-0.467715" y="0.23957" width="0.93543" height="0.260859" stroke="none" fill="White"/><text font-family="Arial" font-size="0.21" font-weight="bold" text-anchor="middle" x="0" y="0.45925" fill="Black">Aziziyah</text></g><g transform="translate(-94.5,-53.5) scale(1.1547 1)"><circle transform="translate(0.25,-0.18)" r="0.05" cx="0" cy="0" stroke="none" fill="Black"/><rect x="-0.113084" y="-0.35543" width="0.226167" height="0.260859" stroke="none" fill="White"/><text font-family="Arial" font-size="0.21" font-weight="bold" text-anchor="middle" x="0" y="-0.13575" fill="Black">C</text><text font-family="Arial Unicode MS,Segoe UI Symbol,Arial" font-size="0.21" font-weight="bold" text-anchor="middle" x="-0.25" y="0.26925" fill="Black">▲</text><circle r="0.1" cx="0" cy="0" stroke="none" fill="DeepSkyBlue"/><rect x="-0.443772" y="0.23957" width="0.887544" height="0.260859" stroke="none" fill="White"/><text font-family="Arial" font-size="0.21" font-weight="bold" text-anchor="middle" x="0" y="0.45925" fill="Black">Barbary</text></g><g transform="translate(-94.5,-52.5) scale(1.1547 1)"><circle transform="translate(0.25,-0.18)" r="0.05" cx="0" cy="0" stroke="none" fill="Black"/><rect x="-0.113084" y="-0.35543" width="0.226167" height="0.260859" stroke="none" fill="White"/><text font-family="Arial" font-size="0.21" font-weight="bold" text-anchor="middle" x="0" y="-0.13575" fill="Black">C</text><circle r="0.1" cx="0" cy="0" stroke="none" fill="DeepSkyBlue"/><rect x="-0.467612" y="0.23957" width="0.935225" height="0.260859" stroke="none" fill="White"/><text font-family="Arial" font-size="0.21" font-weight="bold" text-anchor="middle" x="0" y="0.45925" fill="Black">Dunstan</text></g><g transform="translate(-94.5,-50.5) scale(1.1547 1)"><circle transform="translate(0.25,-0.18)" r="0.05" cx="0" cy="0" stroke="none" fill="Black"/><rect x="-0.113084" y="-0.35543" width="0.226167" height="0.260859" stroke="none" fill="White"/><text font-family="Arial" font-size="0.21" font-weight="bold" text-anchor="middle" x="0" y="-0.13575" fill="Black">C</text><text font-family="Arial Unicode MS,Segoe UI Symbol,Arial" font-size="0.21" font-weight="bold" text-anchor="middle" x="-0.25" y="0.26925" fill="Black">▲</text><circle r="0.1" cx="0" cy="0" stroke="none" fill="DeepSkyBlue"/><rect x="-0.455718" y="0.23957" width="0.911436" height="0.260859" stroke="none" fill="White"/><text font-family="Arial" font-size="0.21" font-weight="bold" text-anchor="middle" x="0" y="0.45925" fill="Black">Canisus</text></g><g transform="translate(-93.5,-58) scale(1.1547 1)"><circle transform="translate(0.25,-0.18)" r="0.05" cx="0" cy="0" stroke="none" fill="Black"/><rect x="-0.113084" y="-0.35543" width="0.226167" height="0.260859" stroke="none" fill="White"/><text font-family="Arial" font-size="0.21" font-weight="bold" text-anchor="middle" x="0" y="-0.13575" fill="Black">C</text><circle r="0.1" cx="0" cy="0" stroke="none" fill="DeepSkyBlue"/><rect x="-0.467612" y="0.23957" width="0.935225" height="0.260859" stroke="none" fill="White"/><text font-family="Arial" font-size="0.21" font-weight="bold" text-anchor="middle" x="0" y="0.45925" fill="Black">Rouenet</text></g><g transform="translate(-92.5,-56.5) scale(1.1547 1)"><circle transform="translate(0.25,-0.18)" r="0.05" cx="0" cy="0" stroke="none" fill="Black"/><rect x="-0.113084" y="-0.35543" width="0.226167" height="0.260859" stroke="none" fill="White"/><text font-family="Arial" font-size="0.21" font-weight="bold" text-anchor="middle" x="0" y="-0.13575" fill="Black">A</text><circle r="0.1" cx="0" cy="0" stroke="none" fill="DeepSkyBlue"/><rect x="-0.425674" y="0.23957" width="0.851348" height="0.260859" stroke="none" fill="White"/><text font-family="Arial" font-size="0.21" font-weight="bold" text-anchor="middle" x="0" y="0.45925" fill="Black">Isurkun</text></g><g transform="translate(-92.5,-55.5) scale(1.1547 1)"><circle transform="translate(0.25,-0.18)" r="0.05" cx="0" cy="0" stroke="none" fill="Black"/><rect x="-0.113084" y="-0.35543" width="0.226167" height="0.260859" stroke="none" fill="White"/><text font-family="Arial" font-size="0.21" font-weight="bold" text-anchor="middle" x="0" y="-0.13575" fill="Black">C</text><circle r="0.1" cx="0" cy="0" stroke="Black" stroke-width="0.015625" fill="White"/><rect x="-0.383684" y="0.23957" width="0.767368" height="0.260859" stroke="none" fill="White"/><text font-family="Arial" font-size="0.21" font-weight="bold" text-anchor="middle" x="0" y="0.45925" fill="Black">Sejmal</text></g><g transform="translate(-92.5,-51.5) scale(1.1547 1)"><circle transform="translate(0.25,-0.18)" r="0.05" cx="0" cy="0" stroke="none" fill="Black"/><rect x="-0.113084" y="-0.35543" width="0.226167" height="0.260859" stroke="none" fill="White"/><text font-family="Arial" font-size="0.21" font-weight="bold" text-anchor="middle" x="0" y="-0.13575" fill="Black">C</text><text font-family="Arial Unicode MS,Segoe UI Symbol,Arial" font-size="0.21" font-weight="bold" text-anchor="middle" x="-0.25" y="0.26925" fill="Black">▲</text><circle r="0.1" cx="0" cy="0" stroke="none" fill="DeepSkyBlue"/><rect x="-0.377481" y="0.23957" width="0.754961" height="0.260859" stroke="none" fill="White"/><text font-family="Arial" font-size="0.21" font-weight="bold" text-anchor="middle" x="0" y="0.45925" fill="Black">Moltke</text></g><g transform="translate(-91.5,-58) scale(1.1547 1)"><rect x="-0.113084" y="-0.35543" width="0.226167" height="0.260859" stroke="none" fill="White"/><text font-family="Arial" font-size="0.21" font-weight="bold" text-anchor="middle" x="0" y="-0.13575" fill="Black">D</text><text font-family="Arial Unicode MS,Segoe UI Symbol,Arial" font-size="0.21" font-weight="bold" text-anchor="middle" x="-0.25" y="0.26925" fill="Black">▲</text><circle r="0.1" cx="0" cy="0" stroke="none" fill="DeepSkyBlue"/><rect x="-0.539749" y="0.23957" width="1.0795" height="0.260859" stroke="none" fill="White"/><text font-family="Arial" font-size="0.21" font-weight="bold" text-anchor="middle" x="0" y="0.45925" fill="Black">Mushinag</text></g><g transform="translate(-91.5,-57) scale(1.1547 1)"><circle transform="translate(0.25,-0.18)" r="0.05" cx="0" cy="0" stroke="none" fill="Black"/><rect x="-0.113084" y="-0.35543" width="0.226167" height="0.260859" stroke="none" fill="White"/><text font-family="Arial" font-size="0.21" font-weight="bold" text-anchor="middle" x="0" y="-0.13575" fill="Black">C</text><text font-family="Arial Unicode MS,Segoe UI Symbol,Arial" font-size="0.21" font-weight="bold" text-anchor="middle" x="-0.25" y="0.26925" fill="Black">▲</text><circle r="0.1" cx="0" cy="0" stroke="none" fill="DeepSkyBlue"/><rect x="-0.275454" y="0.23957" width="0.550908" height="0.260859" stroke="none" fill="White"/><text font-family="Arial" font-size="0.21" font-weight="bold" text-anchor="middle" x="0" y="0.45925" fill="Black">Araa</text></g><g transform="translate(-91.5,-56) scale(1.1547 1)"><circle transform="translate(0.25,-0.18)" r="0.05" cx="0" cy="0" stroke="none" fill="Black"/><rect x="-0.113084" y="-0.35543" width="0.226167" height="0.260859" stroke="none" fill="White"/><text font-family="Arial" font-size="0.21" font-weight="bold" text-anchor="middle" x="0" y="-0.13575" fill="Black">C</text><text font-family="Arial Unicode MS,Segoe UI Symbol,Arial" font-size="0.21" font-weight="bold" text-anchor="middle" x="-0.25" y="0.26925" fill="Black">▲</text><circle r="0.1" cx="0" cy="0" stroke="none" fill="DeepSkyBlue"/><rect x="-0.467612" y="0.23957" width="0.935225" height="0.260859" stroke="none" fill="White"/><text font-family="Arial" font-size="0.21" font-weight="bold" text-anchor="middle" x="0" y="0.45925" fill="Black">Helmuth</text></g><g transform="translate(-91.5,-54) scale(1.1547 1)"><circle transform="translate(0.25,-0.18)" r="0.05" cx="0" cy="0" stroke="none" fill="Black"/><rect x="-0.113084" y="-0.35543" width="0.226167" height="0.260859" stroke="none" fill="White"/><text font-family="Arial" font-size="0.21" font-weight="bold" text-anchor="middle" x="0" y="-0.13575" fill="Black">B</text><circle r="0.1" cx="0" cy="0" stroke="none" fill="DeepSkyBlue"/><rect x="-0.371585" y="0.23957" width="0.743169" height="0.260859" stroke="none" fill="White"/><text font-family="Arial" font-size="0.21" font-weight="bold" text-anchor="middle" x="0" y="0.45925" fill="Black">Kernal</text></g><g transform="translate(-91.5,-51) scale(1.1547 1)"><circle transform="translate(0.25,-0.18)" r="0.05" cx="0" cy="0" stroke="none" fill="Black"/><rect x="-0.107136" y="-0.35543" width="0.214273" height="0.260859" stroke="none" fill="White"/><text font-family="Arial" font-size="0.21" font-weight="bold" text-anchor="middle" x="0" y="-0.13575" fill="Black">E</text><circle r="0.1" cx="0" cy="0" stroke="none" fill="DeepSkyBlue"/><rect x="-0.611731" y="0.23957" width="1.22346" height="0.260859" stroke="none" fill="White"/><text font-family="Arial" font-size="0.21" font-weight="bold" text-anchor="middle" x="0" y="0.45925" fill="Black">ASKIGAAK</text></g><g transform="translate(-90.5,-53.5) scale(1.1547 1)"><circle transform="translate(0.25,-0.18)" r="0.05" cx="0" cy="0" stroke="none" fill="Black"/><rect x="-0.113084" y="-0.35543" width="0.226167" height="0.260859" stroke="none" fill="White"/><text font-family="Arial" font-size="0.21" font-weight="bold" text-anchor="middle" x="0" y="-0.13575" fill="Black">C</text><text font-family="Arial Unicode MS,Segoe UI Symbol,Arial" font-size="0.21" font-weight="bold" text-anchor="middle" x="-0.25" y="0.26925" fill="Black">▲</text><circle r="0.1" cx="0" cy="0" stroke="none" fill="DeepSkyBlue"/><rect x="-0.599888" y="0.23957" width="1.19978" height="0.260859" stroke="none" fill="White"/><text font-family="Arial" font-size="0.21" font-weight="bold" text-anchor="middle" x="0" y="0.45925" fill="Black">Shen-Yang</text></g><g transform="translate(-90.5,-51.5) scale(1.1547 1)"><rect x="-0.113084" y="-0.35543" width="0.226167" height="0.260859" stroke="none" fill="White"/><text font-family="Arial" font-size="0.21" font-weight="bold" text-anchor="middle" x="0" y="-0.13575" fill="Black">A</text><text font-family="Arial Unicode MS,Segoe UI Symbol,Arial" font-size="0.21" font-weight="bold" text-anchor="middle" x="-0.25" y="-0.09075" fill="Black">★</text><ellipse rx="0.0283961" ry="0.0259483" cx="0" cy="-0.07" stroke="none" fill="Black"/><ellipse rx="0.0327214" ry="0.0218361" cx="-0.105" cy="0" stroke="none" fill="Black"/><ellipse rx="0.0309511" ry="0.0218311" cx="-0.035" cy="0" stroke="none" fill="Black"/><ellipse rx="0.0228488" ry="0.0220524" cx="0.035" cy="0" stroke="none" fill="Black"/><ellipse rx="0.0250291" ry="0.0286057" cx="0" cy="0.07" stroke="none" fill="Black"/><rect x="-0.287349" y="0.23957" width="0.574697" height="0.260859" stroke="none" fill="White"/><text font-family="Arial" font-size="0.21" font-weight="bold" text-anchor="middle" x="0" y="0.45925" fill="Black">Norg</text></g><g transform="translate(-90.5,-50.5) scale(1.1547 1)"><circle transform="translate(0.25,-0.18)" r="0.05" cx="0" cy="0" stroke="none" fill="Black"/><rect x="-0.113084" y="-0.35543" width="0.226167" height="0.260859" stroke="none" fill="White"/><text font-family="Arial" font-size="0.21" font-weight="bold" text-anchor="middle" x="0" y="-0.13575" fill="Black">B</text><circle r="0.1" cx="0" cy="0" stroke="none" fill="DeepSkyBlue"/><rect x="-0.425623" y="0.23957" width="0.851245" height="0.260859" stroke="none" fill="White"/><text font-family="Arial" font-size="0.21" font-weight="bold" text-anchor="middle" x="0" y="0.45925" fill="Black">Sultana</text></g><g transform="translate(-89.5,-56) scale(1.1547 1)"><circle transform="translate(0.25,-0.18)" r="0.05" cx="0" cy="0" stroke="none" fill="Black"/><rect x="-0.113084" y="-0.35543" width="0.226167" height="0.260859" stroke="none" fill="White"/><text font-family="Arial" font-size="0.21" font-weight="bold" text-anchor="middle" x="0" y="-0.13575" fill="Black">C</text><circle r="0.1" cx="0" cy="0" stroke="Black" stroke-width="0.015625" fill="White"/><rect x="-0.305498" y="0.23957" width="0.610996" height="0.260859" stroke="none" fill="White"/><text font-family="Arial" font-size="0.21" font-weight="bold" text-anchor="middle" x="0" y="0.45925" fill="Black">Tlaza</text></g><g transform="translate(-89.5,-54) scale(1.1547 1)"><circle transform="translate(0.25,-0.18)" r="0.05" cx="0" cy="0" stroke="none" fill="Black"/><rect x="-0.113084" y="-0.35543" width="0.226167" height="0.260859" stroke="none" fill="White"/><text font-family="Arial" font-size="0.21" font-weight="bold" text-anchor="middle" x="0" y="-0.13575" fill="Black">A</text><text font-family="Arial Unicode MS,Segoe UI Symbol,Arial" font-size="0.21" font-weight="bold" text-anchor="middle" x="-0.25" y="-0.09075" fill="Black">★</text><circle r="0.1" cx="0" cy="0" stroke="Black" stroke-width="0.015625" fill="White"/><rect x="-0.353538" y="0.23957" width="0.707075" height="0.260859" stroke="none" fill="White"/><text font-family="Arial" font-size="0.21" font-weight="bold" text-anchor="middle" x="0" y="0.45925" fill="Black">Imone</text></g><g transform="translate(-89.5,-53) scale(1.1547 1)"><circle transform="translate(0.25,-0.18)" r="0.05" cx="0" cy="0" stroke="none" fill="Black"/><rect x="-0.113084" y="-0.35543" width="0.226167" height="0.260859" stroke="none" fill="White"/><text font-family="Arial" font-size="0.21" font-weight="bold" text-anchor="middle" x="0" y="-0.13575" fill="Black">B</text><circle r="0.1" cx="0" cy="0" stroke="Black" stroke-width="0.015625" fill="White"/><rect x="-0.485813" y="0.23957" width="0.971626" height="0.260859" stroke="none" fill="White"/><text font-family="Arial" font-size="0.21" font-weight="bold" text-anchor="middle" x="0" y="0.45925" fill="Black">Skopyeh</text></g><g transform="translate(-89.5,-52) scale(1.1547 1)"><circle transform="translate(0.25,-0.18)" r="0.05" cx="0" cy="0" stroke="none" fill="Black"/><rect x="-0.113084" y="-0.35543" width="0.226167" height="0.260859" stroke="none" fill="White"/><text font-family="Arial" font-size="0.21" font-weight="bold" text-anchor="middle" x="0" y="-0.13575" fill="Black">B</text><text font-family="Arial Unicode MS,Segoe UI Symbol,Arial" font-size="0.21" font-weight="bold" text-anchor="middle" x="-0.25" y="-0.09075" fill="Black">★</text><circle r="0.1" cx="0" cy="0" stroke="none" fill="DeepSkyBlue"/><rect x="-0.509756" y="0.23957" width="1.01951" height="0.260859" stroke="none" fill="White"/><text font-family="Arial" font-size="0.21" font-weight="bold" text-anchor="middle" x="0" y="0.45925" fill="Black">Burnham</text></g><g transform="translate(-89.5,-50) scale(1.1547 1)"><circle transform="translate(0.25,-0.18)" r="0.05" cx="0" cy="0" stroke="none" fill="Black"/><rect x="-0.113084" y="-0.35543" width="0.226167" height="0.260859" stroke="none" fill="White"/><text font-family="Arial" font-size="0.21" font-weight="bold" text-anchor="middle" x="0" y="-0.13575" fill="Black">C</text><circle r="0.1" cx="0" cy="0" stroke="none" fill="DeepSkyBlue"/><rect x="-0.599836" y="0.23957" width="1.19967" height="0.260859" stroke="none" fill="White"/><text font-family="Arial" font-size="0.21" font-weight="bold" text-anchor="middle" x="0" y="0.45925" fill="Black">Bukit Seng</text></g></g></svg>