<?xml version = "1.0" encoding="utf-8"?>
<svg version="1.1" baseProfile="full" xmlns="http://www.w3.org/2000/svg" xmlns:xlink="http://www.w3.org/1999/xlink" width="471" height="684" viewBox="0 0 471 684" clip="0 471 0 684"><defs><clipPath id="did1"><rect x="-73.25" y="-60.1" width="8.5" height="10.7"/></clipPath><clipPath id="did2"><path d="M-97.8333,-78.5l-0.333328,-0.5l0.333328,-0.5h0.666672l0.333328,0.5h0.666672l0.333328,-0.5h0.666672l0.333328,0.5h0.666672l0.333328,0.5h0.666672l0.333328,-0.5h0.666672l0.333328,0.5h0.666672l0.333328,0.5l-0.333328,0.5l0.333328,0.5l-0.333328,0.5l0.333328,0.5h0.666672l0.333328,0.5h0.666672l0.333328,0.5h0.666672l0.333328,0.5h0.666672l0.333328,0.5h0.666672l0.333328,-0.5h0.666672l0.333328,-0.5h0.666672l0.333328,-0.5h0.666672l0.333328,-0.5h0.666672l0.333328,0.5h0.666672l0.333328,0.5h0.666672l0.333328,-0.5h0.666672l0.333328,-0.5h0.666672l0.333328,0.5h0.666672l0.333328,-0.5h0.666672l0.333328,0.5h0.666672l0.333328,0.5h0.666672l0.333328,-0.5h0.666672l0.333328,0.5h0.666672l0.333328,0.5h0.666672l0.333328,-0.5h0.666672l0.333328,-0.5h0.666672l0.333328,-0.5h0.666672l0.333328,0.5h0.666672l0.333328,-0.5h0.666672l0.333328,-0.5h0.666672l0.333328,-0.5l-0.333328,-0.5l0.333328,-0.5h0.666672l0.333332,0.5l-0.333332,0.5l0.333332,0.5l-0.333332,0.5l0.333332,0.5l-0.333332,0.5l0.333332,0.5l-0.333332,0.5l0.333332,0.5l-0.333332,0.5l0.333332,0.5l-0.333332,0.5l0.333332,0.5l-0.333332,0.5l0.333332,0.5l-0.333332,0.5l0.333332,0.5l-0.333332,0.5l0.333332,0.5l-0.333332,0.5l0.333332,0.5l-0.333332,0.5l0.333332,0.5l-0.333332,0.5l0.333332,0.5l-0.333332,0.5l0.333332,0.5l-0.333332,0.5l0.333332,0.5l-0.333332,0.5l0.333332,0.5l-0.333332,0.5l0.333332,0.5l-0.333332,0.5h-0.666672l-0.333328,0.5h-0.666672l-0.333328,-0.5h-0.666672l-0.333328,0.5h-0.666672l-0.333328,0.5h-0.666672l-0.333328,0.5h-0.666672l-0.333328,0.5h-0.666672l-0.333328,0.5h-0.666672l-0.333328,0.5l0.333328,0.5l-0.333328,0.5h-0.666672l-0.333328,0.5l0.333328,0.5l-0.333328,0.5l0.333328,0.5l-0.333328,0.5h-0.666672l-0.333328,0.5h-0.666672l-0.333328,0.5l0.333328,0.5l-0.333328,0.5l0.333328,0.5l-0.333328,0.5h-0.666672l-0.333328,0.5l0.333328,0.5l-0.333328,0.5l0.333328,0.5l-0.333328,0.5h-0.666672l-0.333328,0.5h-0.666672l-0.333328,0.5l0.333328,0.5l-0.333328,0.5h-0.666672l-0.333328,0.5l0.333328,0.5l-0.333328,0.5l0.333328,0.5l-0.333328,0.5h-0.666672l-0.333328,0.5l0.333328,0.5l-0.333328,0.5h-0.666672l-0.333328,0.5l0.333328,0.5l-0.333328,0.5l0.333328,0.5l-0.333328,0.5l0.333328,0.5l-0.333328,0.5h-0.666672l-0.333328,0.5h-0.666672l-0.333328,0.5h-0.666672l-0.333328,-0.5h-0.666672l-0.333328,0.5h-0.666672l-0.333328,-0.5h-0.666672l-0.333328,0.5h-0.666672l-0.333328,-0.5h-0.666672l-0.333328,0.5h-0.666672l-0.333328,-0.5h-0.666672l-0.333328,0.5h-0.666672l-0.333328,-0.5h-0.666672l-0.333328,0.5h-0.666672l-0.333328,-0.5h-0.666672l-0.333328,0.5h-0.666672l-0.333328,-0.5h-0.666672l-0.333328,0.5h-0.666672l-0.333328,-0.5l0.333328,-0.5l-0.333328,-0.5l0.333328,-0.5l-0.333328,-0.5l0.333328,-0.5l-0.333328,-0.5l0.333328,-0.5l-0.333328,-0.5l0.333328,-0.5l-0.333328,-0.5l0.333328,-0.5l-0.333328,-0.5l0.333328,-0.5l-0.333328,-0.5l0.333328,-0.5l-0.333328,-0.5l0.333328,-0.5l-0.333328,-0.5l0.333328,-0.5l-0.333328,-0.5l0.333328,-0.5l-0.333328,-0.5l0.333328,-0.5l-0.333328,-0.5l0.333328,-0.5l-0.333328,-0.5l0.333328,-0.5l-0.333328,-0.5l0.333328,-0.5l-0.333328,-0.5l0.333328,-0.5l-0.333328,-0.5l0.333328,-0.5l-0.333328,-0.5l0.333328,-0.5l-0.333328,-0.5l0.333328,-0.5l-0.333328,-0.5l0.333328,-0.5l-0.333328,-0.5l0.333328,-0.5l-0.333328,-0.5l0.333328,-0.5l-0.333328,-0.5l0.333328,-0.5l-0.333328,-0.5l0.333328,-0.5l-0.333328,-0.5l0.333328,-0.5l-0.333328,-0.5l0.333328,-0.5l-0.333328,-0.5l0.333328,-0.5l-0.333328,-0.5l0.333328,-0.5l-0.333328,-0.5l0.333328,-0.5l-0.333328,-0.5l0.333328,-0.5l-0.333328,-0.5l0.333328,-0.5l-0.333328,-0.5l0.333328,-0.5l-0.333328,-0.5l0.333328,-0.5l-0.333328,-0.5l0.333328,-0.5l-0.333328,-0.5l0.333328,-0.5l-0.333328,-0.5l0.333328,-0.5l-0.333328,-0.5l0.333328,-0.5l-0.333328,-0.5l0.333328,-0.5l-0.333328,-0.5l0.333328,-0.5l-0.333328,-0.5Z"/></clipPath><clipPath id="did3"><path d="M-65.8333,-79.5l-0.333328,-0.5l0.333328,-0.5h0.666672l0.333328,-0.5h0.666672l0.333332,0.5l-0.333332,0.5l0.333332,0.5l-0.333332,0.5h-0.666672l-0.333328,0.5h-0.666672l-0.333328,-0.5Z"/></clipPath><clipPath id="did4"><path d="M-71.8333,-76.5l-0.333328,-0.5l0.333328,-0.5h0.666672l0.333328,-0.5l-0.333328,-0.5l0.333328,-0.5l-0.333328,-0.5l0.333328,-0.5h0.666672l0.333328,-0.5h0.666672l0.333328,-0.5h0.666672l0.333328,0.5l-0.333328,0.5h-0.666672l-0.333328,0.5h-0.666672l-0.333328,0.5l0.333328,0.5l-0.333328,0.5l0.333328,0.5h0.666672l0.333328,0.5h0.666672l0.333328,0.5h0.666672l0.333328,0.5l-0.333328,0.5h-0.666672l-0.333328,-0.5h-0.666672l-0.333328,-0.5h-0.666672l-0.333328,0.5h-0.666672l-0.333328,-0.5Z"/></clipPath><clipPath id="did5"><rect x="-73.25" y="-60.1" width="8.5" height="10.7"/></clipPath><clipPath id="did6"><rect x="-73.25" y="-60.1" width="8.5" height="10.7"/></clipPath></defs><g fill="None" stroke="None" transform="matrix(1,0,0,1,0,0) matrix(55.4256,0,0,64,4059.93,3846.4)"><g clip-path="url(#did1)"><rect x="-74.1" y="-61.17" width="10.2" height="12.84" stroke="none" fill="White"/><path d="M-75.1667,-61.5v0l0.333328,0.5h0.666672l0.333328,-0.5" stroke="#808080" stroke-width="0.015625" fill="none"/><path d="M-75.1667,-60.5v0l0.333328,0.5h0.666672l0.333328,-0.5" stroke="#808080" stroke-width="0.015625" fill="none"/><path d="M-75.1667,-59.5v0l0.333328,0.5h0.666672l0.333328,-0.5" stroke="#808080" stroke-width="0.015625" fill="none"/><path d="M-75.1667,-58.5v0l0.333328,0.5h0.666672l0.333328,-0.5" stroke="#808080" stroke-width="0.015625" fill="none"/><path d="M-75.1667,-57.5v0l0.333328,0.5h0.666672l0.333328,-0.5" stroke="#808080" stroke-width="0.015625" fill="none"/><path d="M-75.1667,-56.5v0l0.333328,0.5h0.666672l0.333328,-0.5" stroke="#808080" stroke-width="0.015625" fill="none"/><path d="M-75.1667,-55.5v0l0.333328,0.5h0.666672l0.333328,-0.5" stroke="#808080" stroke-width="0.015625" fill="none"/><path d="M-75.1667,-54.5v0l0.333328,0.5h0.666672l0.333328,-0.5" stroke="#808080" stroke-width="0.015625" fill="none"/><path d="M-75.1667,-53.5v0l0.333328,0.5h0.666672l0.333328,-0.5" stroke="#808080" stroke-width="0.015625" fill="none"/><path d="M-75.1667,-52.5v0l0.333328,0.5h0.666672l0.333328,-0.5" stroke="#808080" stroke-width="0.015625" fill="none"/><path d="M-75.1667,-51.5v0l0.333328,0.5h0.666672l0.333328,-0.5" stroke="#808080" stroke-width="0.015625" fill="none"/><path d="M-75.1667,-50.5v0l0.333328,0.5h0.666672l0.333328,-0.5" stroke="#808080" stroke-width="0.015625" fill="none"/><path d="M-75.1667,-49.5v0l0.333328,0.5h0.666672l0.333328,-0.5" stroke="#808080" stroke-width="0.015625" fill="none"/><path d="M-74.1667,-61v0l0.333328,0.5h0.666672l0.333328,-0.5" stroke="#808080" stroke-width="0.015625" fill="none"/><path d="M-74.1667,-60v0l0.333328,0.5h0.666672l0.333328,-0.5" stroke="#808080" stroke-width="0.015625" fill="none"/><path d="M-74.1667,-59v0l0.333328,0.5h0.666672l0.333328,-0.5" stroke="#808080" stroke-width="0.015625" fill="none"/><path d="M-74.1667,-58v0l0.333328,0.5h0.666672l0.333328,-0.5" stroke="#808080" stroke-width="0.015625" fill="none"/><path d="M-74.1667,-57v0l0.333328,0.5h0.666672l0.333328,-0.5" stroke="#808080" stroke-width="0.015625" fill="none"/><path d="M-74.1667,-56v0l0.333328,0.5h0.666672l0.333328,-0.5" stroke="#808080" stroke-width="0.015625" fill="none"/><path d="M-74.1667,-55v0l0.333328,0.5h0.666672l0.333328,-0.5" stroke="#808080" stroke-width="0.015625" fill="none"/><path d="M-74.1667,-54v0l0.333328,0.5h0.666672l0.333328,-0.5" stroke="#808080" stroke-width="0.015625" fill="none"/><path d="M-74.1667,-53v0l0.333328,0.5h0.666672l0.333328,-0.5" stroke="#808080" stroke-width="0.015625" fill="none"/><path d="M-74.1667,-52v0l0.333328,0.5h0.666672l0.333328,-0.5" stroke="#808080" stroke-width="0.015625" fill="none"/><path d="M-74.1667,-51v0l0.333328,0.5h0.666672l0.333328,-0.5" stroke="#808080" stroke-width="0.015625" fill="none"/><path d="M-74.1667,-50v0l0.333328,0.5h0.666672l0.333328,-0.5" stroke="#808080" stroke-width="0.015625" fill="none"/><path d="M-74.1667,-49v0l0.333328,0.5h0.666672l0.333328,-0.5" stroke="#808080" stroke-width="0.015625" fill="none"/><path d="M-73.1667,-61.5v0l0.333328,0.5h0.666672l0.333328,-0.5" stroke="#808080" stroke-width="0.015625" fill="none"/><path d="M-73.1667,-60.5v0l0.333328,0.5h0.666672l0.333328,-0.5" stroke="#808080" stroke-width="0.015625" fill="none"/><path d="M-73.1667,-59.5v0l0.333328,0.5h0.666672l0.333328,-0.5" stroke="#808080" stroke-width="0.015625" fill="none"/><path d="M-73.1667,-58.5v0l0.333328,0.5h0.666672l0.333328,-0.5" stroke="#808080" stroke-width="0.015625" fill="none"/><path d="M-73.1667,-57.5v0l0.333328,0.5h0.666672l0.333328,-0.5" stroke="#808080" stroke-width="0.015625" fill="none"/><path d="M-73.1667,-56.5v0l0.333328,0.5h0.666672l0.333328,-0.5" stroke="#808080" stroke-width="0.015625" fill="none"/><path d="M-73.1667,-55.5v0l0.333328,0.5h0.666672l0.333328,-0.5" stroke="#808080" stroke-width="0.015625" fill="none"/><path d="M-73.1667,-54.5v0l0.333328,0.5h0.666672l0.333328,-0.5" stroke="#808080" stroke-width="0.015625" fill="none"/><path d="M-73.1667,-53.5v0l0.333328,0.5h0.666672l0.333328,-0.5" stroke="#808080" stroke-width="0.015625" fill="none"/><path d="M-73.1667,-52.5v0l0.333328,0.5h0.666672l0.333328,-0.5" stroke="#808080" stroke-width="0.015625" fill="none"/><path d="M-73.1667,-51.5v0l0.333328,0.5h0.666672l0.333328,-0.5" stroke="#808080" stroke-width="0.015625" fill="none"/><path d="M-73.1667,-50.5v0l0.333328,0.5h0.666672l0.333328,-0.5" stroke="#808080" stroke-width="0.015625" fill="none"/><path d="M-73.1667,-49.5v0l0.333328,0.5h0.666672l0.333328,-0.5" stroke="#808080" stroke-width="0.015625" fill="none"/><path d="M-72.1667,-61v0l0.333328,0.5h0.666672l0.333328,-0.5" stroke="#808080" stroke-width="0.015625" fill="none"/><path d="M-72.1667,-60v0l0.333328,0.5h0.666672l0.333328,-0.5" stroke="#808080" stroke-width="0.015625" fill="none"/><path d="M-72.1667,-59v0l0.333328,0.5h0.666672l0.333328,-0.5" stroke="#808080" stroke-width="0.015625" fill="none"/><path d="M-72.1667,-58v0l0.333328,0.5h0.666672l0.333328,-0.5" stroke="#808080" stroke-width="0.015625" fill="none"/><path d="M-72.1667,-57v0l0.333328,0.5h0.666672l0.333328,-0.5" stroke="#808080" stroke-width="0.015625" fill="none"/><path d="M-72.1667,-56v0l0.333328,0.5h0.666672l0.333328,-0.5" stroke="#808080" stroke-width="0.015625" fill="none"/><path d="M-72.1667,-55v0l0.333328,0.5h0.666672l0.333328,-0.5" stroke="#808080" stroke-width="0.015625" fill="none"/><path d="M-72.1667,-54v0l0.333328,0.5h0.666672l0.333328,-0.5" stroke="#808080" stroke-width="0.015625" fill="none"/><path d="M-72.1667,-53v0l0.333328,0.5h0.666672l0.333328,-0.5" stroke="#808080" stroke-width="0.015625" fill="none"/><path d="M-72.1667,-52v0l0.333328,0.5h0.666672l0.333328,-0.5" stroke="#808080" stroke-width="0.015625" fill="none"/><path d="M-72.1667,-51v0l0.333328,0.5h0.666672l0.333328,-0.5" stroke="#808080" stroke-width="0.015625" fill="none"/><path d="M-72.1667,-50v0l0.333328,0.5h0.666672l0.333328,-0.5" stroke="#808080" stroke-width="0.015625" fill="none"/><path d="M-72.1667,-49v0l0.333328,0.5h0.666672l0.333328,-0.5" stroke="#808080" stroke-width="0.015625" fill="none"/><path d="M-71.1667,-61.5v0l0.333328,0.5h0.666672l0.333328,-0.5" stroke="#808080" stroke-width="0.015625" fill="none"/><path d="M-71.1667,-60.5v0l0.333328,0.5h0.666672l0.333328,-0.5" stroke="#808080" stroke-width="0.015625" fill="none"/><path d="M-71.1667,-59.5v0l0.333328,0.5h0.666672l0.333328,-0.5" stroke="#808080" stroke-width="0.015625" fill="none"/><path d="M-71.1667,-58.5v0l0.333328,0.5h0.666672l0.333328,-0.5" stroke="#808080" stroke-width="0.015625" fill="none"/><path d="M-71.1667,-57.5v0l0.333328,0.5h0.666672l0.333328,-0.5" stroke="#808080" stroke-width="0.015625" fill="none"/><path d="M-71.1667,-56.5v0l0.333328,0.5h0.666672l0.333328,-0.5" stroke="#808080" stroke-width="0.015625" fill="none"/><path d="M-71.1667,-55.5v0l0.333328,0.5h0.666672l0.333328,-0.5" stroke="#808080" stroke-width="0.015625" fill="none"/><path d="M-71.1667,-54.5v0l0.333328,0.5h0.666672l0.333328,-0.5" stroke="#808080" stroke-width="0.015625" fill="none"/><path d="M-71.1667,-53.5v0l0.333328,0.5h0.666672l0.333328,-0.5" stroke="#808080" stroke-width="0.015625" fill="none"/><path d="M-71.1667,-52.5v0l0.333328,0.5h0.666672l0.333328,-0.5" stroke="#808080" stroke-width="0.015625" fill="none"/><path d="M-71.1667,-51.5v0l0.333328,0.5h0.666672l0.333328,-0.5" stroke="#808080" stroke-width="0.015625" fill="none"/><path d="M-71.1667,-50.5v0l0.333328,0.5h0.666672l0.333328,-0.5" stroke="#808080" stroke-width="0.015625" fill="none"/><path d="M-71.1667,-49.5v0l0.333328,0.5h0.666672l0.333328,-0.5" stroke="#808080" stroke-width="0.015625" fill="none"/><path d="M-70.1667,-61v0l0.333328,0.5h0.666672l0.333328,-0.5" stroke="#808080" stroke-width="0.015625" fill="none"/><path d="M-70.1667,-60v0l0.333328,0.5h0.666672l0.333328,-0.5" stroke="#808080" stroke-width="0.015625" fill="none"/><path d="M-70.1667,-59v0l0.333328,0.5h0.666672l0.333328,-0.5" stroke="#808080" stroke-width="0.015625" fill="none"/><path d="M-70.1667,-58v0l0.333328,0.5h0.666672l0.333328,-0.5" stroke="#808080" stroke-width="0.015625" fill="none"/><path d="M-70.1667,-57v0l0.333328,0.5h0.666672l0.333328,-0.5" stroke="#808080" stroke-width="0.015625" fill="none"/><path d="M-70.1667,-56v0l0.333328,0.5h0.666672l0.333328,-0.5" stroke="#808080" stroke-width="0.015625" fill="none"/><path d="M-70.1667,-55v0l0.333328,0.5h0.666672l0.333328,-0.5" stroke="#808080" stroke-width="0.015625" fill="none"/><path d="M-70.1667,-54v0l0.333328,0.5h0.666672l0.333328,-0.5" stroke="#808080" stroke-width="0.015625" fill="none"/><path d="M-70.1667,-53v0l0.333328,0.5h0.666672l0.333328,-0.5" stroke="#808080" stroke-width="0.015625" fill="none"/><path d="M-70.1667,-52v0l0.333328,0.5h0.666672l0.333328,-0.5" stroke="#808080" stroke-width="0.015625" fill="none"/><path d="M-70.1667,-51v0l0.333328,0.5h0.666672l0.333328,-0.5" stroke="#808080" stroke-width="0.015625" fill="none"/><path d="M-70.1667,-50v0l0.333328,0.5h0.666672l0.333328,-0.5" stroke="#808080" stroke-width="0.015625" fill="none"/><path d="M-70.1667,-49v0l0.333328,0.5h0.666672l0.333328,-0.5" stroke="#808080" stroke-width="0.015625" fill="none"/><path d="M-69.1667,-61.5v0l0.333328,0.5h0.666672l0.333328,-0.5" stroke="#808080" stroke-width="0.015625" fill="none"/><path d="M-69.1667,-60.5v0l0.333328,0.5h0.666672l0.333328,-0.5" stroke="#808080" stroke-width="0.015625" fill="none"/><path d="M-69.1667,-59.5v0l0.333328,0.5h0.666672l0.333328,-0.5" stroke="#808080" stroke-width="0.015625" fill="none"/><path d="M-69.1667,-58.5v0l0.333328,0.5h0.666672l0.333328,-0.5" stroke="#808080" stroke-width="0.015625" fill="none"/><path d="M-69.1667,-57.5v0l0.333328,0.5h0.666672l0.333328,-0.5" stroke="#808080" stroke-width="0.015625" fill="none"/><path d="M-69.1667,-56.5v0l0.333328,0.5h0.666672l0.333328,-0.5" stroke="#808080" stroke-width="0.015625" fill="none"/><path d="M-69.1667,-55.5v0l0.333328,0.5h0.666672l0.333328,-0.5" stroke="#808080" stroke-width="0.015625" fill="none"/><path d="M-69.1667,-54.5v0l0.333328,0.5h0.666672l0.333328,-0.5" stroke="#808080" stroke-width="0.015625" fill="none"/><path d="M-69.1667,-53.5v0l0.333328,0.5h0.666672l0.333328,-0.5" stroke="#808080" stroke-width="0.015625" fill="none"/><path d="M-69.1667,-52.5v0l0.333328,0.5h0.666672l0.333328,-0.5" stroke="#808080" stroke-width="0.015625" fill="none"/><path d="M-69.1667,-51.5v0l0.333328,0.5h0.666672l0.333328,-0.5" stroke="#808080" stroke-width="0.015625" fill="none"/><path d="M-69.1667,-50.5v0l0.333328,0.5h0.666672l0.333328,-0.5" stroke="#808080" stroke-width="0.015625" fill="none"/><path d="M-69.1667,-49.5v0l0.333328,0.5h0.666672l0.333328,-0.5" stroke="#808080" stroke-width="0.015625" fill="none"/><path d="M-68.1667,-61v0l0.333328,0.5h0.666672l0.333328,-0.5" stroke="#808080" stroke-width="0.015625" fill="none"/><path d="M-68.1667,-60v0l0.333328,0.5h0.666672l0.333328,-0.5" stroke="#808080" stroke-width="0.015625" fill="none"/><path d="M-68.1667,-59v0l0.333328,0.5h0.666672l0.333328,-0.5" stroke="#808080" stroke-width="0.015625" fill="none"/><path d="M-68.1667,-58v0l0.333328,0.5h0.666672l0.333328,-0.5" stroke="#808080" stroke-width="0.015625" fill="none"/><path d="M-68.1667,-57v0l0.333328,0.5h0.666672l0.333328,-0.5" stroke="#808080" stroke-width="0.015625" fill="none"/><path d="M-68.1667,-56v0l0.333328,0.5h0.666672l0.333328,-0.5" stroke="#808080" stroke-width="0.015625" fill="none"/><path d="M-68.1667,-55v0l0.333328,0.5h0.666672l0.333328,-0.5" stroke="#808080" stroke-width="0.015625" fill="none"/><path d="M-68.1667,-54v0l0.333328,0.5h0.666672l0.333328,-0.5" stroke="#808080" stroke-width="0.015625" fill="none"/><path d="M-68.1667,-53v0l0.333328,0.5h0.666672l0.333328,-0.5" stroke="#808080" stroke-width="0.015625" fill="none"/><path d="M-68.1667,-52v0l0.333328,0.5h0.666672l0.333328,-0.5" stroke="#808080" stroke-width="0.015625" fill="none"/><path d="M-68.1667,-51v0l0.333328,0.5h0.666672l0.333328,-0.5" stroke="#808080" stroke-width="0.015625" fill="none"/><path d="M-68.1667,-50v0l0.333328,0.5h0.666672l0.333328,-0.5" stroke="#808080" stroke-width="0.015625" fill="none"/><path d="M-68.1667,-49v0l0.333328,0.5h0.666672l0.333328,-0.5" stroke="#808080" stroke-width="0.015625" fill="none"/><path d="M-67.1667,-61.5v0l0.333328,0.5h0.666672l0.333328,-0.5" stroke="#808080" stroke-width="0.015625" fill="none"/><path d="M-67.1667,-60.5v0l0.333328,0.5h0.666672l0.333328,-0.5" stroke="#808080" stroke-width="0.015625" fill="none"/><path d="M-67.1667,-59.5v0l0.333328,0.5h0.666672l0.333328,-0.5" stroke="#808080" stroke-width="0.015625" fill="none"/><path d="M-67.1667,-58.5v0l0.333328,0.5h0.666672l0.333328,-0.5" stroke="#808080" stroke-width="0.015625" fill="none"/><path d="M-67.1667,-57.5v0l0.333328,0.5h0.666672l0.333328,-0.5" stroke="#808080" stroke-width="0.015625" fill="none"/><path d="M-67.1667,-56.5v0l0.333328,0.5h0.666672l0.333328,-0.5" stroke="#808080" stroke-width="0.015625" fill="none"/><path d="M-67.1667,-55.5v0l0.333328,0.5h0.666672l0.333328,-0.5" stroke="#808080" stroke-width="0.015625" fill="none"/><path d="M-67.1667,-54.5v0l0.333328,0.5h0.666672l0.333328,-0.5" stroke="#808080" stroke-width="0.015625" fill="none"/><path d="M-67.1667,-53.5v0l0.333328,0.5h0.666672l0.333328,-0.5" stroke="#808080" stroke-width="0.015625" fill="none"/><path d="M-67.1667,-52.5v0l0.333328,0.5h0.666672l0.333328,-0.5" stroke="#808080" stroke-width="0.015625" fill="none"/><path d="M-67.1667,-51.5v0l0.333328,0.5h0.666672l0.333328,-0.5" stroke="#808080" stroke-width="0.015625" fill="none"/><path d="M-67.1667,-50.5v0l0.333328,0.5h0.666672l0.333328,-0.5" stroke="#808080" stroke-width="0.015625" fill="none"/><path d="M-67.1667,-49.5v0l0.333328,0.5h0.666672l0.333328,-0.5" stroke="#808080" stroke-width="0.015625" fill="none"/><path d="M-66.1667,-61v0l0.333328,0.5h0.666672l0.333328,-0.5" stroke="#808080" stroke-width="0.015625" fill="none"/><path d="M-66.1667,-60v0l0.333328,0.5h0.666672l0.333328,-0.5" stroke="#808080" stroke-width="0.015625" fill="none"/><path d="M-66.1667,-59v0l0.333328,0.5h0.666672l0.333328,-0.5" stroke="#808080" stroke-width="0.015625" fill="none"/><path d="M-66.1667,-58v0l0.333328,0.5h0.666672l0.333328,-0.5" stroke="#808080" stroke-width="0.015625" fill="none"/><path d="M-66.1667,-57v0l0.333328,0.5h0.666672l0.333328,-0.5" stroke="#808080" stroke-width="0.015625" fill="none"/><path d="M-66.1667,-56v0l0.333328,0.5h0.666672l0.333328,-0.5" stroke="#808080" stroke-width="0.015625" fill="none"/><path d="M-66.1667,-55v0l0.333328,0.5h0.666672l0.333328,-0.5" stroke="#808080" stroke-width="0.015625" fill="none"/><path d="M-66.1667,-54v0l0.333328,0.5h0.666672l0.333328,-0.5" stroke="#808080" stroke-width="0.015625" fill="none"/><path d="M-66.1667,-53v0l0.333328,0.5h0.666672l0.333328,-0.5" stroke="#808080" stroke-width="0.015625" fill="none"/><path d="M-66.1667,-52v0l0.333328,0.5h0.666672l0.333328,-0.5" stroke="#808080" stroke-width="0.015625" fill="none"/><path d="M-66.1667,-51v0l0.333328,0.5h0.666672l0.333328,-0.5" stroke="#808080" stroke-width="0.015625" fill="none"/><path d="M-66.1667,-50v0l0.333328,0.5h0.666672l0.333328,-0.5" stroke="#808080" stroke-width="0.015625" fill="none"/><path d="M-66.1667,-49v0l0.333328,0.5h0.666672l0.333328,-0.5" stroke="#808080" stroke-width="0.015625" fill="none"/><path d="M-65.1667,-61.5v0l0.333328,0.5h0.666672l0.333332,-0.5" stroke="#808080" stroke-width="0.015625" fill="none"/><path d="M-65.1667,-60.5v0l0.333328,0.5h0.666672l0.333332,-0.5" stroke="#808080" stroke-width="0.015625" fill="none"/><path d="M-65.1667,-59.5v0l0.333328,0.5h0.666672l0.333332,-0.5" stroke="#808080" stroke-width="0.015625" fill="none"/><path d="M-65.1667,-58.5v0l0.333328,0.5h0.666672l0.333332,-0.5" stroke="#808080" stroke-width="0.015625" fill="none"/><path d="M-65.1667,-57.5v0l0.333328,0.5h0.666672l0.333332,-0.5" stroke="#808080" stroke-width="0.015625" fill="none"/><path d="M-65.1667,-56.5v0l0.333328,0.5h0.666672l0.333332,-0.5" stroke="#808080" stroke-width="0.015625" fill="none"/><path d="M-65.1667,-55.5v0l0.333328,0.5h0.666672l0.333332,-0.5" stroke="#808080" stroke-width="0.015625" fill="none"/><path d="M-65.1667,-54.5v0l0.333328,0.5h0.666672l0.333332,-0.5" stroke="#808080" stroke-width="0.015625" fill="none"/><path d="M-65.1667,-53.5v0l0.333328,0.5h0.666672l0.333332,-0.5" stroke="#808080" stroke-width="0.015625" fill="none"/><path d="M-65.1667,-52.5v0l0.333328,0.5h0.666672l0.333332,-0.5" stroke="#808080" stroke-width="0.015625" fill="none"/><path d="M-65.1667,-51.5v0l0.333328,0.5h0.666672l0.333332,-0.5" stroke="#808080" stroke-width="0.015625" fill="none"/><path d="M-65.1667,-50.5v0l0.333328,0.5h0.666672l0.333332,-0.5" stroke="#808080" stroke-width="0.015625" fill="none"/><path d="M-65.1667,-49.5v0l0.333328,0.5h0.666672l0.333332,-0.5" stroke="#808080" stroke-width="0.015625" fill="none"/><path clip-path="url(#did2)" d="M-97.8333,-78.5l-0.333328,-0.5l0.333328,-0.5h0.666672l0.333328,0.5h0.666672l0.333328,-0.5h0.666672l0.333328,0.5h0.666672l0.333328,0.5h0.666672l0.333328,-0.5h0.666672l0.333328,0.5h0.666672l0.333328,0.5l-0.333328,0.5l0.333328,0.5l-0.333328,0.5l0.333328,0.5h0.666672l0.333328,0.5h0.666672l0.333328,0.5h0.666672l0.333328,0.5h0.666672l0.333328,0.5h0.666672l0.333328,-0.5h0.666672l0.333328,-0.5h0.666672l0.333328,-0.5h0.666672l0.333328,-0.5h0.666672l0.333328,0.5h0.666672l0.333328,0.5h0.666672l0.333328,-0.5h0.666672l0.333328,-0.5h0.666672l0.333328,0.5h0.666672l0.333328,-0.5h0.666672l0.333328,0.5h0.666672l0.333328,0.5h0.666672l0.333328,-0.5h0.666672l0.333328,0.5h0.666672l0.333328,0.5h0.666672l0.333328,-0.5h0.666672l0.333328,-0.5h0.666672l0.333328,-0.5h0.666672l0.333328,0.5h0.666672l0.333328,-0.5h0.666672l0.333328,-0.5h0.666672l0.333328,-0.5l-0.333328,-0.5l0.333328,-0.5h0.666672l0.333332,0.5l-0.333332,0.5l0.333332,0.5l-0.333332,0.5l0.333332,0.5l-0.333332,0.5l0.333332,0.5l-0.333332,0.5l0.333332,0.5l-0.333332,0.5l0.333332,0.5l-0.333332,0.5l0.333332,0.5l-0.333332,0.5l0.333332,0.5l-0.333332,0.5l0.333332,0.5l-0.333332,0.5l0.333332,0.5l-0.333332,0.5l0.333332,0.5l-0.333332,0.5l0.333332,0.5l-0.333332,0.5l0.333332,0.5l-0.333332,0.5l0.333332,0.5l-0.333332,0.5l0.333332,0.5l-0.333332,0.5l0.333332,0.5l-0.333332,0.5l0.333332,0.5l-0.333332,0.5h-0.666672l-0.333328,0.5h-0.666672l-0.333328,-0.5h-0.666672l-0.333328,0.5h-0.666672l-0.333328,0.5h-0.666672l-0.333328,0.5h-0.666672l-0.333328,0.5h-0.666672l-0.333328,0.5h-0.666672l-0.333328,0.5l0.333328,0.5l-0.333328,0.5h-0.666672l-0.333328,0.5l0.333328,0.5l-0.333328,0.5l0.333328,0.5l-0.333328,0.5h-0.666672l-0.333328,0.5h-0.666672l-0.333328,0.5l0.333328,0.5l-0.333328,0.5l0.333328,0.5l-0.333328,0.5h-0.666672l-0.333328,0.5l0.333328,0.5l-0.333328,0.5l0.333328,0.5l-0.333328,0.5h-0.666672l-0.333328,0.5h-0.666672l-0.333328,0.5l0.333328,0.5l-0.333328,0.5h-0.666672l-0.333328,0.5l0.333328,0.5l-0.333328,0.5l0.333328,0.5l-0.333328,0.5h-0.666672l-0.333328,0.5l0.333328,0.5l-0.333328,0.5h-0.666672l-0.333328,0.5l0.333328,0.5l-0.333328,0.5l0.333328,0.5l-0.333328,0.5l0.333328,0.5l-0.333328,0.5h-0.666672l-0.333328,0.5h-0.666672l-0.333328,0.5h-0.666672l-0.333328,-0.5h-0.666672l-0.333328,0.5h-0.666672l-0.333328,-0.5h-0.666672l-0.333328,0.5h-0.666672l-0.333328,-0.5h-0.666672l-0.333328,0.5h-0.666672l-0.333328,-0.5h-0.666672l-0.333328,0.5h-0.666672l-0.333328,-0.5h-0.666672l-0.333328,0.5h-0.666672l-0.333328,-0.5h-0.666672l-0.333328,0.5h-0.666672l-0.333328,-0.5h-0.666672l-0.333328,0.5h-0.666672l-0.333328,-0.5l0.333328,-0.5l-0.333328,-0.5l0.333328,-0.5l-0.333328,-0.5l0.333328,-0.5l-0.333328,-0.5l0.333328,-0.5l-0.333328,-0.5l0.333328,-0.5l-0.333328,-0.5l0.333328,-0.5l-0.333328,-0.5l0.333328,-0.5l-0.333328,-0.5l0.333328,-0.5l-0.333328,-0.5l0.333328,-0.5l-0.333328,-0.5l0.333328,-0.5l-0.333328,-0.5l0.333328,-0.5l-0.333328,-0.5l0.333328,-0.5l-0.333328,-0.5l0.333328,-0.5l-0.333328,-0.5l0.333328,-0.5l-0.333328,-0.5l0.333328,-0.5l-0.333328,-0.5l0.333328,-0.5l-0.333328,-0.5l0.333328,-0.5l-0.333328,-0.5l0.333328,-0.5l-0.333328,-0.5l0.333328,-0.5l-0.333328,-0.5l0.333328,-0.5l-0.333328,-0.5l0.333328,-0.5l-0.333328,-0.5l0.333328,-0.5l-0.333328,-0.5l0.333328,-0.5l-0.333328,-0.5l0.333328,-0.5l-0.333328,-0.5l0.333328,-0.5l-0.333328,-0.5l0.333328,-0.5l-0.333328,-0.5l0.333328,-0.5l-0.333328,-0.5l0.333328,-0.5l-0.333328,-0.5l0.333328,-0.5l-0.333328,-0.5l0.333328,-0.5l-0.333328,-0.5l0.333328,-0.5l-0.333328,-0.5l0.333328,-0.5l-0.333328,-0.5l0.333328,-0.5l-0.333328,-0.5l0.333328,-0.5l-0.333328,-0.5l0.333328,-0.5l-0.333328,-0.5l0.333328,-0.5l-0.333328,-0.5l0.333328,-0.5l-0.333328,-0.5l0.333328,-0.5l-0.333328,-0.5l0.333328,-0.5l-0.333328,-0.5Z" stroke="#E32736" stroke-width="0.16" fill="none"/><path clip-path="url(#did3)" d="M-65.8333,-79.5l-0.333328,-0.5l0.333328,-0.5h0.666672l0.333328,-0.5h0.666672l0.333332,0.5l-0.333332,0.5l0.333332,0.5l-0.333332,0.5h-0.666672l-0.333328,0.5h-0.666672l-0.333328,-0.5Z" stroke="OliveDrab" stroke-width="0.16" fill="none"/><path clip-path="url(#did4)" d="M-71.8333,-76.5l-0.333328,-0.5l0.333328,-0.5h0.666672l0.333328,-0.5l-0.333328,-0.5l0.333328,-0.5l-0.333328,-0.5l0.333328,-0.5h0.666672l0.333328,-0.5h0.666672l0.333328,-0.5h0.666672l0.333328,0.5l-0.333328,0.5h-0.666672l-0.333328,0.5h-0.666672l-0.333328,0.5l0.333328,0.5l-0.333328,0.5l0.333328,0.5h0.666672l0.333328,0.5h0.666672l0.333328,0.5h0.666672l0.333328,0.5l-0.333328,0.5h-0.666672l-0.333328,-0.5h-0.666672l-0.333328,-0.5h-0.666672l-0.333328,0.5h-0.666672l-0.333328,-0.5Z" stroke="OliveDrab" stroke-width="0.16" fill="none"/><line x1="-74.311" y1="-57.689" x2="-72.689" y2="-59.311" stroke="#048104" stroke-width="0.08"/><line x1="-72.5" y1="-60.25" x2="-72.5" y2="-59.75" stroke="#048104" stroke-width="0.08"/><line x1="-72.5" y1="-60.25" x2="-72.5" y2="-59.75" stroke="#048104" stroke-width="0.08"/></g><g clip-path="url(#did5)"><text transform="translate(-72.5,-59.5) scale(1.1547 1)" font-family="Arial" font-size="0.14" text-anchor="middle" x="0" y="-0.381" fill="DarkGray">2521</text><text transform="translate(-72.5,-58.5) scale(1.1547 1)" font-family="Arial" font-size="0.14" text-anchor="middle" x="0" y="-0.381" fill="DarkGray">2522</text><text transform="translate(-72.5,-57.5) scale(1.1547 1)" font-family="Arial" font-size="0.14" text-anchor="middle" x="0" y="-0.381" fill="DarkGray">2523</text><text transform="translate(-70.5,-59.5) scale(1.1547 1)" font-family="Arial" font-size="0.14" text-anchor="middle" x="0" y="-0.381" fill="DarkGray">2721</text></g><g transform="translate(-72.5,-59.5) scale(1.1547 1)"><circle transform="translate(0.25,-0.18)" r="0.05" cx="0" cy="0" stroke="none" fill="Black"/><rect x="-0.113084" y="-0.35543" width="0.226167" height="0.260859" stroke="none" fill="White"/><text font-family="Arial" font-size="0.21" font-weight="bold" text-anchor="middle" x="0" y="-0.13575" fill="Black">A</text><text font-family="Arial Unicode MS,Segoe UI Symbol,Arial" font-size="0.21" font-weight="bold" text-anchor="middle" x="-0.25" y="-0.09075" fill="Black">★</text><circle r="0.1" cx="0" cy="0" stroke="Black" stroke-width="0.015625" fill="White"/><rect x="-0.503809" y="0.23957" width="1.00762" height="0.260859" stroke="none" fill="White"/><text font-family="Arial" font-size="0.21" font-weight="bold" text-anchor="middle" x="0" y="0.45925" fill="Black">Geniishir</text></g><g transform="translate(-72.5,-58.5) scale(1.1547 1)"><circle transform="translate(0.25,-0.18)" r="0.05" cx="0" cy="0" stroke="none" fill="Black"/><rect x="-0.113084" y="-0.35543" width="0.226167" height="0.260859" stroke="none" fill="White"/><text font-family="Arial" font-size="0.21" font-weight="bold" text-anchor="middle" x="0" y="-0.13575" fill="Black">B</text><text font-family="Arial Unicode MS,Segoe UI Symbol,Arial" font-size="0.21" font-weight="bold" text-anchor="middle" x="-0.35" y="0.08925" fill="#E32736">Γ</text><circle r="0.1" cx="0" cy="0" stroke="none" fill="DeepSkyBlue"/><rect x="-0.575894" y="0.23957" width="1.15179" height="0.260859" stroke="none" fill="White"/><text font-family="Arial" font-size="0.21" font-weight="bold" text-anchor="middle" x="0" y="0.45925" fill="Black">Maelstrom</text></g><g transform="translate(-72.5,-57.5) scale(1.1547 1)"><circle transform="translate(0.25,-0.18)" r="0.05" cx="0" cy="0" stroke="none" fill="Black"/><rect x="-0.113084" y="-0.35543" width="0.226167" height="0.260859" stroke="none" fill="White"/><text font-family="Arial" font-size="0.21" font-weight="bold" text-anchor="middle" x="0" y="-0.13575" fill="Black">D</text><text font-family="Arial Unicode MS,Segoe UI Symbol,Arial" font-size="0.21" font-weight="bold" text-anchor="middle" x="-0.25" y="0.26925" fill="Black">▲</text><circle r="0.1" cx="0" cy="0" stroke="Black" stroke-width="0.015625" fill="White"/><rect x="-0.503757" y="0.23957" width="1.00752" height="0.260859" stroke="none" fill="White"/><text font-family="Arial" font-size="0.21" font-weight="bold" text-anchor="middle" x="0" y="0.45925" fill="Black">Exotrope</text></g><g transform="translate(-70.5,-59.5) scale(1.1547 1)"><circle transform="translate(0.25,-0.18)" r="0.05" cx="0" cy="0" stroke="none" fill="Black"/><rect x="-0.113084" y="-0.35543" width="0.226167" height="0.260859" stroke="none" fill="White"/><text font-family="Arial" font-size="0.21" font-weight="bold" text-anchor="middle" x="0" y="-0.13575" fill="Black">C</text><circle r="0.1" cx="0" cy="0" stroke="none" fill="DeepSkyBlue"/><rect x="-0.617832" y="0.23957" width="1.23566" height="0.260859" stroke="none" fill="White"/><text font-family="Arial" font-size="0.21" font-weight="bold" text-anchor="middle" x="0" y="0.45925" fill="Black">Newpenton</text></g></g></svg>