<?xml version = "1.0" encoding="utf-8"?>
<svg version="1.1" baseProfile="full" xmlns="http://www.w3.org/2000/svg" xmlns:xlink="http://www.w3.org/1999/xlink" width="471" height="684" viewBox="0 0 471 684" clip="0 471 0 684"><defs><clipPath id="did1"><rect x="54.75" y="59.9" width="8.5" height="10.7"/></clipPath><clipPath id="did2"><path d="M49.1667,81l-0.333336,-0.5l0.333336,-0.5h0.666664l0.333336,-0.5h0.666664l0.333336,-0.5h0.666664l0.333336,-0.5h0.666664l0.333336,-0.5h0.666664l0.333336,-0.5h0.666664l0.333336,0.5h0.666664l0.333336,0.5h0.666664l0.333336,-0.5h0.666664l0.333336,-0.5h0.666664l0.333336,0.5h0.666664l0.333336,0.5h0.666664l0.333336,0.5l-0.333336,0.5l0.333336,0.5h0.666664l0.333336,0.5h0.666664l0.333336,-0.5h0.666664l0.333332,0.5l-0.333332,0.5h-0.666664l-0.333336,0.5h-0.666664l-0.333336,-0.5h-0.666664l-0.333336,0.5h-0.666664l-0.333336,-0.5h-0.666664l-0.333336,0.5h-0.666664l-0.333336,-0.5h-0.666664l-0.333336,0.5h-0.666664l-0.333336,-0.5h-0.666664l-0.333336,0.5h-0.666664l-0.333336,-0.5h-0.666664l-0.333336,0.5h-0.666664l-0.333336,-0.5h-0.666664l-0.333336,0.5h-0.666664l-0.333336,-0.5Z"/></clipPath><clipPath id="did3"><path d="M30.1667,40.5l-0.333332,-0.5l0.333332,-0.5h0.666668l0.333332,-0.5h0.666668l0.333334,0.5h0.666664l0.333336,-0.5h0.666664l0.333336,0.5h0.666664l0.333336,-0.5h0.666664l0.333336,0.5h0.666664l0.333336,-0.5h0.666664l0.333336,0.5h0.666664l0.333336,-0.5h0.666664l0.333336,0.5h0.666664l0.333336,-0.5h0.666664l0.333336,0.5h0.666664l0.333336,-0.5h0.666664l0.333336,0.5h0.666664l0.333336,-0.5h0.666664l0.333336,0.5h0.666664l0.333336,-0.5h0.666664l0.333336,0.5h0.666664l0.333336,-0.5h0.666664l0.333336,0.5h0.666664l0.333336,-0.5h0.666664l0.333336,0.5h0.666664l0.333336,-0.5h0.666664l0.333336,0.5h0.666664l0.333336,-0.5h0.666664l0.333336,0.5h0.666664l0.333336,-0.5h0.666664l0.333336,0.5h0.666664l0.333336,-0.5h0.666664l0.333336,0.5h0.666664l0.333336,-0.5h0.666664l0.333336,0.5h0.666664l0.333336,-0.5h0.666664l0.333332,0.5l-0.333332,0.5l0.333332,0.5l-0.333332,0.5l0.333332,0.5l-0.333332,0.5l0.333332,0.5l-0.333332,0.5l0.333332,0.5l-0.333332,0.5h-0.666664l-0.333336,0.5l0.333336,0.5l-0.333336,0.5l0.333336,0.5l-0.333336,0.5h-0.666664l-0.333336,0.5l0.333336,0.5l-0.333336,0.5l0.333336,0.5l-0.333336,0.5l0.333336,0.5l-0.333336,0.5l0.333336,0.5l-0.333336,0.5l0.333336,0.5h0.666664l0.333336,0.5l-0.333336,0.5l0.333336,0.5l-0.333336,0.5h-0.666664l-0.333336,0.5h-0.666664l-0.333336,0.5l0.333336,0.5l-0.333336,0.5h-0.666664l-0.333336,0.5l0.333336,0.5l-0.333336,0.5h-0.666664l-0.333336,0.5l0.333336,0.5l-0.333336,0.5h-0.666664l-0.333336,0.5h-0.666664l-0.333336,0.5l0.333336,0.5l-0.333336,0.5l0.333336,0.5l-0.333336,0.5l0.333336,0.5h0.666664l0.333336,0.5h0.666664l0.333336,0.5h0.666664l0.333336,0.5l-0.333336,0.5l0.333336,0.5l-0.333336,0.5l0.333336,0.5h0.666664l0.333336,-0.5h0.666664l0.333336,-0.5h0.666664l0.333336,0.5l-0.333336,0.5h-0.666664l-0.333336,0.5h-0.666664l-0.333336,0.5l0.333336,0.5l-0.333336,0.5l0.333336,0.5h0.666664l0.333336,0.5h0.666664l0.333336,0.5l-0.333336,0.5h-0.666664l-0.333336,0.5h-0.666664l-0.333336,0.5h-0.666664l-0.333336,0.5l0.333336,0.5l-0.333336,0.5l0.333336,0.5l-0.333336,0.5l0.333336,0.5l-0.333336,0.5l0.333336,0.5l-0.333336,0.5h-0.666664l-0.333336,0.5h-0.666664l-0.333336,0.5h-0.666664l-0.333336,0.5h-0.666664l-0.333336,0.5l0.333336,0.5l-0.333336,0.5h-0.666664l-0.333336,-0.5h-0.666664l-0.333336,0.5h-0.666664l-0.333336,0.5h-0.666664l-0.333336,0.5h-0.666664l-0.333336,0.5h-0.666664l-0.333336,0.5h-0.666664l-0.333336,0.5l0.333336,0.5l-0.333336,0.5h-0.666664l-0.333336,-0.5h-0.666664l-0.333336,0.5h-0.666664l-0.333336,-0.5h-0.666664l-0.333336,0.5h-0.666664l-0.333336,-0.5h-0.666664l-0.333336,0.5h-0.666664l-0.333336,-0.5h-0.666664l-0.333336,0.5h-0.666664l-0.333336,-0.5h-0.666664l-0.333336,0.5h-0.666664l-0.333336,-0.5h-0.666664l-0.333336,0.5h-0.666664l-0.333336,-0.5h-0.666664l-0.333336,0.5h-0.666664l-0.333336,-0.5h-0.666664l-0.333336,0.5h-0.666664l-0.333334,-0.5h-0.666668l-0.333332,0.5h-0.666668l-0.333332,-0.5l0.333332,-0.5l-0.333332,-0.5l0.333332,-0.5l-0.333332,-0.5l0.333332,-0.5l-0.333332,-0.5l0.333332,-0.5l-0.333332,-0.5l0.333332,-0.5l-0.333332,-0.5l0.333332,-0.5l-0.333332,-0.5l0.333332,-0.5l-0.333332,-0.5l0.333332,-0.5l-0.333332,-0.5l0.333332,-0.5l-0.333332,-0.5l0.333332,-0.5l-0.333332,-0.5l0.333332,-0.5l-0.333332,-0.5l0.333332,-0.5l-0.333332,-0.5l0.333332,-0.5l-0.333332,-0.5l0.333332,-0.5l-0.333332,-0.5l0.333332,-0.5l-0.333332,-0.5l0.333332,-0.5l-0.333332,-0.5l0.333332,-0.5l-0.333332,-0.5l0.333332,-0.5l-0.333332,-0.5l0.333332,-0.5l-0.333332,-0.5l0.333332,-0.5l-0.333332,-0.5l0.333332,-0.5l-0.333332,-0.5l0.333332,-0.5l-0.333332,-0.5l0.333332,-0.5l-0.333332,-0.5l0.333332,-0.5l-0.333332,-0.5l0.333332,-0.5l-0.333332,-0.5l0.333332,-0.5l-0.333332,-0.5l0.333332,-0.5l-0.333332,-0.5l0.333332,-0.5l-0.333332,-0.5l0.333332,-0.5l-0.333332,-0.5l0.333332,-0.5l-0.333332,-0.5l0.333332,-0.5l-0.333332,-0.5l0.333332,-0.5l-0.333332,-0.5l0.333332,-0.5l-0.333332,-0.5l0.333332,-0.5l-0.333332,-0.5l0.333332,-0.5l-0.333332,-0.5l0.333332,-0.5l-0.333332,-0.5l0.333332,-0.5l-0.333332,-0.5l0.333332,-0.5l-0.333332,-0.5l0.333332,-0.5l-0.333332,-0.5l0.333332,-0.5l-0.333332,-0.5Z"/></clipPath><clipPath id="did4"><rect x="54.75" y="59.9" width="8.5" height="10.7"/></clipPath><clipPath id="did5"><rect x="54.75" y="59.9" width="8.5" height="10.7"/></clipPath></defs><g fill="None" stroke="None" transform="matrix(1,0,0,1,0,0) matrix(55.4256,0,0,64,-3034.55,-3833.6)"><g clip-path="url(#did1)"><rect x="53.9" y="58.83" width="10.2" height="12.84" stroke="none" fill="White"/><path d="M52.8333,58.5v0l0.333336,0.5h0.666664l0.333336,-0.5" stroke="#808080" stroke-width="0.015625" fill="none"/><path d="M52.8333,59.5v0l0.333336,0.5h0.666664l0.333336,-0.5" stroke="#808080" stroke-width="0.015625" fill="none"/><path d="M52.8333,60.5v0l0.333336,0.5h0.666664l0.333336,-0.5" stroke="#808080" stroke-width="0.015625" fill="none"/><path d="M52.8333,61.5v0l0.333336,0.5h0.666664l0.333336,-0.5" stroke="#808080" stroke-width="0.015625" fill="none"/><path d="M52.8333,62.5v0l0.333336,0.5h0.666664l0.333336,-0.5" stroke="#808080" stroke-width="0.015625" fill="none"/><path d="M52.8333,63.5v0l0.333336,0.5h0.666664l0.333336,-0.5" stroke="#808080" stroke-width="0.015625" fill="none"/><path d="M52.8333,64.5v0l0.333336,0.5h0.666664l0.333336,-0.5" stroke="#808080" stroke-width="0.015625" fill="none"/><path d="M52.8333,65.5v0l0.333336,0.5h0.666664l0.333336,-0.5" stroke="#808080" stroke-width="0.015625" fill="none"/><path d="M52.8333,66.5v0l0.333336,0.5h0.666664l0.333336,-0.5" stroke="#808080" stroke-width="0.015625" fill="none"/><path d="M52.8333,67.5v0l0.333336,0.5h0.666664l0.333336,-0.5" stroke="#808080" stroke-width="0.015625" fill="none"/><path d="M52.8333,68.5v0l0.333336,0.5h0.666664l0.333336,-0.5" stroke="#808080" stroke-width="0.015625" fill="none"/><path d="M52.8333,69.5v0l0.333336,0.5h0.666664l0.333336,-0.5" stroke="#808080" stroke-width="0.015625" fill="none"/><path d="M52.8333,70.5v0l0.333336,0.5h0.666664l0.333336,-0.5" stroke="#808080" stroke-width="0.015625" fill="none"/><path d="M53.8333,59v0l0.333336,0.5h0.666664l0.333336,-0.5" stroke="#808080" stroke-width="0.015625" fill="none"/><path d="M53.8333,60v0l0.333336,0.5h0.666664l0.333336,-0.5" stroke="#808080" stroke-width="0.015625" fill="none"/><path d="M53.8333,61v0l0.333336,0.5h0.666664l0.333336,-0.5" stroke="#808080" stroke-width="0.015625" fill="none"/><path d="M53.8333,62v0l0.333336,0.5h0.666664l0.333336,-0.5" stroke="#808080" stroke-width="0.015625" fill="none"/><path d="M53.8333,63v0l0.333336,0.5h0.666664l0.333336,-0.5" stroke="#808080" stroke-width="0.015625" fill="none"/><path d="M53.8333,64v0l0.333336,0.5h0.666664l0.333336,-0.5" stroke="#808080" stroke-width="0.015625" fill="none"/><path d="M53.8333,65v0l0.333336,0.5h0.666664l0.333336,-0.5" stroke="#808080" stroke-width="0.015625" fill="none"/><path d="M53.8333,66v0l0.333336,0.5h0.666664l0.333336,-0.5" stroke="#808080" stroke-width="0.015625" fill="none"/><path d="M53.8333,67v0l0.333336,0.5h0.666664l0.333336,-0.5" stroke="#808080" stroke-width="0.015625" fill="none"/><path d="M53.8333,68v0l0.333336,0.5h0.666664l0.333336,-0.5" stroke="#808080" stroke-width="0.015625" fill="none"/><path d="M53.8333,69v0l0.333336,0.5h0.666664l0.333336,-0.5" stroke="#808080" stroke-width="0.015625" fill="none"/><path d="M53.8333,70v0l0.333336,0.5h0.666664l0.333336,-0.5" stroke="#808080" stroke-width="0.015625" fill="none"/><path d="M53.8333,71v0l0.333336,0.5h0.666664l0.333336,-0.5" stroke="#808080" stroke-width="0.015625" fill="none"/><path d="M54.8333,58.5v0l0.333336,0.5h0.666664l0.333336,-0.5" stroke="#808080" stroke-width="0.015625" fill="none"/><path d="M54.8333,59.5v0l0.333336,0.5h0.666664l0.333336,-0.5" stroke="#808080" stroke-width="0.015625" fill="none"/><path d="M54.8333,60.5v0l0.333336,0.5h0.666664l0.333336,-0.5" stroke="#808080" stroke-width="0.015625" fill="none"/><path d="M54.8333,61.5v0l0.333336,0.5h0.666664l0.333336,-0.5" stroke="#808080" stroke-width="0.015625" fill="none"/><path d="M54.8333,62.5v0l0.333336,0.5h0.666664l0.333336,-0.5" stroke="#808080" stroke-width="0.015625" fill="none"/><path d="M54.8333,63.5v0l0.333336,0.5h0.666664l0.333336,-0.5" stroke="#808080" stroke-width="0.015625" fill="none"/><path d="M54.8333,64.5v0l0.333336,0.5h0.666664l0.333336,-0.5" stroke="#808080" stroke-width="0.015625" fill="none"/><path d="M54.8333,65.5v0l0.333336,0.5h0.666664l0.333336,-0.5" stroke="#808080" stroke-width="0.015625" fill="none"/><path d="M54.8333,66.5v0l0.333336,0.5h0.666664l0.333336,-0.5" stroke="#808080" stroke-width="0.015625" fill="none"/><path d="M54.8333,67.5v0l0.333336,0.5h0.666664l0.333336,-0.5" stroke="#808080" stroke-width="0.015625" fill="none"/><path d="M54.8333,68.5v0l0.333336,0.5h0.666664l0.333336,-0.5" stroke="#808080" stroke-width="0.015625" fill="none"/><path d="M54.8333,69.5v0l0.333336,0.5h0.666664l0.333336,-0.5" stroke="#808080" stroke-width="0.015625" fill="none"/><path d="M54.8333,70.5v0l0.333336,0.5h0.666664l0.333336,-0.5" stroke="#808080" stroke-width="0.015625" fill="none"/><path d="M55.8333,59v0l0.333336,0.5h0.666664l0.333336,-0.5" stroke="#808080" stroke-width="0.015625" fill="none"/><path d="M55.8333,60v0l0.333336,0.5h0.666664l0.333336,-0.5" stroke="#808080" stroke-width="0.015625" fill="none"/><path d="M55.8333,61v0l0.333336,0.5h0.666664l0.333336,-0.5" stroke="#808080" stroke-width="0.015625" fill="none"/><path d="M55.8333,62v0l0.333336,0.5h0.666664l0.333336,-0.5" stroke="#808080" stroke-width="0.015625" fill="none"/><path d="M55.8333,63v0l0.333336,0.5h0.666664l0.333336,-0.5" stroke="#808080" stroke-width="0.015625" fill="none"/><path d="M55.8333,64v0l0.333336,0.5h0.666664l0.333336,-0.5" stroke="#808080" stroke-width="0.015625" fill="none"/><path d="M55.8333,65v0l0.333336,0.5h0.666664l0.333336,-0.5" stroke="#808080" stroke-width="0.015625" fill="none"/><path d="M55.8333,66v0l0.333336,0.5h0.666664l0.333336,-0.5" stroke="#808080" stroke-width="0.015625" fill="none"/><path d="M55.8333,67v0l0.333336,0.5h0.666664l0.333336,-0.5" stroke="#808080" stroke-width="0.015625" fill="none"/><path d="M55.8333,68v0l0.333336,0.5h0.666664l0.333336,-0.5" stroke="#808080" stroke-width="0.015625" fill="none"/><path d="M55.8333,69v0l0.333336,0.5h0.666664l0.333336,-0.5" stroke="#808080" stroke-width="0.015625" fill="none"/><path d="M55.8333,70v0l0.333336,0.5h0.666664l0.333336,-0.5" stroke="#808080" stroke-width="0.015625" fill="none"/><path d="M55.8333,71v0l0.333336,0.5h0.666664l0.333336,-0.5" stroke="#808080" stroke-width="0.015625" fill="none"/><path d="M56.8333,58.5v0l0.333336,0.5h0.666664l0.333336,-0.5" stroke="#808080" stroke-width="0.015625" fill="none"/><path d="M56.8333,59.5v0l0.333336,0.5h0.666664l0.333336,-0.5" stroke="#808080" stroke-width="0.015625" fill="none"/><path d="M56.8333,60.5v0l0.333336,0.5h0.666664l0.333336,-0.5" stroke="#808080" stroke-width="0.015625" fill="none"/><path d="M56.8333,61.5v0l0.333336,0.5h0.666664l0.333336,-0.5" stroke="#808080" stroke-width="0.015625" fill="none"/><path d="M56.8333,62.5v0l0.333336,0.5h0.666664l0.333336,-0.5" stroke="#808080" stroke-width="0.015625" fill="none"/><path d="M56.8333,63.5v0l0.333336,0.5h0.666664l0.333336,-0.5" stroke="#808080" stroke-width="0.015625" fill="none"/><path d="M56.8333,64.5v0l0.333336,0.5h0.666664l0.333336,-0.5" stroke="#808080" stroke-width="0.015625" fill="none"/><path d="M56.8333,65.5v0l0.333336,0.5h0.666664l0.333336,-0.5" stroke="#808080" stroke-width="0.015625" fill="none"/><path d="M56.8333,66.5v0l0.333336,0.5h0.666664l0.333336,-0.5" stroke="#808080" stroke-width="0.015625" fill="none"/><path d="M56.8333,67.5v0l0.333336,0.5h0.666664l0.333336,-0.5" stroke="#808080" stroke-width="0.015625" fill="none"/><path d="M56.8333,68.5v0l0.333336,0.5h0.666664l0.333336,-0.5" stroke="#808080" stroke-width="0.015625" fill="none"/><path d="M56.8333,69.5v0l0.333336,0.5h0.666664l0.333336,-0.5" stroke="#808080" stroke-width="0.015625" fill="none"/><path d="M56.8333,70.5v0l0.333336,0.5h0.666664l0.333336,-0.5" stroke="#808080" stroke-width="0.015625" fill="none"/><path d="M57.8333,59v0l0.333336,0.5h0.666664l0.333336,-0.5" stroke="#808080" stroke-width="0.015625" fill="none"/><path d="M57.8333,60v0l0.333336,0.5h0.666664l0.333336,-0.5" stroke="#808080" stroke-width="0.015625" fill="none"/><path d="M57.8333,61v0l0.333336,0.5h0.666664l0.333336,-0.5" stroke="#808080" stroke-width="0.015625" fill="none"/><path d="M57.8333,62v0l0.333336,0.5h0.666664l0.333336,-0.5" stroke="#808080" stroke-width="0.015625" fill="none"/><path d="M57.8333,63v0l0.333336,0.5h0.666664l0.333336,-0.5" stroke="#808080" stroke-width="0.015625" fill="none"/><path d="M57.8333,64v0l0.333336,0.5h0.666664l0.333336,-0.5" stroke="#808080" stroke-width="0.015625" fill="none"/><path d="M57.8333,65v0l0.333336,0.5h0.666664l0.333336,-0.5" stroke="#808080" stroke-width="0.015625" fill="none"/><path d="M57.8333,66v0l0.333336,0.5h0.666664l0.333336,-0.5" stroke="#808080" stroke-width="0.015625" fill="none"/><path d="M57.8333,67v0l0.333336,0.5h0.666664l0.333336,-0.5" stroke="#808080" stroke-width="0.015625" fill="none"/><path d="M57.8333,68v0l0.333336,0.5h0.666664l0.333336,-0.5" stroke="#808080" stroke-width="0.015625" fill="none"/><path d="M57.8333,69v0l0.333336,0.5h0.666664l0.333336,-0.5" stroke="#808080" stroke-width="0.015625" fill="none"/><path d="M57.8333,70v0l0.333336,0.5h0.666664l0.333336,-0.5" stroke="#808080" stroke-width="0.015625" fill="none"/><path d="M57.8333,71v0l0.333336,0.5h0.666664l0.333336,-0.5" stroke="#808080" stroke-width="0.015625" fill="none"/><path d="M58.8333,58.5v0l0.333336,0.5h0.666664l0.333336,-0.5" stroke="#808080" stroke-width="0.015625" fill="none"/><path d="M58.8333,59.5v0l0.333336,0.5h0.666664l0.333336,-0.5" stroke="#808080" stroke-width="0.015625" fill="none"/><path d="M58.8333,60.5v0l0.333336,0.5h0.666664l0.333336,-0.5" stroke="#808080" stroke-width="0.015625" fill="none"/><path d="M58.8333,61.5v0l0.333336,0.5h0.666664l0.333336,-0.5" stroke="#808080" stroke-width="0.015625" fill="none"/><path d="M58.8333,62.5v0l0.333336,0.5h0.666664l0.333336,-0.5" stroke="#808080" stroke-width="0.015625" fill="none"/><path d="M58.8333,63.5v0l0.333336,0.5h0.666664l0.333336,-0.5" stroke="#808080" stroke-width="0.015625" fill="none"/><path d="M58.8333,64.5v0l0.333336,0.5h0.666664l0.333336,-0.5" stroke="#808080" stroke-width="0.015625" fill="none"/><path d="M58.8333,65.5v0l0.333336,0.5h0.666664l0.333336,-0.5" stroke="#808080" stroke-width="0.015625" fill="none"/><path d="M58.8333,66.5v0l0.333336,0.5h0.666664l0.333336,-0.5" stroke="#808080" stroke-width="0.015625" fill="none"/><path d="M58.8333,67.5v0l0.333336,0.5h0.666664l0.333336,-0.5" stroke="#808080" stroke-width="0.015625" fill="none"/><path d="M58.8333,68.5v0l0.333336,0.5h0.666664l0.333336,-0.5" stroke="#808080" stroke-width="0.015625" fill="none"/><path d="M58.8333,69.5v0l0.333336,0.5h0.666664l0.333336,-0.5" stroke="#808080" stroke-width="0.015625" fill="none"/><path d="M58.8333,70.5v0l0.333336,0.5h0.666664l0.333336,-0.5" stroke="#808080" stroke-width="0.015625" fill="none"/><path d="M59.8333,59v0l0.333336,0.5h0.666664l0.333336,-0.5" stroke="#808080" stroke-width="0.015625" fill="none"/><path d="M59.8333,60v0l0.333336,0.5h0.666664l0.333336,-0.5" stroke="#808080" stroke-width="0.015625" fill="none"/><path d="M59.8333,61v0l0.333336,0.5h0.666664l0.333336,-0.5" stroke="#808080" stroke-width="0.015625" fill="none"/><path d="M59.8333,62v0l0.333336,0.5h0.666664l0.333336,-0.5" stroke="#808080" stroke-width="0.015625" fill="none"/><path d="M59.8333,63v0l0.333336,0.5h0.666664l0.333336,-0.5" stroke="#808080" stroke-width="0.015625" fill="none"/><path d="M59.8333,64v0l0.333336,0.5h0.666664l0.333336,-0.5" stroke="#808080" stroke-width="0.015625" fill="none"/><path d="M59.8333,65v0l0.333336,0.5h0.666664l0.333336,-0.5" stroke="#808080" stroke-width="0.015625" fill="none"/><path d="M59.8333,66v0l0.333336,0.5h0.666664l0.333336,-0.5" stroke="#808080" stroke-width="0.015625" fill="none"/><path d="M59.8333,67v0l0.333336,0.5h0.666664l0.333336,-0.5" stroke="#808080" stroke-width="0.015625" fill="none"/><path d="M59.8333,68v0l0.333336,0.5h0.666664l0.333336,-0.5" stroke="#808080" stroke-width="0.015625" fill="none"/><path d="M59.8333,69v0l0.333336,0.5h0.666664l0.333336,-0.5" stroke="#808080" stroke-width="0.015625" fill="none"/><path d="M59.8333,70v0l0.333336,0.5h0.666664l0.333336,-0.5" stroke="#808080" stroke-width="0.015625" fill="none"/><path d="M59.8333,71v0l0.333336,0.5h0.666664l0.333336,-0.5" stroke="#808080" stroke-width="0.015625" fill="none"/><path d="M60.8333,58.5v0l0.333336,0.5h0.666664l0.333336,-0.5" stroke="#808080" stroke-width="0.015625" fill="none"/><path d="M60.8333,59.5v0l0.333336,0.5h0.666664l0.333336,-0.5" stroke="#808080" stroke-width="0.015625" fill="none"/><path d="M60.8333,60.5v0l0.333336,0.5h0.666664l0.333336,-0.5" stroke="#808080" stroke-width="0.015625" fill="none"/><path d="M60.8333,61.5v0l0.333336,0.5h0.666664l0.333336,-0.5" stroke="#808080" stroke-width="0.015625" fill="none"/><path d="M60.8333,62.5v0l0.333336,0.5h0.666664l0.333336,-0.5" stroke="#808080" stroke-width="0.015625" fill="none"/><path d="M60.8333,63.5v0l0.333336,0.5h0.666664l0.333336,-0.5" stroke="#808080" stroke-width="0.015625" fill="none"/><path d="M60.8333,64.5v0l0.333336,0.5h0.666664l0.333336,-0.5" stroke="#808080" stroke-width="0.015625" fill="none"/><path d="M60.8333,65.5v0l0.333336,0.5h0.666664l0.333336,-0.5" stroke="#808080" stroke-width="0.015625" fill="none"/><path d="M60.8333,66.5v0l0.333336,0.5h0.666664l0.333336,-0.5" stroke="#808080" stroke-width="0.015625" fill="none"/><path d="M60.8333,67.5v0l0.333336,0.5h0.666664l0.333336,-0.5" stroke="#808080" stroke-width="0.015625" fill="none"/><path d="M60.8333,68.5v0l0.333336,0.5h0.666664l0.333336,-0.5" stroke="#808080" stroke-width="0.015625" fill="none"/><path d="M60.8333,69.5v0l0.333336,0.5h0.666664l0.333336,-0.5" stroke="#808080" stroke-width="0.015625" fill="none"/><path d="M60.8333,70.5v0l0.333336,0.5h0.666664l0.333336,-0.5" stroke="#808080" stroke-width="0.015625" fill="none"/><path d="M61.8333,59v0l0.333336,0.5h0.666664l0.333336,-0.5" stroke="#808080" stroke-width="0.015625" fill="none"/><path d="M61.8333,60v0l0.333336,0.5h0.666664l0.333336,-0.5" stroke="#808080" stroke-width="0.015625" fill="none"/><path d="M61.8333,61v0l0.333336,0.5h0.666664l0.333336,-0.5" stroke="#808080" stroke-width="0.015625" fill="none"/><path d="M61.8333,62v0l0.333336,0.5h0.666664l0.333336,-0.5" stroke="#808080" stroke-width="0.015625" fill="none"/><path d="M61.8333,63v0l0.333336,0.5h0.666664l0.333336,-0.5" stroke="#808080" stroke-width="0.015625" fill="none"/><path d="M61.8333,64v0l0.333336,0.5h0.666664l0.333336,-0.5" stroke="#808080" stroke-width="0.015625" fill="none"/><path d="M61.8333,65v0l0.333336,0.5h0.666664l0.333336,-0.5" stroke="#808080" stroke-width="0.015625" fill="none"/><path d="M61.8333,66v0l0.333336,0.5h0.666664l0.333336,-0.5" stroke="#808080" stroke-width="0.015625" fill="none"/><path d="M61.8333,67v0l0.333336,0.5h0.666664l0.333336,-0.5" stroke="#808080" stroke-width="0.015625" fill="none"/><path d="M61.8333,68v0l0.333336,0.5h0.666664l0.333336,-0.5" stroke="#808080" stroke-width="0.015625" fill="none"/><path d="M61.8333,69v0l0.333336,0.5h0.666664l0.333336,-0.5" stroke="#808080" stroke-width="0.015625" fill="none"/><path d="M61.8333,70v0l0.333336,0.5h0.666664l0.333336,-0.5" stroke="#808080" stroke-width="0.015625" fill="none"/><path d="M61.8333,71v0l0.333336,0.5h0.666664l0.333336,-0.5" stroke="#808080" stroke-width="0.015625" fill="none"/><path d="M62.8333,58.5v0l0.333336,0.5h0.666664l0.333332,-0.5" stroke="#808080" stroke-width="0.015625" fill="none"/><path d="M62.8333,59.5v0l0.333336,0.5h0.666664l0.333332,-0.5" stroke="#808080" stroke-width="0.015625" fill="none"/><path d="M62.8333,60.5v0l0.333336,0.5h0.666664l0.333332,-0.5" stroke="#808080" stroke-width="0.015625" fill="none"/><path d="M62.8333,61.5v0l0.333336,0.5h0.666664l0.333332,-0.5" stroke="#808080" stroke-width="0.015625" fill="none"/><path d="M62.8333,62.5v0l0.333336,0.5h0.666664l0.333332,-0.5" stroke="#808080" stroke-width="0.015625" fill="none"/><path d="M62.8333,63.5v0l0.333336,0.5h0.666664l0.333332,-0.5" stroke="#808080" stroke-width="0.015625" fill="none"/><path d="M62.8333,64.5v0l0.333336,0.5h0.666664l0.333332,-0.5" stroke="#808080" stroke-width="0.015625" fill="none"/><path d="M62.8333,65.5v0l0.333336,0.5h0.666664l0.333332,-0.5" stroke="#808080" stroke-width="0.015625" fill="none"/><path d="M62.8333,66.5v0l0.333336,0.5h0.666664l0.333332,-0.5" stroke="#808080" stroke-width="0.015625" fill="none"/><path d="M62.8333,67.5v0l0.333336,0.5h0.666664l0.333332,-0.5" stroke="#808080" stroke-width="0.015625" fill="none"/><path d="M62.8333,68.5v0l0.333336,0.5h0.666664l0.333332,-0.5" stroke="#808080" stroke-width="0.015625" fill="none"/><path d="M62.8333,69.5v0l0.333336,0.5h0.666664l0.333332,-0.5" stroke="#808080" stroke-width="0.015625" fill="none"/><path d="M62.8333,70.5v0l0.333336,0.5h0.666664l0.333332,-0.5" stroke="#808080" stroke-width="0.015625" fill="none"/><path clip-path="url(#did2)" d="M49.1667,81l-0.333336,-0.5l0.333336,-0.5h0.666664l0.333336,-0.5h0.666664l0.333336,-0.5h0.666664l0.333336,-0.5h0.666664l0.333336,-0.5h0.666664l0.333336,-0.5h0.666664l0.333336,0.5h0.666664l0.333336,0.5h0.666664l0.333336,-0.5h0.666664l0.333336,-0.5h0.666664l0.333336,0.5h0.666664l0.333336,0.5h0.666664l0.333336,0.5l-0.333336,0.5l0.333336,0.5h0.666664l0.333336,0.5h0.666664l0.333336,-0.5h0.666664l0.333332,0.5l-0.333332,0.5h-0.666664l-0.333336,0.5h-0.666664l-0.333336,-0.5h-0.666664l-0.333336,0.5h-0.666664l-0.333336,-0.5h-0.666664l-0.333336,0.5h-0.666664l-0.333336,-0.5h-0.666664l-0.333336,0.5h-0.666664l-0.333336,-0.5h-0.666664l-0.333336,0.5h-0.666664l-0.333336,-0.5h-0.666664l-0.333336,0.5h-0.666664l-0.333336,-0.5h-0.666664l-0.333336,0.5h-0.666664l-0.333336,-0.5Z" stroke="Orange" stroke-width="0.16" fill="none"/><path clip-path="url(#did3)" d="M30.1667,40.5l-0.333332,-0.5l0.333332,-0.5h0.666668l0.333332,-0.5h0.666668l0.333334,0.5h0.666664l0.333336,-0.5h0.666664l0.333336,0.5h0.666664l0.333336,-0.5h0.666664l0.333336,0.5h0.666664l0.333336,-0.5h0.666664l0.333336,0.5h0.666664l0.333336,-0.5h0.666664l0.333336,0.5h0.666664l0.333336,-0.5h0.666664l0.333336,0.5h0.666664l0.333336,-0.5h0.666664l0.333336,0.5h0.666664l0.333336,-0.5h0.666664l0.333336,0.5h0.666664l0.333336,-0.5h0.666664l0.333336,0.5h0.666664l0.333336,-0.5h0.666664l0.333336,0.5h0.666664l0.333336,-0.5h0.666664l0.333336,0.5h0.666664l0.333336,-0.5h0.666664l0.333336,0.5h0.666664l0.333336,-0.5h0.666664l0.333336,0.5h0.666664l0.333336,-0.5h0.666664l0.333336,0.5h0.666664l0.333336,-0.5h0.666664l0.333336,0.5h0.666664l0.333336,-0.5h0.666664l0.333336,0.5h0.666664l0.333336,-0.5h0.666664l0.333332,0.5l-0.333332,0.5l0.333332,0.5l-0.333332,0.5l0.333332,0.5l-0.333332,0.5l0.333332,0.5l-0.333332,0.5l0.333332,0.5l-0.333332,0.5h-0.666664l-0.333336,0.5l0.333336,0.5l-0.333336,0.5l0.333336,0.5l-0.333336,0.5h-0.666664l-0.333336,0.5l0.333336,0.5l-0.333336,0.5l0.333336,0.5l-0.333336,0.5l0.333336,0.5l-0.333336,0.5l0.333336,0.5l-0.333336,0.5l0.333336,0.5h0.666664l0.333336,0.5l-0.333336,0.5l0.333336,0.5l-0.333336,0.5h-0.666664l-0.333336,0.5h-0.666664l-0.333336,0.5l0.333336,0.5l-0.333336,0.5h-0.666664l-0.333336,0.5l0.333336,0.5l-0.333336,0.5h-0.666664l-0.333336,0.5l0.333336,0.5l-0.333336,0.5h-0.666664l-0.333336,0.5h-0.666664l-0.333336,0.5l0.333336,0.5l-0.333336,0.5l0.333336,0.5l-0.333336,0.5l0.333336,0.5h0.666664l0.333336,0.5h0.666664l0.333336,0.5h0.666664l0.333336,0.5l-0.333336,0.5l0.333336,0.5l-0.333336,0.5l0.333336,0.5h0.666664l0.333336,-0.5h0.666664l0.333336,-0.5h0.666664l0.333336,0.5l-0.333336,0.5h-0.666664l-0.333336,0.5h-0.666664l-0.333336,0.5l0.333336,0.5l-0.333336,0.5l0.333336,0.5h0.666664l0.333336,0.5h0.666664l0.333336,0.5l-0.333336,0.5h-0.666664l-0.333336,0.5h-0.666664l-0.333336,0.5h-0.666664l-0.333336,0.5l0.333336,0.5l-0.333336,0.5l0.333336,0.5l-0.333336,0.5l0.333336,0.5l-0.333336,0.5l0.333336,0.5l-0.333336,0.5h-0.666664l-0.333336,0.5h-0.666664l-0.333336,0.5h-0.666664l-0.333336,0.5h-0.666664l-0.333336,0.5l0.333336,0.5l-0.333336,0.5h-0.666664l-0.333336,-0.5h-0.666664l-0.333336,0.5h-0.666664l-0.333336,0.5h-0.666664l-0.333336,0.5h-0.666664l-0.333336,0.5h-0.666664l-0.333336,0.5h-0.666664l-0.333336,0.5l0.333336,0.5l-0.333336,0.5h-0.666664l-0.333336,-0.5h-0.666664l-0.333336,0.5h-0.666664l-0.333336,-0.5h-0.666664l-0.333336,0.5h-0.666664l-0.333336,-0.5h-0.666664l-0.333336,0.5h-0.666664l-0.333336,-0.5h-0.666664l-0.333336,0.5h-0.666664l-0.333336,-0.5h-0.666664l-0.333336,0.5h-0.666664l-0.333336,-0.5h-0.666664l-0.333336,0.5h-0.666664l-0.333336,-0.5h-0.666664l-0.333336,0.5h-0.666664l-0.333336,-0.5h-0.666664l-0.333336,0.5h-0.666664l-0.333334,-0.5h-0.666668l-0.333332,0.5h-0.666668l-0.333332,-0.5l0.333332,-0.5l-0.333332,-0.5l0.333332,-0.5l-0.333332,-0.5l0.333332,-0.5l-0.333332,-0.5l0.333332,-0.5l-0.333332,-0.5l0.333332,-0.5l-0.333332,-0.5l0.333332,-0.5l-0.333332,-0.5l0.333332,-0.5l-0.333332,-0.5l0.333332,-0.5l-0.333332,-0.5l0.333332,-0.5l-0.333332,-0.5l0.333332,-0.5l-0.333332,-0.5l0.333332,-0.5l-0.333332,-0.5l0.333332,-0.5l-0.333332,-0.5l0.333332,-0.5l-0.333332,-0.5l0.333332,-0.5l-0.333332,-0.5l0.333332,-0.5l-0.333332,-0.5l0.333332,-0.5l-0.333332,-0.5l0.333332,-0.5l-0.333332,-0.5l0.333332,-0.5l-0.333332,-0.5l0.333332,-0.5l-0.333332,-0.5l0.333332,-0.5l-0.333332,-0.5l0.333332,-0.5l-0.333332,-0.5l0.333332,-0.5l-0.333332,-0.5l0.333332,-0.5l-0.333332,-0.5l0.333332,-0.5l-0.333332,-0.5l0.333332,-0.5l-0.333332,-0.5l0.333332,-0.5l-0.333332,-0.5l0.333332,-0.5l-0.333332,-0.5l0.333332,-0.5l-0.333332,-0.5l0.333332,-0.5l-0.333332,-0.5l0.333332,-0.5l-0.333332,-0.5l0.333332,-0.5l-0.333332,-0.5l0.333332,-0.5l-0.333332,-0.5l0.333332,-0.5l-0.333332,-0.5l0.333332,-0.5l-0.333332,-0.5l0.333332,-0.5l-0.333332,-0.5l0.333332,-0.5l-0.333332,-0.5l0.333332,-0.5l-0.333332,-0.5l0.333332,-0.5l-0.333332,-0.5l0.333332,-0.5l-0.333332,-0.5l0.333332,-0.5l-0.333332,-0.5Z" stroke="#E32736" stroke-width="0.16" fill="none"/><line x1="51.75" y1="64.375" x2="55.25" y2="62.625" stroke="#048104" stroke-width="0.08"/><line x1="55.7835" y1="62.5473" x2="58.2165" y2="62.9528" stroke="#048104" stroke-width="0.08"/><line x1="56.6443" y1="67.7835" x2="57.3557" y2="66.7165" stroke="#048104" stroke-width="0.08"/><line x1="57.5693" y1="66.2573" x2="58.4307" y2="63.2427" stroke="#048104" stroke-width="0.08"/><line x1="53.7835" y1="68.4528" x2="56.2165" y2="68.0473" stroke="#048104" stroke-width="0.08"/><line x1="56.5" y1="68.25" x2="56.5" y2="70.75" stroke="#048104" stroke-width="0.08"/></g><g clip-path="url(#did4)"><text transform="translate(55.5,62.5) scale(1.1547 1)" font-family="Arial" font-size="0.14" text-anchor="middle" x="0" y="-0.381" fill="DarkGray">2523</text><text transform="translate(55.5,63.5) scale(1.1547 1)" font-family="Arial" font-size="0.14" text-anchor="middle" x="0" y="-0.381" fill="DarkGray">2524</text><text transform="translate(55.5,68.5) scale(1.1547 1)" font-family="Arial" font-size="0.14" text-anchor="middle" x="0" y="-0.381" fill="DarkGray">2529</text><text transform="translate(56.5,61) scale(1.1547 1)" font-family="Arial" font-size="0.14" text-anchor="middle" x="0" y="-0.381" fill="DarkGray">2621</text><text transform="translate(56.5,62) scale(1.1547 1)" font-family="Arial" font-size="0.14" text-anchor="middle" x="0" y="-0.381" fill="DarkGray">2622</text><text transform="translate(56.5,68) scale(1.1547 1)" font-family="Arial" font-size="0.14" text-anchor="middle" x="0" y="-0.381" fill="DarkGray">2628</text><text transform="translate(57.5,65.5) scale(1.1547 1)" font-family="Arial" font-size="0.14" text-anchor="middle" x="0" y="-0.381" fill="DarkGray">2726</text><text transform="translate(57.5,66.5) scale(1.1547 1)" font-family="Arial" font-size="0.14" text-anchor="middle" x="0" y="-0.381" fill="DarkGray">2727</text><text transform="translate(57.5,67.5) scale(1.1547 1)" font-family="Arial" font-size="0.14" text-anchor="middle" x="0" y="-0.381" fill="DarkGray">2728</text><text transform="translate(58.5,63) scale(1.1547 1)" font-family="Arial" font-size="0.14" text-anchor="middle" x="0" y="-0.381" fill="DarkGray">2823</text><text transform="translate(58.5,64) scale(1.1547 1)" font-family="Arial" font-size="0.14" text-anchor="middle" x="0" y="-0.381" fill="DarkGray">2824</text><text transform="translate(58.5,65) scale(1.1547 1)" font-family="Arial" font-size="0.14" text-anchor="middle" x="0" y="-0.381" fill="DarkGray">2825</text><g transform="translate(58.5,68) scale(1.1547 1)"><circle r="0.4" cx="0" cy="0" stroke="#FFCC00" stroke-width="0.05" fill="none"/><text font-family="Arial" font-size="0.14" text-anchor="middle" x="0" y="-0.381" fill="DarkGray">2828</text></g><text transform="translate(58.5,69) scale(1.1547 1)" font-family="Arial" font-size="0.14" text-anchor="middle" x="0" y="-0.381" fill="DarkGray">2829</text><text transform="translate(59.5,63.5) scale(1.1547 1)" font-family="Arial" font-size="0.14" text-anchor="middle" x="0" y="-0.381" fill="DarkGray">2924</text><text transform="translate(59.5,67.5) scale(1.1547 1)" font-family="Arial" font-size="0.14" text-anchor="middle" x="0" y="-0.381" fill="DarkGray">2928</text><text transform="translate(60.5,65) scale(1.1547 1)" font-family="Arial" font-size="0.14" text-anchor="middle" x="0" y="-0.381" fill="DarkGray">3025</text><text transform="translate(61.5,64.5) scale(1.1547 1)" font-family="Arial" font-size="0.14" text-anchor="middle" x="0" y="-0.381" fill="DarkGray">3125</text><text transform="translate(61.5,65.5) scale(1.1547 1)" font-family="Arial" font-size="0.14" text-anchor="middle" x="0" y="-0.381" fill="DarkGray">3126</text><text transform="translate(61.5,67.5) scale(1.1547 1)" font-family="Arial" font-size="0.14" text-anchor="middle" x="0" y="-0.381" fill="DarkGray">3128</text><text transform="translate(62.5,63) scale(1.1547 1)" font-family="Arial" font-size="0.14" text-anchor="middle" x="0" y="-0.381" fill="DarkGray">3223</text><text transform="translate(62.5,64) scale(1.1547 1)" font-family="Arial" font-size="0.14" text-anchor="middle" x="0" y="-0.381" fill="DarkGray">3224</text><text transform="translate(62.5,65) scale(1.1547 1)" font-family="Arial" font-size="0.14" text-anchor="middle" x="0" y="-0.381" fill="DarkGray">3225</text><text transform="translate(62.5,66) scale(1.1547 1)" font-family="Arial" font-size="0.14" text-anchor="middle" x="0" y="-0.381" fill="DarkGray">3226</text><g transform="translate(62.5,69) scale(1.1547 1)"><circle r="0.4" cx="0" cy="0" stroke="#FFCC00" stroke-width="0.05" fill="none"/><text font-family="Arial" font-size="0.14" text-anchor="middle" x="0" y="-0.381" fill="DarkGray">3229</text></g></g><g transform="translate(55.5,62.5) scale(1.1547 1)"><circle transform="translate(0.25,-0.18)" r="0.05" cx="0" cy="0" stroke="none" fill="Black"/><rect x="-0.113084" y="-0.35543" width="0.226167" height="0.260859" stroke="none" fill="White"/><text font-family="Arial" font-size="0.21" font-weight="bold" text-anchor="middle" x="0" y="-0.13575" fill="Black">A</text><circle r="0.1" cx="0" cy="0" stroke="Black" stroke-width="0.015625" fill="White"/><rect x="-0.443567" y="0.23957" width="0.887134" height="0.260859" stroke="none" fill="White"/><text font-family="Arial" font-size="0.21" font-weight="bold" text-anchor="middle" x="0" y="0.45925" fill="#E32736">USINEA</text></g><g transform="translate(55.5,63.5) scale(1.1547 1)"><circle transform="translate(0.25,-0.18)" r="0.05" cx="0" cy="0" stroke="none" fill="Black"/><rect x="-0.113084" y="-0.35543" width="0.226167" height="0.260859" stroke="none" fill="White"/><text font-family="Arial" font-size="0.21" font-weight="bold" text-anchor="middle" x="0" y="-0.13575" fill="Black">C</text><circle r="0.1" cx="0" cy="0" stroke="none" fill="DeepSkyBlue"/><rect x="-0.491863" y="0.23957" width="0.983726" height="0.260859" stroke="none" fill="White"/><text font-family="Arial" font-size="0.21" font-weight="bold" text-anchor="middle" x="0" y="0.45925" fill="Black">Vreeland</text></g><g transform="translate(55.5,68.5) scale(1.1547 1)"><circle transform="translate(0.25,-0.18)" r="0.05" cx="0" cy="0" stroke="none" fill="Black"/><rect x="-0.113084" y="-0.35543" width="0.226167" height="0.260859" stroke="none" fill="White"/><text font-family="Arial" font-size="0.21" font-weight="bold" text-anchor="middle" x="0" y="-0.13575" fill="Black">B</text><text font-family="Arial Unicode MS,Segoe UI Symbol,Arial" font-size="0.21" font-weight="bold" text-anchor="middle" x="-0.25" y="-0.09075" fill="Black">★</text><circle r="0.1" cx="0" cy="0" stroke="none" fill="DeepSkyBlue"/><rect x="-0.431826" y="0.23957" width="0.863652" height="0.260859" stroke="none" fill="White"/><text font-family="Arial" font-size="0.21" font-weight="bold" text-anchor="middle" x="0" y="0.45925" fill="Black">092-007</text></g><g transform="translate(56.5,61) scale(1.1547 1)"><circle transform="translate(0.25,-0.18)" r="0.05" cx="0" cy="0" stroke="none" fill="Black"/><rect x="-0.113084" y="-0.35543" width="0.226167" height="0.260859" stroke="none" fill="White"/><text font-family="Arial" font-size="0.21" font-weight="bold" text-anchor="middle" x="0" y="-0.13575" fill="Black">B</text><circle r="0.1" cx="0" cy="0" stroke="none" fill="DeepSkyBlue"/><rect x="-0.587993" y="0.23957" width="1.17599" height="0.260859" stroke="none" fill="White"/><text font-family="Arial" font-size="0.21" font-weight="bold" text-anchor="middle" x="0" y="0.45925" fill="Black">New Dakar</text></g><g transform="translate(56.5,62) scale(1.1547 1)"><circle transform="translate(0.25,-0.18)" r="0.05" cx="0" cy="0" stroke="none" fill="Black"/><rect x="-0.113084" y="-0.35543" width="0.226167" height="0.260859" stroke="none" fill="White"/><text font-family="Arial" font-size="0.21" font-weight="bold" text-anchor="middle" x="0" y="-0.13575" fill="Black">B</text><text font-family="Arial Unicode MS,Segoe UI Symbol,Arial" font-size="0.21" font-weight="bold" text-anchor="middle" x="-0.25" y="-0.09075" fill="Black">★</text><circle r="0.1" cx="0" cy="0" stroke="none" fill="DeepSkyBlue"/><rect x="-0.864131" y="0.23957" width="1.72826" height="0.260859" stroke="none" fill="White"/><text font-family="Arial" font-size="0.21" font-weight="bold" text-anchor="middle" x="0" y="0.45925" fill="Black">Vendtup Station</text></g><g transform="translate(56.5,68) scale(1.1547 1)"><rect x="-0.113084" y="-0.35543" width="0.226167" height="0.260859" stroke="none" fill="White"/><text font-family="Arial" font-size="0.21" font-weight="bold" text-anchor="middle" x="0" y="-0.13575" fill="Black">B</text><text font-family="Arial Unicode MS,Segoe UI Symbol,Arial" font-size="0.21" font-weight="bold" text-anchor="middle" x="-0.25" y="-0.09075" fill="Black">★</text><circle r="0.1" cx="0" cy="0" stroke="none" fill="DeepSkyBlue"/><rect x="-0.287451" y="0.23957" width="0.574902" height="0.260859" stroke="none" fill="White"/><text font-family="Arial" font-size="0.21" font-weight="bold" text-anchor="middle" x="0" y="0.45925" fill="Black">Porrl</text></g><g transform="translate(57.5,65.5) scale(1.1547 1)"><circle transform="translate(0.25,-0.18)" r="0.05" cx="0" cy="0" stroke="none" fill="Black"/><rect x="-0.113084" y="-0.35543" width="0.226167" height="0.260859" stroke="none" fill="White"/><text font-family="Arial" font-size="0.21" font-weight="bold" text-anchor="middle" x="0" y="-0.13575" fill="Black">C</text><text font-family="Arial Unicode MS,Segoe UI Symbol,Arial" font-size="0.21" font-weight="bold" text-anchor="middle" x="-0.35" y="0.08925" fill="#E32736">Δ</text><circle r="0.1" cx="0" cy="0" stroke="none" fill="DeepSkyBlue"/><rect x="-0.401577" y="0.23957" width="0.803154" height="0.260859" stroke="none" fill="White"/><text font-family="Arial" font-size="0.21" font-weight="bold" text-anchor="middle" x="0" y="0.45925" fill="Black">Lannor</text></g><g transform="translate(57.5,66.5) scale(1.1547 1)"><circle transform="translate(0.25,-0.18)" r="0.05" cx="0" cy="0" stroke="none" fill="Black"/><rect x="-0.113084" y="-0.35543" width="0.226167" height="0.260859" stroke="none" fill="White"/><text font-family="Arial" font-size="0.21" font-weight="bold" text-anchor="middle" x="0" y="-0.13575" fill="Black">B</text><text font-family="Arial Unicode MS,Segoe UI Symbol,Arial" font-size="0.21" font-weight="bold" text-anchor="middle" x="-0.25" y="-0.09075" fill="Black">★</text><text font-family="Arial Unicode MS,Segoe UI Symbol,Arial" font-size="0.21" font-weight="bold" text-anchor="middle" x="-0.25" y="0.26925" fill="Black">▲</text><circle r="0.1" cx="0" cy="0" stroke="none" fill="DeepSkyBlue"/><rect x="-0.617935" y="0.23957" width="1.23587" height="0.260859" stroke="none" fill="White"/><text font-family="Arial" font-size="0.21" font-weight="bold" text-anchor="middle" x="0" y="0.45925" fill="Black">Republicos</text></g><g transform="translate(57.5,67.5) scale(1.1547 1)"><circle transform="translate(0.25,-0.18)" r="0.05" cx="0" cy="0" stroke="none" fill="Black"/><rect x="-0.113084" y="-0.35543" width="0.226167" height="0.260859" stroke="none" fill="White"/><text font-family="Arial" font-size="0.21" font-weight="bold" text-anchor="middle" x="0" y="-0.13575" fill="Black">B</text><text font-family="Arial Unicode MS,Segoe UI Symbol,Arial" font-size="0.21" font-weight="bold" text-anchor="middle" x="-0.25" y="-0.09075" fill="Black">★</text><circle r="0.1" cx="0" cy="0" stroke="none" fill="DeepSkyBlue"/><rect x="-0.467612" y="0.23957" width="0.935225" height="0.260859" stroke="none" fill="White"/><text font-family="Arial" font-size="0.21" font-weight="bold" text-anchor="middle" x="0" y="0.45925" fill="Black">Vendtup</text></g><g transform="translate(58.5,63) scale(1.1547 1)"><circle transform="translate(0.25,-0.18)" r="0.05" cx="0" cy="0" stroke="none" fill="Black"/><rect x="-0.113084" y="-0.35543" width="0.226167" height="0.260859" stroke="none" fill="White"/><text font-family="Arial" font-size="0.21" font-weight="bold" text-anchor="middle" x="0" y="-0.13575" fill="Black">B</text><text font-family="Arial Unicode MS,Segoe UI Symbol,Arial" font-size="0.21" font-weight="bold" text-anchor="middle" x="-0.25" y="-0.09075" fill="Black">★</text><text font-family="Arial Unicode MS,Segoe UI Symbol,Arial" font-size="0.21" font-weight="bold" text-anchor="middle" x="-0.25" y="0.26925" fill="Black">▲</text><circle r="0.1" cx="0" cy="0" stroke="none" fill="DeepSkyBlue"/><rect x="-0.395579" y="0.23957" width="0.791157" height="0.260859" stroke="none" fill="White"/><text font-family="Arial" font-size="0.21" font-weight="bold" text-anchor="middle" x="0" y="0.45925" fill="Black">Albach</text></g><g transform="translate(58.5,64) scale(1.1547 1)"><circle transform="translate(0.25,-0.18)" r="0.05" cx="0" cy="0" stroke="none" fill="Black"/><rect x="-0.113084" y="-0.35543" width="0.226167" height="0.260859" stroke="none" fill="White"/><text font-family="Arial" font-size="0.21" font-weight="bold" text-anchor="middle" x="0" y="-0.13575" fill="Black">C</text><text font-family="Arial Unicode MS,Segoe UI Symbol,Arial" font-size="0.21" font-weight="bold" text-anchor="middle" x="-0.25" y="0.26925" fill="Black">▲</text><circle r="0.1" cx="0" cy="0" stroke="Black" stroke-width="0.015625" fill="White"/><rect x="-0.575791" y="0.23957" width="1.15158" height="0.260859" stroke="none" fill="White"/><text font-family="Arial" font-size="0.21" font-weight="bold" text-anchor="middle" x="0" y="0.45925" fill="Black">Burncloud</text></g><g transform="translate(58.5,65) scale(1.1547 1)"><circle transform="translate(0.25,-0.18)" r="0.05" cx="0" cy="0" stroke="none" fill="Black"/><rect x="-0.113084" y="-0.35543" width="0.226167" height="0.260859" stroke="none" fill="White"/><text font-family="Arial" font-size="0.21" font-weight="bold" text-anchor="middle" x="0" y="-0.13575" fill="Black">B</text><circle r="0.1" cx="0" cy="0" stroke="none" fill="DeepSkyBlue"/><rect x="-0.275454" y="0.23957" width="0.550908" height="0.260859" stroke="none" fill="White"/><text font-family="Arial" font-size="0.21" font-weight="bold" text-anchor="middle" x="0" y="0.45925" fill="Black">Ayra</text></g><g transform="translate(58.5,68) scale(1.1547 1)"><rect x="-0.107136" y="-0.35543" width="0.214273" height="0.260859" stroke="none" fill="White"/><text font-family="Arial" font-size="0.21" font-weight="bold" text-anchor="middle" x="0" y="-0.13575" fill="Black">E</text><circle r="0.1" cx="0" cy="0" stroke="none" fill="DeepSkyBlue"/><rect x="-0.503604" y="0.23957" width="1.00721" height="0.260859" stroke="none" fill="White"/><text font-family="Arial" font-size="0.21" font-weight="bold" text-anchor="middle" x="0" y="0.45925" fill="Black">SCORCH</text></g><g transform="translate(58.5,69) scale(1.1547 1)"><circle transform="translate(0.25,-0.18)" r="0.05" cx="0" cy="0" stroke="none" fill="Black"/><rect x="-0.107136" y="-0.35543" width="0.214273" height="0.260859" stroke="none" fill="White"/><text font-family="Arial" font-size="0.21" font-weight="bold" text-anchor="middle" x="0" y="-0.13575" fill="Black">E</text><circle r="0.1" cx="0" cy="0" stroke="Black" stroke-width="0.015625" fill="White"/><rect x="-0.569792" y="0.23957" width="1.13959" height="0.260859" stroke="none" fill="White"/><text font-family="Arial" font-size="0.21" font-weight="bold" text-anchor="middle" x="0" y="0.45925" fill="Black">Cold Rock</text></g><g transform="translate(59.5,63.5) scale(1.1547 1)"><circle transform="translate(0.25,-0.18)" r="0.05" cx="0" cy="0" stroke="none" fill="Black"/><rect x="-0.113084" y="-0.35543" width="0.226167" height="0.260859" stroke="none" fill="White"/><text font-family="Arial" font-size="0.21" font-weight="bold" text-anchor="middle" x="0" y="-0.13575" fill="Black">B</text><circle r="0.1" cx="0" cy="0" stroke="none" fill="DeepSkyBlue"/><rect x="-0.329492" y="0.23957" width="0.658984" height="0.260859" stroke="none" fill="White"/><text font-family="Arial" font-size="0.21" font-weight="bold" text-anchor="middle" x="0" y="0.45925" fill="Black">Reine</text></g><g transform="translate(59.5,67.5) scale(1.1547 1)"><circle transform="translate(0.25,-0.18)" r="0.05" cx="0" cy="0" stroke="none" fill="Black"/><rect x="-0.113084" y="-0.35543" width="0.226167" height="0.260859" stroke="none" fill="White"/><text font-family="Arial" font-size="0.21" font-weight="bold" text-anchor="middle" x="0" y="-0.13575" fill="Black">C</text><text font-family="Arial Unicode MS,Segoe UI Symbol,Arial" font-size="0.21" font-weight="bold" text-anchor="middle" x="-0.25" y="0.26925" fill="Black">▲</text><circle r="0.1" cx="0" cy="0" stroke="none" fill="DeepSkyBlue"/><rect x="-0.383582" y="0.23957" width="0.767163" height="0.260859" stroke="none" fill="White"/><text font-family="Arial" font-size="0.21" font-weight="bold" text-anchor="middle" x="0" y="0.45925" fill="Black">Olorna</text></g><g transform="translate(60.5,65) scale(1.1547 1)"><circle transform="translate(0.25,-0.18)" r="0.05" cx="0" cy="0" stroke="none" fill="Black"/><rect x="-0.113084" y="-0.35543" width="0.226167" height="0.260859" stroke="none" fill="White"/><text font-family="Arial" font-size="0.21" font-weight="bold" text-anchor="middle" x="0" y="-0.13575" fill="Black">A</text><circle r="0.1" cx="0" cy="0" stroke="Black" stroke-width="0.015625" fill="White"/><rect x="-0.401526" y="0.23957" width="0.803052" height="0.260859" stroke="none" fill="White"/><text font-family="Arial" font-size="0.21" font-weight="bold" text-anchor="middle" x="0" y="0.45925" fill="Black">Chapet</text><text font-family="Arial" font-size="0.14" text-anchor="middle" x="0.25" y="0.2395" fill="Black">NaHu</text></g><g transform="translate(61.5,64.5) scale(1.1547 1)"><circle transform="translate(0.25,-0.18)" r="0.05" cx="0" cy="0" stroke="none" fill="Black"/><rect x="-0.113084" y="-0.35543" width="0.226167" height="0.260859" stroke="none" fill="White"/><text font-family="Arial" font-size="0.21" font-weight="bold" text-anchor="middle" x="0" y="-0.13575" fill="Black">B</text><circle r="0.1" cx="0" cy="0" stroke="Black" stroke-width="0.015625" fill="White"/><rect x="-0.545747" y="0.23957" width="1.09149" height="0.260859" stroke="none" fill="White"/><text font-family="Arial" font-size="0.21" font-weight="bold" text-anchor="middle" x="0" y="0.45925" fill="Black">New Titan</text><text font-family="Arial" font-size="0.14" text-anchor="middle" x="0.25" y="0.2395" fill="Black">NaHu</text></g><g transform="translate(61.5,65.5) scale(1.1547 1)"><circle transform="translate(0.25,-0.18)" r="0.05" cx="0" cy="0" stroke="none" fill="Black"/><rect x="-0.113084" y="-0.35543" width="0.226167" height="0.260859" stroke="none" fill="White"/><text font-family="Arial" font-size="0.21" font-weight="bold" text-anchor="middle" x="0" y="-0.13575" fill="Black">C</text><circle r="0.1" cx="0" cy="0" stroke="none" fill="DeepSkyBlue"/><rect x="-0.455667" y="0.23957" width="0.911333" height="0.260859" stroke="none" fill="White"/><text font-family="Arial" font-size="0.21" font-weight="bold" text-anchor="middle" x="0" y="0.45925" fill="Black">Neuruhr</text></g><g transform="translate(61.5,67.5) scale(1.1547 1)"><circle transform="translate(0.25,-0.18)" r="0.05" cx="0" cy="0" stroke="none" fill="Black"/><rect x="-0.113084" y="-0.35543" width="0.226167" height="0.260859" stroke="none" fill="White"/><text font-family="Arial" font-size="0.21" font-weight="bold" text-anchor="middle" x="0" y="-0.13575" fill="Black">A</text><circle r="0.1" cx="0" cy="0" stroke="none" fill="DeepSkyBlue"/><rect x="-0.407576" y="0.23957" width="0.815151" height="0.260859" stroke="none" fill="White"/><text font-family="Arial" font-size="0.21" font-weight="bold" text-anchor="middle" x="0" y="0.45925" fill="Black">Portine</text><text font-family="Arial" font-size="0.14" text-anchor="middle" x="0.25" y="0.2395" fill="Black">NaHu</text></g><g transform="translate(62.5,63) scale(1.1547 1)"><circle transform="translate(0.25,-0.18)" r="0.05" cx="0" cy="0" stroke="none" fill="Black"/><rect x="-0.113084" y="-0.35543" width="0.226167" height="0.260859" stroke="none" fill="White"/><text font-family="Arial" font-size="0.21" font-weight="bold" text-anchor="middle" x="0" y="-0.13575" fill="Black">A</text><circle r="0.1" cx="0" cy="0" stroke="none" fill="DeepSkyBlue"/><rect x="-0.648132" y="0.23957" width="1.29627" height="0.260859" stroke="none" fill="White"/><text font-family="Arial" font-size="0.21" font-weight="bold" text-anchor="middle" x="0" y="0.45925" fill="Black">En Liverech</text><text font-family="Arial" font-size="0.14" text-anchor="middle" x="0.25" y="0.2395" fill="Black">NaHu</text></g><g transform="translate(62.5,64) scale(1.1547 1)"><circle transform="translate(0.25,-0.18)" r="0.05" cx="0" cy="0" stroke="none" fill="Black"/><rect x="-0.113084" y="-0.35543" width="0.226167" height="0.260859" stroke="none" fill="White"/><text font-family="Arial" font-size="0.21" font-weight="bold" text-anchor="middle" x="0" y="-0.13575" fill="Black">C</text><circle r="0.1" cx="0" cy="0" stroke="none" fill="DeepSkyBlue"/><rect x="-0.39563" y="0.23957" width="0.79126" height="0.260859" stroke="none" fill="White"/><text font-family="Arial" font-size="0.21" font-weight="bold" text-anchor="middle" x="0" y="0.45925" fill="Black">Lorsch</text><text font-family="Arial" font-size="0.14" text-anchor="middle" x="0.25" y="0.2395" fill="Black">NaHu</text></g><g transform="translate(62.5,65) scale(1.1547 1)"><circle transform="translate(0.25,-0.18)" r="0.05" cx="0" cy="0" stroke="none" fill="Black"/><rect x="-0.113084" y="-0.35543" width="0.226167" height="0.260859" stroke="none" fill="White"/><text font-family="Arial" font-size="0.21" font-weight="bold" text-anchor="middle" x="0" y="-0.13575" fill="Black">A</text><circle r="0.1" cx="0" cy="0" stroke="none" fill="DeepSkyBlue"/><rect x="-0.359587" y="0.23957" width="0.719175" height="0.260859" stroke="none" fill="White"/><text font-family="Arial" font-size="0.21" font-weight="bold" text-anchor="middle" x="0" y="0.45925" fill="Black">Haven</text></g><g transform="translate(62.5,66) scale(1.1547 1)"><circle transform="translate(0.25,-0.18)" r="0.05" cx="0" cy="0" stroke="none" fill="Black"/><rect x="-0.113084" y="-0.35543" width="0.226167" height="0.260859" stroke="none" fill="White"/><text font-family="Arial" font-size="0.21" font-weight="bold" text-anchor="middle" x="0" y="-0.13575" fill="Black">A</text><circle r="0.1" cx="0" cy="0" stroke="none" fill="DeepSkyBlue"/><rect x="-0.413574" y="0.23957" width="0.827148" height="0.260859" stroke="none" fill="White"/><text font-family="Arial" font-size="0.21" font-weight="bold" text-anchor="middle" x="0" y="0.45925" fill="Black">Curuna</text><text font-family="Arial" font-size="0.14" text-anchor="middle" x="0.25" y="0.2395" fill="Black">NaHu</text></g><g transform="translate(62.5,69) scale(1.1547 1)"><rect x="-0.113084" y="-0.35543" width="0.226167" height="0.260859" stroke="none" fill="White"/><text font-family="Arial" font-size="0.21" font-weight="bold" text-anchor="middle" x="0" y="-0.13575" fill="Black">A</text><circle r="0.1" cx="0" cy="0" stroke="none" fill="DeepSkyBlue"/><rect x="-0.377532" y="0.23957" width="0.755064" height="0.260859" stroke="none" fill="White"/><text font-family="Arial" font-size="0.21" font-weight="bold" text-anchor="middle" x="0" y="0.45925" fill="Black">Urbain</text></g></g></svg>