<?xml version = "1.0" encoding="utf-8"?>
<svg version="1.1" baseProfile="full" xmlns="http://www.w3.org/2000/svg" xmlns:xlink="http://www.w3.org/1999/xlink" width="471" height="684" viewBox="0 0 471 684" clip="0 471 0 684"><defs><clipPath id="did1"><rect x="-17.25" y="69.9" width="8.5" height="10.7"/></clipPath><clipPath id="did2"><path d="M-33.8333,71.5l-0.333336,-0.5l0.333336,-0.5l-0.333336,-0.5l0.333336,-0.5l-0.333336,-0.5l0.333336,-0.5l-0.333336,-0.5l0.333336,-0.5l-0.333336,-0.5l0.333336,-0.5l-0.333336,-0.5l0.333336,-0.5l-0.333336,-0.5l0.333336,-0.5l-0.333336,-0.5l0.333336,-0.5l-0.333336,-0.5l0.333336,-0.5l-0.333336,-0.5l0.333336,-0.5l-0.333336,-0.5l0.333336,-0.5l-0.333336,-0.5l0.333336,-0.5l-0.333336,-0.5l0.333336,-0.5l-0.333336,-0.5l0.333336,-0.5l-0.333336,-0.5l0.333336,-0.5l-0.333336,-0.5l0.333336,-0.5l-0.333336,-0.5l0.333336,-0.5l-0.333336,-0.5l0.333336,-0.5l-0.333336,-0.5l0.333336,-0.5l-0.333336,-0.5l0.333336,-0.5l-0.333336,-0.5l0.333336,-0.5l-0.333336,-0.5l0.333336,-0.5l-0.333336,-0.5l0.333336,-0.5l-0.333336,-0.5l0.333336,-0.5l-0.333336,-0.5l0.333336,-0.5h0.666664l0.333336,0.5l-0.333336,0.5l0.333336,0.5l-0.333336,0.5l0.333336,0.5h0.666664l0.333334,-0.5h0.666668l0.333332,-0.5h0.666668l0.333332,-0.5h0.666668l0.333332,-0.5l-0.333332,-0.5l0.333332,-0.5h0.666668l0.333332,-0.5h0.666668l0.333332,-0.5l-0.333332,-0.5l0.333332,-0.5h0.666668l0.333332,-0.5h0.666668l0.333332,-0.5h0.666668l0.333332,-0.5h0.666668l0.333332,-0.5l-0.333332,-0.5l0.333332,-0.5l-0.333332,-0.5l0.333332,-0.5h0.666668l0.333332,0.5h0.666668l0.333332,0.5h0.666668l0.333332,0.5h0.666668l0.333332,-0.5h0.666668l0.333332,0.5h0.666668l0.333332,-0.5h0.666668l0.333333,-0.5l-0.333333,-0.5l0.333333,-0.5h0.666666l0.333334,-0.5h0.666666l0.333334,0.5h0.666666l0.333334,-0.5h0.666666l0.333334,0.5h0.666666l0.333334,-0.5h0.666666l0.333334,0.5h0.666666l0.333334,-0.5h0.666666l0.333334,0.5h0.666667l0.333333,-0.5h0.666667l0.333333,0.5h0.666667l0.333333,-0.5h0.666667l0.333333,0.5h0.666667l0.333334,-0.5h0.666667l0.333334,0.5h0.666667l0.333333,-0.5h0.666667l0.333333,0.5l-0.333333,0.5l0.333333,0.5l-0.333333,0.5l0.333333,0.5l-0.333333,0.5l0.333333,0.5l-0.333333,0.5l0.333333,0.5l-0.333333,0.5l0.333333,0.5l-0.333333,0.5l0.333333,0.5l-0.333333,0.5l0.333333,0.5l-0.333333,0.5l0.333333,0.5l-0.333333,0.5l0.333333,0.5l-0.333333,0.5l0.333333,0.5l-0.333333,0.5l0.333333,0.5l-0.333333,0.5l0.333333,0.5l-0.333333,0.5l0.333333,0.5l-0.333333,0.5l0.333333,0.5l-0.333333,0.5l0.333333,0.5l-0.333333,0.5l0.333333,0.5l-0.333333,0.5l0.333333,0.5l-0.333333,0.5l0.333333,0.5l-0.333333,0.5l0.333333,0.5l-0.333333,0.5l0.333333,0.5l-0.333333,0.5l0.333333,0.5l-0.333333,0.5l0.333333,0.5l-0.333333,0.5l0.333333,0.5l-0.333333,0.5l0.333333,0.5l-0.333333,0.5l0.333333,0.5l-0.333333,0.5l0.333333,0.5l-0.333333,0.5l0.333333,0.5l-0.333333,0.5l0.333333,0.5l-0.333333,0.5l0.333333,0.5l-0.333333,0.5l0.333333,0.5l-0.333333,0.5l0.333333,0.5l-0.333333,0.5l0.333333,0.5l-0.333333,0.5l0.333333,0.5l-0.333333,0.5l0.333333,0.5l-0.333333,0.5l0.333333,0.5l-0.333333,0.5l0.333333,0.5l-0.333333,0.5l0.333333,0.5l-0.333333,0.5l0.333333,0.5l-0.333333,0.5l0.333333,0.5l-0.333333,0.5l0.333333,0.5l-0.333333,0.5l0.333333,0.5l-0.333333,0.5h-0.666667l-0.333333,0.5h-0.666667l-0.333334,-0.5h-0.666667l-0.333334,0.5h-0.666667l-0.333333,-0.5h-0.666667l-0.333333,0.5h-0.666667l-0.333333,-0.5h-0.666667l-0.333333,0.5h-0.666667l-0.333334,-0.5h-0.666666l-0.333334,0.5h-0.666666l-0.333334,-0.5h-0.666666l-0.333334,0.5h-0.666666l-0.333334,-0.5h-0.666666l-0.333334,0.5h-0.666666l-0.333334,-0.5h-0.666666l-0.333334,0.5h-0.666666l-0.333333,-0.5h-0.666668l-0.333332,0.5h-0.666668l-0.333332,-0.5h-0.666668l-0.333332,-0.5h-0.666668l-0.333332,-0.5l0.333332,-0.5l-0.333332,-0.5h-0.666668l-0.333332,-0.5h-0.666668l-0.333332,-0.5l0.333332,-0.5l-0.333332,-0.5l0.333332,-0.5l-0.333332,-0.5l0.333332,-0.5l-0.333332,-0.5h-0.666668l-0.333332,-0.5h-0.666668l-0.333332,-0.5h-0.666668l-0.333332,-0.5h-0.666668l-0.333332,0.5h-0.666668l-0.333332,0.5h-0.666668l-0.333332,0.5h-0.666668l-0.333332,0.5h-0.666668l-0.333332,-0.5h-0.666668l-0.333332,-0.5l0.333332,-0.5l-0.333332,-0.5h-0.666668l-0.333334,-0.5h-0.666664l-0.333336,-0.5h-0.666664l-0.333336,-0.5Z"/></clipPath><clipPath id="did3"><path d="M-33.8333,76.5l-0.333336,-0.5l0.333336,-0.5h0.666664l0.333336,-0.5h0.666664l0.333334,0.5h0.666668l0.333332,0.5h0.666668l0.333332,-0.5h0.666668l0.333332,-0.5h0.666668l0.333332,0.5h0.666668l0.333332,-0.5h0.666668l0.333332,0.5h0.666668l0.333332,0.5h0.666668l0.333332,0.5h0.666668l0.333332,-0.5h0.666668l0.333332,0.5l-0.333332,0.5l0.333332,0.5l-0.333332,0.5h-0.666668l-0.333332,0.5l0.333332,0.5h0.666668l0.333332,0.5l-0.333332,0.5l0.333332,0.5l-0.333332,0.5h-0.666668l-0.333332,0.5h-0.666668l-0.333332,-0.5h-0.666668l-0.333332,0.5h-0.666668l-0.333332,-0.5h-0.666668l-0.333332,0.5h-0.666668l-0.333332,-0.5h-0.666668l-0.333332,0.5h-0.666668l-0.333332,-0.5h-0.666668l-0.333332,0.5h-0.666668l-0.333334,-0.5h-0.666664l-0.333336,0.5h-0.666664l-0.333336,-0.5l0.333336,-0.5l-0.333336,-0.5l0.333336,-0.5l-0.333336,-0.5l0.333336,-0.5l-0.333336,-0.5l0.333336,-0.5l-0.333336,-0.5Z"/></clipPath><clipPath id="did4"><path d="M-32.8333,79l-0.333336,-0.5l0.333336,-0.5h0.666664l0.333334,0.5l-0.333334,0.5Z"/></clipPath><clipPath id="did5"><rect x="-17.25" y="69.9" width="8.5" height="10.7"/></clipPath><clipPath id="did6"><rect x="-17.25" y="69.9" width="8.5" height="10.7"/></clipPath></defs><g fill="None" stroke="None" transform="matrix(1,0,0,1,0,0) matrix(55.4256,0,0,64,956.092,-4473.6)"><g clip-path="url(#did1)"><rect x="-18.1" y="68.83" width="10.2" height="12.84" stroke="none" fill="White"/><path d="M-19.1667,68.5v0l0.333332,0.5h0.666668l0.333332,-0.5" stroke="#808080" stroke-width="0.015625" fill="none"/><path d="M-19.1667,69.5v0l0.333332,0.5h0.666668l0.333332,-0.5" stroke="#808080" stroke-width="0.015625" fill="none"/><path d="M-19.1667,70.5v0l0.333332,0.5h0.666668l0.333332,-0.5" stroke="#808080" stroke-width="0.015625" fill="none"/><path d="M-19.1667,71.5v0l0.333332,0.5h0.666668l0.333332,-0.5" stroke="#808080" stroke-width="0.015625" fill="none"/><path d="M-19.1667,72.5v0l0.333332,0.5h0.666668l0.333332,-0.5" stroke="#808080" stroke-width="0.015625" fill="none"/><path d="M-19.1667,73.5v0l0.333332,0.5h0.666668l0.333332,-0.5" stroke="#808080" stroke-width="0.015625" fill="none"/><path d="M-19.1667,74.5v0l0.333332,0.5h0.666668l0.333332,-0.5" stroke="#808080" stroke-width="0.015625" fill="none"/><path d="M-19.1667,75.5v0l0.333332,0.5h0.666668l0.333332,-0.5" stroke="#808080" stroke-width="0.015625" fill="none"/><path d="M-19.1667,76.5v0l0.333332,0.5h0.666668l0.333332,-0.5" stroke="#808080" stroke-width="0.015625" fill="none"/><path d="M-19.1667,77.5v0l0.333332,0.5h0.666668l0.333332,-0.5" stroke="#808080" stroke-width="0.015625" fill="none"/><path d="M-19.1667,78.5v0l0.333332,0.5h0.666668l0.333332,-0.5" stroke="#808080" stroke-width="0.015625" fill="none"/><path d="M-19.1667,79.5v0l0.333332,0.5h0.666668l0.333332,-0.5" stroke="#808080" stroke-width="0.015625" fill="none"/><path d="M-19.1667,80.5v0l0.333332,0.5h0.666668l0.333332,-0.5" stroke="#808080" stroke-width="0.015625" fill="none"/><path d="M-18.1667,69v0l0.333332,0.5h0.666668l0.333332,-0.5" stroke="#808080" stroke-width="0.015625" fill="none"/><path d="M-18.1667,70v0l0.333332,0.5h0.666668l0.333332,-0.5" stroke="#808080" stroke-width="0.015625" fill="none"/><path d="M-18.1667,71v0l0.333332,0.5h0.666668l0.333332,-0.5" stroke="#808080" stroke-width="0.015625" fill="none"/><path d="M-18.1667,72v0l0.333332,0.5h0.666668l0.333332,-0.5" stroke="#808080" stroke-width="0.015625" fill="none"/><path d="M-18.1667,73v0l0.333332,0.5h0.666668l0.333332,-0.5" stroke="#808080" stroke-width="0.015625" fill="none"/><path d="M-18.1667,74v0l0.333332,0.5h0.666668l0.333332,-0.5" stroke="#808080" stroke-width="0.015625" fill="none"/><path d="M-18.1667,75v0l0.333332,0.5h0.666668l0.333332,-0.5" stroke="#808080" stroke-width="0.015625" fill="none"/><path d="M-18.1667,76v0l0.333332,0.5h0.666668l0.333332,-0.5" stroke="#808080" stroke-width="0.015625" fill="none"/><path d="M-18.1667,77v0l0.333332,0.5h0.666668l0.333332,-0.5" stroke="#808080" stroke-width="0.015625" fill="none"/><path d="M-18.1667,78v0l0.333332,0.5h0.666668l0.333332,-0.5" stroke="#808080" stroke-width="0.015625" fill="none"/><path d="M-18.1667,79v0l0.333332,0.5h0.666668l0.333332,-0.5" stroke="#808080" stroke-width="0.015625" fill="none"/><path d="M-18.1667,80v0l0.333332,0.5h0.666668l0.333332,-0.5" stroke="#808080" stroke-width="0.015625" fill="none"/><path d="M-18.1667,81v0l0.333332,0.5h0.666668l0.333332,-0.5" stroke="#808080" stroke-width="0.015625" fill="none"/><path d="M-17.1667,68.5v0l0.333332,0.5h0.666668l0.333333,-0.5" stroke="#808080" stroke-width="0.015625" fill="none"/><path d="M-17.1667,69.5v0l0.333332,0.5h0.666668l0.333333,-0.5" stroke="#808080" stroke-width="0.015625" fill="none"/><path d="M-17.1667,70.5v0l0.333332,0.5h0.666668l0.333333,-0.5" stroke="#808080" stroke-width="0.015625" fill="none"/><path d="M-17.1667,71.5v0l0.333332,0.5h0.666668l0.333333,-0.5" stroke="#808080" stroke-width="0.015625" fill="none"/><path d="M-17.1667,72.5v0l0.333332,0.5h0.666668l0.333333,-0.5" stroke="#808080" stroke-width="0.015625" fill="none"/><path d="M-17.1667,73.5v0l0.333332,0.5h0.666668l0.333333,-0.5" stroke="#808080" stroke-width="0.015625" fill="none"/><path d="M-17.1667,74.5v0l0.333332,0.5h0.666668l0.333333,-0.5" stroke="#808080" stroke-width="0.015625" fill="none"/><path d="M-17.1667,75.5v0l0.333332,0.5h0.666668l0.333333,-0.5" stroke="#808080" stroke-width="0.015625" fill="none"/><path d="M-17.1667,76.5v0l0.333332,0.5h0.666668l0.333333,-0.5" stroke="#808080" stroke-width="0.015625" fill="none"/><path d="M-17.1667,77.5v0l0.333332,0.5h0.666668l0.333333,-0.5" stroke="#808080" stroke-width="0.015625" fill="none"/><path d="M-17.1667,78.5v0l0.333332,0.5h0.666668l0.333333,-0.5" stroke="#808080" stroke-width="0.015625" fill="none"/><path d="M-17.1667,79.5v0l0.333332,0.5h0.666668l0.333333,-0.5" stroke="#808080" stroke-width="0.015625" fill="none"/><path d="M-17.1667,80.5v0l0.333332,0.5h0.666668l0.333333,-0.5" stroke="#808080" stroke-width="0.015625" fill="none"/><path d="M-16.1667,69v0l0.333333,0.5h0.666666l0.333334,-0.5" stroke="#808080" stroke-width="0.015625" fill="none"/><path d="M-16.1667,70v0l0.333333,0.5h0.666666l0.333334,-0.5" stroke="#808080" stroke-width="0.015625" fill="none"/><path d="M-16.1667,71v0l0.333333,0.5h0.666666l0.333334,-0.5" stroke="#808080" stroke-width="0.015625" fill="none"/><path d="M-16.1667,72v0l0.333333,0.5h0.666666l0.333334,-0.5" stroke="#808080" stroke-width="0.015625" fill="none"/><path d="M-16.1667,73v0l0.333333,0.5h0.666666l0.333334,-0.5" stroke="#808080" stroke-width="0.015625" fill="none"/><path d="M-16.1667,74v0l0.333333,0.5h0.666666l0.333334,-0.5" stroke="#808080" stroke-width="0.015625" fill="none"/><path d="M-16.1667,75v0l0.333333,0.5h0.666666l0.333334,-0.5" stroke="#808080" stroke-width="0.015625" fill="none"/><path d="M-16.1667,76v0l0.333333,0.5h0.666666l0.333334,-0.5" stroke="#808080" stroke-width="0.015625" fill="none"/><path d="M-16.1667,77v0l0.333333,0.5h0.666666l0.333334,-0.5" stroke="#808080" stroke-width="0.015625" fill="none"/><path d="M-16.1667,78v0l0.333333,0.5h0.666666l0.333334,-0.5" stroke="#808080" stroke-width="0.015625" fill="none"/><path d="M-16.1667,79v0l0.333333,0.5h0.666666l0.333334,-0.5" stroke="#808080" stroke-width="0.015625" fill="none"/><path d="M-16.1667,80v0l0.333333,0.5h0.666666l0.333334,-0.5" stroke="#808080" stroke-width="0.015625" fill="none"/><path d="M-16.1667,81v0l0.333333,0.5h0.666666l0.333334,-0.5" stroke="#808080" stroke-width="0.015625" fill="none"/><path d="M-15.1667,68.5v0l0.333334,0.5h0.666666l0.333334,-0.5" stroke="#808080" stroke-width="0.015625" fill="none"/><path d="M-15.1667,69.5v0l0.333334,0.5h0.666666l0.333334,-0.5" stroke="#808080" stroke-width="0.015625" fill="none"/><path d="M-15.1667,70.5v0l0.333334,0.5h0.666666l0.333334,-0.5" stroke="#808080" stroke-width="0.015625" fill="none"/><path d="M-15.1667,71.5v0l0.333334,0.5h0.666666l0.333334,-0.5" stroke="#808080" stroke-width="0.015625" fill="none"/><path d="M-15.1667,72.5v0l0.333334,0.5h0.666666l0.333334,-0.5" stroke="#808080" stroke-width="0.015625" fill="none"/><path d="M-15.1667,73.5v0l0.333334,0.5h0.666666l0.333334,-0.5" stroke="#808080" stroke-width="0.015625" fill="none"/><path d="M-15.1667,74.5v0l0.333334,0.5h0.666666l0.333334,-0.5" stroke="#808080" stroke-width="0.015625" fill="none"/><path d="M-15.1667,75.5v0l0.333334,0.5h0.666666l0.333334,-0.5" stroke="#808080" stroke-width="0.015625" fill="none"/><path d="M-15.1667,76.5v0l0.333334,0.5h0.666666l0.333334,-0.5" stroke="#808080" stroke-width="0.015625" fill="none"/><path d="M-15.1667,77.5v0l0.333334,0.5h0.666666l0.333334,-0.5" stroke="#808080" stroke-width="0.015625" fill="none"/><path d="M-15.1667,78.5v0l0.333334,0.5h0.666666l0.333334,-0.5" stroke="#808080" stroke-width="0.015625" fill="none"/><path d="M-15.1667,79.5v0l0.333334,0.5h0.666666l0.333334,-0.5" stroke="#808080" stroke-width="0.015625" fill="none"/><path d="M-15.1667,80.5v0l0.333334,0.5h0.666666l0.333334,-0.5" stroke="#808080" stroke-width="0.015625" fill="none"/><path d="M-14.1667,69v0l0.333334,0.5h0.666666l0.333334,-0.5" stroke="#808080" stroke-width="0.015625" fill="none"/><path d="M-14.1667,70v0l0.333334,0.5h0.666666l0.333334,-0.5" stroke="#808080" stroke-width="0.015625" fill="none"/><path d="M-14.1667,71v0l0.333334,0.5h0.666666l0.333334,-0.5" stroke="#808080" stroke-width="0.015625" fill="none"/><path d="M-14.1667,72v0l0.333334,0.5h0.666666l0.333334,-0.5" stroke="#808080" stroke-width="0.015625" fill="none"/><path d="M-14.1667,73v0l0.333334,0.5h0.666666l0.333334,-0.5" stroke="#808080" stroke-width="0.015625" fill="none"/><path d="M-14.1667,74v0l0.333334,0.5h0.666666l0.333334,-0.5" stroke="#808080" stroke-width="0.015625" fill="none"/><path d="M-14.1667,75v0l0.333334,0.5h0.666666l0.333334,-0.5" stroke="#808080" stroke-width="0.015625" fill="none"/><path d="M-14.1667,76v0l0.333334,0.5h0.666666l0.333334,-0.5" stroke="#808080" stroke-width="0.015625" fill="none"/><path d="M-14.1667,77v0l0.333334,0.5h0.666666l0.333334,-0.5" stroke="#808080" stroke-width="0.015625" fill="none"/><path d="M-14.1667,78v0l0.333334,0.5h0.666666l0.333334,-0.5" stroke="#808080" stroke-width="0.015625" fill="none"/><path d="M-14.1667,79v0l0.333334,0.5h0.666666l0.333334,-0.5" stroke="#808080" stroke-width="0.015625" fill="none"/><path d="M-14.1667,80v0l0.333334,0.5h0.666666l0.333334,-0.5" stroke="#808080" stroke-width="0.015625" fill="none"/><path d="M-14.1667,81v0l0.333334,0.5h0.666666l0.333334,-0.5" stroke="#808080" stroke-width="0.015625" fill="none"/><path d="M-13.1667,68.5v0l0.333334,0.5h0.666666l0.333334,-0.5" stroke="#808080" stroke-width="0.015625" fill="none"/><path d="M-13.1667,69.5v0l0.333334,0.5h0.666666l0.333334,-0.5" stroke="#808080" stroke-width="0.015625" fill="none"/><path d="M-13.1667,70.5v0l0.333334,0.5h0.666666l0.333334,-0.5" stroke="#808080" stroke-width="0.015625" fill="none"/><path d="M-13.1667,71.5v0l0.333334,0.5h0.666666l0.333334,-0.5" stroke="#808080" stroke-width="0.015625" fill="none"/><path d="M-13.1667,72.5v0l0.333334,0.5h0.666666l0.333334,-0.5" stroke="#808080" stroke-width="0.015625" fill="none"/><path d="M-13.1667,73.5v0l0.333334,0.5h0.666666l0.333334,-0.5" stroke="#808080" stroke-width="0.015625" fill="none"/><path d="M-13.1667,74.5v0l0.333334,0.5h0.666666l0.333334,-0.5" stroke="#808080" stroke-width="0.015625" fill="none"/><path d="M-13.1667,75.5v0l0.333334,0.5h0.666666l0.333334,-0.5" stroke="#808080" stroke-width="0.015625" fill="none"/><path d="M-13.1667,76.5v0l0.333334,0.5h0.666666l0.333334,-0.5" stroke="#808080" stroke-width="0.015625" fill="none"/><path d="M-13.1667,77.5v0l0.333334,0.5h0.666666l0.333334,-0.5" stroke="#808080" stroke-width="0.015625" fill="none"/><path d="M-13.1667,78.5v0l0.333334,0.5h0.666666l0.333334,-0.5" stroke="#808080" stroke-width="0.015625" fill="none"/><path d="M-13.1667,79.5v0l0.333334,0.5h0.666666l0.333334,-0.5" stroke="#808080" stroke-width="0.015625" fill="none"/><path d="M-13.1667,80.5v0l0.333334,0.5h0.666666l0.333334,-0.5" stroke="#808080" stroke-width="0.015625" fill="none"/><path d="M-12.1667,69v0l0.333334,0.5h0.666666l0.333334,-0.5" stroke="#808080" stroke-width="0.015625" fill="none"/><path d="M-12.1667,70v0l0.333334,0.5h0.666666l0.333334,-0.5" stroke="#808080" stroke-width="0.015625" fill="none"/><path d="M-12.1667,71v0l0.333334,0.5h0.666666l0.333334,-0.5" stroke="#808080" stroke-width="0.015625" fill="none"/><path d="M-12.1667,72v0l0.333334,0.5h0.666666l0.333334,-0.5" stroke="#808080" stroke-width="0.015625" fill="none"/><path d="M-12.1667,73v0l0.333334,0.5h0.666666l0.333334,-0.5" stroke="#808080" stroke-width="0.015625" fill="none"/><path d="M-12.1667,74v0l0.333334,0.5h0.666666l0.333334,-0.5" stroke="#808080" stroke-width="0.015625" fill="none"/><path d="M-12.1667,75v0l0.333334,0.5h0.666666l0.333334,-0.5" stroke="#808080" stroke-width="0.015625" fill="none"/><path d="M-12.1667,76v0l0.333334,0.5h0.666666l0.333334,-0.5" stroke="#808080" stroke-width="0.015625" fill="none"/><path d="M-12.1667,77v0l0.333334,0.5h0.666666l0.333334,-0.5" stroke="#808080" stroke-width="0.015625" fill="none"/><path d="M-12.1667,78v0l0.333334,0.5h0.666666l0.333334,-0.5" stroke="#808080" stroke-width="0.015625" fill="none"/><path d="M-12.1667,79v0l0.333334,0.5h0.666666l0.333334,-0.5" stroke="#808080" stroke-width="0.015625" fill="none"/><path d="M-12.1667,80v0l0.333334,0.5h0.666666l0.333334,-0.5" stroke="#808080" stroke-width="0.015625" fill="none"/><path d="M-12.1667,81v0l0.333334,0.5h0.666666l0.333334,-0.5" stroke="#808080" stroke-width="0.015625" fill="none"/><path d="M-11.1667,68.5v0l0.333334,0.5h0.666666l0.333334,-0.5" stroke="#808080" stroke-width="0.015625" fill="none"/><path d="M-11.1667,69.5v0l0.333334,0.5h0.666666l0.333334,-0.5" stroke="#808080" stroke-width="0.015625" fill="none"/><path d="M-11.1667,70.5v0l0.333334,0.5h0.666666l0.333334,-0.5" stroke="#808080" stroke-width="0.015625" fill="none"/><path d="M-11.1667,71.5v0l0.333334,0.5h0.666666l0.333334,-0.5" stroke="#808080" stroke-width="0.015625" fill="none"/><path d="M-11.1667,72.5v0l0.333334,0.5h0.666666l0.333334,-0.5" stroke="#808080" stroke-width="0.015625" fill="none"/><path d="M-11.1667,73.5v0l0.333334,0.5h0.666666l0.333334,-0.5" stroke="#808080" stroke-width="0.015625" fill="none"/><path d="M-11.1667,74.5v0l0.333334,0.5h0.666666l0.333334,-0.5" stroke="#808080" stroke-width="0.015625" fill="none"/><path d="M-11.1667,75.5v0l0.333334,0.5h0.666666l0.333334,-0.5" stroke="#808080" stroke-width="0.015625" fill="none"/><path d="M-11.1667,76.5v0l0.333334,0.5h0.666666l0.333334,-0.5" stroke="#808080" stroke-width="0.015625" fill="none"/><path d="M-11.1667,77.5v0l0.333334,0.5h0.666666l0.333334,-0.5" stroke="#808080" stroke-width="0.015625" fill="none"/><path d="M-11.1667,78.5v0l0.333334,0.5h0.666666l0.333334,-0.5" stroke="#808080" stroke-width="0.015625" fill="none"/><path d="M-11.1667,79.5v0l0.333334,0.5h0.666666l0.333334,-0.5" stroke="#808080" stroke-width="0.015625" fill="none"/><path d="M-11.1667,80.5v0l0.333334,0.5h0.666666l0.333334,-0.5" stroke="#808080" stroke-width="0.015625" fill="none"/><path d="M-10.1667,69v0l0.333334,0.5h0.666666l0.333334,-0.5" stroke="#808080" stroke-width="0.015625" fill="none"/><path d="M-10.1667,70v0l0.333334,0.5h0.666666l0.333334,-0.5" stroke="#808080" stroke-width="0.015625" fill="none"/><path d="M-10.1667,71v0l0.333334,0.5h0.666666l0.333334,-0.5" stroke="#808080" stroke-width="0.015625" fill="none"/><path d="M-10.1667,72v0l0.333334,0.5h0.666666l0.333334,-0.5" stroke="#808080" stroke-width="0.015625" fill="none"/><path d="M-10.1667,73v0l0.333334,0.5h0.666666l0.333334,-0.5" stroke="#808080" stroke-width="0.015625" fill="none"/><path d="M-10.1667,74v0l0.333334,0.5h0.666666l0.333334,-0.5" stroke="#808080" stroke-width="0.015625" fill="none"/><path d="M-10.1667,75v0l0.333334,0.5h0.666666l0.333334,-0.5" stroke="#808080" stroke-width="0.015625" fill="none"/><path d="M-10.1667,76v0l0.333334,0.5h0.666666l0.333334,-0.5" stroke="#808080" stroke-width="0.015625" fill="none"/><path d="M-10.1667,77v0l0.333334,0.5h0.666666l0.333334,-0.5" stroke="#808080" stroke-width="0.015625" fill="none"/><path d="M-10.1667,78v0l0.333334,0.5h0.666666l0.333334,-0.5" stroke="#808080" stroke-width="0.015625" fill="none"/><path d="M-10.1667,79v0l0.333334,0.5h0.666666l0.333334,-0.5" stroke="#808080" stroke-width="0.015625" fill="none"/><path d="M-10.1667,80v0l0.333334,0.5h0.666666l0.333334,-0.5" stroke="#808080" stroke-width="0.015625" fill="none"/><path d="M-10.1667,81v0l0.333334,0.5h0.666666l0.333334,-0.5" stroke="#808080" stroke-width="0.015625" fill="none"/><path d="M-9.16667,68.5v0l0.333334,0.5h0.666666l0.333334,-0.5" stroke="#808080" stroke-width="0.015625" fill="none"/><path d="M-9.16667,69.5v0l0.333334,0.5h0.666666l0.333334,-0.5" stroke="#808080" stroke-width="0.015625" fill="none"/><path d="M-9.16667,70.5v0l0.333334,0.5h0.666666l0.333334,-0.5" stroke="#808080" stroke-width="0.015625" fill="none"/><path d="M-9.16667,71.5v0l0.333334,0.5h0.666666l0.333334,-0.5" stroke="#808080" stroke-width="0.015625" fill="none"/><path d="M-9.16667,72.5v0l0.333334,0.5h0.666666l0.333334,-0.5" stroke="#808080" stroke-width="0.015625" fill="none"/><path d="M-9.16667,73.5v0l0.333334,0.5h0.666666l0.333334,-0.5" stroke="#808080" stroke-width="0.015625" fill="none"/><path d="M-9.16667,74.5v0l0.333334,0.5h0.666666l0.333334,-0.5" stroke="#808080" stroke-width="0.015625" fill="none"/><path d="M-9.16667,75.5v0l0.333334,0.5h0.666666l0.333334,-0.5" stroke="#808080" stroke-width="0.015625" fill="none"/><path d="M-9.16667,76.5v0l0.333334,0.5h0.666666l0.333334,-0.5" stroke="#808080" stroke-width="0.015625" fill="none"/><path d="M-9.16667,77.5v0l0.333334,0.5h0.666666l0.333334,-0.5" stroke="#808080" stroke-width="0.015625" fill="none"/><path d="M-9.16667,78.5v0l0.333334,0.5h0.666666l0.333334,-0.5" stroke="#808080" stroke-width="0.015625" fill="none"/><path d="M-9.16667,79.5v0l0.333334,0.5h0.666666l0.333334,-0.5" stroke="#808080" stroke-width="0.015625" fill="none"/><path d="M-9.16667,80.5v0l0.333334,0.5h0.666666l0.333334,-0.5" stroke="#808080" stroke-width="0.015625" fill="none"/><path clip-path="url(#did2)" d="M-33.8333,71.5l-0.333336,-0.5l0.333336,-0.5l-0.333336,-0.5l0.333336,-0.5l-0.333336,-0.5l0.333336,-0.5l-0.333336,-0.5l0.333336,-0.5l-0.333336,-0.5l0.333336,-0.5l-0.333336,-0.5l0.333336,-0.5l-0.333336,-0.5l0.333336,-0.5l-0.333336,-0.5l0.333336,-0.5l-0.333336,-0.5l0.333336,-0.5l-0.333336,-0.5l0.333336,-0.5l-0.333336,-0.5l0.333336,-0.5l-0.333336,-0.5l0.333336,-0.5l-0.333336,-0.5l0.333336,-0.5l-0.333336,-0.5l0.333336,-0.5l-0.333336,-0.5l0.333336,-0.5l-0.333336,-0.5l0.333336,-0.5l-0.333336,-0.5l0.333336,-0.5l-0.333336,-0.5l0.333336,-0.5l-0.333336,-0.5l0.333336,-0.5l-0.333336,-0.5l0.333336,-0.5l-0.333336,-0.5l0.333336,-0.5l-0.333336,-0.5l0.333336,-0.5l-0.333336,-0.5l0.333336,-0.5l-0.333336,-0.5l0.333336,-0.5l-0.333336,-0.5l0.333336,-0.5h0.666664l0.333336,0.5l-0.333336,0.5l0.333336,0.5l-0.333336,0.5l0.333336,0.5h0.666664l0.333334,-0.5h0.666668l0.333332,-0.5h0.666668l0.333332,-0.5h0.666668l0.333332,-0.5l-0.333332,-0.5l0.333332,-0.5h0.666668l0.333332,-0.5h0.666668l0.333332,-0.5l-0.333332,-0.5l0.333332,-0.5h0.666668l0.333332,-0.5h0.666668l0.333332,-0.5h0.666668l0.333332,-0.5h0.666668l0.333332,-0.5l-0.333332,-0.5l0.333332,-0.5l-0.333332,-0.5l0.333332,-0.5h0.666668l0.333332,0.5h0.666668l0.333332,0.5h0.666668l0.333332,0.5h0.666668l0.333332,-0.5h0.666668l0.333332,0.5h0.666668l0.333332,-0.5h0.666668l0.333333,-0.5l-0.333333,-0.5l0.333333,-0.5h0.666666l0.333334,-0.5h0.666666l0.333334,0.5h0.666666l0.333334,-0.5h0.666666l0.333334,0.5h0.666666l0.333334,-0.5h0.666666l0.333334,0.5h0.666666l0.333334,-0.5h0.666666l0.333334,0.5h0.666667l0.333333,-0.5h0.666667l0.333333,0.5h0.666667l0.333333,-0.5h0.666667l0.333333,0.5h0.666667l0.333334,-0.5h0.666667l0.333334,0.5h0.666667l0.333333,-0.5h0.666667l0.333333,0.5l-0.333333,0.5l0.333333,0.5l-0.333333,0.5l0.333333,0.5l-0.333333,0.5l0.333333,0.5l-0.333333,0.5l0.333333,0.5l-0.333333,0.5l0.333333,0.5l-0.333333,0.5l0.333333,0.5l-0.333333,0.5l0.333333,0.5l-0.333333,0.5l0.333333,0.5l-0.333333,0.5l0.333333,0.5l-0.333333,0.5l0.333333,0.5l-0.333333,0.5l0.333333,0.5l-0.333333,0.5l0.333333,0.5l-0.333333,0.5l0.333333,0.5l-0.333333,0.5l0.333333,0.5l-0.333333,0.5l0.333333,0.5l-0.333333,0.5l0.333333,0.5l-0.333333,0.5l0.333333,0.5l-0.333333,0.5l0.333333,0.5l-0.333333,0.5l0.333333,0.5l-0.333333,0.5l0.333333,0.5l-0.333333,0.5l0.333333,0.5l-0.333333,0.5l0.333333,0.5l-0.333333,0.5l0.333333,0.5l-0.333333,0.5l0.333333,0.5l-0.333333,0.5l0.333333,0.5l-0.333333,0.5l0.333333,0.5l-0.333333,0.5l0.333333,0.5l-0.333333,0.5l0.333333,0.5l-0.333333,0.5l0.333333,0.5l-0.333333,0.5l0.333333,0.5l-0.333333,0.5l0.333333,0.5l-0.333333,0.5l0.333333,0.5l-0.333333,0.5l0.333333,0.5l-0.333333,0.5l0.333333,0.5l-0.333333,0.5l0.333333,0.5l-0.333333,0.5l0.333333,0.5l-0.333333,0.5l0.333333,0.5l-0.333333,0.5l0.333333,0.5l-0.333333,0.5l0.333333,0.5l-0.333333,0.5l0.333333,0.5l-0.333333,0.5l0.333333,0.5l-0.333333,0.5h-0.666667l-0.333333,0.5h-0.666667l-0.333334,-0.5h-0.666667l-0.333334,0.5h-0.666667l-0.333333,-0.5h-0.666667l-0.333333,0.5h-0.666667l-0.333333,-0.5h-0.666667l-0.333333,0.5h-0.666667l-0.333334,-0.5h-0.666666l-0.333334,0.5h-0.666666l-0.333334,-0.5h-0.666666l-0.333334,0.5h-0.666666l-0.333334,-0.5h-0.666666l-0.333334,0.5h-0.666666l-0.333334,-0.5h-0.666666l-0.333334,0.5h-0.666666l-0.333333,-0.5h-0.666668l-0.333332,0.5h-0.666668l-0.333332,-0.5h-0.666668l-0.333332,-0.5h-0.666668l-0.333332,-0.5l0.333332,-0.5l-0.333332,-0.5h-0.666668l-0.333332,-0.5h-0.666668l-0.333332,-0.5l0.333332,-0.5l-0.333332,-0.5l0.333332,-0.5l-0.333332,-0.5l0.333332,-0.5l-0.333332,-0.5h-0.666668l-0.333332,-0.5h-0.666668l-0.333332,-0.5h-0.666668l-0.333332,-0.5h-0.666668l-0.333332,0.5h-0.666668l-0.333332,0.5h-0.666668l-0.333332,0.5h-0.666668l-0.333332,0.5h-0.666668l-0.333332,-0.5h-0.666668l-0.333332,-0.5l0.333332,-0.5l-0.333332,-0.5h-0.666668l-0.333334,-0.5h-0.666664l-0.333336,-0.5h-0.666664l-0.333336,-0.5Z" stroke="#E32736" stroke-width="0.16" fill="none"/><path clip-path="url(#did3)" d="M-33.8333,76.5l-0.333336,-0.5l0.333336,-0.5h0.666664l0.333336,-0.5h0.666664l0.333334,0.5h0.666668l0.333332,0.5h0.666668l0.333332,-0.5h0.666668l0.333332,-0.5h0.666668l0.333332,0.5h0.666668l0.333332,-0.5h0.666668l0.333332,0.5h0.666668l0.333332,0.5h0.666668l0.333332,0.5h0.666668l0.333332,-0.5h0.666668l0.333332,0.5l-0.333332,0.5l0.333332,0.5l-0.333332,0.5h-0.666668l-0.333332,0.5l0.333332,0.5h0.666668l0.333332,0.5l-0.333332,0.5l0.333332,0.5l-0.333332,0.5h-0.666668l-0.333332,0.5h-0.666668l-0.333332,-0.5h-0.666668l-0.333332,0.5h-0.666668l-0.333332,-0.5h-0.666668l-0.333332,0.5h-0.666668l-0.333332,-0.5h-0.666668l-0.333332,0.5h-0.666668l-0.333332,-0.5h-0.666668l-0.333332,0.5h-0.666668l-0.333334,-0.5h-0.666664l-0.333336,0.5h-0.666664l-0.333336,-0.5l0.333336,-0.5l-0.333336,-0.5l0.333336,-0.5l-0.333336,-0.5l0.333336,-0.5l-0.333336,-0.5l0.333336,-0.5l-0.333336,-0.5Z" stroke="Orange" stroke-width="0.16" fill="none"/><path clip-path="url(#did4)" d="M-32.8333,79l-0.333336,-0.5l0.333336,-0.5h0.666664l0.333334,0.5l-0.333334,0.5Z" stroke="Blue" stroke-width="0.16" fill="none"/><line x1="-16.25" y1="69.625" x2="-13.75" y2="70.875" stroke="#048104" stroke-width="0.08"/><line x1="-13.25" y1="70.875" x2="-9.75" y2="69.125" stroke="#048104" stroke-width="0.08"/><line x1="-10.311" y1="76.311" x2="-8.68898" y2="74.689" stroke="#048104" stroke-width="0.08"/><line x1="-11.4055" y1="78.7638" x2="-10.5945" y2="76.7362" stroke="#048104" stroke-width="0.08"/><line x1="-12.25" y1="75.625" x2="-10.75" y2="76.375" stroke="#048104" stroke-width="0.08"/><line x1="-14.25" y1="74.625" x2="-12.75" y2="75.375" stroke="#048104" stroke-width="0.08"/><line x1="-17.2165" y1="74.9528" x2="-14.7835" y2="74.5473" stroke="#048104" stroke-width="0.08"/><line x1="-11.5945" y1="79.2362" x2="-12.4055" y2="81.2638" stroke="#048104" stroke-width="0.08"/></g><g clip-path="url(#did5)"><text transform="translate(-16.5,70.5) scale(1.1547 1)" font-family="Arial" font-size="0.14" text-anchor="middle" x="0" y="-0.381" fill="DarkGray">1731</text><text transform="translate(-16.5,73.5) scale(1.1547 1)" font-family="Arial" font-size="0.14" text-anchor="middle" x="0" y="-0.381" fill="DarkGray">1734</text><text transform="translate(-16.5,75.5) scale(1.1547 1)" font-family="Arial" font-size="0.14" text-anchor="middle" x="0" y="-0.381" fill="DarkGray">1736</text><text transform="translate(-16.5,76.5) scale(1.1547 1)" font-family="Arial" font-size="0.14" text-anchor="middle" x="0" y="-0.381" fill="DarkGray">1737</text><text transform="translate(-16.5,78.5) scale(1.1547 1)" font-family="Arial" font-size="0.14" text-anchor="middle" x="0" y="-0.381" fill="DarkGray">1739</text><text transform="translate(-15.5,71) scale(1.1547 1)" font-family="Arial" font-size="0.14" text-anchor="middle" x="0" y="-0.381" fill="DarkGray">1831</text><g transform="translate(-15.5,72) scale(1.1547 1)"><circle r="0.4" cx="0" cy="0" stroke="#E32736" stroke-width="0.05" fill="none"/><text font-family="Arial" font-size="0.14" text-anchor="middle" x="0" y="-0.381" fill="DarkGray">1832</text></g><text transform="translate(-15.5,78) scale(1.1547 1)" font-family="Arial" font-size="0.14" text-anchor="middle" x="0" y="-0.381" fill="DarkGray">1838</text><text transform="translate(-14.5,72.5) scale(1.1547 1)" font-family="Arial" font-size="0.14" text-anchor="middle" x="0" y="-0.381" fill="DarkGray">1933</text><g transform="translate(-14.5,73.5) scale(1.1547 1)"><circle r="0.4" cx="0" cy="0" stroke="#FFCC00" stroke-width="0.05" fill="none"/><text font-family="Arial" font-size="0.14" text-anchor="middle" x="0" y="-0.381" fill="DarkGray">1934</text></g><text transform="translate(-14.5,74.5) scale(1.1547 1)" font-family="Arial" font-size="0.14" text-anchor="middle" x="0" y="-0.381" fill="DarkGray">1935</text><g transform="translate(-14.5,75.5) scale(1.1547 1)"><circle r="0.4" cx="0" cy="0" stroke="#FFCC00" stroke-width="0.05" fill="none"/><text font-family="Arial" font-size="0.14" text-anchor="middle" x="0" y="-0.381" fill="DarkGray">1936</text></g><text transform="translate(-14.5,77.5) scale(1.1547 1)" font-family="Arial" font-size="0.14" text-anchor="middle" x="0" y="-0.381" fill="DarkGray">1938</text><text transform="translate(-14.5,78.5) scale(1.1547 1)" font-family="Arial" font-size="0.14" text-anchor="middle" x="0" y="-0.381" fill="DarkGray">1939</text><text transform="translate(-13.5,71) scale(1.1547 1)" font-family="Arial" font-size="0.14" text-anchor="middle" x="0" y="-0.381" fill="DarkGray">2031</text><text transform="translate(-13.5,73) scale(1.1547 1)" font-family="Arial" font-size="0.14" text-anchor="middle" x="0" y="-0.381" fill="DarkGray">2033</text><text transform="translate(-13.5,79) scale(1.1547 1)" font-family="Arial" font-size="0.14" text-anchor="middle" x="0" y="-0.381" fill="DarkGray">2039</text><text transform="translate(-13.5,80) scale(1.1547 1)" font-family="Arial" font-size="0.14" text-anchor="middle" x="0" y="-0.381" fill="DarkGray">2040</text><text transform="translate(-12.5,70.5) scale(1.1547 1)" font-family="Arial" font-size="0.14" text-anchor="middle" x="0" y="-0.381" fill="DarkGray">2131</text><text transform="translate(-12.5,75.5) scale(1.1547 1)" font-family="Arial" font-size="0.14" text-anchor="middle" x="0" y="-0.381" fill="DarkGray">2136</text><g transform="translate(-12.5,76.5) scale(1.1547 1)"><circle r="0.4" cx="0" cy="0" stroke="#FFCC00" stroke-width="0.05" fill="none"/><text font-family="Arial" font-size="0.14" text-anchor="middle" x="0" y="-0.381" fill="DarkGray">2137</text></g><text transform="translate(-11.5,71) scale(1.1547 1)" font-family="Arial" font-size="0.14" text-anchor="middle" x="0" y="-0.381" fill="DarkGray">2231</text><text transform="translate(-11.5,72) scale(1.1547 1)" font-family="Arial" font-size="0.14" text-anchor="middle" x="0" y="-0.381" fill="DarkGray">2232</text><text transform="translate(-11.5,74) scale(1.1547 1)" font-family="Arial" font-size="0.14" text-anchor="middle" x="0" y="-0.381" fill="DarkGray">2234</text><text transform="translate(-11.5,75) scale(1.1547 1)" font-family="Arial" font-size="0.14" text-anchor="middle" x="0" y="-0.381" fill="DarkGray">2235</text><g transform="translate(-11.5,79) scale(1.1547 1)"><circle r="0.4" cx="0" cy="0" stroke="#FFCC00" stroke-width="0.05" fill="none"/><text font-family="Arial" font-size="0.14" text-anchor="middle" x="0" y="-0.381" fill="DarkGray">2239</text></g><text transform="translate(-10.5,76.5) scale(1.1547 1)" font-family="Arial" font-size="0.14" text-anchor="middle" x="0" y="-0.381" fill="DarkGray">2337</text><text transform="translate(-10.5,79.5) scale(1.1547 1)" font-family="Arial" font-size="0.14" text-anchor="middle" x="0" y="-0.381" fill="DarkGray">2340</text><text transform="translate(-9.5,71) scale(1.1547 1)" font-family="Arial" font-size="0.14" text-anchor="middle" x="0" y="-0.381" fill="DarkGray">2431</text><text transform="translate(-9.5,72) scale(1.1547 1)" font-family="Arial" font-size="0.14" text-anchor="middle" x="0" y="-0.381" fill="DarkGray">2432</text><g transform="translate(-9.5,75) scale(1.1547 1)"><circle r="0.4" cx="0" cy="0" stroke="#E32736" stroke-width="0.05" fill="none"/><text font-family="Arial" font-size="0.14" text-anchor="middle" x="0" y="-0.381" fill="DarkGray">2435</text></g></g><g transform="translate(-16.5,70.5) scale(1.1547 1)"><circle transform="translate(0.25,-0.18)" r="0.05" cx="0" cy="0" stroke="none" fill="Black"/><rect x="-0.113084" y="-0.35543" width="0.226167" height="0.260859" stroke="none" fill="White"/><text font-family="Arial" font-size="0.21" font-weight="bold" text-anchor="middle" x="0" y="-0.13575" fill="Black">B</text><circle r="0.1" cx="0" cy="0" stroke="none" fill="DeepSkyBlue"/><rect x="-0.756055" y="0.23957" width="1.51211" height="0.260859" stroke="none" fill="White"/><text font-family="Arial" font-size="0.21" font-weight="bold" text-anchor="middle" x="0" y="0.45925" fill="Black">Phillips World</text></g><g transform="translate(-16.5,73.5) scale(1.1547 1)"><circle transform="translate(0.25,-0.18)" r="0.05" cx="0" cy="0" stroke="none" fill="Black"/><rect x="-0.113084" y="-0.35543" width="0.226167" height="0.260859" stroke="none" fill="White"/><text font-family="Arial" font-size="0.21" font-weight="bold" text-anchor="middle" x="0" y="-0.13575" fill="Black">D</text><text font-family="Arial Unicode MS,Segoe UI Symbol,Arial" font-size="0.21" font-weight="bold" text-anchor="middle" x="-0.25" y="0.26925" fill="Black">▲</text><circle r="0.1" cx="0" cy="0" stroke="Black" stroke-width="0.015625" fill="White"/><rect x="-0.431672" y="0.23957" width="0.863345" height="0.260859" stroke="none" fill="White"/><text font-family="Arial" font-size="0.21" font-weight="bold" text-anchor="middle" x="0" y="0.45925" fill="Black">Victoria</text></g><g transform="translate(-16.5,75.5) scale(1.1547 1)"><circle transform="translate(0.25,-0.18)" r="0.05" cx="0" cy="0" stroke="none" fill="Black"/><rect x="-0.107136" y="-0.35543" width="0.214273" height="0.260859" stroke="none" fill="White"/><text font-family="Arial" font-size="0.21" font-weight="bold" text-anchor="middle" x="0" y="-0.13575" fill="Black">E</text><ellipse rx="0.0315469" ry="0.0244881" cx="-0.07" cy="-0.07" stroke="none" fill="Black"/><ellipse rx="0.033606" ry="0.034759" cx="0" cy="-0.07" stroke="none" fill="Black"/><ellipse rx="0.0283508" ry="0.0258543" cx="0.07" cy="-0.07" stroke="none" fill="Black"/><ellipse rx="0.0258437" ry="0.0283385" cx="-0.105" cy="0" stroke="none" fill="Black"/><ellipse rx="0.0327031" ry="0.0287036" cx="-0.035" cy="0" stroke="none" fill="Black"/><ellipse rx="0.0267018" ry="0.0223295" cx="0.035" cy="0" stroke="none" fill="Black"/><ellipse rx="0.0296679" ry="0.0327816" cx="0.105" cy="0" stroke="none" fill="Black"/><ellipse rx="0.0318222" ry="0.025465" cx="0" cy="0.07" stroke="none" fill="Black"/><ellipse rx="0.0259705" ry="0.0323144" cx="0.07" cy="0.07" stroke="none" fill="Black"/><rect x="-0.359536" y="0.23957" width="0.719072" height="0.260859" stroke="none" fill="White"/><text font-family="Arial" font-size="0.21" font-weight="bold" text-anchor="middle" x="0" y="0.45925" fill="Black">Stasin</text></g><g transform="translate(-16.5,76.5) scale(1.1547 1)"><circle transform="translate(0.25,-0.18)" r="0.05" cx="0" cy="0" stroke="none" fill="Black"/><rect x="-0.113084" y="-0.35543" width="0.226167" height="0.260859" stroke="none" fill="White"/><text font-family="Arial" font-size="0.21" font-weight="bold" text-anchor="middle" x="0" y="-0.13575" fill="Black">C</text><circle r="0.1" cx="0" cy="0" stroke="none" fill="DeepSkyBlue"/><rect x="-0.413574" y="0.23957" width="0.827148" height="0.260859" stroke="none" fill="White"/><text font-family="Arial" font-size="0.21" font-weight="bold" text-anchor="middle" x="0" y="0.45925" fill="Black">Charon</text></g><g transform="translate(-16.5,78.5) scale(1.1547 1)"><circle transform="translate(0.25,-0.18)" r="0.05" cx="0" cy="0" stroke="none" fill="Black"/><rect x="-0.113084" y="-0.35543" width="0.226167" height="0.260859" stroke="none" fill="White"/><text font-family="Arial" font-size="0.21" font-weight="bold" text-anchor="middle" x="0" y="-0.13575" fill="Black">D</text><circle r="0.1" cx="0" cy="0" stroke="none" fill="DeepSkyBlue"/><rect x="-0.335439" y="0.23957" width="0.670879" height="0.260859" stroke="none" fill="White"/><text font-family="Arial" font-size="0.21" font-weight="bold" text-anchor="middle" x="0" y="0.45925" fill="Black">Coast</text></g><g transform="translate(-15.5,71) scale(1.1547 1)"><circle transform="translate(0.25,-0.18)" r="0.05" cx="0" cy="0" stroke="none" fill="Black"/><rect x="-0.113084" y="-0.35543" width="0.226167" height="0.260859" stroke="none" fill="White"/><text font-family="Arial" font-size="0.21" font-weight="bold" text-anchor="middle" x="0" y="-0.13575" fill="Black">B</text><circle r="0.1" cx="0" cy="0" stroke="none" fill="DeepSkyBlue"/><rect x="-0.780203" y="0.23957" width="1.56041" height="0.260859" stroke="none" fill="White"/><text font-family="Arial" font-size="0.21" font-weight="bold" text-anchor="middle" x="0" y="0.45925" fill="Black">Saint Dalmatia</text></g><g transform="translate(-15.5,72) scale(1.1547 1)"><circle transform="translate(0.25,-0.18)" r="0.05" cx="0" cy="0" stroke="none" fill="Black"/><rect x="-0.107136" y="-0.35543" width="0.214273" height="0.260859" stroke="none" fill="White"/><text font-family="Arial" font-size="0.21" font-weight="bold" text-anchor="middle" x="0" y="-0.13575" fill="Black">X</text><circle r="0.1" cx="0" cy="0" stroke="none" fill="DeepSkyBlue"/><rect x="-0.593889" y="0.23957" width="1.18778" height="0.260859" stroke="none" fill="White"/><text font-family="Arial" font-size="0.21" font-weight="bold" text-anchor="middle" x="0" y="0.45925" fill="Black">Serindipity</text></g><g transform="translate(-15.5,78) scale(1.1547 1)"><circle transform="translate(0.25,-0.18)" r="0.05" cx="0" cy="0" stroke="none" fill="Black"/><rect x="-0.113084" y="-0.35543" width="0.226167" height="0.260859" stroke="none" fill="White"/><text font-family="Arial" font-size="0.21" font-weight="bold" text-anchor="middle" x="0" y="-0.13575" fill="Black">C</text><circle r="0.1" cx="0" cy="0" stroke="none" fill="DeepSkyBlue"/><rect x="-0.239309" y="0.23957" width="0.478618" height="0.260859" stroke="none" fill="White"/><text font-family="Arial" font-size="0.21" font-weight="bold" text-anchor="middle" x="0" y="0.45925" fill="Black">Ash</text></g><g transform="translate(-14.5,72.5) scale(1.1547 1)"><rect x="-0.113084" y="-0.35543" width="0.226167" height="0.260859" stroke="none" fill="White"/><text font-family="Arial" font-size="0.21" font-weight="bold" text-anchor="middle" x="0" y="-0.13575" fill="Black">C</text><circle r="0.1" cx="0" cy="0" stroke="Black" stroke-width="0.015625" fill="White"/><rect x="-0.299551" y="0.23957" width="0.599102" height="0.260859" stroke="none" fill="White"/><text font-family="Arial" font-size="0.21" font-weight="bold" text-anchor="middle" x="0" y="0.45925" fill="Black">Pearl</text></g><g transform="translate(-14.5,73.5) scale(1.1547 1)"><circle transform="translate(0.25,-0.18)" r="0.05" cx="0" cy="0" stroke="none" fill="Black"/><rect x="-0.113084" y="-0.35543" width="0.226167" height="0.260859" stroke="none" fill="White"/><text font-family="Arial" font-size="0.21" font-weight="bold" text-anchor="middle" x="0" y="-0.13575" fill="Black">C</text><text font-family="Arial Unicode MS,Segoe UI Symbol,Arial" font-size="0.21" font-weight="bold" text-anchor="middle" x="-0.25" y="0.26925" fill="Black">▲</text><circle r="0.1" cx="0" cy="0" stroke="none" fill="DeepSkyBlue"/><rect x="-0.41947" y="0.23957" width="0.83894" height="0.260859" stroke="none" fill="White"/><text font-family="Arial" font-size="0.21" font-weight="bold" text-anchor="middle" x="0" y="0.45925" fill="Black">NARYA</text></g><g transform="translate(-14.5,74.5) scale(1.1547 1)"><circle transform="translate(0.25,-0.18)" r="0.05" cx="0" cy="0" stroke="none" fill="Black"/><rect x="-0.113084" y="-0.35543" width="0.226167" height="0.260859" stroke="none" fill="White"/><text font-family="Arial" font-size="0.21" font-weight="bold" text-anchor="middle" x="0" y="-0.13575" fill="Black">A</text><text font-family="Arial Unicode MS,Segoe UI Symbol,Arial" font-size="0.21" font-weight="bold" text-anchor="middle" x="-0.25" y="0.26925" fill="#E32736">▲</text><circle r="0.1" cx="0" cy="0" stroke="Black" stroke-width="0.015625" fill="White"/><rect x="-0.503757" y="0.23957" width="1.00752" height="0.260859" stroke="none" fill="White"/><text font-family="Arial" font-size="0.21" font-weight="bold" text-anchor="middle" x="0" y="0.45925" fill="Black">Huntress</text></g><g transform="translate(-14.5,75.5) scale(1.1547 1)"><circle transform="translate(0.25,-0.18)" r="0.05" cx="0" cy="0" stroke="none" fill="Black"/><rect x="-0.113084" y="-0.35543" width="0.226167" height="0.260859" stroke="none" fill="White"/><text font-family="Arial" font-size="0.21" font-weight="bold" text-anchor="middle" x="0" y="-0.13575" fill="Black">D</text><circle r="0.1" cx="0" cy="0" stroke="none" fill="DeepSkyBlue"/><rect x="-0.431519" y="0.23957" width="0.863037" height="0.260859" stroke="none" fill="White"/><text font-family="Arial" font-size="0.21" font-weight="bold" text-anchor="middle" x="0" y="0.45925" fill="Black">Dionitia</text></g><g transform="translate(-14.5,77.5) scale(1.1547 1)"><circle transform="translate(0.25,-0.18)" r="0.05" cx="0" cy="0" stroke="none" fill="Black"/><rect x="-0.113084" y="-0.35543" width="0.226167" height="0.260859" stroke="none" fill="White"/><text font-family="Arial" font-size="0.21" font-weight="bold" text-anchor="middle" x="0" y="-0.13575" fill="Black">C</text><circle r="0.1" cx="0" cy="0" stroke="Black" stroke-width="0.015625" fill="White"/><rect x="-0.49176" y="0.23957" width="0.983521" height="0.260859" stroke="none" fill="White"/><text font-family="Arial" font-size="0.21" font-weight="bold" text-anchor="middle" x="0" y="0.45925" fill="Black">Nanaimo</text></g><g transform="translate(-14.5,78.5) scale(1.1547 1)"><circle transform="translate(0.25,-0.18)" r="0.05" cx="0" cy="0" stroke="none" fill="Black"/><rect x="-0.107136" y="-0.35543" width="0.214273" height="0.260859" stroke="none" fill="White"/><text font-family="Arial" font-size="0.21" font-weight="bold" text-anchor="middle" x="0" y="-0.13575" fill="Black">E</text><circle r="0.1" cx="0" cy="0" stroke="Black" stroke-width="0.015625" fill="White"/><rect x="-0.425623" y="0.23957" width="0.851245" height="0.260859" stroke="none" fill="White"/><text font-family="Arial" font-size="0.21" font-weight="bold" text-anchor="middle" x="0" y="0.45925" fill="Black">Stewart</text></g><g transform="translate(-13.5,71) scale(1.1547 1)"><circle transform="translate(0.25,-0.18)" r="0.05" cx="0" cy="0" stroke="none" fill="Black"/><rect x="-0.113084" y="-0.35543" width="0.226167" height="0.260859" stroke="none" fill="White"/><text font-family="Arial" font-size="0.21" font-weight="bold" text-anchor="middle" x="0" y="-0.13575" fill="Black">B</text><text font-family="Arial Unicode MS,Segoe UI Symbol,Arial" font-size="0.21" font-weight="bold" text-anchor="middle" x="-0.25" y="-0.09075" fill="Black">★</text><circle r="0.1" cx="0" cy="0" stroke="none" fill="DeepSkyBlue"/><rect x="-0.2753" y="0.23957" width="0.550601" height="0.260859" stroke="none" fill="White"/><text font-family="Arial" font-size="0.21" font-weight="bold" text-anchor="middle" x="0" y="0.45925" fill="Black">Ring</text></g><g transform="translate(-13.5,73) scale(1.1547 1)"><rect x="-0.113084" y="-0.35543" width="0.226167" height="0.260859" stroke="none" fill="White"/><text font-family="Arial" font-size="0.21" font-weight="bold" text-anchor="middle" x="0" y="-0.13575" fill="Black">B</text><circle r="0.1" cx="0" cy="0" stroke="none" fill="DeepSkyBlue"/><rect x="-0.473713" y="0.23957" width="0.947427" height="0.260859" stroke="none" fill="White"/><text font-family="Arial" font-size="0.21" font-weight="bold" text-anchor="middle" x="0" y="0.45925" fill="Black">Brennan</text></g><g transform="translate(-13.5,79) scale(1.1547 1)"><circle transform="translate(0.25,-0.18)" r="0.05" cx="0" cy="0" stroke="none" fill="Black"/><rect x="-0.113084" y="-0.35543" width="0.226167" height="0.260859" stroke="none" fill="White"/><text font-family="Arial" font-size="0.21" font-weight="bold" text-anchor="middle" x="0" y="-0.13575" fill="Black">C</text><circle r="0.1" cx="0" cy="0" stroke="none" fill="DeepSkyBlue"/><rect x="-0.443721" y="0.23957" width="0.887441" height="0.260859" stroke="none" fill="White"/><text font-family="Arial" font-size="0.21" font-weight="bold" text-anchor="middle" x="0" y="0.45925" fill="Black">Ladanyi</text></g><g transform="translate(-13.5,80) scale(1.1547 1)"><circle transform="translate(0.25,-0.18)" r="0.05" cx="0" cy="0" stroke="none" fill="Black"/><rect x="-0.113084" y="-0.35543" width="0.226167" height="0.260859" stroke="none" fill="White"/><text font-family="Arial" font-size="0.21" font-weight="bold" text-anchor="middle" x="0" y="-0.13575" fill="Black">B</text><circle r="0.1" cx="0" cy="0" stroke="none" fill="DeepSkyBlue"/><rect x="-0.371585" y="0.23957" width="0.743169" height="0.260859" stroke="none" fill="White"/><text font-family="Arial" font-size="0.21" font-weight="bold" text-anchor="middle" x="0" y="0.45925" fill="Black">Ciaran</text></g><g transform="translate(-12.5,70.5) scale(1.1547 1)"><circle transform="translate(0.25,-0.18)" r="0.05" cx="0" cy="0" stroke="none" fill="Black"/><rect x="-0.113084" y="-0.35543" width="0.226167" height="0.260859" stroke="none" fill="White"/><text font-family="Arial" font-size="0.21" font-weight="bold" text-anchor="middle" x="0" y="-0.13575" fill="Black">C</text><circle r="0.1" cx="0" cy="0" stroke="Black" stroke-width="0.015625" fill="White"/><rect x="-0.581892" y="0.23957" width="1.16378" height="0.260859" stroke="none" fill="White"/><text font-family="Arial" font-size="0.21" font-weight="bold" text-anchor="middle" x="0" y="0.45925" fill="Black">Mackswith</text></g><g transform="translate(-12.5,75.5) scale(1.1547 1)"><circle transform="translate(0.25,-0.18)" r="0.05" cx="0" cy="0" stroke="none" fill="Black"/><rect x="-0.113084" y="-0.35543" width="0.226167" height="0.260859" stroke="none" fill="White"/><text font-family="Arial" font-size="0.21" font-weight="bold" text-anchor="middle" x="0" y="-0.13575" fill="Black">B</text><circle r="0.1" cx="0" cy="0" stroke="none" fill="DeepSkyBlue"/><rect x="-0.383582" y="0.23957" width="0.767163" height="0.260859" stroke="none" fill="White"/><text font-family="Arial" font-size="0.21" font-weight="bold" text-anchor="middle" x="0" y="0.45925" fill="Black">Eurtrik</text></g><g transform="translate(-12.5,76.5) scale(1.1547 1)"><circle transform="translate(0.25,-0.18)" r="0.05" cx="0" cy="0" stroke="none" fill="Black"/><rect x="-0.113084" y="-0.35543" width="0.226167" height="0.260859" stroke="none" fill="White"/><text font-family="Arial" font-size="0.21" font-weight="bold" text-anchor="middle" x="0" y="-0.13575" fill="Black">C</text><circle r="0.1" cx="0" cy="0" stroke="none" fill="DeepSkyBlue"/><rect x="-0.533545" y="0.23957" width="1.06709" height="0.260859" stroke="none" fill="White"/><text font-family="Arial" font-size="0.21" font-weight="bold" text-anchor="middle" x="0" y="0.45925" fill="Black">KARUKHI</text></g><g transform="translate(-11.5,71) scale(1.1547 1)"><circle transform="translate(0.25,-0.18)" r="0.05" cx="0" cy="0" stroke="none" fill="Black"/><rect x="-0.113084" y="-0.35543" width="0.226167" height="0.260859" stroke="none" fill="White"/><text font-family="Arial" font-size="0.21" font-weight="bold" text-anchor="middle" x="0" y="-0.13575" fill="Black">B</text><circle r="0.1" cx="0" cy="0" stroke="none" fill="DeepSkyBlue"/><rect x="-0.455667" y="0.23957" width="0.911333" height="0.260859" stroke="none" fill="White"/><text font-family="Arial" font-size="0.21" font-weight="bold" text-anchor="middle" x="0" y="0.45925" fill="Black">Murazor</text></g><g transform="translate(-11.5,72) scale(1.1547 1)"><circle transform="translate(0.25,-0.18)" r="0.05" cx="0" cy="0" stroke="none" fill="Black"/><rect x="-0.107136" y="-0.35543" width="0.214273" height="0.260859" stroke="none" fill="White"/><text font-family="Arial" font-size="0.21" font-weight="bold" text-anchor="middle" x="0" y="-0.13575" fill="Black">E</text><circle r="0.1" cx="0" cy="0" stroke="none" fill="DeepSkyBlue"/><rect x="-0.467715" y="0.23957" width="0.93543" height="0.260859" stroke="none" fill="White"/><text font-family="Arial" font-size="0.21" font-weight="bold" text-anchor="middle" x="0" y="0.45925" fill="Black">Akorahil</text></g><g transform="translate(-11.5,74) scale(1.1547 1)"><circle transform="translate(0.25,-0.18)" r="0.05" cx="0" cy="0" stroke="none" fill="Black"/><rect x="-0.113084" y="-0.35543" width="0.226167" height="0.260859" stroke="none" fill="White"/><text font-family="Arial" font-size="0.21" font-weight="bold" text-anchor="middle" x="0" y="-0.13575" fill="Black">D</text><circle r="0.1" cx="0" cy="0" stroke="Black" stroke-width="0.015625" fill="White"/><rect x="-0.275403" y="0.23957" width="0.550806" height="0.260859" stroke="none" fill="White"/><text font-family="Arial" font-size="0.21" font-weight="bold" text-anchor="middle" x="0" y="0.45925" fill="Black">Guiv</text></g><g transform="translate(-11.5,75) scale(1.1547 1)"><circle transform="translate(0.25,-0.18)" r="0.05" cx="0" cy="0" stroke="none" fill="Black"/><rect x="-0.113084" y="-0.35543" width="0.226167" height="0.260859" stroke="none" fill="White"/><text font-family="Arial" font-size="0.21" font-weight="bold" text-anchor="middle" x="0" y="-0.13575" fill="Black">C</text><circle r="0.1" cx="0" cy="0" stroke="none" fill="DeepSkyBlue"/><rect x="-0.263406" y="0.23957" width="0.526812" height="0.260859" stroke="none" fill="White"/><text font-family="Arial" font-size="0.21" font-weight="bold" text-anchor="middle" x="0" y="0.45925" fill="Black">Hela</text></g><g transform="translate(-11.5,79) scale(1.1547 1)"><circle transform="translate(0.25,-0.18)" r="0.05" cx="0" cy="0" stroke="none" fill="Black"/><rect x="-0.113084" y="-0.35543" width="0.226167" height="0.260859" stroke="none" fill="White"/><text font-family="Arial" font-size="0.21" font-weight="bold" text-anchor="middle" x="0" y="-0.13575" fill="Black">A</text><circle r="0.1" cx="0" cy="0" stroke="none" fill="DeepSkyBlue"/><rect x="-0.371431" y="0.23957" width="0.742861" height="0.260859" stroke="none" fill="White"/><text font-family="Arial" font-size="0.21" font-weight="bold" text-anchor="middle" x="0" y="0.45925" fill="#E32736">KIMEL</text></g><g transform="translate(-10.5,76.5) scale(1.1547 1)"><circle transform="translate(0.25,-0.18)" r="0.05" cx="0" cy="0" stroke="none" fill="Black"/><rect x="-0.113084" y="-0.35543" width="0.226167" height="0.260859" stroke="none" fill="White"/><text font-family="Arial" font-size="0.21" font-weight="bold" text-anchor="middle" x="0" y="-0.13575" fill="Black">B</text><text font-family="Arial Unicode MS,Segoe UI Symbol,Arial" font-size="0.21" font-weight="bold" text-anchor="middle" x="-0.25" y="-0.09075" fill="Black">★</text><circle r="0.1" cx="0" cy="0" stroke="none" fill="DeepSkyBlue"/><rect x="-0.551797" y="0.23957" width="1.10359" height="0.260859" stroke="none" fill="White"/><text font-family="Arial" font-size="0.21" font-weight="bold" text-anchor="middle" x="0" y="0.45925" fill="Black">Woosnam</text></g><g transform="translate(-10.5,79.5) scale(1.1547 1)"><circle transform="translate(0.25,-0.18)" r="0.05" cx="0" cy="0" stroke="none" fill="Black"/><rect x="-0.113084" y="-0.35543" width="0.226167" height="0.260859" stroke="none" fill="White"/><text font-family="Arial" font-size="0.21" font-weight="bold" text-anchor="middle" x="0" y="-0.13575" fill="Black">B</text><circle r="0.1" cx="0" cy="0" stroke="none" fill="DeepSkyBlue"/><rect x="-0.257356" y="0.23957" width="0.514712" height="0.260859" stroke="none" fill="White"/><text font-family="Arial" font-size="0.21" font-weight="bold" text-anchor="middle" x="0" y="0.45925" fill="Black">Link</text></g><g transform="translate(-9.5,71) scale(1.1547 1)"><circle transform="translate(0.25,-0.18)" r="0.05" cx="0" cy="0" stroke="none" fill="Black"/><rect x="-0.113084" y="-0.35543" width="0.226167" height="0.260859" stroke="none" fill="White"/><text font-family="Arial" font-size="0.21" font-weight="bold" text-anchor="middle" x="0" y="-0.13575" fill="Black">C</text><circle r="0.1" cx="0" cy="0" stroke="Black" stroke-width="0.015625" fill="White"/><rect x="-0.431519" y="0.23957" width="0.863037" height="0.260859" stroke="none" fill="White"/><text font-family="Arial" font-size="0.21" font-weight="bold" text-anchor="middle" x="0" y="0.45925" fill="Black">Battista</text></g><g transform="translate(-9.5,72) scale(1.1547 1)"><circle transform="translate(0.25,-0.18)" r="0.05" cx="0" cy="0" stroke="none" fill="Black"/><rect x="-0.113084" y="-0.35543" width="0.226167" height="0.260859" stroke="none" fill="White"/><text font-family="Arial" font-size="0.21" font-weight="bold" text-anchor="middle" x="0" y="-0.13575" fill="Black">C</text><circle r="0.1" cx="0" cy="0" stroke="none" fill="DeepSkyBlue"/><rect x="-0.41947" y="0.23957" width="0.83894" height="0.260859" stroke="none" fill="White"/><text font-family="Arial" font-size="0.21" font-weight="bold" text-anchor="middle" x="0" y="0.45925" fill="Black">Corinth</text></g><g transform="translate(-9.5,75) scale(1.1547 1)"><rect x="-0.107136" y="-0.35543" width="0.214273" height="0.260859" stroke="none" fill="White"/><text font-family="Arial" font-size="0.21" font-weight="bold" text-anchor="middle" x="0" y="-0.13575" fill="Black">X</text><circle r="0.1" cx="0" cy="0" stroke="none" fill="DeepSkyBlue"/><rect x="-0.329492" y="0.23957" width="0.658984" height="0.260859" stroke="none" fill="White"/><text font-family="Arial" font-size="0.21" font-weight="bold" text-anchor="middle" x="0" y="0.45925" fill="Black">Fister</text></g></g></svg>