<?xml version = "1.0" encoding="utf-8"?>
<svg version="1.1" baseProfile="full" xmlns="http://www.w3.org/2000/svg" xmlns:xlink="http://www.w3.org/1999/xlink" width="471" height="684" viewBox="0 0 471 684" clip="0 471 0 684"><defs><clipPath id="did1"><rect x="30.75" y="-0.1" width="8.5" height="10.7"/></clipPath><clipPath id="did2"><path d="M30.1667,0.5l-0.333332,-0.5l0.333332,-0.5h0.666668l0.333332,-0.5h0.666668l0.333334,0.5h0.666664l0.333336,-0.5h0.666664l0.333336,0.5h0.666664l0.333336,-0.5h0.666664l0.333336,0.5h0.666664l0.333336,-0.5h0.666664l0.333336,0.5h0.666664l0.333336,-0.5h0.666664l0.333336,0.5h0.666664l0.333336,-0.5h0.666664l0.333336,0.5h0.666664l0.333336,-0.5h0.666664l0.333336,0.5h0.666664l0.333336,-0.5h0.666664l0.333336,0.5h0.666664l0.333336,-0.5h0.666664l0.333336,0.5h0.666664l0.333336,-0.5h0.666664l0.333336,0.5h0.666664l0.333336,-0.5h0.666664l0.333336,0.5h0.666664l0.333336,0.5l-0.333336,0.5h-0.666664l-0.333336,-0.5h-0.666664l-0.333336,0.5h-0.666664l-0.333336,0.5l0.333336,0.5l-0.333336,0.5l0.333336,0.5l-0.333336,0.5l0.333336,0.5l-0.333336,0.5l0.333336,0.5l-0.333336,0.5h-0.666664l-0.333336,0.5h-0.666664l-0.333336,0.5l0.333336,0.5l-0.333336,0.5h-0.666664l-0.333336,0.5h-0.666664l-0.333336,0.5h-0.666664l-0.333336,0.5l0.333336,0.5l-0.333336,0.5h-0.666664l-0.333336,0.5h-0.666664l-0.333336,0.5l0.333336,0.5l-0.333336,0.5l0.333336,0.5l-0.333336,0.5l0.333336,0.5l-0.333336,0.5l0.333336,0.5h0.666664l0.333336,0.5l-0.333336,0.5h-0.666664l-0.333336,0.5h-0.666664l-0.333336,0.5l0.333336,0.5l-0.333336,0.5l0.333336,0.5l-0.333336,0.5l0.333336,0.5l-0.333336,0.5l0.333336,0.5l-0.333336,0.5l0.333336,0.5l-0.333336,0.5l0.333336,0.5l-0.333336,0.5l0.333336,0.5h0.666664l0.333336,0.5l-0.333336,0.5h-0.666664l-0.333336,0.5h-0.666664l-0.333336,0.5l0.333336,0.5l-0.333336,0.5l0.333336,0.5l-0.333336,0.5l0.333336,0.5l-0.333336,0.5l0.333336,0.5l-0.333336,0.5l0.333336,0.5h0.666664l0.333336,0.5h0.666664l0.333336,0.5l-0.333336,0.5l0.333336,0.5l-0.333336,0.5l0.333336,0.5h0.666664l0.333336,0.5h0.666664l0.333336,0.5h0.666664l0.333336,0.5h0.666664l0.333336,0.5h0.666664l0.333336,0.5h0.666664l0.333336,-0.5h0.666664l0.333336,0.5h0.666664l0.333336,-0.5h0.666664l0.333336,0.5h0.666664l0.333336,-0.5h0.666664l0.333336,-0.5l-0.333336,-0.5l0.333336,-0.5h0.666664l0.333336,-0.5h0.666664l0.333336,-0.5h0.666664l0.333336,0.5h0.666664l0.333336,-0.5h0.666664l0.333336,0.5h0.666664l0.333336,0.5h0.666664l0.333336,0.5h0.666664l0.333336,-0.5h0.666664l0.333336,-0.5l-0.333336,-0.5l0.333336,-0.5h0.666664l0.333332,0.5l-0.333332,0.5l0.333332,0.5l-0.333332,0.5l0.333332,0.5l-0.333332,0.5l0.333332,0.5l-0.333332,0.5l0.333332,0.5l-0.333332,0.5l0.333332,0.5l-0.333332,0.5l0.333332,0.5l-0.333332,0.5l0.333332,0.5l-0.333332,0.5l0.333332,0.5l-0.333332,0.5l0.333332,0.5l-0.333332,0.5h-0.666664l-0.333336,0.5h-0.666664l-0.333336,-0.5h-0.666664l-0.333336,0.5h-0.666664l-0.333336,-0.5h-0.666664l-0.333336,0.5h-0.666664l-0.333336,-0.5h-0.666664l-0.333336,0.5h-0.666664l-0.333336,-0.5h-0.666664l-0.333336,0.5h-0.666664l-0.333336,-0.5h-0.666664l-0.333336,0.5h-0.666664l-0.333336,-0.5h-0.666664l-0.333336,0.5h-0.666664l-0.333336,-0.5h-0.666664l-0.333336,0.5h-0.666664l-0.333336,-0.5h-0.666664l-0.333336,0.5h-0.666664l-0.333336,-0.5h-0.666664l-0.333336,0.5h-0.666664l-0.333336,-0.5h-0.666664l-0.333336,0.5h-0.666664l-0.333336,-0.5h-0.666664l-0.333336,0.5h-0.666664l-0.333336,-0.5h-0.666664l-0.333336,0.5h-0.666664l-0.333336,-0.5h-0.666664l-0.333336,0.5h-0.666664l-0.333336,-0.5h-0.666664l-0.333336,0.5h-0.666664l-0.333336,-0.5h-0.666664l-0.333336,0.5h-0.666664l-0.333334,-0.5h-0.666668l-0.333332,0.5h-0.666668l-0.333332,-0.5l0.333332,-0.5l-0.333332,-0.5l0.333332,-0.5l-0.333332,-0.5l0.333332,-0.5l-0.333332,-0.5l0.333332,-0.5l-0.333332,-0.5l0.333332,-0.5l-0.333332,-0.5l0.333332,-0.5l-0.333332,-0.5l0.333332,-0.5l-0.333332,-0.5l0.333332,-0.5l-0.333332,-0.5l0.333332,-0.5l-0.333332,-0.5l0.333332,-0.5l-0.333332,-0.5l0.333332,-0.5l-0.333332,-0.5l0.333332,-0.5l-0.333332,-0.5l0.333332,-0.5l-0.333332,-0.5l0.333332,-0.5l-0.333332,-0.5l0.333332,-0.5l-0.333332,-0.5l0.333332,-0.5l-0.333332,-0.5l0.333332,-0.5l-0.333332,-0.5l0.333332,-0.5l-0.333332,-0.5l0.333332,-0.5l-0.333332,-0.5l0.333332,-0.5l-0.333332,-0.5l0.333332,-0.5l-0.333332,-0.5l0.333332,-0.5l-0.333332,-0.5l0.333332,-0.5l-0.333332,-0.5l0.333332,-0.5l-0.333332,-0.5l0.333332,-0.5l-0.333332,-0.5l0.333332,-0.5l-0.333332,-0.5l0.333332,-0.5l-0.333332,-0.5l0.333332,-0.5l-0.333332,-0.5l0.333332,-0.5l-0.333332,-0.5l0.333332,-0.5l-0.333332,-0.5l0.333332,-0.5l-0.333332,-0.5l0.333332,-0.5l-0.333332,-0.5l0.333332,-0.5l-0.333332,-0.5l0.333332,-0.5l-0.333332,-0.5l0.333332,-0.5l-0.333332,-0.5l0.333332,-0.5l-0.333332,-0.5l0.333332,-0.5l-0.333332,-0.5l0.333332,-0.5l-0.333332,-0.5l0.333332,-0.5l-0.333332,-0.5l0.333332,-0.5l-0.333332,-0.5Z"/></clipPath><clipPath id="did3"><rect x="30.75" y="-0.1" width="8.5" height="10.7"/></clipPath><clipPath id="did4"><rect x="30.75" y="-0.1" width="8.5" height="10.7"/></clipPath></defs><g fill="None" stroke="None" transform="matrix(1,0,0,1,0,0) matrix(55.4256,0,0,64,-1704.34,6.4)"><g clip-path="url(#did1)"><rect x="29.9" y="-1.17" width="10.2" height="12.84" stroke="none" fill="White"/><path d="M28.8333,-1.5v0l0.333332,0.5h0.666668l0.333332,-0.5" stroke="#808080" stroke-width="0.015625" fill="none"/><path d="M28.8333,-0.5v0l0.333332,0.5h0.666668l0.333332,-0.5" stroke="#808080" stroke-width="0.015625" fill="none"/><path d="M28.8333,0.5v0l0.333332,0.5h0.666668l0.333332,-0.5" stroke="#808080" stroke-width="0.015625" fill="none"/><path d="M28.8333,1.5v0l0.333332,0.5h0.666668l0.333332,-0.5" stroke="#808080" stroke-width="0.015625" fill="none"/><path d="M28.8333,2.5v0l0.333332,0.5h0.666668l0.333332,-0.5" stroke="#808080" stroke-width="0.015625" fill="none"/><path d="M28.8333,3.5v0l0.333332,0.5h0.666668l0.333332,-0.5" stroke="#808080" stroke-width="0.015625" fill="none"/><path d="M28.8333,4.5v0l0.333332,0.5h0.666668l0.333332,-0.5" stroke="#808080" stroke-width="0.015625" fill="none"/><path d="M28.8333,5.5v0l0.333332,0.5h0.666668l0.333332,-0.5" stroke="#808080" stroke-width="0.015625" fill="none"/><path d="M28.8333,6.5v0l0.333332,0.5h0.666668l0.333332,-0.5" stroke="#808080" stroke-width="0.015625" fill="none"/><path d="M28.8333,7.5v0l0.333332,0.5h0.666668l0.333332,-0.5" stroke="#808080" stroke-width="0.015625" fill="none"/><path d="M28.8333,8.5v0l0.333332,0.5h0.666668l0.333332,-0.5" stroke="#808080" stroke-width="0.015625" fill="none"/><path d="M28.8333,9.5v0l0.333332,0.5h0.666668l0.333332,-0.5" stroke="#808080" stroke-width="0.015625" fill="none"/><path d="M28.8333,10.5v0l0.333332,0.5h0.666668l0.333332,-0.5" stroke="#808080" stroke-width="0.015625" fill="none"/><path d="M29.8333,-1v0l0.333332,0.5h0.666668l0.333332,-0.5" stroke="#808080" stroke-width="0.015625" fill="none"/><path d="M29.8333,0v0l0.333332,0.5h0.666668l0.333332,-0.5" stroke="#808080" stroke-width="0.015625" fill="none"/><path d="M29.8333,1v0l0.333332,0.5h0.666668l0.333332,-0.5" stroke="#808080" stroke-width="0.015625" fill="none"/><path d="M29.8333,2v0l0.333332,0.5h0.666668l0.333332,-0.5" stroke="#808080" stroke-width="0.015625" fill="none"/><path d="M29.8333,3v0l0.333332,0.5h0.666668l0.333332,-0.5" stroke="#808080" stroke-width="0.015625" fill="none"/><path d="M29.8333,4v0l0.333332,0.5h0.666668l0.333332,-0.5" stroke="#808080" stroke-width="0.015625" fill="none"/><path d="M29.8333,5v0l0.333332,0.5h0.666668l0.333332,-0.5" stroke="#808080" stroke-width="0.015625" fill="none"/><path d="M29.8333,6v0l0.333332,0.5h0.666668l0.333332,-0.5" stroke="#808080" stroke-width="0.015625" fill="none"/><path d="M29.8333,7v0l0.333332,0.5h0.666668l0.333332,-0.5" stroke="#808080" stroke-width="0.015625" fill="none"/><path d="M29.8333,8v0l0.333332,0.5h0.666668l0.333332,-0.5" stroke="#808080" stroke-width="0.015625" fill="none"/><path d="M29.8333,9v0l0.333332,0.5h0.666668l0.333332,-0.5" stroke="#808080" stroke-width="0.015625" fill="none"/><path d="M29.8333,10v0l0.333332,0.5h0.666668l0.333332,-0.5" stroke="#808080" stroke-width="0.015625" fill="none"/><path d="M29.8333,11v0l0.333332,0.5h0.666668l0.333332,-0.5" stroke="#808080" stroke-width="0.015625" fill="none"/><path d="M30.8333,-1.5v0l0.333332,0.5h0.666668l0.333334,-0.5" stroke="#808080" stroke-width="0.015625" fill="none"/><path d="M30.8333,-0.5v0l0.333332,0.5h0.666668l0.333334,-0.5" stroke="#808080" stroke-width="0.015625" fill="none"/><path d="M30.8333,0.5v0l0.333332,0.5h0.666668l0.333334,-0.5" stroke="#808080" stroke-width="0.015625" fill="none"/><path d="M30.8333,1.5v0l0.333332,0.5h0.666668l0.333334,-0.5" stroke="#808080" stroke-width="0.015625" fill="none"/><path d="M30.8333,2.5v0l0.333332,0.5h0.666668l0.333334,-0.5" stroke="#808080" stroke-width="0.015625" fill="none"/><path d="M30.8333,3.5v0l0.333332,0.5h0.666668l0.333334,-0.5" stroke="#808080" stroke-width="0.015625" fill="none"/><path d="M30.8333,4.5v0l0.333332,0.5h0.666668l0.333334,-0.5" stroke="#808080" stroke-width="0.015625" fill="none"/><path d="M30.8333,5.5v0l0.333332,0.5h0.666668l0.333334,-0.5" stroke="#808080" stroke-width="0.015625" fill="none"/><path d="M30.8333,6.5v0l0.333332,0.5h0.666668l0.333334,-0.5" stroke="#808080" stroke-width="0.015625" fill="none"/><path d="M30.8333,7.5v0l0.333332,0.5h0.666668l0.333334,-0.5" stroke="#808080" stroke-width="0.015625" fill="none"/><path d="M30.8333,8.5v0l0.333332,0.5h0.666668l0.333334,-0.5" stroke="#808080" stroke-width="0.015625" fill="none"/><path d="M30.8333,9.5v0l0.333332,0.5h0.666668l0.333334,-0.5" stroke="#808080" stroke-width="0.015625" fill="none"/><path d="M30.8333,10.5v0l0.333332,0.5h0.666668l0.333334,-0.5" stroke="#808080" stroke-width="0.015625" fill="none"/><path d="M31.8333,-1v0l0.333334,0.5h0.666664l0.333336,-0.5" stroke="#808080" stroke-width="0.015625" fill="none"/><path d="M31.8333,0v0l0.333334,0.5h0.666664l0.333336,-0.5" stroke="#808080" stroke-width="0.015625" fill="none"/><path d="M31.8333,1v0l0.333334,0.5h0.666664l0.333336,-0.5" stroke="#808080" stroke-width="0.015625" fill="none"/><path d="M31.8333,2v0l0.333334,0.5h0.666664l0.333336,-0.5" stroke="#808080" stroke-width="0.015625" fill="none"/><path d="M31.8333,3v0l0.333334,0.5h0.666664l0.333336,-0.5" stroke="#808080" stroke-width="0.015625" fill="none"/><path d="M31.8333,4v0l0.333334,0.5h0.666664l0.333336,-0.5" stroke="#808080" stroke-width="0.015625" fill="none"/><path d="M31.8333,5v0l0.333334,0.5h0.666664l0.333336,-0.5" stroke="#808080" stroke-width="0.015625" fill="none"/><path d="M31.8333,6v0l0.333334,0.5h0.666664l0.333336,-0.5" stroke="#808080" stroke-width="0.015625" fill="none"/><path d="M31.8333,7v0l0.333334,0.5h0.666664l0.333336,-0.5" stroke="#808080" stroke-width="0.015625" fill="none"/><path d="M31.8333,8v0l0.333334,0.5h0.666664l0.333336,-0.5" stroke="#808080" stroke-width="0.015625" fill="none"/><path d="M31.8333,9v0l0.333334,0.5h0.666664l0.333336,-0.5" stroke="#808080" stroke-width="0.015625" fill="none"/><path d="M31.8333,10v0l0.333334,0.5h0.666664l0.333336,-0.5" stroke="#808080" stroke-width="0.015625" fill="none"/><path d="M31.8333,11v0l0.333334,0.5h0.666664l0.333336,-0.5" stroke="#808080" stroke-width="0.015625" fill="none"/><path d="M32.8333,-1.5v0l0.333336,0.5h0.666664l0.333336,-0.5" stroke="#808080" stroke-width="0.015625" fill="none"/><path d="M32.8333,-0.5v0l0.333336,0.5h0.666664l0.333336,-0.5" stroke="#808080" stroke-width="0.015625" fill="none"/><path d="M32.8333,0.5v0l0.333336,0.5h0.666664l0.333336,-0.5" stroke="#808080" stroke-width="0.015625" fill="none"/><path d="M32.8333,1.5v0l0.333336,0.5h0.666664l0.333336,-0.5" stroke="#808080" stroke-width="0.015625" fill="none"/><path d="M32.8333,2.5v0l0.333336,0.5h0.666664l0.333336,-0.5" stroke="#808080" stroke-width="0.015625" fill="none"/><path d="M32.8333,3.5v0l0.333336,0.5h0.666664l0.333336,-0.5" stroke="#808080" stroke-width="0.015625" fill="none"/><path d="M32.8333,4.5v0l0.333336,0.5h0.666664l0.333336,-0.5" stroke="#808080" stroke-width="0.015625" fill="none"/><path d="M32.8333,5.5v0l0.333336,0.5h0.666664l0.333336,-0.5" stroke="#808080" stroke-width="0.015625" fill="none"/><path d="M32.8333,6.5v0l0.333336,0.5h0.666664l0.333336,-0.5" stroke="#808080" stroke-width="0.015625" fill="none"/><path d="M32.8333,7.5v0l0.333336,0.5h0.666664l0.333336,-0.5" stroke="#808080" stroke-width="0.015625" fill="none"/><path d="M32.8333,8.5v0l0.333336,0.5h0.666664l0.333336,-0.5" stroke="#808080" stroke-width="0.015625" fill="none"/><path d="M32.8333,9.5v0l0.333336,0.5h0.666664l0.333336,-0.5" stroke="#808080" stroke-width="0.015625" fill="none"/><path d="M32.8333,10.5v0l0.333336,0.5h0.666664l0.333336,-0.5" stroke="#808080" stroke-width="0.015625" fill="none"/><path d="M33.8333,-1v0l0.333336,0.5h0.666664l0.333336,-0.5" stroke="#808080" stroke-width="0.015625" fill="none"/><path d="M33.8333,0v0l0.333336,0.5h0.666664l0.333336,-0.5" stroke="#808080" stroke-width="0.015625" fill="none"/><path d="M33.8333,1v0l0.333336,0.5h0.666664l0.333336,-0.5" stroke="#808080" stroke-width="0.015625" fill="none"/><path d="M33.8333,2v0l0.333336,0.5h0.666664l0.333336,-0.5" stroke="#808080" stroke-width="0.015625" fill="none"/><path d="M33.8333,3v0l0.333336,0.5h0.666664l0.333336,-0.5" stroke="#808080" stroke-width="0.015625" fill="none"/><path d="M33.8333,4v0l0.333336,0.5h0.666664l0.333336,-0.5" stroke="#808080" stroke-width="0.015625" fill="none"/><path d="M33.8333,5v0l0.333336,0.5h0.666664l0.333336,-0.5" stroke="#808080" stroke-width="0.015625" fill="none"/><path d="M33.8333,6v0l0.333336,0.5h0.666664l0.333336,-0.5" stroke="#808080" stroke-width="0.015625" fill="none"/><path d="M33.8333,7v0l0.333336,0.5h0.666664l0.333336,-0.5" stroke="#808080" stroke-width="0.015625" fill="none"/><path d="M33.8333,8v0l0.333336,0.5h0.666664l0.333336,-0.5" stroke="#808080" stroke-width="0.015625" fill="none"/><path d="M33.8333,9v0l0.333336,0.5h0.666664l0.333336,-0.5" stroke="#808080" stroke-width="0.015625" fill="none"/><path d="M33.8333,10v0l0.333336,0.5h0.666664l0.333336,-0.5" stroke="#808080" stroke-width="0.015625" fill="none"/><path d="M33.8333,11v0l0.333336,0.5h0.666664l0.333336,-0.5" stroke="#808080" stroke-width="0.015625" fill="none"/><path d="M34.8333,-1.5v0l0.333336,0.5h0.666664l0.333336,-0.5" stroke="#808080" stroke-width="0.015625" fill="none"/><path d="M34.8333,-0.5v0l0.333336,0.5h0.666664l0.333336,-0.5" stroke="#808080" stroke-width="0.015625" fill="none"/><path d="M34.8333,0.5v0l0.333336,0.5h0.666664l0.333336,-0.5" stroke="#808080" stroke-width="0.015625" fill="none"/><path d="M34.8333,1.5v0l0.333336,0.5h0.666664l0.333336,-0.5" stroke="#808080" stroke-width="0.015625" fill="none"/><path d="M34.8333,2.5v0l0.333336,0.5h0.666664l0.333336,-0.5" stroke="#808080" stroke-width="0.015625" fill="none"/><path d="M34.8333,3.5v0l0.333336,0.5h0.666664l0.333336,-0.5" stroke="#808080" stroke-width="0.015625" fill="none"/><path d="M34.8333,4.5v0l0.333336,0.5h0.666664l0.333336,-0.5" stroke="#808080" stroke-width="0.015625" fill="none"/><path d="M34.8333,5.5v0l0.333336,0.5h0.666664l0.333336,-0.5" stroke="#808080" stroke-width="0.015625" fill="none"/><path d="M34.8333,6.5v0l0.333336,0.5h0.666664l0.333336,-0.5" stroke="#808080" stroke-width="0.015625" fill="none"/><path d="M34.8333,7.5v0l0.333336,0.5h0.666664l0.333336,-0.5" stroke="#808080" stroke-width="0.015625" fill="none"/><path d="M34.8333,8.5v0l0.333336,0.5h0.666664l0.333336,-0.5" stroke="#808080" stroke-width="0.015625" fill="none"/><path d="M34.8333,9.5v0l0.333336,0.5h0.666664l0.333336,-0.5" stroke="#808080" stroke-width="0.015625" fill="none"/><path d="M34.8333,10.5v0l0.333336,0.5h0.666664l0.333336,-0.5" stroke="#808080" stroke-width="0.015625" fill="none"/><path d="M35.8333,-1v0l0.333336,0.5h0.666664l0.333336,-0.5" stroke="#808080" stroke-width="0.015625" fill="none"/><path d="M35.8333,0v0l0.333336,0.5h0.666664l0.333336,-0.5" stroke="#808080" stroke-width="0.015625" fill="none"/><path d="M35.8333,1v0l0.333336,0.5h0.666664l0.333336,-0.5" stroke="#808080" stroke-width="0.015625" fill="none"/><path d="M35.8333,2v0l0.333336,0.5h0.666664l0.333336,-0.5" stroke="#808080" stroke-width="0.015625" fill="none"/><path d="M35.8333,3v0l0.333336,0.5h0.666664l0.333336,-0.5" stroke="#808080" stroke-width="0.015625" fill="none"/><path d="M35.8333,4v0l0.333336,0.5h0.666664l0.333336,-0.5" stroke="#808080" stroke-width="0.015625" fill="none"/><path d="M35.8333,5v0l0.333336,0.5h0.666664l0.333336,-0.5" stroke="#808080" stroke-width="0.015625" fill="none"/><path d="M35.8333,6v0l0.333336,0.5h0.666664l0.333336,-0.5" stroke="#808080" stroke-width="0.015625" fill="none"/><path d="M35.8333,7v0l0.333336,0.5h0.666664l0.333336,-0.5" stroke="#808080" stroke-width="0.015625" fill="none"/><path d="M35.8333,8v0l0.333336,0.5h0.666664l0.333336,-0.5" stroke="#808080" stroke-width="0.015625" fill="none"/><path d="M35.8333,9v0l0.333336,0.5h0.666664l0.333336,-0.5" stroke="#808080" stroke-width="0.015625" fill="none"/><path d="M35.8333,10v0l0.333336,0.5h0.666664l0.333336,-0.5" stroke="#808080" stroke-width="0.015625" fill="none"/><path d="M35.8333,11v0l0.333336,0.5h0.666664l0.333336,-0.5" stroke="#808080" stroke-width="0.015625" fill="none"/><path d="M36.8333,-1.5v0l0.333336,0.5h0.666664l0.333336,-0.5" stroke="#808080" stroke-width="0.015625" fill="none"/><path d="M36.8333,-0.5v0l0.333336,0.5h0.666664l0.333336,-0.5" stroke="#808080" stroke-width="0.015625" fill="none"/><path d="M36.8333,0.5v0l0.333336,0.5h0.666664l0.333336,-0.5" stroke="#808080" stroke-width="0.015625" fill="none"/><path d="M36.8333,1.5v0l0.333336,0.5h0.666664l0.333336,-0.5" stroke="#808080" stroke-width="0.015625" fill="none"/><path d="M36.8333,2.5v0l0.333336,0.5h0.666664l0.333336,-0.5" stroke="#808080" stroke-width="0.015625" fill="none"/><path d="M36.8333,3.5v0l0.333336,0.5h0.666664l0.333336,-0.5" stroke="#808080" stroke-width="0.015625" fill="none"/><path d="M36.8333,4.5v0l0.333336,0.5h0.666664l0.333336,-0.5" stroke="#808080" stroke-width="0.015625" fill="none"/><path d="M36.8333,5.5v0l0.333336,0.5h0.666664l0.333336,-0.5" stroke="#808080" stroke-width="0.015625" fill="none"/><path d="M36.8333,6.5v0l0.333336,0.5h0.666664l0.333336,-0.5" stroke="#808080" stroke-width="0.015625" fill="none"/><path d="M36.8333,7.5v0l0.333336,0.5h0.666664l0.333336,-0.5" stroke="#808080" stroke-width="0.015625" fill="none"/><path d="M36.8333,8.5v0l0.333336,0.5h0.666664l0.333336,-0.5" stroke="#808080" stroke-width="0.015625" fill="none"/><path d="M36.8333,9.5v0l0.333336,0.5h0.666664l0.333336,-0.5" stroke="#808080" stroke-width="0.015625" fill="none"/><path d="M36.8333,10.5v0l0.333336,0.5h0.666664l0.333336,-0.5" stroke="#808080" stroke-width="0.015625" fill="none"/><path d="M37.8333,-1v0l0.333336,0.5h0.666664l0.333336,-0.5" stroke="#808080" stroke-width="0.015625" fill="none"/><path d="M37.8333,0v0l0.333336,0.5h0.666664l0.333336,-0.5" stroke="#808080" stroke-width="0.015625" fill="none"/><path d="M37.8333,1v0l0.333336,0.5h0.666664l0.333336,-0.5" stroke="#808080" stroke-width="0.015625" fill="none"/><path d="M37.8333,2v0l0.333336,0.5h0.666664l0.333336,-0.5" stroke="#808080" stroke-width="0.015625" fill="none"/><path d="M37.8333,3v0l0.333336,0.5h0.666664l0.333336,-0.5" stroke="#808080" stroke-width="0.015625" fill="none"/><path d="M37.8333,4v0l0.333336,0.5h0.666664l0.333336,-0.5" stroke="#808080" stroke-width="0.015625" fill="none"/><path d="M37.8333,5v0l0.333336,0.5h0.666664l0.333336,-0.5" stroke="#808080" stroke-width="0.015625" fill="none"/><path d="M37.8333,6v0l0.333336,0.5h0.666664l0.333336,-0.5" stroke="#808080" stroke-width="0.015625" fill="none"/><path d="M37.8333,7v0l0.333336,0.5h0.666664l0.333336,-0.5" stroke="#808080" stroke-width="0.015625" fill="none"/><path d="M37.8333,8v0l0.333336,0.5h0.666664l0.333336,-0.5" stroke="#808080" stroke-width="0.015625" fill="none"/><path d="M37.8333,9v0l0.333336,0.5h0.666664l0.333336,-0.5" stroke="#808080" stroke-width="0.015625" fill="none"/><path d="M37.8333,10v0l0.333336,0.5h0.666664l0.333336,-0.5" stroke="#808080" stroke-width="0.015625" fill="none"/><path d="M37.8333,11v0l0.333336,0.5h0.666664l0.333336,-0.5" stroke="#808080" stroke-width="0.015625" fill="none"/><path d="M38.8333,-1.5v0l0.333336,0.5h0.666664l0.333336,-0.5" stroke="#808080" stroke-width="0.015625" fill="none"/><path d="M38.8333,-0.5v0l0.333336,0.5h0.666664l0.333336,-0.5" stroke="#808080" stroke-width="0.015625" fill="none"/><path d="M38.8333,0.5v0l0.333336,0.5h0.666664l0.333336,-0.5" stroke="#808080" stroke-width="0.015625" fill="none"/><path d="M38.8333,1.5v0l0.333336,0.5h0.666664l0.333336,-0.5" stroke="#808080" stroke-width="0.015625" fill="none"/><path d="M38.8333,2.5v0l0.333336,0.5h0.666664l0.333336,-0.5" stroke="#808080" stroke-width="0.015625" fill="none"/><path d="M38.8333,3.5v0l0.333336,0.5h0.666664l0.333336,-0.5" stroke="#808080" stroke-width="0.015625" fill="none"/><path d="M38.8333,4.5v0l0.333336,0.5h0.666664l0.333336,-0.5" stroke="#808080" stroke-width="0.015625" fill="none"/><path d="M38.8333,5.5v0l0.333336,0.5h0.666664l0.333336,-0.5" stroke="#808080" stroke-width="0.015625" fill="none"/><path d="M38.8333,6.5v0l0.333336,0.5h0.666664l0.333336,-0.5" stroke="#808080" stroke-width="0.015625" fill="none"/><path d="M38.8333,7.5v0l0.333336,0.5h0.666664l0.333336,-0.5" stroke="#808080" stroke-width="0.015625" fill="none"/><path d="M38.8333,8.5v0l0.333336,0.5h0.666664l0.333336,-0.5" stroke="#808080" stroke-width="0.015625" fill="none"/><path d="M38.8333,9.5v0l0.333336,0.5h0.666664l0.333336,-0.5" stroke="#808080" stroke-width="0.015625" fill="none"/><path d="M38.8333,10.5v0l0.333336,0.5h0.666664l0.333336,-0.5" stroke="#808080" stroke-width="0.015625" fill="none"/><path clip-path="url(#did2)" d="M30.1667,0.5l-0.333332,-0.5l0.333332,-0.5h0.666668l0.333332,-0.5h0.666668l0.333334,0.5h0.666664l0.333336,-0.5h0.666664l0.333336,0.5h0.666664l0.333336,-0.5h0.666664l0.333336,0.5h0.666664l0.333336,-0.5h0.666664l0.333336,0.5h0.666664l0.333336,-0.5h0.666664l0.333336,0.5h0.666664l0.333336,-0.5h0.666664l0.333336,0.5h0.666664l0.333336,-0.5h0.666664l0.333336,0.5h0.666664l0.333336,-0.5h0.666664l0.333336,0.5h0.666664l0.333336,-0.5h0.666664l0.333336,0.5h0.666664l0.333336,-0.5h0.666664l0.333336,0.5h0.666664l0.333336,-0.5h0.666664l0.333336,0.5h0.666664l0.333336,0.5l-0.333336,0.5h-0.666664l-0.333336,-0.5h-0.666664l-0.333336,0.5h-0.666664l-0.333336,0.5l0.333336,0.5l-0.333336,0.5l0.333336,0.5l-0.333336,0.5l0.333336,0.5l-0.333336,0.5l0.333336,0.5l-0.333336,0.5h-0.666664l-0.333336,0.5h-0.666664l-0.333336,0.5l0.333336,0.5l-0.333336,0.5h-0.666664l-0.333336,0.5h-0.666664l-0.333336,0.5h-0.666664l-0.333336,0.5l0.333336,0.5l-0.333336,0.5h-0.666664l-0.333336,0.5h-0.666664l-0.333336,0.5l0.333336,0.5l-0.333336,0.5l0.333336,0.5l-0.333336,0.5l0.333336,0.5l-0.333336,0.5l0.333336,0.5h0.666664l0.333336,0.5l-0.333336,0.5h-0.666664l-0.333336,0.5h-0.666664l-0.333336,0.5l0.333336,0.5l-0.333336,0.5l0.333336,0.5l-0.333336,0.5l0.333336,0.5l-0.333336,0.5l0.333336,0.5l-0.333336,0.5l0.333336,0.5l-0.333336,0.5l0.333336,0.5l-0.333336,0.5l0.333336,0.5h0.666664l0.333336,0.5l-0.333336,0.5h-0.666664l-0.333336,0.5h-0.666664l-0.333336,0.5l0.333336,0.5l-0.333336,0.5l0.333336,0.5l-0.333336,0.5l0.333336,0.5l-0.333336,0.5l0.333336,0.5l-0.333336,0.5l0.333336,0.5h0.666664l0.333336,0.5h0.666664l0.333336,0.5l-0.333336,0.5l0.333336,0.5l-0.333336,0.5l0.333336,0.5h0.666664l0.333336,0.5h0.666664l0.333336,0.5h0.666664l0.333336,0.5h0.666664l0.333336,0.5h0.666664l0.333336,0.5h0.666664l0.333336,-0.5h0.666664l0.333336,0.5h0.666664l0.333336,-0.5h0.666664l0.333336,0.5h0.666664l0.333336,-0.5h0.666664l0.333336,-0.5l-0.333336,-0.5l0.333336,-0.5h0.666664l0.333336,-0.5h0.666664l0.333336,-0.5h0.666664l0.333336,0.5h0.666664l0.333336,-0.5h0.666664l0.333336,0.5h0.666664l0.333336,0.5h0.666664l0.333336,0.5h0.666664l0.333336,-0.5h0.666664l0.333336,-0.5l-0.333336,-0.5l0.333336,-0.5h0.666664l0.333332,0.5l-0.333332,0.5l0.333332,0.5l-0.333332,0.5l0.333332,0.5l-0.333332,0.5l0.333332,0.5l-0.333332,0.5l0.333332,0.5l-0.333332,0.5l0.333332,0.5l-0.333332,0.5l0.333332,0.5l-0.333332,0.5l0.333332,0.5l-0.333332,0.5l0.333332,0.5l-0.333332,0.5l0.333332,0.5l-0.333332,0.5h-0.666664l-0.333336,0.5h-0.666664l-0.333336,-0.5h-0.666664l-0.333336,0.5h-0.666664l-0.333336,-0.5h-0.666664l-0.333336,0.5h-0.666664l-0.333336,-0.5h-0.666664l-0.333336,0.5h-0.666664l-0.333336,-0.5h-0.666664l-0.333336,0.5h-0.666664l-0.333336,-0.5h-0.666664l-0.333336,0.5h-0.666664l-0.333336,-0.5h-0.666664l-0.333336,0.5h-0.666664l-0.333336,-0.5h-0.666664l-0.333336,0.5h-0.666664l-0.333336,-0.5h-0.666664l-0.333336,0.5h-0.666664l-0.333336,-0.5h-0.666664l-0.333336,0.5h-0.666664l-0.333336,-0.5h-0.666664l-0.333336,0.5h-0.666664l-0.333336,-0.5h-0.666664l-0.333336,0.5h-0.666664l-0.333336,-0.5h-0.666664l-0.333336,0.5h-0.666664l-0.333336,-0.5h-0.666664l-0.333336,0.5h-0.666664l-0.333336,-0.5h-0.666664l-0.333336,0.5h-0.666664l-0.333336,-0.5h-0.666664l-0.333336,0.5h-0.666664l-0.333334,-0.5h-0.666668l-0.333332,0.5h-0.666668l-0.333332,-0.5l0.333332,-0.5l-0.333332,-0.5l0.333332,-0.5l-0.333332,-0.5l0.333332,-0.5l-0.333332,-0.5l0.333332,-0.5l-0.333332,-0.5l0.333332,-0.5l-0.333332,-0.5l0.333332,-0.5l-0.333332,-0.5l0.333332,-0.5l-0.333332,-0.5l0.333332,-0.5l-0.333332,-0.5l0.333332,-0.5l-0.333332,-0.5l0.333332,-0.5l-0.333332,-0.5l0.333332,-0.5l-0.333332,-0.5l0.333332,-0.5l-0.333332,-0.5l0.333332,-0.5l-0.333332,-0.5l0.333332,-0.5l-0.333332,-0.5l0.333332,-0.5l-0.333332,-0.5l0.333332,-0.5l-0.333332,-0.5l0.333332,-0.5l-0.333332,-0.5l0.333332,-0.5l-0.333332,-0.5l0.333332,-0.5l-0.333332,-0.5l0.333332,-0.5l-0.333332,-0.5l0.333332,-0.5l-0.333332,-0.5l0.333332,-0.5l-0.333332,-0.5l0.333332,-0.5l-0.333332,-0.5l0.333332,-0.5l-0.333332,-0.5l0.333332,-0.5l-0.333332,-0.5l0.333332,-0.5l-0.333332,-0.5l0.333332,-0.5l-0.333332,-0.5l0.333332,-0.5l-0.333332,-0.5l0.333332,-0.5l-0.333332,-0.5l0.333332,-0.5l-0.333332,-0.5l0.333332,-0.5l-0.333332,-0.5l0.333332,-0.5l-0.333332,-0.5l0.333332,-0.5l-0.333332,-0.5l0.333332,-0.5l-0.333332,-0.5l0.333332,-0.5l-0.333332,-0.5l0.333332,-0.5l-0.333332,-0.5l0.333332,-0.5l-0.333332,-0.5l0.333332,-0.5l-0.333332,-0.5l0.333332,-0.5l-0.333332,-0.5l0.333332,-0.5l-0.333332,-0.5Z" stroke="#E32736" stroke-width="0.16" fill="none"/><line x1="33.689" y1="2.68898" x2="35.311" y2="4.31102" stroke="#048104" stroke-width="0.08"/><line x1="31.7887" y1="4.5" x2="35.2113" y2="4.5" stroke="#048104" stroke-width="0.08"/><line x1="35.7774" y1="4.43066" x2="39.2227" y2="3.56934" stroke="#048104" stroke-width="0.08"/><line x1="35.5" y1="7.75" x2="35.5" y2="11.25" stroke="#048104" stroke-width="0.08"/><line x1="35.5" y1="4.75" x2="35.5" y2="7.25" stroke="#048104" stroke-width="0.08"/></g><g clip-path="url(#did3)"><text transform="translate(31.5,1.5) scale(1.1547 1)" font-family="Arial" font-size="0.14" text-anchor="middle" x="0" y="-0.381" fill="DarkGray">0102</text><text transform="translate(31.5,2.5) scale(1.1547 1)" font-family="Arial" font-size="0.14" text-anchor="middle" x="0" y="-0.381" fill="DarkGray">0103</text><text transform="translate(31.5,4.5) scale(1.1547 1)" font-family="Arial" font-size="0.14" text-anchor="middle" x="0" y="-0.381" fill="DarkGray">0105</text><g transform="translate(31.5,5.5) scale(1.1547 1)"><circle r="0.4" cx="0" cy="0" stroke="#FFCC00" stroke-width="0.05" fill="none"/><text font-family="Arial" font-size="0.14" text-anchor="middle" x="0" y="-0.381" fill="DarkGray">0106</text></g><text transform="translate(31.5,6.5) scale(1.1547 1)" font-family="Arial" font-size="0.14" text-anchor="middle" x="0" y="-0.381" fill="DarkGray">0107</text><text transform="translate(31.5,7.5) scale(1.1547 1)" font-family="Arial" font-size="0.14" text-anchor="middle" x="0" y="-0.381" fill="DarkGray">0108</text><text transform="translate(31.5,8.5) scale(1.1547 1)" font-family="Arial" font-size="0.14" text-anchor="middle" x="0" y="-0.381" fill="DarkGray">0109</text><text transform="translate(31.5,9.5) scale(1.1547 1)" font-family="Arial" font-size="0.14" text-anchor="middle" x="0" y="-0.381" fill="DarkGray">0110</text><g transform="translate(32.5,2) scale(1.1547 1)"><circle r="0.4" cx="0" cy="0" stroke="#E32736" stroke-width="0.05" fill="none"/><text font-family="Arial" font-size="0.14" text-anchor="middle" x="0" y="-0.381" fill="DarkGray">0202</text></g><text transform="translate(32.5,4) scale(1.1547 1)" font-family="Arial" font-size="0.14" text-anchor="middle" x="0" y="-0.381" fill="DarkGray">0204</text><g transform="translate(32.5,5) scale(1.1547 1)"><circle r="0.4" cx="0" cy="0" stroke="#E32736" stroke-width="0.05" fill="none"/><text font-family="Arial" font-size="0.14" text-anchor="middle" x="0" y="-0.381" fill="DarkGray">0205</text></g><text transform="translate(32.5,9) scale(1.1547 1)" font-family="Arial" font-size="0.14" text-anchor="middle" x="0" y="-0.381" fill="DarkGray">0209</text><text transform="translate(32.5,10) scale(1.1547 1)" font-family="Arial" font-size="0.14" text-anchor="middle" x="0" y="-0.381" fill="DarkGray">0210</text><g transform="translate(33.5,2.5) scale(1.1547 1)"><circle r="0.4" cx="0" cy="0" stroke="#FFCC00" stroke-width="0.05" fill="none"/><text font-family="Arial" font-size="0.14" text-anchor="middle" x="0" y="-0.381" fill="DarkGray">0303</text></g><g transform="translate(33.5,9.5) scale(1.1547 1)"><circle r="0.4" cx="0" cy="0" stroke="#FFCC00" stroke-width="0.05" fill="none"/><text font-family="Arial" font-size="0.14" text-anchor="middle" x="0" y="-0.381" fill="DarkGray">0310</text></g><g transform="translate(34.5,1) scale(1.1547 1)"><circle r="0.4" cx="0" cy="0" stroke="#E32736" stroke-width="0.05" fill="none"/><text font-family="Arial" font-size="0.14" text-anchor="middle" x="0" y="-0.381" fill="DarkGray">0401</text></g><text transform="translate(34.5,3) scale(1.1547 1)" font-family="Arial" font-size="0.14" text-anchor="middle" x="0" y="-0.381" fill="DarkGray">0403</text><g transform="translate(34.5,7) scale(1.1547 1)"><circle r="0.4" cx="0" cy="0" stroke="#FFCC00" stroke-width="0.05" fill="none"/><text font-family="Arial" font-size="0.14" text-anchor="middle" x="0" y="-0.381" fill="DarkGray">0407</text></g><text transform="translate(34.5,10) scale(1.1547 1)" font-family="Arial" font-size="0.14" text-anchor="middle" x="0" y="-0.381" fill="DarkGray">0410</text><text transform="translate(35.5,4.5) scale(1.1547 1)" font-family="Arial" font-size="0.14" text-anchor="middle" x="0" y="-0.381" fill="DarkGray">0505</text><text transform="translate(35.5,5.5) scale(1.1547 1)" font-family="Arial" font-size="0.14" text-anchor="middle" x="0" y="-0.381" fill="DarkGray">0506</text><text transform="translate(35.5,7.5) scale(1.1547 1)" font-family="Arial" font-size="0.14" text-anchor="middle" x="0" y="-0.381" fill="DarkGray">0508</text><text transform="translate(35.5,9.5) scale(1.1547 1)" font-family="Arial" font-size="0.14" text-anchor="middle" x="0" y="-0.381" fill="DarkGray">0510</text><text transform="translate(36.5,3) scale(1.1547 1)" font-family="Arial" font-size="0.14" text-anchor="middle" x="0" y="-0.381" fill="DarkGray">0603</text><g transform="translate(36.5,5) scale(1.1547 1)"><circle r="0.4" cx="0" cy="0" stroke="#FFCC00" stroke-width="0.05" fill="none"/><text font-family="Arial" font-size="0.14" text-anchor="middle" x="0" y="-0.381" fill="DarkGray">0605</text></g><text transform="translate(36.5,7) scale(1.1547 1)" font-family="Arial" font-size="0.14" text-anchor="middle" x="0" y="-0.381" fill="DarkGray">0607</text><text transform="translate(37.5,0.5) scale(1.1547 1)" font-family="Arial" font-size="0.14" text-anchor="middle" x="0" y="-0.381" fill="DarkGray">0701</text><text transform="translate(37.5,1.5) scale(1.1547 1)" font-family="Arial" font-size="0.14" text-anchor="middle" x="0" y="-0.381" fill="DarkGray">0702</text><text transform="translate(37.5,2.5) scale(1.1547 1)" font-family="Arial" font-size="0.14" text-anchor="middle" x="0" y="-0.381" fill="DarkGray">0703</text><text transform="translate(37.5,4.5) scale(1.1547 1)" font-family="Arial" font-size="0.14" text-anchor="middle" x="0" y="-0.381" fill="DarkGray">0705</text><g transform="translate(37.5,5.5) scale(1.1547 1)"><circle r="0.4" cx="0" cy="0" stroke="#FFCC00" stroke-width="0.05" fill="none"/><text font-family="Arial" font-size="0.14" text-anchor="middle" x="0" y="-0.381" fill="DarkGray">0706</text></g><text transform="translate(37.5,8.5) scale(1.1547 1)" font-family="Arial" font-size="0.14" text-anchor="middle" x="0" y="-0.381" fill="DarkGray">0709</text><text transform="translate(38.5,2) scale(1.1547 1)" font-family="Arial" font-size="0.14" text-anchor="middle" x="0" y="-0.381" fill="DarkGray">0802</text><text transform="translate(38.5,3) scale(1.1547 1)" font-family="Arial" font-size="0.14" text-anchor="middle" x="0" y="-0.381" fill="DarkGray">0803</text><text transform="translate(38.5,4) scale(1.1547 1)" font-family="Arial" font-size="0.14" text-anchor="middle" x="0" y="-0.381" fill="DarkGray">0804</text></g><g transform="translate(31.5,1.5) scale(1.1547 1)"><circle transform="translate(0.25,-0.18)" r="0.05" cx="0" cy="0" stroke="none" fill="Black"/><rect x="-0.113084" y="-0.35543" width="0.226167" height="0.260859" stroke="none" fill="White"/><text font-family="Arial" font-size="0.21" font-weight="bold" text-anchor="middle" x="0" y="-0.13575" fill="Black">C</text><circle r="0.1" cx="0" cy="0" stroke="none" fill="DeepSkyBlue"/><rect x="-0.425571" y="0.23957" width="0.851143" height="0.260859" stroke="none" fill="White"/><text font-family="Arial" font-size="0.21" font-weight="bold" text-anchor="middle" x="0" y="0.45925" fill="Black">Murphy</text></g><g transform="translate(31.5,2.5) scale(1.1547 1)"><circle transform="translate(0.25,-0.18)" r="0.05" cx="0" cy="0" stroke="none" fill="Black"/><rect x="-0.107136" y="-0.35543" width="0.214273" height="0.260859" stroke="none" fill="White"/><text font-family="Arial" font-size="0.21" font-weight="bold" text-anchor="middle" x="0" y="-0.13575" fill="Black">E</text><circle r="0.1" cx="0" cy="0" stroke="none" fill="DeepSkyBlue"/><rect x="-0.413677" y="0.23957" width="0.827354" height="0.260859" stroke="none" fill="White"/><text font-family="Arial" font-size="0.21" font-weight="bold" text-anchor="middle" x="0" y="0.45925" fill="Black">Oxnard</text></g><g transform="translate(31.5,4.5) scale(1.1547 1)"><circle transform="translate(0.25,-0.18)" r="0.05" cx="0" cy="0" stroke="none" fill="Black"/><rect x="-0.113084" y="-0.35543" width="0.226167" height="0.260859" stroke="none" fill="White"/><text font-family="Arial" font-size="0.21" font-weight="bold" text-anchor="middle" x="0" y="-0.13575" fill="Black">A</text><circle r="0.1" cx="0" cy="0" stroke="none" fill="DeepSkyBlue"/><rect x="-0.401526" y="0.23957" width="0.803052" height="0.260859" stroke="none" fill="White"/><text font-family="Arial" font-size="0.21" font-weight="bold" text-anchor="middle" x="0" y="0.45925" fill="Black">Dunlap</text></g><g transform="translate(31.5,5.5) scale(1.1547 1)"><rect x="-0.113084" y="-0.35543" width="0.226167" height="0.260859" stroke="none" fill="White"/><text font-family="Arial" font-size="0.21" font-weight="bold" text-anchor="middle" x="0" y="-0.13575" fill="Black">D</text><circle r="0.1" cx="0" cy="0" stroke="Black" stroke-width="0.015625" fill="White"/><rect x="-0.299397" y="0.23957" width="0.598794" height="0.260859" stroke="none" fill="White"/><text font-family="Arial" font-size="0.21" font-weight="bold" text-anchor="middle" x="0" y="0.45925" fill="Black">Wrall</text></g><g transform="translate(31.5,6.5) scale(1.1547 1)"><circle transform="translate(0.25,-0.18)" r="0.05" cx="0" cy="0" stroke="none" fill="Black"/><rect x="-0.113084" y="-0.35543" width="0.226167" height="0.260859" stroke="none" fill="White"/><text font-family="Arial" font-size="0.21" font-weight="bold" text-anchor="middle" x="0" y="-0.13575" fill="Black">B</text><circle r="0.1" cx="0" cy="0" stroke="none" fill="DeepSkyBlue"/><rect x="-0.617986" y="0.23957" width="1.23597" height="0.260859" stroke="none" fill="White"/><text font-family="Arial" font-size="0.21" font-weight="bold" text-anchor="middle" x="0" y="0.45925" fill="#E32736">McPherson</text></g><g transform="translate(31.5,7.5) scale(1.1547 1)"><rect x="-0.107136" y="-0.35543" width="0.214273" height="0.260859" stroke="none" fill="White"/><text font-family="Arial" font-size="0.21" font-weight="bold" text-anchor="middle" x="0" y="-0.13575" fill="Black">E</text><circle r="0.1" cx="0" cy="0" stroke="Black" stroke-width="0.015625" fill="White"/><rect x="-0.413574" y="0.23957" width="0.827148" height="0.260859" stroke="none" fill="White"/><text font-family="Arial" font-size="0.21" font-weight="bold" text-anchor="middle" x="0" y="0.45925" fill="Black">Kornag</text></g><g transform="translate(31.5,8.5) scale(1.1547 1)"><rect x="-0.113084" y="-0.35543" width="0.226167" height="0.260859" stroke="none" fill="White"/><text font-family="Arial" font-size="0.21" font-weight="bold" text-anchor="middle" x="0" y="-0.13575" fill="Black">B</text><text font-family="Arial Unicode MS,Segoe UI Symbol,Arial" font-size="0.21" font-weight="bold" text-anchor="middle" x="-0.25" y="0.26925" fill="Black">▲</text><circle r="0.1" cx="0" cy="0" stroke="none" fill="DeepSkyBlue"/><rect x="-0.35364" y="0.23957" width="0.70728" height="0.260859" stroke="none" fill="White"/><text font-family="Arial" font-size="0.21" font-weight="bold" text-anchor="middle" x="0" y="0.45925" fill="Black">Freyja</text></g><g transform="translate(31.5,9.5) scale(1.1547 1)"><circle transform="translate(0.25,-0.18)" r="0.05" cx="0" cy="0" stroke="none" fill="Black"/><rect x="-0.107136" y="-0.35543" width="0.214273" height="0.260859" stroke="none" fill="White"/><text font-family="Arial" font-size="0.21" font-weight="bold" text-anchor="middle" x="0" y="-0.13575" fill="Black">E</text><circle r="0.1" cx="0" cy="0" stroke="Black" stroke-width="0.015625" fill="White"/><rect x="-0.515857" y="0.23957" width="1.03171" height="0.260859" stroke="none" fill="White"/><text font-family="Arial" font-size="0.21" font-weight="bold" text-anchor="middle" x="0" y="0.45925" fill="Black">Ravenkin</text></g><g transform="translate(32.5,2) scale(1.1547 1)"><circle transform="translate(0.25,-0.18)" r="0.05" cx="0" cy="0" stroke="none" fill="Black"/><rect x="-0.107136" y="-0.35543" width="0.214273" height="0.260859" stroke="none" fill="White"/><text font-family="Arial" font-size="0.21" font-weight="bold" text-anchor="middle" x="0" y="-0.13575" fill="Black">X</text><circle r="0.1" cx="0" cy="0" stroke="none" fill="DeepSkyBlue"/><rect x="-0.353486" y="0.23957" width="0.706973" height="0.260859" stroke="none" fill="White"/><text font-family="Arial" font-size="0.21" font-weight="bold" text-anchor="middle" x="0" y="0.45925" fill="Black">Ewoin</text></g><g transform="translate(32.5,4) scale(1.1547 1)"><circle transform="translate(0.25,-0.18)" r="0.05" cx="0" cy="0" stroke="none" fill="Black"/><rect x="-0.113084" y="-0.35543" width="0.226167" height="0.260859" stroke="none" fill="White"/><text font-family="Arial" font-size="0.21" font-weight="bold" text-anchor="middle" x="0" y="-0.13575" fill="Black">B</text><circle r="0.1" cx="0" cy="0" stroke="Black" stroke-width="0.015625" fill="White"/><rect x="-0.209368" y="0.23957" width="0.418735" height="0.260859" stroke="none" fill="White"/><text font-family="Arial" font-size="0.21" font-weight="bold" text-anchor="middle" x="0" y="0.45925" fill="Black">Per</text></g><g transform="translate(32.5,5) scale(1.1547 1)"><circle transform="translate(0.25,-0.18)" r="0.05" cx="0" cy="0" stroke="none" fill="Black"/><rect x="-0.107136" y="-0.35543" width="0.214273" height="0.260859" stroke="none" fill="White"/><text font-family="Arial" font-size="0.21" font-weight="bold" text-anchor="middle" x="0" y="-0.13575" fill="Black">X</text><circle r="0.1" cx="0" cy="0" stroke="none" fill="DeepSkyBlue"/><rect x="-0.461819" y="0.23957" width="0.923638" height="0.260859" stroke="none" fill="White"/><text font-family="Arial" font-size="0.21" font-weight="bold" text-anchor="middle" x="0" y="0.45925" fill="Black">Dareene</text></g><g transform="translate(32.5,9) scale(1.1547 1)"><circle transform="translate(0.25,-0.18)" r="0.05" cx="0" cy="0" stroke="none" fill="Black"/><rect x="-0.113084" y="-0.35543" width="0.226167" height="0.260859" stroke="none" fill="White"/><text font-family="Arial" font-size="0.21" font-weight="bold" text-anchor="middle" x="0" y="-0.13575" fill="Black">C</text><circle r="0.1" cx="0" cy="0" stroke="none" fill="DeepSkyBlue"/><rect x="-0.677971" y="0.23957" width="1.35594" height="0.260859" stroke="none" fill="White"/><text font-family="Arial" font-size="0.21" font-weight="bold" text-anchor="middle" x="0" y="0.45925" fill="Black">Waconthaco</text></g><g transform="translate(32.5,10) scale(1.1547 1)"><circle transform="translate(0.25,-0.18)" r="0.05" cx="0" cy="0" stroke="none" fill="Black"/><rect x="-0.113084" y="-0.35543" width="0.226167" height="0.260859" stroke="none" fill="White"/><text font-family="Arial" font-size="0.21" font-weight="bold" text-anchor="middle" x="0" y="-0.13575" fill="Black">D</text><circle r="0.1" cx="0" cy="0" stroke="none" fill="DeepSkyBlue"/><rect x="-0.60604" y="0.23957" width="1.21208" height="0.260859" stroke="none" fill="White"/><text font-family="Arial" font-size="0.21" font-weight="bold" text-anchor="middle" x="0" y="0.45925" fill="Black">Ceileachan</text></g><g transform="translate(33.5,2.5) scale(1.1547 1)"><circle transform="translate(0.25,-0.18)" r="0.05" cx="0" cy="0" stroke="none" fill="Black"/><rect x="-0.113084" y="-0.35543" width="0.226167" height="0.260859" stroke="none" fill="White"/><text font-family="Arial" font-size="0.21" font-weight="bold" text-anchor="middle" x="0" y="-0.13575" fill="Black">C</text><circle r="0.1" cx="0" cy="0" stroke="none" fill="DeepSkyBlue"/><rect x="-0.365381" y="0.23957" width="0.730762" height="0.260859" stroke="none" fill="White"/><text font-family="Arial" font-size="0.21" font-weight="bold" text-anchor="middle" x="0" y="0.45925" fill="Black">ZIRAA</text></g><g transform="translate(33.5,9.5) scale(1.1547 1)"><circle transform="translate(0.25,-0.18)" r="0.05" cx="0" cy="0" stroke="none" fill="Black"/><rect x="-0.113084" y="-0.35543" width="0.226167" height="0.260859" stroke="none" fill="White"/><text font-family="Arial" font-size="0.21" font-weight="bold" text-anchor="middle" x="0" y="-0.13575" fill="Black">B</text><text font-family="Arial Unicode MS,Segoe UI Symbol,Arial" font-size="0.21" font-weight="bold" text-anchor="middle" x="-0.25" y="-0.09075" fill="Black">★</text><circle r="0.1" cx="0" cy="0" stroke="none" fill="DeepSkyBlue"/><rect x="-0.485813" y="0.23957" width="0.971626" height="0.260859" stroke="none" fill="White"/><text font-family="Arial" font-size="0.21" font-weight="bold" text-anchor="middle" x="0" y="0.45925" fill="Black">Irishmen</text></g><g transform="translate(34.5,1) scale(1.1547 1)"><circle transform="translate(0.25,-0.18)" r="0.05" cx="0" cy="0" stroke="none" fill="Black"/><rect x="-0.107136" y="-0.35543" width="0.214273" height="0.260859" stroke="none" fill="White"/><text font-family="Arial" font-size="0.21" font-weight="bold" text-anchor="middle" x="0" y="-0.13575" fill="Black">X</text><circle r="0.1" cx="0" cy="0" stroke="none" fill="DeepSkyBlue"/><rect x="-0.323442" y="0.23957" width="0.646885" height="0.260859" stroke="none" fill="White"/><text font-family="Arial" font-size="0.21" font-weight="bold" text-anchor="middle" x="0" y="0.45925" fill="Black">Lloyd</text></g><g transform="translate(34.5,3) scale(1.1547 1)"><circle transform="translate(0.25,-0.18)" r="0.05" cx="0" cy="0" stroke="none" fill="Black"/><rect x="-0.113084" y="-0.35543" width="0.226167" height="0.260859" stroke="none" fill="White"/><text font-family="Arial" font-size="0.21" font-weight="bold" text-anchor="middle" x="0" y="-0.13575" fill="Black">C</text><circle r="0.1" cx="0" cy="0" stroke="none" fill="DeepSkyBlue"/><rect x="-0.407576" y="0.23957" width="0.815151" height="0.260859" stroke="none" fill="White"/><text font-family="Arial" font-size="0.21" font-weight="bold" text-anchor="middle" x="0" y="0.45925" fill="Black">Raritan</text></g><g transform="translate(34.5,7) scale(1.1547 1)"><rect x="-0.113084" y="-0.35543" width="0.226167" height="0.260859" stroke="none" fill="White"/><text font-family="Arial" font-size="0.21" font-weight="bold" text-anchor="middle" x="0" y="-0.13575" fill="Black">C</text><circle r="0.1" cx="0" cy="0" stroke="none" fill="DeepSkyBlue"/><rect x="-0.335439" y="0.23957" width="0.670879" height="0.260859" stroke="none" fill="White"/><text font-family="Arial" font-size="0.21" font-weight="bold" text-anchor="middle" x="0" y="0.45925" fill="Black">Naldo</text></g><g transform="translate(34.5,10) scale(1.1547 1)"><circle transform="translate(0.25,-0.18)" r="0.05" cx="0" cy="0" stroke="none" fill="Black"/><rect x="-0.113084" y="-0.35543" width="0.226167" height="0.260859" stroke="none" fill="White"/><text font-family="Arial" font-size="0.21" font-weight="bold" text-anchor="middle" x="0" y="-0.13575" fill="Black">C</text><circle r="0.1" cx="0" cy="0" stroke="none" fill="DeepSkyBlue"/><rect x="-0.323442" y="0.23957" width="0.646885" height="0.260859" stroke="none" fill="White"/><text font-family="Arial" font-size="0.21" font-weight="bold" text-anchor="middle" x="0" y="0.45925" fill="Black">Wade</text></g><g transform="translate(35.5,4.5) scale(1.1547 1)"><circle transform="translate(0.25,-0.18)" r="0.05" cx="0" cy="0" stroke="none" fill="Black"/><rect x="-0.113084" y="-0.35543" width="0.226167" height="0.260859" stroke="none" fill="White"/><text font-family="Arial" font-size="0.21" font-weight="bold" text-anchor="middle" x="0" y="-0.13575" fill="Black">B</text><circle r="0.1" cx="0" cy="0" stroke="Black" stroke-width="0.015625" fill="White"/><rect x="-0.49781" y="0.23957" width="0.99562" height="0.260859" stroke="none" fill="White"/><text font-family="Arial" font-size="0.21" font-weight="bold" text-anchor="middle" x="0" y="0.45925" fill="Black">Dreyfuss</text></g><g transform="translate(35.5,5.5) scale(1.1547 1)"><circle transform="translate(0.25,-0.18)" r="0.05" cx="0" cy="0" stroke="none" fill="Black"/><rect x="-0.113084" y="-0.35543" width="0.226167" height="0.260859" stroke="none" fill="White"/><text font-family="Arial" font-size="0.21" font-weight="bold" text-anchor="middle" x="0" y="-0.13575" fill="Black">C</text><circle r="0.1" cx="0" cy="0" stroke="none" fill="DeepSkyBlue"/><rect x="-0.581995" y="0.23957" width="1.16399" height="0.260859" stroke="none" fill="White"/><text font-family="Arial" font-size="0.21" font-weight="bold" text-anchor="middle" x="0" y="0.45925" fill="Black">Theresann</text></g><g transform="translate(35.5,7.5) scale(1.1547 1)"><rect x="-0.113084" y="-0.35543" width="0.226167" height="0.260859" stroke="none" fill="White"/><text font-family="Arial" font-size="0.21" font-weight="bold" text-anchor="middle" x="0" y="-0.13575" fill="Black">B</text><circle r="0.1" cx="0" cy="0" stroke="none" fill="DeepSkyBlue"/><rect x="-0.317495" y="0.23957" width="0.63499" height="0.260859" stroke="none" fill="White"/><text font-family="Arial" font-size="0.21" font-weight="bold" text-anchor="middle" x="0" y="0.45925" fill="Black">Iason</text></g><g transform="translate(35.5,9.5) scale(1.1547 1)"><circle transform="translate(0.25,-0.18)" r="0.05" cx="0" cy="0" stroke="none" fill="Black"/><rect x="-0.113084" y="-0.35543" width="0.226167" height="0.260859" stroke="none" fill="White"/><text font-family="Arial" font-size="0.21" font-weight="bold" text-anchor="middle" x="0" y="-0.13575" fill="Black">C</text><ellipse rx="0.0338221" ry="0.025648" cx="0" cy="-0.07" stroke="none" fill="Black"/><ellipse rx="0.0277949" ry="0.0300278" cx="-0.035" cy="0" stroke="none" fill="Black"/><ellipse rx="0.0227227" ry="0.0257027" cx="0.035" cy="0" stroke="none" fill="Black"/><ellipse rx="0.0260188" ry="0.0227129" cx="0.105" cy="0" stroke="none" fill="Black"/><ellipse rx="0.0277297" ry="0.0338363" cx="0" cy="0.07" stroke="none" fill="Black"/><ellipse rx="0.0339343" ry="0.0220031" cx="0.07" cy="0.07" stroke="none" fill="Black"/><rect x="-0.329492" y="0.23957" width="0.658984" height="0.260859" stroke="none" fill="White"/><text font-family="Arial" font-size="0.21" font-weight="bold" text-anchor="middle" x="0" y="0.45925" fill="Black">Pabst</text></g><g transform="translate(36.5,3) scale(1.1547 1)"><circle transform="translate(0.25,-0.18)" r="0.05" cx="0" cy="0" stroke="none" fill="Black"/><rect x="-0.113084" y="-0.35543" width="0.226167" height="0.260859" stroke="none" fill="White"/><text font-family="Arial" font-size="0.21" font-weight="bold" text-anchor="middle" x="0" y="-0.13575" fill="Black">D</text><circle r="0.1" cx="0" cy="0" stroke="none" fill="DeepSkyBlue"/><rect x="-0.281453" y="0.23957" width="0.562905" height="0.260859" stroke="none" fill="White"/><text font-family="Arial" font-size="0.21" font-weight="bold" text-anchor="middle" x="0" y="0.45925" fill="Black">Iaian</text></g><g transform="translate(36.5,5) scale(1.1547 1)"><circle transform="translate(0.25,-0.18)" r="0.05" cx="0" cy="0" stroke="none" fill="Black"/><rect x="-0.113084" y="-0.35543" width="0.226167" height="0.260859" stroke="none" fill="White"/><text font-family="Arial" font-size="0.21" font-weight="bold" text-anchor="middle" x="0" y="-0.13575" fill="Black">D</text><circle r="0.1" cx="0" cy="0" stroke="none" fill="DeepSkyBlue"/><rect x="-0.341387" y="0.23957" width="0.682773" height="0.260859" stroke="none" fill="White"/><text font-family="Arial" font-size="0.21" font-weight="bold" text-anchor="middle" x="0" y="0.45925" fill="Black">ADER</text></g><g transform="translate(36.5,7) scale(1.1547 1)"><circle transform="translate(0.25,-0.18)" r="0.05" cx="0" cy="0" stroke="none" fill="Black"/><rect x="-0.113084" y="-0.35543" width="0.226167" height="0.260859" stroke="none" fill="White"/><text font-family="Arial" font-size="0.21" font-weight="bold" text-anchor="middle" x="0" y="-0.13575" fill="Black">C</text><circle r="0.1" cx="0" cy="0" stroke="Black" stroke-width="0.015625" fill="White"/><rect x="-0.425623" y="0.23957" width="0.851245" height="0.260859" stroke="none" fill="White"/><text font-family="Arial" font-size="0.21" font-weight="bold" text-anchor="middle" x="0" y="0.45925" fill="Black">Walters</text></g><g transform="translate(37.5,0.5) scale(1.1547 1)"><rect x="-0.113084" y="-0.35543" width="0.226167" height="0.260859" stroke="none" fill="White"/><text font-family="Arial" font-size="0.21" font-weight="bold" text-anchor="middle" x="0" y="-0.13575" fill="Black">C</text><circle r="0.1" cx="0" cy="0" stroke="none" fill="DeepSkyBlue"/><rect x="-0.263457" y="0.23957" width="0.526914" height="0.260859" stroke="none" fill="White"/><text font-family="Arial" font-size="0.21" font-weight="bold" text-anchor="middle" x="0" y="0.45925" fill="Black">Jazz</text></g><g transform="translate(37.5,1.5) scale(1.1547 1)"><circle transform="translate(0.25,-0.18)" r="0.05" cx="0" cy="0" stroke="none" fill="Black"/><rect x="-0.113084" y="-0.35543" width="0.226167" height="0.260859" stroke="none" fill="White"/><text font-family="Arial" font-size="0.21" font-weight="bold" text-anchor="middle" x="0" y="-0.13575" fill="Black">C</text><circle r="0.1" cx="0" cy="0" stroke="none" fill="DeepSkyBlue"/><rect x="-0.563948" y="0.23957" width="1.1279" height="0.260859" stroke="none" fill="White"/><text font-family="Arial" font-size="0.21" font-weight="bold" text-anchor="middle" x="0" y="0.45925" fill="Black">Newcastle</text></g><g transform="translate(37.5,2.5) scale(1.1547 1)"><circle transform="translate(0.25,-0.18)" r="0.05" cx="0" cy="0" stroke="none" fill="Black"/><rect x="-0.113084" y="-0.35543" width="0.226167" height="0.260859" stroke="none" fill="White"/><text font-family="Arial" font-size="0.21" font-weight="bold" text-anchor="middle" x="0" y="-0.13575" fill="Black">A</text><circle r="0.1" cx="0" cy="0" stroke="none" fill="DeepSkyBlue"/><rect x="-0.503757" y="0.23957" width="1.00752" height="0.260859" stroke="none" fill="White"/><text font-family="Arial" font-size="0.21" font-weight="bold" text-anchor="middle" x="0" y="0.45925" fill="Black">Krishnan</text></g><g transform="translate(37.5,4.5) scale(1.1547 1)"><circle transform="translate(0.25,-0.18)" r="0.05" cx="0" cy="0" stroke="none" fill="Black"/><rect x="-0.107136" y="-0.35543" width="0.214273" height="0.260859" stroke="none" fill="White"/><text font-family="Arial" font-size="0.21" font-weight="bold" text-anchor="middle" x="0" y="-0.13575" fill="Black">E</text><circle r="0.1" cx="0" cy="0" stroke="none" fill="DeepSkyBlue"/><rect x="-0.305396" y="0.23957" width="0.610791" height="0.260859" stroke="none" fill="White"/><text font-family="Arial" font-size="0.21" font-weight="bold" text-anchor="middle" x="0" y="0.45925" fill="Black">Deng</text></g><g transform="translate(37.5,5.5) scale(1.1547 1)"><circle transform="translate(0.25,-0.18)" r="0.05" cx="0" cy="0" stroke="none" fill="Black"/><rect x="-0.113084" y="-0.35543" width="0.226167" height="0.260859" stroke="none" fill="White"/><text font-family="Arial" font-size="0.21" font-weight="bold" text-anchor="middle" x="0" y="-0.13575" fill="Black">B</text><circle r="0.1" cx="0" cy="0" stroke="none" fill="DeepSkyBlue"/><rect x="-0.612141" y="0.23957" width="1.22428" height="0.260859" stroke="none" fill="White"/><text font-family="Arial" font-size="0.21" font-weight="bold" text-anchor="middle" x="0" y="0.45925" fill="Black">Everglades</text></g><g transform="translate(37.5,8.5) scale(1.1547 1)"><circle transform="translate(0.25,-0.18)" r="0.05" cx="0" cy="0" stroke="none" fill="Black"/><rect x="-0.113084" y="-0.35543" width="0.226167" height="0.260859" stroke="none" fill="White"/><text font-family="Arial" font-size="0.21" font-weight="bold" text-anchor="middle" x="0" y="-0.13575" fill="Black">B</text><circle r="0.1" cx="0" cy="0" stroke="none" fill="DeepSkyBlue"/><rect x="-0.473662" y="0.23957" width="0.947324" height="0.260859" stroke="none" fill="White"/><text font-family="Arial" font-size="0.21" font-weight="bold" text-anchor="middle" x="0" y="0.45925" fill="Black">Modesta</text></g><g transform="translate(38.5,2) scale(1.1547 1)"><circle transform="translate(0.25,-0.18)" r="0.05" cx="0" cy="0" stroke="none" fill="Black"/><rect x="-0.107136" y="-0.35543" width="0.214273" height="0.260859" stroke="none" fill="White"/><text font-family="Arial" font-size="0.21" font-weight="bold" text-anchor="middle" x="0" y="-0.13575" fill="Black">E</text><circle r="0.1" cx="0" cy="0" stroke="Black" stroke-width="0.015625" fill="White"/><rect x="-0.40168" y="0.23957" width="0.803359" height="0.260859" stroke="none" fill="White"/><text font-family="Arial" font-size="0.21" font-weight="bold" text-anchor="middle" x="0" y="0.45925" fill="Black">Darken</text></g><g transform="translate(38.5,3) scale(1.1547 1)"><circle transform="translate(0.25,-0.18)" r="0.05" cx="0" cy="0" stroke="none" fill="Black"/><rect x="-0.113084" y="-0.35543" width="0.226167" height="0.260859" stroke="none" fill="White"/><text font-family="Arial" font-size="0.21" font-weight="bold" text-anchor="middle" x="0" y="-0.13575" fill="Black">C</text><circle r="0.1" cx="0" cy="0" stroke="none" fill="DeepSkyBlue"/><rect x="-0.473765" y="0.23957" width="0.947529" height="0.260859" stroke="none" fill="White"/><text font-family="Arial" font-size="0.21" font-weight="bold" text-anchor="middle" x="0" y="0.45925" fill="Black">Drumma</text></g><g transform="translate(38.5,4) scale(1.1547 1)"><circle transform="translate(0.25,-0.18)" r="0.05" cx="0" cy="0" stroke="none" fill="Black"/><rect x="-0.107136" y="-0.35543" width="0.214273" height="0.260859" stroke="none" fill="White"/><text font-family="Arial" font-size="0.21" font-weight="bold" text-anchor="middle" x="0" y="-0.13575" fill="Black">E</text><circle r="0.1" cx="0" cy="0" stroke="Black" stroke-width="0.015625" fill="White"/><rect x="-0.467664" y="0.23957" width="0.935327" height="0.260859" stroke="none" fill="White"/><text font-family="Arial" font-size="0.21" font-weight="bold" text-anchor="middle" x="0" y="0.45925" fill="Black">Metellus</text></g></g></svg>