<?xml version = "1.0" encoding="utf-8"?>
<svg version="1.1" baseProfile="full" xmlns="http://www.w3.org/2000/svg" xmlns:xlink="http://www.w3.org/1999/xlink" width="471" height="684" viewBox="0 0 471 684" clip="0 471 0 684"><defs><clipPath id="did1"><rect x="-33.25" y="89.9" width="8.5" height="10.7"/></clipPath><clipPath id="did2"><path d="M-33.8333,80.5l-0.333336,-0.5l0.333336,-0.5h0.666664l0.333336,-0.5h0.666664l0.333334,0.5h0.666668l0.333332,-0.5h0.666668l0.333332,0.5h0.666668l0.333332,-0.5h0.666668l0.333332,0.5h0.666668l0.333332,-0.5h0.666668l0.333332,0.5h0.666668l0.333332,-0.5h0.666668l0.333332,0.5h0.666668l0.333332,-0.5h0.666668l0.333332,0.5l-0.333332,0.5l0.333332,0.5h0.666668l0.333332,0.5h0.666668l0.333332,0.5l-0.333332,0.5l0.333332,0.5h0.666668l0.333332,0.5h0.666668l0.333332,0.5h0.666668l0.333332,0.5l-0.333332,0.5l0.333332,0.5l-0.333332,0.5l0.333332,0.5h0.666668l0.333333,0.5h0.666666l0.333334,0.5l-0.333334,0.5l0.333334,0.5l-0.333334,0.5l0.333334,0.5h0.666666l0.333334,0.5h0.666666l0.333334,-0.5h0.666666l0.333334,0.5h0.666666l0.333334,0.5h0.666666l0.333334,-0.5h0.666666l0.333334,-0.5h0.666666l0.333334,0.5l-0.333334,0.5h-0.666666l-0.333334,0.5h-0.666666l-0.333334,0.5h-0.666666l-0.333334,0.5l0.333334,0.5l-0.333334,0.5l0.333334,0.5h0.666666l0.333334,0.5l-0.333334,0.5h-0.666666l-0.333334,-0.5h-0.666666l-0.333334,0.5l0.333334,0.5l-0.333334,0.5l0.333334,0.5h0.666666l0.333334,0.5h0.666666l0.333334,0.5l-0.333334,0.5h-0.666666l-0.333334,0.5l0.333334,0.5l-0.333334,0.5l0.333334,0.5h0.666666l0.333334,-0.5h0.666666l0.333334,0.5l-0.333334,0.5h-0.666666l-0.333334,0.5h-0.666666l-0.333334,0.5h-0.666666l-0.333334,0.5l0.333334,0.5l-0.333334,0.5l0.333334,0.5h0.666666l0.333334,0.5h0.666666l0.333334,0.5h0.666666l0.333334,0.5h0.666666l0.333334,0.5h0.666667l0.333333,0.5h0.666667l0.333333,0.5l-0.333333,0.5h-0.666667l-0.333333,0.5h-0.666667l-0.333334,0.5l0.333334,0.5l-0.333334,0.5l0.333334,0.5l-0.333334,0.5l0.333334,0.5h0.666667l0.333333,-0.5l-0.333333,-0.5l0.333333,-0.5h0.666667l0.333333,0.5l-0.333333,0.5l0.333333,0.5l-0.333333,0.5l0.333333,0.5l-0.333333,0.5h-0.666667l-0.333333,-0.5h-0.666667l-0.333334,0.5l0.333334,0.5h0.666667l0.333333,0.5h0.666667l0.333333,-0.5h0.666667l0.333333,-0.5h0.666667l0.333333,-0.5h0.666667l0.333334,0.5h0.666667l0.333334,0.5h0.666667l0.333333,-0.5h0.666667l0.333333,0.5l-0.333333,0.5l0.333333,0.5l-0.333333,0.5l0.333333,0.5l-0.333333,0.5l0.333333,0.5l-0.333333,0.5l0.333333,0.5l-0.333333,0.5l0.333333,0.5l-0.333333,0.5l0.333333,0.5l-0.333333,0.5l0.333333,0.5l-0.333333,0.5l0.333333,0.5l-0.333333,0.5l0.333333,0.5l-0.333333,0.5h-0.666667l-0.333333,0.5h-0.666667l-0.333334,-0.5h-0.666667l-0.333334,0.5h-0.666667l-0.333333,-0.5h-0.666667l-0.333333,0.5h-0.666667l-0.333333,-0.5h-0.666667l-0.333333,0.5h-0.666667l-0.333334,-0.5h-0.666666l-0.333334,0.5h-0.666666l-0.333334,-0.5h-0.666666l-0.333334,0.5h-0.666666l-0.333334,-0.5h-0.666666l-0.333334,0.5h-0.666666l-0.333334,-0.5h-0.666666l-0.333334,0.5h-0.666666l-0.333333,-0.5h-0.666668l-0.333332,0.5h-0.666668l-0.333332,-0.5h-0.666668l-0.333332,0.5h-0.666668l-0.333332,-0.5h-0.666668l-0.333332,0.5h-0.666668l-0.333332,-0.5h-0.666668l-0.333332,0.5h-0.666668l-0.333332,-0.5h-0.666668l-0.333332,0.5h-0.666668l-0.333332,-0.5h-0.666668l-0.333332,0.5h-0.666668l-0.333332,-0.5h-0.666668l-0.333332,0.5h-0.666668l-0.333332,-0.5h-0.666668l-0.333332,0.5h-0.666668l-0.333334,-0.5h-0.666664l-0.333336,0.5h-0.666664l-0.333336,-0.5l0.333336,-0.5l-0.333336,-0.5l0.333336,-0.5l-0.333336,-0.5l0.333336,-0.5l-0.333336,-0.5l0.333336,-0.5l-0.333336,-0.5l0.333336,-0.5l-0.333336,-0.5l0.333336,-0.5l-0.333336,-0.5l0.333336,-0.5l-0.333336,-0.5l0.333336,-0.5l-0.333336,-0.5l0.333336,-0.5l-0.333336,-0.5l0.333336,-0.5l-0.333336,-0.5l0.333336,-0.5l-0.333336,-0.5l0.333336,-0.5l-0.333336,-0.5l0.333336,-0.5l-0.333336,-0.5l0.333336,-0.5l-0.333336,-0.5l0.333336,-0.5l-0.333336,-0.5l0.333336,-0.5l-0.333336,-0.5l0.333336,-0.5l-0.333336,-0.5l0.333336,-0.5l-0.333336,-0.5l0.333336,-0.5l-0.333336,-0.5l0.333336,-0.5l-0.333336,-0.5l0.333336,-0.5l-0.333336,-0.5l0.333336,-0.5l-0.333336,-0.5l0.333336,-0.5l-0.333336,-0.5l0.333336,-0.5l-0.333336,-0.5l0.333336,-0.5l-0.333336,-0.5l0.333336,-0.5l-0.333336,-0.5l0.333336,-0.5l-0.333336,-0.5l0.333336,-0.5l-0.333336,-0.5l0.333336,-0.5l-0.333336,-0.5l0.333336,-0.5l-0.333336,-0.5l0.333336,-0.5l-0.333336,-0.5l0.333336,-0.5l-0.333336,-0.5l0.333336,-0.5l-0.333336,-0.5l0.333336,-0.5l-0.333336,-0.5l0.333336,-0.5l-0.333336,-0.5l0.333336,-0.5l-0.333336,-0.5l0.333336,-0.5l-0.333336,-0.5l0.333336,-0.5l-0.333336,-0.5l0.333336,-0.5l-0.333336,-0.5l0.333336,-0.5l-0.333336,-0.5Z"/></clipPath><clipPath id="did3"><path d="M-20.8333,87l-0.333332,-0.5l0.333332,-0.5h0.666668l0.333332,0.5h0.666668l0.333332,0.5l-0.333332,0.5l0.333332,0.5l-0.333332,0.5h-0.666668l-0.333332,-0.5l0.333332,-0.5l-0.333332,-0.5Z"/></clipPath><clipPath id="did4"><path d="M-22.8333,93l-0.333332,-0.5l0.333332,-0.5h0.666668l0.333332,-0.5l-0.333332,-0.5l0.333332,-0.5l-0.333332,-0.5l0.333332,-0.5l-0.333332,-0.5l0.333332,-0.5h0.666668l0.333332,0.5h0.666668l0.333332,0.5h0.666668l0.333332,0.5h0.666668l0.333332,0.5l-0.333332,0.5l0.333332,0.5l-0.333332,0.5l0.333332,0.5l-0.333332,0.5l0.333332,0.5l-0.333332,0.5l0.333332,0.5l-0.333332,0.5l0.333332,0.5l-0.333332,0.5l0.333332,0.5l-0.333332,0.5h-0.666668l-0.333332,-0.5l0.333332,-0.5l-0.333332,-0.5l0.333332,-0.5l-0.333332,-0.5l0.333332,-0.5l-0.333332,-0.5l0.333332,-0.5l-0.333332,-0.5h-0.666668l-0.333332,-0.5h-0.666668l-0.333332,0.5h-0.666668l-0.333332,0.5l0.333332,0.5h0.666668l0.333332,0.5l-0.333332,0.5h-0.666668l-0.333332,0.5l0.333332,0.5l-0.333332,0.5h-0.666668l-0.333332,-0.5l0.333332,-0.5l-0.333332,-0.5l0.333332,-0.5l-0.333332,-0.5Z"/></clipPath><clipPath id="did5"><path d="M-16.8333,93l-0.333332,-0.5l0.333332,-0.5h0.666668l0.333333,-0.5h0.666666l0.333334,-0.5l-0.333334,-0.5l0.333334,-0.5h0.666666l0.333334,0.5l-0.333334,0.5l0.333334,0.5h0.666666l0.333334,0.5l-0.333334,0.5h-0.666666l-0.333334,0.5l0.333334,0.5l-0.333334,0.5l0.333334,0.5l-0.333334,0.5l0.333334,0.5l-0.333334,0.5l0.333334,0.5l-0.333334,0.5l0.333334,0.5l-0.333334,0.5l0.333334,0.5h0.666666l0.333334,0.5l-0.333334,0.5h-0.666666l-0.333334,-0.5h-0.666666l-0.333334,-0.5l0.333334,-0.5l-0.333334,-0.5h-0.666666l-0.333333,-0.5l0.333333,-0.5l-0.333333,-0.5l0.333333,-0.5l-0.333333,-0.5l0.333333,-0.5l-0.333333,-0.5h-0.666668l-0.333332,-0.5Z"/></clipPath><clipPath id="did6"><path d="M-31.8333,83.5l-0.333334,-0.5l0.333334,-0.5h0.666668l0.333332,0.5h0.666668l0.333332,0.5h0.666668l0.333332,0.5l-0.333332,0.5h-0.666668l-0.333332,-0.5h-0.666668l-0.333332,0.5l0.333332,0.5l-0.333332,0.5h-0.666668l-0.333334,-0.5l0.333334,-0.5l-0.333334,-0.5Z"/></clipPath><clipPath id="did7"><path d="M-27.8333,81.5l-0.333332,-0.5l0.333332,-0.5h0.666668l0.333332,-0.5h0.666668l0.333332,0.5l-0.333332,0.5h-0.666668l-0.333332,0.5Z"/></clipPath><clipPath id="did8"><path d="M-31.8333,90.5l-0.333334,-0.5l0.333334,-0.5h0.666668l0.333332,0.5l-0.333332,0.5l0.333332,0.5l-0.333332,0.5h-0.666668l-0.333334,-0.5Z"/></clipPath><clipPath id="did9"><path d="M-19.8333,80.5l-0.333332,-0.5l0.333332,-0.5h0.666668l0.333332,-0.5h0.666668l0.333332,0.5h0.666668l0.333332,-0.5h0.666668l0.333333,0.5h0.666666l0.333334,-0.5h0.666666l0.333334,0.5h0.666666l0.333334,-0.5h0.666666l0.333334,0.5h0.666666l0.333334,-0.5h0.666666l0.333334,0.5h0.666666l0.333334,-0.5h0.666666l0.333334,0.5h0.666667l0.333333,-0.5h0.666667l0.333333,0.5h0.666667l0.333333,-0.5h0.666667l0.333333,0.5h0.666667l0.333334,-0.5h0.666667l0.333334,0.5h0.666667l0.333333,-0.5h0.666667l0.333333,0.5l-0.333333,0.5l0.333333,0.5l-0.333333,0.5l0.333333,0.5l-0.333333,0.5l0.333333,0.5l-0.333333,0.5l0.333333,0.5l-0.333333,0.5l0.333333,0.5l-0.333333,0.5l0.333333,0.5l-0.333333,0.5l0.333333,0.5l-0.333333,0.5l0.333333,0.5l-0.333333,0.5l0.333333,0.5l-0.333333,0.5l0.333333,0.5l-0.333333,0.5l0.333333,0.5l-0.333333,0.5l0.333333,0.5l-0.333333,0.5l0.333333,0.5l-0.333333,0.5l0.333333,0.5l-0.333333,0.5l0.333333,0.5l-0.333333,0.5l0.333333,0.5l-0.333333,0.5l0.333333,0.5l-0.333333,0.5l0.333333,0.5l-0.333333,0.5l0.333333,0.5l-0.333333,0.5l0.333333,0.5l-0.333333,0.5l0.333333,0.5l-0.333333,0.5l0.333333,0.5l-0.333333,0.5l0.333333,0.5l-0.333333,0.5l0.333333,0.5l-0.333333,0.5l0.333333,0.5l-0.333333,0.5l0.333333,0.5l-0.333333,0.5l0.333333,0.5l-0.333333,0.5h-0.666667l-0.333333,0.5l0.333333,0.5l-0.333333,0.5l0.333333,0.5l-0.333333,0.5l0.333333,0.5l-0.333333,0.5l0.333333,0.5l-0.333333,0.5h-0.666667l-0.333334,-0.5h-0.666667l-0.333334,-0.5h-0.666667l-0.333333,0.5h-0.666667l-0.333333,0.5h-0.666667l-0.333333,0.5h-0.666667l-0.333333,-0.5h-0.666667l-0.333334,-0.5l0.333334,-0.5h0.666667l0.333333,0.5h0.666667l0.333333,-0.5l-0.333333,-0.5l0.333333,-0.5l-0.333333,-0.5l0.333333,-0.5l-0.333333,-0.5h-0.666667l-0.333333,0.5h-0.666667l-0.333334,-0.5l0.333334,-0.5h0.666667l0.333333,-0.5l-0.333333,-0.5l0.333333,-0.5h0.666667l0.333333,-0.5l-0.333333,-0.5h-0.666667l-0.333333,-0.5h-0.666667l-0.333334,-0.5h-0.666666l-0.333334,-0.5h-0.666666l-0.333334,-0.5l0.333334,-0.5l-0.333334,-0.5h-0.666666l-0.333334,-0.5l0.333334,-0.5l-0.333334,-0.5l0.333334,-0.5h0.666666l0.333334,-0.5h0.666666l0.333334,-0.5l-0.333334,-0.5h-0.666666l-0.333334,0.5h-0.666666l-0.333334,-0.5l0.333334,-0.5h0.666666l0.333334,-0.5l-0.333334,-0.5l0.333334,-0.5l-0.333334,-0.5h-0.666666l-0.333334,-0.5h-0.666666l-0.333334,-0.5l0.333334,-0.5l-0.333334,-0.5l0.333334,-0.5h0.666666l0.333334,0.5h0.666666l0.333334,-0.5l-0.333334,-0.5h-0.666666l-0.333334,-0.5l0.333334,-0.5l-0.333334,-0.5l0.333334,-0.5h0.666666l0.333334,-0.5h0.666666l0.333334,-0.5h0.666666l0.333334,-0.5l-0.333334,-0.5h-0.666666l-0.333334,0.5h-0.666666l-0.333334,0.5h-0.666666l-0.333334,-0.5h-0.666666l-0.333334,-0.5h-0.666666l-0.333334,0.5h-0.666666l-0.333334,-0.5h-0.666666l-0.333334,-0.5l0.333334,-0.5l-0.333334,-0.5l0.333334,-0.5l-0.333334,-0.5h-0.666666l-0.333333,-0.5l0.333333,-0.5l-0.333333,-0.5l0.333333,-0.5l-0.333333,-0.5l0.333333,-0.5l-0.333333,-0.5l0.333333,-0.5l-0.333333,-0.5h-0.666668l-0.333332,-0.5h-0.666668l-0.333332,-0.5h-0.666668l-0.333332,-0.5Z"/></clipPath><clipPath id="did10"><rect x="-33.25" y="89.9" width="8.5" height="10.7"/></clipPath><clipPath id="did11"><rect x="-33.25" y="89.9" width="8.5" height="10.7"/></clipPath></defs><g fill="None" stroke="None" transform="matrix(1,0,0,1,0,0) matrix(55.4256,0,0,64,1842.9,-5753.6)"><g clip-path="url(#did1)"><rect x="-34.1" y="88.83" width="10.2" height="12.84" stroke="none" fill="White"/><path d="M-35.1667,88.5v0l0.333336,0.5h0.666664l0.333336,-0.5" stroke="#808080" stroke-width="0.015625" fill="none"/><path d="M-35.1667,89.5v0l0.333336,0.5h0.666664l0.333336,-0.5" stroke="#808080" stroke-width="0.015625" fill="none"/><path d="M-35.1667,90.5v0l0.333336,0.5h0.666664l0.333336,-0.5" stroke="#808080" stroke-width="0.015625" fill="none"/><path d="M-35.1667,91.5v0l0.333336,0.5h0.666664l0.333336,-0.5" stroke="#808080" stroke-width="0.015625" fill="none"/><path d="M-35.1667,92.5v0l0.333336,0.5h0.666664l0.333336,-0.5" stroke="#808080" stroke-width="0.015625" fill="none"/><path d="M-35.1667,93.5v0l0.333336,0.5h0.666664l0.333336,-0.5" stroke="#808080" stroke-width="0.015625" fill="none"/><path d="M-35.1667,94.5v0l0.333336,0.5h0.666664l0.333336,-0.5" stroke="#808080" stroke-width="0.015625" fill="none"/><path d="M-35.1667,95.5v0l0.333336,0.5h0.666664l0.333336,-0.5" stroke="#808080" stroke-width="0.015625" fill="none"/><path d="M-35.1667,96.5v0l0.333336,0.5h0.666664l0.333336,-0.5" stroke="#808080" stroke-width="0.015625" fill="none"/><path d="M-35.1667,97.5v0l0.333336,0.5h0.666664l0.333336,-0.5" stroke="#808080" stroke-width="0.015625" fill="none"/><path d="M-35.1667,98.5v0l0.333336,0.5h0.666664l0.333336,-0.5" stroke="#808080" stroke-width="0.015625" fill="none"/><path d="M-35.1667,99.5v0l0.333336,0.5h0.666664l0.333336,-0.5" stroke="#808080" stroke-width="0.015625" fill="none"/><path d="M-35.1667,100.5v0l0.333336,0.5h0.666664l0.333336,-0.5" stroke="#808080" stroke-width="0.015625" fill="none"/><path d="M-34.1667,89v0l0.333336,0.5h0.666664l0.333336,-0.5" stroke="#808080" stroke-width="0.015625" fill="none"/><path d="M-34.1667,90v0l0.333336,0.5h0.666664l0.333336,-0.5" stroke="#808080" stroke-width="0.015625" fill="none"/><path d="M-34.1667,91v0l0.333336,0.5h0.666664l0.333336,-0.5" stroke="#808080" stroke-width="0.015625" fill="none"/><path d="M-34.1667,92v0l0.333336,0.5h0.666664l0.333336,-0.5" stroke="#808080" stroke-width="0.015625" fill="none"/><path d="M-34.1667,93v0l0.333336,0.5h0.666664l0.333336,-0.5" stroke="#808080" stroke-width="0.015625" fill="none"/><path d="M-34.1667,94v0l0.333336,0.5h0.666664l0.333336,-0.5" stroke="#808080" stroke-width="0.015625" fill="none"/><path d="M-34.1667,95v0l0.333336,0.5h0.666664l0.333336,-0.5" stroke="#808080" stroke-width="0.015625" fill="none"/><path d="M-34.1667,96v0l0.333336,0.5h0.666664l0.333336,-0.5" stroke="#808080" stroke-width="0.015625" fill="none"/><path d="M-34.1667,97v0l0.333336,0.5h0.666664l0.333336,-0.5" stroke="#808080" stroke-width="0.015625" fill="none"/><path d="M-34.1667,98v0l0.333336,0.5h0.666664l0.333336,-0.5" stroke="#808080" stroke-width="0.015625" fill="none"/><path d="M-34.1667,99v0l0.333336,0.5h0.666664l0.333336,-0.5" stroke="#808080" stroke-width="0.015625" fill="none"/><path d="M-34.1667,100v0l0.333336,0.5h0.666664l0.333336,-0.5" stroke="#808080" stroke-width="0.015625" fill="none"/><path d="M-34.1667,101v0l0.333336,0.5h0.666664l0.333336,-0.5" stroke="#808080" stroke-width="0.015625" fill="none"/><path d="M-33.1667,88.5v0l0.333336,0.5h0.666664l0.333334,-0.5" stroke="#808080" stroke-width="0.015625" fill="none"/><path d="M-33.1667,89.5v0l0.333336,0.5h0.666664l0.333334,-0.5" stroke="#808080" stroke-width="0.015625" fill="none"/><path d="M-33.1667,90.5v0l0.333336,0.5h0.666664l0.333334,-0.5" stroke="#808080" stroke-width="0.015625" fill="none"/><path d="M-33.1667,91.5v0l0.333336,0.5h0.666664l0.333334,-0.5" stroke="#808080" stroke-width="0.015625" fill="none"/><path d="M-33.1667,92.5v0l0.333336,0.5h0.666664l0.333334,-0.5" stroke="#808080" stroke-width="0.015625" fill="none"/><path d="M-33.1667,93.5v0l0.333336,0.5h0.666664l0.333334,-0.5" stroke="#808080" stroke-width="0.015625" fill="none"/><path d="M-33.1667,94.5v0l0.333336,0.5h0.666664l0.333334,-0.5" stroke="#808080" stroke-width="0.015625" fill="none"/><path d="M-33.1667,95.5v0l0.333336,0.5h0.666664l0.333334,-0.5" stroke="#808080" stroke-width="0.015625" fill="none"/><path d="M-33.1667,96.5v0l0.333336,0.5h0.666664l0.333334,-0.5" stroke="#808080" stroke-width="0.015625" fill="none"/><path d="M-33.1667,97.5v0l0.333336,0.5h0.666664l0.333334,-0.5" stroke="#808080" stroke-width="0.015625" fill="none"/><path d="M-33.1667,98.5v0l0.333336,0.5h0.666664l0.333334,-0.5" stroke="#808080" stroke-width="0.015625" fill="none"/><path d="M-33.1667,99.5v0l0.333336,0.5h0.666664l0.333334,-0.5" stroke="#808080" stroke-width="0.015625" fill="none"/><path d="M-33.1667,100.5v0l0.333336,0.5h0.666664l0.333334,-0.5" stroke="#808080" stroke-width="0.015625" fill="none"/><path d="M-32.1667,89v0l0.333334,0.5h0.666668l0.333332,-0.5" stroke="#808080" stroke-width="0.015625" fill="none"/><path d="M-32.1667,90v0l0.333334,0.5h0.666668l0.333332,-0.5" stroke="#808080" stroke-width="0.015625" fill="none"/><path d="M-32.1667,91v0l0.333334,0.5h0.666668l0.333332,-0.5" stroke="#808080" stroke-width="0.015625" fill="none"/><path d="M-32.1667,92v0l0.333334,0.5h0.666668l0.333332,-0.5" stroke="#808080" stroke-width="0.015625" fill="none"/><path d="M-32.1667,93v0l0.333334,0.5h0.666668l0.333332,-0.5" stroke="#808080" stroke-width="0.015625" fill="none"/><path d="M-32.1667,94v0l0.333334,0.5h0.666668l0.333332,-0.5" stroke="#808080" stroke-width="0.015625" fill="none"/><path d="M-32.1667,95v0l0.333334,0.5h0.666668l0.333332,-0.5" stroke="#808080" stroke-width="0.015625" fill="none"/><path d="M-32.1667,96v0l0.333334,0.5h0.666668l0.333332,-0.5" stroke="#808080" stroke-width="0.015625" fill="none"/><path d="M-32.1667,97v0l0.333334,0.5h0.666668l0.333332,-0.5" stroke="#808080" stroke-width="0.015625" fill="none"/><path d="M-32.1667,98v0l0.333334,0.5h0.666668l0.333332,-0.5" stroke="#808080" stroke-width="0.015625" fill="none"/><path d="M-32.1667,99v0l0.333334,0.5h0.666668l0.333332,-0.5" stroke="#808080" stroke-width="0.015625" fill="none"/><path d="M-32.1667,100v0l0.333334,0.5h0.666668l0.333332,-0.5" stroke="#808080" stroke-width="0.015625" fill="none"/><path d="M-32.1667,101v0l0.333334,0.5h0.666668l0.333332,-0.5" stroke="#808080" stroke-width="0.015625" fill="none"/><path d="M-31.1667,88.5v0l0.333332,0.5h0.666668l0.333332,-0.5" stroke="#808080" stroke-width="0.015625" fill="none"/><path d="M-31.1667,89.5v0l0.333332,0.5h0.666668l0.333332,-0.5" stroke="#808080" stroke-width="0.015625" fill="none"/><path d="M-31.1667,90.5v0l0.333332,0.5h0.666668l0.333332,-0.5" stroke="#808080" stroke-width="0.015625" fill="none"/><path d="M-31.1667,91.5v0l0.333332,0.5h0.666668l0.333332,-0.5" stroke="#808080" stroke-width="0.015625" fill="none"/><path d="M-31.1667,92.5v0l0.333332,0.5h0.666668l0.333332,-0.5" stroke="#808080" stroke-width="0.015625" fill="none"/><path d="M-31.1667,93.5v0l0.333332,0.5h0.666668l0.333332,-0.5" stroke="#808080" stroke-width="0.015625" fill="none"/><path d="M-31.1667,94.5v0l0.333332,0.5h0.666668l0.333332,-0.5" stroke="#808080" stroke-width="0.015625" fill="none"/><path d="M-31.1667,95.5v0l0.333332,0.5h0.666668l0.333332,-0.5" stroke="#808080" stroke-width="0.015625" fill="none"/><path d="M-31.1667,96.5v0l0.333332,0.5h0.666668l0.333332,-0.5" stroke="#808080" stroke-width="0.015625" fill="none"/><path d="M-31.1667,97.5v0l0.333332,0.5h0.666668l0.333332,-0.5" stroke="#808080" stroke-width="0.015625" fill="none"/><path d="M-31.1667,98.5v0l0.333332,0.5h0.666668l0.333332,-0.5" stroke="#808080" stroke-width="0.015625" fill="none"/><path d="M-31.1667,99.5v0l0.333332,0.5h0.666668l0.333332,-0.5" stroke="#808080" stroke-width="0.015625" fill="none"/><path d="M-31.1667,100.5v0l0.333332,0.5h0.666668l0.333332,-0.5" stroke="#808080" stroke-width="0.015625" fill="none"/><path d="M-30.1667,89v0l0.333332,0.5h0.666668l0.333332,-0.5" stroke="#808080" stroke-width="0.015625" fill="none"/><path d="M-30.1667,90v0l0.333332,0.5h0.666668l0.333332,-0.5" stroke="#808080" stroke-width="0.015625" fill="none"/><path d="M-30.1667,91v0l0.333332,0.5h0.666668l0.333332,-0.5" stroke="#808080" stroke-width="0.015625" fill="none"/><path d="M-30.1667,92v0l0.333332,0.5h0.666668l0.333332,-0.5" stroke="#808080" stroke-width="0.015625" fill="none"/><path d="M-30.1667,93v0l0.333332,0.5h0.666668l0.333332,-0.5" stroke="#808080" stroke-width="0.015625" fill="none"/><path d="M-30.1667,94v0l0.333332,0.5h0.666668l0.333332,-0.5" stroke="#808080" stroke-width="0.015625" fill="none"/><path d="M-30.1667,95v0l0.333332,0.5h0.666668l0.333332,-0.5" stroke="#808080" stroke-width="0.015625" fill="none"/><path d="M-30.1667,96v0l0.333332,0.5h0.666668l0.333332,-0.5" stroke="#808080" stroke-width="0.015625" fill="none"/><path d="M-30.1667,97v0l0.333332,0.5h0.666668l0.333332,-0.5" stroke="#808080" stroke-width="0.015625" fill="none"/><path d="M-30.1667,98v0l0.333332,0.5h0.666668l0.333332,-0.5" stroke="#808080" stroke-width="0.015625" fill="none"/><path d="M-30.1667,99v0l0.333332,0.5h0.666668l0.333332,-0.5" stroke="#808080" stroke-width="0.015625" fill="none"/><path d="M-30.1667,100v0l0.333332,0.5h0.666668l0.333332,-0.5" stroke="#808080" stroke-width="0.015625" fill="none"/><path d="M-30.1667,101v0l0.333332,0.5h0.666668l0.333332,-0.5" stroke="#808080" stroke-width="0.015625" fill="none"/><path d="M-29.1667,88.5v0l0.333332,0.5h0.666668l0.333332,-0.5" stroke="#808080" stroke-width="0.015625" fill="none"/><path d="M-29.1667,89.5v0l0.333332,0.5h0.666668l0.333332,-0.5" stroke="#808080" stroke-width="0.015625" fill="none"/><path d="M-29.1667,90.5v0l0.333332,0.5h0.666668l0.333332,-0.5" stroke="#808080" stroke-width="0.015625" fill="none"/><path d="M-29.1667,91.5v0l0.333332,0.5h0.666668l0.333332,-0.5" stroke="#808080" stroke-width="0.015625" fill="none"/><path d="M-29.1667,92.5v0l0.333332,0.5h0.666668l0.333332,-0.5" stroke="#808080" stroke-width="0.015625" fill="none"/><path d="M-29.1667,93.5v0l0.333332,0.5h0.666668l0.333332,-0.5" stroke="#808080" stroke-width="0.015625" fill="none"/><path d="M-29.1667,94.5v0l0.333332,0.5h0.666668l0.333332,-0.5" stroke="#808080" stroke-width="0.015625" fill="none"/><path d="M-29.1667,95.5v0l0.333332,0.5h0.666668l0.333332,-0.5" stroke="#808080" stroke-width="0.015625" fill="none"/><path d="M-29.1667,96.5v0l0.333332,0.5h0.666668l0.333332,-0.5" stroke="#808080" stroke-width="0.015625" fill="none"/><path d="M-29.1667,97.5v0l0.333332,0.5h0.666668l0.333332,-0.5" stroke="#808080" stroke-width="0.015625" fill="none"/><path d="M-29.1667,98.5v0l0.333332,0.5h0.666668l0.333332,-0.5" stroke="#808080" stroke-width="0.015625" fill="none"/><path d="M-29.1667,99.5v0l0.333332,0.5h0.666668l0.333332,-0.5" stroke="#808080" stroke-width="0.015625" fill="none"/><path d="M-29.1667,100.5v0l0.333332,0.5h0.666668l0.333332,-0.5" stroke="#808080" stroke-width="0.015625" fill="none"/><path d="M-28.1667,89v0l0.333332,0.5h0.666668l0.333332,-0.5" stroke="#808080" stroke-width="0.015625" fill="none"/><path d="M-28.1667,90v0l0.333332,0.5h0.666668l0.333332,-0.5" stroke="#808080" stroke-width="0.015625" fill="none"/><path d="M-28.1667,91v0l0.333332,0.5h0.666668l0.333332,-0.5" stroke="#808080" stroke-width="0.015625" fill="none"/><path d="M-28.1667,92v0l0.333332,0.5h0.666668l0.333332,-0.5" stroke="#808080" stroke-width="0.015625" fill="none"/><path d="M-28.1667,93v0l0.333332,0.5h0.666668l0.333332,-0.5" stroke="#808080" stroke-width="0.015625" fill="none"/><path d="M-28.1667,94v0l0.333332,0.5h0.666668l0.333332,-0.5" stroke="#808080" stroke-width="0.015625" fill="none"/><path d="M-28.1667,95v0l0.333332,0.5h0.666668l0.333332,-0.5" stroke="#808080" stroke-width="0.015625" fill="none"/><path d="M-28.1667,96v0l0.333332,0.5h0.666668l0.333332,-0.5" stroke="#808080" stroke-width="0.015625" fill="none"/><path d="M-28.1667,97v0l0.333332,0.5h0.666668l0.333332,-0.5" stroke="#808080" stroke-width="0.015625" fill="none"/><path d="M-28.1667,98v0l0.333332,0.5h0.666668l0.333332,-0.5" stroke="#808080" stroke-width="0.015625" fill="none"/><path d="M-28.1667,99v0l0.333332,0.5h0.666668l0.333332,-0.5" stroke="#808080" stroke-width="0.015625" fill="none"/><path d="M-28.1667,100v0l0.333332,0.5h0.666668l0.333332,-0.5" stroke="#808080" stroke-width="0.015625" fill="none"/><path d="M-28.1667,101v0l0.333332,0.5h0.666668l0.333332,-0.5" stroke="#808080" stroke-width="0.015625" fill="none"/><path d="M-27.1667,88.5v0l0.333332,0.5h0.666668l0.333332,-0.5" stroke="#808080" stroke-width="0.015625" fill="none"/><path d="M-27.1667,89.5v0l0.333332,0.5h0.666668l0.333332,-0.5" stroke="#808080" stroke-width="0.015625" fill="none"/><path d="M-27.1667,90.5v0l0.333332,0.5h0.666668l0.333332,-0.5" stroke="#808080" stroke-width="0.015625" fill="none"/><path d="M-27.1667,91.5v0l0.333332,0.5h0.666668l0.333332,-0.5" stroke="#808080" stroke-width="0.015625" fill="none"/><path d="M-27.1667,92.5v0l0.333332,0.5h0.666668l0.333332,-0.5" stroke="#808080" stroke-width="0.015625" fill="none"/><path d="M-27.1667,93.5v0l0.333332,0.5h0.666668l0.333332,-0.5" stroke="#808080" stroke-width="0.015625" fill="none"/><path d="M-27.1667,94.5v0l0.333332,0.5h0.666668l0.333332,-0.5" stroke="#808080" stroke-width="0.015625" fill="none"/><path d="M-27.1667,95.5v0l0.333332,0.5h0.666668l0.333332,-0.5" stroke="#808080" stroke-width="0.015625" fill="none"/><path d="M-27.1667,96.5v0l0.333332,0.5h0.666668l0.333332,-0.5" stroke="#808080" stroke-width="0.015625" fill="none"/><path d="M-27.1667,97.5v0l0.333332,0.5h0.666668l0.333332,-0.5" stroke="#808080" stroke-width="0.015625" fill="none"/><path d="M-27.1667,98.5v0l0.333332,0.5h0.666668l0.333332,-0.5" stroke="#808080" stroke-width="0.015625" fill="none"/><path d="M-27.1667,99.5v0l0.333332,0.5h0.666668l0.333332,-0.5" stroke="#808080" stroke-width="0.015625" fill="none"/><path d="M-27.1667,100.5v0l0.333332,0.5h0.666668l0.333332,-0.5" stroke="#808080" stroke-width="0.015625" fill="none"/><path d="M-26.1667,89v0l0.333332,0.5h0.666668l0.333332,-0.5" stroke="#808080" stroke-width="0.015625" fill="none"/><path d="M-26.1667,90v0l0.333332,0.5h0.666668l0.333332,-0.5" stroke="#808080" stroke-width="0.015625" fill="none"/><path d="M-26.1667,91v0l0.333332,0.5h0.666668l0.333332,-0.5" stroke="#808080" stroke-width="0.015625" fill="none"/><path d="M-26.1667,92v0l0.333332,0.5h0.666668l0.333332,-0.5" stroke="#808080" stroke-width="0.015625" fill="none"/><path d="M-26.1667,93v0l0.333332,0.5h0.666668l0.333332,-0.5" stroke="#808080" stroke-width="0.015625" fill="none"/><path d="M-26.1667,94v0l0.333332,0.5h0.666668l0.333332,-0.5" stroke="#808080" stroke-width="0.015625" fill="none"/><path d="M-26.1667,95v0l0.333332,0.5h0.666668l0.333332,-0.5" stroke="#808080" stroke-width="0.015625" fill="none"/><path d="M-26.1667,96v0l0.333332,0.5h0.666668l0.333332,-0.5" stroke="#808080" stroke-width="0.015625" fill="none"/><path d="M-26.1667,97v0l0.333332,0.5h0.666668l0.333332,-0.5" stroke="#808080" stroke-width="0.015625" fill="none"/><path d="M-26.1667,98v0l0.333332,0.5h0.666668l0.333332,-0.5" stroke="#808080" stroke-width="0.015625" fill="none"/><path d="M-26.1667,99v0l0.333332,0.5h0.666668l0.333332,-0.5" stroke="#808080" stroke-width="0.015625" fill="none"/><path d="M-26.1667,100v0l0.333332,0.5h0.666668l0.333332,-0.5" stroke="#808080" stroke-width="0.015625" fill="none"/><path d="M-26.1667,101v0l0.333332,0.5h0.666668l0.333332,-0.5" stroke="#808080" stroke-width="0.015625" fill="none"/><path d="M-25.1667,88.5v0l0.333332,0.5h0.666668l0.333332,-0.5" stroke="#808080" stroke-width="0.015625" fill="none"/><path d="M-25.1667,89.5v0l0.333332,0.5h0.666668l0.333332,-0.5" stroke="#808080" stroke-width="0.015625" fill="none"/><path d="M-25.1667,90.5v0l0.333332,0.5h0.666668l0.333332,-0.5" stroke="#808080" stroke-width="0.015625" fill="none"/><path d="M-25.1667,91.5v0l0.333332,0.5h0.666668l0.333332,-0.5" stroke="#808080" stroke-width="0.015625" fill="none"/><path d="M-25.1667,92.5v0l0.333332,0.5h0.666668l0.333332,-0.5" stroke="#808080" stroke-width="0.015625" fill="none"/><path d="M-25.1667,93.5v0l0.333332,0.5h0.666668l0.333332,-0.5" stroke="#808080" stroke-width="0.015625" fill="none"/><path d="M-25.1667,94.5v0l0.333332,0.5h0.666668l0.333332,-0.5" stroke="#808080" stroke-width="0.015625" fill="none"/><path d="M-25.1667,95.5v0l0.333332,0.5h0.666668l0.333332,-0.5" stroke="#808080" stroke-width="0.015625" fill="none"/><path d="M-25.1667,96.5v0l0.333332,0.5h0.666668l0.333332,-0.5" stroke="#808080" stroke-width="0.015625" fill="none"/><path d="M-25.1667,97.5v0l0.333332,0.5h0.666668l0.333332,-0.5" stroke="#808080" stroke-width="0.015625" fill="none"/><path d="M-25.1667,98.5v0l0.333332,0.5h0.666668l0.333332,-0.5" stroke="#808080" stroke-width="0.015625" fill="none"/><path d="M-25.1667,99.5v0l0.333332,0.5h0.666668l0.333332,-0.5" stroke="#808080" stroke-width="0.015625" fill="none"/><path d="M-25.1667,100.5v0l0.333332,0.5h0.666668l0.333332,-0.5" stroke="#808080" stroke-width="0.015625" fill="none"/><path clip-path="url(#did2)" d="M-33.8333,80.5l-0.333336,-0.5l0.333336,-0.5h0.666664l0.333336,-0.5h0.666664l0.333334,0.5h0.666668l0.333332,-0.5h0.666668l0.333332,0.5h0.666668l0.333332,-0.5h0.666668l0.333332,0.5h0.666668l0.333332,-0.5h0.666668l0.333332,0.5h0.666668l0.333332,-0.5h0.666668l0.333332,0.5h0.666668l0.333332,-0.5h0.666668l0.333332,0.5l-0.333332,0.5l0.333332,0.5h0.666668l0.333332,0.5h0.666668l0.333332,0.5l-0.333332,0.5l0.333332,0.5h0.666668l0.333332,0.5h0.666668l0.333332,0.5h0.666668l0.333332,0.5l-0.333332,0.5l0.333332,0.5l-0.333332,0.5l0.333332,0.5h0.666668l0.333333,0.5h0.666666l0.333334,0.5l-0.333334,0.5l0.333334,0.5l-0.333334,0.5l0.333334,0.5h0.666666l0.333334,0.5h0.666666l0.333334,-0.5h0.666666l0.333334,0.5h0.666666l0.333334,0.5h0.666666l0.333334,-0.5h0.666666l0.333334,-0.5h0.666666l0.333334,0.5l-0.333334,0.5h-0.666666l-0.333334,0.5h-0.666666l-0.333334,0.5h-0.666666l-0.333334,0.5l0.333334,0.5l-0.333334,0.5l0.333334,0.5h0.666666l0.333334,0.5l-0.333334,0.5h-0.666666l-0.333334,-0.5h-0.666666l-0.333334,0.5l0.333334,0.5l-0.333334,0.5l0.333334,0.5h0.666666l0.333334,0.5h0.666666l0.333334,0.5l-0.333334,0.5h-0.666666l-0.333334,0.5l0.333334,0.5l-0.333334,0.5l0.333334,0.5h0.666666l0.333334,-0.5h0.666666l0.333334,0.5l-0.333334,0.5h-0.666666l-0.333334,0.5h-0.666666l-0.333334,0.5h-0.666666l-0.333334,0.5l0.333334,0.5l-0.333334,0.5l0.333334,0.5h0.666666l0.333334,0.5h0.666666l0.333334,0.5h0.666666l0.333334,0.5h0.666666l0.333334,0.5h0.666667l0.333333,0.5h0.666667l0.333333,0.5l-0.333333,0.5h-0.666667l-0.333333,0.5h-0.666667l-0.333334,0.5l0.333334,0.5l-0.333334,0.5l0.333334,0.5l-0.333334,0.5l0.333334,0.5h0.666667l0.333333,-0.5l-0.333333,-0.5l0.333333,-0.5h0.666667l0.333333,0.5l-0.333333,0.5l0.333333,0.5l-0.333333,0.5l0.333333,0.5l-0.333333,0.5h-0.666667l-0.333333,-0.5h-0.666667l-0.333334,0.5l0.333334,0.5h0.666667l0.333333,0.5h0.666667l0.333333,-0.5h0.666667l0.333333,-0.5h0.666667l0.333333,-0.5h0.666667l0.333334,0.5h0.666667l0.333334,0.5h0.666667l0.333333,-0.5h0.666667l0.333333,0.5l-0.333333,0.5l0.333333,0.5l-0.333333,0.5l0.333333,0.5l-0.333333,0.5l0.333333,0.5l-0.333333,0.5l0.333333,0.5l-0.333333,0.5l0.333333,0.5l-0.333333,0.5l0.333333,0.5l-0.333333,0.5l0.333333,0.5l-0.333333,0.5l0.333333,0.5l-0.333333,0.5l0.333333,0.5l-0.333333,0.5h-0.666667l-0.333333,0.5h-0.666667l-0.333334,-0.5h-0.666667l-0.333334,0.5h-0.666667l-0.333333,-0.5h-0.666667l-0.333333,0.5h-0.666667l-0.333333,-0.5h-0.666667l-0.333333,0.5h-0.666667l-0.333334,-0.5h-0.666666l-0.333334,0.5h-0.666666l-0.333334,-0.5h-0.666666l-0.333334,0.5h-0.666666l-0.333334,-0.5h-0.666666l-0.333334,0.5h-0.666666l-0.333334,-0.5h-0.666666l-0.333334,0.5h-0.666666l-0.333333,-0.5h-0.666668l-0.333332,0.5h-0.666668l-0.333332,-0.5h-0.666668l-0.333332,0.5h-0.666668l-0.333332,-0.5h-0.666668l-0.333332,0.5h-0.666668l-0.333332,-0.5h-0.666668l-0.333332,0.5h-0.666668l-0.333332,-0.5h-0.666668l-0.333332,0.5h-0.666668l-0.333332,-0.5h-0.666668l-0.333332,0.5h-0.666668l-0.333332,-0.5h-0.666668l-0.333332,0.5h-0.666668l-0.333332,-0.5h-0.666668l-0.333332,0.5h-0.666668l-0.333334,-0.5h-0.666664l-0.333336,0.5h-0.666664l-0.333336,-0.5l0.333336,-0.5l-0.333336,-0.5l0.333336,-0.5l-0.333336,-0.5l0.333336,-0.5l-0.333336,-0.5l0.333336,-0.5l-0.333336,-0.5l0.333336,-0.5l-0.333336,-0.5l0.333336,-0.5l-0.333336,-0.5l0.333336,-0.5l-0.333336,-0.5l0.333336,-0.5l-0.333336,-0.5l0.333336,-0.5l-0.333336,-0.5l0.333336,-0.5l-0.333336,-0.5l0.333336,-0.5l-0.333336,-0.5l0.333336,-0.5l-0.333336,-0.5l0.333336,-0.5l-0.333336,-0.5l0.333336,-0.5l-0.333336,-0.5l0.333336,-0.5l-0.333336,-0.5l0.333336,-0.5l-0.333336,-0.5l0.333336,-0.5l-0.333336,-0.5l0.333336,-0.5l-0.333336,-0.5l0.333336,-0.5l-0.333336,-0.5l0.333336,-0.5l-0.333336,-0.5l0.333336,-0.5l-0.333336,-0.5l0.333336,-0.5l-0.333336,-0.5l0.333336,-0.5l-0.333336,-0.5l0.333336,-0.5l-0.333336,-0.5l0.333336,-0.5l-0.333336,-0.5l0.333336,-0.5l-0.333336,-0.5l0.333336,-0.5l-0.333336,-0.5l0.333336,-0.5l-0.333336,-0.5l0.333336,-0.5l-0.333336,-0.5l0.333336,-0.5l-0.333336,-0.5l0.333336,-0.5l-0.333336,-0.5l0.333336,-0.5l-0.333336,-0.5l0.333336,-0.5l-0.333336,-0.5l0.333336,-0.5l-0.333336,-0.5l0.333336,-0.5l-0.333336,-0.5l0.333336,-0.5l-0.333336,-0.5l0.333336,-0.5l-0.333336,-0.5l0.333336,-0.5l-0.333336,-0.5l0.333336,-0.5l-0.333336,-0.5l0.333336,-0.5l-0.333336,-0.5Z" stroke="Orange" stroke-width="0.16" fill="none"/><path clip-path="url(#did3)" d="M-20.8333,87l-0.333332,-0.5l0.333332,-0.5h0.666668l0.333332,0.5h0.666668l0.333332,0.5l-0.333332,0.5l0.333332,0.5l-0.333332,0.5h-0.666668l-0.333332,-0.5l0.333332,-0.5l-0.333332,-0.5Z" stroke="Blue" stroke-width="0.16" fill="none"/><path clip-path="url(#did4)" d="M-22.8333,93l-0.333332,-0.5l0.333332,-0.5h0.666668l0.333332,-0.5l-0.333332,-0.5l0.333332,-0.5l-0.333332,-0.5l0.333332,-0.5l-0.333332,-0.5l0.333332,-0.5h0.666668l0.333332,0.5h0.666668l0.333332,0.5h0.666668l0.333332,0.5h0.666668l0.333332,0.5l-0.333332,0.5l0.333332,0.5l-0.333332,0.5l0.333332,0.5l-0.333332,0.5l0.333332,0.5l-0.333332,0.5l0.333332,0.5l-0.333332,0.5l0.333332,0.5l-0.333332,0.5l0.333332,0.5l-0.333332,0.5h-0.666668l-0.333332,-0.5l0.333332,-0.5l-0.333332,-0.5l0.333332,-0.5l-0.333332,-0.5l0.333332,-0.5l-0.333332,-0.5l0.333332,-0.5l-0.333332,-0.5h-0.666668l-0.333332,-0.5h-0.666668l-0.333332,0.5h-0.666668l-0.333332,0.5l0.333332,0.5h0.666668l0.333332,0.5l-0.333332,0.5h-0.666668l-0.333332,0.5l0.333332,0.5l-0.333332,0.5h-0.666668l-0.333332,-0.5l0.333332,-0.5l-0.333332,-0.5l0.333332,-0.5l-0.333332,-0.5Z" stroke="Blue" stroke-width="0.16" fill="none"/><path clip-path="url(#did5)" d="M-16.8333,93l-0.333332,-0.5l0.333332,-0.5h0.666668l0.333333,-0.5h0.666666l0.333334,-0.5l-0.333334,-0.5l0.333334,-0.5h0.666666l0.333334,0.5l-0.333334,0.5l0.333334,0.5h0.666666l0.333334,0.5l-0.333334,0.5h-0.666666l-0.333334,0.5l0.333334,0.5l-0.333334,0.5l0.333334,0.5l-0.333334,0.5l0.333334,0.5l-0.333334,0.5l0.333334,0.5l-0.333334,0.5l0.333334,0.5l-0.333334,0.5l0.333334,0.5h0.666666l0.333334,0.5l-0.333334,0.5h-0.666666l-0.333334,-0.5h-0.666666l-0.333334,-0.5l0.333334,-0.5l-0.333334,-0.5h-0.666666l-0.333333,-0.5l0.333333,-0.5l-0.333333,-0.5l0.333333,-0.5l-0.333333,-0.5l0.333333,-0.5l-0.333333,-0.5h-0.666668l-0.333332,-0.5Z" stroke="Blue" stroke-width="0.16" fill="none"/><path clip-path="url(#did6)" d="M-31.8333,83.5l-0.333334,-0.5l0.333334,-0.5h0.666668l0.333332,0.5h0.666668l0.333332,0.5h0.666668l0.333332,0.5l-0.333332,0.5h-0.666668l-0.333332,-0.5h-0.666668l-0.333332,0.5l0.333332,0.5l-0.333332,0.5h-0.666668l-0.333334,-0.5l0.333334,-0.5l-0.333334,-0.5Z" stroke="Blue" stroke-width="0.16" fill="none"/><path clip-path="url(#did7)" d="M-27.8333,81.5l-0.333332,-0.5l0.333332,-0.5h0.666668l0.333332,-0.5h0.666668l0.333332,0.5l-0.333332,0.5h-0.666668l-0.333332,0.5Z" stroke="Blue" stroke-width="0.16" fill="none"/><path clip-path="url(#did8)" d="M-31.8333,90.5l-0.333334,-0.5l0.333334,-0.5h0.666668l0.333332,0.5l-0.333332,0.5l0.333332,0.5l-0.333332,0.5h-0.666668l-0.333334,-0.5Z" stroke="Blue" stroke-width="0.16" fill="none"/><path clip-path="url(#did9)" d="M-19.8333,80.5l-0.333332,-0.5l0.333332,-0.5h0.666668l0.333332,-0.5h0.666668l0.333332,0.5h0.666668l0.333332,-0.5h0.666668l0.333333,0.5h0.666666l0.333334,-0.5h0.666666l0.333334,0.5h0.666666l0.333334,-0.5h0.666666l0.333334,0.5h0.666666l0.333334,-0.5h0.666666l0.333334,0.5h0.666666l0.333334,-0.5h0.666666l0.333334,0.5h0.666667l0.333333,-0.5h0.666667l0.333333,0.5h0.666667l0.333333,-0.5h0.666667l0.333333,0.5h0.666667l0.333334,-0.5h0.666667l0.333334,0.5h0.666667l0.333333,-0.5h0.666667l0.333333,0.5l-0.333333,0.5l0.333333,0.5l-0.333333,0.5l0.333333,0.5l-0.333333,0.5l0.333333,0.5l-0.333333,0.5l0.333333,0.5l-0.333333,0.5l0.333333,0.5l-0.333333,0.5l0.333333,0.5l-0.333333,0.5l0.333333,0.5l-0.333333,0.5l0.333333,0.5l-0.333333,0.5l0.333333,0.5l-0.333333,0.5l0.333333,0.5l-0.333333,0.5l0.333333,0.5l-0.333333,0.5l0.333333,0.5l-0.333333,0.5l0.333333,0.5l-0.333333,0.5l0.333333,0.5l-0.333333,0.5l0.333333,0.5l-0.333333,0.5l0.333333,0.5l-0.333333,0.5l0.333333,0.5l-0.333333,0.5l0.333333,0.5l-0.333333,0.5l0.333333,0.5l-0.333333,0.5l0.333333,0.5l-0.333333,0.5l0.333333,0.5l-0.333333,0.5l0.333333,0.5l-0.333333,0.5l0.333333,0.5l-0.333333,0.5l0.333333,0.5l-0.333333,0.5l0.333333,0.5l-0.333333,0.5l0.333333,0.5l-0.333333,0.5l0.333333,0.5l-0.333333,0.5h-0.666667l-0.333333,0.5l0.333333,0.5l-0.333333,0.5l0.333333,0.5l-0.333333,0.5l0.333333,0.5l-0.333333,0.5l0.333333,0.5l-0.333333,0.5h-0.666667l-0.333334,-0.5h-0.666667l-0.333334,-0.5h-0.666667l-0.333333,0.5h-0.666667l-0.333333,0.5h-0.666667l-0.333333,0.5h-0.666667l-0.333333,-0.5h-0.666667l-0.333334,-0.5l0.333334,-0.5h0.666667l0.333333,0.5h0.666667l0.333333,-0.5l-0.333333,-0.5l0.333333,-0.5l-0.333333,-0.5l0.333333,-0.5l-0.333333,-0.5h-0.666667l-0.333333,0.5h-0.666667l-0.333334,-0.5l0.333334,-0.5h0.666667l0.333333,-0.5l-0.333333,-0.5l0.333333,-0.5h0.666667l0.333333,-0.5l-0.333333,-0.5h-0.666667l-0.333333,-0.5h-0.666667l-0.333334,-0.5h-0.666666l-0.333334,-0.5h-0.666666l-0.333334,-0.5l0.333334,-0.5l-0.333334,-0.5h-0.666666l-0.333334,-0.5l0.333334,-0.5l-0.333334,-0.5l0.333334,-0.5h0.666666l0.333334,-0.5h0.666666l0.333334,-0.5l-0.333334,-0.5h-0.666666l-0.333334,0.5h-0.666666l-0.333334,-0.5l0.333334,-0.5h0.666666l0.333334,-0.5l-0.333334,-0.5l0.333334,-0.5l-0.333334,-0.5h-0.666666l-0.333334,-0.5h-0.666666l-0.333334,-0.5l0.333334,-0.5l-0.333334,-0.5l0.333334,-0.5h0.666666l0.333334,0.5h0.666666l0.333334,-0.5l-0.333334,-0.5h-0.666666l-0.333334,-0.5l0.333334,-0.5l-0.333334,-0.5l0.333334,-0.5h0.666666l0.333334,-0.5h0.666666l0.333334,-0.5h0.666666l0.333334,-0.5l-0.333334,-0.5h-0.666666l-0.333334,0.5h-0.666666l-0.333334,0.5h-0.666666l-0.333334,-0.5h-0.666666l-0.333334,-0.5h-0.666666l-0.333334,0.5h-0.666666l-0.333334,-0.5h-0.666666l-0.333334,-0.5l0.333334,-0.5l-0.333334,-0.5l0.333334,-0.5l-0.333334,-0.5h-0.666666l-0.333333,-0.5l0.333333,-0.5l-0.333333,-0.5l0.333333,-0.5l-0.333333,-0.5l0.333333,-0.5l-0.333333,-0.5l0.333333,-0.5l-0.333333,-0.5h-0.666668l-0.333332,-0.5h-0.666668l-0.333332,-0.5h-0.666668l-0.333332,-0.5Z" stroke="#E32736" stroke-width="0.16" fill="none"/><line x1="-25.2227" y1="93.9307" x2="-21.7774" y2="93.0693" stroke="#048104" stroke-width="0.08"/><line x1="-29.2227" y1="93.0693" x2="-25.7774" y2="93.9307" stroke="#048104" stroke-width="0.08"/><line x1="-29.5" y1="89.25" x2="-29.5" y2="92.75" stroke="#048104" stroke-width="0.08"/><line x1="-32.25" y1="94.375" x2="-29.75" y2="93.125" stroke="#048104" stroke-width="0.08"/><line x1="-25.311" y1="94.189" x2="-23.689" y2="95.811" stroke="#048104" stroke-width="0.08"/><line x1="-33.4307" y1="97.7573" x2="-32.5693" y2="94.7427" stroke="#048104" stroke-width="0.08"/></g><g clip-path="url(#did10)"><text transform="translate(-32.5,92.5) scale(1.1547 1)" font-family="Arial" font-size="0.14" text-anchor="middle" x="0" y="-0.381" fill="DarkGray">0113</text><text transform="translate(-32.5,94.5) scale(1.1547 1)" font-family="Arial" font-size="0.14" text-anchor="middle" x="0" y="-0.381" fill="DarkGray">0115</text><g transform="translate(-32.5,95.5) scale(1.1547 1)"><circle r="0.4" cx="0" cy="0" stroke="#FFCC00" stroke-width="0.05" fill="none"/><text font-family="Arial" font-size="0.14" text-anchor="middle" x="0" y="-0.381" fill="DarkGray">0116</text></g><text transform="translate(-32.5,97.5) scale(1.1547 1)" font-family="Arial" font-size="0.14" text-anchor="middle" x="0" y="-0.381" fill="DarkGray">0118</text><text transform="translate(-32.5,98.5) scale(1.1547 1)" font-family="Arial" font-size="0.14" text-anchor="middle" x="0" y="-0.381" fill="DarkGray">0119</text><text transform="translate(-32.5,99.5) scale(1.1547 1)" font-family="Arial" font-size="0.14" text-anchor="middle" x="0" y="-0.381" fill="DarkGray">0120</text><text transform="translate(-31.5,91) scale(1.1547 1)" font-family="Arial" font-size="0.14" text-anchor="middle" x="0" y="-0.381" fill="DarkGray">0211</text><text transform="translate(-31.5,92) scale(1.1547 1)" font-family="Arial" font-size="0.14" text-anchor="middle" x="0" y="-0.381" fill="DarkGray">0212</text><text transform="translate(-31.5,95) scale(1.1547 1)" font-family="Arial" font-size="0.14" text-anchor="middle" x="0" y="-0.381" fill="DarkGray">0215</text><text transform="translate(-31.5,96) scale(1.1547 1)" font-family="Arial" font-size="0.14" text-anchor="middle" x="0" y="-0.381" fill="DarkGray">0216</text><text transform="translate(-31.5,100) scale(1.1547 1)" font-family="Arial" font-size="0.14" text-anchor="middle" x="0" y="-0.381" fill="DarkGray">0220</text><text transform="translate(-30.5,94.5) scale(1.1547 1)" font-family="Arial" font-size="0.14" text-anchor="middle" x="0" y="-0.381" fill="DarkGray">0315</text><text transform="translate(-30.5,96.5) scale(1.1547 1)" font-family="Arial" font-size="0.14" text-anchor="middle" x="0" y="-0.381" fill="DarkGray">0317</text><text transform="translate(-30.5,98.5) scale(1.1547 1)" font-family="Arial" font-size="0.14" text-anchor="middle" x="0" y="-0.381" fill="DarkGray">0319</text><text transform="translate(-29.5,91) scale(1.1547 1)" font-family="Arial" font-size="0.14" text-anchor="middle" x="0" y="-0.381" fill="DarkGray">0411</text><text transform="translate(-29.5,93) scale(1.1547 1)" font-family="Arial" font-size="0.14" text-anchor="middle" x="0" y="-0.381" fill="DarkGray">0413</text><text transform="translate(-29.5,95) scale(1.1547 1)" font-family="Arial" font-size="0.14" text-anchor="middle" x="0" y="-0.381" fill="DarkGray">0415</text><text transform="translate(-28.5,95.5) scale(1.1547 1)" font-family="Arial" font-size="0.14" text-anchor="middle" x="0" y="-0.381" fill="DarkGray">0516</text><text transform="translate(-28.5,96.5) scale(1.1547 1)" font-family="Arial" font-size="0.14" text-anchor="middle" x="0" y="-0.381" fill="DarkGray">0517</text><text transform="translate(-27.5,93) scale(1.1547 1)" font-family="Arial" font-size="0.14" text-anchor="middle" x="0" y="-0.381" fill="DarkGray">0613</text><text transform="translate(-27.5,94) scale(1.1547 1)" font-family="Arial" font-size="0.14" text-anchor="middle" x="0" y="-0.381" fill="DarkGray">0614</text><text transform="translate(-27.5,95) scale(1.1547 1)" font-family="Arial" font-size="0.14" text-anchor="middle" x="0" y="-0.381" fill="DarkGray">0615</text><text transform="translate(-27.5,97) scale(1.1547 1)" font-family="Arial" font-size="0.14" text-anchor="middle" x="0" y="-0.381" fill="DarkGray">0617</text><text transform="translate(-27.5,99) scale(1.1547 1)" font-family="Arial" font-size="0.14" text-anchor="middle" x="0" y="-0.381" fill="DarkGray">0619</text><text transform="translate(-26.5,91.5) scale(1.1547 1)" font-family="Arial" font-size="0.14" text-anchor="middle" x="0" y="-0.381" fill="DarkGray">0712</text><text transform="translate(-26.5,92.5) scale(1.1547 1)" font-family="Arial" font-size="0.14" text-anchor="middle" x="0" y="-0.381" fill="DarkGray">0713</text><text transform="translate(-26.5,94.5) scale(1.1547 1)" font-family="Arial" font-size="0.14" text-anchor="middle" x="0" y="-0.381" fill="DarkGray">0715</text><text transform="translate(-26.5,95.5) scale(1.1547 1)" font-family="Arial" font-size="0.14" text-anchor="middle" x="0" y="-0.381" fill="DarkGray">0716</text><text transform="translate(-26.5,99.5) scale(1.1547 1)" font-family="Arial" font-size="0.14" text-anchor="middle" x="0" y="-0.381" fill="DarkGray">0720</text><text transform="translate(-25.5,92) scale(1.1547 1)" font-family="Arial" font-size="0.14" text-anchor="middle" x="0" y="-0.381" fill="DarkGray">0812</text><text transform="translate(-25.5,93) scale(1.1547 1)" font-family="Arial" font-size="0.14" text-anchor="middle" x="0" y="-0.381" fill="DarkGray">0813</text><text transform="translate(-25.5,94) scale(1.1547 1)" font-family="Arial" font-size="0.14" text-anchor="middle" x="0" y="-0.381" fill="DarkGray">0814</text><text transform="translate(-25.5,95) scale(1.1547 1)" font-family="Arial" font-size="0.14" text-anchor="middle" x="0" y="-0.381" fill="DarkGray">0815</text></g><g transform="translate(-32.5,92.5) scale(1.1547 1)"><circle transform="translate(0.25,-0.18)" r="0.05" cx="0" cy="0" stroke="none" fill="Black"/><rect x="-0.113084" y="-0.35543" width="0.226167" height="0.260859" stroke="none" fill="White"/><text font-family="Arial" font-size="0.21" font-weight="bold" text-anchor="middle" x="0" y="-0.13575" fill="Black">A</text><circle r="0.1" cx="0" cy="0" stroke="none" fill="DeepSkyBlue"/><rect x="-0.39563" y="0.23957" width="0.79126" height="0.260859" stroke="none" fill="White"/><text font-family="Arial" font-size="0.21" font-weight="bold" text-anchor="middle" x="0" y="0.45925" fill="Black">Schurz</text><text font-family="Arial" font-size="0.14" text-anchor="middle" x="0.25" y="0.2395" fill="Black">SoCf</text></g><g transform="translate(-32.5,94.5) scale(1.1547 1)"><circle transform="translate(0.25,-0.18)" r="0.05" cx="0" cy="0" stroke="none" fill="Black"/><rect x="-0.113084" y="-0.35543" width="0.226167" height="0.260859" stroke="none" fill="White"/><text font-family="Arial" font-size="0.21" font-weight="bold" text-anchor="middle" x="0" y="-0.13575" fill="Black">A</text><circle r="0.1" cx="0" cy="0" stroke="none" fill="DeepSkyBlue"/><rect x="-0.341541" y="0.23957" width="0.683081" height="0.260859" stroke="none" fill="White"/><text font-family="Arial" font-size="0.21" font-weight="bold" text-anchor="middle" x="0" y="0.45925" fill="Black">Pryon</text><text font-family="Arial" font-size="0.14" text-anchor="middle" x="0.25" y="0.2395" fill="Black">SoCf</text></g><g transform="translate(-32.5,95.5) scale(1.1547 1)"><circle transform="translate(0.25,-0.18)" r="0.05" cx="0" cy="0" stroke="none" fill="Black"/><rect x="-0.113084" y="-0.35543" width="0.226167" height="0.260859" stroke="none" fill="White"/><text font-family="Arial" font-size="0.21" font-weight="bold" text-anchor="middle" x="0" y="-0.13575" fill="Black">C</text><circle r="0.1" cx="0" cy="0" stroke="none" fill="DeepSkyBlue"/><rect x="-0.323289" y="0.23957" width="0.646577" height="0.260859" stroke="none" fill="White"/><text font-family="Arial" font-size="0.21" font-weight="bold" text-anchor="middle" x="0" y="0.45925" fill="Black">WAIR</text><text font-family="Arial" font-size="0.14" text-anchor="middle" x="0.25" y="0.2395" fill="Black">SoCf</text></g><g transform="translate(-32.5,97.5) scale(1.1547 1)"><circle transform="translate(0.25,-0.18)" r="0.05" cx="0" cy="0" stroke="none" fill="Black"/><rect x="-0.113084" y="-0.35543" width="0.226167" height="0.260859" stroke="none" fill="White"/><text font-family="Arial" font-size="0.21" font-weight="bold" text-anchor="middle" x="0" y="-0.13575" fill="Black">C</text><circle r="0.1" cx="0" cy="0" stroke="none" fill="DeepSkyBlue"/><rect x="-0.2753" y="0.23957" width="0.550601" height="0.260859" stroke="none" fill="White"/><text font-family="Arial" font-size="0.21" font-weight="bold" text-anchor="middle" x="0" y="0.45925" fill="Black">Hool</text><text font-family="Arial" font-size="0.14" text-anchor="middle" x="0.25" y="0.2395" fill="Black">SoCf</text></g><g transform="translate(-32.5,98.5) scale(1.1547 1)"><circle transform="translate(0.25,-0.18)" r="0.05" cx="0" cy="0" stroke="none" fill="Black"/><rect x="-0.113084" y="-0.35543" width="0.226167" height="0.260859" stroke="none" fill="White"/><text font-family="Arial" font-size="0.21" font-weight="bold" text-anchor="middle" x="0" y="-0.13575" fill="Black">A</text><circle r="0.1" cx="0" cy="0" stroke="none" fill="DeepSkyBlue"/><rect x="-0.365586" y="0.23957" width="0.731172" height="0.260859" stroke="none" fill="White"/><text font-family="Arial" font-size="0.21" font-weight="bold" text-anchor="middle" x="0" y="0.45925" fill="Black">Mickel</text><text font-family="Arial" font-size="0.14" text-anchor="middle" x="0.25" y="0.2395" fill="Black">SoCf</text></g><g transform="translate(-32.5,99.5) scale(1.1547 1)"><circle transform="translate(0.25,-0.18)" r="0.05" cx="0" cy="0" stroke="none" fill="Black"/><rect x="-0.113084" y="-0.35543" width="0.226167" height="0.260859" stroke="none" fill="White"/><text font-family="Arial" font-size="0.21" font-weight="bold" text-anchor="middle" x="0" y="-0.13575" fill="Black">C</text><circle r="0.1" cx="0" cy="0" stroke="Black" stroke-width="0.015625" fill="White"/><rect x="-0.401423" y="0.23957" width="0.802847" height="0.260859" stroke="none" fill="White"/><text font-family="Arial" font-size="0.21" font-weight="bold" text-anchor="middle" x="0" y="0.45925" fill="Black">FACTN</text><text font-family="Arial" font-size="0.14" text-anchor="middle" x="0.25" y="0.2395" fill="Black">SoCf</text></g><g transform="translate(-31.5,91) scale(1.1547 1)"><circle transform="translate(0.25,-0.18)" r="0.05" cx="0" cy="0" stroke="none" fill="Black"/><rect x="-0.113084" y="-0.35543" width="0.226167" height="0.260859" stroke="none" fill="White"/><text font-family="Arial" font-size="0.21" font-weight="bold" text-anchor="middle" x="0" y="-0.13575" fill="Black">B</text><text font-family="Arial Unicode MS,Segoe UI Symbol,Arial" font-size="0.21" font-weight="bold" text-anchor="middle" x="-0.25" y="-0.09075" fill="#E32736">★</text><text font-family="Arial Unicode MS,Segoe UI Symbol,Arial" font-size="0.21" font-weight="bold" text-anchor="middle" x="-0.25" y="0.26925" fill="Black">✦</text><ellipse rx="0.0253494" ry="0.0304577" cx="-0.07" cy="-0.07" stroke="none" fill="Black"/><ellipse rx="0.0321505" ry="0.030976" cx="0" cy="-0.07" stroke="none" fill="Black"/><ellipse rx="0.0284013" ry="0.0295658" cx="0.07" cy="-0.07" stroke="none" fill="Black"/><ellipse rx="0.0329457" ry="0.0217599" cx="-0.105" cy="0" stroke="none" fill="Black"/><ellipse rx="0.0333107" ry="0.0347027" cx="-0.035" cy="0" stroke="none" fill="Black"/><ellipse rx="0.0243126" ry="0.0259295" cx="0.035" cy="0" stroke="none" fill="Black"/><ellipse rx="0.026284" ry="0.0217677" cx="0.105" cy="0" stroke="none" fill="Black"/><ellipse rx="0.0323338" ry="0.0273026" cx="-0.07" cy="0.07" stroke="none" fill="Black"/><ellipse rx="0.0282364" ry="0.0217635" cx="0" cy="0.07" stroke="none" fill="Black"/><ellipse rx="0.0332259" ry="0.0268442" cx="0.07" cy="0.07" stroke="none" fill="Black"/><rect x="-0.365535" y="0.23957" width="0.731069" height="0.260859" stroke="none" fill="White"/><text font-family="Arial" font-size="0.21" font-weight="bold" text-anchor="middle" x="0" y="0.45925" fill="Black">Seung</text><text font-family="Arial" font-size="0.14" text-anchor="middle" x="0.25" y="0.2395" fill="Black">SoWu</text></g><g transform="translate(-31.5,92) scale(1.1547 1)"><circle transform="translate(0.25,-0.18)" r="0.05" cx="0" cy="0" stroke="none" fill="Black"/><rect x="-0.113084" y="-0.35543" width="0.226167" height="0.260859" stroke="none" fill="White"/><text font-family="Arial" font-size="0.21" font-weight="bold" text-anchor="middle" x="0" y="-0.13575" fill="Black">C</text><circle r="0.1" cx="0" cy="0" stroke="Black" stroke-width="0.015625" fill="White"/><rect x="-0.425674" y="0.23957" width="0.851348" height="0.260859" stroke="none" fill="White"/><text font-family="Arial" font-size="0.21" font-weight="bold" text-anchor="middle" x="0" y="0.45925" fill="Black">Zentara</text><text font-family="Arial" font-size="0.14" text-anchor="middle" x="0.25" y="0.2395" fill="Black">SoCf</text></g><g transform="translate(-31.5,95) scale(1.1547 1)"><circle transform="translate(0.25,-0.18)" r="0.05" cx="0" cy="0" stroke="none" fill="Black"/><rect x="-0.113084" y="-0.35543" width="0.226167" height="0.260859" stroke="none" fill="White"/><text font-family="Arial" font-size="0.21" font-weight="bold" text-anchor="middle" x="0" y="-0.13575" fill="Black">C</text><circle r="0.1" cx="0" cy="0" stroke="none" fill="DeepSkyBlue"/><rect x="-0.822244" y="0.23957" width="1.64449" height="0.260859" stroke="none" fill="White"/><text font-family="Arial" font-size="0.21" font-weight="bold" text-anchor="middle" x="0" y="0.45925" fill="Black">Amonchomchu</text><text font-family="Arial" font-size="0.14" text-anchor="middle" x="0.25" y="0.2395" fill="Black">SoCf</text></g><g transform="translate(-31.5,96) scale(1.1547 1)"><circle transform="translate(0.25,-0.18)" r="0.05" cx="0" cy="0" stroke="none" fill="Black"/><rect x="-0.113084" y="-0.35543" width="0.226167" height="0.260859" stroke="none" fill="White"/><text font-family="Arial" font-size="0.21" font-weight="bold" text-anchor="middle" x="0" y="-0.13575" fill="Black">B</text><text font-family="Arial Unicode MS,Segoe UI Symbol,Arial" font-size="0.21" font-weight="bold" text-anchor="middle" x="-0.25" y="-0.09075" fill="#E32736">★</text><text font-family="Arial Unicode MS,Segoe UI Symbol,Arial" font-size="0.21" font-weight="bold" text-anchor="middle" x="-0.25" y="0.26925" fill="Black">✦</text><circle r="0.1" cx="0" cy="0" stroke="Black" stroke-width="0.015625" fill="White"/><rect x="-0.383684" y="0.23957" width="0.767368" height="0.260859" stroke="none" fill="White"/><text font-family="Arial" font-size="0.21" font-weight="bold" text-anchor="middle" x="0" y="0.45925" fill="Black">Planck</text><text font-family="Arial" font-size="0.14" text-anchor="middle" x="0.25" y="0.2395" fill="Black">SoCf</text></g><g transform="translate(-31.5,100) scale(1.1547 1)"><circle transform="translate(0.25,-0.18)" r="0.05" cx="0" cy="0" stroke="none" fill="Black"/><rect x="-0.113084" y="-0.35543" width="0.226167" height="0.260859" stroke="none" fill="White"/><text font-family="Arial" font-size="0.21" font-weight="bold" text-anchor="middle" x="0" y="-0.13575" fill="Black">B</text><circle r="0.1" cx="0" cy="0" stroke="Black" stroke-width="0.015625" fill="White"/><rect x="-0.5398" y="0.23957" width="1.0796" height="0.260859" stroke="none" fill="White"/><text font-family="Arial" font-size="0.21" font-weight="bold" text-anchor="middle" x="0" y="0.45925" fill="Black">Anderson</text><text font-family="Arial" font-size="0.14" text-anchor="middle" x="0.25" y="0.2395" fill="Black">SoCf</text></g><g transform="translate(-30.5,94.5) scale(1.1547 1)"><circle transform="translate(0.25,-0.18)" r="0.05" cx="0" cy="0" stroke="none" fill="Black"/><rect x="-0.107136" y="-0.35543" width="0.214273" height="0.260859" stroke="none" fill="White"/><text font-family="Arial" font-size="0.21" font-weight="bold" text-anchor="middle" x="0" y="-0.13575" fill="Black">E</text><circle r="0.1" cx="0" cy="0" stroke="Black" stroke-width="0.015625" fill="White"/><rect x="-0.527751" y="0.23957" width="1.0555" height="0.260859" stroke="none" fill="White"/><text font-family="Arial" font-size="0.21" font-weight="bold" text-anchor="middle" x="0" y="0.45925" fill="Black">McManus</text><text font-family="Arial" font-size="0.14" text-anchor="middle" x="0.25" y="0.2395" fill="Black">SoCf</text></g><g transform="translate(-30.5,96.5) scale(1.1547 1)"><circle transform="translate(0.25,-0.18)" r="0.05" cx="0" cy="0" stroke="none" fill="Black"/><rect x="-0.113084" y="-0.35543" width="0.226167" height="0.260859" stroke="none" fill="White"/><text font-family="Arial" font-size="0.21" font-weight="bold" text-anchor="middle" x="0" y="-0.13575" fill="Black">D</text><circle r="0.1" cx="0" cy="0" stroke="Black" stroke-width="0.015625" fill="White"/><rect x="-0.553694" y="0.23957" width="1.10739" height="0.260859" stroke="none" fill="White"/><text font-family="Arial" font-size="0.21" font-weight="bold" text-anchor="middle" x="0" y="0.45925" fill="Black">Sawiykao&apos;</text><text font-family="Arial" font-size="0.14" text-anchor="middle" x="0.25" y="0.2395" fill="Black">SoCf</text></g><g transform="translate(-30.5,98.5) scale(1.1547 1)"><rect x="-0.113084" y="-0.35543" width="0.226167" height="0.260859" stroke="none" fill="White"/><text font-family="Arial" font-size="0.21" font-weight="bold" text-anchor="middle" x="0" y="-0.13575" fill="Black">C</text><circle r="0.1" cx="0" cy="0" stroke="none" fill="DeepSkyBlue"/><rect x="-0.395681" y="0.23957" width="0.791362" height="0.260859" stroke="none" fill="White"/><text font-family="Arial" font-size="0.21" font-weight="bold" text-anchor="middle" x="0" y="0.45925" fill="Black">Kelriya</text><text font-family="Arial" font-size="0.14" text-anchor="middle" x="0.25" y="0.2395" fill="Black">SoCf</text></g><g transform="translate(-29.5,91) scale(1.1547 1)"><rect x="-0.113084" y="-0.35543" width="0.226167" height="0.260859" stroke="none" fill="White"/><text font-family="Arial" font-size="0.21" font-weight="bold" text-anchor="middle" x="0" y="-0.13575" fill="Black">D</text><circle r="0.1" cx="0" cy="0" stroke="none" fill="DeepSkyBlue"/><rect x="-0.371585" y="0.23957" width="0.743169" height="0.260859" stroke="none" fill="White"/><text font-family="Arial" font-size="0.21" font-weight="bold" text-anchor="middle" x="0" y="0.45925" fill="Black">Yergin</text><text font-family="Arial" font-size="0.14" text-anchor="middle" x="0.25" y="0.2395" fill="Black">SoCf</text></g><g transform="translate(-29.5,93) scale(1.1547 1)"><circle transform="translate(0.25,-0.18)" r="0.05" cx="0" cy="0" stroke="none" fill="Black"/><rect x="-0.113084" y="-0.35543" width="0.226167" height="0.260859" stroke="none" fill="White"/><text font-family="Arial" font-size="0.21" font-weight="bold" text-anchor="middle" x="0" y="-0.13575" fill="Black">A</text><text font-family="Arial Unicode MS,Segoe UI Symbol,Arial" font-size="0.21" font-weight="bold" text-anchor="middle" x="-0.25" y="-0.09075" fill="#E32736">★</text><text font-family="Arial Unicode MS,Segoe UI Symbol,Arial" font-size="0.21" font-weight="bold" text-anchor="middle" x="-0.25" y="0.26925" fill="Black">✦</text><circle r="0.1" cx="0" cy="0" stroke="Black" stroke-width="0.015625" fill="White"/><rect x="-0.269353" y="0.23957" width="0.538706" height="0.260859" stroke="none" fill="White"/><text font-family="Arial" font-size="0.21" font-weight="bold" text-anchor="middle" x="0" y="0.45925" fill="#E32736">Kaig</text><text font-family="Arial" font-size="0.14" text-anchor="middle" x="0.25" y="0.2395" fill="Black">SoCf</text></g><g transform="translate(-29.5,95) scale(1.1547 1)"><circle transform="translate(0.25,-0.18)" r="0.05" cx="0" cy="0" stroke="none" fill="Black"/><rect x="-0.113084" y="-0.35543" width="0.226167" height="0.260859" stroke="none" fill="White"/><text font-family="Arial" font-size="0.21" font-weight="bold" text-anchor="middle" x="0" y="-0.13575" fill="Black">B</text><circle r="0.1" cx="0" cy="0" stroke="Black" stroke-width="0.015625" fill="White"/><rect x="-0.479661" y="0.23957" width="0.959321" height="0.260859" stroke="none" fill="White"/><text font-family="Arial" font-size="0.21" font-weight="bold" text-anchor="middle" x="0" y="0.45925" fill="Black">Dormant</text><text font-family="Arial" font-size="0.14" text-anchor="middle" x="0.25" y="0.2395" fill="Black">SoCf</text></g><g transform="translate(-28.5,95.5) scale(1.1547 1)"><circle transform="translate(0.25,-0.18)" r="0.05" cx="0" cy="0" stroke="none" fill="Black"/><rect x="-0.113084" y="-0.35543" width="0.226167" height="0.260859" stroke="none" fill="White"/><text font-family="Arial" font-size="0.21" font-weight="bold" text-anchor="middle" x="0" y="-0.13575" fill="Black">D</text><circle r="0.1" cx="0" cy="0" stroke="Black" stroke-width="0.015625" fill="White"/><rect x="-0.419727" y="0.23957" width="0.839453" height="0.260859" stroke="none" fill="White"/><text font-family="Arial" font-size="0.21" font-weight="bold" text-anchor="middle" x="0" y="0.45925" fill="Black">Papesh</text><text font-family="Arial" font-size="0.14" text-anchor="middle" x="0.25" y="0.2395" fill="Black">SoCf</text></g><g transform="translate(-28.5,96.5) scale(1.1547 1)"><circle transform="translate(0.25,-0.18)" r="0.05" cx="0" cy="0" stroke="none" fill="Black"/><rect x="-0.107136" y="-0.35543" width="0.214273" height="0.260859" stroke="none" fill="White"/><text font-family="Arial" font-size="0.21" font-weight="bold" text-anchor="middle" x="0" y="-0.13575" fill="Black">E</text><circle r="0.1" cx="0" cy="0" stroke="none" fill="DeepSkyBlue"/><rect x="-0.443721" y="0.23957" width="0.887441" height="0.260859" stroke="none" fill="White"/><text font-family="Arial" font-size="0.21" font-weight="bold" text-anchor="middle" x="0" y="0.45925" fill="Black">Ewaokh</text><text font-family="Arial" font-size="0.14" text-anchor="middle" x="0.25" y="0.2395" fill="Black">SoCf</text></g><g transform="translate(-27.5,93) scale(1.1547 1)"><rect x="-0.113084" y="-0.35543" width="0.226167" height="0.260859" stroke="none" fill="White"/><text font-family="Arial" font-size="0.21" font-weight="bold" text-anchor="middle" x="0" y="-0.13575" fill="Black">D</text><circle r="0.1" cx="0" cy="0" stroke="none" fill="DeepSkyBlue"/><rect x="-0.431724" y="0.23957" width="0.863447" height="0.260859" stroke="none" fill="White"/><text font-family="Arial" font-size="0.21" font-weight="bold" text-anchor="middle" x="0" y="0.45925" fill="Black">Arsdale</text><text font-family="Arial" font-size="0.14" text-anchor="middle" x="0.25" y="0.2395" fill="Black">SoCf</text></g><g transform="translate(-27.5,94) scale(1.1547 1)"><rect x="-0.113084" y="-0.35543" width="0.226167" height="0.260859" stroke="none" fill="White"/><text font-family="Arial" font-size="0.21" font-weight="bold" text-anchor="middle" x="0" y="-0.13575" fill="Black">D</text><circle r="0.1" cx="0" cy="0" stroke="none" fill="DeepSkyBlue"/><rect x="-0.317444" y="0.23957" width="0.634888" height="0.260859" stroke="none" fill="White"/><text font-family="Arial" font-size="0.21" font-weight="bold" text-anchor="middle" x="0" y="0.45925" fill="Black">Wells</text><text font-family="Arial" font-size="0.14" text-anchor="middle" x="0.25" y="0.2395" fill="Black">SoCf</text></g><g transform="translate(-27.5,95) scale(1.1547 1)"><circle transform="translate(0.25,-0.18)" r="0.05" cx="0" cy="0" stroke="none" fill="Black"/><rect x="-0.107136" y="-0.35543" width="0.214273" height="0.260859" stroke="none" fill="White"/><text font-family="Arial" font-size="0.21" font-weight="bold" text-anchor="middle" x="0" y="-0.13575" fill="Black">E</text><circle r="0.1" cx="0" cy="0" stroke="none" fill="DeepSkyBlue"/><rect x="-0.449514" y="0.23957" width="0.899028" height="0.260859" stroke="none" fill="White"/><text font-family="Arial" font-size="0.21" font-weight="bold" text-anchor="middle" x="0" y="0.45925" fill="Black">PINDUR</text><text font-family="Arial" font-size="0.14" text-anchor="middle" x="0.25" y="0.2395" fill="Black">SoCf</text></g><g transform="translate(-27.5,97) scale(1.1547 1)"><circle transform="translate(0.25,-0.18)" r="0.05" cx="0" cy="0" stroke="none" fill="Black"/><rect x="-0.113084" y="-0.35543" width="0.226167" height="0.260859" stroke="none" fill="White"/><text font-family="Arial" font-size="0.21" font-weight="bold" text-anchor="middle" x="0" y="-0.13575" fill="Black">A</text><circle r="0.1" cx="0" cy="0" stroke="none" fill="DeepSkyBlue"/><rect x="-0.383582" y="0.23957" width="0.767163" height="0.260859" stroke="none" fill="White"/><text font-family="Arial" font-size="0.21" font-weight="bold" text-anchor="middle" x="0" y="0.45925" fill="Black">Alroarl</text><text font-family="Arial" font-size="0.14" text-anchor="middle" x="0.25" y="0.2395" fill="Black">SoCf</text></g><g transform="translate(-27.5,99) scale(1.1547 1)"><circle transform="translate(0.25,-0.18)" r="0.05" cx="0" cy="0" stroke="none" fill="Black"/><rect x="-0.113084" y="-0.35543" width="0.226167" height="0.260859" stroke="none" fill="White"/><text font-family="Arial" font-size="0.21" font-weight="bold" text-anchor="middle" x="0" y="-0.13575" fill="Black">B</text><text font-family="Arial Unicode MS,Segoe UI Symbol,Arial" font-size="0.21" font-weight="bold" text-anchor="middle" x="-0.25" y="-0.09075" fill="#E32736">★</text><text font-family="Arial Unicode MS,Segoe UI Symbol,Arial" font-size="0.21" font-weight="bold" text-anchor="middle" x="-0.25" y="0.26925" fill="Black">✦</text><circle r="0.1" cx="0" cy="0" stroke="Black" stroke-width="0.015625" fill="White"/><rect x="-0.281504" y="0.23957" width="0.563008" height="0.260859" stroke="none" fill="White"/><text font-family="Arial" font-size="0.21" font-weight="bold" text-anchor="middle" x="0" y="0.45925" fill="Black">Joce</text><text font-family="Arial" font-size="0.14" text-anchor="middle" x="0.25" y="0.2395" fill="Black">SoCf</text></g><g transform="translate(-26.5,91.5) scale(1.1547 1)"><rect x="-0.107136" y="-0.35543" width="0.214273" height="0.260859" stroke="none" fill="White"/><text font-family="Arial" font-size="0.21" font-weight="bold" text-anchor="middle" x="0" y="-0.13575" fill="Black">E</text><circle r="0.1" cx="0" cy="0" stroke="none" fill="DeepSkyBlue"/><rect x="-0.461665" y="0.23957" width="0.92333" height="0.260859" stroke="none" fill="White"/><text font-family="Arial" font-size="0.21" font-weight="bold" text-anchor="middle" x="0" y="0.45925" fill="Black">Fatridge</text><text font-family="Arial" font-size="0.14" text-anchor="middle" x="0.25" y="0.2395" fill="Black">SoCf</text></g><g transform="translate(-26.5,92.5) scale(1.1547 1)"><circle transform="translate(0.25,-0.18)" r="0.05" cx="0" cy="0" stroke="none" fill="Black"/><rect x="-0.113084" y="-0.35543" width="0.226167" height="0.260859" stroke="none" fill="White"/><text font-family="Arial" font-size="0.21" font-weight="bold" text-anchor="middle" x="0" y="-0.13575" fill="Black">B</text><text font-family="Arial Unicode MS,Segoe UI Symbol,Arial" font-size="0.21" font-weight="bold" text-anchor="middle" x="-0.25" y="-0.09075" fill="#E32736">★</text><text font-family="Arial Unicode MS,Segoe UI Symbol,Arial" font-size="0.21" font-weight="bold" text-anchor="middle" x="-0.25" y="0.26925" fill="Black">✦</text><circle r="0.1" cx="0" cy="0" stroke="Black" stroke-width="0.015625" fill="White"/><rect x="-0.431724" y="0.23957" width="0.863447" height="0.260859" stroke="none" fill="White"/><text font-family="Arial" font-size="0.21" font-weight="bold" text-anchor="middle" x="0" y="0.45925" fill="Black">Bradley</text><text font-family="Arial" font-size="0.14" text-anchor="middle" x="0.25" y="0.2395" fill="Black">SoCf</text></g><g transform="translate(-26.5,94.5) scale(1.1547 1)"><circle transform="translate(0.25,-0.18)" r="0.05" cx="0" cy="0" stroke="none" fill="Black"/><rect x="-0.113084" y="-0.35543" width="0.226167" height="0.260859" stroke="none" fill="White"/><text font-family="Arial" font-size="0.21" font-weight="bold" text-anchor="middle" x="0" y="-0.13575" fill="Black">B</text><circle r="0.1" cx="0" cy="0" stroke="none" fill="DeepSkyBlue"/><rect x="-0.473765" y="0.23957" width="0.947529" height="0.260859" stroke="none" fill="White"/><text font-family="Arial" font-size="0.21" font-weight="bold" text-anchor="middle" x="0" y="0.45925" fill="Black">Kazilash</text><text font-family="Arial" font-size="0.14" text-anchor="middle" x="0.25" y="0.2395" fill="Black">SoCf</text></g><g transform="translate(-26.5,95.5) scale(1.1547 1)"><circle transform="translate(0.25,-0.18)" r="0.05" cx="0" cy="0" stroke="none" fill="Black"/><rect x="-0.113084" y="-0.35543" width="0.226167" height="0.260859" stroke="none" fill="White"/><text font-family="Arial" font-size="0.21" font-weight="bold" text-anchor="middle" x="0" y="-0.13575" fill="Black">B</text><circle r="0.1" cx="0" cy="0" stroke="none" fill="DeepSkyBlue"/><rect x="-0.437568" y="0.23957" width="0.875137" height="0.260859" stroke="none" fill="White"/><text font-family="Arial" font-size="0.21" font-weight="bold" text-anchor="middle" x="0" y="0.45925" fill="Black">Hodapp</text><text font-family="Arial" font-size="0.14" text-anchor="middle" x="0.25" y="0.2395" fill="Black">SoCf</text></g><g transform="translate(-26.5,99.5) scale(1.1547 1)"><circle transform="translate(0.25,-0.18)" r="0.05" cx="0" cy="0" stroke="none" fill="Black"/><rect x="-0.113084" y="-0.35543" width="0.226167" height="0.260859" stroke="none" fill="White"/><text font-family="Arial" font-size="0.21" font-weight="bold" text-anchor="middle" x="0" y="-0.13575" fill="Black">B</text><circle r="0.1" cx="0" cy="0" stroke="Black" stroke-width="0.015625" fill="White"/><rect x="-0.443721" y="0.23957" width="0.887441" height="0.260859" stroke="none" fill="White"/><text font-family="Arial" font-size="0.21" font-weight="bold" text-anchor="middle" x="0" y="0.45925" fill="Black">Lachlan</text><text font-family="Arial" font-size="0.14" text-anchor="middle" x="0.25" y="0.2395" fill="Black">SoCf</text></g><g transform="translate(-25.5,92) scale(1.1547 1)"><circle transform="translate(0.25,-0.18)" r="0.05" cx="0" cy="0" stroke="none" fill="Black"/><rect x="-0.113084" y="-0.35543" width="0.226167" height="0.260859" stroke="none" fill="White"/><text font-family="Arial" font-size="0.21" font-weight="bold" text-anchor="middle" x="0" y="-0.13575" fill="Black">C</text><circle r="0.1" cx="0" cy="0" stroke="none" fill="DeepSkyBlue"/><rect x="-0.756157" y="0.23957" width="1.51231" height="0.260859" stroke="none" fill="White"/><text font-family="Arial" font-size="0.21" font-weight="bold" text-anchor="middle" x="0" y="0.45925" fill="Black">Nihonatarashi</text><text font-family="Arial" font-size="0.14" text-anchor="middle" x="0.25" y="0.2395" fill="Black">SoCf</text></g><g transform="translate(-25.5,93) scale(1.1547 1)"><rect x="-0.113084" y="-0.35543" width="0.226167" height="0.260859" stroke="none" fill="White"/><text font-family="Arial" font-size="0.21" font-weight="bold" text-anchor="middle" x="0" y="-0.13575" fill="Black">B</text><ellipse rx="0.0253494" ry="0.0304577" cx="-0.07" cy="-0.07" stroke="none" fill="Black"/><ellipse rx="0.0321505" ry="0.030976" cx="0" cy="-0.07" stroke="none" fill="Black"/><ellipse rx="0.0284013" ry="0.0295658" cx="0.07" cy="-0.07" stroke="none" fill="Black"/><ellipse rx="0.0329457" ry="0.0217599" cx="-0.105" cy="0" stroke="none" fill="Black"/><ellipse rx="0.0333107" ry="0.0347027" cx="-0.035" cy="0" stroke="none" fill="Black"/><ellipse rx="0.0243126" ry="0.0259295" cx="0.035" cy="0" stroke="none" fill="Black"/><ellipse rx="0.026284" ry="0.0217677" cx="0.105" cy="0" stroke="none" fill="Black"/><ellipse rx="0.0323338" ry="0.0273026" cx="-0.07" cy="0.07" stroke="none" fill="Black"/><ellipse rx="0.0282364" ry="0.0217635" cx="0" cy="0.07" stroke="none" fill="Black"/><ellipse rx="0.0332259" ry="0.0268442" cx="0.07" cy="0.07" stroke="none" fill="Black"/><rect x="-0.299448" y="0.23957" width="0.598896" height="0.260859" stroke="none" fill="White"/><text font-family="Arial" font-size="0.21" font-weight="bold" text-anchor="middle" x="0" y="0.45925" fill="Black">Meza</text><text font-family="Arial" font-size="0.14" text-anchor="middle" x="0.25" y="0.2395" fill="Black">SoCf</text></g><g transform="translate(-25.5,94) scale(1.1547 1)"><circle transform="translate(0.25,-0.18)" r="0.05" cx="0" cy="0" stroke="none" fill="Black"/><rect x="-0.113084" y="-0.35543" width="0.226167" height="0.260859" stroke="none" fill="White"/><text font-family="Arial" font-size="0.21" font-weight="bold" text-anchor="middle" x="0" y="-0.13575" fill="Black">A</text><circle r="0.1" cx="0" cy="0" stroke="none" fill="DeepSkyBlue"/><rect x="-0.305396" y="0.23957" width="0.610791" height="0.260859" stroke="none" fill="White"/><text font-family="Arial" font-size="0.21" font-weight="bold" text-anchor="middle" x="0" y="0.45925" fill="Black">Kano</text><text font-family="Arial" font-size="0.14" text-anchor="middle" x="0.25" y="0.2395" fill="Black">SoCf</text></g><g transform="translate(-25.5,95) scale(1.1547 1)"><circle transform="translate(0.25,-0.18)" r="0.05" cx="0" cy="0" stroke="none" fill="Black"/><rect x="-0.113084" y="-0.35543" width="0.226167" height="0.260859" stroke="none" fill="White"/><text font-family="Arial" font-size="0.21" font-weight="bold" text-anchor="middle" x="0" y="-0.13575" fill="Black">B</text><circle r="0.1" cx="0" cy="0" stroke="Black" stroke-width="0.015625" fill="White"/><rect x="-0.437671" y="0.23957" width="0.875342" height="0.260859" stroke="none" fill="White"/><text font-family="Arial" font-size="0.21" font-weight="bold" text-anchor="middle" x="0" y="0.45925" fill="Black">Hurshel</text><text font-family="Arial" font-size="0.14" text-anchor="middle" x="0.25" y="0.2395" fill="Black">NaHu</text></g></g></svg>