<?xml version = "1.0" encoding="utf-8"?>
<svg version="1.1" baseProfile="full" xmlns="http://www.w3.org/2000/svg" xmlns:xlink="http://www.w3.org/1999/xlink" width="471" height="684" viewBox="0 0 471 684" clip="0 471 0 684"><defs><clipPath id="did1"><rect x="-17.25" y="109.9" width="8.5" height="10.7"/></clipPath><clipPath id="did2"><path d="M-33.8333,80.5l-0.333336,-0.5l0.333336,-0.5h0.666664l0.333336,-0.5h0.666664l0.333334,0.5h0.666668l0.333332,-0.5h0.666668l0.333332,0.5h0.666668l0.333332,-0.5h0.666668l0.333332,0.5h0.666668l0.333332,-0.5h0.666668l0.333332,0.5h0.666668l0.333332,-0.5h0.666668l0.333332,0.5h0.666668l0.333332,-0.5h0.666668l0.333332,0.5l-0.333332,0.5l0.333332,0.5h0.666668l0.333332,0.5h0.666668l0.333332,0.5l-0.333332,0.5l0.333332,0.5h0.666668l0.333332,0.5h0.666668l0.333332,0.5h0.666668l0.333332,0.5l-0.333332,0.5l0.333332,0.5l-0.333332,0.5l0.333332,0.5h0.666668l0.333333,0.5h0.666666l0.333334,0.5l-0.333334,0.5l0.333334,0.5l-0.333334,0.5l0.333334,0.5h0.666666l0.333334,0.5h0.666666l0.333334,-0.5h0.666666l0.333334,0.5h0.666666l0.333334,0.5h0.666666l0.333334,-0.5h0.666666l0.333334,-0.5h0.666666l0.333334,0.5l-0.333334,0.5h-0.666666l-0.333334,0.5h-0.666666l-0.333334,0.5h-0.666666l-0.333334,0.5l0.333334,0.5l-0.333334,0.5l0.333334,0.5h0.666666l0.333334,0.5l-0.333334,0.5h-0.666666l-0.333334,-0.5h-0.666666l-0.333334,0.5l0.333334,0.5l-0.333334,0.5l0.333334,0.5h0.666666l0.333334,0.5h0.666666l0.333334,0.5l-0.333334,0.5h-0.666666l-0.333334,0.5l0.333334,0.5l-0.333334,0.5l0.333334,0.5h0.666666l0.333334,-0.5h0.666666l0.333334,0.5l-0.333334,0.5h-0.666666l-0.333334,0.5h-0.666666l-0.333334,0.5h-0.666666l-0.333334,0.5l0.333334,0.5l-0.333334,0.5l0.333334,0.5h0.666666l0.333334,0.5h0.666666l0.333334,0.5h0.666666l0.333334,0.5h0.666666l0.333334,0.5h0.666667l0.333333,0.5h0.666667l0.333333,0.5l-0.333333,0.5h-0.666667l-0.333333,0.5h-0.666667l-0.333334,0.5l0.333334,0.5l-0.333334,0.5l0.333334,0.5l-0.333334,0.5l0.333334,0.5h0.666667l0.333333,-0.5l-0.333333,-0.5l0.333333,-0.5h0.666667l0.333333,0.5l-0.333333,0.5l0.333333,0.5l-0.333333,0.5l0.333333,0.5l-0.333333,0.5h-0.666667l-0.333333,-0.5h-0.666667l-0.333334,0.5l0.333334,0.5h0.666667l0.333333,0.5h0.666667l0.333333,-0.5h0.666667l0.333333,-0.5h0.666667l0.333333,-0.5h0.666667l0.333334,0.5h0.666667l0.333334,0.5h0.666667l0.333333,-0.5h0.666667l0.333333,0.5l-0.333333,0.5l0.333333,0.5l-0.333333,0.5l0.333333,0.5l-0.333333,0.5l0.333333,0.5l-0.333333,0.5l0.333333,0.5l-0.333333,0.5l0.333333,0.5l-0.333333,0.5l0.333333,0.5l-0.333333,0.5l0.333333,0.5l-0.333333,0.5l0.333333,0.5l-0.333333,0.5l0.333333,0.5l-0.333333,0.5h-0.666667l-0.333333,0.5h-0.666667l-0.333334,-0.5h-0.666667l-0.333334,0.5h-0.666667l-0.333333,-0.5h-0.666667l-0.333333,0.5h-0.666667l-0.333333,-0.5h-0.666667l-0.333333,0.5h-0.666667l-0.333334,-0.5h-0.666666l-0.333334,0.5h-0.666666l-0.333334,-0.5h-0.666666l-0.333334,0.5h-0.666666l-0.333334,-0.5h-0.666666l-0.333334,0.5h-0.666666l-0.333334,-0.5h-0.666666l-0.333334,0.5h-0.666666l-0.333333,-0.5h-0.666668l-0.333332,0.5h-0.666668l-0.333332,-0.5h-0.666668l-0.333332,0.5h-0.666668l-0.333332,-0.5h-0.666668l-0.333332,0.5h-0.666668l-0.333332,-0.5h-0.666668l-0.333332,0.5h-0.666668l-0.333332,-0.5h-0.666668l-0.333332,0.5h-0.666668l-0.333332,-0.5h-0.666668l-0.333332,0.5h-0.666668l-0.333332,-0.5h-0.666668l-0.333332,0.5h-0.666668l-0.333332,-0.5h-0.666668l-0.333332,0.5h-0.666668l-0.333334,-0.5h-0.666664l-0.333336,0.5h-0.666664l-0.333336,-0.5l0.333336,-0.5l-0.333336,-0.5l0.333336,-0.5l-0.333336,-0.5l0.333336,-0.5l-0.333336,-0.5l0.333336,-0.5l-0.333336,-0.5l0.333336,-0.5l-0.333336,-0.5l0.333336,-0.5l-0.333336,-0.5l0.333336,-0.5l-0.333336,-0.5l0.333336,-0.5l-0.333336,-0.5l0.333336,-0.5l-0.333336,-0.5l0.333336,-0.5l-0.333336,-0.5l0.333336,-0.5l-0.333336,-0.5l0.333336,-0.5l-0.333336,-0.5l0.333336,-0.5l-0.333336,-0.5l0.333336,-0.5l-0.333336,-0.5l0.333336,-0.5l-0.333336,-0.5l0.333336,-0.5l-0.333336,-0.5l0.333336,-0.5l-0.333336,-0.5l0.333336,-0.5l-0.333336,-0.5l0.333336,-0.5l-0.333336,-0.5l0.333336,-0.5l-0.333336,-0.5l0.333336,-0.5l-0.333336,-0.5l0.333336,-0.5l-0.333336,-0.5l0.333336,-0.5l-0.333336,-0.5l0.333336,-0.5l-0.333336,-0.5l0.333336,-0.5l-0.333336,-0.5l0.333336,-0.5l-0.333336,-0.5l0.333336,-0.5l-0.333336,-0.5l0.333336,-0.5l-0.333336,-0.5l0.333336,-0.5l-0.333336,-0.5l0.333336,-0.5l-0.333336,-0.5l0.333336,-0.5l-0.333336,-0.5l0.333336,-0.5l-0.333336,-0.5l0.333336,-0.5l-0.333336,-0.5l0.333336,-0.5l-0.333336,-0.5l0.333336,-0.5l-0.333336,-0.5l0.333336,-0.5l-0.333336,-0.5l0.333336,-0.5l-0.333336,-0.5l0.333336,-0.5l-0.333336,-0.5l0.333336,-0.5l-0.333336,-0.5l0.333336,-0.5l-0.333336,-0.5Z"/></clipPath><clipPath id="did3"><path d="M-20.8333,87l-0.333332,-0.5l0.333332,-0.5h0.666668l0.333332,0.5h0.666668l0.333332,0.5l-0.333332,0.5l0.333332,0.5l-0.333332,0.5h-0.666668l-0.333332,-0.5l0.333332,-0.5l-0.333332,-0.5Z"/></clipPath><clipPath id="did4"><path d="M-22.8333,93l-0.333332,-0.5l0.333332,-0.5h0.666668l0.333332,-0.5l-0.333332,-0.5l0.333332,-0.5l-0.333332,-0.5l0.333332,-0.5l-0.333332,-0.5l0.333332,-0.5h0.666668l0.333332,0.5h0.666668l0.333332,0.5h0.666668l0.333332,0.5h0.666668l0.333332,0.5l-0.333332,0.5l0.333332,0.5l-0.333332,0.5l0.333332,0.5l-0.333332,0.5l0.333332,0.5l-0.333332,0.5l0.333332,0.5l-0.333332,0.5l0.333332,0.5l-0.333332,0.5l0.333332,0.5l-0.333332,0.5h-0.666668l-0.333332,-0.5l0.333332,-0.5l-0.333332,-0.5l0.333332,-0.5l-0.333332,-0.5l0.333332,-0.5l-0.333332,-0.5l0.333332,-0.5l-0.333332,-0.5h-0.666668l-0.333332,-0.5h-0.666668l-0.333332,0.5h-0.666668l-0.333332,0.5l0.333332,0.5h0.666668l0.333332,0.5l-0.333332,0.5h-0.666668l-0.333332,0.5l0.333332,0.5l-0.333332,0.5h-0.666668l-0.333332,-0.5l0.333332,-0.5l-0.333332,-0.5l0.333332,-0.5l-0.333332,-0.5Z"/></clipPath><clipPath id="did5"><path d="M-16.8333,93l-0.333332,-0.5l0.333332,-0.5h0.666668l0.333333,-0.5h0.666666l0.333334,-0.5l-0.333334,-0.5l0.333334,-0.5h0.666666l0.333334,0.5l-0.333334,0.5l0.333334,0.5h0.666666l0.333334,0.5l-0.333334,0.5h-0.666666l-0.333334,0.5l0.333334,0.5l-0.333334,0.5l0.333334,0.5l-0.333334,0.5l0.333334,0.5l-0.333334,0.5l0.333334,0.5l-0.333334,0.5l0.333334,0.5l-0.333334,0.5l0.333334,0.5h0.666666l0.333334,0.5l-0.333334,0.5h-0.666666l-0.333334,-0.5h-0.666666l-0.333334,-0.5l0.333334,-0.5l-0.333334,-0.5h-0.666666l-0.333333,-0.5l0.333333,-0.5l-0.333333,-0.5l0.333333,-0.5l-0.333333,-0.5l0.333333,-0.5l-0.333333,-0.5h-0.666668l-0.333332,-0.5Z"/></clipPath><clipPath id="did6"><path d="M-31.8333,83.5l-0.333334,-0.5l0.333334,-0.5h0.666668l0.333332,0.5h0.666668l0.333332,0.5h0.666668l0.333332,0.5l-0.333332,0.5h-0.666668l-0.333332,-0.5h-0.666668l-0.333332,0.5l0.333332,0.5l-0.333332,0.5h-0.666668l-0.333334,-0.5l0.333334,-0.5l-0.333334,-0.5Z"/></clipPath><clipPath id="did7"><path d="M-27.8333,81.5l-0.333332,-0.5l0.333332,-0.5h0.666668l0.333332,-0.5h0.666668l0.333332,0.5l-0.333332,0.5h-0.666668l-0.333332,0.5Z"/></clipPath><clipPath id="did8"><path d="M-31.8333,90.5l-0.333334,-0.5l0.333334,-0.5h0.666668l0.333332,0.5l-0.333332,0.5l0.333332,0.5l-0.333332,0.5h-0.666668l-0.333334,-0.5Z"/></clipPath><clipPath id="did9"><path d="M-19.8333,80.5l-0.333332,-0.5l0.333332,-0.5h0.666668l0.333332,-0.5h0.666668l0.333332,0.5h0.666668l0.333332,-0.5h0.666668l0.333333,0.5h0.666666l0.333334,-0.5h0.666666l0.333334,0.5h0.666666l0.333334,-0.5h0.666666l0.333334,0.5h0.666666l0.333334,-0.5h0.666666l0.333334,0.5h0.666666l0.333334,-0.5h0.666666l0.333334,0.5h0.666667l0.333333,-0.5h0.666667l0.333333,0.5h0.666667l0.333333,-0.5h0.666667l0.333333,0.5h0.666667l0.333334,-0.5h0.666667l0.333334,0.5h0.666667l0.333333,-0.5h0.666667l0.333333,0.5l-0.333333,0.5l0.333333,0.5l-0.333333,0.5l0.333333,0.5l-0.333333,0.5l0.333333,0.5l-0.333333,0.5l0.333333,0.5l-0.333333,0.5l0.333333,0.5l-0.333333,0.5l0.333333,0.5l-0.333333,0.5l0.333333,0.5l-0.333333,0.5l0.333333,0.5l-0.333333,0.5l0.333333,0.5l-0.333333,0.5l0.333333,0.5l-0.333333,0.5l0.333333,0.5l-0.333333,0.5l0.333333,0.5l-0.333333,0.5l0.333333,0.5l-0.333333,0.5l0.333333,0.5l-0.333333,0.5l0.333333,0.5l-0.333333,0.5l0.333333,0.5l-0.333333,0.5l0.333333,0.5l-0.333333,0.5l0.333333,0.5l-0.333333,0.5l0.333333,0.5l-0.333333,0.5l0.333333,0.5l-0.333333,0.5l0.333333,0.5l-0.333333,0.5l0.333333,0.5l-0.333333,0.5l0.333333,0.5l-0.333333,0.5l0.333333,0.5l-0.333333,0.5l0.333333,0.5l-0.333333,0.5l0.333333,0.5l-0.333333,0.5l0.333333,0.5l-0.333333,0.5h-0.666667l-0.333333,0.5l0.333333,0.5l-0.333333,0.5l0.333333,0.5l-0.333333,0.5l0.333333,0.5l-0.333333,0.5l0.333333,0.5l-0.333333,0.5h-0.666667l-0.333334,-0.5h-0.666667l-0.333334,-0.5h-0.666667l-0.333333,0.5h-0.666667l-0.333333,0.5h-0.666667l-0.333333,0.5h-0.666667l-0.333333,-0.5h-0.666667l-0.333334,-0.5l0.333334,-0.5h0.666667l0.333333,0.5h0.666667l0.333333,-0.5l-0.333333,-0.5l0.333333,-0.5l-0.333333,-0.5l0.333333,-0.5l-0.333333,-0.5h-0.666667l-0.333333,0.5h-0.666667l-0.333334,-0.5l0.333334,-0.5h0.666667l0.333333,-0.5l-0.333333,-0.5l0.333333,-0.5h0.666667l0.333333,-0.5l-0.333333,-0.5h-0.666667l-0.333333,-0.5h-0.666667l-0.333334,-0.5h-0.666666l-0.333334,-0.5h-0.666666l-0.333334,-0.5l0.333334,-0.5l-0.333334,-0.5h-0.666666l-0.333334,-0.5l0.333334,-0.5l-0.333334,-0.5l0.333334,-0.5h0.666666l0.333334,-0.5h0.666666l0.333334,-0.5l-0.333334,-0.5h-0.666666l-0.333334,0.5h-0.666666l-0.333334,-0.5l0.333334,-0.5h0.666666l0.333334,-0.5l-0.333334,-0.5l0.333334,-0.5l-0.333334,-0.5h-0.666666l-0.333334,-0.5h-0.666666l-0.333334,-0.5l0.333334,-0.5l-0.333334,-0.5l0.333334,-0.5h0.666666l0.333334,0.5h0.666666l0.333334,-0.5l-0.333334,-0.5h-0.666666l-0.333334,-0.5l0.333334,-0.5l-0.333334,-0.5l0.333334,-0.5h0.666666l0.333334,-0.5h0.666666l0.333334,-0.5h0.666666l0.333334,-0.5l-0.333334,-0.5h-0.666666l-0.333334,0.5h-0.666666l-0.333334,0.5h-0.666666l-0.333334,-0.5h-0.666666l-0.333334,-0.5h-0.666666l-0.333334,0.5h-0.666666l-0.333334,-0.5h-0.666666l-0.333334,-0.5l0.333334,-0.5l-0.333334,-0.5l0.333334,-0.5l-0.333334,-0.5h-0.666666l-0.333333,-0.5l0.333333,-0.5l-0.333333,-0.5l0.333333,-0.5l-0.333333,-0.5l0.333333,-0.5l-0.333333,-0.5l0.333333,-0.5l-0.333333,-0.5h-0.666668l-0.333332,-0.5h-0.666668l-0.333332,-0.5h-0.666668l-0.333332,-0.5Z"/></clipPath><clipPath id="did10"><rect x="-17.25" y="109.9" width="8.5" height="10.7"/></clipPath><clipPath id="did11"><rect x="-17.25" y="109.9" width="8.5" height="10.7"/></clipPath></defs><g fill="None" stroke="None" transform="matrix(1,0,0,1,0,0) matrix(55.4256,0,0,64,956.092,-7033.6)"><g clip-path="url(#did1)"><rect x="-18.1" y="108.83" width="10.2" height="12.84" stroke="none" fill="White"/><path d="M-19.1667,108.5v0l0.333332,0.5h0.666668l0.333332,-0.5" stroke="#808080" stroke-width="0.015625" fill="none"/><path d="M-19.1667,109.5v0l0.333332,0.5h0.666668l0.333332,-0.5" stroke="#808080" stroke-width="0.015625" fill="none"/><path d="M-19.1667,110.5v0l0.333332,0.5h0.666668l0.333332,-0.5" stroke="#808080" stroke-width="0.015625" fill="none"/><path d="M-19.1667,111.5v0l0.333332,0.5h0.666668l0.333332,-0.5" stroke="#808080" stroke-width="0.015625" fill="none"/><path d="M-19.1667,112.5v0l0.333332,0.5h0.666668l0.333332,-0.5" stroke="#808080" stroke-width="0.015625" fill="none"/><path d="M-19.1667,113.5v0l0.333332,0.5h0.666668l0.333332,-0.5" stroke="#808080" stroke-width="0.015625" fill="none"/><path d="M-19.1667,114.5v0l0.333332,0.5h0.666668l0.333332,-0.5" stroke="#808080" stroke-width="0.015625" fill="none"/><path d="M-19.1667,115.5v0l0.333332,0.5h0.666668l0.333332,-0.5" stroke="#808080" stroke-width="0.015625" fill="none"/><path d="M-19.1667,116.5v0l0.333332,0.5h0.666668l0.333332,-0.5" stroke="#808080" stroke-width="0.015625" fill="none"/><path d="M-19.1667,117.5v0l0.333332,0.5h0.666668l0.333332,-0.5" stroke="#808080" stroke-width="0.015625" fill="none"/><path d="M-19.1667,118.5v0l0.333332,0.5h0.666668l0.333332,-0.5" stroke="#808080" stroke-width="0.015625" fill="none"/><path d="M-19.1667,119.5v0l0.333332,0.5h0.666668l0.333332,-0.5" stroke="#808080" stroke-width="0.015625" fill="none"/><path d="M-19.1667,120.5v0l0.333332,0.5h0.666668l0.333332,-0.5" stroke="#808080" stroke-width="0.015625" fill="none"/><path d="M-18.1667,109v0l0.333332,0.5h0.666668l0.333332,-0.5" stroke="#808080" stroke-width="0.015625" fill="none"/><path d="M-18.1667,110v0l0.333332,0.5h0.666668l0.333332,-0.5" stroke="#808080" stroke-width="0.015625" fill="none"/><path d="M-18.1667,111v0l0.333332,0.5h0.666668l0.333332,-0.5" stroke="#808080" stroke-width="0.015625" fill="none"/><path d="M-18.1667,112v0l0.333332,0.5h0.666668l0.333332,-0.5" stroke="#808080" stroke-width="0.015625" fill="none"/><path d="M-18.1667,113v0l0.333332,0.5h0.666668l0.333332,-0.5" stroke="#808080" stroke-width="0.015625" fill="none"/><path d="M-18.1667,114v0l0.333332,0.5h0.666668l0.333332,-0.5" stroke="#808080" stroke-width="0.015625" fill="none"/><path d="M-18.1667,115v0l0.333332,0.5h0.666668l0.333332,-0.5" stroke="#808080" stroke-width="0.015625" fill="none"/><path d="M-18.1667,116v0l0.333332,0.5h0.666668l0.333332,-0.5" stroke="#808080" stroke-width="0.015625" fill="none"/><path d="M-18.1667,117v0l0.333332,0.5h0.666668l0.333332,-0.5" stroke="#808080" stroke-width="0.015625" fill="none"/><path d="M-18.1667,118v0l0.333332,0.5h0.666668l0.333332,-0.5" stroke="#808080" stroke-width="0.015625" fill="none"/><path d="M-18.1667,119v0l0.333332,0.5h0.666668l0.333332,-0.5" stroke="#808080" stroke-width="0.015625" fill="none"/><path d="M-18.1667,120v0l0.333332,0.5h0.666668l0.333332,-0.5" stroke="#808080" stroke-width="0.015625" fill="none"/><path d="M-18.1667,121v0l0.333332,0.5h0.666668l0.333332,-0.5" stroke="#808080" stroke-width="0.015625" fill="none"/><path d="M-17.1667,108.5v0l0.333332,0.5h0.666668l0.333333,-0.5" stroke="#808080" stroke-width="0.015625" fill="none"/><path d="M-17.1667,109.5v0l0.333332,0.5h0.666668l0.333333,-0.5" stroke="#808080" stroke-width="0.015625" fill="none"/><path d="M-17.1667,110.5v0l0.333332,0.5h0.666668l0.333333,-0.5" stroke="#808080" stroke-width="0.015625" fill="none"/><path d="M-17.1667,111.5v0l0.333332,0.5h0.666668l0.333333,-0.5" stroke="#808080" stroke-width="0.015625" fill="none"/><path d="M-17.1667,112.5v0l0.333332,0.5h0.666668l0.333333,-0.5" stroke="#808080" stroke-width="0.015625" fill="none"/><path d="M-17.1667,113.5v0l0.333332,0.5h0.666668l0.333333,-0.5" stroke="#808080" stroke-width="0.015625" fill="none"/><path d="M-17.1667,114.5v0l0.333332,0.5h0.666668l0.333333,-0.5" stroke="#808080" stroke-width="0.015625" fill="none"/><path d="M-17.1667,115.5v0l0.333332,0.5h0.666668l0.333333,-0.5" stroke="#808080" stroke-width="0.015625" fill="none"/><path d="M-17.1667,116.5v0l0.333332,0.5h0.666668l0.333333,-0.5" stroke="#808080" stroke-width="0.015625" fill="none"/><path d="M-17.1667,117.5v0l0.333332,0.5h0.666668l0.333333,-0.5" stroke="#808080" stroke-width="0.015625" fill="none"/><path d="M-17.1667,118.5v0l0.333332,0.5h0.666668l0.333333,-0.5" stroke="#808080" stroke-width="0.015625" fill="none"/><path d="M-17.1667,119.5v0l0.333332,0.5h0.666668l0.333333,-0.5" stroke="#808080" stroke-width="0.015625" fill="none"/><path d="M-17.1667,120.5v0l0.333332,0.5h0.666668l0.333333,-0.5" stroke="#808080" stroke-width="0.015625" fill="none"/><path d="M-16.1667,109v0l0.333333,0.5h0.666666l0.333334,-0.5" stroke="#808080" stroke-width="0.015625" fill="none"/><path d="M-16.1667,110v0l0.333333,0.5h0.666666l0.333334,-0.5" stroke="#808080" stroke-width="0.015625" fill="none"/><path d="M-16.1667,111v0l0.333333,0.5h0.666666l0.333334,-0.5" stroke="#808080" stroke-width="0.015625" fill="none"/><path d="M-16.1667,112v0l0.333333,0.5h0.666666l0.333334,-0.5" stroke="#808080" stroke-width="0.015625" fill="none"/><path d="M-16.1667,113v0l0.333333,0.5h0.666666l0.333334,-0.5" stroke="#808080" stroke-width="0.015625" fill="none"/><path d="M-16.1667,114v0l0.333333,0.5h0.666666l0.333334,-0.5" stroke="#808080" stroke-width="0.015625" fill="none"/><path d="M-16.1667,115v0l0.333333,0.5h0.666666l0.333334,-0.5" stroke="#808080" stroke-width="0.015625" fill="none"/><path d="M-16.1667,116v0l0.333333,0.5h0.666666l0.333334,-0.5" stroke="#808080" stroke-width="0.015625" fill="none"/><path d="M-16.1667,117v0l0.333333,0.5h0.666666l0.333334,-0.5" stroke="#808080" stroke-width="0.015625" fill="none"/><path d="M-16.1667,118v0l0.333333,0.5h0.666666l0.333334,-0.5" stroke="#808080" stroke-width="0.015625" fill="none"/><path d="M-16.1667,119v0l0.333333,0.5h0.666666l0.333334,-0.5" stroke="#808080" stroke-width="0.015625" fill="none"/><path d="M-16.1667,120v0l0.333333,0.5h0.666666l0.333334,-0.5" stroke="#808080" stroke-width="0.015625" fill="none"/><path d="M-16.1667,121v0l0.333333,0.5h0.666666l0.333334,-0.5" stroke="#808080" stroke-width="0.015625" fill="none"/><path d="M-15.1667,108.5v0l0.333334,0.5h0.666666l0.333334,-0.5" stroke="#808080" stroke-width="0.015625" fill="none"/><path d="M-15.1667,109.5v0l0.333334,0.5h0.666666l0.333334,-0.5" stroke="#808080" stroke-width="0.015625" fill="none"/><path d="M-15.1667,110.5v0l0.333334,0.5h0.666666l0.333334,-0.5" stroke="#808080" stroke-width="0.015625" fill="none"/><path d="M-15.1667,111.5v0l0.333334,0.5h0.666666l0.333334,-0.5" stroke="#808080" stroke-width="0.015625" fill="none"/><path d="M-15.1667,112.5v0l0.333334,0.5h0.666666l0.333334,-0.5" stroke="#808080" stroke-width="0.015625" fill="none"/><path d="M-15.1667,113.5v0l0.333334,0.5h0.666666l0.333334,-0.5" stroke="#808080" stroke-width="0.015625" fill="none"/><path d="M-15.1667,114.5v0l0.333334,0.5h0.666666l0.333334,-0.5" stroke="#808080" stroke-width="0.015625" fill="none"/><path d="M-15.1667,115.5v0l0.333334,0.5h0.666666l0.333334,-0.5" stroke="#808080" stroke-width="0.015625" fill="none"/><path d="M-15.1667,116.5v0l0.333334,0.5h0.666666l0.333334,-0.5" stroke="#808080" stroke-width="0.015625" fill="none"/><path d="M-15.1667,117.5v0l0.333334,0.5h0.666666l0.333334,-0.5" stroke="#808080" stroke-width="0.015625" fill="none"/><path d="M-15.1667,118.5v0l0.333334,0.5h0.666666l0.333334,-0.5" stroke="#808080" stroke-width="0.015625" fill="none"/><path d="M-15.1667,119.5v0l0.333334,0.5h0.666666l0.333334,-0.5" stroke="#808080" stroke-width="0.015625" fill="none"/><path d="M-15.1667,120.5v0l0.333334,0.5h0.666666l0.333334,-0.5" stroke="#808080" stroke-width="0.015625" fill="none"/><path d="M-14.1667,109v0l0.333334,0.5h0.666666l0.333334,-0.5" stroke="#808080" stroke-width="0.015625" fill="none"/><path d="M-14.1667,110v0l0.333334,0.5h0.666666l0.333334,-0.5" stroke="#808080" stroke-width="0.015625" fill="none"/><path d="M-14.1667,111v0l0.333334,0.5h0.666666l0.333334,-0.5" stroke="#808080" stroke-width="0.015625" fill="none"/><path d="M-14.1667,112v0l0.333334,0.5h0.666666l0.333334,-0.5" stroke="#808080" stroke-width="0.015625" fill="none"/><path d="M-14.1667,113v0l0.333334,0.5h0.666666l0.333334,-0.5" stroke="#808080" stroke-width="0.015625" fill="none"/><path d="M-14.1667,114v0l0.333334,0.5h0.666666l0.333334,-0.5" stroke="#808080" stroke-width="0.015625" fill="none"/><path d="M-14.1667,115v0l0.333334,0.5h0.666666l0.333334,-0.5" stroke="#808080" stroke-width="0.015625" fill="none"/><path d="M-14.1667,116v0l0.333334,0.5h0.666666l0.333334,-0.5" stroke="#808080" stroke-width="0.015625" fill="none"/><path d="M-14.1667,117v0l0.333334,0.5h0.666666l0.333334,-0.5" stroke="#808080" stroke-width="0.015625" fill="none"/><path d="M-14.1667,118v0l0.333334,0.5h0.666666l0.333334,-0.5" stroke="#808080" stroke-width="0.015625" fill="none"/><path d="M-14.1667,119v0l0.333334,0.5h0.666666l0.333334,-0.5" stroke="#808080" stroke-width="0.015625" fill="none"/><path d="M-14.1667,120v0l0.333334,0.5h0.666666l0.333334,-0.5" stroke="#808080" stroke-width="0.015625" fill="none"/><path d="M-14.1667,121v0l0.333334,0.5h0.666666l0.333334,-0.5" stroke="#808080" stroke-width="0.015625" fill="none"/><path d="M-13.1667,108.5v0l0.333334,0.5h0.666666l0.333334,-0.5" stroke="#808080" stroke-width="0.015625" fill="none"/><path d="M-13.1667,109.5v0l0.333334,0.5h0.666666l0.333334,-0.5" stroke="#808080" stroke-width="0.015625" fill="none"/><path d="M-13.1667,110.5v0l0.333334,0.5h0.666666l0.333334,-0.5" stroke="#808080" stroke-width="0.015625" fill="none"/><path d="M-13.1667,111.5v0l0.333334,0.5h0.666666l0.333334,-0.5" stroke="#808080" stroke-width="0.015625" fill="none"/><path d="M-13.1667,112.5v0l0.333334,0.5h0.666666l0.333334,-0.5" stroke="#808080" stroke-width="0.015625" fill="none"/><path d="M-13.1667,113.5v0l0.333334,0.5h0.666666l0.333334,-0.5" stroke="#808080" stroke-width="0.015625" fill="none"/><path d="M-13.1667,114.5v0l0.333334,0.5h0.666666l0.333334,-0.5" stroke="#808080" stroke-width="0.015625" fill="none"/><path d="M-13.1667,115.5v0l0.333334,0.5h0.666666l0.333334,-0.5" stroke="#808080" stroke-width="0.015625" fill="none"/><path d="M-13.1667,116.5v0l0.333334,0.5h0.666666l0.333334,-0.5" stroke="#808080" stroke-width="0.015625" fill="none"/><path d="M-13.1667,117.5v0l0.333334,0.5h0.666666l0.333334,-0.5" stroke="#808080" stroke-width="0.015625" fill="none"/><path d="M-13.1667,118.5v0l0.333334,0.5h0.666666l0.333334,-0.5" stroke="#808080" stroke-width="0.015625" fill="none"/><path d="M-13.1667,119.5v0l0.333334,0.5h0.666666l0.333334,-0.5" stroke="#808080" stroke-width="0.015625" fill="none"/><path d="M-13.1667,120.5v0l0.333334,0.5h0.666666l0.333334,-0.5" stroke="#808080" stroke-width="0.015625" fill="none"/><path d="M-12.1667,109v0l0.333334,0.5h0.666666l0.333334,-0.5" stroke="#808080" stroke-width="0.015625" fill="none"/><path d="M-12.1667,110v0l0.333334,0.5h0.666666l0.333334,-0.5" stroke="#808080" stroke-width="0.015625" fill="none"/><path d="M-12.1667,111v0l0.333334,0.5h0.666666l0.333334,-0.5" stroke="#808080" stroke-width="0.015625" fill="none"/><path d="M-12.1667,112v0l0.333334,0.5h0.666666l0.333334,-0.5" stroke="#808080" stroke-width="0.015625" fill="none"/><path d="M-12.1667,113v0l0.333334,0.5h0.666666l0.333334,-0.5" stroke="#808080" stroke-width="0.015625" fill="none"/><path d="M-12.1667,114v0l0.333334,0.5h0.666666l0.333334,-0.5" stroke="#808080" stroke-width="0.015625" fill="none"/><path d="M-12.1667,115v0l0.333334,0.5h0.666666l0.333334,-0.5" stroke="#808080" stroke-width="0.015625" fill="none"/><path d="M-12.1667,116v0l0.333334,0.5h0.666666l0.333334,-0.5" stroke="#808080" stroke-width="0.015625" fill="none"/><path d="M-12.1667,117v0l0.333334,0.5h0.666666l0.333334,-0.5" stroke="#808080" stroke-width="0.015625" fill="none"/><path d="M-12.1667,118v0l0.333334,0.5h0.666666l0.333334,-0.5" stroke="#808080" stroke-width="0.015625" fill="none"/><path d="M-12.1667,119v0l0.333334,0.5h0.666666l0.333334,-0.5" stroke="#808080" stroke-width="0.015625" fill="none"/><path d="M-12.1667,120v0l0.333334,0.5h0.666666l0.333334,-0.5" stroke="#808080" stroke-width="0.015625" fill="none"/><path d="M-12.1667,121v0l0.333334,0.5h0.666666l0.333334,-0.5" stroke="#808080" stroke-width="0.015625" fill="none"/><path d="M-11.1667,108.5v0l0.333334,0.5h0.666666l0.333334,-0.5" stroke="#808080" stroke-width="0.015625" fill="none"/><path d="M-11.1667,109.5v0l0.333334,0.5h0.666666l0.333334,-0.5" stroke="#808080" stroke-width="0.015625" fill="none"/><path d="M-11.1667,110.5v0l0.333334,0.5h0.666666l0.333334,-0.5" stroke="#808080" stroke-width="0.015625" fill="none"/><path d="M-11.1667,111.5v0l0.333334,0.5h0.666666l0.333334,-0.5" stroke="#808080" stroke-width="0.015625" fill="none"/><path d="M-11.1667,112.5v0l0.333334,0.5h0.666666l0.333334,-0.5" stroke="#808080" stroke-width="0.015625" fill="none"/><path d="M-11.1667,113.5v0l0.333334,0.5h0.666666l0.333334,-0.5" stroke="#808080" stroke-width="0.015625" fill="none"/><path d="M-11.1667,114.5v0l0.333334,0.5h0.666666l0.333334,-0.5" stroke="#808080" stroke-width="0.015625" fill="none"/><path d="M-11.1667,115.5v0l0.333334,0.5h0.666666l0.333334,-0.5" stroke="#808080" stroke-width="0.015625" fill="none"/><path d="M-11.1667,116.5v0l0.333334,0.5h0.666666l0.333334,-0.5" stroke="#808080" stroke-width="0.015625" fill="none"/><path d="M-11.1667,117.5v0l0.333334,0.5h0.666666l0.333334,-0.5" stroke="#808080" stroke-width="0.015625" fill="none"/><path d="M-11.1667,118.5v0l0.333334,0.5h0.666666l0.333334,-0.5" stroke="#808080" stroke-width="0.015625" fill="none"/><path d="M-11.1667,119.5v0l0.333334,0.5h0.666666l0.333334,-0.5" stroke="#808080" stroke-width="0.015625" fill="none"/><path d="M-11.1667,120.5v0l0.333334,0.5h0.666666l0.333334,-0.5" stroke="#808080" stroke-width="0.015625" fill="none"/><path d="M-10.1667,109v0l0.333334,0.5h0.666666l0.333334,-0.5" stroke="#808080" stroke-width="0.015625" fill="none"/><path d="M-10.1667,110v0l0.333334,0.5h0.666666l0.333334,-0.5" stroke="#808080" stroke-width="0.015625" fill="none"/><path d="M-10.1667,111v0l0.333334,0.5h0.666666l0.333334,-0.5" stroke="#808080" stroke-width="0.015625" fill="none"/><path d="M-10.1667,112v0l0.333334,0.5h0.666666l0.333334,-0.5" stroke="#808080" stroke-width="0.015625" fill="none"/><path d="M-10.1667,113v0l0.333334,0.5h0.666666l0.333334,-0.5" stroke="#808080" stroke-width="0.015625" fill="none"/><path d="M-10.1667,114v0l0.333334,0.5h0.666666l0.333334,-0.5" stroke="#808080" stroke-width="0.015625" fill="none"/><path d="M-10.1667,115v0l0.333334,0.5h0.666666l0.333334,-0.5" stroke="#808080" stroke-width="0.015625" fill="none"/><path d="M-10.1667,116v0l0.333334,0.5h0.666666l0.333334,-0.5" stroke="#808080" stroke-width="0.015625" fill="none"/><path d="M-10.1667,117v0l0.333334,0.5h0.666666l0.333334,-0.5" stroke="#808080" stroke-width="0.015625" fill="none"/><path d="M-10.1667,118v0l0.333334,0.5h0.666666l0.333334,-0.5" stroke="#808080" stroke-width="0.015625" fill="none"/><path d="M-10.1667,119v0l0.333334,0.5h0.666666l0.333334,-0.5" stroke="#808080" stroke-width="0.015625" fill="none"/><path d="M-10.1667,120v0l0.333334,0.5h0.666666l0.333334,-0.5" stroke="#808080" stroke-width="0.015625" fill="none"/><path d="M-10.1667,121v0l0.333334,0.5h0.666666l0.333334,-0.5" stroke="#808080" stroke-width="0.015625" fill="none"/><path d="M-9.16667,108.5v0l0.333334,0.5h0.666666l0.333334,-0.5" stroke="#808080" stroke-width="0.015625" fill="none"/><path d="M-9.16667,109.5v0l0.333334,0.5h0.666666l0.333334,-0.5" stroke="#808080" stroke-width="0.015625" fill="none"/><path d="M-9.16667,110.5v0l0.333334,0.5h0.666666l0.333334,-0.5" stroke="#808080" stroke-width="0.015625" fill="none"/><path d="M-9.16667,111.5v0l0.333334,0.5h0.666666l0.333334,-0.5" stroke="#808080" stroke-width="0.015625" fill="none"/><path d="M-9.16667,112.5v0l0.333334,0.5h0.666666l0.333334,-0.5" stroke="#808080" stroke-width="0.015625" fill="none"/><path d="M-9.16667,113.5v0l0.333334,0.5h0.666666l0.333334,-0.5" stroke="#808080" stroke-width="0.015625" fill="none"/><path d="M-9.16667,114.5v0l0.333334,0.5h0.666666l0.333334,-0.5" stroke="#808080" stroke-width="0.015625" fill="none"/><path d="M-9.16667,115.5v0l0.333334,0.5h0.666666l0.333334,-0.5" stroke="#808080" stroke-width="0.015625" fill="none"/><path d="M-9.16667,116.5v0l0.333334,0.5h0.666666l0.333334,-0.5" stroke="#808080" stroke-width="0.015625" fill="none"/><path d="M-9.16667,117.5v0l0.333334,0.5h0.666666l0.333334,-0.5" stroke="#808080" stroke-width="0.015625" fill="none"/><path d="M-9.16667,118.5v0l0.333334,0.5h0.666666l0.333334,-0.5" stroke="#808080" stroke-width="0.015625" fill="none"/><path d="M-9.16667,119.5v0l0.333334,0.5h0.666666l0.333334,-0.5" stroke="#808080" stroke-width="0.015625" fill="none"/><path d="M-9.16667,120.5v0l0.333334,0.5h0.666666l0.333334,-0.5" stroke="#808080" stroke-width="0.015625" fill="none"/><path clip-path="url(#did2)" d="M-33.8333,80.5l-0.333336,-0.5l0.333336,-0.5h0.666664l0.333336,-0.5h0.666664l0.333334,0.5h0.666668l0.333332,-0.5h0.666668l0.333332,0.5h0.666668l0.333332,-0.5h0.666668l0.333332,0.5h0.666668l0.333332,-0.5h0.666668l0.333332,0.5h0.666668l0.333332,-0.5h0.666668l0.333332,0.5h0.666668l0.333332,-0.5h0.666668l0.333332,0.5l-0.333332,0.5l0.333332,0.5h0.666668l0.333332,0.5h0.666668l0.333332,0.5l-0.333332,0.5l0.333332,0.5h0.666668l0.333332,0.5h0.666668l0.333332,0.5h0.666668l0.333332,0.5l-0.333332,0.5l0.333332,0.5l-0.333332,0.5l0.333332,0.5h0.666668l0.333333,0.5h0.666666l0.333334,0.5l-0.333334,0.5l0.333334,0.5l-0.333334,0.5l0.333334,0.5h0.666666l0.333334,0.5h0.666666l0.333334,-0.5h0.666666l0.333334,0.5h0.666666l0.333334,0.5h0.666666l0.333334,-0.5h0.666666l0.333334,-0.5h0.666666l0.333334,0.5l-0.333334,0.5h-0.666666l-0.333334,0.5h-0.666666l-0.333334,0.5h-0.666666l-0.333334,0.5l0.333334,0.5l-0.333334,0.5l0.333334,0.5h0.666666l0.333334,0.5l-0.333334,0.5h-0.666666l-0.333334,-0.5h-0.666666l-0.333334,0.5l0.333334,0.5l-0.333334,0.5l0.333334,0.5h0.666666l0.333334,0.5h0.666666l0.333334,0.5l-0.333334,0.5h-0.666666l-0.333334,0.5l0.333334,0.5l-0.333334,0.5l0.333334,0.5h0.666666l0.333334,-0.5h0.666666l0.333334,0.5l-0.333334,0.5h-0.666666l-0.333334,0.5h-0.666666l-0.333334,0.5h-0.666666l-0.333334,0.5l0.333334,0.5l-0.333334,0.5l0.333334,0.5h0.666666l0.333334,0.5h0.666666l0.333334,0.5h0.666666l0.333334,0.5h0.666666l0.333334,0.5h0.666667l0.333333,0.5h0.666667l0.333333,0.5l-0.333333,0.5h-0.666667l-0.333333,0.5h-0.666667l-0.333334,0.5l0.333334,0.5l-0.333334,0.5l0.333334,0.5l-0.333334,0.5l0.333334,0.5h0.666667l0.333333,-0.5l-0.333333,-0.5l0.333333,-0.5h0.666667l0.333333,0.5l-0.333333,0.5l0.333333,0.5l-0.333333,0.5l0.333333,0.5l-0.333333,0.5h-0.666667l-0.333333,-0.5h-0.666667l-0.333334,0.5l0.333334,0.5h0.666667l0.333333,0.5h0.666667l0.333333,-0.5h0.666667l0.333333,-0.5h0.666667l0.333333,-0.5h0.666667l0.333334,0.5h0.666667l0.333334,0.5h0.666667l0.333333,-0.5h0.666667l0.333333,0.5l-0.333333,0.5l0.333333,0.5l-0.333333,0.5l0.333333,0.5l-0.333333,0.5l0.333333,0.5l-0.333333,0.5l0.333333,0.5l-0.333333,0.5l0.333333,0.5l-0.333333,0.5l0.333333,0.5l-0.333333,0.5l0.333333,0.5l-0.333333,0.5l0.333333,0.5l-0.333333,0.5l0.333333,0.5l-0.333333,0.5h-0.666667l-0.333333,0.5h-0.666667l-0.333334,-0.5h-0.666667l-0.333334,0.5h-0.666667l-0.333333,-0.5h-0.666667l-0.333333,0.5h-0.666667l-0.333333,-0.5h-0.666667l-0.333333,0.5h-0.666667l-0.333334,-0.5h-0.666666l-0.333334,0.5h-0.666666l-0.333334,-0.5h-0.666666l-0.333334,0.5h-0.666666l-0.333334,-0.5h-0.666666l-0.333334,0.5h-0.666666l-0.333334,-0.5h-0.666666l-0.333334,0.5h-0.666666l-0.333333,-0.5h-0.666668l-0.333332,0.5h-0.666668l-0.333332,-0.5h-0.666668l-0.333332,0.5h-0.666668l-0.333332,-0.5h-0.666668l-0.333332,0.5h-0.666668l-0.333332,-0.5h-0.666668l-0.333332,0.5h-0.666668l-0.333332,-0.5h-0.666668l-0.333332,0.5h-0.666668l-0.333332,-0.5h-0.666668l-0.333332,0.5h-0.666668l-0.333332,-0.5h-0.666668l-0.333332,0.5h-0.666668l-0.333332,-0.5h-0.666668l-0.333332,0.5h-0.666668l-0.333334,-0.5h-0.666664l-0.333336,0.5h-0.666664l-0.333336,-0.5l0.333336,-0.5l-0.333336,-0.5l0.333336,-0.5l-0.333336,-0.5l0.333336,-0.5l-0.333336,-0.5l0.333336,-0.5l-0.333336,-0.5l0.333336,-0.5l-0.333336,-0.5l0.333336,-0.5l-0.333336,-0.5l0.333336,-0.5l-0.333336,-0.5l0.333336,-0.5l-0.333336,-0.5l0.333336,-0.5l-0.333336,-0.5l0.333336,-0.5l-0.333336,-0.5l0.333336,-0.5l-0.333336,-0.5l0.333336,-0.5l-0.333336,-0.5l0.333336,-0.5l-0.333336,-0.5l0.333336,-0.5l-0.333336,-0.5l0.333336,-0.5l-0.333336,-0.5l0.333336,-0.5l-0.333336,-0.5l0.333336,-0.5l-0.333336,-0.5l0.333336,-0.5l-0.333336,-0.5l0.333336,-0.5l-0.333336,-0.5l0.333336,-0.5l-0.333336,-0.5l0.333336,-0.5l-0.333336,-0.5l0.333336,-0.5l-0.333336,-0.5l0.333336,-0.5l-0.333336,-0.5l0.333336,-0.5l-0.333336,-0.5l0.333336,-0.5l-0.333336,-0.5l0.333336,-0.5l-0.333336,-0.5l0.333336,-0.5l-0.333336,-0.5l0.333336,-0.5l-0.333336,-0.5l0.333336,-0.5l-0.333336,-0.5l0.333336,-0.5l-0.333336,-0.5l0.333336,-0.5l-0.333336,-0.5l0.333336,-0.5l-0.333336,-0.5l0.333336,-0.5l-0.333336,-0.5l0.333336,-0.5l-0.333336,-0.5l0.333336,-0.5l-0.333336,-0.5l0.333336,-0.5l-0.333336,-0.5l0.333336,-0.5l-0.333336,-0.5l0.333336,-0.5l-0.333336,-0.5l0.333336,-0.5l-0.333336,-0.5l0.333336,-0.5l-0.333336,-0.5Z" stroke="Orange" stroke-width="0.16" fill="none"/><path clip-path="url(#did3)" d="M-20.8333,87l-0.333332,-0.5l0.333332,-0.5h0.666668l0.333332,0.5h0.666668l0.333332,0.5l-0.333332,0.5l0.333332,0.5l-0.333332,0.5h-0.666668l-0.333332,-0.5l0.333332,-0.5l-0.333332,-0.5Z" stroke="Blue" stroke-width="0.16" fill="none"/><path clip-path="url(#did4)" d="M-22.8333,93l-0.333332,-0.5l0.333332,-0.5h0.666668l0.333332,-0.5l-0.333332,-0.5l0.333332,-0.5l-0.333332,-0.5l0.333332,-0.5l-0.333332,-0.5l0.333332,-0.5h0.666668l0.333332,0.5h0.666668l0.333332,0.5h0.666668l0.333332,0.5h0.666668l0.333332,0.5l-0.333332,0.5l0.333332,0.5l-0.333332,0.5l0.333332,0.5l-0.333332,0.5l0.333332,0.5l-0.333332,0.5l0.333332,0.5l-0.333332,0.5l0.333332,0.5l-0.333332,0.5l0.333332,0.5l-0.333332,0.5h-0.666668l-0.333332,-0.5l0.333332,-0.5l-0.333332,-0.5l0.333332,-0.5l-0.333332,-0.5l0.333332,-0.5l-0.333332,-0.5l0.333332,-0.5l-0.333332,-0.5h-0.666668l-0.333332,-0.5h-0.666668l-0.333332,0.5h-0.666668l-0.333332,0.5l0.333332,0.5h0.666668l0.333332,0.5l-0.333332,0.5h-0.666668l-0.333332,0.5l0.333332,0.5l-0.333332,0.5h-0.666668l-0.333332,-0.5l0.333332,-0.5l-0.333332,-0.5l0.333332,-0.5l-0.333332,-0.5Z" stroke="Blue" stroke-width="0.16" fill="none"/><path clip-path="url(#did5)" d="M-16.8333,93l-0.333332,-0.5l0.333332,-0.5h0.666668l0.333333,-0.5h0.666666l0.333334,-0.5l-0.333334,-0.5l0.333334,-0.5h0.666666l0.333334,0.5l-0.333334,0.5l0.333334,0.5h0.666666l0.333334,0.5l-0.333334,0.5h-0.666666l-0.333334,0.5l0.333334,0.5l-0.333334,0.5l0.333334,0.5l-0.333334,0.5l0.333334,0.5l-0.333334,0.5l0.333334,0.5l-0.333334,0.5l0.333334,0.5l-0.333334,0.5l0.333334,0.5h0.666666l0.333334,0.5l-0.333334,0.5h-0.666666l-0.333334,-0.5h-0.666666l-0.333334,-0.5l0.333334,-0.5l-0.333334,-0.5h-0.666666l-0.333333,-0.5l0.333333,-0.5l-0.333333,-0.5l0.333333,-0.5l-0.333333,-0.5l0.333333,-0.5l-0.333333,-0.5h-0.666668l-0.333332,-0.5Z" stroke="Blue" stroke-width="0.16" fill="none"/><path clip-path="url(#did6)" d="M-31.8333,83.5l-0.333334,-0.5l0.333334,-0.5h0.666668l0.333332,0.5h0.666668l0.333332,0.5h0.666668l0.333332,0.5l-0.333332,0.5h-0.666668l-0.333332,-0.5h-0.666668l-0.333332,0.5l0.333332,0.5l-0.333332,0.5h-0.666668l-0.333334,-0.5l0.333334,-0.5l-0.333334,-0.5Z" stroke="Blue" stroke-width="0.16" fill="none"/><path clip-path="url(#did7)" d="M-27.8333,81.5l-0.333332,-0.5l0.333332,-0.5h0.666668l0.333332,-0.5h0.666668l0.333332,0.5l-0.333332,0.5h-0.666668l-0.333332,0.5Z" stroke="Blue" stroke-width="0.16" fill="none"/><path clip-path="url(#did8)" d="M-31.8333,90.5l-0.333334,-0.5l0.333334,-0.5h0.666668l0.333332,0.5l-0.333332,0.5l0.333332,0.5l-0.333332,0.5h-0.666668l-0.333334,-0.5Z" stroke="Blue" stroke-width="0.16" fill="none"/><path clip-path="url(#did9)" d="M-19.8333,80.5l-0.333332,-0.5l0.333332,-0.5h0.666668l0.333332,-0.5h0.666668l0.333332,0.5h0.666668l0.333332,-0.5h0.666668l0.333333,0.5h0.666666l0.333334,-0.5h0.666666l0.333334,0.5h0.666666l0.333334,-0.5h0.666666l0.333334,0.5h0.666666l0.333334,-0.5h0.666666l0.333334,0.5h0.666666l0.333334,-0.5h0.666666l0.333334,0.5h0.666667l0.333333,-0.5h0.666667l0.333333,0.5h0.666667l0.333333,-0.5h0.666667l0.333333,0.5h0.666667l0.333334,-0.5h0.666667l0.333334,0.5h0.666667l0.333333,-0.5h0.666667l0.333333,0.5l-0.333333,0.5l0.333333,0.5l-0.333333,0.5l0.333333,0.5l-0.333333,0.5l0.333333,0.5l-0.333333,0.5l0.333333,0.5l-0.333333,0.5l0.333333,0.5l-0.333333,0.5l0.333333,0.5l-0.333333,0.5l0.333333,0.5l-0.333333,0.5l0.333333,0.5l-0.333333,0.5l0.333333,0.5l-0.333333,0.5l0.333333,0.5l-0.333333,0.5l0.333333,0.5l-0.333333,0.5l0.333333,0.5l-0.333333,0.5l0.333333,0.5l-0.333333,0.5l0.333333,0.5l-0.333333,0.5l0.333333,0.5l-0.333333,0.5l0.333333,0.5l-0.333333,0.5l0.333333,0.5l-0.333333,0.5l0.333333,0.5l-0.333333,0.5l0.333333,0.5l-0.333333,0.5l0.333333,0.5l-0.333333,0.5l0.333333,0.5l-0.333333,0.5l0.333333,0.5l-0.333333,0.5l0.333333,0.5l-0.333333,0.5l0.333333,0.5l-0.333333,0.5l0.333333,0.5l-0.333333,0.5l0.333333,0.5l-0.333333,0.5l0.333333,0.5l-0.333333,0.5h-0.666667l-0.333333,0.5l0.333333,0.5l-0.333333,0.5l0.333333,0.5l-0.333333,0.5l0.333333,0.5l-0.333333,0.5l0.333333,0.5l-0.333333,0.5h-0.666667l-0.333334,-0.5h-0.666667l-0.333334,-0.5h-0.666667l-0.333333,0.5h-0.666667l-0.333333,0.5h-0.666667l-0.333333,0.5h-0.666667l-0.333333,-0.5h-0.666667l-0.333334,-0.5l0.333334,-0.5h0.666667l0.333333,0.5h0.666667l0.333333,-0.5l-0.333333,-0.5l0.333333,-0.5l-0.333333,-0.5l0.333333,-0.5l-0.333333,-0.5h-0.666667l-0.333333,0.5h-0.666667l-0.333334,-0.5l0.333334,-0.5h0.666667l0.333333,-0.5l-0.333333,-0.5l0.333333,-0.5h0.666667l0.333333,-0.5l-0.333333,-0.5h-0.666667l-0.333333,-0.5h-0.666667l-0.333334,-0.5h-0.666666l-0.333334,-0.5h-0.666666l-0.333334,-0.5l0.333334,-0.5l-0.333334,-0.5h-0.666666l-0.333334,-0.5l0.333334,-0.5l-0.333334,-0.5l0.333334,-0.5h0.666666l0.333334,-0.5h0.666666l0.333334,-0.5l-0.333334,-0.5h-0.666666l-0.333334,0.5h-0.666666l-0.333334,-0.5l0.333334,-0.5h0.666666l0.333334,-0.5l-0.333334,-0.5l0.333334,-0.5l-0.333334,-0.5h-0.666666l-0.333334,-0.5h-0.666666l-0.333334,-0.5l0.333334,-0.5l-0.333334,-0.5l0.333334,-0.5h0.666666l0.333334,0.5h0.666666l0.333334,-0.5l-0.333334,-0.5h-0.666666l-0.333334,-0.5l0.333334,-0.5l-0.333334,-0.5l0.333334,-0.5h0.666666l0.333334,-0.5h0.666666l0.333334,-0.5h0.666666l0.333334,-0.5l-0.333334,-0.5h-0.666666l-0.333334,0.5h-0.666666l-0.333334,0.5h-0.666666l-0.333334,-0.5h-0.666666l-0.333334,-0.5h-0.666666l-0.333334,0.5h-0.666666l-0.333334,-0.5h-0.666666l-0.333334,-0.5l0.333334,-0.5l-0.333334,-0.5l0.333334,-0.5l-0.333334,-0.5h-0.666666l-0.333333,-0.5l0.333333,-0.5l-0.333333,-0.5l0.333333,-0.5l-0.333333,-0.5l0.333333,-0.5l-0.333333,-0.5l0.333333,-0.5l-0.333333,-0.5h-0.666668l-0.333332,-0.5h-0.666668l-0.333332,-0.5h-0.666668l-0.333332,-0.5Z" stroke="#E32736" stroke-width="0.16" fill="none"/><line x1="-15.311" y1="110.189" x2="-13.689" y2="111.811" stroke="#048104" stroke-width="0.08"/><line x1="-15.25" y1="112.875" x2="-13.75" y2="112.125" stroke="#048104" stroke-width="0.08"/><line x1="-18.2165" y1="113.453" x2="-15.7835" y2="113.047" stroke="#048104" stroke-width="0.08"/><line x1="-13.25" y1="112.125" x2="-10.75" y2="113.375" stroke="#048104" stroke-width="0.08"/><line x1="-10.5" y1="113.75" x2="-10.5" y2="117.25" stroke="#048104" stroke-width="0.08"/><line x1="-10.3557" y1="117.717" x2="-9.64434" y2="118.784" stroke="#048104" stroke-width="0.08"/><line x1="-9.25" y1="118.875" x2="-8.75" y2="118.625" stroke="#048104" stroke-width="0.08"/><line x1="-10.25" y1="113.625" x2="-6.75" y2="115.375" stroke="#048104" stroke-width="0.08"/></g><g clip-path="url(#did10)"><text transform="translate(-16.5,114.5) scale(1.1547 1)" font-family="Arial" font-size="0.14" text-anchor="middle" x="0" y="-0.381" fill="DarkGray">1735</text><text transform="translate(-16.5,115.5) scale(1.1547 1)" font-family="Arial" font-size="0.14" text-anchor="middle" x="0" y="-0.381" fill="DarkGray">1736</text><text transform="translate(-15.5,111) scale(1.1547 1)" font-family="Arial" font-size="0.14" text-anchor="middle" x="0" y="-0.381" fill="DarkGray">1831</text><text transform="translate(-15.5,112) scale(1.1547 1)" font-family="Arial" font-size="0.14" text-anchor="middle" x="0" y="-0.381" fill="DarkGray">1832</text><text transform="translate(-15.5,113) scale(1.1547 1)" font-family="Arial" font-size="0.14" text-anchor="middle" x="0" y="-0.381" fill="DarkGray">1833</text><text transform="translate(-15.5,114) scale(1.1547 1)" font-family="Arial" font-size="0.14" text-anchor="middle" x="0" y="-0.381" fill="DarkGray">1834</text><text transform="translate(-15.5,116) scale(1.1547 1)" font-family="Arial" font-size="0.14" text-anchor="middle" x="0" y="-0.381" fill="DarkGray">1836</text><text transform="translate(-15.5,117) scale(1.1547 1)" font-family="Arial" font-size="0.14" text-anchor="middle" x="0" y="-0.381" fill="DarkGray">1837</text><text transform="translate(-15.5,118) scale(1.1547 1)" font-family="Arial" font-size="0.14" text-anchor="middle" x="0" y="-0.381" fill="DarkGray">1838</text><text transform="translate(-15.5,120) scale(1.1547 1)" font-family="Arial" font-size="0.14" text-anchor="middle" x="0" y="-0.381" fill="DarkGray">1840</text><text transform="translate(-14.5,113.5) scale(1.1547 1)" font-family="Arial" font-size="0.14" text-anchor="middle" x="0" y="-0.381" fill="DarkGray">1934</text><text transform="translate(-14.5,114.5) scale(1.1547 1)" font-family="Arial" font-size="0.14" text-anchor="middle" x="0" y="-0.381" fill="DarkGray">1935</text><text transform="translate(-14.5,115.5) scale(1.1547 1)" font-family="Arial" font-size="0.14" text-anchor="middle" x="0" y="-0.381" fill="DarkGray">1936</text><text transform="translate(-14.5,118.5) scale(1.1547 1)" font-family="Arial" font-size="0.14" text-anchor="middle" x="0" y="-0.381" fill="DarkGray">1939</text><text transform="translate(-13.5,112) scale(1.1547 1)" font-family="Arial" font-size="0.14" text-anchor="middle" x="0" y="-0.381" fill="DarkGray">2032</text><text transform="translate(-12.5,111.5) scale(1.1547 1)" font-family="Arial" font-size="0.14" text-anchor="middle" x="0" y="-0.381" fill="DarkGray">2132</text><g transform="translate(-12.5,112.5) scale(1.1547 1)"><circle r="0.4" cx="0" cy="0" stroke="#E32736" stroke-width="0.05" fill="none"/><text font-family="Arial" font-size="0.14" text-anchor="middle" x="0" y="-0.381" fill="DarkGray">2133</text></g><text transform="translate(-12.5,113.5) scale(1.1547 1)" font-family="Arial" font-size="0.14" text-anchor="middle" x="0" y="-0.381" fill="DarkGray">2134</text><text transform="translate(-12.5,114.5) scale(1.1547 1)" font-family="Arial" font-size="0.14" text-anchor="middle" x="0" y="-0.381" fill="DarkGray">2135</text><text transform="translate(-12.5,115.5) scale(1.1547 1)" font-family="Arial" font-size="0.14" text-anchor="middle" x="0" y="-0.381" fill="DarkGray">2136</text><text transform="translate(-12.5,118.5) scale(1.1547 1)" font-family="Arial" font-size="0.14" text-anchor="middle" x="0" y="-0.381" fill="DarkGray">2139</text><g transform="translate(-11.5,111) scale(1.1547 1)"><circle r="0.4" cx="0" cy="0" stroke="#E32736" stroke-width="0.05" fill="none"/><text font-family="Arial" font-size="0.14" text-anchor="middle" x="0" y="-0.381" fill="DarkGray">2231</text></g><text transform="translate(-11.5,114) scale(1.1547 1)" font-family="Arial" font-size="0.14" text-anchor="middle" x="0" y="-0.381" fill="DarkGray">2234</text><text transform="translate(-11.5,116) scale(1.1547 1)" font-family="Arial" font-size="0.14" text-anchor="middle" x="0" y="-0.381" fill="DarkGray">2236</text><text transform="translate(-11.5,118) scale(1.1547 1)" font-family="Arial" font-size="0.14" text-anchor="middle" x="0" y="-0.381" fill="DarkGray">2238</text><text transform="translate(-11.5,119) scale(1.1547 1)" font-family="Arial" font-size="0.14" text-anchor="middle" x="0" y="-0.381" fill="DarkGray">2239</text><text transform="translate(-10.5,111.5) scale(1.1547 1)" font-family="Arial" font-size="0.14" text-anchor="middle" x="0" y="-0.381" fill="DarkGray">2332</text><text transform="translate(-10.5,113.5) scale(1.1547 1)" font-family="Arial" font-size="0.14" text-anchor="middle" x="0" y="-0.381" fill="DarkGray">2334</text><text transform="translate(-10.5,114.5) scale(1.1547 1)" font-family="Arial" font-size="0.14" text-anchor="middle" x="0" y="-0.381" fill="DarkGray">2335</text><text transform="translate(-10.5,117.5) scale(1.1547 1)" font-family="Arial" font-size="0.14" text-anchor="middle" x="0" y="-0.381" fill="DarkGray">2338</text><text transform="translate(-10.5,118.5) scale(1.1547 1)" font-family="Arial" font-size="0.14" text-anchor="middle" x="0" y="-0.381" fill="DarkGray">2339</text><text transform="translate(-9.5,114) scale(1.1547 1)" font-family="Arial" font-size="0.14" text-anchor="middle" x="0" y="-0.381" fill="DarkGray">2434</text><text transform="translate(-9.5,116) scale(1.1547 1)" font-family="Arial" font-size="0.14" text-anchor="middle" x="0" y="-0.381" fill="DarkGray">2436</text><text transform="translate(-9.5,119) scale(1.1547 1)" font-family="Arial" font-size="0.14" text-anchor="middle" x="0" y="-0.381" fill="DarkGray">2439</text></g><g transform="translate(-16.5,114.5) scale(1.1547 1)"><circle transform="translate(0.25,-0.18)" r="0.05" cx="0" cy="0" stroke="none" fill="Black"/><rect x="-0.113084" y="-0.35543" width="0.226167" height="0.260859" stroke="none" fill="White"/><text font-family="Arial" font-size="0.21" font-weight="bold" text-anchor="middle" x="0" y="-0.13575" fill="Black">B</text><circle r="0.1" cx="0" cy="0" stroke="none" fill="DeepSkyBlue"/><rect x="-0.539749" y="0.23957" width="1.0795" height="0.260859" stroke="none" fill="White"/><text font-family="Arial" font-size="0.21" font-weight="bold" text-anchor="middle" x="0" y="0.45925" fill="Black">Genugten</text><text font-family="Arial" font-size="0.14" text-anchor="middle" x="0.25" y="0.2395" fill="Black">SoCf</text></g><g transform="translate(-16.5,115.5) scale(1.1547 1)"><rect x="-0.107136" y="-0.35543" width="0.214273" height="0.260859" stroke="none" fill="White"/><text font-family="Arial" font-size="0.21" font-weight="bold" text-anchor="middle" x="0" y="-0.13575" fill="Black">E</text><circle r="0.1" cx="0" cy="0" stroke="none" fill="DeepSkyBlue"/><rect x="-0.509551" y="0.23957" width="1.0191" height="0.260859" stroke="none" fill="White"/><text font-family="Arial" font-size="0.21" font-weight="bold" text-anchor="middle" x="0" y="0.45925" fill="Black">UNGARN</text><text font-family="Arial" font-size="0.14" text-anchor="middle" x="0.25" y="0.2395" fill="Black">SoCf</text></g><g transform="translate(-15.5,111) scale(1.1547 1)"><circle transform="translate(0.25,-0.18)" r="0.05" cx="0" cy="0" stroke="none" fill="Black"/><rect x="-0.113084" y="-0.35543" width="0.226167" height="0.260859" stroke="none" fill="White"/><text font-family="Arial" font-size="0.21" font-weight="bold" text-anchor="middle" x="0" y="-0.13575" fill="Black">C</text><circle r="0.1" cx="0" cy="0" stroke="none" fill="DeepSkyBlue"/><rect x="-0.365535" y="0.23957" width="0.731069" height="0.260859" stroke="none" fill="White"/><text font-family="Arial" font-size="0.21" font-weight="bold" text-anchor="middle" x="0" y="0.45925" fill="Black">Coeus</text><text font-family="Arial" font-size="0.14" text-anchor="middle" x="0.25" y="0.2395" fill="Black">SoCf</text></g><g transform="translate(-15.5,112) scale(1.1547 1)"><circle transform="translate(0.25,-0.18)" r="0.05" cx="0" cy="0" stroke="none" fill="Black"/><rect x="-0.113084" y="-0.35543" width="0.226167" height="0.260859" stroke="none" fill="White"/><text font-family="Arial" font-size="0.21" font-weight="bold" text-anchor="middle" x="0" y="-0.13575" fill="Black">B</text><circle r="0.1" cx="0" cy="0" stroke="Black" stroke-width="0.015625" fill="White"/><rect x="-0.48571" y="0.23957" width="0.971421" height="0.260859" stroke="none" fill="White"/><text font-family="Arial" font-size="0.21" font-weight="bold" text-anchor="middle" x="0" y="0.45925" fill="Black">Harpring</text><text font-family="Arial" font-size="0.14" text-anchor="middle" x="0.25" y="0.2395" fill="Black">SoCf</text></g><g transform="translate(-15.5,113) scale(1.1547 1)"><circle transform="translate(0.25,-0.18)" r="0.05" cx="0" cy="0" stroke="none" fill="Black"/><rect x="-0.113084" y="-0.35543" width="0.226167" height="0.260859" stroke="none" fill="White"/><text font-family="Arial" font-size="0.21" font-weight="bold" text-anchor="middle" x="0" y="-0.13575" fill="Black">A</text><text font-family="Arial Unicode MS,Segoe UI Symbol,Arial" font-size="0.21" font-weight="bold" text-anchor="middle" x="-0.25" y="-0.09075" fill="#E32736">★</text><text font-family="Arial Unicode MS,Segoe UI Symbol,Arial" font-size="0.21" font-weight="bold" text-anchor="middle" x="-0.25" y="0.26925" fill="Black">✦</text><circle r="0.1" cx="0" cy="0" stroke="none" fill="DeepSkyBlue"/><rect x="-0.443721" y="0.23957" width="0.887441" height="0.260859" stroke="none" fill="White"/><text font-family="Arial" font-size="0.21" font-weight="bold" text-anchor="middle" x="0" y="0.45925" fill="#E32736">Viallalta</text><text font-family="Arial" font-size="0.14" text-anchor="middle" x="0.25" y="0.2395" fill="Black">SoCf</text></g><g transform="translate(-15.5,114) scale(1.1547 1)"><circle transform="translate(0.25,-0.18)" r="0.05" cx="0" cy="0" stroke="none" fill="Black"/><rect x="-0.113084" y="-0.35543" width="0.226167" height="0.260859" stroke="none" fill="White"/><text font-family="Arial" font-size="0.21" font-weight="bold" text-anchor="middle" x="0" y="-0.13575" fill="Black">C</text><circle r="0.1" cx="0" cy="0" stroke="none" fill="DeepSkyBlue"/><rect x="-0.431672" y="0.23957" width="0.863345" height="0.260859" stroke="none" fill="White"/><text font-family="Arial" font-size="0.21" font-weight="bold" text-anchor="middle" x="0" y="0.45925" fill="Black">Furuma</text><text font-family="Arial" font-size="0.14" text-anchor="middle" x="0.25" y="0.2395" fill="Black">SoCf</text></g><g transform="translate(-15.5,116) scale(1.1547 1)"><circle transform="translate(0.25,-0.18)" r="0.05" cx="0" cy="0" stroke="none" fill="Black"/><rect x="-0.113084" y="-0.35543" width="0.226167" height="0.260859" stroke="none" fill="White"/><text font-family="Arial" font-size="0.21" font-weight="bold" text-anchor="middle" x="0" y="-0.13575" fill="Black">C</text><circle r="0.1" cx="0" cy="0" stroke="none" fill="DeepSkyBlue"/><rect x="-0.28135" y="0.23957" width="0.5627" height="0.260859" stroke="none" fill="White"/><text font-family="Arial" font-size="0.21" font-weight="bold" text-anchor="middle" x="0" y="0.45925" fill="Black">Ratri</text><text font-family="Arial" font-size="0.14" text-anchor="middle" x="0.25" y="0.2395" fill="Black">SoCf</text></g><g transform="translate(-15.5,117) scale(1.1547 1)"><circle transform="translate(0.25,-0.18)" r="0.05" cx="0" cy="0" stroke="none" fill="Black"/><rect x="-0.113084" y="-0.35543" width="0.226167" height="0.260859" stroke="none" fill="White"/><text font-family="Arial" font-size="0.21" font-weight="bold" text-anchor="middle" x="0" y="-0.13575" fill="Black">B</text><circle r="0.1" cx="0" cy="0" stroke="none" fill="DeepSkyBlue"/><rect x="-0.395681" y="0.23957" width="0.791362" height="0.260859" stroke="none" fill="White"/><text font-family="Arial" font-size="0.21" font-weight="bold" text-anchor="middle" x="0" y="0.45925" fill="Black">Glenex</text><text font-family="Arial" font-size="0.14" text-anchor="middle" x="0.25" y="0.2395" fill="Black">SoCf</text></g><g transform="translate(-15.5,118) scale(1.1547 1)"><circle transform="translate(0.25,-0.18)" r="0.05" cx="0" cy="0" stroke="none" fill="Black"/><rect x="-0.113084" y="-0.35543" width="0.226167" height="0.260859" stroke="none" fill="White"/><text font-family="Arial" font-size="0.21" font-weight="bold" text-anchor="middle" x="0" y="-0.13575" fill="Black">D</text><circle r="0.1" cx="0" cy="0" stroke="none" fill="DeepSkyBlue"/><rect x="-0.569844" y="0.23957" width="1.13969" height="0.260859" stroke="none" fill="White"/><text font-family="Arial" font-size="0.21" font-weight="bold" text-anchor="middle" x="0" y="0.45925" fill="Black">Barnstone</text><text font-family="Arial" font-size="0.14" text-anchor="middle" x="0.25" y="0.2395" fill="Black">SoCf</text></g><g transform="translate(-15.5,120) scale(1.1547 1)"><circle transform="translate(0.25,-0.18)" r="0.05" cx="0" cy="0" stroke="none" fill="Black"/><rect x="-0.113084" y="-0.35543" width="0.226167" height="0.260859" stroke="none" fill="White"/><text font-family="Arial" font-size="0.21" font-weight="bold" text-anchor="middle" x="0" y="-0.13575" fill="Black">D</text><circle r="0.1" cx="0" cy="0" stroke="Black" stroke-width="0.015625" fill="White"/><rect x="-0.660078" y="0.23957" width="1.32016" height="0.260859" stroke="none" fill="White"/><text font-family="Arial" font-size="0.21" font-weight="bold" text-anchor="middle" x="0" y="0.45925" fill="Black">Farringhaus</text><text font-family="Arial" font-size="0.14" text-anchor="middle" x="0.25" y="0.2395" fill="Black">SoCf</text></g><g transform="translate(-14.5,113.5) scale(1.1547 1)"><circle transform="translate(0.25,-0.18)" r="0.05" cx="0" cy="0" stroke="none" fill="Black"/><rect x="-0.107136" y="-0.35543" width="0.214273" height="0.260859" stroke="none" fill="White"/><text font-family="Arial" font-size="0.21" font-weight="bold" text-anchor="middle" x="0" y="-0.13575" fill="Black">E</text><circle r="0.1" cx="0" cy="0" stroke="none" fill="DeepSkyBlue"/><rect x="-0.353486" y="0.23957" width="0.706973" height="0.260859" stroke="none" fill="White"/><text font-family="Arial" font-size="0.21" font-weight="bold" text-anchor="middle" x="0" y="0.45925" fill="Black">Teault</text><text font-family="Arial" font-size="0.14" text-anchor="middle" x="0.25" y="0.2395" fill="Black">SoCf</text></g><g transform="translate(-14.5,114.5) scale(1.1547 1)"><circle transform="translate(0.25,-0.18)" r="0.05" cx="0" cy="0" stroke="none" fill="Black"/><rect x="-0.113084" y="-0.35543" width="0.226167" height="0.260859" stroke="none" fill="White"/><text font-family="Arial" font-size="0.21" font-weight="bold" text-anchor="middle" x="0" y="-0.13575" fill="Black">C</text><circle r="0.1" cx="0" cy="0" stroke="Black" stroke-width="0.015625" fill="White"/><rect x="-0.383684" y="0.23957" width="0.767368" height="0.260859" stroke="none" fill="White"/><text font-family="Arial" font-size="0.21" font-weight="bold" text-anchor="middle" x="0" y="0.45925" fill="Black">Dyavai</text><text font-family="Arial" font-size="0.14" text-anchor="middle" x="0.25" y="0.2395" fill="Black">SoCf</text></g><g transform="translate(-14.5,115.5) scale(1.1547 1)"><circle transform="translate(0.25,-0.18)" r="0.05" cx="0" cy="0" stroke="none" fill="Black"/><rect x="-0.113084" y="-0.35543" width="0.226167" height="0.260859" stroke="none" fill="White"/><text font-family="Arial" font-size="0.21" font-weight="bold" text-anchor="middle" x="0" y="-0.13575" fill="Black">C</text><circle r="0.1" cx="0" cy="0" stroke="none" fill="DeepSkyBlue"/><rect x="-0.329492" y="0.23957" width="0.658984" height="0.260859" stroke="none" fill="White"/><text font-family="Arial" font-size="0.21" font-weight="bold" text-anchor="middle" x="0" y="0.45925" fill="Black">Ebisu</text><text font-family="Arial" font-size="0.14" text-anchor="middle" x="0.25" y="0.2395" fill="Black">SoCf</text></g><g transform="translate(-14.5,118.5) scale(1.1547 1)"><circle transform="translate(0.25,-0.18)" r="0.05" cx="0" cy="0" stroke="none" fill="Black"/><rect x="-0.113084" y="-0.35543" width="0.226167" height="0.260859" stroke="none" fill="White"/><text font-family="Arial" font-size="0.21" font-weight="bold" text-anchor="middle" x="0" y="-0.13575" fill="Black">B</text><circle r="0.1" cx="0" cy="0" stroke="none" fill="DeepSkyBlue"/><rect x="-0.35969" y="0.23957" width="0.71938" height="0.260859" stroke="none" fill="White"/><text font-family="Arial" font-size="0.21" font-weight="bold" text-anchor="middle" x="0" y="0.45925" fill="Black">Salyer</text><text font-family="Arial" font-size="0.14" text-anchor="middle" x="0.25" y="0.2395" fill="Black">SoCf</text></g><g transform="translate(-13.5,112) scale(1.1547 1)"><circle transform="translate(0.25,-0.18)" r="0.05" cx="0" cy="0" stroke="none" fill="Black"/><rect x="-0.113084" y="-0.35543" width="0.226167" height="0.260859" stroke="none" fill="White"/><text font-family="Arial" font-size="0.21" font-weight="bold" text-anchor="middle" x="0" y="-0.13575" fill="Black">A</text><text font-family="Arial Unicode MS,Segoe UI Symbol,Arial" font-size="0.21" font-weight="bold" text-anchor="middle" x="-0.25" y="-0.09075" fill="#E32736">★</text><text font-family="Arial Unicode MS,Segoe UI Symbol,Arial" font-size="0.21" font-weight="bold" text-anchor="middle" x="-0.25" y="0.26925" fill="Black">✦</text><circle r="0.1" cx="0" cy="0" stroke="none" fill="DeepSkyBlue"/><rect x="-0.539902" y="0.23957" width="1.07981" height="0.260859" stroke="none" fill="White"/><text font-family="Arial" font-size="0.21" font-weight="bold" text-anchor="middle" x="0" y="0.45925" fill="Black">Ghoryana</text><text font-family="Arial" font-size="0.14" text-anchor="middle" x="0.25" y="0.2395" fill="Black">SoCf</text></g><g transform="translate(-12.5,111.5) scale(1.1547 1)"><circle transform="translate(0.25,-0.18)" r="0.05" cx="0" cy="0" stroke="none" fill="Black"/><rect x="-0.113084" y="-0.35543" width="0.226167" height="0.260859" stroke="none" fill="White"/><text font-family="Arial" font-size="0.21" font-weight="bold" text-anchor="middle" x="0" y="-0.13575" fill="Black">C</text><circle r="0.1" cx="0" cy="0" stroke="Black" stroke-width="0.015625" fill="White"/><rect x="-0.467664" y="0.23957" width="0.935327" height="0.260859" stroke="none" fill="White"/><text font-family="Arial" font-size="0.21" font-weight="bold" text-anchor="middle" x="0" y="0.45925" fill="Black">Tuxhorn</text><text font-family="Arial" font-size="0.14" text-anchor="middle" x="0.25" y="0.2395" fill="Black">SoCf</text></g><g transform="translate(-12.5,112.5) scale(1.1547 1)"><circle transform="translate(0.25,-0.18)" r="0.05" cx="0" cy="0" stroke="none" fill="Black"/><rect x="-0.107136" y="-0.35543" width="0.214273" height="0.260859" stroke="none" fill="White"/><text font-family="Arial" font-size="0.21" font-weight="bold" text-anchor="middle" x="0" y="-0.13575" fill="Black">X</text><circle r="0.1" cx="0" cy="0" stroke="none" fill="DeepSkyBlue"/><rect x="-0.329492" y="0.23957" width="0.658984" height="0.260859" stroke="none" fill="White"/><text font-family="Arial" font-size="0.21" font-weight="bold" text-anchor="middle" x="0" y="0.45925" fill="Black">Diana</text><text font-family="Arial" font-size="0.14" text-anchor="middle" x="0.25" y="0.2395" fill="Black">SoCf</text></g><g transform="translate(-12.5,113.5) scale(1.1547 1)"><circle transform="translate(0.25,-0.18)" r="0.05" cx="0" cy="0" stroke="none" fill="Black"/><rect x="-0.113084" y="-0.35543" width="0.226167" height="0.260859" stroke="none" fill="White"/><text font-family="Arial" font-size="0.21" font-weight="bold" text-anchor="middle" x="0" y="-0.13575" fill="Black">C</text><circle r="0.1" cx="0" cy="0" stroke="Black" stroke-width="0.015625" fill="White"/><rect x="-0.431621" y="0.23957" width="0.863242" height="0.260859" stroke="none" fill="White"/><text font-family="Arial" font-size="0.21" font-weight="bold" text-anchor="middle" x="0" y="0.45925" fill="Black">Urquiza</text><text font-family="Arial" font-size="0.14" text-anchor="middle" x="0.25" y="0.2395" fill="Black">SoCf</text></g><g transform="translate(-12.5,114.5) scale(1.1547 1)"><circle transform="translate(0.25,-0.18)" r="0.05" cx="0" cy="0" stroke="none" fill="Black"/><rect x="-0.113084" y="-0.35543" width="0.226167" height="0.260859" stroke="none" fill="White"/><text font-family="Arial" font-size="0.21" font-weight="bold" text-anchor="middle" x="0" y="-0.13575" fill="Black">C</text><circle r="0.1" cx="0" cy="0" stroke="Black" stroke-width="0.015625" fill="White"/><rect x="-0.431724" y="0.23957" width="0.863447" height="0.260859" stroke="none" fill="White"/><text font-family="Arial" font-size="0.21" font-weight="bold" text-anchor="middle" x="0" y="0.45925" fill="Black">Needler</text><text font-family="Arial" font-size="0.14" text-anchor="middle" x="0.25" y="0.2395" fill="Black">SoCf</text></g><g transform="translate(-12.5,115.5) scale(1.1547 1)"><circle transform="translate(0.25,-0.18)" r="0.05" cx="0" cy="0" stroke="none" fill="Black"/><rect x="-0.113084" y="-0.35543" width="0.226167" height="0.260859" stroke="none" fill="White"/><text font-family="Arial" font-size="0.21" font-weight="bold" text-anchor="middle" x="0" y="-0.13575" fill="Black">D</text><circle r="0.1" cx="0" cy="0" stroke="none" fill="DeepSkyBlue"/><rect x="-0.557898" y="0.23957" width="1.1158" height="0.260859" stroke="none" fill="White"/><text font-family="Arial" font-size="0.21" font-weight="bold" text-anchor="middle" x="0" y="0.45925" fill="Black">Gastineau</text><text font-family="Arial" font-size="0.14" text-anchor="middle" x="0.25" y="0.2395" fill="Black">SoCf</text></g><g transform="translate(-12.5,118.5) scale(1.1547 1)"><circle transform="translate(0.25,-0.18)" r="0.05" cx="0" cy="0" stroke="none" fill="Black"/><rect x="-0.113084" y="-0.35543" width="0.226167" height="0.260859" stroke="none" fill="White"/><text font-family="Arial" font-size="0.21" font-weight="bold" text-anchor="middle" x="0" y="-0.13575" fill="Black">C</text><ellipse rx="0.0274198" ry="0.0221228" cx="-0.07" cy="-0.07" stroke="none" fill="Black"/><ellipse rx="0.0296263" ry="0.0319417" cx="0" cy="-0.07" stroke="none" fill="Black"/><ellipse rx="0.0266321" ry="0.0255139" cx="-0.105" cy="0" stroke="none" fill="Black"/><ellipse rx="0.0208493" ry="0.0284606" cx="-0.035" cy="0" stroke="none" fill="Black"/><ellipse rx="0.0271795" ry="0.0214322" cx="0.035" cy="0" stroke="none" fill="Black"/><ellipse rx="0.0274289" ry="0.0209147" cx="0.105" cy="0" stroke="none" fill="Black"/><ellipse rx="0.0277271" ry="0.0217629" cx="0" cy="0.07" stroke="none" fill="Black"/><rect x="-0.617986" y="0.23957" width="1.23597" height="0.260859" stroke="none" fill="White"/><text font-family="Arial" font-size="0.21" font-weight="bold" text-anchor="middle" x="0" y="0.45925" fill="Black">Stancombe</text><text font-family="Arial" font-size="0.14" text-anchor="middle" x="0.25" y="0.2395" fill="Black">SoCf</text></g><g transform="translate(-11.5,111) scale(1.1547 1)"><circle transform="translate(0.25,-0.18)" r="0.05" cx="0" cy="0" stroke="none" fill="Black"/><rect x="-0.107136" y="-0.35543" width="0.214273" height="0.260859" stroke="none" fill="White"/><text font-family="Arial" font-size="0.21" font-weight="bold" text-anchor="middle" x="0" y="-0.13575" fill="Black">X</text><circle r="0.1" cx="0" cy="0" stroke="none" fill="DeepSkyBlue"/><rect x="-0.395476" y="0.23957" width="0.790952" height="0.260859" stroke="none" fill="White"/><text font-family="Arial" font-size="0.21" font-weight="bold" text-anchor="middle" x="0" y="0.45925" fill="Black">Mazotz</text><text font-family="Arial" font-size="0.14" text-anchor="middle" x="0.25" y="0.2395" fill="Black">SoCf</text></g><g transform="translate(-11.5,114) scale(1.1547 1)"><circle transform="translate(0.25,-0.18)" r="0.05" cx="0" cy="0" stroke="none" fill="Black"/><rect x="-0.113084" y="-0.35543" width="0.226167" height="0.260859" stroke="none" fill="White"/><text font-family="Arial" font-size="0.21" font-weight="bold" text-anchor="middle" x="0" y="-0.13575" fill="Black">C</text><circle r="0.1" cx="0" cy="0" stroke="none" fill="DeepSkyBlue"/><rect x="-0.34759" y="0.23957" width="0.695181" height="0.260859" stroke="none" fill="White"/><text font-family="Arial" font-size="0.21" font-weight="bold" text-anchor="middle" x="0" y="0.45925" fill="Black">Tyche</text><text font-family="Arial" font-size="0.14" text-anchor="middle" x="0.25" y="0.2395" fill="Black">SoCf</text></g><g transform="translate(-11.5,116) scale(1.1547 1)"><rect x="-0.113084" y="-0.35543" width="0.226167" height="0.260859" stroke="none" fill="White"/><text font-family="Arial" font-size="0.21" font-weight="bold" text-anchor="middle" x="0" y="-0.13575" fill="Black">C</text><circle r="0.1" cx="0" cy="0" stroke="none" fill="DeepSkyBlue"/><rect x="-0.413728" y="0.23957" width="0.827456" height="0.260859" stroke="none" fill="White"/><text font-family="Arial" font-size="0.21" font-weight="bold" text-anchor="middle" x="0" y="0.45925" fill="Black">Balajee</text><text font-family="Arial" font-size="0.14" text-anchor="middle" x="0.25" y="0.2395" fill="Black">SoCf</text></g><g transform="translate(-11.5,118) scale(1.1547 1)"><circle transform="translate(0.25,-0.18)" r="0.05" cx="0" cy="0" stroke="none" fill="Black"/><rect x="-0.113084" y="-0.35543" width="0.226167" height="0.260859" stroke="none" fill="White"/><text font-family="Arial" font-size="0.21" font-weight="bold" text-anchor="middle" x="0" y="-0.13575" fill="Black">C</text><circle r="0.1" cx="0" cy="0" stroke="Black" stroke-width="0.015625" fill="White"/><rect x="-0.497861" y="0.23957" width="0.995723" height="0.260859" stroke="none" fill="White"/><text font-family="Arial" font-size="0.21" font-weight="bold" text-anchor="middle" x="0" y="0.45925" fill="Black">Frykberg</text><text font-family="Arial" font-size="0.14" text-anchor="middle" x="0.25" y="0.2395" fill="Black">SoCf</text></g><g transform="translate(-11.5,119) scale(1.1547 1)"><circle transform="translate(0.25,-0.18)" r="0.05" cx="0" cy="0" stroke="none" fill="Black"/><rect x="-0.113084" y="-0.35543" width="0.226167" height="0.260859" stroke="none" fill="White"/><text font-family="Arial" font-size="0.21" font-weight="bold" text-anchor="middle" x="0" y="-0.13575" fill="Black">B</text><text font-family="Arial Unicode MS,Segoe UI Symbol,Arial" font-size="0.21" font-weight="bold" text-anchor="middle" x="-0.25" y="-0.09075" fill="#E32736">★</text><text font-family="Arial Unicode MS,Segoe UI Symbol,Arial" font-size="0.21" font-weight="bold" text-anchor="middle" x="-0.25" y="0.26925" fill="Black">✦</text><circle r="0.1" cx="0" cy="0" stroke="Black" stroke-width="0.015625" fill="White"/><rect x="-0.467612" y="0.23957" width="0.935225" height="0.260859" stroke="none" fill="White"/><text font-family="Arial" font-size="0.21" font-weight="bold" text-anchor="middle" x="0" y="0.45925" fill="Black">Wolfram</text><text font-family="Arial" font-size="0.14" text-anchor="middle" x="0.25" y="0.2395" fill="Black">SoCf</text></g><g transform="translate(-10.5,111.5) scale(1.1547 1)"><circle transform="translate(0.25,-0.18)" r="0.05" cx="0" cy="0" stroke="none" fill="Black"/><rect x="-0.113084" y="-0.35543" width="0.226167" height="0.260859" stroke="none" fill="White"/><text font-family="Arial" font-size="0.21" font-weight="bold" text-anchor="middle" x="0" y="-0.13575" fill="Black">C</text><circle r="0.1" cx="0" cy="0" stroke="none" fill="DeepSkyBlue"/><rect x="-0.317444" y="0.23957" width="0.634888" height="0.260859" stroke="none" fill="White"/><text font-family="Arial" font-size="0.21" font-weight="bold" text-anchor="middle" x="0" y="0.45925" fill="Black">Licini</text><text font-family="Arial" font-size="0.14" text-anchor="middle" x="0.25" y="0.2395" fill="Black">SoCf</text></g><g transform="translate(-10.5,113.5) scale(1.1547 1)"><circle transform="translate(0.25,-0.18)" r="0.05" cx="0" cy="0" stroke="none" fill="Black"/><rect x="-0.113084" y="-0.35543" width="0.226167" height="0.260859" stroke="none" fill="White"/><text font-family="Arial" font-size="0.21" font-weight="bold" text-anchor="middle" x="0" y="-0.13575" fill="Black">A</text><circle r="0.1" cx="0" cy="0" stroke="none" fill="DeepSkyBlue"/><rect x="-0.317495" y="0.23957" width="0.63499" height="0.260859" stroke="none" fill="White"/><text font-family="Arial" font-size="0.21" font-weight="bold" text-anchor="middle" x="0" y="0.45925" fill="Black">Lisah</text><text font-family="Arial" font-size="0.14" text-anchor="middle" x="0.25" y="0.2395" fill="Black">SoCf</text></g><g transform="translate(-10.5,114.5) scale(1.1547 1)"><circle transform="translate(0.25,-0.18)" r="0.05" cx="0" cy="0" stroke="none" fill="Black"/><rect x="-0.113084" y="-0.35543" width="0.226167" height="0.260859" stroke="none" fill="White"/><text font-family="Arial" font-size="0.21" font-weight="bold" text-anchor="middle" x="0" y="-0.13575" fill="Black">A</text><text font-family="Arial Unicode MS,Segoe UI Symbol,Arial" font-size="0.21" font-weight="bold" text-anchor="middle" x="-0.25" y="-0.09075" fill="#E32736">★</text><text font-family="Arial Unicode MS,Segoe UI Symbol,Arial" font-size="0.21" font-weight="bold" text-anchor="middle" x="-0.25" y="0.26925" fill="Black">✦</text><circle r="0.1" cx="0" cy="0" stroke="none" fill="DeepSkyBlue"/><rect x="-0.305396" y="0.23957" width="0.610791" height="0.260859" stroke="none" fill="White"/><text font-family="Arial" font-size="0.21" font-weight="bold" text-anchor="middle" x="0" y="0.45925" fill="Black">Roen</text><text font-family="Arial" font-size="0.14" text-anchor="middle" x="0.25" y="0.2395" fill="Black">SoCf</text></g><g transform="translate(-10.5,117.5) scale(1.1547 1)"><circle transform="translate(0.25,-0.18)" r="0.05" cx="0" cy="0" stroke="none" fill="Black"/><rect x="-0.113084" y="-0.35543" width="0.226167" height="0.260859" stroke="none" fill="White"/><text font-family="Arial" font-size="0.21" font-weight="bold" text-anchor="middle" x="0" y="-0.13575" fill="Black">A</text><text font-family="Arial Unicode MS,Segoe UI Symbol,Arial" font-size="0.21" font-weight="bold" text-anchor="middle" x="-0.25" y="-0.09075" fill="#E32736">★</text><text font-family="Arial Unicode MS,Segoe UI Symbol,Arial" font-size="0.21" font-weight="bold" text-anchor="middle" x="-0.25" y="0.26925" fill="Black">✦</text><circle r="0.1" cx="0" cy="0" stroke="none" fill="DeepSkyBlue"/><rect x="-0.587839" y="0.23957" width="1.17568" height="0.260859" stroke="none" fill="White"/><text font-family="Arial" font-size="0.21" font-weight="bold" text-anchor="middle" x="0" y="0.45925" fill="Black">Shigetoshi</text><text font-family="Arial" font-size="0.14" text-anchor="middle" x="0.25" y="0.2395" fill="Black">SoCf</text></g><g transform="translate(-10.5,118.5) scale(1.1547 1)"><circle transform="translate(0.25,-0.18)" r="0.05" cx="0" cy="0" stroke="none" fill="Black"/><rect x="-0.107136" y="-0.35543" width="0.214273" height="0.260859" stroke="none" fill="White"/><text font-family="Arial" font-size="0.21" font-weight="bold" text-anchor="middle" x="0" y="-0.13575" fill="Black">E</text><circle r="0.1" cx="0" cy="0" stroke="none" fill="DeepSkyBlue"/><rect x="-0.365535" y="0.23957" width="0.731069" height="0.260859" stroke="none" fill="White"/><text font-family="Arial" font-size="0.21" font-weight="bold" text-anchor="middle" x="0" y="0.45925" fill="Black">Ebaun</text><text font-family="Arial" font-size="0.14" text-anchor="middle" x="0.25" y="0.2395" fill="Black">SoCf</text></g><g transform="translate(-9.5,114) scale(1.1547 1)"><circle transform="translate(0.25,-0.18)" r="0.05" cx="0" cy="0" stroke="none" fill="Black"/><rect x="-0.113084" y="-0.35543" width="0.226167" height="0.260859" stroke="none" fill="White"/><text font-family="Arial" font-size="0.21" font-weight="bold" text-anchor="middle" x="0" y="-0.13575" fill="Black">A</text><text font-family="Arial Unicode MS,Segoe UI Symbol,Arial" font-size="0.21" font-weight="bold" text-anchor="middle" x="-0.25" y="-0.09075" fill="#E32736">★</text><text font-family="Arial Unicode MS,Segoe UI Symbol,Arial" font-size="0.21" font-weight="bold" text-anchor="middle" x="-0.25" y="0.26925" fill="Black">✦</text><circle r="0.1" cx="0" cy="0" stroke="none" fill="DeepSkyBlue"/><rect x="-0.245359" y="0.23957" width="0.490718" height="0.260859" stroke="none" fill="White"/><text font-family="Arial" font-size="0.21" font-weight="bold" text-anchor="middle" x="0" y="0.45925" fill="Black">Geb</text><text font-family="Arial" font-size="0.14" text-anchor="middle" x="0.25" y="0.2395" fill="Black">SoCf</text></g><g transform="translate(-9.5,116) scale(1.1547 1)"><circle transform="translate(0.25,-0.18)" r="0.05" cx="0" cy="0" stroke="none" fill="Black"/><rect x="-0.107136" y="-0.35543" width="0.214273" height="0.260859" stroke="none" fill="White"/><text font-family="Arial" font-size="0.21" font-weight="bold" text-anchor="middle" x="0" y="-0.13575" fill="Black">E</text><circle r="0.1" cx="0" cy="0" stroke="Black" stroke-width="0.015625" fill="White"/><rect x="-0.32939" y="0.23957" width="0.658779" height="0.260859" stroke="none" fill="White"/><text font-family="Arial" font-size="0.21" font-weight="bold" text-anchor="middle" x="0" y="0.45925" fill="Black">Tuoni</text><text font-family="Arial" font-size="0.14" text-anchor="middle" x="0.25" y="0.2395" fill="Black">SoCf</text></g><g transform="translate(-9.5,119) scale(1.1547 1)"><circle transform="translate(0.25,-0.18)" r="0.05" cx="0" cy="0" stroke="none" fill="Black"/><rect x="-0.113084" y="-0.35543" width="0.226167" height="0.260859" stroke="none" fill="White"/><text font-family="Arial" font-size="0.21" font-weight="bold" text-anchor="middle" x="0" y="-0.13575" fill="Black">A</text><circle r="0.1" cx="0" cy="0" stroke="Black" stroke-width="0.015625" fill="White"/><rect x="-0.467612" y="0.23957" width="0.935225" height="0.260859" stroke="none" fill="White"/><text font-family="Arial" font-size="0.21" font-weight="bold" text-anchor="middle" x="0" y="0.45925" fill="Black">Wingard</text><text font-family="Arial" font-size="0.14" text-anchor="middle" x="0.25" y="0.2395" fill="Black">SoCf</text></g></g></svg>