<?xml version = "1.0" encoding="utf-8"?>
<svg version="1.1" baseProfile="full" xmlns="http://www.w3.org/2000/svg" xmlns:xlink="http://www.w3.org/1999/xlink" width="471" height="684" viewBox="0 0 471 684" clip="0 471 0 684"><defs><clipPath id="did1"><rect x="30.75" y="-20.1" width="8.5" height="10.7"/></clipPath><clipPath id="did2"><path d="M30.1667,-39.5l-0.333332,-0.5l0.333332,-0.5h0.666668l0.333332,-0.5h0.666668l0.333334,0.5h0.666664l0.333336,-0.5h0.666664l0.333336,0.5h0.666664l0.333336,-0.5h0.666664l0.333336,0.5h0.666664l0.333336,-0.5h0.666664l0.333336,0.5h0.666664l0.333336,-0.5h0.666664l0.333336,0.5h0.666664l0.333336,-0.5h0.666664l0.333336,0.5h0.666664l0.333336,-0.5h0.666664l0.333336,0.5h0.666664l0.333336,-0.5h0.666664l0.333336,0.5h0.666664l0.333336,-0.5h0.666664l0.333336,0.5h0.666664l0.333336,-0.5h0.666664l0.333336,0.5h0.666664l0.333336,-0.5h0.666664l0.333336,0.5h0.666664l0.333336,-0.5h0.666664l0.333336,0.5h0.666664l0.333336,-0.5h0.666664l0.333336,0.5h0.666664l0.333336,-0.5h0.666664l0.333336,0.5h0.666664l0.333336,-0.5h0.666664l0.333336,0.5h0.666664l0.333336,-0.5h0.666664l0.333336,0.5h0.666664l0.333336,-0.5h0.666664l0.333332,0.5l-0.333332,0.5l0.333332,0.5l-0.333332,0.5l0.333332,0.5l-0.333332,0.5l0.333332,0.5l-0.333332,0.5l0.333332,0.5l-0.333332,0.5l0.333332,0.5l-0.333332,0.5l0.333332,0.5l-0.333332,0.5l0.333332,0.5l-0.333332,0.5l0.333332,0.5l-0.333332,0.5l0.333332,0.5l-0.333332,0.5l0.333332,0.5l-0.333332,0.5l0.333332,0.5l-0.333332,0.5l0.333332,0.5l-0.333332,0.5l0.333332,0.5l-0.333332,0.5l0.333332,0.5l-0.333332,0.5l0.333332,0.5l-0.333332,0.5l0.333332,0.5l-0.333332,0.5l0.333332,0.5l-0.333332,0.5l0.333332,0.5l-0.333332,0.5l0.333332,0.5l-0.333332,0.5l0.333332,0.5l-0.333332,0.5l0.333332,0.5l-0.333332,0.5l0.333332,0.5l-0.333332,0.5l0.333332,0.5l-0.333332,0.5l0.333332,0.5l-0.333332,0.5l0.333332,0.5l-0.333332,0.5l0.333332,0.5l-0.333332,0.5l0.333332,0.5l-0.333332,0.5l0.333332,0.5l-0.333332,0.5l0.333332,0.5l-0.333332,0.5l0.333332,0.5l-0.333332,0.5l0.333332,0.5l-0.333332,0.5l0.333332,0.5l-0.333332,0.5l0.333332,0.5l-0.333332,0.5l0.333332,0.5l-0.333332,0.5l0.333332,0.5l-0.333332,0.5l0.333332,0.5l-0.333332,0.5l0.333332,0.5l-0.333332,0.5l0.333332,0.5l-0.333332,0.5l0.333332,0.5l-0.333332,0.5h-0.666664l-0.333336,-0.5h-0.666664l-0.333336,-0.5l0.333336,-0.5l-0.333336,-0.5h-0.666664l-0.333336,-0.5l0.333336,-0.5l-0.333336,-0.5h-0.666664l-0.333336,0.5h-0.666664l-0.333336,0.5l0.333336,0.5l-0.333336,0.5h-0.666664l-0.333336,0.5h-0.666664l-0.333336,0.5h-0.666664l-0.333336,0.5h-0.666664l-0.333336,0.5h-0.666664l-0.333336,0.5h-0.666664l-0.333336,0.5h-0.666664l-0.333336,-0.5h-0.666664l-0.333336,0.5h-0.666664l-0.333336,0.5h-0.666664l-0.333336,0.5h-0.666664l-0.333336,-0.5h-0.666664l-0.333336,0.5h-0.666664l-0.333336,-0.5h-0.666664l-0.333336,0.5h-0.666664l-0.333336,-0.5h-0.666664l-0.333336,0.5h-0.666664l-0.333336,-0.5h-0.666664l-0.333336,0.5h-0.666664l-0.333336,-0.5h-0.666664l-0.333336,0.5h-0.666664l-0.333336,-0.5h-0.666664l-0.333336,0.5h-0.666664l-0.333336,-0.5h-0.666664l-0.333336,0.5h-0.666664l-0.333336,-0.5h-0.666664l-0.333336,0.5h-0.666664l-0.333334,-0.5h-0.666668l-0.333332,0.5h-0.666668l-0.333332,-0.5l0.333332,-0.5l-0.333332,-0.5l0.333332,-0.5l-0.333332,-0.5l0.333332,-0.5l-0.333332,-0.5l0.333332,-0.5l-0.333332,-0.5l0.333332,-0.5l-0.333332,-0.5l0.333332,-0.5l-0.333332,-0.5l0.333332,-0.5l-0.333332,-0.5l0.333332,-0.5l-0.333332,-0.5l0.333332,-0.5l-0.333332,-0.5l0.333332,-0.5l-0.333332,-0.5l0.333332,-0.5l-0.333332,-0.5l0.333332,-0.5l-0.333332,-0.5l0.333332,-0.5l-0.333332,-0.5l0.333332,-0.5l-0.333332,-0.5l0.333332,-0.5l-0.333332,-0.5l0.333332,-0.5l-0.333332,-0.5l0.333332,-0.5l-0.333332,-0.5l0.333332,-0.5l-0.333332,-0.5l0.333332,-0.5l-0.333332,-0.5l0.333332,-0.5l-0.333332,-0.5l0.333332,-0.5l-0.333332,-0.5l0.333332,-0.5l-0.333332,-0.5l0.333332,-0.5l-0.333332,-0.5l0.333332,-0.5l-0.333332,-0.5l0.333332,-0.5l-0.333332,-0.5l0.333332,-0.5l-0.333332,-0.5l0.333332,-0.5l-0.333332,-0.5l0.333332,-0.5l-0.333332,-0.5l0.333332,-0.5l-0.333332,-0.5l0.333332,-0.5l-0.333332,-0.5l0.333332,-0.5l-0.333332,-0.5l0.333332,-0.5l-0.333332,-0.5l0.333332,-0.5l-0.333332,-0.5l0.333332,-0.5l-0.333332,-0.5l0.333332,-0.5l-0.333332,-0.5l0.333332,-0.5l-0.333332,-0.5l0.333332,-0.5l-0.333332,-0.5l0.333332,-0.5l-0.333332,-0.5l0.333332,-0.5l-0.333332,-0.5l0.333332,-0.5l-0.333332,-0.5Z"/></clipPath><clipPath id="did3"><rect x="30.75" y="-20.1" width="8.5" height="10.7"/></clipPath><clipPath id="did4"><rect x="30.75" y="-20.1" width="8.5" height="10.7"/></clipPath></defs><g fill="None" stroke="None" transform="matrix(1,0,0,1,0,0) matrix(55.4256,0,0,64,-1704.34,1286.4)"><g clip-path="url(#did1)"><rect x="29.9" y="-21.17" width="10.2" height="12.84" stroke="none" fill="White"/><path d="M28.8333,-21.5v0l0.333332,0.5h0.666668l0.333332,-0.5" stroke="#808080" stroke-width="0.015625" fill="none"/><path d="M28.8333,-20.5v0l0.333332,0.5h0.666668l0.333332,-0.5" stroke="#808080" stroke-width="0.015625" fill="none"/><path d="M28.8333,-19.5v0l0.333332,0.5h0.666668l0.333332,-0.5" stroke="#808080" stroke-width="0.015625" fill="none"/><path d="M28.8333,-18.5v0l0.333332,0.5h0.666668l0.333332,-0.5" stroke="#808080" stroke-width="0.015625" fill="none"/><path d="M28.8333,-17.5v0l0.333332,0.5h0.666668l0.333332,-0.5" stroke="#808080" stroke-width="0.015625" fill="none"/><path d="M28.8333,-16.5v0l0.333332,0.5h0.666668l0.333332,-0.5" stroke="#808080" stroke-width="0.015625" fill="none"/><path d="M28.8333,-15.5v0l0.333332,0.5h0.666668l0.333332,-0.5" stroke="#808080" stroke-width="0.015625" fill="none"/><path d="M28.8333,-14.5v0l0.333332,0.5h0.666668l0.333332,-0.5" stroke="#808080" stroke-width="0.015625" fill="none"/><path d="M28.8333,-13.5v0l0.333332,0.5h0.666668l0.333332,-0.5" stroke="#808080" stroke-width="0.015625" fill="none"/><path d="M28.8333,-12.5v0l0.333332,0.5h0.666668l0.333332,-0.5" stroke="#808080" stroke-width="0.015625" fill="none"/><path d="M28.8333,-11.5v0l0.333332,0.5h0.666668l0.333332,-0.5" stroke="#808080" stroke-width="0.015625" fill="none"/><path d="M28.8333,-10.5v0l0.333332,0.5h0.666668l0.333332,-0.5" stroke="#808080" stroke-width="0.015625" fill="none"/><path d="M28.8333,-9.5v0l0.333332,0.5h0.666668l0.333332,-0.5" stroke="#808080" stroke-width="0.015625" fill="none"/><path d="M29.8333,-21v0l0.333332,0.5h0.666668l0.333332,-0.5" stroke="#808080" stroke-width="0.015625" fill="none"/><path d="M29.8333,-20v0l0.333332,0.5h0.666668l0.333332,-0.5" stroke="#808080" stroke-width="0.015625" fill="none"/><path d="M29.8333,-19v0l0.333332,0.5h0.666668l0.333332,-0.5" stroke="#808080" stroke-width="0.015625" fill="none"/><path d="M29.8333,-18v0l0.333332,0.5h0.666668l0.333332,-0.5" stroke="#808080" stroke-width="0.015625" fill="none"/><path d="M29.8333,-17v0l0.333332,0.5h0.666668l0.333332,-0.5" stroke="#808080" stroke-width="0.015625" fill="none"/><path d="M29.8333,-16v0l0.333332,0.5h0.666668l0.333332,-0.5" stroke="#808080" stroke-width="0.015625" fill="none"/><path d="M29.8333,-15v0l0.333332,0.5h0.666668l0.333332,-0.5" stroke="#808080" stroke-width="0.015625" fill="none"/><path d="M29.8333,-14v0l0.333332,0.5h0.666668l0.333332,-0.5" stroke="#808080" stroke-width="0.015625" fill="none"/><path d="M29.8333,-13v0l0.333332,0.5h0.666668l0.333332,-0.5" stroke="#808080" stroke-width="0.015625" fill="none"/><path d="M29.8333,-12v0l0.333332,0.5h0.666668l0.333332,-0.5" stroke="#808080" stroke-width="0.015625" fill="none"/><path d="M29.8333,-11v0l0.333332,0.5h0.666668l0.333332,-0.5" stroke="#808080" stroke-width="0.015625" fill="none"/><path d="M29.8333,-10v0l0.333332,0.5h0.666668l0.333332,-0.5" stroke="#808080" stroke-width="0.015625" fill="none"/><path d="M29.8333,-9v0l0.333332,0.5h0.666668l0.333332,-0.5" stroke="#808080" stroke-width="0.015625" fill="none"/><path d="M30.8333,-21.5v0l0.333332,0.5h0.666668l0.333334,-0.5" stroke="#808080" stroke-width="0.015625" fill="none"/><path d="M30.8333,-20.5v0l0.333332,0.5h0.666668l0.333334,-0.5" stroke="#808080" stroke-width="0.015625" fill="none"/><path d="M30.8333,-19.5v0l0.333332,0.5h0.666668l0.333334,-0.5" stroke="#808080" stroke-width="0.015625" fill="none"/><path d="M30.8333,-18.5v0l0.333332,0.5h0.666668l0.333334,-0.5" stroke="#808080" stroke-width="0.015625" fill="none"/><path d="M30.8333,-17.5v0l0.333332,0.5h0.666668l0.333334,-0.5" stroke="#808080" stroke-width="0.015625" fill="none"/><path d="M30.8333,-16.5v0l0.333332,0.5h0.666668l0.333334,-0.5" stroke="#808080" stroke-width="0.015625" fill="none"/><path d="M30.8333,-15.5v0l0.333332,0.5h0.666668l0.333334,-0.5" stroke="#808080" stroke-width="0.015625" fill="none"/><path d="M30.8333,-14.5v0l0.333332,0.5h0.666668l0.333334,-0.5" stroke="#808080" stroke-width="0.015625" fill="none"/><path d="M30.8333,-13.5v0l0.333332,0.5h0.666668l0.333334,-0.5" stroke="#808080" stroke-width="0.015625" fill="none"/><path d="M30.8333,-12.5v0l0.333332,0.5h0.666668l0.333334,-0.5" stroke="#808080" stroke-width="0.015625" fill="none"/><path d="M30.8333,-11.5v0l0.333332,0.5h0.666668l0.333334,-0.5" stroke="#808080" stroke-width="0.015625" fill="none"/><path d="M30.8333,-10.5v0l0.333332,0.5h0.666668l0.333334,-0.5" stroke="#808080" stroke-width="0.015625" fill="none"/><path d="M30.8333,-9.5v0l0.333332,0.5h0.666668l0.333334,-0.5" stroke="#808080" stroke-width="0.015625" fill="none"/><path d="M31.8333,-21v0l0.333334,0.5h0.666664l0.333336,-0.5" stroke="#808080" stroke-width="0.015625" fill="none"/><path d="M31.8333,-20v0l0.333334,0.5h0.666664l0.333336,-0.5" stroke="#808080" stroke-width="0.015625" fill="none"/><path d="M31.8333,-19v0l0.333334,0.5h0.666664l0.333336,-0.5" stroke="#808080" stroke-width="0.015625" fill="none"/><path d="M31.8333,-18v0l0.333334,0.5h0.666664l0.333336,-0.5" stroke="#808080" stroke-width="0.015625" fill="none"/><path d="M31.8333,-17v0l0.333334,0.5h0.666664l0.333336,-0.5" stroke="#808080" stroke-width="0.015625" fill="none"/><path d="M31.8333,-16v0l0.333334,0.5h0.666664l0.333336,-0.5" stroke="#808080" stroke-width="0.015625" fill="none"/><path d="M31.8333,-15v0l0.333334,0.5h0.666664l0.333336,-0.5" stroke="#808080" stroke-width="0.015625" fill="none"/><path d="M31.8333,-14v0l0.333334,0.5h0.666664l0.333336,-0.5" stroke="#808080" stroke-width="0.015625" fill="none"/><path d="M31.8333,-13v0l0.333334,0.5h0.666664l0.333336,-0.5" stroke="#808080" stroke-width="0.015625" fill="none"/><path d="M31.8333,-12v0l0.333334,0.5h0.666664l0.333336,-0.5" stroke="#808080" stroke-width="0.015625" fill="none"/><path d="M31.8333,-11v0l0.333334,0.5h0.666664l0.333336,-0.5" stroke="#808080" stroke-width="0.015625" fill="none"/><path d="M31.8333,-10v0l0.333334,0.5h0.666664l0.333336,-0.5" stroke="#808080" stroke-width="0.015625" fill="none"/><path d="M31.8333,-9v0l0.333334,0.5h0.666664l0.333336,-0.5" stroke="#808080" stroke-width="0.015625" fill="none"/><path d="M32.8333,-21.5v0l0.333336,0.5h0.666664l0.333336,-0.5" stroke="#808080" stroke-width="0.015625" fill="none"/><path d="M32.8333,-20.5v0l0.333336,0.5h0.666664l0.333336,-0.5" stroke="#808080" stroke-width="0.015625" fill="none"/><path d="M32.8333,-19.5v0l0.333336,0.5h0.666664l0.333336,-0.5" stroke="#808080" stroke-width="0.015625" fill="none"/><path d="M32.8333,-18.5v0l0.333336,0.5h0.666664l0.333336,-0.5" stroke="#808080" stroke-width="0.015625" fill="none"/><path d="M32.8333,-17.5v0l0.333336,0.5h0.666664l0.333336,-0.5" stroke="#808080" stroke-width="0.015625" fill="none"/><path d="M32.8333,-16.5v0l0.333336,0.5h0.666664l0.333336,-0.5" stroke="#808080" stroke-width="0.015625" fill="none"/><path d="M32.8333,-15.5v0l0.333336,0.5h0.666664l0.333336,-0.5" stroke="#808080" stroke-width="0.015625" fill="none"/><path d="M32.8333,-14.5v0l0.333336,0.5h0.666664l0.333336,-0.5" stroke="#808080" stroke-width="0.015625" fill="none"/><path d="M32.8333,-13.5v0l0.333336,0.5h0.666664l0.333336,-0.5" stroke="#808080" stroke-width="0.015625" fill="none"/><path d="M32.8333,-12.5v0l0.333336,0.5h0.666664l0.333336,-0.5" stroke="#808080" stroke-width="0.015625" fill="none"/><path d="M32.8333,-11.5v0l0.333336,0.5h0.666664l0.333336,-0.5" stroke="#808080" stroke-width="0.015625" fill="none"/><path d="M32.8333,-10.5v0l0.333336,0.5h0.666664l0.333336,-0.5" stroke="#808080" stroke-width="0.015625" fill="none"/><path d="M32.8333,-9.5v0l0.333336,0.5h0.666664l0.333336,-0.5" stroke="#808080" stroke-width="0.015625" fill="none"/><path d="M33.8333,-21v0l0.333336,0.5h0.666664l0.333336,-0.5" stroke="#808080" stroke-width="0.015625" fill="none"/><path d="M33.8333,-20v0l0.333336,0.5h0.666664l0.333336,-0.5" stroke="#808080" stroke-width="0.015625" fill="none"/><path d="M33.8333,-19v0l0.333336,0.5h0.666664l0.333336,-0.5" stroke="#808080" stroke-width="0.015625" fill="none"/><path d="M33.8333,-18v0l0.333336,0.5h0.666664l0.333336,-0.5" stroke="#808080" stroke-width="0.015625" fill="none"/><path d="M33.8333,-17v0l0.333336,0.5h0.666664l0.333336,-0.5" stroke="#808080" stroke-width="0.015625" fill="none"/><path d="M33.8333,-16v0l0.333336,0.5h0.666664l0.333336,-0.5" stroke="#808080" stroke-width="0.015625" fill="none"/><path d="M33.8333,-15v0l0.333336,0.5h0.666664l0.333336,-0.5" stroke="#808080" stroke-width="0.015625" fill="none"/><path d="M33.8333,-14v0l0.333336,0.5h0.666664l0.333336,-0.5" stroke="#808080" stroke-width="0.015625" fill="none"/><path d="M33.8333,-13v0l0.333336,0.5h0.666664l0.333336,-0.5" stroke="#808080" stroke-width="0.015625" fill="none"/><path d="M33.8333,-12v0l0.333336,0.5h0.666664l0.333336,-0.5" stroke="#808080" stroke-width="0.015625" fill="none"/><path d="M33.8333,-11v0l0.333336,0.5h0.666664l0.333336,-0.5" stroke="#808080" stroke-width="0.015625" fill="none"/><path d="M33.8333,-10v0l0.333336,0.5h0.666664l0.333336,-0.5" stroke="#808080" stroke-width="0.015625" fill="none"/><path d="M33.8333,-9v0l0.333336,0.5h0.666664l0.333336,-0.5" stroke="#808080" stroke-width="0.015625" fill="none"/><path d="M34.8333,-21.5v0l0.333336,0.5h0.666664l0.333336,-0.5" stroke="#808080" stroke-width="0.015625" fill="none"/><path d="M34.8333,-20.5v0l0.333336,0.5h0.666664l0.333336,-0.5" stroke="#808080" stroke-width="0.015625" fill="none"/><path d="M34.8333,-19.5v0l0.333336,0.5h0.666664l0.333336,-0.5" stroke="#808080" stroke-width="0.015625" fill="none"/><path d="M34.8333,-18.5v0l0.333336,0.5h0.666664l0.333336,-0.5" stroke="#808080" stroke-width="0.015625" fill="none"/><path d="M34.8333,-17.5v0l0.333336,0.5h0.666664l0.333336,-0.5" stroke="#808080" stroke-width="0.015625" fill="none"/><path d="M34.8333,-16.5v0l0.333336,0.5h0.666664l0.333336,-0.5" stroke="#808080" stroke-width="0.015625" fill="none"/><path d="M34.8333,-15.5v0l0.333336,0.5h0.666664l0.333336,-0.5" stroke="#808080" stroke-width="0.015625" fill="none"/><path d="M34.8333,-14.5v0l0.333336,0.5h0.666664l0.333336,-0.5" stroke="#808080" stroke-width="0.015625" fill="none"/><path d="M34.8333,-13.5v0l0.333336,0.5h0.666664l0.333336,-0.5" stroke="#808080" stroke-width="0.015625" fill="none"/><path d="M34.8333,-12.5v0l0.333336,0.5h0.666664l0.333336,-0.5" stroke="#808080" stroke-width="0.015625" fill="none"/><path d="M34.8333,-11.5v0l0.333336,0.5h0.666664l0.333336,-0.5" stroke="#808080" stroke-width="0.015625" fill="none"/><path d="M34.8333,-10.5v0l0.333336,0.5h0.666664l0.333336,-0.5" stroke="#808080" stroke-width="0.015625" fill="none"/><path d="M34.8333,-9.5v0l0.333336,0.5h0.666664l0.333336,-0.5" stroke="#808080" stroke-width="0.015625" fill="none"/><path d="M35.8333,-21v0l0.333336,0.5h0.666664l0.333336,-0.5" stroke="#808080" stroke-width="0.015625" fill="none"/><path d="M35.8333,-20v0l0.333336,0.5h0.666664l0.333336,-0.5" stroke="#808080" stroke-width="0.015625" fill="none"/><path d="M35.8333,-19v0l0.333336,0.5h0.666664l0.333336,-0.5" stroke="#808080" stroke-width="0.015625" fill="none"/><path d="M35.8333,-18v0l0.333336,0.5h0.666664l0.333336,-0.5" stroke="#808080" stroke-width="0.015625" fill="none"/><path d="M35.8333,-17v0l0.333336,0.5h0.666664l0.333336,-0.5" stroke="#808080" stroke-width="0.015625" fill="none"/><path d="M35.8333,-16v0l0.333336,0.5h0.666664l0.333336,-0.5" stroke="#808080" stroke-width="0.015625" fill="none"/><path d="M35.8333,-15v0l0.333336,0.5h0.666664l0.333336,-0.5" stroke="#808080" stroke-width="0.015625" fill="none"/><path d="M35.8333,-14v0l0.333336,0.5h0.666664l0.333336,-0.5" stroke="#808080" stroke-width="0.015625" fill="none"/><path d="M35.8333,-13v0l0.333336,0.5h0.666664l0.333336,-0.5" stroke="#808080" stroke-width="0.015625" fill="none"/><path d="M35.8333,-12v0l0.333336,0.5h0.666664l0.333336,-0.5" stroke="#808080" stroke-width="0.015625" fill="none"/><path d="M35.8333,-11v0l0.333336,0.5h0.666664l0.333336,-0.5" stroke="#808080" stroke-width="0.015625" fill="none"/><path d="M35.8333,-10v0l0.333336,0.5h0.666664l0.333336,-0.5" stroke="#808080" stroke-width="0.015625" fill="none"/><path d="M35.8333,-9v0l0.333336,0.5h0.666664l0.333336,-0.5" stroke="#808080" stroke-width="0.015625" fill="none"/><path d="M36.8333,-21.5v0l0.333336,0.5h0.666664l0.333336,-0.5" stroke="#808080" stroke-width="0.015625" fill="none"/><path d="M36.8333,-20.5v0l0.333336,0.5h0.666664l0.333336,-0.5" stroke="#808080" stroke-width="0.015625" fill="none"/><path d="M36.8333,-19.5v0l0.333336,0.5h0.666664l0.333336,-0.5" stroke="#808080" stroke-width="0.015625" fill="none"/><path d="M36.8333,-18.5v0l0.333336,0.5h0.666664l0.333336,-0.5" stroke="#808080" stroke-width="0.015625" fill="none"/><path d="M36.8333,-17.5v0l0.333336,0.5h0.666664l0.333336,-0.5" stroke="#808080" stroke-width="0.015625" fill="none"/><path d="M36.8333,-16.5v0l0.333336,0.5h0.666664l0.333336,-0.5" stroke="#808080" stroke-width="0.015625" fill="none"/><path d="M36.8333,-15.5v0l0.333336,0.5h0.666664l0.333336,-0.5" stroke="#808080" stroke-width="0.015625" fill="none"/><path d="M36.8333,-14.5v0l0.333336,0.5h0.666664l0.333336,-0.5" stroke="#808080" stroke-width="0.015625" fill="none"/><path d="M36.8333,-13.5v0l0.333336,0.5h0.666664l0.333336,-0.5" stroke="#808080" stroke-width="0.015625" fill="none"/><path d="M36.8333,-12.5v0l0.333336,0.5h0.666664l0.333336,-0.5" stroke="#808080" stroke-width="0.015625" fill="none"/><path d="M36.8333,-11.5v0l0.333336,0.5h0.666664l0.333336,-0.5" stroke="#808080" stroke-width="0.015625" fill="none"/><path d="M36.8333,-10.5v0l0.333336,0.5h0.666664l0.333336,-0.5" stroke="#808080" stroke-width="0.015625" fill="none"/><path d="M36.8333,-9.5v0l0.333336,0.5h0.666664l0.333336,-0.5" stroke="#808080" stroke-width="0.015625" fill="none"/><path d="M37.8333,-21v0l0.333336,0.5h0.666664l0.333336,-0.5" stroke="#808080" stroke-width="0.015625" fill="none"/><path d="M37.8333,-20v0l0.333336,0.5h0.666664l0.333336,-0.5" stroke="#808080" stroke-width="0.015625" fill="none"/><path d="M37.8333,-19v0l0.333336,0.5h0.666664l0.333336,-0.5" stroke="#808080" stroke-width="0.015625" fill="none"/><path d="M37.8333,-18v0l0.333336,0.5h0.666664l0.333336,-0.5" stroke="#808080" stroke-width="0.015625" fill="none"/><path d="M37.8333,-17v0l0.333336,0.5h0.666664l0.333336,-0.5" stroke="#808080" stroke-width="0.015625" fill="none"/><path d="M37.8333,-16v0l0.333336,0.5h0.666664l0.333336,-0.5" stroke="#808080" stroke-width="0.015625" fill="none"/><path d="M37.8333,-15v0l0.333336,0.5h0.666664l0.333336,-0.5" stroke="#808080" stroke-width="0.015625" fill="none"/><path d="M37.8333,-14v0l0.333336,0.5h0.666664l0.333336,-0.5" stroke="#808080" stroke-width="0.015625" fill="none"/><path d="M37.8333,-13v0l0.333336,0.5h0.666664l0.333336,-0.5" stroke="#808080" stroke-width="0.015625" fill="none"/><path d="M37.8333,-12v0l0.333336,0.5h0.666664l0.333336,-0.5" stroke="#808080" stroke-width="0.015625" fill="none"/><path d="M37.8333,-11v0l0.333336,0.5h0.666664l0.333336,-0.5" stroke="#808080" stroke-width="0.015625" fill="none"/><path d="M37.8333,-10v0l0.333336,0.5h0.666664l0.333336,-0.5" stroke="#808080" stroke-width="0.015625" fill="none"/><path d="M37.8333,-9v0l0.333336,0.5h0.666664l0.333336,-0.5" stroke="#808080" stroke-width="0.015625" fill="none"/><path d="M38.8333,-21.5v0l0.333336,0.5h0.666664l0.333336,-0.5" stroke="#808080" stroke-width="0.015625" fill="none"/><path d="M38.8333,-20.5v0l0.333336,0.5h0.666664l0.333336,-0.5" stroke="#808080" stroke-width="0.015625" fill="none"/><path d="M38.8333,-19.5v0l0.333336,0.5h0.666664l0.333336,-0.5" stroke="#808080" stroke-width="0.015625" fill="none"/><path d="M38.8333,-18.5v0l0.333336,0.5h0.666664l0.333336,-0.5" stroke="#808080" stroke-width="0.015625" fill="none"/><path d="M38.8333,-17.5v0l0.333336,0.5h0.666664l0.333336,-0.5" stroke="#808080" stroke-width="0.015625" fill="none"/><path d="M38.8333,-16.5v0l0.333336,0.5h0.666664l0.333336,-0.5" stroke="#808080" stroke-width="0.015625" fill="none"/><path d="M38.8333,-15.5v0l0.333336,0.5h0.666664l0.333336,-0.5" stroke="#808080" stroke-width="0.015625" fill="none"/><path d="M38.8333,-14.5v0l0.333336,0.5h0.666664l0.333336,-0.5" stroke="#808080" stroke-width="0.015625" fill="none"/><path d="M38.8333,-13.5v0l0.333336,0.5h0.666664l0.333336,-0.5" stroke="#808080" stroke-width="0.015625" fill="none"/><path d="M38.8333,-12.5v0l0.333336,0.5h0.666664l0.333336,-0.5" stroke="#808080" stroke-width="0.015625" fill="none"/><path d="M38.8333,-11.5v0l0.333336,0.5h0.666664l0.333336,-0.5" stroke="#808080" stroke-width="0.015625" fill="none"/><path d="M38.8333,-10.5v0l0.333336,0.5h0.666664l0.333336,-0.5" stroke="#808080" stroke-width="0.015625" fill="none"/><path d="M38.8333,-9.5v0l0.333336,0.5h0.666664l0.333336,-0.5" stroke="#808080" stroke-width="0.015625" fill="none"/><path clip-path="url(#did2)" d="M30.1667,-39.5l-0.333332,-0.5l0.333332,-0.5h0.666668l0.333332,-0.5h0.666668l0.333334,0.5h0.666664l0.333336,-0.5h0.666664l0.333336,0.5h0.666664l0.333336,-0.5h0.666664l0.333336,0.5h0.666664l0.333336,-0.5h0.666664l0.333336,0.5h0.666664l0.333336,-0.5h0.666664l0.333336,0.5h0.666664l0.333336,-0.5h0.666664l0.333336,0.5h0.666664l0.333336,-0.5h0.666664l0.333336,0.5h0.666664l0.333336,-0.5h0.666664l0.333336,0.5h0.666664l0.333336,-0.5h0.666664l0.333336,0.5h0.666664l0.333336,-0.5h0.666664l0.333336,0.5h0.666664l0.333336,-0.5h0.666664l0.333336,0.5h0.666664l0.333336,-0.5h0.666664l0.333336,0.5h0.666664l0.333336,-0.5h0.666664l0.333336,0.5h0.666664l0.333336,-0.5h0.666664l0.333336,0.5h0.666664l0.333336,-0.5h0.666664l0.333336,0.5h0.666664l0.333336,-0.5h0.666664l0.333336,0.5h0.666664l0.333336,-0.5h0.666664l0.333332,0.5l-0.333332,0.5l0.333332,0.5l-0.333332,0.5l0.333332,0.5l-0.333332,0.5l0.333332,0.5l-0.333332,0.5l0.333332,0.5l-0.333332,0.5l0.333332,0.5l-0.333332,0.5l0.333332,0.5l-0.333332,0.5l0.333332,0.5l-0.333332,0.5l0.333332,0.5l-0.333332,0.5l0.333332,0.5l-0.333332,0.5l0.333332,0.5l-0.333332,0.5l0.333332,0.5l-0.333332,0.5l0.333332,0.5l-0.333332,0.5l0.333332,0.5l-0.333332,0.5l0.333332,0.5l-0.333332,0.5l0.333332,0.5l-0.333332,0.5l0.333332,0.5l-0.333332,0.5l0.333332,0.5l-0.333332,0.5l0.333332,0.5l-0.333332,0.5l0.333332,0.5l-0.333332,0.5l0.333332,0.5l-0.333332,0.5l0.333332,0.5l-0.333332,0.5l0.333332,0.5l-0.333332,0.5l0.333332,0.5l-0.333332,0.5l0.333332,0.5l-0.333332,0.5l0.333332,0.5l-0.333332,0.5l0.333332,0.5l-0.333332,0.5l0.333332,0.5l-0.333332,0.5l0.333332,0.5l-0.333332,0.5l0.333332,0.5l-0.333332,0.5l0.333332,0.5l-0.333332,0.5l0.333332,0.5l-0.333332,0.5l0.333332,0.5l-0.333332,0.5l0.333332,0.5l-0.333332,0.5l0.333332,0.5l-0.333332,0.5l0.333332,0.5l-0.333332,0.5l0.333332,0.5l-0.333332,0.5l0.333332,0.5l-0.333332,0.5l0.333332,0.5l-0.333332,0.5l0.333332,0.5l-0.333332,0.5h-0.666664l-0.333336,-0.5h-0.666664l-0.333336,-0.5l0.333336,-0.5l-0.333336,-0.5h-0.666664l-0.333336,-0.5l0.333336,-0.5l-0.333336,-0.5h-0.666664l-0.333336,0.5h-0.666664l-0.333336,0.5l0.333336,0.5l-0.333336,0.5h-0.666664l-0.333336,0.5h-0.666664l-0.333336,0.5h-0.666664l-0.333336,0.5h-0.666664l-0.333336,0.5h-0.666664l-0.333336,0.5h-0.666664l-0.333336,0.5h-0.666664l-0.333336,-0.5h-0.666664l-0.333336,0.5h-0.666664l-0.333336,0.5h-0.666664l-0.333336,0.5h-0.666664l-0.333336,-0.5h-0.666664l-0.333336,0.5h-0.666664l-0.333336,-0.5h-0.666664l-0.333336,0.5h-0.666664l-0.333336,-0.5h-0.666664l-0.333336,0.5h-0.666664l-0.333336,-0.5h-0.666664l-0.333336,0.5h-0.666664l-0.333336,-0.5h-0.666664l-0.333336,0.5h-0.666664l-0.333336,-0.5h-0.666664l-0.333336,0.5h-0.666664l-0.333336,-0.5h-0.666664l-0.333336,0.5h-0.666664l-0.333336,-0.5h-0.666664l-0.333336,0.5h-0.666664l-0.333334,-0.5h-0.666668l-0.333332,0.5h-0.666668l-0.333332,-0.5l0.333332,-0.5l-0.333332,-0.5l0.333332,-0.5l-0.333332,-0.5l0.333332,-0.5l-0.333332,-0.5l0.333332,-0.5l-0.333332,-0.5l0.333332,-0.5l-0.333332,-0.5l0.333332,-0.5l-0.333332,-0.5l0.333332,-0.5l-0.333332,-0.5l0.333332,-0.5l-0.333332,-0.5l0.333332,-0.5l-0.333332,-0.5l0.333332,-0.5l-0.333332,-0.5l0.333332,-0.5l-0.333332,-0.5l0.333332,-0.5l-0.333332,-0.5l0.333332,-0.5l-0.333332,-0.5l0.333332,-0.5l-0.333332,-0.5l0.333332,-0.5l-0.333332,-0.5l0.333332,-0.5l-0.333332,-0.5l0.333332,-0.5l-0.333332,-0.5l0.333332,-0.5l-0.333332,-0.5l0.333332,-0.5l-0.333332,-0.5l0.333332,-0.5l-0.333332,-0.5l0.333332,-0.5l-0.333332,-0.5l0.333332,-0.5l-0.333332,-0.5l0.333332,-0.5l-0.333332,-0.5l0.333332,-0.5l-0.333332,-0.5l0.333332,-0.5l-0.333332,-0.5l0.333332,-0.5l-0.333332,-0.5l0.333332,-0.5l-0.333332,-0.5l0.333332,-0.5l-0.333332,-0.5l0.333332,-0.5l-0.333332,-0.5l0.333332,-0.5l-0.333332,-0.5l0.333332,-0.5l-0.333332,-0.5l0.333332,-0.5l-0.333332,-0.5l0.333332,-0.5l-0.333332,-0.5l0.333332,-0.5l-0.333332,-0.5l0.333332,-0.5l-0.333332,-0.5l0.333332,-0.5l-0.333332,-0.5l0.333332,-0.5l-0.333332,-0.5l0.333332,-0.5l-0.333332,-0.5l0.333332,-0.5l-0.333332,-0.5l0.333332,-0.5l-0.333332,-0.5Z" stroke="#E32736" stroke-width="0.16" fill="none"/><line x1="32.7887" y1="-17" x2="34.2113" y2="-17" stroke="#048104" stroke-width="0.08"/><line x1="34.689" y1="-18.811" x2="36.311" y2="-17.189" stroke="#048104" stroke-width="0.08"/><line x1="34.7887" y1="-17" x2="36.2113" y2="-17" stroke="#048104" stroke-width="0.08"/><line x1="35.6443" y1="-9.71651" x2="36.3557" y2="-10.7835" stroke="#048104" stroke-width="0.08"/><line x1="36.5945" y1="-20.7638" x2="37.4055" y2="-18.7362" stroke="#048104" stroke-width="0.08"/><line x1="36.5" y1="-16.75" x2="36.5" y2="-15.25" stroke="#048104" stroke-width="0.08"/><line x1="36.6443" y1="-17.2165" x2="37.3557" y2="-18.2835" stroke="#048104" stroke-width="0.08"/><line x1="36.7835" y1="-16.9528" x2="39.2165" y2="-16.5473" stroke="#048104" stroke-width="0.08"/><line x1="36.5" y1="-14.75" x2="36.5" y2="-13.25" stroke="#048104" stroke-width="0.08"/><line x1="36.5" y1="-12.75" x2="36.5" y2="-11.25" stroke="#048104" stroke-width="0.08"/></g><g clip-path="url(#did3)"><text transform="translate(31.5,-16.5) scale(1.1547 1)" font-family="Arial" font-size="0.14" text-anchor="middle" x="0" y="-0.381" fill="DarkGray">0124</text><text transform="translate(31.5,-13.5) scale(1.1547 1)" font-family="Arial" font-size="0.14" text-anchor="middle" x="0" y="-0.381" fill="DarkGray">0127</text><text transform="translate(31.5,-12.5) scale(1.1547 1)" font-family="Arial" font-size="0.14" text-anchor="middle" x="0" y="-0.381" fill="DarkGray">0128</text><g transform="translate(32.5,-18) scale(1.1547 1)"><circle r="0.4" cx="0" cy="0" stroke="#FFCC00" stroke-width="0.05" fill="none"/><text font-family="Arial" font-size="0.14" text-anchor="middle" x="0" y="-0.381" fill="DarkGray">0222</text></g><text transform="translate(32.5,-17) scale(1.1547 1)" font-family="Arial" font-size="0.14" text-anchor="middle" x="0" y="-0.381" fill="DarkGray">0223</text><text transform="translate(32.5,-14) scale(1.1547 1)" font-family="Arial" font-size="0.14" text-anchor="middle" x="0" y="-0.381" fill="DarkGray">0226</text><text transform="translate(33.5,-18.5) scale(1.1547 1)" font-family="Arial" font-size="0.14" text-anchor="middle" x="0" y="-0.381" fill="DarkGray">0322</text><text transform="translate(33.5,-16.5) scale(1.1547 1)" font-family="Arial" font-size="0.14" text-anchor="middle" x="0" y="-0.381" fill="DarkGray">0324</text><text transform="translate(33.5,-15.5) scale(1.1547 1)" font-family="Arial" font-size="0.14" text-anchor="middle" x="0" y="-0.381" fill="DarkGray">0325</text><text transform="translate(33.5,-14.5) scale(1.1547 1)" font-family="Arial" font-size="0.14" text-anchor="middle" x="0" y="-0.381" fill="DarkGray">0326</text><text transform="translate(34.5,-19) scale(1.1547 1)" font-family="Arial" font-size="0.14" text-anchor="middle" x="0" y="-0.381" fill="DarkGray">0421</text><text transform="translate(34.5,-17) scale(1.1547 1)" font-family="Arial" font-size="0.14" text-anchor="middle" x="0" y="-0.381" fill="DarkGray">0423</text><text transform="translate(34.5,-16) scale(1.1547 1)" font-family="Arial" font-size="0.14" text-anchor="middle" x="0" y="-0.381" fill="DarkGray">0424</text><text transform="translate(35.5,-18.5) scale(1.1547 1)" font-family="Arial" font-size="0.14" text-anchor="middle" x="0" y="-0.381" fill="DarkGray">0522</text><text transform="translate(35.5,-17.5) scale(1.1547 1)" font-family="Arial" font-size="0.14" text-anchor="middle" x="0" y="-0.381" fill="DarkGray">0523</text><text transform="translate(35.5,-16.5) scale(1.1547 1)" font-family="Arial" font-size="0.14" text-anchor="middle" x="0" y="-0.381" fill="DarkGray">0524</text><text transform="translate(35.5,-14.5) scale(1.1547 1)" font-family="Arial" font-size="0.14" text-anchor="middle" x="0" y="-0.381" fill="DarkGray">0526</text><text transform="translate(35.5,-13.5) scale(1.1547 1)" font-family="Arial" font-size="0.14" text-anchor="middle" x="0" y="-0.381" fill="DarkGray">0527</text><text transform="translate(35.5,-10.5) scale(1.1547 1)" font-family="Arial" font-size="0.14" text-anchor="middle" x="0" y="-0.381" fill="DarkGray">0530</text><text transform="translate(36.5,-18) scale(1.1547 1)" font-family="Arial" font-size="0.14" text-anchor="middle" x="0" y="-0.381" fill="DarkGray">0622</text><text transform="translate(36.5,-17) scale(1.1547 1)" font-family="Arial" font-size="0.14" text-anchor="middle" x="0" y="-0.381" fill="DarkGray">0623</text><text transform="translate(36.5,-15) scale(1.1547 1)" font-family="Arial" font-size="0.14" text-anchor="middle" x="0" y="-0.381" fill="DarkGray">0625</text><text transform="translate(36.5,-13) scale(1.1547 1)" font-family="Arial" font-size="0.14" text-anchor="middle" x="0" y="-0.381" fill="DarkGray">0627</text><text transform="translate(36.5,-11) scale(1.1547 1)" font-family="Arial" font-size="0.14" text-anchor="middle" x="0" y="-0.381" fill="DarkGray">0629</text><g transform="translate(36.5,-10) scale(1.1547 1)"><circle r="0.4" cx="0" cy="0" stroke="#FFCC00" stroke-width="0.05" fill="none"/><text font-family="Arial" font-size="0.14" text-anchor="middle" x="0" y="-0.381" fill="DarkGray">0630</text></g><text transform="translate(37.5,-18.5) scale(1.1547 1)" font-family="Arial" font-size="0.14" text-anchor="middle" x="0" y="-0.381" fill="DarkGray">0722</text><text transform="translate(37.5,-14.5) scale(1.1547 1)" font-family="Arial" font-size="0.14" text-anchor="middle" x="0" y="-0.381" fill="DarkGray">0726</text><text transform="translate(37.5,-13.5) scale(1.1547 1)" font-family="Arial" font-size="0.14" text-anchor="middle" x="0" y="-0.381" fill="DarkGray">0727</text><g transform="translate(38.5,-19) scale(1.1547 1)"><circle r="0.4" cx="0" cy="0" stroke="#FFCC00" stroke-width="0.05" fill="none"/><text font-family="Arial" font-size="0.14" text-anchor="middle" x="0" y="-0.381" fill="DarkGray">0821</text></g><text transform="translate(38.5,-16) scale(1.1547 1)" font-family="Arial" font-size="0.14" text-anchor="middle" x="0" y="-0.381" fill="DarkGray">0824</text><text transform="translate(38.5,-12) scale(1.1547 1)" font-family="Arial" font-size="0.14" text-anchor="middle" x="0" y="-0.381" fill="DarkGray">0828</text><text transform="translate(38.5,-11) scale(1.1547 1)" font-family="Arial" font-size="0.14" text-anchor="middle" x="0" y="-0.381" fill="DarkGray">0829</text><text transform="translate(38.5,-10) scale(1.1547 1)" font-family="Arial" font-size="0.14" text-anchor="middle" x="0" y="-0.381" fill="DarkGray">0830</text></g><g transform="translate(31.5,-16.5) scale(1.1547 1)"><circle transform="translate(0.25,-0.18)" r="0.05" cx="0" cy="0" stroke="none" fill="Black"/><rect x="-0.113084" y="-0.35543" width="0.226167" height="0.260859" stroke="none" fill="White"/><text font-family="Arial" font-size="0.21" font-weight="bold" text-anchor="middle" x="0" y="-0.13575" fill="Black">C</text><circle r="0.1" cx="0" cy="0" stroke="none" fill="DeepSkyBlue"/><rect x="-0.389631" y="0.23957" width="0.779263" height="0.260859" stroke="none" fill="White"/><text font-family="Arial" font-size="0.21" font-weight="bold" text-anchor="middle" x="0" y="0.45925" fill="Black">Hankel</text></g><g transform="translate(31.5,-13.5) scale(1.1547 1)"><rect x="-0.113084" y="-0.35543" width="0.226167" height="0.260859" stroke="none" fill="White"/><text font-family="Arial" font-size="0.21" font-weight="bold" text-anchor="middle" x="0" y="-0.13575" fill="Black">A</text><circle r="0.1" cx="0" cy="0" stroke="none" fill="DeepSkyBlue"/><rect x="-0.233311" y="0.23957" width="0.466621" height="0.260859" stroke="none" fill="White"/><text font-family="Arial" font-size="0.21" font-weight="bold" text-anchor="middle" x="0" y="0.45925" fill="Black">Alia</text></g><g transform="translate(31.5,-12.5) scale(1.1547 1)"><rect x="-0.113084" y="-0.35543" width="0.226167" height="0.260859" stroke="none" fill="White"/><text font-family="Arial" font-size="0.21" font-weight="bold" text-anchor="middle" x="0" y="-0.13575" fill="Black">B</text><circle r="0.1" cx="0" cy="0" stroke="none" fill="DeepSkyBlue"/><rect x="-0.275454" y="0.23957" width="0.550908" height="0.260859" stroke="none" fill="White"/><text font-family="Arial" font-size="0.21" font-weight="bold" text-anchor="middle" x="0" y="0.45925" fill="Black">Kaar</text></g><g transform="translate(32.5,-18) scale(1.1547 1)"><circle transform="translate(0.25,-0.18)" r="0.05" cx="0" cy="0" stroke="none" fill="Black"/><rect x="-0.113084" y="-0.35543" width="0.226167" height="0.260859" stroke="none" fill="White"/><text font-family="Arial" font-size="0.21" font-weight="bold" text-anchor="middle" x="0" y="-0.13575" fill="Black">C</text><circle r="0.1" cx="0" cy="0" stroke="none" fill="DeepSkyBlue"/><rect x="-0.263355" y="0.23957" width="0.526709" height="0.260859" stroke="none" fill="White"/><text font-family="Arial" font-size="0.21" font-weight="bold" text-anchor="middle" x="0" y="0.45925" fill="Black">Niall</text></g><g transform="translate(32.5,-17) scale(1.1547 1)"><circle transform="translate(0.25,-0.18)" r="0.05" cx="0" cy="0" stroke="none" fill="Black"/><rect x="-0.113084" y="-0.35543" width="0.226167" height="0.260859" stroke="none" fill="White"/><text font-family="Arial" font-size="0.21" font-weight="bold" text-anchor="middle" x="0" y="-0.13575" fill="Black">A</text><text font-family="Arial Unicode MS,Segoe UI Symbol,Arial" font-size="0.21" font-weight="bold" text-anchor="middle" x="-0.25" y="-0.09075" fill="Black">★</text><circle r="0.1" cx="0" cy="0" stroke="Black" stroke-width="0.015625" fill="White"/><rect x="-0.407627" y="0.23957" width="0.815254" height="0.260859" stroke="none" fill="White"/><text font-family="Arial" font-size="0.21" font-weight="bold" text-anchor="middle" x="0" y="0.45925" fill="Black">Arenim</text></g><g transform="translate(32.5,-14) scale(1.1547 1)"><circle transform="translate(0.25,-0.18)" r="0.05" cx="0" cy="0" stroke="none" fill="Black"/><rect x="-0.113084" y="-0.35543" width="0.226167" height="0.260859" stroke="none" fill="White"/><text font-family="Arial" font-size="0.21" font-weight="bold" text-anchor="middle" x="0" y="-0.13575" fill="Black">D</text><text font-family="Arial Unicode MS,Segoe UI Symbol,Arial" font-size="0.21" font-weight="bold" text-anchor="middle" x="-0.25" y="0.26925" fill="Black">▲</text><circle r="0.1" cx="0" cy="0" stroke="none" fill="DeepSkyBlue"/><rect x="-0.647722" y="0.23957" width="1.29544" height="0.260859" stroke="none" fill="White"/><text font-family="Arial" font-size="0.21" font-weight="bold" text-anchor="middle" x="0" y="0.45925" fill="Black">MISHARKIN</text></g><g transform="translate(33.5,-18.5) scale(1.1547 1)"><rect x="-0.113084" y="-0.35543" width="0.226167" height="0.260859" stroke="none" fill="White"/><text font-family="Arial" font-size="0.21" font-weight="bold" text-anchor="middle" x="0" y="-0.13575" fill="Black">B</text><circle r="0.1" cx="0" cy="0" stroke="none" fill="DeepSkyBlue"/><rect x="-0.437517" y="0.23957" width="0.875034" height="0.260859" stroke="none" fill="White"/><text font-family="Arial" font-size="0.21" font-weight="bold" text-anchor="middle" x="0" y="0.45925" fill="Black">Rustion</text></g><g transform="translate(33.5,-16.5) scale(1.1547 1)"><circle transform="translate(0.25,-0.18)" r="0.05" cx="0" cy="0" stroke="none" fill="Black"/><rect x="-0.107136" y="-0.35543" width="0.214273" height="0.260859" stroke="none" fill="White"/><text font-family="Arial" font-size="0.21" font-weight="bold" text-anchor="middle" x="0" y="-0.13575" fill="Black">E</text><circle r="0.1" cx="0" cy="0" stroke="none" fill="DeepSkyBlue"/><rect x="-0.497759" y="0.23957" width="0.995518" height="0.260859" stroke="none" fill="White"/><text font-family="Arial" font-size="0.21" font-weight="bold" text-anchor="middle" x="0" y="0.45925" fill="Black">Steinegir</text></g><g transform="translate(33.5,-15.5) scale(1.1547 1)"><circle transform="translate(0.25,-0.18)" r="0.05" cx="0" cy="0" stroke="none" fill="Black"/><rect x="-0.113084" y="-0.35543" width="0.226167" height="0.260859" stroke="none" fill="White"/><text font-family="Arial" font-size="0.21" font-weight="bold" text-anchor="middle" x="0" y="-0.13575" fill="Black">B</text><text font-family="Arial Unicode MS,Segoe UI Symbol,Arial" font-size="0.21" font-weight="bold" text-anchor="middle" x="-0.25" y="-0.09075" fill="Black">★</text><circle r="0.1" cx="0" cy="0" stroke="Black" stroke-width="0.015625" fill="White"/><rect x="-0.335593" y="0.23957" width="0.671187" height="0.260859" stroke="none" fill="White"/><text font-family="Arial" font-size="0.21" font-weight="bold" text-anchor="middle" x="0" y="0.45925" fill="Black">Varag</text></g><g transform="translate(33.5,-14.5) scale(1.1547 1)"><rect x="-0.113084" y="-0.35543" width="0.226167" height="0.260859" stroke="none" fill="White"/><text font-family="Arial" font-size="0.21" font-weight="bold" text-anchor="middle" x="0" y="-0.13575" fill="Black">B</text><circle r="0.1" cx="0" cy="0" stroke="none" fill="DeepSkyBlue"/><rect x="-0.287451" y="0.23957" width="0.574902" height="0.260859" stroke="none" fill="White"/><text font-family="Arial" font-size="0.21" font-weight="bold" text-anchor="middle" x="0" y="0.45925" fill="Black">Impe</text></g><g transform="translate(34.5,-19) scale(1.1547 1)"><rect x="-0.113084" y="-0.35543" width="0.226167" height="0.260859" stroke="none" fill="White"/><text font-family="Arial" font-size="0.21" font-weight="bold" text-anchor="middle" x="0" y="-0.13575" fill="Black">B</text><circle r="0.1" cx="0" cy="0" stroke="none" fill="DeepSkyBlue"/><rect x="-0.281504" y="0.23957" width="0.563008" height="0.260859" stroke="none" fill="White"/><text font-family="Arial" font-size="0.21" font-weight="bold" text-anchor="middle" x="0" y="0.45925" fill="Black">Jada</text></g><g transform="translate(34.5,-17) scale(1.1547 1)"><circle transform="translate(0.25,-0.18)" r="0.05" cx="0" cy="0" stroke="none" fill="Black"/><rect x="-0.113084" y="-0.35543" width="0.226167" height="0.260859" stroke="none" fill="White"/><text font-family="Arial" font-size="0.21" font-weight="bold" text-anchor="middle" x="0" y="-0.13575" fill="Black">A</text><circle r="0.1" cx="0" cy="0" stroke="none" fill="DeepSkyBlue"/><rect x="-0.455718" y="0.23957" width="0.911436" height="0.260859" stroke="none" fill="White"/><text font-family="Arial" font-size="0.21" font-weight="bold" text-anchor="middle" x="0" y="0.45925" fill="Black">Norwalk</text></g><g transform="translate(34.5,-16) scale(1.1547 1)"><circle transform="translate(0.25,-0.18)" r="0.05" cx="0" cy="0" stroke="none" fill="Black"/><rect x="-0.113084" y="-0.35543" width="0.226167" height="0.260859" stroke="none" fill="White"/><text font-family="Arial" font-size="0.21" font-weight="bold" text-anchor="middle" x="0" y="-0.13575" fill="Black">C</text><text font-family="Arial Unicode MS,Segoe UI Symbol,Arial" font-size="0.21" font-weight="bold" text-anchor="middle" x="-0.25" y="0.26925" fill="Black">▲</text><circle r="0.1" cx="0" cy="0" stroke="none" fill="DeepSkyBlue"/><rect x="-0.323545" y="0.23957" width="0.64709" height="0.260859" stroke="none" fill="White"/><text font-family="Arial" font-size="0.21" font-weight="bold" text-anchor="middle" x="0" y="0.45925" fill="Black">Haley</text></g><g transform="translate(35.5,-18.5) scale(1.1547 1)"><circle transform="translate(0.25,-0.18)" r="0.05" cx="0" cy="0" stroke="none" fill="Black"/><rect x="-0.113084" y="-0.35543" width="0.226167" height="0.260859" stroke="none" fill="White"/><text font-family="Arial" font-size="0.21" font-weight="bold" text-anchor="middle" x="0" y="-0.13575" fill="Black">B</text><text font-family="Arial Unicode MS,Segoe UI Symbol,Arial" font-size="0.21" font-weight="bold" text-anchor="middle" x="-0.25" y="-0.09075" fill="Black">★</text><circle r="0.1" cx="0" cy="0" stroke="none" fill="DeepSkyBlue"/><rect x="-0.383684" y="0.23957" width="0.767368" height="0.260859" stroke="none" fill="White"/><text font-family="Arial" font-size="0.21" font-weight="bold" text-anchor="middle" x="0" y="0.45925" fill="Black">Sancia</text></g><g transform="translate(35.5,-17.5) scale(1.1547 1)"><circle transform="translate(0.25,-0.18)" r="0.05" cx="0" cy="0" stroke="none" fill="Black"/><rect x="-0.113084" y="-0.35543" width="0.226167" height="0.260859" stroke="none" fill="White"/><text font-family="Arial" font-size="0.21" font-weight="bold" text-anchor="middle" x="0" y="-0.13575" fill="Black">C</text><circle r="0.1" cx="0" cy="0" stroke="Black" stroke-width="0.015625" fill="White"/><rect x="-0.672024" y="0.23957" width="1.34405" height="0.260859" stroke="none" fill="White"/><text font-family="Arial" font-size="0.21" font-weight="bold" text-anchor="middle" x="0" y="0.45925" fill="Black">Mclean Four</text></g><g transform="translate(35.5,-16.5) scale(1.1547 1)"><rect x="-0.113084" y="-0.35543" width="0.226167" height="0.260859" stroke="none" fill="White"/><text font-family="Arial" font-size="0.21" font-weight="bold" text-anchor="middle" x="0" y="-0.13575" fill="Black">C</text><circle r="0.1" cx="0" cy="0" stroke="Black" stroke-width="0.015625" fill="White"/><rect x="-0.329492" y="0.23957" width="0.658984" height="0.260859" stroke="none" fill="White"/><text font-family="Arial" font-size="0.21" font-weight="bold" text-anchor="middle" x="0" y="0.45925" fill="Black">Klose</text></g><g transform="translate(35.5,-14.5) scale(1.1547 1)"><circle transform="translate(0.25,-0.18)" r="0.05" cx="0" cy="0" stroke="none" fill="Black"/><rect x="-0.113084" y="-0.35543" width="0.226167" height="0.260859" stroke="none" fill="White"/><text font-family="Arial" font-size="0.21" font-weight="bold" text-anchor="middle" x="0" y="-0.13575" fill="Black">C</text><text font-family="Arial Unicode MS,Segoe UI Symbol,Arial" font-size="0.21" font-weight="bold" text-anchor="middle" x="-0.25" y="0.26925" fill="Black">▲</text><circle r="0.1" cx="0" cy="0" stroke="none" fill="DeepSkyBlue"/><rect x="-0.43157" y="0.23957" width="0.86314" height="0.260859" stroke="none" fill="White"/><text font-family="Arial" font-size="0.21" font-weight="bold" text-anchor="middle" x="0" y="0.45925" fill="Black">Algenib</text></g><g transform="translate(35.5,-13.5) scale(1.1547 1)"><rect x="-0.113084" y="-0.35543" width="0.226167" height="0.260859" stroke="none" fill="White"/><text font-family="Arial" font-size="0.21" font-weight="bold" text-anchor="middle" x="0" y="-0.13575" fill="Black">A</text><circle r="0.1" cx="0" cy="0" stroke="none" fill="DeepSkyBlue"/><rect x="-0.557847" y="0.23957" width="1.11569" height="0.260859" stroke="none" fill="White"/><text font-family="Arial" font-size="0.21" font-weight="bold" text-anchor="middle" x="0" y="0.45925" fill="#E32736">Brangwen</text></g><g transform="translate(35.5,-10.5) scale(1.1547 1)"><circle transform="translate(0.25,-0.18)" r="0.05" cx="0" cy="0" stroke="none" fill="Black"/><rect x="-0.113084" y="-0.35543" width="0.226167" height="0.260859" stroke="none" fill="White"/><text font-family="Arial" font-size="0.21" font-weight="bold" text-anchor="middle" x="0" y="-0.13575" fill="Black">A</text><circle r="0.1" cx="0" cy="0" stroke="none" fill="DeepSkyBlue"/><rect x="-0.714116" y="0.23957" width="1.42823" height="0.260859" stroke="none" fill="White"/><text font-family="Arial" font-size="0.21" font-weight="bold" text-anchor="middle" x="0" y="0.45925" fill="Black">Khaandadshi</text></g><g transform="translate(36.5,-18) scale(1.1547 1)"><circle transform="translate(0.25,-0.18)" r="0.05" cx="0" cy="0" stroke="none" fill="Black"/><rect x="-0.113084" y="-0.35543" width="0.226167" height="0.260859" stroke="none" fill="White"/><text font-family="Arial" font-size="0.21" font-weight="bold" text-anchor="middle" x="0" y="-0.13575" fill="Black">C</text><circle r="0.1" cx="0" cy="0" stroke="none" fill="DeepSkyBlue"/><rect x="-0.323545" y="0.23957" width="0.64709" height="0.260859" stroke="none" fill="White"/><text font-family="Arial" font-size="0.21" font-weight="bold" text-anchor="middle" x="0" y="0.45925" fill="Black">Eloka</text></g><g transform="translate(36.5,-17) scale(1.1547 1)"><circle transform="translate(0.25,-0.18)" r="0.05" cx="0" cy="0" stroke="none" fill="Black"/><rect x="-0.113084" y="-0.35543" width="0.226167" height="0.260859" stroke="none" fill="White"/><text font-family="Arial" font-size="0.21" font-weight="bold" text-anchor="middle" x="0" y="-0.13575" fill="Black">A</text><circle r="0.1" cx="0" cy="0" stroke="none" fill="DeepSkyBlue"/><rect x="-0.329492" y="0.23957" width="0.658984" height="0.260859" stroke="none" fill="White"/><text font-family="Arial" font-size="0.21" font-weight="bold" text-anchor="middle" x="0" y="0.45925" fill="Black">Figire</text></g><g transform="translate(36.5,-15) scale(1.1547 1)"><circle transform="translate(0.25,-0.18)" r="0.05" cx="0" cy="0" stroke="none" fill="Black"/><rect x="-0.113084" y="-0.35543" width="0.226167" height="0.260859" stroke="none" fill="White"/><text font-family="Arial" font-size="0.21" font-weight="bold" text-anchor="middle" x="0" y="-0.13575" fill="Black">A</text><circle r="0.1" cx="0" cy="0" stroke="none" fill="DeepSkyBlue"/><rect x="-0.521804" y="0.23957" width="1.04361" height="0.260859" stroke="none" fill="White"/><text font-family="Arial" font-size="0.21" font-weight="bold" text-anchor="middle" x="0" y="0.45925" fill="Black">Belshaug</text></g><g transform="translate(36.5,-13) scale(1.1547 1)"><circle transform="translate(0.25,-0.18)" r="0.05" cx="0" cy="0" stroke="none" fill="Black"/><rect x="-0.113084" y="-0.35543" width="0.226167" height="0.260859" stroke="none" fill="White"/><text font-family="Arial" font-size="0.21" font-weight="bold" text-anchor="middle" x="0" y="-0.13575" fill="Black">B</text><circle r="0.1" cx="0" cy="0" stroke="Black" stroke-width="0.015625" fill="White"/><rect x="-0.419624" y="0.23957" width="0.839248" height="0.260859" stroke="none" fill="White"/><text font-family="Arial" font-size="0.21" font-weight="bold" text-anchor="middle" x="0" y="0.45925" fill="Black">Immupi</text></g><g transform="translate(36.5,-11) scale(1.1547 1)"><rect x="-0.113084" y="-0.35543" width="0.226167" height="0.260859" stroke="none" fill="White"/><text font-family="Arial" font-size="0.21" font-weight="bold" text-anchor="middle" x="0" y="-0.13575" fill="Black">B</text><circle r="0.1" cx="0" cy="0" stroke="Black" stroke-width="0.015625" fill="White"/><rect x="-0.28135" y="0.23957" width="0.5627" height="0.260859" stroke="none" fill="White"/><text font-family="Arial" font-size="0.21" font-weight="bold" text-anchor="middle" x="0" y="0.45925" fill="Black">Olon</text></g><g transform="translate(36.5,-10) scale(1.1547 1)"><circle transform="translate(0.25,-0.18)" r="0.05" cx="0" cy="0" stroke="none" fill="Black"/><rect x="-0.113084" y="-0.35543" width="0.226167" height="0.260859" stroke="none" fill="White"/><text font-family="Arial" font-size="0.21" font-weight="bold" text-anchor="middle" x="0" y="-0.13575" fill="Black">D</text><circle r="0.1" cx="0" cy="0" stroke="none" fill="DeepSkyBlue"/><rect x="-0.389683" y="0.23957" width="0.779365" height="0.260859" stroke="none" fill="White"/><text font-family="Arial" font-size="0.21" font-weight="bold" text-anchor="middle" x="0" y="0.45925" fill="Black">Temair</text></g><g transform="translate(37.5,-18.5) scale(1.1547 1)"><circle transform="translate(0.25,-0.18)" r="0.05" cx="0" cy="0" stroke="none" fill="Black"/><rect x="-0.113084" y="-0.35543" width="0.226167" height="0.260859" stroke="none" fill="White"/><text font-family="Arial" font-size="0.21" font-weight="bold" text-anchor="middle" x="0" y="-0.13575" fill="Black">B</text><circle r="0.1" cx="0" cy="0" stroke="none" fill="DeepSkyBlue"/><rect x="-0.521958" y="0.23957" width="1.04392" height="0.260859" stroke="none" fill="White"/><text font-family="Arial" font-size="0.21" font-weight="bold" text-anchor="middle" x="0" y="0.45925" fill="Black">Ankaraak</text></g><g transform="translate(37.5,-14.5) scale(1.1547 1)"><circle transform="translate(0.25,-0.18)" r="0.05" cx="0" cy="0" stroke="none" fill="Black"/><rect x="-0.107136" y="-0.35543" width="0.214273" height="0.260859" stroke="none" fill="White"/><text font-family="Arial" font-size="0.21" font-weight="bold" text-anchor="middle" x="0" y="-0.13575" fill="Black">E</text><ellipse rx="0.0278524" ry="0.0342448" cx="0" cy="-0.07" stroke="none" fill="Black"/><ellipse rx="0.0201558" ry="0.0293078" cx="0.07" cy="-0.07" stroke="none" fill="Black"/><ellipse rx="0.0263163" ry="0.0274813" cx="-0.105" cy="0" stroke="none" fill="Black"/><ellipse rx="0.0322813" ry="0.0332076" cx="-0.035" cy="0" stroke="none" fill="Black"/><ellipse rx="0.0317137" ry="0.0276393" cx="0.035" cy="0" stroke="none" fill="Black"/><ellipse rx="0.0241298" ry="0.0330242" cx="0.105" cy="0" stroke="none" fill="Black"/><ellipse rx="0.0299482" ry="0.029643" cx="-0.07" cy="0.07" stroke="none" fill="Black"/><ellipse rx="0.0260577" ry="0.0201829" cx="0" cy="0.07" stroke="none" fill="Black"/><rect x="-0.63593" y="0.23957" width="1.27186" height="0.260859" stroke="none" fill="White"/><text font-family="Arial" font-size="0.21" font-weight="bold" text-anchor="middle" x="0" y="0.45925" fill="Black">Beatric Belt</text></g><g transform="translate(37.5,-13.5) scale(1.1547 1)"><circle transform="translate(0.25,-0.18)" r="0.05" cx="0" cy="0" stroke="none" fill="Black"/><rect x="-0.113084" y="-0.35543" width="0.226167" height="0.260859" stroke="none" fill="White"/><text font-family="Arial" font-size="0.21" font-weight="bold" text-anchor="middle" x="0" y="-0.13575" fill="Black">C</text><circle r="0.1" cx="0" cy="0" stroke="none" fill="DeepSkyBlue"/><rect x="-0.245308" y="0.23957" width="0.490615" height="0.260859" stroke="none" fill="White"/><text font-family="Arial" font-size="0.21" font-weight="bold" text-anchor="middle" x="0" y="0.45925" fill="Black">Dirli</text></g><g transform="translate(38.5,-19) scale(1.1547 1)"><rect x="-0.113084" y="-0.35543" width="0.226167" height="0.260859" stroke="none" fill="White"/><text font-family="Arial" font-size="0.21" font-weight="bold" text-anchor="middle" x="0" y="-0.13575" fill="Black">C</text><circle r="0.1" cx="0" cy="0" stroke="Black" stroke-width="0.015625" fill="White"/><rect x="-0.73811" y="0.23957" width="1.47622" height="0.260859" stroke="none" fill="White"/><text font-family="Arial" font-size="0.21" font-weight="bold" text-anchor="middle" x="0" y="0.45925" fill="Black">Muireadhaigh</text></g><g transform="translate(38.5,-16) scale(1.1547 1)"><circle transform="translate(0.25,-0.18)" r="0.05" cx="0" cy="0" stroke="none" fill="Black"/><rect x="-0.113084" y="-0.35543" width="0.226167" height="0.260859" stroke="none" fill="White"/><text font-family="Arial" font-size="0.21" font-weight="bold" text-anchor="middle" x="0" y="-0.13575" fill="Black">D</text><circle r="0.1" cx="0" cy="0" stroke="none" fill="DeepSkyBlue"/><rect x="-0.251409" y="0.23957" width="0.502817" height="0.260859" stroke="none" fill="White"/><text font-family="Arial" font-size="0.21" font-weight="bold" text-anchor="middle" x="0" y="0.45925" fill="Black">Jefe</text></g><g transform="translate(38.5,-12) scale(1.1547 1)"><circle transform="translate(0.25,-0.18)" r="0.05" cx="0" cy="0" stroke="none" fill="Black"/><rect x="-0.113084" y="-0.35543" width="0.226167" height="0.260859" stroke="none" fill="White"/><text font-family="Arial" font-size="0.21" font-weight="bold" text-anchor="middle" x="0" y="-0.13575" fill="Black">B</text><circle r="0.1" cx="0" cy="0" stroke="Black" stroke-width="0.015625" fill="White"/><rect x="-0.503809" y="0.23957" width="1.00762" height="0.260859" stroke="none" fill="White"/><text font-family="Arial" font-size="0.21" font-weight="bold" text-anchor="middle" x="0" y="0.45925" fill="Black">Taburner</text></g><g transform="translate(38.5,-11) scale(1.1547 1)"><circle transform="translate(0.25,-0.18)" r="0.05" cx="0" cy="0" stroke="none" fill="Black"/><rect x="-0.113084" y="-0.35543" width="0.226167" height="0.260859" stroke="none" fill="White"/><text font-family="Arial" font-size="0.21" font-weight="bold" text-anchor="middle" x="0" y="-0.13575" fill="Black">B</text><circle r="0.1" cx="0" cy="0" stroke="none" fill="DeepSkyBlue"/><rect x="-0.551797" y="0.23957" width="1.10359" height="0.260859" stroke="none" fill="White"/><text font-family="Arial" font-size="0.21" font-weight="bold" text-anchor="middle" x="0" y="0.45925" fill="Black">Ghahroud</text></g><g transform="translate(38.5,-10) scale(1.1547 1)"><circle transform="translate(0.25,-0.18)" r="0.05" cx="0" cy="0" stroke="none" fill="Black"/><rect x="-0.113084" y="-0.35543" width="0.226167" height="0.260859" stroke="none" fill="White"/><text font-family="Arial" font-size="0.21" font-weight="bold" text-anchor="middle" x="0" y="-0.13575" fill="Black">B</text><circle r="0.1" cx="0" cy="0" stroke="Black" stroke-width="0.015625" fill="White"/><rect x="-0.467664" y="0.23957" width="0.935327" height="0.260859" stroke="none" fill="White"/><text font-family="Arial" font-size="0.21" font-weight="bold" text-anchor="middle" x="0" y="0.45925" fill="Black">Arkigdiii</text></g></g></svg>