<?xml version = "1.0" encoding="utf-8"?>
<svg version="1.1" baseProfile="full" xmlns="http://www.w3.org/2000/svg" xmlns:xlink="http://www.w3.org/1999/xlink" width="471" height="684" viewBox="0 0 471 684" clip="0 471 0 684"><defs><clipPath id="did1"><rect x="-17.25" y="-50.1" width="8.5" height="10.7"/></clipPath><clipPath id="did2"><path d="M-33.8333,-75.5l-0.333336,-0.5l0.333336,-0.5h0.666664l0.333336,-0.5l-0.333336,-0.5l0.333336,-0.5l-0.333336,-0.5l0.333336,-0.5l-0.333336,-0.5l0.333336,-0.5h0.666664l0.333334,0.5h0.666668l0.333332,0.5h0.666668l0.333332,0.5h0.666668l0.333332,-0.5h0.666668l0.333332,-0.5h0.666668l0.333332,0.5l-0.333332,0.5l0.333332,0.5l-0.333332,0.5l0.333332,0.5l-0.333332,0.5l0.333332,0.5h0.666668l0.333332,0.5h0.666668l0.333332,0.5h0.666668l0.333332,0.5h0.666668l0.333332,0.5h0.666668l0.333332,-0.5h0.666668l0.333332,-0.5h0.666668l0.333332,-0.5h0.666668l0.333332,-0.5h0.666668l0.333332,0.5h0.666668l0.333332,-0.5h0.666668l0.333333,0.5h0.666666l0.333334,0.5h0.666666l0.333334,-0.5h0.666666l0.333334,-0.5h0.666666l0.333334,0.5h0.666666l0.333334,0.5h0.666666l0.333334,0.5h0.666666l0.333334,-0.5h0.666666l0.333334,-0.5h0.666667l0.333333,0.5h0.666667l0.333333,-0.5h0.666667l0.333333,-0.5h0.666667l0.333333,0.5h0.666667l0.333334,0.5h0.666667l0.333334,-0.5h0.666667l0.333333,-0.5h0.666667l0.333333,0.5l-0.333333,0.5l0.333333,0.5l-0.333333,0.5l0.333333,0.5l-0.333333,0.5l0.333333,0.5l-0.333333,0.5l0.333333,0.5l-0.333333,0.5l0.333333,0.5l-0.333333,0.5l0.333333,0.5l-0.333333,0.5l0.333333,0.5l-0.333333,0.5l0.333333,0.5l-0.333333,0.5l0.333333,0.5l-0.333333,0.5l0.333333,0.5l-0.333333,0.5l0.333333,0.5l-0.333333,0.5l0.333333,0.5l-0.333333,0.5l0.333333,0.5l-0.333333,0.5l0.333333,0.5l-0.333333,0.5l0.333333,0.5l-0.333333,0.5l0.333333,0.5l-0.333333,0.5l0.333333,0.5l-0.333333,0.5l0.333333,0.5l-0.333333,0.5l0.333333,0.5l-0.333333,0.5l0.333333,0.5l-0.333333,0.5l0.333333,0.5l-0.333333,0.5l0.333333,0.5l-0.333333,0.5l0.333333,0.5l-0.333333,0.5l0.333333,0.5l-0.333333,0.5l0.333333,0.5l-0.333333,0.5l0.333333,0.5l-0.333333,0.5l0.333333,0.5l-0.333333,0.5l0.333333,0.5l-0.333333,0.5l0.333333,0.5l-0.333333,0.5l0.333333,0.5l-0.333333,0.5l0.333333,0.5l-0.333333,0.5l0.333333,0.5l-0.333333,0.5l0.333333,0.5l-0.333333,0.5l0.333333,0.5l-0.333333,0.5l0.333333,0.5l-0.333333,0.5l0.333333,0.5l-0.333333,0.5h-0.666667l-0.333333,0.5h-0.666667l-0.333334,-0.5h-0.666667l-0.333334,0.5h-0.666667l-0.333333,-0.5h-0.666667l-0.333333,0.5h-0.666667l-0.333333,-0.5h-0.666667l-0.333333,0.5h-0.666667l-0.333334,-0.5h-0.666666l-0.333334,0.5h-0.666666l-0.333334,-0.5h-0.666666l-0.333334,0.5h-0.666666l-0.333334,-0.5h-0.666666l-0.333334,0.5h-0.666666l-0.333334,-0.5h-0.666666l-0.333334,0.5h-0.666666l-0.333333,-0.5h-0.666668l-0.333332,0.5h-0.666668l-0.333332,-0.5h-0.666668l-0.333332,0.5h-0.666668l-0.333332,-0.5h-0.666668l-0.333332,0.5h-0.666668l-0.333332,-0.5h-0.666668l-0.333332,0.5h-0.666668l-0.333332,-0.5h-0.666668l-0.333332,0.5h-0.666668l-0.333332,-0.5h-0.666668l-0.333332,0.5h-0.666668l-0.333332,-0.5h-0.666668l-0.333332,0.5h-0.666668l-0.333332,-0.5h-0.666668l-0.333332,0.5h-0.666668l-0.333334,-0.5h-0.666664l-0.333336,0.5h-0.666664l-0.333336,-0.5l0.333336,-0.5l-0.333336,-0.5l0.333336,-0.5l-0.333336,-0.5l0.333336,-0.5l-0.333336,-0.5l0.333336,-0.5l-0.333336,-0.5l0.333336,-0.5l-0.333336,-0.5l0.333336,-0.5l-0.333336,-0.5l0.333336,-0.5l-0.333336,-0.5l0.333336,-0.5l-0.333336,-0.5l0.333336,-0.5l-0.333336,-0.5l0.333336,-0.5l-0.333336,-0.5l0.333336,-0.5l-0.333336,-0.5l0.333336,-0.5l-0.333336,-0.5l0.333336,-0.5h0.666664l0.333336,0.5l-0.333336,0.5l0.333336,0.5h0.666664l0.333334,0.5h0.666668l0.333332,-0.5h0.666668l0.333332,-0.5h0.666668l0.333332,-0.5h0.666668l0.333332,0.5h0.666668l0.333332,-0.5h0.666668l0.333332,-0.5h0.666668l0.333332,-0.5l-0.333332,-0.5l0.333332,-0.5l-0.333332,-0.5l0.333332,-0.5l-0.333332,-0.5l0.333332,-0.5l-0.333332,-0.5l0.333332,-0.5l-0.333332,-0.5h-0.666668l-0.333332,-0.5h-0.666668l-0.333332,-0.5h-0.666668l-0.333332,-0.5h-0.666668l-0.333332,0.5h-0.666668l-0.333332,-0.5h-0.666668l-0.333332,-0.5h-0.666668l-0.333334,-0.5l0.333334,-0.5h0.666668l0.333332,-0.5h0.666668l0.333332,-0.5h0.666668l0.333332,-0.5h0.666668l0.333332,-0.5h0.666668l0.333332,0.5h0.666668l0.333332,0.5h0.666668l0.333332,0.5h0.666668l0.333332,-0.5h0.666668l0.333332,-0.5l-0.333332,-0.5l0.333332,-0.5l-0.333332,-0.5l0.333332,-0.5l-0.333332,-0.5l0.333332,-0.5l-0.333332,-0.5l0.333332,-0.5l-0.333332,-0.5l0.333332,-0.5l-0.333332,-0.5l0.333332,-0.5l-0.333332,-0.5h-0.666668l-0.333332,-0.5h-0.666668l-0.333332,-0.5h-0.666668l-0.333332,-0.5h-0.666668l-0.333332,-0.5h-0.666668l-0.333332,-0.5h-0.666668l-0.333332,0.5h-0.666668l-0.333332,0.5h-0.666668l-0.333332,0.5h-0.666668l-0.333334,-0.5l0.333334,-0.5l-0.333334,-0.5h-0.666664l-0.333336,-0.5h-0.666664l-0.333336,-0.5l0.333336,-0.5l-0.333336,-0.5l0.333336,-0.5l-0.333336,-0.5l0.333336,-0.5l-0.333336,-0.5l0.333336,-0.5l-0.333336,-0.5Z"/></clipPath><clipPath id="did3"><rect x="-17.25" y="-50.1" width="8.5" height="10.7"/></clipPath><clipPath id="did4"><rect x="-17.25" y="-50.1" width="8.5" height="10.7"/></clipPath></defs><g fill="None" stroke="None" transform="matrix(1,0,0,1,0,0) matrix(55.4256,0,0,64,956.092,3206.4)"><g clip-path="url(#did1)"><rect x="-18.1" y="-51.17" width="10.2" height="12.84" stroke="none" fill="White"/><path d="M-19.1667,-51.5v0l0.333332,0.5h0.666668l0.333332,-0.5" stroke="#808080" stroke-width="0.015625" fill="none"/><path d="M-19.1667,-50.5v0l0.333332,0.5h0.666668l0.333332,-0.5" stroke="#808080" stroke-width="0.015625" fill="none"/><path d="M-19.1667,-49.5v0l0.333332,0.5h0.666668l0.333332,-0.5" stroke="#808080" stroke-width="0.015625" fill="none"/><path d="M-19.1667,-48.5v0l0.333332,0.5h0.666668l0.333332,-0.5" stroke="#808080" stroke-width="0.015625" fill="none"/><path d="M-19.1667,-47.5v0l0.333332,0.5h0.666668l0.333332,-0.5" stroke="#808080" stroke-width="0.015625" fill="none"/><path d="M-19.1667,-46.5v0l0.333332,0.5h0.666668l0.333332,-0.5" stroke="#808080" stroke-width="0.015625" fill="none"/><path d="M-19.1667,-45.5v0l0.333332,0.5h0.666668l0.333332,-0.5" stroke="#808080" stroke-width="0.015625" fill="none"/><path d="M-19.1667,-44.5v0l0.333332,0.5h0.666668l0.333332,-0.5" stroke="#808080" stroke-width="0.015625" fill="none"/><path d="M-19.1667,-43.5v0l0.333332,0.5h0.666668l0.333332,-0.5" stroke="#808080" stroke-width="0.015625" fill="none"/><path d="M-19.1667,-42.5v0l0.333332,0.5h0.666668l0.333332,-0.5" stroke="#808080" stroke-width="0.015625" fill="none"/><path d="M-19.1667,-41.5v0l0.333332,0.5h0.666668l0.333332,-0.5" stroke="#808080" stroke-width="0.015625" fill="none"/><path d="M-19.1667,-40.5v0l0.333332,0.5h0.666668l0.333332,-0.5" stroke="#808080" stroke-width="0.015625" fill="none"/><path d="M-19.1667,-39.5v0l0.333332,0.5h0.666668l0.333332,-0.5" stroke="#808080" stroke-width="0.015625" fill="none"/><path d="M-18.1667,-51v0l0.333332,0.5h0.666668l0.333332,-0.5" stroke="#808080" stroke-width="0.015625" fill="none"/><path d="M-18.1667,-50v0l0.333332,0.5h0.666668l0.333332,-0.5" stroke="#808080" stroke-width="0.015625" fill="none"/><path d="M-18.1667,-49v0l0.333332,0.5h0.666668l0.333332,-0.5" stroke="#808080" stroke-width="0.015625" fill="none"/><path d="M-18.1667,-48v0l0.333332,0.5h0.666668l0.333332,-0.5" stroke="#808080" stroke-width="0.015625" fill="none"/><path d="M-18.1667,-47v0l0.333332,0.5h0.666668l0.333332,-0.5" stroke="#808080" stroke-width="0.015625" fill="none"/><path d="M-18.1667,-46v0l0.333332,0.5h0.666668l0.333332,-0.5" stroke="#808080" stroke-width="0.015625" fill="none"/><path d="M-18.1667,-45v0l0.333332,0.5h0.666668l0.333332,-0.5" stroke="#808080" stroke-width="0.015625" fill="none"/><path d="M-18.1667,-44v0l0.333332,0.5h0.666668l0.333332,-0.5" stroke="#808080" stroke-width="0.015625" fill="none"/><path d="M-18.1667,-43v0l0.333332,0.5h0.666668l0.333332,-0.5" stroke="#808080" stroke-width="0.015625" fill="none"/><path d="M-18.1667,-42v0l0.333332,0.5h0.666668l0.333332,-0.5" stroke="#808080" stroke-width="0.015625" fill="none"/><path d="M-18.1667,-41v0l0.333332,0.5h0.666668l0.333332,-0.5" stroke="#808080" stroke-width="0.015625" fill="none"/><path d="M-18.1667,-40v0l0.333332,0.5h0.666668l0.333332,-0.5" stroke="#808080" stroke-width="0.015625" fill="none"/><path d="M-18.1667,-39v0l0.333332,0.5h0.666668l0.333332,-0.5" stroke="#808080" stroke-width="0.015625" fill="none"/><path d="M-17.1667,-51.5v0l0.333332,0.5h0.666668l0.333333,-0.5" stroke="#808080" stroke-width="0.015625" fill="none"/><path d="M-17.1667,-50.5v0l0.333332,0.5h0.666668l0.333333,-0.5" stroke="#808080" stroke-width="0.015625" fill="none"/><path d="M-17.1667,-49.5v0l0.333332,0.5h0.666668l0.333333,-0.5" stroke="#808080" stroke-width="0.015625" fill="none"/><path d="M-17.1667,-48.5v0l0.333332,0.5h0.666668l0.333333,-0.5" stroke="#808080" stroke-width="0.015625" fill="none"/><path d="M-17.1667,-47.5v0l0.333332,0.5h0.666668l0.333333,-0.5" stroke="#808080" stroke-width="0.015625" fill="none"/><path d="M-17.1667,-46.5v0l0.333332,0.5h0.666668l0.333333,-0.5" stroke="#808080" stroke-width="0.015625" fill="none"/><path d="M-17.1667,-45.5v0l0.333332,0.5h0.666668l0.333333,-0.5" stroke="#808080" stroke-width="0.015625" fill="none"/><path d="M-17.1667,-44.5v0l0.333332,0.5h0.666668l0.333333,-0.5" stroke="#808080" stroke-width="0.015625" fill="none"/><path d="M-17.1667,-43.5v0l0.333332,0.5h0.666668l0.333333,-0.5" stroke="#808080" stroke-width="0.015625" fill="none"/><path d="M-17.1667,-42.5v0l0.333332,0.5h0.666668l0.333333,-0.5" stroke="#808080" stroke-width="0.015625" fill="none"/><path d="M-17.1667,-41.5v0l0.333332,0.5h0.666668l0.333333,-0.5" stroke="#808080" stroke-width="0.015625" fill="none"/><path d="M-17.1667,-40.5v0l0.333332,0.5h0.666668l0.333333,-0.5" stroke="#808080" stroke-width="0.015625" fill="none"/><path d="M-17.1667,-39.5v0l0.333332,0.5h0.666668l0.333333,-0.5" stroke="#808080" stroke-width="0.015625" fill="none"/><path d="M-16.1667,-51v0l0.333333,0.5h0.666666l0.333334,-0.5" stroke="#808080" stroke-width="0.015625" fill="none"/><path d="M-16.1667,-50v0l0.333333,0.5h0.666666l0.333334,-0.5" stroke="#808080" stroke-width="0.015625" fill="none"/><path d="M-16.1667,-49v0l0.333333,0.5h0.666666l0.333334,-0.5" stroke="#808080" stroke-width="0.015625" fill="none"/><path d="M-16.1667,-48v0l0.333333,0.5h0.666666l0.333334,-0.5" stroke="#808080" stroke-width="0.015625" fill="none"/><path d="M-16.1667,-47v0l0.333333,0.5h0.666666l0.333334,-0.5" stroke="#808080" stroke-width="0.015625" fill="none"/><path d="M-16.1667,-46v0l0.333333,0.5h0.666666l0.333334,-0.5" stroke="#808080" stroke-width="0.015625" fill="none"/><path d="M-16.1667,-45v0l0.333333,0.5h0.666666l0.333334,-0.5" stroke="#808080" stroke-width="0.015625" fill="none"/><path d="M-16.1667,-44v0l0.333333,0.5h0.666666l0.333334,-0.5" stroke="#808080" stroke-width="0.015625" fill="none"/><path d="M-16.1667,-43v0l0.333333,0.5h0.666666l0.333334,-0.5" stroke="#808080" stroke-width="0.015625" fill="none"/><path d="M-16.1667,-42v0l0.333333,0.5h0.666666l0.333334,-0.5" stroke="#808080" stroke-width="0.015625" fill="none"/><path d="M-16.1667,-41v0l0.333333,0.5h0.666666l0.333334,-0.5" stroke="#808080" stroke-width="0.015625" fill="none"/><path d="M-16.1667,-40v0l0.333333,0.5h0.666666l0.333334,-0.5" stroke="#808080" stroke-width="0.015625" fill="none"/><path d="M-16.1667,-39v0l0.333333,0.5h0.666666l0.333334,-0.5" stroke="#808080" stroke-width="0.015625" fill="none"/><path d="M-15.1667,-51.5v0l0.333334,0.5h0.666666l0.333334,-0.5" stroke="#808080" stroke-width="0.015625" fill="none"/><path d="M-15.1667,-50.5v0l0.333334,0.5h0.666666l0.333334,-0.5" stroke="#808080" stroke-width="0.015625" fill="none"/><path d="M-15.1667,-49.5v0l0.333334,0.5h0.666666l0.333334,-0.5" stroke="#808080" stroke-width="0.015625" fill="none"/><path d="M-15.1667,-48.5v0l0.333334,0.5h0.666666l0.333334,-0.5" stroke="#808080" stroke-width="0.015625" fill="none"/><path d="M-15.1667,-47.5v0l0.333334,0.5h0.666666l0.333334,-0.5" stroke="#808080" stroke-width="0.015625" fill="none"/><path d="M-15.1667,-46.5v0l0.333334,0.5h0.666666l0.333334,-0.5" stroke="#808080" stroke-width="0.015625" fill="none"/><path d="M-15.1667,-45.5v0l0.333334,0.5h0.666666l0.333334,-0.5" stroke="#808080" stroke-width="0.015625" fill="none"/><path d="M-15.1667,-44.5v0l0.333334,0.5h0.666666l0.333334,-0.5" stroke="#808080" stroke-width="0.015625" fill="none"/><path d="M-15.1667,-43.5v0l0.333334,0.5h0.666666l0.333334,-0.5" stroke="#808080" stroke-width="0.015625" fill="none"/><path d="M-15.1667,-42.5v0l0.333334,0.5h0.666666l0.333334,-0.5" stroke="#808080" stroke-width="0.015625" fill="none"/><path d="M-15.1667,-41.5v0l0.333334,0.5h0.666666l0.333334,-0.5" stroke="#808080" stroke-width="0.015625" fill="none"/><path d="M-15.1667,-40.5v0l0.333334,0.5h0.666666l0.333334,-0.5" stroke="#808080" stroke-width="0.015625" fill="none"/><path d="M-15.1667,-39.5v0l0.333334,0.5h0.666666l0.333334,-0.5" stroke="#808080" stroke-width="0.015625" fill="none"/><path d="M-14.1667,-51v0l0.333334,0.5h0.666666l0.333334,-0.5" stroke="#808080" stroke-width="0.015625" fill="none"/><path d="M-14.1667,-50v0l0.333334,0.5h0.666666l0.333334,-0.5" stroke="#808080" stroke-width="0.015625" fill="none"/><path d="M-14.1667,-49v0l0.333334,0.5h0.666666l0.333334,-0.5" stroke="#808080" stroke-width="0.015625" fill="none"/><path d="M-14.1667,-48v0l0.333334,0.5h0.666666l0.333334,-0.5" stroke="#808080" stroke-width="0.015625" fill="none"/><path d="M-14.1667,-47v0l0.333334,0.5h0.666666l0.333334,-0.5" stroke="#808080" stroke-width="0.015625" fill="none"/><path d="M-14.1667,-46v0l0.333334,0.5h0.666666l0.333334,-0.5" stroke="#808080" stroke-width="0.015625" fill="none"/><path d="M-14.1667,-45v0l0.333334,0.5h0.666666l0.333334,-0.5" stroke="#808080" stroke-width="0.015625" fill="none"/><path d="M-14.1667,-44v0l0.333334,0.5h0.666666l0.333334,-0.5" stroke="#808080" stroke-width="0.015625" fill="none"/><path d="M-14.1667,-43v0l0.333334,0.5h0.666666l0.333334,-0.5" stroke="#808080" stroke-width="0.015625" fill="none"/><path d="M-14.1667,-42v0l0.333334,0.5h0.666666l0.333334,-0.5" stroke="#808080" stroke-width="0.015625" fill="none"/><path d="M-14.1667,-41v0l0.333334,0.5h0.666666l0.333334,-0.5" stroke="#808080" stroke-width="0.015625" fill="none"/><path d="M-14.1667,-40v0l0.333334,0.5h0.666666l0.333334,-0.5" stroke="#808080" stroke-width="0.015625" fill="none"/><path d="M-14.1667,-39v0l0.333334,0.5h0.666666l0.333334,-0.5" stroke="#808080" stroke-width="0.015625" fill="none"/><path d="M-13.1667,-51.5v0l0.333334,0.5h0.666666l0.333334,-0.5" stroke="#808080" stroke-width="0.015625" fill="none"/><path d="M-13.1667,-50.5v0l0.333334,0.5h0.666666l0.333334,-0.5" stroke="#808080" stroke-width="0.015625" fill="none"/><path d="M-13.1667,-49.5v0l0.333334,0.5h0.666666l0.333334,-0.5" stroke="#808080" stroke-width="0.015625" fill="none"/><path d="M-13.1667,-48.5v0l0.333334,0.5h0.666666l0.333334,-0.5" stroke="#808080" stroke-width="0.015625" fill="none"/><path d="M-13.1667,-47.5v0l0.333334,0.5h0.666666l0.333334,-0.5" stroke="#808080" stroke-width="0.015625" fill="none"/><path d="M-13.1667,-46.5v0l0.333334,0.5h0.666666l0.333334,-0.5" stroke="#808080" stroke-width="0.015625" fill="none"/><path d="M-13.1667,-45.5v0l0.333334,0.5h0.666666l0.333334,-0.5" stroke="#808080" stroke-width="0.015625" fill="none"/><path d="M-13.1667,-44.5v0l0.333334,0.5h0.666666l0.333334,-0.5" stroke="#808080" stroke-width="0.015625" fill="none"/><path d="M-13.1667,-43.5v0l0.333334,0.5h0.666666l0.333334,-0.5" stroke="#808080" stroke-width="0.015625" fill="none"/><path d="M-13.1667,-42.5v0l0.333334,0.5h0.666666l0.333334,-0.5" stroke="#808080" stroke-width="0.015625" fill="none"/><path d="M-13.1667,-41.5v0l0.333334,0.5h0.666666l0.333334,-0.5" stroke="#808080" stroke-width="0.015625" fill="none"/><path d="M-13.1667,-40.5v0l0.333334,0.5h0.666666l0.333334,-0.5" stroke="#808080" stroke-width="0.015625" fill="none"/><path d="M-13.1667,-39.5v0l0.333334,0.5h0.666666l0.333334,-0.5" stroke="#808080" stroke-width="0.015625" fill="none"/><path d="M-12.1667,-51v0l0.333334,0.5h0.666666l0.333334,-0.5" stroke="#808080" stroke-width="0.015625" fill="none"/><path d="M-12.1667,-50v0l0.333334,0.5h0.666666l0.333334,-0.5" stroke="#808080" stroke-width="0.015625" fill="none"/><path d="M-12.1667,-49v0l0.333334,0.5h0.666666l0.333334,-0.5" stroke="#808080" stroke-width="0.015625" fill="none"/><path d="M-12.1667,-48v0l0.333334,0.5h0.666666l0.333334,-0.5" stroke="#808080" stroke-width="0.015625" fill="none"/><path d="M-12.1667,-47v0l0.333334,0.5h0.666666l0.333334,-0.5" stroke="#808080" stroke-width="0.015625" fill="none"/><path d="M-12.1667,-46v0l0.333334,0.5h0.666666l0.333334,-0.5" stroke="#808080" stroke-width="0.015625" fill="none"/><path d="M-12.1667,-45v0l0.333334,0.5h0.666666l0.333334,-0.5" stroke="#808080" stroke-width="0.015625" fill="none"/><path d="M-12.1667,-44v0l0.333334,0.5h0.666666l0.333334,-0.5" stroke="#808080" stroke-width="0.015625" fill="none"/><path d="M-12.1667,-43v0l0.333334,0.5h0.666666l0.333334,-0.5" stroke="#808080" stroke-width="0.015625" fill="none"/><path d="M-12.1667,-42v0l0.333334,0.5h0.666666l0.333334,-0.5" stroke="#808080" stroke-width="0.015625" fill="none"/><path d="M-12.1667,-41v0l0.333334,0.5h0.666666l0.333334,-0.5" stroke="#808080" stroke-width="0.015625" fill="none"/><path d="M-12.1667,-40v0l0.333334,0.5h0.666666l0.333334,-0.5" stroke="#808080" stroke-width="0.015625" fill="none"/><path d="M-12.1667,-39v0l0.333334,0.5h0.666666l0.333334,-0.5" stroke="#808080" stroke-width="0.015625" fill="none"/><path d="M-11.1667,-51.5v0l0.333334,0.5h0.666666l0.333334,-0.5" stroke="#808080" stroke-width="0.015625" fill="none"/><path d="M-11.1667,-50.5v0l0.333334,0.5h0.666666l0.333334,-0.5" stroke="#808080" stroke-width="0.015625" fill="none"/><path d="M-11.1667,-49.5v0l0.333334,0.5h0.666666l0.333334,-0.5" stroke="#808080" stroke-width="0.015625" fill="none"/><path d="M-11.1667,-48.5v0l0.333334,0.5h0.666666l0.333334,-0.5" stroke="#808080" stroke-width="0.015625" fill="none"/><path d="M-11.1667,-47.5v0l0.333334,0.5h0.666666l0.333334,-0.5" stroke="#808080" stroke-width="0.015625" fill="none"/><path d="M-11.1667,-46.5v0l0.333334,0.5h0.666666l0.333334,-0.5" stroke="#808080" stroke-width="0.015625" fill="none"/><path d="M-11.1667,-45.5v0l0.333334,0.5h0.666666l0.333334,-0.5" stroke="#808080" stroke-width="0.015625" fill="none"/><path d="M-11.1667,-44.5v0l0.333334,0.5h0.666666l0.333334,-0.5" stroke="#808080" stroke-width="0.015625" fill="none"/><path d="M-11.1667,-43.5v0l0.333334,0.5h0.666666l0.333334,-0.5" stroke="#808080" stroke-width="0.015625" fill="none"/><path d="M-11.1667,-42.5v0l0.333334,0.5h0.666666l0.333334,-0.5" stroke="#808080" stroke-width="0.015625" fill="none"/><path d="M-11.1667,-41.5v0l0.333334,0.5h0.666666l0.333334,-0.5" stroke="#808080" stroke-width="0.015625" fill="none"/><path d="M-11.1667,-40.5v0l0.333334,0.5h0.666666l0.333334,-0.5" stroke="#808080" stroke-width="0.015625" fill="none"/><path d="M-11.1667,-39.5v0l0.333334,0.5h0.666666l0.333334,-0.5" stroke="#808080" stroke-width="0.015625" fill="none"/><path d="M-10.1667,-51v0l0.333334,0.5h0.666666l0.333334,-0.5" stroke="#808080" stroke-width="0.015625" fill="none"/><path d="M-10.1667,-50v0l0.333334,0.5h0.666666l0.333334,-0.5" stroke="#808080" stroke-width="0.015625" fill="none"/><path d="M-10.1667,-49v0l0.333334,0.5h0.666666l0.333334,-0.5" stroke="#808080" stroke-width="0.015625" fill="none"/><path d="M-10.1667,-48v0l0.333334,0.5h0.666666l0.333334,-0.5" stroke="#808080" stroke-width="0.015625" fill="none"/><path d="M-10.1667,-47v0l0.333334,0.5h0.666666l0.333334,-0.5" stroke="#808080" stroke-width="0.015625" fill="none"/><path d="M-10.1667,-46v0l0.333334,0.5h0.666666l0.333334,-0.5" stroke="#808080" stroke-width="0.015625" fill="none"/><path d="M-10.1667,-45v0l0.333334,0.5h0.666666l0.333334,-0.5" stroke="#808080" stroke-width="0.015625" fill="none"/><path d="M-10.1667,-44v0l0.333334,0.5h0.666666l0.333334,-0.5" stroke="#808080" stroke-width="0.015625" fill="none"/><path d="M-10.1667,-43v0l0.333334,0.5h0.666666l0.333334,-0.5" stroke="#808080" stroke-width="0.015625" fill="none"/><path d="M-10.1667,-42v0l0.333334,0.5h0.666666l0.333334,-0.5" stroke="#808080" stroke-width="0.015625" fill="none"/><path d="M-10.1667,-41v0l0.333334,0.5h0.666666l0.333334,-0.5" stroke="#808080" stroke-width="0.015625" fill="none"/><path d="M-10.1667,-40v0l0.333334,0.5h0.666666l0.333334,-0.5" stroke="#808080" stroke-width="0.015625" fill="none"/><path d="M-10.1667,-39v0l0.333334,0.5h0.666666l0.333334,-0.5" stroke="#808080" stroke-width="0.015625" fill="none"/><path d="M-9.16667,-51.5v0l0.333334,0.5h0.666666l0.333334,-0.5" stroke="#808080" stroke-width="0.015625" fill="none"/><path d="M-9.16667,-50.5v0l0.333334,0.5h0.666666l0.333334,-0.5" stroke="#808080" stroke-width="0.015625" fill="none"/><path d="M-9.16667,-49.5v0l0.333334,0.5h0.666666l0.333334,-0.5" stroke="#808080" stroke-width="0.015625" fill="none"/><path d="M-9.16667,-48.5v0l0.333334,0.5h0.666666l0.333334,-0.5" stroke="#808080" stroke-width="0.015625" fill="none"/><path d="M-9.16667,-47.5v0l0.333334,0.5h0.666666l0.333334,-0.5" stroke="#808080" stroke-width="0.015625" fill="none"/><path d="M-9.16667,-46.5v0l0.333334,0.5h0.666666l0.333334,-0.5" stroke="#808080" stroke-width="0.015625" fill="none"/><path d="M-9.16667,-45.5v0l0.333334,0.5h0.666666l0.333334,-0.5" stroke="#808080" stroke-width="0.015625" fill="none"/><path d="M-9.16667,-44.5v0l0.333334,0.5h0.666666l0.333334,-0.5" stroke="#808080" stroke-width="0.015625" fill="none"/><path d="M-9.16667,-43.5v0l0.333334,0.5h0.666666l0.333334,-0.5" stroke="#808080" stroke-width="0.015625" fill="none"/><path d="M-9.16667,-42.5v0l0.333334,0.5h0.666666l0.333334,-0.5" stroke="#808080" stroke-width="0.015625" fill="none"/><path d="M-9.16667,-41.5v0l0.333334,0.5h0.666666l0.333334,-0.5" stroke="#808080" stroke-width="0.015625" fill="none"/><path d="M-9.16667,-40.5v0l0.333334,0.5h0.666666l0.333334,-0.5" stroke="#808080" stroke-width="0.015625" fill="none"/><path d="M-9.16667,-39.5v0l0.333334,0.5h0.666666l0.333334,-0.5" stroke="#808080" stroke-width="0.015625" fill="none"/><path clip-path="url(#did2)" d="M-33.8333,-75.5l-0.333336,-0.5l0.333336,-0.5h0.666664l0.333336,-0.5l-0.333336,-0.5l0.333336,-0.5l-0.333336,-0.5l0.333336,-0.5l-0.333336,-0.5l0.333336,-0.5h0.666664l0.333334,0.5h0.666668l0.333332,0.5h0.666668l0.333332,0.5h0.666668l0.333332,-0.5h0.666668l0.333332,-0.5h0.666668l0.333332,0.5l-0.333332,0.5l0.333332,0.5l-0.333332,0.5l0.333332,0.5l-0.333332,0.5l0.333332,0.5h0.666668l0.333332,0.5h0.666668l0.333332,0.5h0.666668l0.333332,0.5h0.666668l0.333332,0.5h0.666668l0.333332,-0.5h0.666668l0.333332,-0.5h0.666668l0.333332,-0.5h0.666668l0.333332,-0.5h0.666668l0.333332,0.5h0.666668l0.333332,-0.5h0.666668l0.333333,0.5h0.666666l0.333334,0.5h0.666666l0.333334,-0.5h0.666666l0.333334,-0.5h0.666666l0.333334,0.5h0.666666l0.333334,0.5h0.666666l0.333334,0.5h0.666666l0.333334,-0.5h0.666666l0.333334,-0.5h0.666667l0.333333,0.5h0.666667l0.333333,-0.5h0.666667l0.333333,-0.5h0.666667l0.333333,0.5h0.666667l0.333334,0.5h0.666667l0.333334,-0.5h0.666667l0.333333,-0.5h0.666667l0.333333,0.5l-0.333333,0.5l0.333333,0.5l-0.333333,0.5l0.333333,0.5l-0.333333,0.5l0.333333,0.5l-0.333333,0.5l0.333333,0.5l-0.333333,0.5l0.333333,0.5l-0.333333,0.5l0.333333,0.5l-0.333333,0.5l0.333333,0.5l-0.333333,0.5l0.333333,0.5l-0.333333,0.5l0.333333,0.5l-0.333333,0.5l0.333333,0.5l-0.333333,0.5l0.333333,0.5l-0.333333,0.5l0.333333,0.5l-0.333333,0.5l0.333333,0.5l-0.333333,0.5l0.333333,0.5l-0.333333,0.5l0.333333,0.5l-0.333333,0.5l0.333333,0.5l-0.333333,0.5l0.333333,0.5l-0.333333,0.5l0.333333,0.5l-0.333333,0.5l0.333333,0.5l-0.333333,0.5l0.333333,0.5l-0.333333,0.5l0.333333,0.5l-0.333333,0.5l0.333333,0.5l-0.333333,0.5l0.333333,0.5l-0.333333,0.5l0.333333,0.5l-0.333333,0.5l0.333333,0.5l-0.333333,0.5l0.333333,0.5l-0.333333,0.5l0.333333,0.5l-0.333333,0.5l0.333333,0.5l-0.333333,0.5l0.333333,0.5l-0.333333,0.5l0.333333,0.5l-0.333333,0.5l0.333333,0.5l-0.333333,0.5l0.333333,0.5l-0.333333,0.5l0.333333,0.5l-0.333333,0.5l0.333333,0.5l-0.333333,0.5l0.333333,0.5l-0.333333,0.5l0.333333,0.5l-0.333333,0.5h-0.666667l-0.333333,0.5h-0.666667l-0.333334,-0.5h-0.666667l-0.333334,0.5h-0.666667l-0.333333,-0.5h-0.666667l-0.333333,0.5h-0.666667l-0.333333,-0.5h-0.666667l-0.333333,0.5h-0.666667l-0.333334,-0.5h-0.666666l-0.333334,0.5h-0.666666l-0.333334,-0.5h-0.666666l-0.333334,0.5h-0.666666l-0.333334,-0.5h-0.666666l-0.333334,0.5h-0.666666l-0.333334,-0.5h-0.666666l-0.333334,0.5h-0.666666l-0.333333,-0.5h-0.666668l-0.333332,0.5h-0.666668l-0.333332,-0.5h-0.666668l-0.333332,0.5h-0.666668l-0.333332,-0.5h-0.666668l-0.333332,0.5h-0.666668l-0.333332,-0.5h-0.666668l-0.333332,0.5h-0.666668l-0.333332,-0.5h-0.666668l-0.333332,0.5h-0.666668l-0.333332,-0.5h-0.666668l-0.333332,0.5h-0.666668l-0.333332,-0.5h-0.666668l-0.333332,0.5h-0.666668l-0.333332,-0.5h-0.666668l-0.333332,0.5h-0.666668l-0.333334,-0.5h-0.666664l-0.333336,0.5h-0.666664l-0.333336,-0.5l0.333336,-0.5l-0.333336,-0.5l0.333336,-0.5l-0.333336,-0.5l0.333336,-0.5l-0.333336,-0.5l0.333336,-0.5l-0.333336,-0.5l0.333336,-0.5l-0.333336,-0.5l0.333336,-0.5l-0.333336,-0.5l0.333336,-0.5l-0.333336,-0.5l0.333336,-0.5l-0.333336,-0.5l0.333336,-0.5l-0.333336,-0.5l0.333336,-0.5l-0.333336,-0.5l0.333336,-0.5l-0.333336,-0.5l0.333336,-0.5l-0.333336,-0.5l0.333336,-0.5h0.666664l0.333336,0.5l-0.333336,0.5l0.333336,0.5h0.666664l0.333334,0.5h0.666668l0.333332,-0.5h0.666668l0.333332,-0.5h0.666668l0.333332,-0.5h0.666668l0.333332,0.5h0.666668l0.333332,-0.5h0.666668l0.333332,-0.5h0.666668l0.333332,-0.5l-0.333332,-0.5l0.333332,-0.5l-0.333332,-0.5l0.333332,-0.5l-0.333332,-0.5l0.333332,-0.5l-0.333332,-0.5l0.333332,-0.5l-0.333332,-0.5h-0.666668l-0.333332,-0.5h-0.666668l-0.333332,-0.5h-0.666668l-0.333332,-0.5h-0.666668l-0.333332,0.5h-0.666668l-0.333332,-0.5h-0.666668l-0.333332,-0.5h-0.666668l-0.333334,-0.5l0.333334,-0.5h0.666668l0.333332,-0.5h0.666668l0.333332,-0.5h0.666668l0.333332,-0.5h0.666668l0.333332,-0.5h0.666668l0.333332,0.5h0.666668l0.333332,0.5h0.666668l0.333332,0.5h0.666668l0.333332,-0.5h0.666668l0.333332,-0.5l-0.333332,-0.5l0.333332,-0.5l-0.333332,-0.5l0.333332,-0.5l-0.333332,-0.5l0.333332,-0.5l-0.333332,-0.5l0.333332,-0.5l-0.333332,-0.5l0.333332,-0.5l-0.333332,-0.5l0.333332,-0.5l-0.333332,-0.5h-0.666668l-0.333332,-0.5h-0.666668l-0.333332,-0.5h-0.666668l-0.333332,-0.5h-0.666668l-0.333332,-0.5h-0.666668l-0.333332,-0.5h-0.666668l-0.333332,0.5h-0.666668l-0.333332,0.5h-0.666668l-0.333332,0.5h-0.666668l-0.333334,-0.5l0.333334,-0.5l-0.333334,-0.5h-0.666664l-0.333336,-0.5h-0.666664l-0.333336,-0.5l0.333336,-0.5l-0.333336,-0.5l0.333336,-0.5l-0.333336,-0.5l0.333336,-0.5l-0.333336,-0.5l0.333336,-0.5l-0.333336,-0.5Z" stroke="#E32736" stroke-width="0.16" fill="none"/><line x1="-18.311" y1="-47.311" x2="-16.689" y2="-45.689" stroke="#048104" stroke-width="0.08"/><line x1="-18.311" y1="-47.311" x2="-16.689" y2="-45.689" stroke="#048104" stroke-width="0.08"/><line x1="-16.311" y1="-45.311" x2="-14.689" y2="-43.689" stroke="#048104" stroke-width="0.08"/><line x1="-14.311" y1="-50.311" x2="-12.689" y2="-48.689" stroke="#048104" stroke-width="0.08"/><line x1="-12.25" y1="-48.375" x2="-11.75" y2="-48.125" stroke="#048104" stroke-width="0.08"/><line x1="-11.2165" y1="-40.0473" x2="-8.78347" y2="-40.4528" stroke="#048104" stroke-width="0.08"/><line x1="-10.3557" y1="-43.2835" x2="-9.64434" y2="-42.2165" stroke="#048104" stroke-width="0.08"/><line x1="-9.35566" y1="-41.7835" x2="-8.64434" y2="-40.7165" stroke="#048104" stroke-width="0.08"/><line x1="-9.25" y1="-42.125" x2="-7.75" y2="-42.875" stroke="#048104" stroke-width="0.08"/></g><g clip-path="url(#did3)"><text transform="translate(-16.5,-48.5) scale(1.1547 1)" font-family="Arial" font-size="0.14" text-anchor="middle" x="0" y="-0.381" fill="DarkGray">1732</text><text transform="translate(-16.5,-46.5) scale(1.1547 1)" font-family="Arial" font-size="0.14" text-anchor="middle" x="0" y="-0.381" fill="DarkGray">1734</text><g transform="translate(-16.5,-45.5) scale(1.1547 1)"><circle r="0.4" cx="0" cy="0" stroke="#FFCC00" stroke-width="0.05" fill="none"/><text font-family="Arial" font-size="0.14" text-anchor="middle" x="0" y="-0.381" fill="DarkGray">1735</text></g><text transform="translate(-16.5,-44.5) scale(1.1547 1)" font-family="Arial" font-size="0.14" text-anchor="middle" x="0" y="-0.381" fill="DarkGray">1736</text><g transform="translate(-16.5,-40.5) scale(1.1547 1)"><circle r="0.4" cx="0" cy="0" stroke="#FFCC00" stroke-width="0.05" fill="none"/><text font-family="Arial" font-size="0.14" text-anchor="middle" x="0" y="-0.381" fill="DarkGray">1740</text></g><text transform="translate(-15.5,-49) scale(1.1547 1)" font-family="Arial" font-size="0.14" text-anchor="middle" x="0" y="-0.381" fill="DarkGray">1831</text><text transform="translate(-15.5,-47) scale(1.1547 1)" font-family="Arial" font-size="0.14" text-anchor="middle" x="0" y="-0.381" fill="DarkGray">1833</text><text transform="translate(-15.5,-41) scale(1.1547 1)" font-family="Arial" font-size="0.14" text-anchor="middle" x="0" y="-0.381" fill="DarkGray">1839</text><text transform="translate(-14.5,-49.5) scale(1.1547 1)" font-family="Arial" font-size="0.14" text-anchor="middle" x="0" y="-0.381" fill="DarkGray">1931</text><text transform="translate(-14.5,-48.5) scale(1.1547 1)" font-family="Arial" font-size="0.14" text-anchor="middle" x="0" y="-0.381" fill="DarkGray">1932</text><text transform="translate(-14.5,-47.5) scale(1.1547 1)" font-family="Arial" font-size="0.14" text-anchor="middle" x="0" y="-0.381" fill="DarkGray">1933</text><text transform="translate(-14.5,-44.5) scale(1.1547 1)" font-family="Arial" font-size="0.14" text-anchor="middle" x="0" y="-0.381" fill="DarkGray">1936</text><text transform="translate(-14.5,-43.5) scale(1.1547 1)" font-family="Arial" font-size="0.14" text-anchor="middle" x="0" y="-0.381" fill="DarkGray">1937</text><text transform="translate(-13.5,-48) scale(1.1547 1)" font-family="Arial" font-size="0.14" text-anchor="middle" x="0" y="-0.381" fill="DarkGray">2032</text><g transform="translate(-13.5,-45) scale(1.1547 1)"><circle r="0.4" cx="0" cy="0" stroke="#FFCC00" stroke-width="0.05" fill="none"/><text font-family="Arial" font-size="0.14" text-anchor="middle" x="0" y="-0.381" fill="DarkGray">2035</text></g><text transform="translate(-13.5,-44) scale(1.1547 1)" font-family="Arial" font-size="0.14" text-anchor="middle" x="0" y="-0.381" fill="DarkGray">2036</text><text transform="translate(-13.5,-41) scale(1.1547 1)" font-family="Arial" font-size="0.14" text-anchor="middle" x="0" y="-0.381" fill="DarkGray">2039</text><text transform="translate(-12.5,-48.5) scale(1.1547 1)" font-family="Arial" font-size="0.14" text-anchor="middle" x="0" y="-0.381" fill="DarkGray">2132</text><text transform="translate(-12.5,-47.5) scale(1.1547 1)" font-family="Arial" font-size="0.14" text-anchor="middle" x="0" y="-0.381" fill="DarkGray">2133</text><text transform="translate(-12.5,-46.5) scale(1.1547 1)" font-family="Arial" font-size="0.14" text-anchor="middle" x="0" y="-0.381" fill="DarkGray">2134</text><text transform="translate(-12.5,-43.5) scale(1.1547 1)" font-family="Arial" font-size="0.14" text-anchor="middle" x="0" y="-0.381" fill="DarkGray">2137</text><g transform="translate(-12.5,-42.5) scale(1.1547 1)"><circle r="0.4" cx="0" cy="0" stroke="#FFCC00" stroke-width="0.05" fill="none"/><text font-family="Arial" font-size="0.14" text-anchor="middle" x="0" y="-0.381" fill="DarkGray">2138</text></g><g transform="translate(-12.5,-41.5) scale(1.1547 1)"><circle r="0.4" cx="0" cy="0" stroke="#FFCC00" stroke-width="0.05" fill="none"/><text font-family="Arial" font-size="0.14" text-anchor="middle" x="0" y="-0.381" fill="DarkGray">2139</text></g><text transform="translate(-11.5,-48) scale(1.1547 1)" font-family="Arial" font-size="0.14" text-anchor="middle" x="0" y="-0.381" fill="DarkGray">2232</text><text transform="translate(-11.5,-47) scale(1.1547 1)" font-family="Arial" font-size="0.14" text-anchor="middle" x="0" y="-0.381" fill="DarkGray">2233</text><text transform="translate(-11.5,-45) scale(1.1547 1)" font-family="Arial" font-size="0.14" text-anchor="middle" x="0" y="-0.381" fill="DarkGray">2235</text><text transform="translate(-11.5,-44) scale(1.1547 1)" font-family="Arial" font-size="0.14" text-anchor="middle" x="0" y="-0.381" fill="DarkGray">2236</text><text transform="translate(-11.5,-42) scale(1.1547 1)" font-family="Arial" font-size="0.14" text-anchor="middle" x="0" y="-0.381" fill="DarkGray">2238</text><text transform="translate(-11.5,-40) scale(1.1547 1)" font-family="Arial" font-size="0.14" text-anchor="middle" x="0" y="-0.381" fill="DarkGray">2240</text><text transform="translate(-10.5,-49.5) scale(1.1547 1)" font-family="Arial" font-size="0.14" text-anchor="middle" x="0" y="-0.381" fill="DarkGray">2331</text><text transform="translate(-10.5,-48.5) scale(1.1547 1)" font-family="Arial" font-size="0.14" text-anchor="middle" x="0" y="-0.381" fill="DarkGray">2332</text><text transform="translate(-10.5,-45.5) scale(1.1547 1)" font-family="Arial" font-size="0.14" text-anchor="middle" x="0" y="-0.381" fill="DarkGray">2335</text><text transform="translate(-10.5,-44.5) scale(1.1547 1)" font-family="Arial" font-size="0.14" text-anchor="middle" x="0" y="-0.381" fill="DarkGray">2336</text><text transform="translate(-10.5,-43.5) scale(1.1547 1)" font-family="Arial" font-size="0.14" text-anchor="middle" x="0" y="-0.381" fill="DarkGray">2337</text><text transform="translate(-10.5,-40.5) scale(1.1547 1)" font-family="Arial" font-size="0.14" text-anchor="middle" x="0" y="-0.381" fill="DarkGray">2340</text><text transform="translate(-9.5,-49) scale(1.1547 1)" font-family="Arial" font-size="0.14" text-anchor="middle" x="0" y="-0.381" fill="DarkGray">2431</text><text transform="translate(-9.5,-48) scale(1.1547 1)" font-family="Arial" font-size="0.14" text-anchor="middle" x="0" y="-0.381" fill="DarkGray">2432</text><text transform="translate(-9.5,-47) scale(1.1547 1)" font-family="Arial" font-size="0.14" text-anchor="middle" x="0" y="-0.381" fill="DarkGray">2433</text><text transform="translate(-9.5,-45) scale(1.1547 1)" font-family="Arial" font-size="0.14" text-anchor="middle" x="0" y="-0.381" fill="DarkGray">2435</text><text transform="translate(-9.5,-42) scale(1.1547 1)" font-family="Arial" font-size="0.14" text-anchor="middle" x="0" y="-0.381" fill="DarkGray">2438</text><text transform="translate(-9.5,-40) scale(1.1547 1)" font-family="Arial" font-size="0.14" text-anchor="middle" x="0" y="-0.381" fill="DarkGray">2440</text></g><g transform="translate(-16.5,-48.5) scale(1.1547 1)"><rect x="-0.107136" y="-0.35543" width="0.214273" height="0.260859" stroke="none" fill="White"/><text font-family="Arial" font-size="0.21" font-weight="bold" text-anchor="middle" x="0" y="-0.13575" fill="Black">E</text><circle r="0.1" cx="0" cy="0" stroke="none" fill="DeepSkyBlue"/><rect x="-0.425674" y="0.23957" width="0.851348" height="0.260859" stroke="none" fill="White"/><text font-family="Arial" font-size="0.21" font-weight="bold" text-anchor="middle" x="0" y="0.45925" fill="Black">Nikham</text></g><g transform="translate(-16.5,-46.5) scale(1.1547 1)"><circle transform="translate(0.25,-0.18)" r="0.05" cx="0" cy="0" stroke="none" fill="Black"/><rect x="-0.113084" y="-0.35543" width="0.226167" height="0.260859" stroke="none" fill="White"/><text font-family="Arial" font-size="0.21" font-weight="bold" text-anchor="middle" x="0" y="-0.13575" fill="Black">A</text><circle r="0.1" cx="0" cy="0" stroke="Black" stroke-width="0.015625" fill="White"/><rect x="-0.28135" y="0.23957" width="0.5627" height="0.260859" stroke="none" fill="White"/><text font-family="Arial" font-size="0.21" font-weight="bold" text-anchor="middle" x="0" y="0.45925" fill="Black">Miku</text></g><g transform="translate(-16.5,-45.5) scale(1.1547 1)"><circle transform="translate(0.25,-0.18)" r="0.05" cx="0" cy="0" stroke="none" fill="Black"/><rect x="-0.113084" y="-0.35543" width="0.226167" height="0.260859" stroke="none" fill="White"/><text font-family="Arial" font-size="0.21" font-weight="bold" text-anchor="middle" x="0" y="-0.13575" fill="Black">A</text><circle r="0.1" cx="0" cy="0" stroke="Black" stroke-width="0.015625" fill="White"/><rect x="-0.467612" y="0.23957" width="0.935225" height="0.260859" stroke="none" fill="White"/><text font-family="Arial" font-size="0.21" font-weight="bold" text-anchor="middle" x="0" y="0.45925" fill="Black">Zhinutar</text></g><g transform="translate(-16.5,-44.5) scale(1.1547 1)"><circle transform="translate(0.25,-0.18)" r="0.05" cx="0" cy="0" stroke="none" fill="Black"/><rect x="-0.113084" y="-0.35543" width="0.226167" height="0.260859" stroke="none" fill="White"/><text font-family="Arial" font-size="0.21" font-weight="bold" text-anchor="middle" x="0" y="-0.13575" fill="Black">C</text><text font-family="Arial Unicode MS,Segoe UI Symbol,Arial" font-size="0.21" font-weight="bold" text-anchor="middle" x="-0.25" y="0.26925" fill="Black">▲</text><circle r="0.1" cx="0" cy="0" stroke="none" fill="DeepSkyBlue"/><rect x="-0.233362" y="0.23957" width="0.466724" height="0.260859" stroke="none" fill="White"/><text font-family="Arial" font-size="0.21" font-weight="bold" text-anchor="middle" x="0" y="0.45925" fill="Black">Ake</text></g><g transform="translate(-16.5,-40.5) scale(1.1547 1)"><circle transform="translate(0.25,-0.18)" r="0.05" cx="0" cy="0" stroke="none" fill="Black"/><rect x="-0.113084" y="-0.35543" width="0.226167" height="0.260859" stroke="none" fill="White"/><text font-family="Arial" font-size="0.21" font-weight="bold" text-anchor="middle" x="0" y="-0.13575" fill="Black">D</text><text font-family="Arial Unicode MS,Segoe UI Symbol,Arial" font-size="0.21" font-weight="bold" text-anchor="middle" x="-0.25" y="0.26925" fill="Black">▲</text><circle r="0.1" cx="0" cy="0" stroke="none" fill="DeepSkyBlue"/><rect x="-0.683765" y="0.23957" width="1.36753" height="0.260859" stroke="none" fill="White"/><text font-family="Arial" font-size="0.21" font-weight="bold" text-anchor="middle" x="0" y="0.45925" fill="Black">GLANIDARN</text></g><g transform="translate(-15.5,-49) scale(1.1547 1)"><circle transform="translate(0.25,-0.18)" r="0.05" cx="0" cy="0" stroke="none" fill="Black"/><rect x="-0.113084" y="-0.35543" width="0.226167" height="0.260859" stroke="none" fill="White"/><text font-family="Arial" font-size="0.21" font-weight="bold" text-anchor="middle" x="0" y="-0.13575" fill="Black">C</text><circle r="0.1" cx="0" cy="0" stroke="none" fill="DeepSkyBlue"/><rect x="-0.371585" y="0.23957" width="0.743169" height="0.260859" stroke="none" fill="White"/><text font-family="Arial" font-size="0.21" font-weight="bold" text-anchor="middle" x="0" y="0.45925" fill="Black">Mekhe</text></g><g transform="translate(-15.5,-47) scale(1.1547 1)"><circle transform="translate(0.25,-0.18)" r="0.05" cx="0" cy="0" stroke="none" fill="Black"/><rect x="-0.113084" y="-0.35543" width="0.226167" height="0.260859" stroke="none" fill="White"/><text font-family="Arial" font-size="0.21" font-weight="bold" text-anchor="middle" x="0" y="-0.13575" fill="Black">B</text><text font-family="Arial Unicode MS,Segoe UI Symbol,Arial" font-size="0.21" font-weight="bold" text-anchor="middle" x="-0.25" y="-0.09075" fill="Black">★</text><circle r="0.1" cx="0" cy="0" stroke="none" fill="DeepSkyBlue"/><rect x="-0.329492" y="0.23957" width="0.658984" height="0.260859" stroke="none" fill="White"/><text font-family="Arial" font-size="0.21" font-weight="bold" text-anchor="middle" x="0" y="0.45925" fill="Black">Shadi</text></g><g transform="translate(-15.5,-41) scale(1.1547 1)"><circle transform="translate(0.25,-0.18)" r="0.05" cx="0" cy="0" stroke="none" fill="Black"/><rect x="-0.113084" y="-0.35543" width="0.226167" height="0.260859" stroke="none" fill="White"/><text font-family="Arial" font-size="0.21" font-weight="bold" text-anchor="middle" x="0" y="-0.13575" fill="Black">D</text><circle r="0.1" cx="0" cy="0" stroke="none" fill="DeepSkyBlue"/><rect x="-0.521753" y="0.23957" width="1.04351" height="0.260859" stroke="none" fill="White"/><text font-family="Arial" font-size="0.21" font-weight="bold" text-anchor="middle" x="0" y="0.45925" fill="Black">Kordanor</text></g><g transform="translate(-14.5,-49.5) scale(1.1547 1)"><circle transform="translate(0.25,-0.18)" r="0.05" cx="0" cy="0" stroke="none" fill="Black"/><rect x="-0.113084" y="-0.35543" width="0.226167" height="0.260859" stroke="none" fill="White"/><text font-family="Arial" font-size="0.21" font-weight="bold" text-anchor="middle" x="0" y="-0.13575" fill="Black">D</text><circle r="0.1" cx="0" cy="0" stroke="Black" stroke-width="0.015625" fill="White"/><rect x="-0.443618" y="0.23957" width="0.887236" height="0.260859" stroke="none" fill="White"/><text font-family="Arial" font-size="0.21" font-weight="bold" text-anchor="middle" x="0" y="0.45925" fill="Black">Shorlon</text></g><g transform="translate(-14.5,-48.5) scale(1.1547 1)"><circle transform="translate(0.25,-0.18)" r="0.05" cx="0" cy="0" stroke="none" fill="Black"/><rect x="-0.113084" y="-0.35543" width="0.226167" height="0.260859" stroke="none" fill="White"/><text font-family="Arial" font-size="0.21" font-weight="bold" text-anchor="middle" x="0" y="-0.13575" fill="Black">C</text><text font-family="Arial Unicode MS,Segoe UI Symbol,Arial" font-size="0.21" font-weight="bold" text-anchor="middle" x="-0.25" y="0.26925" fill="Black">▲</text><circle r="0.1" cx="0" cy="0" stroke="none" fill="DeepSkyBlue"/><rect x="-0.40168" y="0.23957" width="0.803359" height="0.260859" stroke="none" fill="White"/><text font-family="Arial" font-size="0.21" font-weight="bold" text-anchor="middle" x="0" y="0.45925" fill="Black">Sharan</text></g><g transform="translate(-14.5,-47.5) scale(1.1547 1)"><circle transform="translate(0.25,-0.18)" r="0.05" cx="0" cy="0" stroke="none" fill="Black"/><rect x="-0.113084" y="-0.35543" width="0.226167" height="0.260859" stroke="none" fill="White"/><text font-family="Arial" font-size="0.21" font-weight="bold" text-anchor="middle" x="0" y="-0.13575" fill="Black">C</text><circle r="0.1" cx="0" cy="0" stroke="none" fill="DeepSkyBlue"/><rect x="-0.395732" y="0.23957" width="0.791465" height="0.260859" stroke="none" fill="White"/><text font-family="Arial" font-size="0.21" font-weight="bold" text-anchor="middle" x="0" y="0.45925" fill="Black">Kaskar</text></g><g transform="translate(-14.5,-44.5) scale(1.1547 1)"><circle transform="translate(0.25,-0.18)" r="0.05" cx="0" cy="0" stroke="none" fill="Black"/><rect x="-0.107136" y="-0.35543" width="0.214273" height="0.260859" stroke="none" fill="White"/><text font-family="Arial" font-size="0.21" font-weight="bold" text-anchor="middle" x="0" y="-0.13575" fill="Black">E</text><circle r="0.1" cx="0" cy="0" stroke="Black" stroke-width="0.015625" fill="White"/><rect x="-0.329492" y="0.23957" width="0.658984" height="0.260859" stroke="none" fill="White"/><text font-family="Arial" font-size="0.21" font-weight="bold" text-anchor="middle" x="0" y="0.45925" fill="Black">Ekhin</text></g><g transform="translate(-14.5,-43.5) scale(1.1547 1)"><circle transform="translate(0.25,-0.18)" r="0.05" cx="0" cy="0" stroke="none" fill="Black"/><rect x="-0.113084" y="-0.35543" width="0.226167" height="0.260859" stroke="none" fill="White"/><text font-family="Arial" font-size="0.21" font-weight="bold" text-anchor="middle" x="0" y="-0.13575" fill="Black">A</text><text font-family="Arial Unicode MS,Segoe UI Symbol,Arial" font-size="0.21" font-weight="bold" text-anchor="middle" x="-0.25" y="-0.09075" fill="Black">★</text><circle r="0.1" cx="0" cy="0" stroke="Black" stroke-width="0.015625" fill="White"/><rect x="-0.43157" y="0.23957" width="0.86314" height="0.260859" stroke="none" fill="White"/><text font-family="Arial" font-size="0.21" font-weight="bold" text-anchor="middle" x="0" y="0.45925" fill="#E32736">Nulisud</text></g><g transform="translate(-13.5,-48) scale(1.1547 1)"><circle transform="translate(0.25,-0.18)" r="0.05" cx="0" cy="0" stroke="none" fill="Black"/><rect x="-0.113084" y="-0.35543" width="0.226167" height="0.260859" stroke="none" fill="White"/><text font-family="Arial" font-size="0.21" font-weight="bold" text-anchor="middle" x="0" y="-0.13575" fill="Black">C</text><circle r="0.1" cx="0" cy="0" stroke="none" fill="DeepSkyBlue"/><rect x="-0.455718" y="0.23957" width="0.911436" height="0.260859" stroke="none" fill="White"/><text font-family="Arial" font-size="0.21" font-weight="bold" text-anchor="middle" x="0" y="0.45925" fill="Black">Vuldaan</text></g><g transform="translate(-13.5,-45) scale(1.1547 1)"><circle transform="translate(0.25,-0.18)" r="0.05" cx="0" cy="0" stroke="none" fill="Black"/><rect x="-0.113084" y="-0.35543" width="0.226167" height="0.260859" stroke="none" fill="White"/><text font-family="Arial" font-size="0.21" font-weight="bold" text-anchor="middle" x="0" y="-0.13575" fill="Black">B</text><circle r="0.1" cx="0" cy="0" stroke="Black" stroke-width="0.015625" fill="White"/><rect x="-0.56969" y="0.23957" width="1.13938" height="0.260859" stroke="none" fill="White"/><text font-family="Arial" font-size="0.21" font-weight="bold" text-anchor="middle" x="0" y="0.45925" fill="Black">HYKLUITT</text></g><g transform="translate(-13.5,-44) scale(1.1547 1)"><rect x="-0.113084" y="-0.35543" width="0.226167" height="0.260859" stroke="none" fill="White"/><text font-family="Arial" font-size="0.21" font-weight="bold" text-anchor="middle" x="0" y="-0.13575" fill="Black">C</text><text font-family="Arial Unicode MS,Segoe UI Symbol,Arial" font-size="0.21" font-weight="bold" text-anchor="middle" x="-0.25" y="0.26925" fill="Black">▲</text><circle r="0.1" cx="0" cy="0" stroke="Black" stroke-width="0.015625" fill="White"/><rect x="-0.467715" y="0.23957" width="0.93543" height="0.260859" stroke="none" fill="White"/><text font-family="Arial" font-size="0.21" font-weight="bold" text-anchor="middle" x="0" y="0.45925" fill="Black">Diinagar</text></g><g transform="translate(-13.5,-41) scale(1.1547 1)"><rect x="-0.113084" y="-0.35543" width="0.226167" height="0.260859" stroke="none" fill="White"/><text font-family="Arial" font-size="0.21" font-weight="bold" text-anchor="middle" x="0" y="-0.13575" fill="Black">B</text><circle r="0.1" cx="0" cy="0" stroke="none" fill="DeepSkyBlue"/><rect x="-0.395579" y="0.23957" width="0.791157" height="0.260859" stroke="none" fill="White"/><text font-family="Arial" font-size="0.21" font-weight="bold" text-anchor="middle" x="0" y="0.45925" fill="Black">Miizam</text></g><g transform="translate(-12.5,-48.5) scale(1.1547 1)"><rect x="-0.113084" y="-0.35543" width="0.226167" height="0.260859" stroke="none" fill="White"/><text font-family="Arial" font-size="0.21" font-weight="bold" text-anchor="middle" x="0" y="-0.13575" fill="Black">B</text><text font-family="Arial Unicode MS,Segoe UI Symbol,Arial" font-size="0.21" font-weight="bold" text-anchor="middle" x="-0.25" y="-0.09075" fill="Black">★</text><text font-family="Arial Unicode MS,Segoe UI Symbol,Arial" font-size="0.21" font-weight="bold" text-anchor="middle" x="-0.25" y="0.26925" fill="Black">▲</text><circle r="0.1" cx="0" cy="0" stroke="none" fill="DeepSkyBlue"/><rect x="-0.413626" y="0.23957" width="0.827251" height="0.260859" stroke="none" fill="White"/><text font-family="Arial" font-size="0.21" font-weight="bold" text-anchor="middle" x="0" y="0.45925" fill="Black">Imshiig</text></g><g transform="translate(-12.5,-47.5) scale(1.1547 1)"><rect x="-0.113084" y="-0.35543" width="0.226167" height="0.260859" stroke="none" fill="White"/><text font-family="Arial" font-size="0.21" font-weight="bold" text-anchor="middle" x="0" y="-0.13575" fill="Black">D</text><circle r="0.1" cx="0" cy="0" stroke="none" fill="DeepSkyBlue"/><rect x="-0.32939" y="0.23957" width="0.658779" height="0.260859" stroke="none" fill="White"/><text font-family="Arial" font-size="0.21" font-weight="bold" text-anchor="middle" x="0" y="0.45925" fill="Black">Iddun</text></g><g transform="translate(-12.5,-46.5) scale(1.1547 1)"><rect x="-0.113084" y="-0.35543" width="0.226167" height="0.260859" stroke="none" fill="White"/><text font-family="Arial" font-size="0.21" font-weight="bold" text-anchor="middle" x="0" y="-0.13575" fill="Black">C</text><text font-family="Arial Unicode MS,Segoe UI Symbol,Arial" font-size="0.21" font-weight="bold" text-anchor="middle" x="-0.25" y="0.26925" fill="Black">▲</text><circle r="0.1" cx="0" cy="0" stroke="none" fill="DeepSkyBlue"/><rect x="-0.34759" y="0.23957" width="0.695181" height="0.260859" stroke="none" fill="White"/><text font-family="Arial" font-size="0.21" font-weight="bold" text-anchor="middle" x="0" y="0.45925" fill="Black">Zemal</text></g><g transform="translate(-12.5,-43.5) scale(1.1547 1)"><circle transform="translate(0.25,-0.18)" r="0.05" cx="0" cy="0" stroke="none" fill="Black"/><rect x="-0.107136" y="-0.35543" width="0.214273" height="0.260859" stroke="none" fill="White"/><text font-family="Arial" font-size="0.21" font-weight="bold" text-anchor="middle" x="0" y="-0.13575" fill="Black">E</text><circle r="0.1" cx="0" cy="0" stroke="Black" stroke-width="0.015625" fill="White"/><rect x="-0.35364" y="0.23957" width="0.70728" height="0.260859" stroke="none" fill="White"/><text font-family="Arial" font-size="0.21" font-weight="bold" text-anchor="middle" x="0" y="0.45925" fill="Black">Shaka</text></g><g transform="translate(-12.5,-42.5) scale(1.1547 1)"><circle transform="translate(0.25,-0.18)" r="0.05" cx="0" cy="0" stroke="none" fill="Black"/><rect x="-0.113084" y="-0.35543" width="0.226167" height="0.260859" stroke="none" fill="White"/><text font-family="Arial" font-size="0.21" font-weight="bold" text-anchor="middle" x="0" y="-0.13575" fill="Black">B</text><circle r="0.1" cx="0" cy="0" stroke="none" fill="DeepSkyBlue"/><rect x="-0.509653" y="0.23957" width="1.01931" height="0.260859" stroke="none" fill="White"/><text font-family="Arial" font-size="0.21" font-weight="bold" text-anchor="middle" x="0" y="0.45925" fill="Black">ISTUARY</text></g><g transform="translate(-12.5,-41.5) scale(1.1547 1)"><circle transform="translate(0.25,-0.18)" r="0.05" cx="0" cy="0" stroke="none" fill="Black"/><rect x="-0.113084" y="-0.35543" width="0.226167" height="0.260859" stroke="none" fill="White"/><text font-family="Arial" font-size="0.21" font-weight="bold" text-anchor="middle" x="0" y="-0.13575" fill="Black">C</text><circle r="0.1" cx="0" cy="0" stroke="none" fill="DeepSkyBlue"/><rect x="-0.263303" y="0.23957" width="0.526606" height="0.260859" stroke="none" fill="White"/><text font-family="Arial" font-size="0.21" font-weight="bold" text-anchor="middle" x="0" y="0.45925" fill="Black">Zolo</text></g><g transform="translate(-11.5,-48) scale(1.1547 1)"><rect x="-0.113084" y="-0.35543" width="0.226167" height="0.260859" stroke="none" fill="White"/><text font-family="Arial" font-size="0.21" font-weight="bold" text-anchor="middle" x="0" y="-0.13575" fill="Black">B</text><text font-family="Arial Unicode MS,Segoe UI Symbol,Arial" font-size="0.21" font-weight="bold" text-anchor="middle" x="-0.25" y="0.26925" fill="Black">▲</text><circle r="0.1" cx="0" cy="0" stroke="none" fill="DeepSkyBlue"/><rect x="-0.50386" y="0.23957" width="1.00772" height="0.260859" stroke="none" fill="White"/><text font-family="Arial" font-size="0.21" font-weight="bold" text-anchor="middle" x="0" y="0.45925" fill="Black">Gikarlum</text></g><g transform="translate(-11.5,-47) scale(1.1547 1)"><circle transform="translate(0.25,-0.18)" r="0.05" cx="0" cy="0" stroke="none" fill="Black"/><rect x="-0.113084" y="-0.35543" width="0.226167" height="0.260859" stroke="none" fill="White"/><text font-family="Arial" font-size="0.21" font-weight="bold" text-anchor="middle" x="0" y="-0.13575" fill="Black">D</text><text font-family="Arial Unicode MS,Segoe UI Symbol,Arial" font-size="0.21" font-weight="bold" text-anchor="middle" x="-0.25" y="0.26925" fill="Black">▲</text><circle r="0.1" cx="0" cy="0" stroke="none" fill="DeepSkyBlue"/><rect x="-0.479661" y="0.23957" width="0.959321" height="0.260859" stroke="none" fill="White"/><text font-family="Arial" font-size="0.21" font-weight="bold" text-anchor="middle" x="0" y="0.45925" fill="Black">SEGIKIN</text></g><g transform="translate(-11.5,-45) scale(1.1547 1)"><circle transform="translate(0.25,-0.18)" r="0.05" cx="0" cy="0" stroke="none" fill="Black"/><rect x="-0.107136" y="-0.35543" width="0.214273" height="0.260859" stroke="none" fill="White"/><text font-family="Arial" font-size="0.21" font-weight="bold" text-anchor="middle" x="0" y="-0.13575" fill="Black">E</text><circle r="0.1" cx="0" cy="0" stroke="Black" stroke-width="0.015625" fill="White"/><rect x="-0.365483" y="0.23957" width="0.730967" height="0.260859" stroke="none" fill="White"/><text font-family="Arial" font-size="0.21" font-weight="bold" text-anchor="middle" x="0" y="0.45925" fill="Black">Rishin</text></g><g transform="translate(-11.5,-44) scale(1.1547 1)"><circle transform="translate(0.25,-0.18)" r="0.05" cx="0" cy="0" stroke="none" fill="Black"/><rect x="-0.107136" y="-0.35543" width="0.214273" height="0.260859" stroke="none" fill="White"/><text font-family="Arial" font-size="0.21" font-weight="bold" text-anchor="middle" x="0" y="-0.13575" fill="Black">E</text><circle r="0.1" cx="0" cy="0" stroke="none" fill="DeepSkyBlue"/><rect x="-0.377634" y="0.23957" width="0.755269" height="0.260859" stroke="none" fill="White"/><text font-family="Arial" font-size="0.21" font-weight="bold" text-anchor="middle" x="0" y="0.45925" fill="Black">Gaarid</text></g><g transform="translate(-11.5,-42) scale(1.1547 1)"><circle transform="translate(0.25,-0.18)" r="0.05" cx="0" cy="0" stroke="none" fill="Black"/><rect x="-0.113084" y="-0.35543" width="0.226167" height="0.260859" stroke="none" fill="White"/><text font-family="Arial" font-size="0.21" font-weight="bold" text-anchor="middle" x="0" y="-0.13575" fill="Black">B</text><circle r="0.1" cx="0" cy="0" stroke="none" fill="DeepSkyBlue"/><rect x="-0.437568" y="0.23957" width="0.875137" height="0.260859" stroke="none" fill="White"/><text font-family="Arial" font-size="0.21" font-weight="bold" text-anchor="middle" x="0" y="0.45925" fill="Black">Khugan</text></g><g transform="translate(-11.5,-40) scale(1.1547 1)"><rect x="-0.113084" y="-0.35543" width="0.226167" height="0.260859" stroke="none" fill="White"/><text font-family="Arial" font-size="0.21" font-weight="bold" text-anchor="middle" x="0" y="-0.13575" fill="Black">B</text><text font-family="Arial Unicode MS,Segoe UI Symbol,Arial" font-size="0.21" font-weight="bold" text-anchor="middle" x="-0.25" y="-0.09075" fill="Black">★</text><circle r="0.1" cx="0" cy="0" stroke="none" fill="DeepSkyBlue"/><rect x="-0.341541" y="0.23957" width="0.683081" height="0.260859" stroke="none" fill="White"/><text font-family="Arial" font-size="0.21" font-weight="bold" text-anchor="middle" x="0" y="0.45925" fill="Black">Bakor</text></g><g transform="translate(-10.5,-49.5) scale(1.1547 1)"><circle transform="translate(0.25,-0.18)" r="0.05" cx="0" cy="0" stroke="none" fill="Black"/><rect x="-0.113084" y="-0.35543" width="0.226167" height="0.260859" stroke="none" fill="White"/><text font-family="Arial" font-size="0.21" font-weight="bold" text-anchor="middle" x="0" y="-0.13575" fill="Black">C</text><circle r="0.1" cx="0" cy="0" stroke="none" fill="DeepSkyBlue"/><rect x="-0.629932" y="0.23957" width="1.25986" height="0.260859" stroke="none" fill="White"/><text font-family="Arial" font-size="0.21" font-weight="bold" text-anchor="middle" x="0" y="0.45925" fill="Black">Aaluggidira</text></g><g transform="translate(-10.5,-48.5) scale(1.1547 1)"><circle transform="translate(0.25,-0.18)" r="0.05" cx="0" cy="0" stroke="none" fill="Black"/><rect x="-0.113084" y="-0.35543" width="0.226167" height="0.260859" stroke="none" fill="White"/><text font-family="Arial" font-size="0.21" font-weight="bold" text-anchor="middle" x="0" y="-0.13575" fill="Black">D</text><circle r="0.1" cx="0" cy="0" stroke="none" fill="DeepSkyBlue"/><rect x="-0.690276" y="0.23957" width="1.38055" height="0.260859" stroke="none" fill="White"/><text font-family="Arial" font-size="0.21" font-weight="bold" text-anchor="middle" x="0" y="0.45925" fill="Black">Zaakkusham</text></g><g transform="translate(-10.5,-45.5) scale(1.1547 1)"><circle transform="translate(0.25,-0.18)" r="0.05" cx="0" cy="0" stroke="none" fill="Black"/><rect x="-0.113084" y="-0.35543" width="0.226167" height="0.260859" stroke="none" fill="White"/><text font-family="Arial" font-size="0.21" font-weight="bold" text-anchor="middle" x="0" y="-0.13575" fill="Black">B</text><text font-family="Arial Unicode MS,Segoe UI Symbol,Arial" font-size="0.21" font-weight="bold" text-anchor="middle" x="-0.25" y="-0.09075" fill="Black">★</text><circle r="0.1" cx="0" cy="0" stroke="none" fill="DeepSkyBlue"/><rect x="-0.479609" y="0.23957" width="0.959219" height="0.260859" stroke="none" fill="White"/><text font-family="Arial" font-size="0.21" font-weight="bold" text-anchor="middle" x="0" y="0.45925" fill="Black">Miiliinlur</text></g><g transform="translate(-10.5,-44.5) scale(1.1547 1)"><circle transform="translate(0.25,-0.18)" r="0.05" cx="0" cy="0" stroke="none" fill="Black"/><rect x="-0.113084" y="-0.35543" width="0.226167" height="0.260859" stroke="none" fill="White"/><text font-family="Arial" font-size="0.21" font-weight="bold" text-anchor="middle" x="0" y="-0.13575" fill="Black">A</text><text font-family="Arial Unicode MS,Segoe UI Symbol,Arial" font-size="0.21" font-weight="bold" text-anchor="middle" x="-0.25" y="-0.09075" fill="Black">★</text><circle r="0.1" cx="0" cy="0" stroke="none" fill="DeepSkyBlue"/><rect x="-0.341387" y="0.23957" width="0.682773" height="0.260859" stroke="none" fill="White"/><text font-family="Arial" font-size="0.21" font-weight="bold" text-anchor="middle" x="0" y="0.45925" fill="Black">Kunni</text></g><g transform="translate(-10.5,-43.5) scale(1.1547 1)"><circle transform="translate(0.25,-0.18)" r="0.05" cx="0" cy="0" stroke="none" fill="Black"/><rect x="-0.113084" y="-0.35543" width="0.226167" height="0.260859" stroke="none" fill="White"/><text font-family="Arial" font-size="0.21" font-weight="bold" text-anchor="middle" x="0" y="-0.13575" fill="Black">A</text><text font-family="Arial Unicode MS,Segoe UI Symbol,Arial" font-size="0.21" font-weight="bold" text-anchor="middle" x="-0.25" y="-0.09075" fill="Black">★</text><circle r="0.1" cx="0" cy="0" stroke="none" fill="DeepSkyBlue"/><rect x="-0.161174" y="0.23957" width="0.322349" height="0.260859" stroke="none" fill="White"/><text font-family="Arial" font-size="0.21" font-weight="bold" text-anchor="middle" x="0" y="0.45925" fill="Black">Idi</text></g><g transform="translate(-10.5,-40.5) scale(1.1547 1)"><rect x="-0.107136" y="-0.35543" width="0.214273" height="0.260859" stroke="none" fill="White"/><text font-family="Arial" font-size="0.21" font-weight="bold" text-anchor="middle" x="0" y="-0.13575" fill="Black">E</text><circle r="0.1" cx="0" cy="0" stroke="none" fill="DeepSkyBlue"/><rect x="-0.353538" y="0.23957" width="0.707075" height="0.260859" stroke="none" fill="White"/><text font-family="Arial" font-size="0.21" font-weight="bold" text-anchor="middle" x="0" y="0.45925" fill="Black">Orguk</text></g><g transform="translate(-9.5,-49) scale(1.1547 1)"><circle transform="translate(0.25,-0.18)" r="0.05" cx="0" cy="0" stroke="none" fill="Black"/><rect x="-0.113084" y="-0.35543" width="0.226167" height="0.260859" stroke="none" fill="White"/><text font-family="Arial" font-size="0.21" font-weight="bold" text-anchor="middle" x="0" y="-0.13575" fill="Black">B</text><text font-family="Arial Unicode MS,Segoe UI Symbol,Arial" font-size="0.21" font-weight="bold" text-anchor="middle" x="-0.25" y="0.26925" fill="Black">▲</text><circle r="0.1" cx="0" cy="0" stroke="none" fill="DeepSkyBlue"/><rect x="-0.593787" y="0.23957" width="1.18757" height="0.260859" stroke="none" fill="White"/><text font-family="Arial" font-size="0.21" font-weight="bold" text-anchor="middle" x="0" y="0.45925" fill="Black">DUSEKHIP</text></g><g transform="translate(-9.5,-48) scale(1.1547 1)"><circle transform="translate(0.25,-0.18)" r="0.05" cx="0" cy="0" stroke="none" fill="Black"/><rect x="-0.113084" y="-0.35543" width="0.226167" height="0.260859" stroke="none" fill="White"/><text font-family="Arial" font-size="0.21" font-weight="bold" text-anchor="middle" x="0" y="-0.13575" fill="Black">B</text><text font-family="Arial Unicode MS,Segoe UI Symbol,Arial" font-size="0.21" font-weight="bold" text-anchor="middle" x="-0.25" y="-0.09075" fill="Black">★</text><circle r="0.1" cx="0" cy="0" stroke="none" fill="DeepSkyBlue"/><rect x="-0.317444" y="0.23957" width="0.634888" height="0.260859" stroke="none" fill="White"/><text font-family="Arial" font-size="0.21" font-weight="bold" text-anchor="middle" x="0" y="0.45925" fill="Black">Korm</text></g><g transform="translate(-9.5,-47) scale(1.1547 1)"><rect x="-0.113084" y="-0.35543" width="0.226167" height="0.260859" stroke="none" fill="White"/><text font-family="Arial" font-size="0.21" font-weight="bold" text-anchor="middle" x="0" y="-0.13575" fill="Black">C</text><circle r="0.1" cx="0" cy="0" stroke="Black" stroke-width="0.015625" fill="White"/><rect x="-0.726165" y="0.23957" width="1.45233" height="0.260859" stroke="none" fill="White"/><text font-family="Arial" font-size="0.21" font-weight="bold" text-anchor="middle" x="0" y="0.45925" fill="Black">Ashuugakher</text></g><g transform="translate(-9.5,-45) scale(1.1547 1)"><rect x="-0.107136" y="-0.35543" width="0.214273" height="0.260859" stroke="none" fill="White"/><text font-family="Arial" font-size="0.21" font-weight="bold" text-anchor="middle" x="0" y="-0.13575" fill="Black">E</text><circle r="0.1" cx="0" cy="0" stroke="none" fill="DeepSkyBlue"/><rect x="-0.13113" y="0.23957" width="0.262261" height="0.260859" stroke="none" fill="White"/><text font-family="Arial" font-size="0.21" font-weight="bold" text-anchor="middle" x="0" y="0.45925" fill="Black">Li</text></g><g transform="translate(-9.5,-42) scale(1.1547 1)"><circle transform="translate(0.25,-0.18)" r="0.05" cx="0" cy="0" stroke="none" fill="Black"/><rect x="-0.113084" y="-0.35543" width="0.226167" height="0.260859" stroke="none" fill="White"/><text font-family="Arial" font-size="0.21" font-weight="bold" text-anchor="middle" x="0" y="-0.13575" fill="Black">A</text><circle r="0.1" cx="0" cy="0" stroke="none" fill="DeepSkyBlue"/><rect x="-0.365637" y="0.23957" width="0.731274" height="0.260859" stroke="none" fill="White"/><text font-family="Arial" font-size="0.21" font-weight="bold" text-anchor="middle" x="0" y="0.45925" fill="Black">Shakir</text></g><g transform="translate(-9.5,-40) scale(1.1547 1)"><rect x="-0.113084" y="-0.35543" width="0.226167" height="0.260859" stroke="none" fill="White"/><text font-family="Arial" font-size="0.21" font-weight="bold" text-anchor="middle" x="0" y="-0.13575" fill="Black">C</text><text font-family="Arial Unicode MS,Segoe UI Symbol,Arial" font-size="0.21" font-weight="bold" text-anchor="middle" x="-0.25" y="0.26925" fill="Black">▲</text><circle r="0.1" cx="0" cy="0" stroke="none" fill="DeepSkyBlue"/><rect x="-0.660027" y="0.23957" width="1.32005" height="0.260859" stroke="none" fill="White"/><text font-family="Arial" font-size="0.21" font-weight="bold" text-anchor="middle" x="0" y="0.45925" fill="Black">Shuurdiikha</text></g></g></svg>