<?xml version = "1.0" encoding="utf-8"?>
<svg version="1.1" baseProfile="full" xmlns="http://www.w3.org/2000/svg" xmlns:xlink="http://www.w3.org/1999/xlink" width="471" height="684" viewBox="0 0 471 684" clip="0 471 0 684"><defs><clipPath id="did1"><rect x="-25.25" y="-80.1" width="8.5" height="10.7"/></clipPath><clipPath id="did2"><path d="M-33.8333,-75.5l-0.333336,-0.5l0.333336,-0.5h0.666664l0.333336,-0.5l-0.333336,-0.5l0.333336,-0.5l-0.333336,-0.5l0.333336,-0.5l-0.333336,-0.5l0.333336,-0.5h0.666664l0.333334,0.5h0.666668l0.333332,0.5h0.666668l0.333332,0.5h0.666668l0.333332,-0.5h0.666668l0.333332,-0.5h0.666668l0.333332,0.5l-0.333332,0.5l0.333332,0.5l-0.333332,0.5l0.333332,0.5l-0.333332,0.5l0.333332,0.5h0.666668l0.333332,0.5h0.666668l0.333332,0.5h0.666668l0.333332,0.5h0.666668l0.333332,0.5h0.666668l0.333332,-0.5h0.666668l0.333332,-0.5h0.666668l0.333332,-0.5h0.666668l0.333332,-0.5h0.666668l0.333332,0.5h0.666668l0.333332,-0.5h0.666668l0.333333,0.5h0.666666l0.333334,0.5h0.666666l0.333334,-0.5h0.666666l0.333334,-0.5h0.666666l0.333334,0.5h0.666666l0.333334,0.5h0.666666l0.333334,0.5h0.666666l0.333334,-0.5h0.666666l0.333334,-0.5h0.666667l0.333333,0.5h0.666667l0.333333,-0.5h0.666667l0.333333,-0.5h0.666667l0.333333,0.5h0.666667l0.333334,0.5h0.666667l0.333334,-0.5h0.666667l0.333333,-0.5h0.666667l0.333333,0.5l-0.333333,0.5l0.333333,0.5l-0.333333,0.5l0.333333,0.5l-0.333333,0.5l0.333333,0.5l-0.333333,0.5l0.333333,0.5l-0.333333,0.5l0.333333,0.5l-0.333333,0.5l0.333333,0.5l-0.333333,0.5l0.333333,0.5l-0.333333,0.5l0.333333,0.5l-0.333333,0.5l0.333333,0.5l-0.333333,0.5l0.333333,0.5l-0.333333,0.5l0.333333,0.5l-0.333333,0.5l0.333333,0.5l-0.333333,0.5l0.333333,0.5l-0.333333,0.5l0.333333,0.5l-0.333333,0.5l0.333333,0.5l-0.333333,0.5l0.333333,0.5l-0.333333,0.5l0.333333,0.5l-0.333333,0.5l0.333333,0.5l-0.333333,0.5l0.333333,0.5l-0.333333,0.5l0.333333,0.5l-0.333333,0.5l0.333333,0.5l-0.333333,0.5l0.333333,0.5l-0.333333,0.5l0.333333,0.5l-0.333333,0.5l0.333333,0.5l-0.333333,0.5l0.333333,0.5l-0.333333,0.5l0.333333,0.5l-0.333333,0.5l0.333333,0.5l-0.333333,0.5l0.333333,0.5l-0.333333,0.5l0.333333,0.5l-0.333333,0.5l0.333333,0.5l-0.333333,0.5l0.333333,0.5l-0.333333,0.5l0.333333,0.5l-0.333333,0.5l0.333333,0.5l-0.333333,0.5l0.333333,0.5l-0.333333,0.5l0.333333,0.5l-0.333333,0.5l0.333333,0.5l-0.333333,0.5h-0.666667l-0.333333,0.5h-0.666667l-0.333334,-0.5h-0.666667l-0.333334,0.5h-0.666667l-0.333333,-0.5h-0.666667l-0.333333,0.5h-0.666667l-0.333333,-0.5h-0.666667l-0.333333,0.5h-0.666667l-0.333334,-0.5h-0.666666l-0.333334,0.5h-0.666666l-0.333334,-0.5h-0.666666l-0.333334,0.5h-0.666666l-0.333334,-0.5h-0.666666l-0.333334,0.5h-0.666666l-0.333334,-0.5h-0.666666l-0.333334,0.5h-0.666666l-0.333333,-0.5h-0.666668l-0.333332,0.5h-0.666668l-0.333332,-0.5h-0.666668l-0.333332,0.5h-0.666668l-0.333332,-0.5h-0.666668l-0.333332,0.5h-0.666668l-0.333332,-0.5h-0.666668l-0.333332,0.5h-0.666668l-0.333332,-0.5h-0.666668l-0.333332,0.5h-0.666668l-0.333332,-0.5h-0.666668l-0.333332,0.5h-0.666668l-0.333332,-0.5h-0.666668l-0.333332,0.5h-0.666668l-0.333332,-0.5h-0.666668l-0.333332,0.5h-0.666668l-0.333334,-0.5h-0.666664l-0.333336,0.5h-0.666664l-0.333336,-0.5l0.333336,-0.5l-0.333336,-0.5l0.333336,-0.5l-0.333336,-0.5l0.333336,-0.5l-0.333336,-0.5l0.333336,-0.5l-0.333336,-0.5l0.333336,-0.5l-0.333336,-0.5l0.333336,-0.5l-0.333336,-0.5l0.333336,-0.5l-0.333336,-0.5l0.333336,-0.5l-0.333336,-0.5l0.333336,-0.5l-0.333336,-0.5l0.333336,-0.5l-0.333336,-0.5l0.333336,-0.5l-0.333336,-0.5l0.333336,-0.5l-0.333336,-0.5l0.333336,-0.5h0.666664l0.333336,0.5l-0.333336,0.5l0.333336,0.5h0.666664l0.333334,0.5h0.666668l0.333332,-0.5h0.666668l0.333332,-0.5h0.666668l0.333332,-0.5h0.666668l0.333332,0.5h0.666668l0.333332,-0.5h0.666668l0.333332,-0.5h0.666668l0.333332,-0.5l-0.333332,-0.5l0.333332,-0.5l-0.333332,-0.5l0.333332,-0.5l-0.333332,-0.5l0.333332,-0.5l-0.333332,-0.5l0.333332,-0.5l-0.333332,-0.5h-0.666668l-0.333332,-0.5h-0.666668l-0.333332,-0.5h-0.666668l-0.333332,-0.5h-0.666668l-0.333332,0.5h-0.666668l-0.333332,-0.5h-0.666668l-0.333332,-0.5h-0.666668l-0.333334,-0.5l0.333334,-0.5h0.666668l0.333332,-0.5h0.666668l0.333332,-0.5h0.666668l0.333332,-0.5h0.666668l0.333332,-0.5h0.666668l0.333332,0.5h0.666668l0.333332,0.5h0.666668l0.333332,0.5h0.666668l0.333332,-0.5h0.666668l0.333332,-0.5l-0.333332,-0.5l0.333332,-0.5l-0.333332,-0.5l0.333332,-0.5l-0.333332,-0.5l0.333332,-0.5l-0.333332,-0.5l0.333332,-0.5l-0.333332,-0.5l0.333332,-0.5l-0.333332,-0.5l0.333332,-0.5l-0.333332,-0.5h-0.666668l-0.333332,-0.5h-0.666668l-0.333332,-0.5h-0.666668l-0.333332,-0.5h-0.666668l-0.333332,-0.5h-0.666668l-0.333332,-0.5h-0.666668l-0.333332,0.5h-0.666668l-0.333332,0.5h-0.666668l-0.333332,0.5h-0.666668l-0.333334,-0.5l0.333334,-0.5l-0.333334,-0.5h-0.666664l-0.333336,-0.5h-0.666664l-0.333336,-0.5l0.333336,-0.5l-0.333336,-0.5l0.333336,-0.5l-0.333336,-0.5l0.333336,-0.5l-0.333336,-0.5l0.333336,-0.5l-0.333336,-0.5Z"/></clipPath><clipPath id="did3"><rect x="-25.25" y="-80.1" width="8.5" height="10.7"/></clipPath><clipPath id="did4"><rect x="-25.25" y="-80.1" width="8.5" height="10.7"/></clipPath></defs><g fill="None" stroke="None" transform="matrix(1,0,0,1,0,0) matrix(55.4256,0,0,64,1399.5,5126.4)"><g clip-path="url(#did1)"><rect x="-26.1" y="-81.17" width="10.2" height="12.84" stroke="none" fill="White"/><path d="M-27.1667,-81.5v0l0.333332,0.5h0.666668l0.333332,-0.5" stroke="#808080" stroke-width="0.015625" fill="none"/><path d="M-27.1667,-80.5v0l0.333332,0.5h0.666668l0.333332,-0.5" stroke="#808080" stroke-width="0.015625" fill="none"/><path d="M-27.1667,-79.5v0l0.333332,0.5h0.666668l0.333332,-0.5" stroke="#808080" stroke-width="0.015625" fill="none"/><path d="M-27.1667,-78.5v0l0.333332,0.5h0.666668l0.333332,-0.5" stroke="#808080" stroke-width="0.015625" fill="none"/><path d="M-27.1667,-77.5v0l0.333332,0.5h0.666668l0.333332,-0.5" stroke="#808080" stroke-width="0.015625" fill="none"/><path d="M-27.1667,-76.5v0l0.333332,0.5h0.666668l0.333332,-0.5" stroke="#808080" stroke-width="0.015625" fill="none"/><path d="M-27.1667,-75.5v0l0.333332,0.5h0.666668l0.333332,-0.5" stroke="#808080" stroke-width="0.015625" fill="none"/><path d="M-27.1667,-74.5v0l0.333332,0.5h0.666668l0.333332,-0.5" stroke="#808080" stroke-width="0.015625" fill="none"/><path d="M-27.1667,-73.5v0l0.333332,0.5h0.666668l0.333332,-0.5" stroke="#808080" stroke-width="0.015625" fill="none"/><path d="M-27.1667,-72.5v0l0.333332,0.5h0.666668l0.333332,-0.5" stroke="#808080" stroke-width="0.015625" fill="none"/><path d="M-27.1667,-71.5v0l0.333332,0.5h0.666668l0.333332,-0.5" stroke="#808080" stroke-width="0.015625" fill="none"/><path d="M-27.1667,-70.5v0l0.333332,0.5h0.666668l0.333332,-0.5" stroke="#808080" stroke-width="0.015625" fill="none"/><path d="M-27.1667,-69.5v0l0.333332,0.5h0.666668l0.333332,-0.5" stroke="#808080" stroke-width="0.015625" fill="none"/><path d="M-26.1667,-81v0l0.333332,0.5h0.666668l0.333332,-0.5" stroke="#808080" stroke-width="0.015625" fill="none"/><path d="M-26.1667,-80v0l0.333332,0.5h0.666668l0.333332,-0.5" stroke="#808080" stroke-width="0.015625" fill="none"/><path d="M-26.1667,-79v0l0.333332,0.5h0.666668l0.333332,-0.5" stroke="#808080" stroke-width="0.015625" fill="none"/><path d="M-26.1667,-78v0l0.333332,0.5h0.666668l0.333332,-0.5" stroke="#808080" stroke-width="0.015625" fill="none"/><path d="M-26.1667,-77v0l0.333332,0.5h0.666668l0.333332,-0.5" stroke="#808080" stroke-width="0.015625" fill="none"/><path d="M-26.1667,-76v0l0.333332,0.5h0.666668l0.333332,-0.5" stroke="#808080" stroke-width="0.015625" fill="none"/><path d="M-26.1667,-75v0l0.333332,0.5h0.666668l0.333332,-0.5" stroke="#808080" stroke-width="0.015625" fill="none"/><path d="M-26.1667,-74v0l0.333332,0.5h0.666668l0.333332,-0.5" stroke="#808080" stroke-width="0.015625" fill="none"/><path d="M-26.1667,-73v0l0.333332,0.5h0.666668l0.333332,-0.5" stroke="#808080" stroke-width="0.015625" fill="none"/><path d="M-26.1667,-72v0l0.333332,0.5h0.666668l0.333332,-0.5" stroke="#808080" stroke-width="0.015625" fill="none"/><path d="M-26.1667,-71v0l0.333332,0.5h0.666668l0.333332,-0.5" stroke="#808080" stroke-width="0.015625" fill="none"/><path d="M-26.1667,-70v0l0.333332,0.5h0.666668l0.333332,-0.5" stroke="#808080" stroke-width="0.015625" fill="none"/><path d="M-26.1667,-69v0l0.333332,0.5h0.666668l0.333332,-0.5" stroke="#808080" stroke-width="0.015625" fill="none"/><path d="M-25.1667,-81.5v0l0.333332,0.5h0.666668l0.333332,-0.5" stroke="#808080" stroke-width="0.015625" fill="none"/><path d="M-25.1667,-80.5v0l0.333332,0.5h0.666668l0.333332,-0.5" stroke="#808080" stroke-width="0.015625" fill="none"/><path d="M-25.1667,-79.5v0l0.333332,0.5h0.666668l0.333332,-0.5" stroke="#808080" stroke-width="0.015625" fill="none"/><path d="M-25.1667,-78.5v0l0.333332,0.5h0.666668l0.333332,-0.5" stroke="#808080" stroke-width="0.015625" fill="none"/><path d="M-25.1667,-77.5v0l0.333332,0.5h0.666668l0.333332,-0.5" stroke="#808080" stroke-width="0.015625" fill="none"/><path d="M-25.1667,-76.5v0l0.333332,0.5h0.666668l0.333332,-0.5" stroke="#808080" stroke-width="0.015625" fill="none"/><path d="M-25.1667,-75.5v0l0.333332,0.5h0.666668l0.333332,-0.5" stroke="#808080" stroke-width="0.015625" fill="none"/><path d="M-25.1667,-74.5v0l0.333332,0.5h0.666668l0.333332,-0.5" stroke="#808080" stroke-width="0.015625" fill="none"/><path d="M-25.1667,-73.5v0l0.333332,0.5h0.666668l0.333332,-0.5" stroke="#808080" stroke-width="0.015625" fill="none"/><path d="M-25.1667,-72.5v0l0.333332,0.5h0.666668l0.333332,-0.5" stroke="#808080" stroke-width="0.015625" fill="none"/><path d="M-25.1667,-71.5v0l0.333332,0.5h0.666668l0.333332,-0.5" stroke="#808080" stroke-width="0.015625" fill="none"/><path d="M-25.1667,-70.5v0l0.333332,0.5h0.666668l0.333332,-0.5" stroke="#808080" stroke-width="0.015625" fill="none"/><path d="M-25.1667,-69.5v0l0.333332,0.5h0.666668l0.333332,-0.5" stroke="#808080" stroke-width="0.015625" fill="none"/><path d="M-24.1667,-81v0l0.333332,0.5h0.666668l0.333332,-0.5" stroke="#808080" stroke-width="0.015625" fill="none"/><path d="M-24.1667,-80v0l0.333332,0.5h0.666668l0.333332,-0.5" stroke="#808080" stroke-width="0.015625" fill="none"/><path d="M-24.1667,-79v0l0.333332,0.5h0.666668l0.333332,-0.5" stroke="#808080" stroke-width="0.015625" fill="none"/><path d="M-24.1667,-78v0l0.333332,0.5h0.666668l0.333332,-0.5" stroke="#808080" stroke-width="0.015625" fill="none"/><path d="M-24.1667,-77v0l0.333332,0.5h0.666668l0.333332,-0.5" stroke="#808080" stroke-width="0.015625" fill="none"/><path d="M-24.1667,-76v0l0.333332,0.5h0.666668l0.333332,-0.5" stroke="#808080" stroke-width="0.015625" fill="none"/><path d="M-24.1667,-75v0l0.333332,0.5h0.666668l0.333332,-0.5" stroke="#808080" stroke-width="0.015625" fill="none"/><path d="M-24.1667,-74v0l0.333332,0.5h0.666668l0.333332,-0.5" stroke="#808080" stroke-width="0.015625" fill="none"/><path d="M-24.1667,-73v0l0.333332,0.5h0.666668l0.333332,-0.5" stroke="#808080" stroke-width="0.015625" fill="none"/><path d="M-24.1667,-72v0l0.333332,0.5h0.666668l0.333332,-0.5" stroke="#808080" stroke-width="0.015625" fill="none"/><path d="M-24.1667,-71v0l0.333332,0.5h0.666668l0.333332,-0.5" stroke="#808080" stroke-width="0.015625" fill="none"/><path d="M-24.1667,-70v0l0.333332,0.5h0.666668l0.333332,-0.5" stroke="#808080" stroke-width="0.015625" fill="none"/><path d="M-24.1667,-69v0l0.333332,0.5h0.666668l0.333332,-0.5" stroke="#808080" stroke-width="0.015625" fill="none"/><path d="M-23.1667,-81.5v0l0.333332,0.5h0.666668l0.333332,-0.5" stroke="#808080" stroke-width="0.015625" fill="none"/><path d="M-23.1667,-80.5v0l0.333332,0.5h0.666668l0.333332,-0.5" stroke="#808080" stroke-width="0.015625" fill="none"/><path d="M-23.1667,-79.5v0l0.333332,0.5h0.666668l0.333332,-0.5" stroke="#808080" stroke-width="0.015625" fill="none"/><path d="M-23.1667,-78.5v0l0.333332,0.5h0.666668l0.333332,-0.5" stroke="#808080" stroke-width="0.015625" fill="none"/><path d="M-23.1667,-77.5v0l0.333332,0.5h0.666668l0.333332,-0.5" stroke="#808080" stroke-width="0.015625" fill="none"/><path d="M-23.1667,-76.5v0l0.333332,0.5h0.666668l0.333332,-0.5" stroke="#808080" stroke-width="0.015625" fill="none"/><path d="M-23.1667,-75.5v0l0.333332,0.5h0.666668l0.333332,-0.5" stroke="#808080" stroke-width="0.015625" fill="none"/><path d="M-23.1667,-74.5v0l0.333332,0.5h0.666668l0.333332,-0.5" stroke="#808080" stroke-width="0.015625" fill="none"/><path d="M-23.1667,-73.5v0l0.333332,0.5h0.666668l0.333332,-0.5" stroke="#808080" stroke-width="0.015625" fill="none"/><path d="M-23.1667,-72.5v0l0.333332,0.5h0.666668l0.333332,-0.5" stroke="#808080" stroke-width="0.015625" fill="none"/><path d="M-23.1667,-71.5v0l0.333332,0.5h0.666668l0.333332,-0.5" stroke="#808080" stroke-width="0.015625" fill="none"/><path d="M-23.1667,-70.5v0l0.333332,0.5h0.666668l0.333332,-0.5" stroke="#808080" stroke-width="0.015625" fill="none"/><path d="M-23.1667,-69.5v0l0.333332,0.5h0.666668l0.333332,-0.5" stroke="#808080" stroke-width="0.015625" fill="none"/><path d="M-22.1667,-81v0l0.333332,0.5h0.666668l0.333332,-0.5" stroke="#808080" stroke-width="0.015625" fill="none"/><path d="M-22.1667,-80v0l0.333332,0.5h0.666668l0.333332,-0.5" stroke="#808080" stroke-width="0.015625" fill="none"/><path d="M-22.1667,-79v0l0.333332,0.5h0.666668l0.333332,-0.5" stroke="#808080" stroke-width="0.015625" fill="none"/><path d="M-22.1667,-78v0l0.333332,0.5h0.666668l0.333332,-0.5" stroke="#808080" stroke-width="0.015625" fill="none"/><path d="M-22.1667,-77v0l0.333332,0.5h0.666668l0.333332,-0.5" stroke="#808080" stroke-width="0.015625" fill="none"/><path d="M-22.1667,-76v0l0.333332,0.5h0.666668l0.333332,-0.5" stroke="#808080" stroke-width="0.015625" fill="none"/><path d="M-22.1667,-75v0l0.333332,0.5h0.666668l0.333332,-0.5" stroke="#808080" stroke-width="0.015625" fill="none"/><path d="M-22.1667,-74v0l0.333332,0.5h0.666668l0.333332,-0.5" stroke="#808080" stroke-width="0.015625" fill="none"/><path d="M-22.1667,-73v0l0.333332,0.5h0.666668l0.333332,-0.5" stroke="#808080" stroke-width="0.015625" fill="none"/><path d="M-22.1667,-72v0l0.333332,0.5h0.666668l0.333332,-0.5" stroke="#808080" stroke-width="0.015625" fill="none"/><path d="M-22.1667,-71v0l0.333332,0.5h0.666668l0.333332,-0.5" stroke="#808080" stroke-width="0.015625" fill="none"/><path d="M-22.1667,-70v0l0.333332,0.5h0.666668l0.333332,-0.5" stroke="#808080" stroke-width="0.015625" fill="none"/><path d="M-22.1667,-69v0l0.333332,0.5h0.666668l0.333332,-0.5" stroke="#808080" stroke-width="0.015625" fill="none"/><path d="M-21.1667,-81.5v0l0.333332,0.5h0.666668l0.333332,-0.5" stroke="#808080" stroke-width="0.015625" fill="none"/><path d="M-21.1667,-80.5v0l0.333332,0.5h0.666668l0.333332,-0.5" stroke="#808080" stroke-width="0.015625" fill="none"/><path d="M-21.1667,-79.5v0l0.333332,0.5h0.666668l0.333332,-0.5" stroke="#808080" stroke-width="0.015625" fill="none"/><path d="M-21.1667,-78.5v0l0.333332,0.5h0.666668l0.333332,-0.5" stroke="#808080" stroke-width="0.015625" fill="none"/><path d="M-21.1667,-77.5v0l0.333332,0.5h0.666668l0.333332,-0.5" stroke="#808080" stroke-width="0.015625" fill="none"/><path d="M-21.1667,-76.5v0l0.333332,0.5h0.666668l0.333332,-0.5" stroke="#808080" stroke-width="0.015625" fill="none"/><path d="M-21.1667,-75.5v0l0.333332,0.5h0.666668l0.333332,-0.5" stroke="#808080" stroke-width="0.015625" fill="none"/><path d="M-21.1667,-74.5v0l0.333332,0.5h0.666668l0.333332,-0.5" stroke="#808080" stroke-width="0.015625" fill="none"/><path d="M-21.1667,-73.5v0l0.333332,0.5h0.666668l0.333332,-0.5" stroke="#808080" stroke-width="0.015625" fill="none"/><path d="M-21.1667,-72.5v0l0.333332,0.5h0.666668l0.333332,-0.5" stroke="#808080" stroke-width="0.015625" fill="none"/><path d="M-21.1667,-71.5v0l0.333332,0.5h0.666668l0.333332,-0.5" stroke="#808080" stroke-width="0.015625" fill="none"/><path d="M-21.1667,-70.5v0l0.333332,0.5h0.666668l0.333332,-0.5" stroke="#808080" stroke-width="0.015625" fill="none"/><path d="M-21.1667,-69.5v0l0.333332,0.5h0.666668l0.333332,-0.5" stroke="#808080" stroke-width="0.015625" fill="none"/><path d="M-20.1667,-81v0l0.333332,0.5h0.666668l0.333332,-0.5" stroke="#808080" stroke-width="0.015625" fill="none"/><path d="M-20.1667,-80v0l0.333332,0.5h0.666668l0.333332,-0.5" stroke="#808080" stroke-width="0.015625" fill="none"/><path d="M-20.1667,-79v0l0.333332,0.5h0.666668l0.333332,-0.5" stroke="#808080" stroke-width="0.015625" fill="none"/><path d="M-20.1667,-78v0l0.333332,0.5h0.666668l0.333332,-0.5" stroke="#808080" stroke-width="0.015625" fill="none"/><path d="M-20.1667,-77v0l0.333332,0.5h0.666668l0.333332,-0.5" stroke="#808080" stroke-width="0.015625" fill="none"/><path d="M-20.1667,-76v0l0.333332,0.5h0.666668l0.333332,-0.5" stroke="#808080" stroke-width="0.015625" fill="none"/><path d="M-20.1667,-75v0l0.333332,0.5h0.666668l0.333332,-0.5" stroke="#808080" stroke-width="0.015625" fill="none"/><path d="M-20.1667,-74v0l0.333332,0.5h0.666668l0.333332,-0.5" stroke="#808080" stroke-width="0.015625" fill="none"/><path d="M-20.1667,-73v0l0.333332,0.5h0.666668l0.333332,-0.5" stroke="#808080" stroke-width="0.015625" fill="none"/><path d="M-20.1667,-72v0l0.333332,0.5h0.666668l0.333332,-0.5" stroke="#808080" stroke-width="0.015625" fill="none"/><path d="M-20.1667,-71v0l0.333332,0.5h0.666668l0.333332,-0.5" stroke="#808080" stroke-width="0.015625" fill="none"/><path d="M-20.1667,-70v0l0.333332,0.5h0.666668l0.333332,-0.5" stroke="#808080" stroke-width="0.015625" fill="none"/><path d="M-20.1667,-69v0l0.333332,0.5h0.666668l0.333332,-0.5" stroke="#808080" stroke-width="0.015625" fill="none"/><path d="M-19.1667,-81.5v0l0.333332,0.5h0.666668l0.333332,-0.5" stroke="#808080" stroke-width="0.015625" fill="none"/><path d="M-19.1667,-80.5v0l0.333332,0.5h0.666668l0.333332,-0.5" stroke="#808080" stroke-width="0.015625" fill="none"/><path d="M-19.1667,-79.5v0l0.333332,0.5h0.666668l0.333332,-0.5" stroke="#808080" stroke-width="0.015625" fill="none"/><path d="M-19.1667,-78.5v0l0.333332,0.5h0.666668l0.333332,-0.5" stroke="#808080" stroke-width="0.015625" fill="none"/><path d="M-19.1667,-77.5v0l0.333332,0.5h0.666668l0.333332,-0.5" stroke="#808080" stroke-width="0.015625" fill="none"/><path d="M-19.1667,-76.5v0l0.333332,0.5h0.666668l0.333332,-0.5" stroke="#808080" stroke-width="0.015625" fill="none"/><path d="M-19.1667,-75.5v0l0.333332,0.5h0.666668l0.333332,-0.5" stroke="#808080" stroke-width="0.015625" fill="none"/><path d="M-19.1667,-74.5v0l0.333332,0.5h0.666668l0.333332,-0.5" stroke="#808080" stroke-width="0.015625" fill="none"/><path d="M-19.1667,-73.5v0l0.333332,0.5h0.666668l0.333332,-0.5" stroke="#808080" stroke-width="0.015625" fill="none"/><path d="M-19.1667,-72.5v0l0.333332,0.5h0.666668l0.333332,-0.5" stroke="#808080" stroke-width="0.015625" fill="none"/><path d="M-19.1667,-71.5v0l0.333332,0.5h0.666668l0.333332,-0.5" stroke="#808080" stroke-width="0.015625" fill="none"/><path d="M-19.1667,-70.5v0l0.333332,0.5h0.666668l0.333332,-0.5" stroke="#808080" stroke-width="0.015625" fill="none"/><path d="M-19.1667,-69.5v0l0.333332,0.5h0.666668l0.333332,-0.5" stroke="#808080" stroke-width="0.015625" fill="none"/><path d="M-18.1667,-81v0l0.333332,0.5h0.666668l0.333332,-0.5" stroke="#808080" stroke-width="0.015625" fill="none"/><path d="M-18.1667,-80v0l0.333332,0.5h0.666668l0.333332,-0.5" stroke="#808080" stroke-width="0.015625" fill="none"/><path d="M-18.1667,-79v0l0.333332,0.5h0.666668l0.333332,-0.5" stroke="#808080" stroke-width="0.015625" fill="none"/><path d="M-18.1667,-78v0l0.333332,0.5h0.666668l0.333332,-0.5" stroke="#808080" stroke-width="0.015625" fill="none"/><path d="M-18.1667,-77v0l0.333332,0.5h0.666668l0.333332,-0.5" stroke="#808080" stroke-width="0.015625" fill="none"/><path d="M-18.1667,-76v0l0.333332,0.5h0.666668l0.333332,-0.5" stroke="#808080" stroke-width="0.015625" fill="none"/><path d="M-18.1667,-75v0l0.333332,0.5h0.666668l0.333332,-0.5" stroke="#808080" stroke-width="0.015625" fill="none"/><path d="M-18.1667,-74v0l0.333332,0.5h0.666668l0.333332,-0.5" stroke="#808080" stroke-width="0.015625" fill="none"/><path d="M-18.1667,-73v0l0.333332,0.5h0.666668l0.333332,-0.5" stroke="#808080" stroke-width="0.015625" fill="none"/><path d="M-18.1667,-72v0l0.333332,0.5h0.666668l0.333332,-0.5" stroke="#808080" stroke-width="0.015625" fill="none"/><path d="M-18.1667,-71v0l0.333332,0.5h0.666668l0.333332,-0.5" stroke="#808080" stroke-width="0.015625" fill="none"/><path d="M-18.1667,-70v0l0.333332,0.5h0.666668l0.333332,-0.5" stroke="#808080" stroke-width="0.015625" fill="none"/><path d="M-18.1667,-69v0l0.333332,0.5h0.666668l0.333332,-0.5" stroke="#808080" stroke-width="0.015625" fill="none"/><path d="M-17.1667,-81.5v0l0.333332,0.5h0.666668l0.333333,-0.5" stroke="#808080" stroke-width="0.015625" fill="none"/><path d="M-17.1667,-80.5v0l0.333332,0.5h0.666668l0.333333,-0.5" stroke="#808080" stroke-width="0.015625" fill="none"/><path d="M-17.1667,-79.5v0l0.333332,0.5h0.666668l0.333333,-0.5" stroke="#808080" stroke-width="0.015625" fill="none"/><path d="M-17.1667,-78.5v0l0.333332,0.5h0.666668l0.333333,-0.5" stroke="#808080" stroke-width="0.015625" fill="none"/><path d="M-17.1667,-77.5v0l0.333332,0.5h0.666668l0.333333,-0.5" stroke="#808080" stroke-width="0.015625" fill="none"/><path d="M-17.1667,-76.5v0l0.333332,0.5h0.666668l0.333333,-0.5" stroke="#808080" stroke-width="0.015625" fill="none"/><path d="M-17.1667,-75.5v0l0.333332,0.5h0.666668l0.333333,-0.5" stroke="#808080" stroke-width="0.015625" fill="none"/><path d="M-17.1667,-74.5v0l0.333332,0.5h0.666668l0.333333,-0.5" stroke="#808080" stroke-width="0.015625" fill="none"/><path d="M-17.1667,-73.5v0l0.333332,0.5h0.666668l0.333333,-0.5" stroke="#808080" stroke-width="0.015625" fill="none"/><path d="M-17.1667,-72.5v0l0.333332,0.5h0.666668l0.333333,-0.5" stroke="#808080" stroke-width="0.015625" fill="none"/><path d="M-17.1667,-71.5v0l0.333332,0.5h0.666668l0.333333,-0.5" stroke="#808080" stroke-width="0.015625" fill="none"/><path d="M-17.1667,-70.5v0l0.333332,0.5h0.666668l0.333333,-0.5" stroke="#808080" stroke-width="0.015625" fill="none"/><path d="M-17.1667,-69.5v0l0.333332,0.5h0.666668l0.333333,-0.5" stroke="#808080" stroke-width="0.015625" fill="none"/><path clip-path="url(#did2)" d="M-33.8333,-75.5l-0.333336,-0.5l0.333336,-0.5h0.666664l0.333336,-0.5l-0.333336,-0.5l0.333336,-0.5l-0.333336,-0.5l0.333336,-0.5l-0.333336,-0.5l0.333336,-0.5h0.666664l0.333334,0.5h0.666668l0.333332,0.5h0.666668l0.333332,0.5h0.666668l0.333332,-0.5h0.666668l0.333332,-0.5h0.666668l0.333332,0.5l-0.333332,0.5l0.333332,0.5l-0.333332,0.5l0.333332,0.5l-0.333332,0.5l0.333332,0.5h0.666668l0.333332,0.5h0.666668l0.333332,0.5h0.666668l0.333332,0.5h0.666668l0.333332,0.5h0.666668l0.333332,-0.5h0.666668l0.333332,-0.5h0.666668l0.333332,-0.5h0.666668l0.333332,-0.5h0.666668l0.333332,0.5h0.666668l0.333332,-0.5h0.666668l0.333333,0.5h0.666666l0.333334,0.5h0.666666l0.333334,-0.5h0.666666l0.333334,-0.5h0.666666l0.333334,0.5h0.666666l0.333334,0.5h0.666666l0.333334,0.5h0.666666l0.333334,-0.5h0.666666l0.333334,-0.5h0.666667l0.333333,0.5h0.666667l0.333333,-0.5h0.666667l0.333333,-0.5h0.666667l0.333333,0.5h0.666667l0.333334,0.5h0.666667l0.333334,-0.5h0.666667l0.333333,-0.5h0.666667l0.333333,0.5l-0.333333,0.5l0.333333,0.5l-0.333333,0.5l0.333333,0.5l-0.333333,0.5l0.333333,0.5l-0.333333,0.5l0.333333,0.5l-0.333333,0.5l0.333333,0.5l-0.333333,0.5l0.333333,0.5l-0.333333,0.5l0.333333,0.5l-0.333333,0.5l0.333333,0.5l-0.333333,0.5l0.333333,0.5l-0.333333,0.5l0.333333,0.5l-0.333333,0.5l0.333333,0.5l-0.333333,0.5l0.333333,0.5l-0.333333,0.5l0.333333,0.5l-0.333333,0.5l0.333333,0.5l-0.333333,0.5l0.333333,0.5l-0.333333,0.5l0.333333,0.5l-0.333333,0.5l0.333333,0.5l-0.333333,0.5l0.333333,0.5l-0.333333,0.5l0.333333,0.5l-0.333333,0.5l0.333333,0.5l-0.333333,0.5l0.333333,0.5l-0.333333,0.5l0.333333,0.5l-0.333333,0.5l0.333333,0.5l-0.333333,0.5l0.333333,0.5l-0.333333,0.5l0.333333,0.5l-0.333333,0.5l0.333333,0.5l-0.333333,0.5l0.333333,0.5l-0.333333,0.5l0.333333,0.5l-0.333333,0.5l0.333333,0.5l-0.333333,0.5l0.333333,0.5l-0.333333,0.5l0.333333,0.5l-0.333333,0.5l0.333333,0.5l-0.333333,0.5l0.333333,0.5l-0.333333,0.5l0.333333,0.5l-0.333333,0.5l0.333333,0.5l-0.333333,0.5l0.333333,0.5l-0.333333,0.5h-0.666667l-0.333333,0.5h-0.666667l-0.333334,-0.5h-0.666667l-0.333334,0.5h-0.666667l-0.333333,-0.5h-0.666667l-0.333333,0.5h-0.666667l-0.333333,-0.5h-0.666667l-0.333333,0.5h-0.666667l-0.333334,-0.5h-0.666666l-0.333334,0.5h-0.666666l-0.333334,-0.5h-0.666666l-0.333334,0.5h-0.666666l-0.333334,-0.5h-0.666666l-0.333334,0.5h-0.666666l-0.333334,-0.5h-0.666666l-0.333334,0.5h-0.666666l-0.333333,-0.5h-0.666668l-0.333332,0.5h-0.666668l-0.333332,-0.5h-0.666668l-0.333332,0.5h-0.666668l-0.333332,-0.5h-0.666668l-0.333332,0.5h-0.666668l-0.333332,-0.5h-0.666668l-0.333332,0.5h-0.666668l-0.333332,-0.5h-0.666668l-0.333332,0.5h-0.666668l-0.333332,-0.5h-0.666668l-0.333332,0.5h-0.666668l-0.333332,-0.5h-0.666668l-0.333332,0.5h-0.666668l-0.333332,-0.5h-0.666668l-0.333332,0.5h-0.666668l-0.333334,-0.5h-0.666664l-0.333336,0.5h-0.666664l-0.333336,-0.5l0.333336,-0.5l-0.333336,-0.5l0.333336,-0.5l-0.333336,-0.5l0.333336,-0.5l-0.333336,-0.5l0.333336,-0.5l-0.333336,-0.5l0.333336,-0.5l-0.333336,-0.5l0.333336,-0.5l-0.333336,-0.5l0.333336,-0.5l-0.333336,-0.5l0.333336,-0.5l-0.333336,-0.5l0.333336,-0.5l-0.333336,-0.5l0.333336,-0.5l-0.333336,-0.5l0.333336,-0.5l-0.333336,-0.5l0.333336,-0.5l-0.333336,-0.5l0.333336,-0.5h0.666664l0.333336,0.5l-0.333336,0.5l0.333336,0.5h0.666664l0.333334,0.5h0.666668l0.333332,-0.5h0.666668l0.333332,-0.5h0.666668l0.333332,-0.5h0.666668l0.333332,0.5h0.666668l0.333332,-0.5h0.666668l0.333332,-0.5h0.666668l0.333332,-0.5l-0.333332,-0.5l0.333332,-0.5l-0.333332,-0.5l0.333332,-0.5l-0.333332,-0.5l0.333332,-0.5l-0.333332,-0.5l0.333332,-0.5l-0.333332,-0.5h-0.666668l-0.333332,-0.5h-0.666668l-0.333332,-0.5h-0.666668l-0.333332,-0.5h-0.666668l-0.333332,0.5h-0.666668l-0.333332,-0.5h-0.666668l-0.333332,-0.5h-0.666668l-0.333334,-0.5l0.333334,-0.5h0.666668l0.333332,-0.5h0.666668l0.333332,-0.5h0.666668l0.333332,-0.5h0.666668l0.333332,-0.5h0.666668l0.333332,0.5h0.666668l0.333332,0.5h0.666668l0.333332,0.5h0.666668l0.333332,-0.5h0.666668l0.333332,-0.5l-0.333332,-0.5l0.333332,-0.5l-0.333332,-0.5l0.333332,-0.5l-0.333332,-0.5l0.333332,-0.5l-0.333332,-0.5l0.333332,-0.5l-0.333332,-0.5l0.333332,-0.5l-0.333332,-0.5l0.333332,-0.5l-0.333332,-0.5h-0.666668l-0.333332,-0.5h-0.666668l-0.333332,-0.5h-0.666668l-0.333332,-0.5h-0.666668l-0.333332,-0.5h-0.666668l-0.333332,-0.5h-0.666668l-0.333332,0.5h-0.666668l-0.333332,0.5h-0.666668l-0.333332,0.5h-0.666668l-0.333334,-0.5l0.333334,-0.5l-0.333334,-0.5h-0.666664l-0.333336,-0.5h-0.666664l-0.333336,-0.5l0.333336,-0.5l-0.333336,-0.5l0.333336,-0.5l-0.333336,-0.5l0.333336,-0.5l-0.333336,-0.5l0.333336,-0.5l-0.333336,-0.5Z" stroke="#E32736" stroke-width="0.16" fill="none"/><line x1="-25.2227" y1="-72.9307" x2="-21.7774" y2="-72.0693" stroke="#048104" stroke-width="0.08"/><line x1="-21.5" y1="-71.75" x2="-21.5" y2="-69.25" stroke="#048104" stroke-width="0.08"/><line x1="-21.2113" y1="-72" x2="-19.7887" y2="-72" stroke="#048104" stroke-width="0.08"/><line x1="-19.4307" y1="-72.2427" x2="-18.5693" y2="-75.2573" stroke="#048104" stroke-width="0.08"/><line x1="-19.25" y1="-71.875" x2="-18.75" y2="-71.625" stroke="#048104" stroke-width="0.08"/><line x1="-18.2113" y1="-71.5" x2="-16.7887" y2="-71.5" stroke="#048104" stroke-width="0.08"/></g><g clip-path="url(#did3)"><text transform="translate(-24.5,-78.5) scale(1.1547 1)" font-family="Arial" font-size="0.14" text-anchor="middle" x="0" y="-0.381" fill="DarkGray">0902</text><text transform="translate(-24.5,-74.5) scale(1.1547 1)" font-family="Arial" font-size="0.14" text-anchor="middle" x="0" y="-0.381" fill="DarkGray">0906</text><text transform="translate(-24.5,-71.5) scale(1.1547 1)" font-family="Arial" font-size="0.14" text-anchor="middle" x="0" y="-0.381" fill="DarkGray">0909</text><text transform="translate(-23.5,-79) scale(1.1547 1)" font-family="Arial" font-size="0.14" text-anchor="middle" x="0" y="-0.381" fill="DarkGray">1001</text><text transform="translate(-23.5,-77) scale(1.1547 1)" font-family="Arial" font-size="0.14" text-anchor="middle" x="0" y="-0.381" fill="DarkGray">1003</text><text transform="translate(-23.5,-76) scale(1.1547 1)" font-family="Arial" font-size="0.14" text-anchor="middle" x="0" y="-0.381" fill="DarkGray">1004</text><g transform="translate(-23.5,-73) scale(1.1547 1)"><circle r="0.4" cx="0" cy="0" stroke="#FFCC00" stroke-width="0.05" fill="none"/><text font-family="Arial" font-size="0.14" text-anchor="middle" x="0" y="-0.381" fill="DarkGray">1007</text></g><text transform="translate(-22.5,-78.5) scale(1.1547 1)" font-family="Arial" font-size="0.14" text-anchor="middle" x="0" y="-0.381" fill="DarkGray">1102</text><text transform="translate(-22.5,-76.5) scale(1.1547 1)" font-family="Arial" font-size="0.14" text-anchor="middle" x="0" y="-0.381" fill="DarkGray">1104</text><g transform="translate(-22.5,-73.5) scale(1.1547 1)"><circle r="0.4" cx="0" cy="0" stroke="#FFCC00" stroke-width="0.05" fill="none"/><text font-family="Arial" font-size="0.14" text-anchor="middle" x="0" y="-0.381" fill="DarkGray">1107</text></g><g transform="translate(-22.5,-72.5) scale(1.1547 1)"><circle r="0.4" cx="0" cy="0" stroke="#FFCC00" stroke-width="0.05" fill="none"/><text font-family="Arial" font-size="0.14" text-anchor="middle" x="0" y="-0.381" fill="DarkGray">1108</text></g><text transform="translate(-22.5,-71.5) scale(1.1547 1)" font-family="Arial" font-size="0.14" text-anchor="middle" x="0" y="-0.381" fill="DarkGray">1109</text><text transform="translate(-22.5,-70.5) scale(1.1547 1)" font-family="Arial" font-size="0.14" text-anchor="middle" x="0" y="-0.381" fill="DarkGray">1110</text><text transform="translate(-21.5,-79) scale(1.1547 1)" font-family="Arial" font-size="0.14" text-anchor="middle" x="0" y="-0.381" fill="DarkGray">1201</text><g transform="translate(-21.5,-78) scale(1.1547 1)"><circle r="0.4" cx="0" cy="0" stroke="#FFCC00" stroke-width="0.05" fill="none"/><text font-family="Arial" font-size="0.14" text-anchor="middle" x="0" y="-0.381" fill="DarkGray">1202</text></g><text transform="translate(-21.5,-77) scale(1.1547 1)" font-family="Arial" font-size="0.14" text-anchor="middle" x="0" y="-0.381" fill="DarkGray">1203</text><text transform="translate(-21.5,-74) scale(1.1547 1)" font-family="Arial" font-size="0.14" text-anchor="middle" x="0" y="-0.381" fill="DarkGray">1206</text><text transform="translate(-21.5,-72) scale(1.1547 1)" font-family="Arial" font-size="0.14" text-anchor="middle" x="0" y="-0.381" fill="DarkGray">1208</text><text transform="translate(-20.5,-71.5) scale(1.1547 1)" font-family="Arial" font-size="0.14" text-anchor="middle" x="0" y="-0.381" fill="DarkGray">1309</text><text transform="translate(-19.5,-77) scale(1.1547 1)" font-family="Arial" font-size="0.14" text-anchor="middle" x="0" y="-0.381" fill="DarkGray">1403</text><g transform="translate(-19.5,-75) scale(1.1547 1)"><circle r="0.4" cx="0" cy="0" stroke="#FFCC00" stroke-width="0.05" fill="none"/><text font-family="Arial" font-size="0.14" text-anchor="middle" x="0" y="-0.381" fill="DarkGray">1405</text></g><text transform="translate(-19.5,-74) scale(1.1547 1)" font-family="Arial" font-size="0.14" text-anchor="middle" x="0" y="-0.381" fill="DarkGray">1406</text><text transform="translate(-19.5,-73) scale(1.1547 1)" font-family="Arial" font-size="0.14" text-anchor="middle" x="0" y="-0.381" fill="DarkGray">1407</text><text transform="translate(-19.5,-72) scale(1.1547 1)" font-family="Arial" font-size="0.14" text-anchor="middle" x="0" y="-0.381" fill="DarkGray">1408</text><text transform="translate(-19.5,-70) scale(1.1547 1)" font-family="Arial" font-size="0.14" text-anchor="middle" x="0" y="-0.381" fill="DarkGray">1410</text><text transform="translate(-18.5,-75.5) scale(1.1547 1)" font-family="Arial" font-size="0.14" text-anchor="middle" x="0" y="-0.381" fill="DarkGray">1505</text><text transform="translate(-18.5,-71.5) scale(1.1547 1)" font-family="Arial" font-size="0.14" text-anchor="middle" x="0" y="-0.381" fill="DarkGray">1509</text><text transform="translate(-17.5,-76) scale(1.1547 1)" font-family="Arial" font-size="0.14" text-anchor="middle" x="0" y="-0.381" fill="DarkGray">1604</text><text transform="translate(-17.5,-74) scale(1.1547 1)" font-family="Arial" font-size="0.14" text-anchor="middle" x="0" y="-0.381" fill="DarkGray">1606</text><text transform="translate(-17.5,-72) scale(1.1547 1)" font-family="Arial" font-size="0.14" text-anchor="middle" x="0" y="-0.381" fill="DarkGray">1608</text><g transform="translate(-17.5,-71) scale(1.1547 1)"><circle r="0.4" cx="0" cy="0" stroke="#FFCC00" stroke-width="0.05" fill="none"/><text font-family="Arial" font-size="0.14" text-anchor="middle" x="0" y="-0.381" fill="DarkGray">1609</text></g></g><g transform="translate(-24.5,-78.5) scale(1.1547 1)"><circle transform="translate(0.25,-0.18)" r="0.05" cx="0" cy="0" stroke="none" fill="Black"/><rect x="-0.113084" y="-0.35543" width="0.226167" height="0.260859" stroke="none" fill="White"/><text font-family="Arial" font-size="0.21" font-weight="bold" text-anchor="middle" x="0" y="-0.13575" fill="Black">A</text><text font-family="Arial Unicode MS,Segoe UI Symbol,Arial" font-size="0.21" font-weight="bold" text-anchor="middle" x="-0.25" y="-0.09075" fill="Black">★</text><circle r="0.1" cx="0" cy="0" stroke="none" fill="DeepSkyBlue"/><rect x="-0.654028" y="0.23957" width="1.30806" height="0.260859" stroke="none" fill="White"/><text font-family="Arial" font-size="0.21" font-weight="bold" text-anchor="middle" x="0" y="0.45925" fill="Black">Otsaellghue</text><text font-family="Arial" font-size="0.14" text-anchor="middle" x="0.25" y="0.2395" fill="Black">CsIm</text></g><g transform="translate(-24.5,-74.5) scale(1.1547 1)"><circle transform="translate(0.25,-0.18)" r="0.05" cx="0" cy="0" stroke="none" fill="Black"/><rect x="-0.113084" y="-0.35543" width="0.226167" height="0.260859" stroke="none" fill="White"/><text font-family="Arial" font-size="0.21" font-weight="bold" text-anchor="middle" x="0" y="-0.13575" fill="Black">C</text><circle r="0.1" cx="0" cy="0" stroke="none" fill="DeepSkyBlue"/><rect x="-0.539851" y="0.23957" width="1.0797" height="0.260859" stroke="none" fill="White"/><text font-family="Arial" font-size="0.21" font-weight="bold" text-anchor="middle" x="0" y="0.45925" fill="Black">Iishashun</text></g><g transform="translate(-24.5,-71.5) scale(1.1547 1)"><rect x="-0.113084" y="-0.35543" width="0.226167" height="0.260859" stroke="none" fill="White"/><text font-family="Arial" font-size="0.21" font-weight="bold" text-anchor="middle" x="0" y="-0.13575" fill="Black">C</text><text font-family="Arial Unicode MS,Segoe UI Symbol,Arial" font-size="0.21" font-weight="bold" text-anchor="middle" x="-0.25" y="0.26925" fill="Black">▲</text><circle r="0.1" cx="0" cy="0" stroke="Black" stroke-width="0.015625" fill="White"/><rect x="-0.467817" y="0.23957" width="0.935635" height="0.260859" stroke="none" fill="White"/><text font-family="Arial" font-size="0.21" font-weight="bold" text-anchor="middle" x="0" y="0.45925" fill="Black">Jiinasha</text></g><g transform="translate(-23.5,-79) scale(1.1547 1)"><rect x="-0.113084" y="-0.35543" width="0.226167" height="0.260859" stroke="none" fill="White"/><text font-family="Arial" font-size="0.21" font-weight="bold" text-anchor="middle" x="0" y="-0.13575" fill="Black">C</text><circle r="0.1" cx="0" cy="0" stroke="none" fill="DeepSkyBlue"/><rect x="-0.509705" y="0.23957" width="1.01941" height="0.260859" stroke="none" fill="White"/><text font-family="Arial" font-size="0.21" font-weight="bold" text-anchor="middle" x="0" y="0.45925" fill="Black">Odhughe</text><text font-family="Arial" font-size="0.14" text-anchor="middle" x="0.25" y="0.2395" fill="Black">CsIm</text></g><g transform="translate(-23.5,-77) scale(1.1547 1)"><circle transform="translate(0.25,-0.18)" r="0.05" cx="0" cy="0" stroke="none" fill="Black"/><rect x="-0.113084" y="-0.35543" width="0.226167" height="0.260859" stroke="none" fill="White"/><text font-family="Arial" font-size="0.21" font-weight="bold" text-anchor="middle" x="0" y="-0.13575" fill="Black">B</text><circle r="0.1" cx="0" cy="0" stroke="Black" stroke-width="0.015625" fill="White"/><rect x="-0.515857" y="0.23957" width="1.03171" height="0.260859" stroke="none" fill="White"/><text font-family="Arial" font-size="0.21" font-weight="bold" text-anchor="middle" x="0" y="0.45925" fill="Black">Anaanika</text><text font-family="Arial" font-size="0.14" text-anchor="middle" x="0.25" y="0.2395" fill="Black">NaHu</text></g><g transform="translate(-23.5,-76) scale(1.1547 1)"><rect x="-0.107136" y="-0.35543" width="0.214273" height="0.260859" stroke="none" fill="White"/><text font-family="Arial" font-size="0.21" font-weight="bold" text-anchor="middle" x="0" y="-0.13575" fill="Black">E</text><circle r="0.1" cx="0" cy="0" stroke="none" fill="DeepSkyBlue"/><rect x="-0.551797" y="0.23957" width="1.10359" height="0.260859" stroke="none" fill="White"/><text font-family="Arial" font-size="0.21" font-weight="bold" text-anchor="middle" x="0" y="0.45925" fill="Black">Esngougz</text><text font-family="Arial" font-size="0.14" text-anchor="middle" x="0.25" y="0.2395" fill="Black">NaVa</text></g><g transform="translate(-23.5,-73) scale(1.1547 1)"><circle transform="translate(0.25,-0.18)" r="0.05" cx="0" cy="0" stroke="none" fill="Black"/><rect x="-0.113084" y="-0.35543" width="0.226167" height="0.260859" stroke="none" fill="White"/><text font-family="Arial" font-size="0.21" font-weight="bold" text-anchor="middle" x="0" y="-0.13575" fill="Black">C</text><text font-family="Arial Unicode MS,Segoe UI Symbol,Arial" font-size="0.21" font-weight="bold" text-anchor="middle" x="-0.25" y="0.26925" fill="Black">▲</text><circle r="0.1" cx="0" cy="0" stroke="none" fill="DeepSkyBlue"/><rect x="-0.41342" y="0.23957" width="0.826841" height="0.260859" stroke="none" fill="White"/><text font-family="Arial" font-size="0.21" font-weight="bold" text-anchor="middle" x="0" y="0.45925" fill="Black">LAARU</text></g><g transform="translate(-22.5,-78.5) scale(1.1547 1)"><circle transform="translate(0.25,-0.18)" r="0.05" cx="0" cy="0" stroke="none" fill="Black"/><rect x="-0.113084" y="-0.35543" width="0.226167" height="0.260859" stroke="none" fill="White"/><text font-family="Arial" font-size="0.21" font-weight="bold" text-anchor="middle" x="0" y="-0.13575" fill="Black">A</text><text font-family="Arial Unicode MS,Segoe UI Symbol,Arial" font-size="0.21" font-weight="bold" text-anchor="middle" x="-0.25" y="-0.09075" fill="Black">★</text><circle r="0.1" cx="0" cy="0" stroke="none" fill="DeepSkyBlue"/><rect x="-0.233259" y="0.23957" width="0.466519" height="0.260859" stroke="none" fill="White"/><text font-family="Arial" font-size="0.21" font-weight="bold" text-anchor="middle" x="0" y="0.45925" fill="Black">Azu</text><text font-family="Arial" font-size="0.14" text-anchor="middle" x="0.25" y="0.2395" fill="Black">CsIm</text></g><g transform="translate(-22.5,-76.5) scale(1.1547 1)"><rect x="-0.113084" y="-0.35543" width="0.226167" height="0.260859" stroke="none" fill="White"/><text font-family="Arial" font-size="0.21" font-weight="bold" text-anchor="middle" x="0" y="-0.13575" fill="Black">C</text><text font-family="Arial Unicode MS,Segoe UI Symbol,Arial" font-size="0.21" font-weight="bold" text-anchor="middle" x="-0.25" y="0.26925" fill="Black">**</text><circle r="0.1" cx="0" cy="0" stroke="none" fill="DeepSkyBlue"/><rect x="-0.546003" y="0.23957" width="1.09201" height="0.260859" stroke="none" fill="White"/><text font-family="Arial" font-size="0.21" font-weight="bold" text-anchor="middle" x="0" y="0.45925" fill="Black">Gvaellekh</text><text font-family="Arial" font-size="0.14" text-anchor="middle" x="0.25" y="0.2395" fill="Black">NaVa</text></g><g transform="translate(-22.5,-73.5) scale(1.1547 1)"><circle transform="translate(0.25,-0.18)" r="0.05" cx="0" cy="0" stroke="none" fill="Black"/><rect x="-0.113084" y="-0.35543" width="0.226167" height="0.260859" stroke="none" fill="White"/><text font-family="Arial" font-size="0.21" font-weight="bold" text-anchor="middle" x="0" y="-0.13575" fill="Black">B</text><circle r="0.1" cx="0" cy="0" stroke="none" fill="DeepSkyBlue"/><rect x="-0.359639" y="0.23957" width="0.719277" height="0.260859" stroke="none" fill="White"/><text font-family="Arial" font-size="0.21" font-weight="bold" text-anchor="middle" x="0" y="0.45925" fill="Black">Sikilar</text></g><g transform="translate(-22.5,-72.5) scale(1.1547 1)"><rect x="-0.113084" y="-0.35543" width="0.226167" height="0.260859" stroke="none" fill="White"/><text font-family="Arial" font-size="0.21" font-weight="bold" text-anchor="middle" x="0" y="-0.13575" fill="Black">C</text><text font-family="Arial Unicode MS,Segoe UI Symbol,Arial" font-size="0.21" font-weight="bold" text-anchor="middle" x="-0.25" y="0.26925" fill="Black">▲</text><circle r="0.1" cx="0" cy="0" stroke="none" fill="DeepSkyBlue"/><rect x="-0.683867" y="0.23957" width="1.36773" height="0.260859" stroke="none" fill="White"/><text font-family="Arial" font-size="0.21" font-weight="bold" text-anchor="middle" x="0" y="0.45925" fill="Black">VAKHONERI</text></g><g transform="translate(-22.5,-71.5) scale(1.1547 1)"><circle transform="translate(0.25,-0.18)" r="0.05" cx="0" cy="0" stroke="none" fill="Black"/><rect x="-0.107136" y="-0.35543" width="0.214273" height="0.260859" stroke="none" fill="White"/><text font-family="Arial" font-size="0.21" font-weight="bold" text-anchor="middle" x="0" y="-0.13575" fill="Black">E</text><circle r="0.1" cx="0" cy="0" stroke="none" fill="DeepSkyBlue"/><rect x="-0.629983" y="0.23957" width="1.25997" height="0.260859" stroke="none" fill="White"/><text font-family="Arial" font-size="0.21" font-weight="bold" text-anchor="middle" x="0" y="0.45925" fill="Black">Suragginsu</text></g><g transform="translate(-22.5,-70.5) scale(1.1547 1)"><circle transform="translate(0.25,-0.18)" r="0.05" cx="0" cy="0" stroke="none" fill="Black"/><rect x="-0.113084" y="-0.35543" width="0.226167" height="0.260859" stroke="none" fill="White"/><text font-family="Arial" font-size="0.21" font-weight="bold" text-anchor="middle" x="0" y="-0.13575" fill="Black">C</text><text font-family="Arial Unicode MS,Segoe UI Symbol,Arial" font-size="0.21" font-weight="bold" text-anchor="middle" x="-0.25" y="0.26925" fill="Black">▲</text><circle r="0.1" cx="0" cy="0" stroke="Black" stroke-width="0.015625" fill="White"/><rect x="-0.317495" y="0.23957" width="0.63499" height="0.260859" stroke="none" fill="White"/><text font-family="Arial" font-size="0.21" font-weight="bold" text-anchor="middle" x="0" y="0.45925" fill="Black">Liwar</text></g><g transform="translate(-21.5,-79) scale(1.1547 1)"><circle transform="translate(0.25,-0.18)" r="0.05" cx="0" cy="0" stroke="none" fill="Black"/><rect x="-0.113084" y="-0.35543" width="0.226167" height="0.260859" stroke="none" fill="White"/><text font-family="Arial" font-size="0.21" font-weight="bold" text-anchor="middle" x="0" y="-0.13575" fill="Black">D</text><circle r="0.1" cx="0" cy="0" stroke="none" fill="DeepSkyBlue"/><rect x="-0.275454" y="0.23957" width="0.550908" height="0.260859" stroke="none" fill="White"/><text font-family="Arial" font-size="0.21" font-weight="bold" text-anchor="middle" x="0" y="0.45925" fill="Black">Erim</text><text font-family="Arial" font-size="0.14" text-anchor="middle" x="0.25" y="0.2395" fill="Black">NaHu</text></g><g transform="translate(-21.5,-78) scale(1.1547 1)"><rect x="-0.113084" y="-0.35543" width="0.226167" height="0.260859" stroke="none" fill="White"/><text font-family="Arial" font-size="0.21" font-weight="bold" text-anchor="middle" x="0" y="-0.13575" fill="Black">C</text><text font-family="Arial Unicode MS,Segoe UI Symbol,Arial" font-size="0.21" font-weight="bold" text-anchor="middle" x="-0.25" y="0.26925" fill="Black">**</text><circle r="0.1" cx="0" cy="0" stroke="Black" stroke-width="0.015625" fill="White"/><rect x="-0.461614" y="0.23957" width="0.923228" height="0.260859" stroke="none" fill="White"/><text font-family="Arial" font-size="0.21" font-weight="bold" text-anchor="middle" x="0" y="0.45925" fill="Black">Anghurr</text><text font-family="Arial" font-size="0.14" text-anchor="middle" x="0.25" y="0.2395" fill="Black">NaVa</text></g><g transform="translate(-21.5,-77) scale(1.1547 1)"><circle transform="translate(0.25,-0.18)" r="0.05" cx="0" cy="0" stroke="none" fill="Black"/><rect x="-0.113084" y="-0.35543" width="0.226167" height="0.260859" stroke="none" fill="White"/><text font-family="Arial" font-size="0.21" font-weight="bold" text-anchor="middle" x="0" y="-0.13575" fill="Black">C</text><circle r="0.1" cx="0" cy="0" stroke="none" fill="DeepSkyBlue"/><rect x="-0.425674" y="0.23957" width="0.851348" height="0.260859" stroke="none" fill="White"/><text font-family="Arial" font-size="0.21" font-weight="bold" text-anchor="middle" x="0" y="0.45925" fill="Black">Angvae</text><text font-family="Arial" font-size="0.14" text-anchor="middle" x="0.25" y="0.2395" fill="Black">CsIm</text></g><g transform="translate(-21.5,-74) scale(1.1547 1)"><circle transform="translate(0.25,-0.18)" r="0.05" cx="0" cy="0" stroke="none" fill="Black"/><rect x="-0.113084" y="-0.35543" width="0.226167" height="0.260859" stroke="none" fill="White"/><text font-family="Arial" font-size="0.21" font-weight="bold" text-anchor="middle" x="0" y="-0.13575" fill="Black">C</text><text font-family="Arial Unicode MS,Segoe UI Symbol,Arial" font-size="0.21" font-weight="bold" text-anchor="middle" x="-0.25" y="0.26925" fill="Black">▲</text><circle r="0.1" cx="0" cy="0" stroke="none" fill="DeepSkyBlue"/><rect x="-0.497759" y="0.23957" width="0.995518" height="0.260859" stroke="none" fill="White"/><text font-family="Arial" font-size="0.21" font-weight="bold" text-anchor="middle" x="0" y="0.45925" fill="Black">Kummus</text></g><g transform="translate(-21.5,-72) scale(1.1547 1)"><circle transform="translate(0.25,-0.18)" r="0.05" cx="0" cy="0" stroke="none" fill="Black"/><rect x="-0.113084" y="-0.35543" width="0.226167" height="0.260859" stroke="none" fill="White"/><text font-family="Arial" font-size="0.21" font-weight="bold" text-anchor="middle" x="0" y="-0.13575" fill="Black">A</text><circle r="0.1" cx="0" cy="0" stroke="none" fill="DeepSkyBlue"/><rect x="-0.503604" y="0.23957" width="1.00721" height="0.260859" stroke="none" fill="White"/><text font-family="Arial" font-size="0.21" font-weight="bold" text-anchor="middle" x="0" y="0.45925" fill="#E32736">VHODAN</text></g><g transform="translate(-20.5,-71.5) scale(1.1547 1)"><circle transform="translate(0.25,-0.18)" r="0.05" cx="0" cy="0" stroke="none" fill="Black"/><rect x="-0.107136" y="-0.35543" width="0.214273" height="0.260859" stroke="none" fill="White"/><text font-family="Arial" font-size="0.21" font-weight="bold" text-anchor="middle" x="0" y="-0.13575" fill="Black">E</text><circle r="0.1" cx="0" cy="0" stroke="none" fill="DeepSkyBlue"/><rect x="-0.672024" y="0.23957" width="1.34405" height="0.260859" stroke="none" fill="White"/><text font-family="Arial" font-size="0.21" font-weight="bold" text-anchor="middle" x="0" y="0.45925" fill="Black">Enpar Konal</text></g><g transform="translate(-19.5,-77) scale(1.1547 1)"><rect x="-0.113084" y="-0.35543" width="0.226167" height="0.260859" stroke="none" fill="White"/><text font-family="Arial" font-size="0.21" font-weight="bold" text-anchor="middle" x="0" y="-0.13575" fill="Black">B</text><circle r="0.1" cx="0" cy="0" stroke="none" fill="DeepSkyBlue"/><rect x="-0.40168" y="0.23957" width="0.803359" height="0.260859" stroke="none" fill="White"/><text font-family="Arial" font-size="0.21" font-weight="bold" text-anchor="middle" x="0" y="0.45925" fill="Black">Deraan</text><text font-family="Arial" font-size="0.14" text-anchor="middle" x="0.25" y="0.2395" fill="Black">NaHu</text></g><g transform="translate(-19.5,-75) scale(1.1547 1)"><circle transform="translate(0.25,-0.18)" r="0.05" cx="0" cy="0" stroke="none" fill="Black"/><rect x="-0.113084" y="-0.35543" width="0.226167" height="0.260859" stroke="none" fill="White"/><text font-family="Arial" font-size="0.21" font-weight="bold" text-anchor="middle" x="0" y="-0.13575" fill="Black">B</text><circle r="0.1" cx="0" cy="0" stroke="none" fill="DeepSkyBlue"/><rect x="-0.347437" y="0.23957" width="0.694873" height="0.260859" stroke="none" fill="White"/><text font-family="Arial" font-size="0.21" font-weight="bold" text-anchor="middle" x="0" y="0.45925" fill="Black">Diiron</text></g><g transform="translate(-19.5,-74) scale(1.1547 1)"><circle transform="translate(0.25,-0.18)" r="0.05" cx="0" cy="0" stroke="none" fill="Black"/><rect x="-0.113084" y="-0.35543" width="0.226167" height="0.260859" stroke="none" fill="White"/><text font-family="Arial" font-size="0.21" font-weight="bold" text-anchor="middle" x="0" y="-0.13575" fill="Black">B</text><text font-family="Arial Unicode MS,Segoe UI Symbol,Arial" font-size="0.21" font-weight="bold" text-anchor="middle" x="-0.25" y="-0.09075" fill="Black">★</text><text font-family="Arial Unicode MS,Segoe UI Symbol,Arial" font-size="0.21" font-weight="bold" text-anchor="middle" x="-0.25" y="0.26925" fill="Black">▲</text><circle r="0.1" cx="0" cy="0" stroke="none" fill="DeepSkyBlue"/><rect x="-0.323442" y="0.23957" width="0.646885" height="0.260859" stroke="none" fill="White"/><text font-family="Arial" font-size="0.21" font-weight="bold" text-anchor="middle" x="0" y="0.45925" fill="Black">Timat</text></g><g transform="translate(-19.5,-73) scale(1.1547 1)"><circle transform="translate(0.25,-0.18)" r="0.05" cx="0" cy="0" stroke="none" fill="Black"/><rect x="-0.107136" y="-0.35543" width="0.214273" height="0.260859" stroke="none" fill="White"/><text font-family="Arial" font-size="0.21" font-weight="bold" text-anchor="middle" x="0" y="-0.13575" fill="Black">E</text><circle r="0.1" cx="0" cy="0" stroke="none" fill="DeepSkyBlue"/><rect x="-0.623728" y="0.23957" width="1.24746" height="0.260859" stroke="none" fill="White"/><text font-family="Arial" font-size="0.21" font-weight="bold" text-anchor="middle" x="0" y="0.45925" fill="Black">GUUSIMKA</text></g><g transform="translate(-19.5,-72) scale(1.1547 1)"><circle transform="translate(0.25,-0.18)" r="0.05" cx="0" cy="0" stroke="none" fill="Black"/><rect x="-0.113084" y="-0.35543" width="0.226167" height="0.260859" stroke="none" fill="White"/><text font-family="Arial" font-size="0.21" font-weight="bold" text-anchor="middle" x="0" y="-0.13575" fill="Black">B</text><text font-family="Arial Unicode MS,Segoe UI Symbol,Arial" font-size="0.21" font-weight="bold" text-anchor="middle" x="-0.25" y="-0.09075" fill="Black">★</text><circle r="0.1" cx="0" cy="0" stroke="none" fill="DeepSkyBlue"/><rect x="-0.437415" y="0.23957" width="0.874829" height="0.260859" stroke="none" fill="White"/><text font-family="Arial" font-size="0.21" font-weight="bold" text-anchor="middle" x="0" y="0.45925" fill="Black">MARAN</text></g><g transform="translate(-19.5,-70) scale(1.1547 1)"><rect x="-0.113084" y="-0.35543" width="0.226167" height="0.260859" stroke="none" fill="White"/><text font-family="Arial" font-size="0.21" font-weight="bold" text-anchor="middle" x="0" y="-0.13575" fill="Black">C</text><text font-family="Arial Unicode MS,Segoe UI Symbol,Arial" font-size="0.21" font-weight="bold" text-anchor="middle" x="-0.25" y="0.26925" fill="Black">▲</text><circle r="0.1" cx="0" cy="0" stroke="Black" stroke-width="0.015625" fill="White"/><rect x="-0.449668" y="0.23957" width="0.899336" height="0.260859" stroke="none" fill="White"/><text font-family="Arial" font-size="0.21" font-weight="bold" text-anchor="middle" x="0" y="0.45925" fill="Black">Zentove</text></g><g transform="translate(-18.5,-75.5) scale(1.1547 1)"><circle transform="translate(0.25,-0.18)" r="0.05" cx="0" cy="0" stroke="none" fill="Black"/><rect x="-0.113084" y="-0.35543" width="0.226167" height="0.260859" stroke="none" fill="White"/><text font-family="Arial" font-size="0.21" font-weight="bold" text-anchor="middle" x="0" y="-0.13575" fill="Black">A</text><circle r="0.1" cx="0" cy="0" stroke="Black" stroke-width="0.015625" fill="White"/><rect x="-0.467715" y="0.23957" width="0.93543" height="0.260859" stroke="none" fill="White"/><text font-family="Arial" font-size="0.21" font-weight="bold" text-anchor="middle" x="0" y="0.45925" fill="Black">Odinaga</text></g><g transform="translate(-18.5,-71.5) scale(1.1547 1)"><circle transform="translate(0.25,-0.18)" r="0.05" cx="0" cy="0" stroke="none" fill="Black"/><rect x="-0.113084" y="-0.35543" width="0.226167" height="0.260859" stroke="none" fill="White"/><text font-family="Arial" font-size="0.21" font-weight="bold" text-anchor="middle" x="0" y="-0.13575" fill="Black">A</text><circle r="0.1" cx="0" cy="0" stroke="none" fill="DeepSkyBlue"/><rect x="-0.563794" y="0.23957" width="1.12759" height="0.260859" stroke="none" fill="White"/><text font-family="Arial" font-size="0.21" font-weight="bold" text-anchor="middle" x="0" y="0.45925" fill="Black">Audhumla</text></g><g transform="translate(-17.5,-76) scale(1.1547 1)"><circle transform="translate(0.25,-0.18)" r="0.05" cx="0" cy="0" stroke="none" fill="Black"/><rect x="-0.113084" y="-0.35543" width="0.226167" height="0.260859" stroke="none" fill="White"/><text font-family="Arial" font-size="0.21" font-weight="bold" text-anchor="middle" x="0" y="-0.13575" fill="Black">B</text><ellipse rx="0.0277763" ry="0.025639" cx="-0.07" cy="-0.07" stroke="none" fill="Black"/><ellipse rx="0.0212538" ry="0.0301878" cx="0.07" cy="-0.07" stroke="none" fill="Black"/><ellipse rx="0.0235365" ry="0.0324508" cx="-0.105" cy="0" stroke="none" fill="Black"/><ellipse rx="0.0276849" ry="0.0228606" cx="-0.035" cy="0" stroke="none" fill="Black"/><ellipse rx="0.0301939" ry="0.0329265" cx="0.035" cy="0" stroke="none" fill="Black"/><ellipse rx="0.0262293" ry="0.0221088" cx="0.105" cy="0" stroke="none" fill="Black"/><ellipse rx="0.0255704" ry="0.0323465" cx="0.07" cy="0.07" stroke="none" fill="Black"/><rect x="-0.59394" y="0.23957" width="1.18788" height="0.260859" stroke="none" fill="White"/><text font-family="Arial" font-size="0.21" font-weight="bold" text-anchor="middle" x="0" y="0.45925" fill="Black">Gamgilebo</text><text font-family="Arial" font-size="0.14" text-anchor="middle" x="0.25" y="0.2395" fill="Black">CsIm</text></g><g transform="translate(-17.5,-74) scale(1.1547 1)"><rect x="-0.113084" y="-0.35543" width="0.226167" height="0.260859" stroke="none" fill="White"/><text font-family="Arial" font-size="0.21" font-weight="bold" text-anchor="middle" x="0" y="-0.13575" fill="Black">C</text><circle r="0.1" cx="0" cy="0" stroke="Black" stroke-width="0.015625" fill="White"/><rect x="-0.407627" y="0.23957" width="0.815254" height="0.260859" stroke="none" fill="White"/><text font-family="Arial" font-size="0.21" font-weight="bold" text-anchor="middle" x="0" y="0.45925" fill="Black">Dannar</text></g><g transform="translate(-17.5,-72) scale(1.1547 1)"><circle transform="translate(0.25,-0.18)" r="0.05" cx="0" cy="0" stroke="none" fill="Black"/><rect x="-0.107136" y="-0.35543" width="0.214273" height="0.260859" stroke="none" fill="White"/><text font-family="Arial" font-size="0.21" font-weight="bold" text-anchor="middle" x="0" y="-0.13575" fill="Black">E</text><circle r="0.1" cx="0" cy="0" stroke="none" fill="DeepSkyBlue"/><rect x="-0.329441" y="0.23957" width="0.658882" height="0.260859" stroke="none" fill="White"/><text font-family="Arial" font-size="0.21" font-weight="bold" text-anchor="middle" x="0" y="0.45925" fill="Black">Riinel</text></g><g transform="translate(-17.5,-71) scale(1.1547 1)"><circle transform="translate(0.25,-0.18)" r="0.05" cx="0" cy="0" stroke="none" fill="Black"/><rect x="-0.113084" y="-0.35543" width="0.226167" height="0.260859" stroke="none" fill="White"/><text font-family="Arial" font-size="0.21" font-weight="bold" text-anchor="middle" x="0" y="-0.13575" fill="Black">C</text><text font-family="Arial Unicode MS,Segoe UI Symbol,Arial" font-size="0.21" font-weight="bold" text-anchor="middle" x="-0.25" y="0.26925" fill="Black">▲</text><circle r="0.1" cx="0" cy="0" stroke="Black" stroke-width="0.015625" fill="White"/><rect x="-0.515908" y="0.23957" width="1.03182" height="0.260859" stroke="none" fill="White"/><text font-family="Arial" font-size="0.21" font-weight="bold" text-anchor="middle" x="0" y="0.45925" fill="Black">Sakkuum</text></g></g></svg>