<?xml version = "1.0" encoding="utf-8"?>
<svg version="1.1" baseProfile="full" xmlns="http://www.w3.org/2000/svg" xmlns:xlink="http://www.w3.org/1999/xlink" width="471" height="684" viewBox="0 0 471 684" clip="0 471 0 684"><defs><clipPath id="did1"><rect x="78.75" y="-10.1" width="8.5" height="10.7"/></clipPath><clipPath id="did2"><path d="M62.1667,-39.5l-0.333336,-0.5l0.333336,-0.5h0.666664l0.333336,-0.5h0.666664l0.333332,0.5h0.666672l0.333328,-0.5h0.666672l0.333328,0.5h0.666672l0.333328,-0.5h0.666672l0.333328,0.5h0.666672l0.333328,-0.5h0.666672l0.333328,0.5h0.666672l0.333328,-0.5h0.666672l0.333328,0.5h0.666672l0.333328,-0.5h0.666672l0.333328,0.5h0.666672l0.333328,-0.5h0.666672l0.333328,0.5h0.666672l0.333328,-0.5h0.666672l0.333328,0.5h0.666672l0.333328,-0.5h0.666672l0.333328,0.5h0.666672l0.333328,-0.5h0.666672l0.333328,0.5l-0.333328,0.5h-0.666672l-0.333328,0.5h-0.666672l-0.333328,0.5l0.333328,0.5l-0.333328,0.5l0.333328,0.5l-0.333328,0.5l0.333328,0.5h0.666672l0.333328,0.5l-0.333328,0.5h-0.666672l-0.333328,0.5l0.333328,0.5l-0.333328,0.5l0.333328,0.5l-0.333328,0.5l0.333328,0.5h0.666672l0.333328,0.5h0.666672l0.333328,0.5h0.666672l0.333328,0.5l-0.333328,0.5l0.333328,0.5l-0.333328,0.5l0.333328,0.5l-0.333328,0.5l0.333328,0.5h0.666672l0.333328,0.5h0.666672l0.333328,-0.5h0.666672l0.333328,0.5h0.666672l0.333328,-0.5h0.666672l0.333328,0.5l-0.333328,0.5l0.333328,0.5h0.666672l0.333328,0.5l-0.333328,0.5h-0.666672l-0.333328,0.5h-0.666672l-0.333328,0.5h-0.666672l-0.333328,0.5l0.333328,0.5l-0.333328,0.5l0.333328,0.5l-0.333328,0.5l0.333328,0.5l-0.333328,0.5l0.333328,0.5l-0.333328,0.5l0.333328,0.5h0.666672l0.333328,-0.5h0.666672l0.333328,0.5l-0.333328,0.5l0.333328,0.5l-0.333328,0.5l0.333328,0.5h0.666672l0.333328,0.5h0.666672l0.333328,0.5l-0.333328,0.5h-0.666672l-0.333328,0.5h-0.666672l-0.333328,0.5h-0.666672l-0.333328,0.5h-0.666672l-0.333328,0.5l0.333328,0.5l-0.333328,0.5h-0.666672l-0.333328,0.5h-0.666672l-0.333328,0.5l0.333328,0.5l-0.333328,0.5l0.333328,0.5l-0.333328,0.5l0.333328,0.5l-0.333328,0.5l0.333328,0.5l-0.333328,0.5l0.333328,0.5l-0.333328,0.5l0.333328,0.5l-0.333328,0.5l0.333328,0.5l-0.333328,0.5l0.333328,0.5h0.666672l0.333328,-0.5h0.666672l0.333328,-0.5h0.666672l0.333328,0.5l-0.333328,0.5h-0.666672l-0.333328,0.5h-0.666672l-0.333328,0.5h-0.666672l-0.333328,0.5l0.333328,0.5l-0.333328,0.5l0.333328,0.5h0.666672l0.333328,0.5l-0.333328,0.5h-0.666672l-0.333328,-0.5h-0.666672l-0.333328,-0.5h-0.666672l-0.333328,0.5h-0.666672l-0.333328,0.5h-0.666672l-0.333328,0.5l0.333328,0.5l-0.333328,0.5h-0.666672l-0.333328,0.5h-0.666672l-0.333328,-0.5h-0.666672l-0.333328,0.5h-0.666672l-0.333328,-0.5h-0.666672l-0.333328,0.5h-0.666672l-0.333328,-0.5h-0.666672l-0.333328,0.5h-0.666672l-0.333328,-0.5l0.333328,-0.5l-0.333328,-0.5l0.333328,-0.5l-0.333328,-0.5l0.333328,-0.5l-0.333328,-0.5h-0.666672l-0.333328,-0.5l0.333328,-0.5l-0.333328,-0.5l0.333328,-0.5l-0.333328,-0.5h-0.666672l-0.333328,-0.5h-0.666672l-0.333328,-0.5h-0.666672l-0.333328,-0.5h-0.666672l-0.333328,0.5h-0.666672l-0.333328,0.5l0.333328,0.5l-0.333328,0.5h-0.666672l-0.333328,0.5l0.333328,0.5l-0.333328,0.5h-0.666672l-0.333332,0.5l0.333332,0.5l-0.333332,0.5h-0.666664l-0.333336,-0.5h-0.666664l-0.333336,-0.5l0.333336,-0.5l-0.333336,-0.5l0.333336,-0.5l-0.333336,-0.5l0.333336,-0.5l-0.333336,-0.5l0.333336,-0.5l-0.333336,-0.5l0.333336,-0.5l-0.333336,-0.5l0.333336,-0.5l-0.333336,-0.5l0.333336,-0.5l-0.333336,-0.5l0.333336,-0.5l-0.333336,-0.5l0.333336,-0.5l-0.333336,-0.5l0.333336,-0.5l-0.333336,-0.5l0.333336,-0.5l-0.333336,-0.5l0.333336,-0.5l-0.333336,-0.5l0.333336,-0.5l-0.333336,-0.5l0.333336,-0.5l-0.333336,-0.5l0.333336,-0.5l-0.333336,-0.5l0.333336,-0.5l-0.333336,-0.5l0.333336,-0.5l-0.333336,-0.5l0.333336,-0.5l-0.333336,-0.5l0.333336,-0.5l-0.333336,-0.5l0.333336,-0.5l-0.333336,-0.5l0.333336,-0.5l-0.333336,-0.5l0.333336,-0.5l-0.333336,-0.5l0.333336,-0.5l-0.333336,-0.5l0.333336,-0.5l-0.333336,-0.5l0.333336,-0.5l-0.333336,-0.5l0.333336,-0.5l-0.333336,-0.5l0.333336,-0.5l-0.333336,-0.5l0.333336,-0.5l-0.333336,-0.5l0.333336,-0.5l-0.333336,-0.5l0.333336,-0.5l-0.333336,-0.5l0.333336,-0.5l-0.333336,-0.5l0.333336,-0.5l-0.333336,-0.5l0.333336,-0.5l-0.333336,-0.5l0.333336,-0.5l-0.333336,-0.5l0.333336,-0.5l-0.333336,-0.5l0.333336,-0.5l-0.333336,-0.5l0.333336,-0.5l-0.333336,-0.5Z"/></clipPath><clipPath id="did3"><path d="M64.1667,-26.5l-0.333332,-0.5l0.333332,-0.5h0.666672l0.333328,-0.5l-0.333328,-0.5l0.333328,-0.5l-0.333328,-0.5l0.333328,-0.5l-0.333328,-0.5l0.333328,-0.5h0.666672l0.333328,-0.5l-0.333328,-0.5l0.333328,-0.5h0.666672l0.333328,-0.5h0.666672l0.333328,0.5h0.666672l0.333328,0.5h0.666672l0.333328,0.5h0.666672l0.333328,0.5h0.666672l0.333328,0.5h0.666672l0.333328,-0.5h0.666672l0.333328,-0.5h0.666672l0.333328,0.5l-0.333328,0.5l0.333328,0.5h0.666672l0.333328,0.5l-0.333328,0.5l0.333328,0.5l-0.333328,0.5l0.333328,0.5h0.666672l0.333328,0.5l-0.333328,0.5l0.333328,0.5l-0.333328,0.5l0.333328,0.5l-0.333328,0.5l0.333328,0.5l-0.333328,0.5l0.333328,0.5l-0.333328,0.5h-0.666672l-0.333328,0.5h-0.666672l-0.333328,0.5h-0.666672l-0.333328,-0.5l0.333328,-0.5l-0.333328,-0.5h-0.666672l-0.333328,-0.5h-0.666672l-0.333328,-0.5h-0.666672l-0.333328,0.5l0.333328,0.5l-0.333328,0.5h-0.666672l-0.333328,-0.5l0.333328,-0.5l-0.333328,-0.5h-0.666672l-0.333328,-0.5h-0.666672l-0.333328,-0.5h-0.666672l-0.333328,0.5h-0.666672l-0.333328,0.5h-0.666672l-0.333328,-0.5l0.333328,-0.5l-0.333328,-0.5h-0.666672l-0.333332,-0.5Z"/></clipPath><clipPath id="did4"><path d="M87.1667,-10l-0.333328,-0.5l0.333328,-0.5h0.666672l0.333328,-0.5h0.666672l0.333328,-0.5l-0.333328,-0.5l0.333328,-0.5l-0.333328,-0.5l0.333328,-0.5h0.666672l0.333328,0.5h0.666672l0.333328,-0.5h0.666672l0.333328,-0.5h0.666672l0.333328,0.5h0.666672l0.333328,-0.5h0.666672l0.333328,0.5l-0.333328,0.5h-0.666672l-0.333328,0.5h-0.666672l-0.333328,0.5h-0.666672l-0.333328,0.5h-0.666672l-0.333328,0.5l0.333328,0.5l-0.333328,0.5h-0.666672l-0.333328,0.5h-0.666672l-0.333328,0.5h-0.666672l-0.333328,-0.5Z"/></clipPath><clipPath id="did5"><rect x="78.75" y="-10.1" width="8.5" height="10.7"/></clipPath><clipPath id="did6"><rect x="78.75" y="-10.1" width="8.5" height="10.7"/></clipPath></defs><g fill="None" stroke="None" transform="matrix(1,0,0,1,0,0) matrix(55.4256,0,0,64,-4364.77,646.4)"><g clip-path="url(#did1)"><rect x="77.9" y="-11.17" width="10.2" height="12.84" stroke="none" fill="White"/><path d="M76.8333,-11.5v0l0.333328,0.5h0.666672l0.333328,-0.5" stroke="#808080" stroke-width="0.015625" fill="none"/><path d="M76.8333,-10.5v0l0.333328,0.5h0.666672l0.333328,-0.5" stroke="#808080" stroke-width="0.015625" fill="none"/><path d="M76.8333,-9.5v0l0.333328,0.5h0.666672l0.333328,-0.5" stroke="#808080" stroke-width="0.015625" fill="none"/><path d="M76.8333,-8.5v0l0.333328,0.5h0.666672l0.333328,-0.5" stroke="#808080" stroke-width="0.015625" fill="none"/><path d="M76.8333,-7.5v0l0.333328,0.5h0.666672l0.333328,-0.5" stroke="#808080" stroke-width="0.015625" fill="none"/><path d="M76.8333,-6.5v0l0.333328,0.5h0.666672l0.333328,-0.5" stroke="#808080" stroke-width="0.015625" fill="none"/><path d="M76.8333,-5.5v0l0.333328,0.5h0.666672l0.333328,-0.5" stroke="#808080" stroke-width="0.015625" fill="none"/><path d="M76.8333,-4.5v0l0.333328,0.5h0.666672l0.333328,-0.5" stroke="#808080" stroke-width="0.015625" fill="none"/><path d="M76.8333,-3.5v0l0.333328,0.5h0.666672l0.333328,-0.5" stroke="#808080" stroke-width="0.015625" fill="none"/><path d="M76.8333,-2.5v0l0.333328,0.5h0.666672l0.333328,-0.5" stroke="#808080" stroke-width="0.015625" fill="none"/><path d="M76.8333,-1.5v0l0.333328,0.5h0.666672l0.333328,-0.5" stroke="#808080" stroke-width="0.015625" fill="none"/><path d="M76.8333,-0.5v0l0.333328,0.5h0.666672l0.333328,-0.5" stroke="#808080" stroke-width="0.015625" fill="none"/><path d="M76.8333,0.5v0l0.333328,0.5h0.666672l0.333328,-0.5" stroke="#808080" stroke-width="0.015625" fill="none"/><path d="M77.8333,-11v0l0.333328,0.5h0.666672l0.333328,-0.5" stroke="#808080" stroke-width="0.015625" fill="none"/><path d="M77.8333,-10v0l0.333328,0.5h0.666672l0.333328,-0.5" stroke="#808080" stroke-width="0.015625" fill="none"/><path d="M77.8333,-9v0l0.333328,0.5h0.666672l0.333328,-0.5" stroke="#808080" stroke-width="0.015625" fill="none"/><path d="M77.8333,-8v0l0.333328,0.5h0.666672l0.333328,-0.5" stroke="#808080" stroke-width="0.015625" fill="none"/><path d="M77.8333,-7v0l0.333328,0.5h0.666672l0.333328,-0.5" stroke="#808080" stroke-width="0.015625" fill="none"/><path d="M77.8333,-6v0l0.333328,0.5h0.666672l0.333328,-0.5" stroke="#808080" stroke-width="0.015625" fill="none"/><path d="M77.8333,-5v0l0.333328,0.5h0.666672l0.333328,-0.5" stroke="#808080" stroke-width="0.015625" fill="none"/><path d="M77.8333,-4v0l0.333328,0.5h0.666672l0.333328,-0.5" stroke="#808080" stroke-width="0.015625" fill="none"/><path d="M77.8333,-3v0l0.333328,0.5h0.666672l0.333328,-0.5" stroke="#808080" stroke-width="0.015625" fill="none"/><path d="M77.8333,-2v0l0.333328,0.5h0.666672l0.333328,-0.5" stroke="#808080" stroke-width="0.015625" fill="none"/><path d="M77.8333,-1v0l0.333328,0.5h0.666672l0.333328,-0.5" stroke="#808080" stroke-width="0.015625" fill="none"/><path d="M77.8333,0v0l0.333328,0.5h0.666672l0.333328,-0.5" stroke="#808080" stroke-width="0.015625" fill="none"/><path d="M77.8333,1v0l0.333328,0.5h0.666672l0.333328,-0.5" stroke="#808080" stroke-width="0.015625" fill="none"/><path d="M78.8333,-11.5v0l0.333328,0.5h0.666672l0.333328,-0.5" stroke="#808080" stroke-width="0.015625" fill="none"/><path d="M78.8333,-10.5v0l0.333328,0.5h0.666672l0.333328,-0.5" stroke="#808080" stroke-width="0.015625" fill="none"/><path d="M78.8333,-9.5v0l0.333328,0.5h0.666672l0.333328,-0.5" stroke="#808080" stroke-width="0.015625" fill="none"/><path d="M78.8333,-8.5v0l0.333328,0.5h0.666672l0.333328,-0.5" stroke="#808080" stroke-width="0.015625" fill="none"/><path d="M78.8333,-7.5v0l0.333328,0.5h0.666672l0.333328,-0.5" stroke="#808080" stroke-width="0.015625" fill="none"/><path d="M78.8333,-6.5v0l0.333328,0.5h0.666672l0.333328,-0.5" stroke="#808080" stroke-width="0.015625" fill="none"/><path d="M78.8333,-5.5v0l0.333328,0.5h0.666672l0.333328,-0.5" stroke="#808080" stroke-width="0.015625" fill="none"/><path d="M78.8333,-4.5v0l0.333328,0.5h0.666672l0.333328,-0.5" stroke="#808080" stroke-width="0.015625" fill="none"/><path d="M78.8333,-3.5v0l0.333328,0.5h0.666672l0.333328,-0.5" stroke="#808080" stroke-width="0.015625" fill="none"/><path d="M78.8333,-2.5v0l0.333328,0.5h0.666672l0.333328,-0.5" stroke="#808080" stroke-width="0.015625" fill="none"/><path d="M78.8333,-1.5v0l0.333328,0.5h0.666672l0.333328,-0.5" stroke="#808080" stroke-width="0.015625" fill="none"/><path d="M78.8333,-0.5v0l0.333328,0.5h0.666672l0.333328,-0.5" stroke="#808080" stroke-width="0.015625" fill="none"/><path d="M78.8333,0.5v0l0.333328,0.5h0.666672l0.333328,-0.5" stroke="#808080" stroke-width="0.015625" fill="none"/><path d="M79.8333,-11v0l0.333328,0.5h0.666672l0.333328,-0.5" stroke="#808080" stroke-width="0.015625" fill="none"/><path d="M79.8333,-10v0l0.333328,0.5h0.666672l0.333328,-0.5" stroke="#808080" stroke-width="0.015625" fill="none"/><path d="M79.8333,-9v0l0.333328,0.5h0.666672l0.333328,-0.5" stroke="#808080" stroke-width="0.015625" fill="none"/><path d="M79.8333,-8v0l0.333328,0.5h0.666672l0.333328,-0.5" stroke="#808080" stroke-width="0.015625" fill="none"/><path d="M79.8333,-7v0l0.333328,0.5h0.666672l0.333328,-0.5" stroke="#808080" stroke-width="0.015625" fill="none"/><path d="M79.8333,-6v0l0.333328,0.5h0.666672l0.333328,-0.5" stroke="#808080" stroke-width="0.015625" fill="none"/><path d="M79.8333,-5v0l0.333328,0.5h0.666672l0.333328,-0.5" stroke="#808080" stroke-width="0.015625" fill="none"/><path d="M79.8333,-4v0l0.333328,0.5h0.666672l0.333328,-0.5" stroke="#808080" stroke-width="0.015625" fill="none"/><path d="M79.8333,-3v0l0.333328,0.5h0.666672l0.333328,-0.5" stroke="#808080" stroke-width="0.015625" fill="none"/><path d="M79.8333,-2v0l0.333328,0.5h0.666672l0.333328,-0.5" stroke="#808080" stroke-width="0.015625" fill="none"/><path d="M79.8333,-1v0l0.333328,0.5h0.666672l0.333328,-0.5" stroke="#808080" stroke-width="0.015625" fill="none"/><path d="M79.8333,0v0l0.333328,0.5h0.666672l0.333328,-0.5" stroke="#808080" stroke-width="0.015625" fill="none"/><path d="M79.8333,1v0l0.333328,0.5h0.666672l0.333328,-0.5" stroke="#808080" stroke-width="0.015625" fill="none"/><path d="M80.8333,-11.5v0l0.333328,0.5h0.666672l0.333328,-0.5" stroke="#808080" stroke-width="0.015625" fill="none"/><path d="M80.8333,-10.5v0l0.333328,0.5h0.666672l0.333328,-0.5" stroke="#808080" stroke-width="0.015625" fill="none"/><path d="M80.8333,-9.5v0l0.333328,0.5h0.666672l0.333328,-0.5" stroke="#808080" stroke-width="0.015625" fill="none"/><path d="M80.8333,-8.5v0l0.333328,0.5h0.666672l0.333328,-0.5" stroke="#808080" stroke-width="0.015625" fill="none"/><path d="M80.8333,-7.5v0l0.333328,0.5h0.666672l0.333328,-0.5" stroke="#808080" stroke-width="0.015625" fill="none"/><path d="M80.8333,-6.5v0l0.333328,0.5h0.666672l0.333328,-0.5" stroke="#808080" stroke-width="0.015625" fill="none"/><path d="M80.8333,-5.5v0l0.333328,0.5h0.666672l0.333328,-0.5" stroke="#808080" stroke-width="0.015625" fill="none"/><path d="M80.8333,-4.5v0l0.333328,0.5h0.666672l0.333328,-0.5" stroke="#808080" stroke-width="0.015625" fill="none"/><path d="M80.8333,-3.5v0l0.333328,0.5h0.666672l0.333328,-0.5" stroke="#808080" stroke-width="0.015625" fill="none"/><path d="M80.8333,-2.5v0l0.333328,0.5h0.666672l0.333328,-0.5" stroke="#808080" stroke-width="0.015625" fill="none"/><path d="M80.8333,-1.5v0l0.333328,0.5h0.666672l0.333328,-0.5" stroke="#808080" stroke-width="0.015625" fill="none"/><path d="M80.8333,-0.5v0l0.333328,0.5h0.666672l0.333328,-0.5" stroke="#808080" stroke-width="0.015625" fill="none"/><path d="M80.8333,0.5v0l0.333328,0.5h0.666672l0.333328,-0.5" stroke="#808080" stroke-width="0.015625" fill="none"/><path d="M81.8333,-11v0l0.333328,0.5h0.666672l0.333328,-0.5" stroke="#808080" stroke-width="0.015625" fill="none"/><path d="M81.8333,-10v0l0.333328,0.5h0.666672l0.333328,-0.5" stroke="#808080" stroke-width="0.015625" fill="none"/><path d="M81.8333,-9v0l0.333328,0.5h0.666672l0.333328,-0.5" stroke="#808080" stroke-width="0.015625" fill="none"/><path d="M81.8333,-8v0l0.333328,0.5h0.666672l0.333328,-0.5" stroke="#808080" stroke-width="0.015625" fill="none"/><path d="M81.8333,-7v0l0.333328,0.5h0.666672l0.333328,-0.5" stroke="#808080" stroke-width="0.015625" fill="none"/><path d="M81.8333,-6v0l0.333328,0.5h0.666672l0.333328,-0.5" stroke="#808080" stroke-width="0.015625" fill="none"/><path d="M81.8333,-5v0l0.333328,0.5h0.666672l0.333328,-0.5" stroke="#808080" stroke-width="0.015625" fill="none"/><path d="M81.8333,-4v0l0.333328,0.5h0.666672l0.333328,-0.5" stroke="#808080" stroke-width="0.015625" fill="none"/><path d="M81.8333,-3v0l0.333328,0.5h0.666672l0.333328,-0.5" stroke="#808080" stroke-width="0.015625" fill="none"/><path d="M81.8333,-2v0l0.333328,0.5h0.666672l0.333328,-0.5" stroke="#808080" stroke-width="0.015625" fill="none"/><path d="M81.8333,-1v0l0.333328,0.5h0.666672l0.333328,-0.5" stroke="#808080" stroke-width="0.015625" fill="none"/><path d="M81.8333,0v0l0.333328,0.5h0.666672l0.333328,-0.5" stroke="#808080" stroke-width="0.015625" fill="none"/><path d="M81.8333,1v0l0.333328,0.5h0.666672l0.333328,-0.5" stroke="#808080" stroke-width="0.015625" fill="none"/><path d="M82.8333,-11.5v0l0.333328,0.5h0.666672l0.333328,-0.5" stroke="#808080" stroke-width="0.015625" fill="none"/><path d="M82.8333,-10.5v0l0.333328,0.5h0.666672l0.333328,-0.5" stroke="#808080" stroke-width="0.015625" fill="none"/><path d="M82.8333,-9.5v0l0.333328,0.5h0.666672l0.333328,-0.5" stroke="#808080" stroke-width="0.015625" fill="none"/><path d="M82.8333,-8.5v0l0.333328,0.5h0.666672l0.333328,-0.5" stroke="#808080" stroke-width="0.015625" fill="none"/><path d="M82.8333,-7.5v0l0.333328,0.5h0.666672l0.333328,-0.5" stroke="#808080" stroke-width="0.015625" fill="none"/><path d="M82.8333,-6.5v0l0.333328,0.5h0.666672l0.333328,-0.5" stroke="#808080" stroke-width="0.015625" fill="none"/><path d="M82.8333,-5.5v0l0.333328,0.5h0.666672l0.333328,-0.5" stroke="#808080" stroke-width="0.015625" fill="none"/><path d="M82.8333,-4.5v0l0.333328,0.5h0.666672l0.333328,-0.5" stroke="#808080" stroke-width="0.015625" fill="none"/><path d="M82.8333,-3.5v0l0.333328,0.5h0.666672l0.333328,-0.5" stroke="#808080" stroke-width="0.015625" fill="none"/><path d="M82.8333,-2.5v0l0.333328,0.5h0.666672l0.333328,-0.5" stroke="#808080" stroke-width="0.015625" fill="none"/><path d="M82.8333,-1.5v0l0.333328,0.5h0.666672l0.333328,-0.5" stroke="#808080" stroke-width="0.015625" fill="none"/><path d="M82.8333,-0.5v0l0.333328,0.5h0.666672l0.333328,-0.5" stroke="#808080" stroke-width="0.015625" fill="none"/><path d="M82.8333,0.5v0l0.333328,0.5h0.666672l0.333328,-0.5" stroke="#808080" stroke-width="0.015625" fill="none"/><path d="M83.8333,-11v0l0.333328,0.5h0.666672l0.333328,-0.5" stroke="#808080" stroke-width="0.015625" fill="none"/><path d="M83.8333,-10v0l0.333328,0.5h0.666672l0.333328,-0.5" stroke="#808080" stroke-width="0.015625" fill="none"/><path d="M83.8333,-9v0l0.333328,0.5h0.666672l0.333328,-0.5" stroke="#808080" stroke-width="0.015625" fill="none"/><path d="M83.8333,-8v0l0.333328,0.5h0.666672l0.333328,-0.5" stroke="#808080" stroke-width="0.015625" fill="none"/><path d="M83.8333,-7v0l0.333328,0.5h0.666672l0.333328,-0.5" stroke="#808080" stroke-width="0.015625" fill="none"/><path d="M83.8333,-6v0l0.333328,0.5h0.666672l0.333328,-0.5" stroke="#808080" stroke-width="0.015625" fill="none"/><path d="M83.8333,-5v0l0.333328,0.5h0.666672l0.333328,-0.5" stroke="#808080" stroke-width="0.015625" fill="none"/><path d="M83.8333,-4v0l0.333328,0.5h0.666672l0.333328,-0.5" stroke="#808080" stroke-width="0.015625" fill="none"/><path d="M83.8333,-3v0l0.333328,0.5h0.666672l0.333328,-0.5" stroke="#808080" stroke-width="0.015625" fill="none"/><path d="M83.8333,-2v0l0.333328,0.5h0.666672l0.333328,-0.5" stroke="#808080" stroke-width="0.015625" fill="none"/><path d="M83.8333,-1v0l0.333328,0.5h0.666672l0.333328,-0.5" stroke="#808080" stroke-width="0.015625" fill="none"/><path d="M83.8333,0v0l0.333328,0.5h0.666672l0.333328,-0.5" stroke="#808080" stroke-width="0.015625" fill="none"/><path d="M83.8333,1v0l0.333328,0.5h0.666672l0.333328,-0.5" stroke="#808080" stroke-width="0.015625" fill="none"/><path d="M84.8333,-11.5v0l0.333328,0.5h0.666672l0.333328,-0.5" stroke="#808080" stroke-width="0.015625" fill="none"/><path d="M84.8333,-10.5v0l0.333328,0.5h0.666672l0.333328,-0.5" stroke="#808080" stroke-width="0.015625" fill="none"/><path d="M84.8333,-9.5v0l0.333328,0.5h0.666672l0.333328,-0.5" stroke="#808080" stroke-width="0.015625" fill="none"/><path d="M84.8333,-8.5v0l0.333328,0.5h0.666672l0.333328,-0.5" stroke="#808080" stroke-width="0.015625" fill="none"/><path d="M84.8333,-7.5v0l0.333328,0.5h0.666672l0.333328,-0.5" stroke="#808080" stroke-width="0.015625" fill="none"/><path d="M84.8333,-6.5v0l0.333328,0.5h0.666672l0.333328,-0.5" stroke="#808080" stroke-width="0.015625" fill="none"/><path d="M84.8333,-5.5v0l0.333328,0.5h0.666672l0.333328,-0.5" stroke="#808080" stroke-width="0.015625" fill="none"/><path d="M84.8333,-4.5v0l0.333328,0.5h0.666672l0.333328,-0.5" stroke="#808080" stroke-width="0.015625" fill="none"/><path d="M84.8333,-3.5v0l0.333328,0.5h0.666672l0.333328,-0.5" stroke="#808080" stroke-width="0.015625" fill="none"/><path d="M84.8333,-2.5v0l0.333328,0.5h0.666672l0.333328,-0.5" stroke="#808080" stroke-width="0.015625" fill="none"/><path d="M84.8333,-1.5v0l0.333328,0.5h0.666672l0.333328,-0.5" stroke="#808080" stroke-width="0.015625" fill="none"/><path d="M84.8333,-0.5v0l0.333328,0.5h0.666672l0.333328,-0.5" stroke="#808080" stroke-width="0.015625" fill="none"/><path d="M84.8333,0.5v0l0.333328,0.5h0.666672l0.333328,-0.5" stroke="#808080" stroke-width="0.015625" fill="none"/><path d="M85.8333,-11v0l0.333328,0.5h0.666672l0.333328,-0.5" stroke="#808080" stroke-width="0.015625" fill="none"/><path d="M85.8333,-10v0l0.333328,0.5h0.666672l0.333328,-0.5" stroke="#808080" stroke-width="0.015625" fill="none"/><path d="M85.8333,-9v0l0.333328,0.5h0.666672l0.333328,-0.5" stroke="#808080" stroke-width="0.015625" fill="none"/><path d="M85.8333,-8v0l0.333328,0.5h0.666672l0.333328,-0.5" stroke="#808080" stroke-width="0.015625" fill="none"/><path d="M85.8333,-7v0l0.333328,0.5h0.666672l0.333328,-0.5" stroke="#808080" stroke-width="0.015625" fill="none"/><path d="M85.8333,-6v0l0.333328,0.5h0.666672l0.333328,-0.5" stroke="#808080" stroke-width="0.015625" fill="none"/><path d="M85.8333,-5v0l0.333328,0.5h0.666672l0.333328,-0.5" stroke="#808080" stroke-width="0.015625" fill="none"/><path d="M85.8333,-4v0l0.333328,0.5h0.666672l0.333328,-0.5" stroke="#808080" stroke-width="0.015625" fill="none"/><path d="M85.8333,-3v0l0.333328,0.5h0.666672l0.333328,-0.5" stroke="#808080" stroke-width="0.015625" fill="none"/><path d="M85.8333,-2v0l0.333328,0.5h0.666672l0.333328,-0.5" stroke="#808080" stroke-width="0.015625" fill="none"/><path d="M85.8333,-1v0l0.333328,0.5h0.666672l0.333328,-0.5" stroke="#808080" stroke-width="0.015625" fill="none"/><path d="M85.8333,0v0l0.333328,0.5h0.666672l0.333328,-0.5" stroke="#808080" stroke-width="0.015625" fill="none"/><path d="M85.8333,1v0l0.333328,0.5h0.666672l0.333328,-0.5" stroke="#808080" stroke-width="0.015625" fill="none"/><path d="M86.8333,-11.5v0l0.333328,0.5h0.666672l0.333328,-0.5" stroke="#808080" stroke-width="0.015625" fill="none"/><path d="M86.8333,-10.5v0l0.333328,0.5h0.666672l0.333328,-0.5" stroke="#808080" stroke-width="0.015625" fill="none"/><path d="M86.8333,-9.5v0l0.333328,0.5h0.666672l0.333328,-0.5" stroke="#808080" stroke-width="0.015625" fill="none"/><path d="M86.8333,-8.5v0l0.333328,0.5h0.666672l0.333328,-0.5" stroke="#808080" stroke-width="0.015625" fill="none"/><path d="M86.8333,-7.5v0l0.333328,0.5h0.666672l0.333328,-0.5" stroke="#808080" stroke-width="0.015625" fill="none"/><path d="M86.8333,-6.5v0l0.333328,0.5h0.666672l0.333328,-0.5" stroke="#808080" stroke-width="0.015625" fill="none"/><path d="M86.8333,-5.5v0l0.333328,0.5h0.666672l0.333328,-0.5" stroke="#808080" stroke-width="0.015625" fill="none"/><path d="M86.8333,-4.5v0l0.333328,0.5h0.666672l0.333328,-0.5" stroke="#808080" stroke-width="0.015625" fill="none"/><path d="M86.8333,-3.5v0l0.333328,0.5h0.666672l0.333328,-0.5" stroke="#808080" stroke-width="0.015625" fill="none"/><path d="M86.8333,-2.5v0l0.333328,0.5h0.666672l0.333328,-0.5" stroke="#808080" stroke-width="0.015625" fill="none"/><path d="M86.8333,-1.5v0l0.333328,0.5h0.666672l0.333328,-0.5" stroke="#808080" stroke-width="0.015625" fill="none"/><path d="M86.8333,-0.5v0l0.333328,0.5h0.666672l0.333328,-0.5" stroke="#808080" stroke-width="0.015625" fill="none"/><path d="M86.8333,0.5v0l0.333328,0.5h0.666672l0.333328,-0.5" stroke="#808080" stroke-width="0.015625" fill="none"/><path clip-path="url(#did2)" d="M62.1667,-39.5l-0.333336,-0.5l0.333336,-0.5h0.666664l0.333336,-0.5h0.666664l0.333332,0.5h0.666672l0.333328,-0.5h0.666672l0.333328,0.5h0.666672l0.333328,-0.5h0.666672l0.333328,0.5h0.666672l0.333328,-0.5h0.666672l0.333328,0.5h0.666672l0.333328,-0.5h0.666672l0.333328,0.5h0.666672l0.333328,-0.5h0.666672l0.333328,0.5h0.666672l0.333328,-0.5h0.666672l0.333328,0.5h0.666672l0.333328,-0.5h0.666672l0.333328,0.5h0.666672l0.333328,-0.5h0.666672l0.333328,0.5h0.666672l0.333328,-0.5h0.666672l0.333328,0.5l-0.333328,0.5h-0.666672l-0.333328,0.5h-0.666672l-0.333328,0.5l0.333328,0.5l-0.333328,0.5l0.333328,0.5l-0.333328,0.5l0.333328,0.5h0.666672l0.333328,0.5l-0.333328,0.5h-0.666672l-0.333328,0.5l0.333328,0.5l-0.333328,0.5l0.333328,0.5l-0.333328,0.5l0.333328,0.5h0.666672l0.333328,0.5h0.666672l0.333328,0.5h0.666672l0.333328,0.5l-0.333328,0.5l0.333328,0.5l-0.333328,0.5l0.333328,0.5l-0.333328,0.5l0.333328,0.5h0.666672l0.333328,0.5h0.666672l0.333328,-0.5h0.666672l0.333328,0.5h0.666672l0.333328,-0.5h0.666672l0.333328,0.5l-0.333328,0.5l0.333328,0.5h0.666672l0.333328,0.5l-0.333328,0.5h-0.666672l-0.333328,0.5h-0.666672l-0.333328,0.5h-0.666672l-0.333328,0.5l0.333328,0.5l-0.333328,0.5l0.333328,0.5l-0.333328,0.5l0.333328,0.5l-0.333328,0.5l0.333328,0.5l-0.333328,0.5l0.333328,0.5h0.666672l0.333328,-0.5h0.666672l0.333328,0.5l-0.333328,0.5l0.333328,0.5l-0.333328,0.5l0.333328,0.5h0.666672l0.333328,0.5h0.666672l0.333328,0.5l-0.333328,0.5h-0.666672l-0.333328,0.5h-0.666672l-0.333328,0.5h-0.666672l-0.333328,0.5h-0.666672l-0.333328,0.5l0.333328,0.5l-0.333328,0.5h-0.666672l-0.333328,0.5h-0.666672l-0.333328,0.5l0.333328,0.5l-0.333328,0.5l0.333328,0.5l-0.333328,0.5l0.333328,0.5l-0.333328,0.5l0.333328,0.5l-0.333328,0.5l0.333328,0.5l-0.333328,0.5l0.333328,0.5l-0.333328,0.5l0.333328,0.5l-0.333328,0.5l0.333328,0.5h0.666672l0.333328,-0.5h0.666672l0.333328,-0.5h0.666672l0.333328,0.5l-0.333328,0.5h-0.666672l-0.333328,0.5h-0.666672l-0.333328,0.5h-0.666672l-0.333328,0.5l0.333328,0.5l-0.333328,0.5l0.333328,0.5h0.666672l0.333328,0.5l-0.333328,0.5h-0.666672l-0.333328,-0.5h-0.666672l-0.333328,-0.5h-0.666672l-0.333328,0.5h-0.666672l-0.333328,0.5h-0.666672l-0.333328,0.5l0.333328,0.5l-0.333328,0.5h-0.666672l-0.333328,0.5h-0.666672l-0.333328,-0.5h-0.666672l-0.333328,0.5h-0.666672l-0.333328,-0.5h-0.666672l-0.333328,0.5h-0.666672l-0.333328,-0.5h-0.666672l-0.333328,0.5h-0.666672l-0.333328,-0.5l0.333328,-0.5l-0.333328,-0.5l0.333328,-0.5l-0.333328,-0.5l0.333328,-0.5l-0.333328,-0.5h-0.666672l-0.333328,-0.5l0.333328,-0.5l-0.333328,-0.5l0.333328,-0.5l-0.333328,-0.5h-0.666672l-0.333328,-0.5h-0.666672l-0.333328,-0.5h-0.666672l-0.333328,-0.5h-0.666672l-0.333328,0.5h-0.666672l-0.333328,0.5l0.333328,0.5l-0.333328,0.5h-0.666672l-0.333328,0.5l0.333328,0.5l-0.333328,0.5h-0.666672l-0.333332,0.5l0.333332,0.5l-0.333332,0.5h-0.666664l-0.333336,-0.5h-0.666664l-0.333336,-0.5l0.333336,-0.5l-0.333336,-0.5l0.333336,-0.5l-0.333336,-0.5l0.333336,-0.5l-0.333336,-0.5l0.333336,-0.5l-0.333336,-0.5l0.333336,-0.5l-0.333336,-0.5l0.333336,-0.5l-0.333336,-0.5l0.333336,-0.5l-0.333336,-0.5l0.333336,-0.5l-0.333336,-0.5l0.333336,-0.5l-0.333336,-0.5l0.333336,-0.5l-0.333336,-0.5l0.333336,-0.5l-0.333336,-0.5l0.333336,-0.5l-0.333336,-0.5l0.333336,-0.5l-0.333336,-0.5l0.333336,-0.5l-0.333336,-0.5l0.333336,-0.5l-0.333336,-0.5l0.333336,-0.5l-0.333336,-0.5l0.333336,-0.5l-0.333336,-0.5l0.333336,-0.5l-0.333336,-0.5l0.333336,-0.5l-0.333336,-0.5l0.333336,-0.5l-0.333336,-0.5l0.333336,-0.5l-0.333336,-0.5l0.333336,-0.5l-0.333336,-0.5l0.333336,-0.5l-0.333336,-0.5l0.333336,-0.5l-0.333336,-0.5l0.333336,-0.5l-0.333336,-0.5l0.333336,-0.5l-0.333336,-0.5l0.333336,-0.5l-0.333336,-0.5l0.333336,-0.5l-0.333336,-0.5l0.333336,-0.5l-0.333336,-0.5l0.333336,-0.5l-0.333336,-0.5l0.333336,-0.5l-0.333336,-0.5l0.333336,-0.5l-0.333336,-0.5l0.333336,-0.5l-0.333336,-0.5l0.333336,-0.5l-0.333336,-0.5l0.333336,-0.5l-0.333336,-0.5l0.333336,-0.5l-0.333336,-0.5l0.333336,-0.5l-0.333336,-0.5Z" stroke="#E32736" stroke-width="0.16" fill="none"/><path clip-path="url(#did3)" d="M64.1667,-26.5l-0.333332,-0.5l0.333332,-0.5h0.666672l0.333328,-0.5l-0.333328,-0.5l0.333328,-0.5l-0.333328,-0.5l0.333328,-0.5l-0.333328,-0.5l0.333328,-0.5h0.666672l0.333328,-0.5l-0.333328,-0.5l0.333328,-0.5h0.666672l0.333328,-0.5h0.666672l0.333328,0.5h0.666672l0.333328,0.5h0.666672l0.333328,0.5h0.666672l0.333328,0.5h0.666672l0.333328,0.5h0.666672l0.333328,-0.5h0.666672l0.333328,-0.5h0.666672l0.333328,0.5l-0.333328,0.5l0.333328,0.5h0.666672l0.333328,0.5l-0.333328,0.5l0.333328,0.5l-0.333328,0.5l0.333328,0.5h0.666672l0.333328,0.5l-0.333328,0.5l0.333328,0.5l-0.333328,0.5l0.333328,0.5l-0.333328,0.5l0.333328,0.5l-0.333328,0.5l0.333328,0.5l-0.333328,0.5h-0.666672l-0.333328,0.5h-0.666672l-0.333328,0.5h-0.666672l-0.333328,-0.5l0.333328,-0.5l-0.333328,-0.5h-0.666672l-0.333328,-0.5h-0.666672l-0.333328,-0.5h-0.666672l-0.333328,0.5l0.333328,0.5l-0.333328,0.5h-0.666672l-0.333328,-0.5l0.333328,-0.5l-0.333328,-0.5h-0.666672l-0.333328,-0.5h-0.666672l-0.333328,-0.5h-0.666672l-0.333328,0.5h-0.666672l-0.333328,0.5h-0.666672l-0.333328,-0.5l0.333328,-0.5l-0.333328,-0.5h-0.666672l-0.333332,-0.5Z" stroke="Blue" stroke-width="0.16" fill="none"/><path clip-path="url(#did4)" d="M87.1667,-10l-0.333328,-0.5l0.333328,-0.5h0.666672l0.333328,-0.5h0.666672l0.333328,-0.5l-0.333328,-0.5l0.333328,-0.5l-0.333328,-0.5l0.333328,-0.5h0.666672l0.333328,0.5h0.666672l0.333328,-0.5h0.666672l0.333328,-0.5h0.666672l0.333328,0.5h0.666672l0.333328,-0.5h0.666672l0.333328,0.5l-0.333328,0.5h-0.666672l-0.333328,0.5h-0.666672l-0.333328,0.5h-0.666672l-0.333328,0.5h-0.666672l-0.333328,0.5l0.333328,0.5l-0.333328,0.5h-0.666672l-0.333328,0.5h-0.666672l-0.333328,0.5h-0.666672l-0.333328,-0.5Z" stroke="Yellow" stroke-width="0.16" fill="none"/><line x1="78.75" y1="-3.125" x2="81.25" y2="-4.375" stroke="#048104" stroke-width="0.08"/><line x1="79.708" y1="-10.3267" x2="82.292" y2="-8.17334" stroke="#048104" stroke-width="0.08"/><line x1="82.75" y1="-7.875" x2="83.25" y2="-7.625" stroke="#048104" stroke-width="0.08"/><line x1="83.708" y1="-7.32666" x2="86.292" y2="-5.17334" stroke="#048104" stroke-width="0.08"/><line x1="81.5693" y1="-4.74268" x2="82.4307" y2="-7.75732" stroke="#048104" stroke-width="0.08"/></g><g clip-path="url(#did5)"><text transform="translate(79.5,-8.5) scale(1.1547 1)" font-family="Arial" font-size="0.14" text-anchor="middle" x="0" y="-0.381" fill="DarkGray">1732</text><text transform="translate(79.5,-7.5) scale(1.1547 1)" font-family="Arial" font-size="0.14" text-anchor="middle" x="0" y="-0.381" fill="DarkGray">1733</text><g transform="translate(79.5,-5.5) scale(1.1547 1)"><circle r="0.4" cx="0" cy="0" stroke="#FFCC00" stroke-width="0.05" fill="none"/><text font-family="Arial" font-size="0.14" text-anchor="middle" x="0" y="-0.381" fill="DarkGray">1735</text></g><text transform="translate(80.5,-8) scale(1.1547 1)" font-family="Arial" font-size="0.14" text-anchor="middle" x="0" y="-0.381" fill="DarkGray">1832</text><text transform="translate(80.5,-4) scale(1.1547 1)" font-family="Arial" font-size="0.14" text-anchor="middle" x="0" y="-0.381" fill="DarkGray">1836</text><text transform="translate(80.5,-3) scale(1.1547 1)" font-family="Arial" font-size="0.14" text-anchor="middle" x="0" y="-0.381" fill="DarkGray">1837</text><text transform="translate(80.5,-2) scale(1.1547 1)" font-family="Arial" font-size="0.14" text-anchor="middle" x="0" y="-0.381" fill="DarkGray">1838</text><text transform="translate(81.5,-7.5) scale(1.1547 1)" font-family="Arial" font-size="0.14" text-anchor="middle" x="0" y="-0.381" fill="DarkGray">1933</text><text transform="translate(81.5,-4.5) scale(1.1547 1)" font-family="Arial" font-size="0.14" text-anchor="middle" x="0" y="-0.381" fill="DarkGray">1936</text><text transform="translate(81.5,-3.5) scale(1.1547 1)" font-family="Arial" font-size="0.14" text-anchor="middle" x="0" y="-0.381" fill="DarkGray">1937</text><text transform="translate(81.5,-2.5) scale(1.1547 1)" font-family="Arial" font-size="0.14" text-anchor="middle" x="0" y="-0.381" fill="DarkGray">1938</text><text transform="translate(81.5,-1.5) scale(1.1547 1)" font-family="Arial" font-size="0.14" text-anchor="middle" x="0" y="-0.381" fill="DarkGray">1939</text><text transform="translate(82.5,-8) scale(1.1547 1)" font-family="Arial" font-size="0.14" text-anchor="middle" x="0" y="-0.381" fill="DarkGray">2032</text><text transform="translate(82.5,-7) scale(1.1547 1)" font-family="Arial" font-size="0.14" text-anchor="middle" x="0" y="-0.381" fill="DarkGray">2033</text><text transform="translate(82.5,-6) scale(1.1547 1)" font-family="Arial" font-size="0.14" text-anchor="middle" x="0" y="-0.381" fill="DarkGray">2034</text><text transform="translate(82.5,-4) scale(1.1547 1)" font-family="Arial" font-size="0.14" text-anchor="middle" x="0" y="-0.381" fill="DarkGray">2036</text><text transform="translate(82.5,-3) scale(1.1547 1)" font-family="Arial" font-size="0.14" text-anchor="middle" x="0" y="-0.381" fill="DarkGray">2037</text><text transform="translate(83.5,-9.5) scale(1.1547 1)" font-family="Arial" font-size="0.14" text-anchor="middle" x="0" y="-0.381" fill="DarkGray">2131</text><text transform="translate(83.5,-7.5) scale(1.1547 1)" font-family="Arial" font-size="0.14" text-anchor="middle" x="0" y="-0.381" fill="DarkGray">2133</text><text transform="translate(83.5,-3.5) scale(1.1547 1)" font-family="Arial" font-size="0.14" text-anchor="middle" x="0" y="-0.381" fill="DarkGray">2137</text><text transform="translate(83.5,-0.5) scale(1.1547 1)" font-family="Arial" font-size="0.14" text-anchor="middle" x="0" y="-0.381" fill="DarkGray">2140</text><text transform="translate(84.5,-8) scale(1.1547 1)" font-family="Arial" font-size="0.14" text-anchor="middle" x="0" y="-0.381" fill="DarkGray">2232</text><text transform="translate(84.5,-6) scale(1.1547 1)" font-family="Arial" font-size="0.14" text-anchor="middle" x="0" y="-0.381" fill="DarkGray">2234</text><text transform="translate(84.5,-4) scale(1.1547 1)" font-family="Arial" font-size="0.14" text-anchor="middle" x="0" y="-0.381" fill="DarkGray">2236</text><text transform="translate(84.5,-3) scale(1.1547 1)" font-family="Arial" font-size="0.14" text-anchor="middle" x="0" y="-0.381" fill="DarkGray">2237</text><text transform="translate(84.5,-1) scale(1.1547 1)" font-family="Arial" font-size="0.14" text-anchor="middle" x="0" y="-0.381" fill="DarkGray">2239</text><text transform="translate(85.5,-8.5) scale(1.1547 1)" font-family="Arial" font-size="0.14" text-anchor="middle" x="0" y="-0.381" fill="DarkGray">2332</text><text transform="translate(86.5,-5) scale(1.1547 1)" font-family="Arial" font-size="0.14" text-anchor="middle" x="0" y="-0.381" fill="DarkGray">2435</text><text transform="translate(86.5,-2) scale(1.1547 1)" font-family="Arial" font-size="0.14" text-anchor="middle" x="0" y="-0.381" fill="DarkGray">2438</text><text transform="translate(86.5,-1) scale(1.1547 1)" font-family="Arial" font-size="0.14" text-anchor="middle" x="0" y="-0.381" fill="DarkGray">2439</text></g><g transform="translate(79.5,-8.5) scale(1.1547 1)"><circle transform="translate(0.25,-0.18)" r="0.05" cx="0" cy="0" stroke="none" fill="Black"/><rect x="-0.107136" y="-0.35543" width="0.214273" height="0.260859" stroke="none" fill="White"/><text font-family="Arial" font-size="0.21" font-weight="bold" text-anchor="middle" x="0" y="-0.13575" fill="Black">E</text><circle r="0.1" cx="0" cy="0" stroke="none" fill="DeepSkyBlue"/><rect x="-0.431826" y="0.23957" width="0.863652" height="0.260859" stroke="none" fill="White"/><text font-family="Arial" font-size="0.21" font-weight="bold" text-anchor="middle" x="0" y="0.45925" fill="Black">750-857</text></g><g transform="translate(79.5,-7.5) scale(1.1547 1)"><circle transform="translate(0.25,-0.18)" r="0.05" cx="0" cy="0" stroke="none" fill="Black"/><rect x="-0.113084" y="-0.35543" width="0.226167" height="0.260859" stroke="none" fill="White"/><text font-family="Arial" font-size="0.21" font-weight="bold" text-anchor="middle" x="0" y="-0.13575" fill="Black">D</text><circle r="0.1" cx="0" cy="0" stroke="Black" stroke-width="0.015625" fill="White"/><rect x="-0.88833" y="0.23957" width="1.77666" height="0.260859" stroke="none" fill="White"/><text font-family="Arial" font-size="0.21" font-weight="bold" text-anchor="middle" x="0" y="0.45925" fill="Black">New Konigsberg</text></g><g transform="translate(79.5,-5.5) scale(1.1547 1)"><circle transform="translate(0.25,-0.18)" r="0.05" cx="0" cy="0" stroke="none" fill="Black"/><rect x="-0.113084" y="-0.35543" width="0.226167" height="0.260859" stroke="none" fill="White"/><text font-family="Arial" font-size="0.21" font-weight="bold" text-anchor="middle" x="0" y="-0.13575" fill="Black">C</text><circle r="0.1" cx="0" cy="0" stroke="none" fill="DeepSkyBlue"/><rect x="-0.455615" y="0.23957" width="0.91123" height="0.260859" stroke="none" fill="White"/><text font-family="Arial" font-size="0.21" font-weight="bold" text-anchor="middle" x="0" y="0.45925" fill="Black">Lepanto</text></g><g transform="translate(80.5,-8) scale(1.1547 1)"><rect x="-0.113084" y="-0.35543" width="0.226167" height="0.260859" stroke="none" fill="White"/><text font-family="Arial" font-size="0.21" font-weight="bold" text-anchor="middle" x="0" y="-0.13575" fill="Black">C</text><circle r="0.1" cx="0" cy="0" stroke="none" fill="DeepSkyBlue"/><rect x="-0.341541" y="0.23957" width="0.683081" height="0.260859" stroke="none" fill="White"/><text font-family="Arial" font-size="0.21" font-weight="bold" text-anchor="middle" x="0" y="0.45925" fill="Black">Egran</text></g><g transform="translate(80.5,-4) scale(1.1547 1)"><circle transform="translate(0.25,-0.18)" r="0.05" cx="0" cy="0" stroke="none" fill="Black"/><rect x="-0.113084" y="-0.35543" width="0.226167" height="0.260859" stroke="none" fill="White"/><text font-family="Arial" font-size="0.21" font-weight="bold" text-anchor="middle" x="0" y="-0.13575" fill="Black">A</text><circle r="0.1" cx="0" cy="0" stroke="none" fill="DeepSkyBlue"/><rect x="-0.521804" y="0.23957" width="1.04361" height="0.260859" stroke="none" fill="White"/><text font-family="Arial" font-size="0.21" font-weight="bold" text-anchor="middle" x="0" y="0.45925" fill="#E32736">Dadegadi</text></g><g transform="translate(80.5,-3) scale(1.1547 1)"><circle transform="translate(0.25,-0.18)" r="0.05" cx="0" cy="0" stroke="none" fill="Black"/><rect x="-0.113084" y="-0.35543" width="0.226167" height="0.260859" stroke="none" fill="White"/><text font-family="Arial" font-size="0.21" font-weight="bold" text-anchor="middle" x="0" y="-0.13575" fill="Black">A</text><text font-family="Arial Unicode MS,Segoe UI Symbol,Arial" font-size="0.21" font-weight="bold" text-anchor="middle" x="-0.25" y="-0.09075" fill="Black">★</text><circle r="0.1" cx="0" cy="0" stroke="none" fill="DeepSkyBlue"/><rect x="-0.762105" y="0.23957" width="1.52421" height="0.260859" stroke="none" fill="White"/><text font-family="Arial" font-size="0.21" font-weight="bold" text-anchor="middle" x="0" y="0.45925" fill="Black">Glen Murdoch</text></g><g transform="translate(80.5,-2) scale(1.1547 1)"><circle transform="translate(0.25,-0.18)" r="0.05" cx="0" cy="0" stroke="none" fill="Black"/><rect x="-0.113084" y="-0.35543" width="0.226167" height="0.260859" stroke="none" fill="White"/><text font-family="Arial" font-size="0.21" font-weight="bold" text-anchor="middle" x="0" y="-0.13575" fill="Black">A</text><circle r="0.1" cx="0" cy="0" stroke="none" fill="DeepSkyBlue"/><rect x="-0.419573" y="0.23957" width="0.839146" height="0.260859" stroke="none" fill="White"/><text font-family="Arial" font-size="0.21" font-weight="bold" text-anchor="middle" x="0" y="0.45925" fill="Black">Jutland</text></g><g transform="translate(81.5,-7.5) scale(1.1547 1)"><circle transform="translate(0.25,-0.18)" r="0.05" cx="0" cy="0" stroke="none" fill="Black"/><rect x="-0.113084" y="-0.35543" width="0.226167" height="0.260859" stroke="none" fill="White"/><text font-family="Arial" font-size="0.21" font-weight="bold" text-anchor="middle" x="0" y="-0.13575" fill="Black">D</text><circle r="0.1" cx="0" cy="0" stroke="none" fill="DeepSkyBlue"/><rect x="-0.515857" y="0.23957" width="1.03171" height="0.260859" stroke="none" fill="White"/><text font-family="Arial" font-size="0.21" font-weight="bold" text-anchor="middle" x="0" y="0.45925" fill="Black">Kishimaa</text></g><g transform="translate(81.5,-4.5) scale(1.1547 1)"><rect x="-0.113084" y="-0.35543" width="0.226167" height="0.260859" stroke="none" fill="White"/><text font-family="Arial" font-size="0.21" font-weight="bold" text-anchor="middle" x="0" y="-0.13575" fill="Black">A</text><circle r="0.1" cx="0" cy="0" stroke="none" fill="DeepSkyBlue"/><rect x="-0.599939" y="0.23957" width="1.19988" height="0.260859" stroke="none" fill="White"/><text font-family="Arial" font-size="0.21" font-weight="bold" text-anchor="middle" x="0" y="0.45925" fill="Black">Annapabar</text></g><g transform="translate(81.5,-3.5) scale(1.1547 1)"><rect x="-0.113084" y="-0.35543" width="0.226167" height="0.260859" stroke="none" fill="White"/><text font-family="Arial" font-size="0.21" font-weight="bold" text-anchor="middle" x="0" y="-0.13575" fill="Black">A</text><circle r="0.1" cx="0" cy="0" stroke="none" fill="DeepSkyBlue"/><rect x="-0.155176" y="0.23957" width="0.310352" height="0.260859" stroke="none" fill="White"/><text font-family="Arial" font-size="0.21" font-weight="bold" text-anchor="middle" x="0" y="0.45925" fill="Black">Ur</text></g><g transform="translate(81.5,-2.5) scale(1.1547 1)"><circle transform="translate(0.25,-0.18)" r="0.05" cx="0" cy="0" stroke="none" fill="Black"/><rect x="-0.107136" y="-0.35543" width="0.214273" height="0.260859" stroke="none" fill="White"/><text font-family="Arial" font-size="0.21" font-weight="bold" text-anchor="middle" x="0" y="-0.13575" fill="Black">E</text><circle r="0.1" cx="0" cy="0" stroke="none" fill="DeepSkyBlue"/><rect x="-0.329492" y="0.23957" width="0.658984" height="0.260859" stroke="none" fill="White"/><text font-family="Arial" font-size="0.21" font-weight="bold" text-anchor="middle" x="0" y="0.45925" fill="Black">Igikur</text></g><g transform="translate(81.5,-1.5) scale(1.1547 1)"><circle transform="translate(0.25,-0.18)" r="0.05" cx="0" cy="0" stroke="none" fill="Black"/><rect x="-0.113084" y="-0.35543" width="0.226167" height="0.260859" stroke="none" fill="White"/><text font-family="Arial" font-size="0.21" font-weight="bold" text-anchor="middle" x="0" y="-0.13575" fill="Black">D</text><circle r="0.1" cx="0" cy="0" stroke="none" fill="DeepSkyBlue"/><rect x="-0.239258" y="0.23957" width="0.478516" height="0.260859" stroke="none" fill="White"/><text font-family="Arial" font-size="0.21" font-weight="bold" text-anchor="middle" x="0" y="0.45925" fill="Black">Niin</text></g><g transform="translate(82.5,-8) scale(1.1547 1)"><circle transform="translate(0.25,-0.18)" r="0.05" cx="0" cy="0" stroke="none" fill="Black"/><rect x="-0.113084" y="-0.35543" width="0.226167" height="0.260859" stroke="none" fill="White"/><text font-family="Arial" font-size="0.21" font-weight="bold" text-anchor="middle" x="0" y="-0.13575" fill="Black">B</text><circle r="0.1" cx="0" cy="0" stroke="Black" stroke-width="0.015625" fill="White"/><rect x="-0.455615" y="0.23957" width="0.91123" height="0.260859" stroke="none" fill="White"/><text font-family="Arial" font-size="0.21" font-weight="bold" text-anchor="middle" x="0" y="0.45925" fill="Black">Landing</text></g><g transform="translate(82.5,-7) scale(1.1547 1)"><circle transform="translate(0.25,-0.18)" r="0.05" cx="0" cy="0" stroke="none" fill="Black"/><rect x="-0.113084" y="-0.35543" width="0.226167" height="0.260859" stroke="none" fill="White"/><text font-family="Arial" font-size="0.21" font-weight="bold" text-anchor="middle" x="0" y="-0.13575" fill="Black">C</text><circle r="0.1" cx="0" cy="0" stroke="none" fill="DeepSkyBlue"/><rect x="-0.678074" y="0.23957" width="1.35615" height="0.260859" stroke="none" fill="White"/><text font-family="Arial" font-size="0.21" font-weight="bold" text-anchor="middle" x="0" y="0.45925" fill="Black">Udeshasdiin</text></g><g transform="translate(82.5,-6) scale(1.1547 1)"><rect x="-0.113084" y="-0.35543" width="0.226167" height="0.260859" stroke="none" fill="White"/><text font-family="Arial" font-size="0.21" font-weight="bold" text-anchor="middle" x="0" y="-0.13575" fill="Black">C</text><circle r="0.1" cx="0" cy="0" stroke="none" fill="DeepSkyBlue"/><rect x="-0.269404" y="0.23957" width="0.538809" height="0.260859" stroke="none" fill="White"/><text font-family="Arial" font-size="0.21" font-weight="bold" text-anchor="middle" x="0" y="0.45925" fill="Black">Kam</text></g><g transform="translate(82.5,-4) scale(1.1547 1)"><circle transform="translate(0.25,-0.18)" r="0.05" cx="0" cy="0" stroke="none" fill="Black"/><rect x="-0.107136" y="-0.35543" width="0.214273" height="0.260859" stroke="none" fill="White"/><text font-family="Arial" font-size="0.21" font-weight="bold" text-anchor="middle" x="0" y="-0.13575" fill="Black">E</text><circle r="0.1" cx="0" cy="0" stroke="Black" stroke-width="0.015625" fill="White"/><rect x="-0.720422" y="0.23957" width="1.44085" height="0.260859" stroke="none" fill="White"/><text font-family="Arial" font-size="0.21" font-weight="bold" text-anchor="middle" x="0" y="0.45925" fill="Black">Saanshakase</text></g><g transform="translate(82.5,-3) scale(1.1547 1)"><circle transform="translate(0.25,-0.18)" r="0.05" cx="0" cy="0" stroke="none" fill="Black"/><rect x="-0.113084" y="-0.35543" width="0.226167" height="0.260859" stroke="none" fill="White"/><text font-family="Arial" font-size="0.21" font-weight="bold" text-anchor="middle" x="0" y="-0.13575" fill="Black">C</text><circle r="0.1" cx="0" cy="0" stroke="Black" stroke-width="0.015625" fill="White"/><rect x="-0.335439" y="0.23957" width="0.670879" height="0.260859" stroke="none" fill="White"/><text font-family="Arial" font-size="0.21" font-weight="bold" text-anchor="middle" x="0" y="0.45925" fill="Black">Angel</text></g><g transform="translate(83.5,-9.5) scale(1.1547 1)"><circle transform="translate(0.25,-0.18)" r="0.05" cx="0" cy="0" stroke="none" fill="Black"/><rect x="-0.113084" y="-0.35543" width="0.226167" height="0.260859" stroke="none" fill="White"/><text font-family="Arial" font-size="0.21" font-weight="bold" text-anchor="middle" x="0" y="-0.13575" fill="Black">C</text><circle r="0.1" cx="0" cy="0" stroke="none" fill="DeepSkyBlue"/><rect x="-0.197319" y="0.23957" width="0.394639" height="0.260859" stroke="none" fill="White"/><text font-family="Arial" font-size="0.21" font-weight="bold" text-anchor="middle" x="0" y="0.45925" fill="Black">Sik</text></g><g transform="translate(83.5,-7.5) scale(1.1547 1)"><circle transform="translate(0.25,-0.18)" r="0.05" cx="0" cy="0" stroke="none" fill="Black"/><rect x="-0.113084" y="-0.35543" width="0.226167" height="0.260859" stroke="none" fill="White"/><text font-family="Arial" font-size="0.21" font-weight="bold" text-anchor="middle" x="0" y="-0.13575" fill="Black">C</text><circle r="0.1" cx="0" cy="0" stroke="none" fill="DeepSkyBlue"/><rect x="-0.521856" y="0.23957" width="1.04371" height="0.260859" stroke="none" fill="White"/><text font-family="Arial" font-size="0.21" font-weight="bold" text-anchor="middle" x="0" y="0.45925" fill="Black">Shamuus</text></g><g transform="translate(83.5,-3.5) scale(1.1547 1)"><circle transform="translate(0.25,-0.18)" r="0.05" cx="0" cy="0" stroke="none" fill="Black"/><rect x="-0.113084" y="-0.35543" width="0.226167" height="0.260859" stroke="none" fill="White"/><text font-family="Arial" font-size="0.21" font-weight="bold" text-anchor="middle" x="0" y="-0.13575" fill="Black">B</text><text font-family="Arial Unicode MS,Segoe UI Symbol,Arial" font-size="0.21" font-weight="bold" text-anchor="middle" x="-0.25" y="-0.09075" fill="Black">★</text><circle r="0.1" cx="0" cy="0" stroke="none" fill="DeepSkyBlue"/><rect x="-0.293398" y="0.23957" width="0.586797" height="0.260859" stroke="none" fill="White"/><text font-family="Arial" font-size="0.21" font-weight="bold" text-anchor="middle" x="0" y="0.45925" fill="Black">Zuge</text></g><g transform="translate(83.5,-0.5) scale(1.1547 1)"><circle transform="translate(0.25,-0.18)" r="0.05" cx="0" cy="0" stroke="none" fill="Black"/><rect x="-0.107136" y="-0.35543" width="0.214273" height="0.260859" stroke="none" fill="White"/><text font-family="Arial" font-size="0.21" font-weight="bold" text-anchor="middle" x="0" y="-0.13575" fill="Black">E</text><circle r="0.1" cx="0" cy="0" stroke="none" fill="DeepSkyBlue"/><rect x="-0.431826" y="0.23957" width="0.863652" height="0.260859" stroke="none" fill="White"/><text font-family="Arial" font-size="0.21" font-weight="bold" text-anchor="middle" x="0" y="0.45925" fill="Black">470-092</text><text font-family="Arial" font-size="0.14" text-anchor="middle" x="0.25" y="0.2395" fill="Black">CsIm</text></g><g transform="translate(84.5,-8) scale(1.1547 1)"><circle transform="translate(0.25,-0.18)" r="0.05" cx="0" cy="0" stroke="none" fill="Black"/><rect x="-0.113084" y="-0.35543" width="0.226167" height="0.260859" stroke="none" fill="White"/><text font-family="Arial" font-size="0.21" font-weight="bold" text-anchor="middle" x="0" y="-0.13575" fill="Black">A</text><text font-family="Arial Unicode MS,Segoe UI Symbol,Arial" font-size="0.21" font-weight="bold" text-anchor="middle" x="-0.25" y="-0.09075" fill="#E32736">★</text><text font-family="Arial Unicode MS,Segoe UI Symbol,Arial" font-size="0.21" font-weight="bold" text-anchor="middle" x="-0.25" y="0.26925" fill="Black">✦</text><circle r="0.1" cx="0" cy="0" stroke="Black" stroke-width="0.015625" fill="White"/><rect x="-0.461768" y="0.23957" width="0.923535" height="0.260859" stroke="none" fill="White"/><text font-family="Arial" font-size="0.21" font-weight="bold" text-anchor="middle" x="0" y="0.45925" fill="Black">Gashuki</text><text font-family="Arial" font-size="0.14" text-anchor="middle" x="0.25" y="0.2395" fill="Black">NaHu</text></g><g transform="translate(84.5,-6) scale(1.1547 1)"><rect x="-0.113084" y="-0.35543" width="0.226167" height="0.260859" stroke="none" fill="White"/><text font-family="Arial" font-size="0.21" font-weight="bold" text-anchor="middle" x="0" y="-0.13575" fill="Black">D</text><circle r="0.1" cx="0" cy="0" stroke="none" fill="DeepSkyBlue"/><rect x="-0.40168" y="0.23957" width="0.803359" height="0.260859" stroke="none" fill="White"/><text font-family="Arial" font-size="0.21" font-weight="bold" text-anchor="middle" x="0" y="0.45925" fill="Black">Karsim</text><text font-family="Arial" font-size="0.14" text-anchor="middle" x="0.25" y="0.2395" fill="Black">NaHu</text></g><g transform="translate(84.5,-4) scale(1.1547 1)"><circle transform="translate(0.25,-0.18)" r="0.05" cx="0" cy="0" stroke="none" fill="Black"/><rect x="-0.113084" y="-0.35543" width="0.226167" height="0.260859" stroke="none" fill="White"/><text font-family="Arial" font-size="0.21" font-weight="bold" text-anchor="middle" x="0" y="-0.13575" fill="Black">C</text><circle r="0.1" cx="0" cy="0" stroke="none" fill="DeepSkyBlue"/><rect x="-0.359587" y="0.23957" width="0.719175" height="0.260859" stroke="none" fill="White"/><text font-family="Arial" font-size="0.21" font-weight="bold" text-anchor="middle" x="0" y="0.45925" fill="Black">Dikam</text></g><g transform="translate(84.5,-3) scale(1.1547 1)"><circle transform="translate(0.25,-0.18)" r="0.05" cx="0" cy="0" stroke="none" fill="Black"/><rect x="-0.107136" y="-0.35543" width="0.214273" height="0.260859" stroke="none" fill="White"/><text font-family="Arial" font-size="0.21" font-weight="bold" text-anchor="middle" x="0" y="-0.13575" fill="Black">E</text><circle r="0.1" cx="0" cy="0" stroke="none" fill="DeepSkyBlue"/><rect x="-0.557539" y="0.23957" width="1.11508" height="0.260859" stroke="none" fill="White"/><text font-family="Arial" font-size="0.21" font-weight="bold" text-anchor="middle" x="0" y="0.45925" fill="Black">MAMIKHA</text><text font-family="Arial" font-size="0.14" text-anchor="middle" x="0.25" y="0.2395" fill="Black">NaHu</text></g><g transform="translate(84.5,-1) scale(1.1547 1)"><rect x="-0.113084" y="-0.35543" width="0.226167" height="0.260859" stroke="none" fill="White"/><text font-family="Arial" font-size="0.21" font-weight="bold" text-anchor="middle" x="0" y="-0.13575" fill="Black">D</text><circle r="0.1" cx="0" cy="0" stroke="none" fill="DeepSkyBlue"/><rect x="-0.371482" y="0.23957" width="0.742964" height="0.260859" stroke="none" fill="White"/><text font-family="Arial" font-size="0.21" font-weight="bold" text-anchor="middle" x="0" y="0.45925" fill="Black">Lirguu</text></g><g transform="translate(85.5,-8.5) scale(1.1547 1)"><circle transform="translate(0.25,-0.18)" r="0.05" cx="0" cy="0" stroke="none" fill="Black"/><rect x="-0.113084" y="-0.35543" width="0.226167" height="0.260859" stroke="none" fill="White"/><text font-family="Arial" font-size="0.21" font-weight="bold" text-anchor="middle" x="0" y="-0.13575" fill="Black">C</text><circle r="0.1" cx="0" cy="0" stroke="none" fill="DeepSkyBlue"/><rect x="-0.587993" y="0.23957" width="1.17599" height="0.260859" stroke="none" fill="White"/><text font-family="Arial" font-size="0.21" font-weight="bold" text-anchor="middle" x="0" y="0.45925" fill="Black">Makkidaan</text><text font-family="Arial" font-size="0.14" text-anchor="middle" x="0.25" y="0.2395" fill="Black">CsIm</text></g><g transform="translate(86.5,-5) scale(1.1547 1)"><circle transform="translate(0.25,-0.18)" r="0.05" cx="0" cy="0" stroke="none" fill="Black"/><rect x="-0.113084" y="-0.35543" width="0.226167" height="0.260859" stroke="none" fill="White"/><text font-family="Arial" font-size="0.21" font-weight="bold" text-anchor="middle" x="0" y="-0.13575" fill="Black">C</text><circle r="0.1" cx="0" cy="0" stroke="none" fill="DeepSkyBlue"/><rect x="-0.467664" y="0.23957" width="0.935327" height="0.260859" stroke="none" fill="White"/><text font-family="Arial" font-size="0.21" font-weight="bold" text-anchor="middle" x="0" y="0.45925" fill="Black">Rukirligi</text></g><g transform="translate(86.5,-2) scale(1.1547 1)"><circle transform="translate(0.25,-0.18)" r="0.05" cx="0" cy="0" stroke="none" fill="Black"/><rect x="-0.113084" y="-0.35543" width="0.226167" height="0.260859" stroke="none" fill="White"/><text font-family="Arial" font-size="0.21" font-weight="bold" text-anchor="middle" x="0" y="-0.13575" fill="Black">B</text><circle r="0.1" cx="0" cy="0" stroke="none" fill="DeepSkyBlue"/><rect x="-0.209316" y="0.23957" width="0.418633" height="0.260859" stroke="none" fill="White"/><text font-family="Arial" font-size="0.21" font-weight="bold" text-anchor="middle" x="0" y="0.45925" fill="Black">Gis</text><text font-family="Arial" font-size="0.14" text-anchor="middle" x="0.25" y="0.2395" fill="Black">NaHu</text></g><g transform="translate(86.5,-1) scale(1.1547 1)"><rect x="-0.113084" y="-0.35543" width="0.226167" height="0.260859" stroke="none" fill="White"/><text font-family="Arial" font-size="0.21" font-weight="bold" text-anchor="middle" x="0" y="-0.13575" fill="Black">C</text><circle r="0.1" cx="0" cy="0" stroke="none" fill="DeepSkyBlue"/><rect x="-0.269404" y="0.23957" width="0.538809" height="0.260859" stroke="none" fill="White"/><text font-family="Arial" font-size="0.21" font-weight="bold" text-anchor="middle" x="0" y="0.45925" fill="Black">Aam</text><text font-family="Arial" font-size="0.14" text-anchor="middle" x="0.25" y="0.2395" fill="Black">NaHu</text></g></g></svg>