<?xml version = "1.0" encoding="utf-8"?>
<svg version="1.1" baseProfile="full" xmlns="http://www.w3.org/2000/svg" xmlns:xlink="http://www.w3.org/1999/xlink" width="471" height="684" viewBox="0 0 471 684" clip="0 471 0 684"><defs><clipPath id="did1"><rect x="-1.25" y="-30.1" width="8.5" height="10.7"/></clipPath><clipPath id="did2"><path d="M-1.83333,-39.5l-0.333334,-0.5l0.333334,-0.5h0.666667l0.333333,-0.5h0.666667l0.333333,0.5h0.666667l0.333333,-0.5h0.666667l0.333334,0.5h0.666667l0.333334,-0.5h0.666667l0.333333,0.5h0.666667l0.333333,-0.5h0.666667l0.333333,0.5h0.666667l0.333333,-0.5h0.666667l0.333334,0.5h0.666666l0.333334,-0.5h0.666666l0.333334,0.5h0.666666l0.333334,-0.5h0.666666l0.333334,0.5h0.666666l0.333334,-0.5h0.666666l0.333334,0.5h0.666666l0.333334,-0.5h0.666666l0.333333,0.5h0.666668l0.333332,-0.5h0.666668l0.333332,0.5h0.666668l0.333332,-0.5h0.666668l0.333332,0.5h0.666668l0.333332,-0.5h0.666668l0.333332,0.5h0.666668l0.333332,-0.5h0.666668l0.333332,0.5h0.666668l0.333332,-0.5h0.666668l0.333332,0.5h0.666668l0.333332,-0.5h0.666668l0.333332,0.5h0.666668l0.333332,-0.5h0.666668l0.333332,0.5h0.666668l0.333332,-0.5h0.666668l0.333334,0.5l-0.333334,0.5l0.333334,0.5l-0.333334,0.5l0.333334,0.5l-0.333334,0.5l0.333334,0.5l-0.333334,0.5l0.333334,0.5l-0.333334,0.5l0.333334,0.5l-0.333334,0.5l0.333334,0.5l-0.333334,0.5l0.333334,0.5l-0.333334,0.5l0.333334,0.5l-0.333334,0.5l0.333334,0.5l-0.333334,0.5l0.333334,0.5l-0.333334,0.5l0.333334,0.5l-0.333334,0.5l0.333334,0.5l-0.333334,0.5l0.333334,0.5l-0.333334,0.5l0.333334,0.5l-0.333334,0.5l0.333334,0.5l-0.333334,0.5l0.333334,0.5l-0.333334,0.5l0.333334,0.5l-0.333334,0.5l0.333334,0.5l-0.333334,0.5l0.333334,0.5l-0.333334,0.5l0.333334,0.5l-0.333334,0.5l0.333334,0.5l-0.333334,0.5l0.333334,0.5l-0.333334,0.5l0.333334,0.5l-0.333334,0.5l0.333334,0.5l-0.333334,0.5l0.333334,0.5l-0.333334,0.5l0.333334,0.5l-0.333334,0.5l0.333334,0.5l-0.333334,0.5l0.333334,0.5l-0.333334,0.5l0.333334,0.5l-0.333334,0.5l0.333334,0.5l-0.333334,0.5l0.333334,0.5l-0.333334,0.5l0.333334,0.5l-0.333334,0.5l0.333334,0.5l-0.333334,0.5l0.333334,0.5l-0.333334,0.5l0.333334,0.5l-0.333334,0.5l0.333334,0.5l-0.333334,0.5l0.333334,0.5l-0.333334,0.5l0.333334,0.5l-0.333334,0.5l0.333334,0.5l-0.333334,0.5l0.333334,0.5l-0.333334,0.5l0.333334,0.5l-0.333334,0.5h-0.666668l-0.333332,0.5h-0.666668l-0.333332,-0.5h-0.666668l-0.333332,0.5h-0.666668l-0.333332,-0.5h-0.666668l-0.333332,0.5h-0.666668l-0.333332,-0.5h-0.666668l-0.333332,0.5h-0.666668l-0.333332,-0.5h-0.666668l-0.333332,0.5h-0.666668l-0.333332,-0.5h-0.666668l-0.333332,0.5h-0.666668l-0.333332,-0.5h-0.666668l-0.333332,0.5h-0.666668l-0.333332,-0.5h-0.666668l-0.333332,0.5h-0.666668l-0.333333,-0.5h-0.666666l-0.333334,0.5h-0.666666l-0.333334,-0.5h-0.666666l-0.333334,0.5h-0.666666l-0.333334,-0.5h-0.666666l-0.333334,0.5h-0.666666l-0.333334,-0.5h-0.666666l-0.333334,0.5h-0.666666l-0.333334,-0.5h-0.666667l-0.333333,0.5h-0.666667l-0.333333,-0.5h-0.666667l-0.333333,0.5h-0.666667l-0.333333,-0.5h-0.666667l-0.333334,0.5h-0.666667l-0.333334,-0.5h-0.666667l-0.333333,0.5h-0.666667l-0.333333,-0.5h-0.666667l-0.333333,0.5h-0.666667l-0.333334,-0.5l0.333334,-0.5l-0.333334,-0.5l0.333334,-0.5l-0.333334,-0.5l0.333334,-0.5l-0.333334,-0.5l0.333334,-0.5l-0.333334,-0.5l0.333334,-0.5l-0.333334,-0.5l0.333334,-0.5l-0.333334,-0.5l0.333334,-0.5l-0.333334,-0.5l0.333334,-0.5l-0.333334,-0.5l0.333334,-0.5l-0.333334,-0.5l0.333334,-0.5l-0.333334,-0.5l0.333334,-0.5l-0.333334,-0.5l0.333334,-0.5l-0.333334,-0.5l0.333334,-0.5l-0.333334,-0.5l0.333334,-0.5l-0.333334,-0.5l0.333334,-0.5l-0.333334,-0.5l0.333334,-0.5l-0.333334,-0.5l0.333334,-0.5l-0.333334,-0.5l0.333334,-0.5l-0.333334,-0.5l0.333334,-0.5l-0.333334,-0.5l0.333334,-0.5l-0.333334,-0.5l0.333334,-0.5l-0.333334,-0.5l0.333334,-0.5l-0.333334,-0.5l0.333334,-0.5l-0.333334,-0.5l0.333334,-0.5l-0.333334,-0.5l0.333334,-0.5l-0.333334,-0.5l0.333334,-0.5l-0.333334,-0.5l0.333334,-0.5l-0.333334,-0.5l0.333334,-0.5l-0.333334,-0.5l0.333334,-0.5l-0.333334,-0.5l0.333334,-0.5l-0.333334,-0.5l0.333334,-0.5l-0.333334,-0.5l0.333334,-0.5l-0.333334,-0.5l0.333334,-0.5l-0.333334,-0.5l0.333334,-0.5l-0.333334,-0.5l0.333334,-0.5l-0.333334,-0.5l0.333334,-0.5l-0.333334,-0.5l0.333334,-0.5l-0.333334,-0.5l0.333334,-0.5l-0.333334,-0.5l0.333334,-0.5l-0.333334,-0.5l0.333334,-0.5l-0.333334,-0.5Z"/></clipPath><clipPath id="did3"><path d="M19.1667,-22l-0.333332,-0.5l0.333332,-0.5h0.666668l0.333332,-0.5l-0.333332,-0.5l0.333332,-0.5l-0.333332,-0.5l0.333332,-0.5l-0.333332,-0.5l0.333332,-0.5l-0.333332,-0.5l0.333332,-0.5h0.666668l0.333332,0.5h0.666668l0.333332,-0.5h0.666668l0.333332,-0.5h0.666668l0.333332,0.5h0.666668l0.333332,0.5h0.666668l0.333332,-0.5h0.666668l0.333332,-0.5h0.666668l0.333332,0.5h0.666668l0.333332,-0.5h0.666668l0.333332,0.5l-0.333332,0.5l0.333332,0.5l-0.333332,0.5l0.333332,0.5l-0.333332,0.5l0.333332,0.5h0.666668l0.333332,0.5l-0.333332,0.5h-0.666668l-0.333332,0.5h-0.666668l-0.333332,-0.5h-0.666668l-0.333332,-0.5h-0.666668l-0.333332,0.5h-0.666668l-0.333332,-0.5h-0.666668l-0.333332,0.5h-0.666668l-0.333332,0.5h-0.666668l-0.333332,0.5h-0.666668l-0.333332,0.5h-0.666668l-0.333332,-0.5h-0.666668l-0.333332,0.5Z"/></clipPath><clipPath id="did4"><rect x="-1.25" y="-30.1" width="8.5" height="10.7"/></clipPath><clipPath id="did5"><rect x="-1.25" y="-30.1" width="8.5" height="10.7"/></clipPath></defs><g fill="None" stroke="None" transform="matrix(1,0,0,1,0,0) matrix(55.4256,0,0,64,69.282,1926.4)"><g clip-path="url(#did1)"><rect x="-2.1" y="-31.17" width="10.2" height="12.84" stroke="none" fill="White"/><path d="M-3.16667,-31.5v0l0.333334,0.5h0.666667l0.333333,-0.5" stroke="#808080" stroke-width="0.015625" fill="none"/><path d="M-3.16667,-30.5v0l0.333334,0.5h0.666667l0.333333,-0.5" stroke="#808080" stroke-width="0.015625" fill="none"/><path d="M-3.16667,-29.5v0l0.333334,0.5h0.666667l0.333333,-0.5" stroke="#808080" stroke-width="0.015625" fill="none"/><path d="M-3.16667,-28.5v0l0.333334,0.5h0.666667l0.333333,-0.5" stroke="#808080" stroke-width="0.015625" fill="none"/><path d="M-3.16667,-27.5v0l0.333334,0.5h0.666667l0.333333,-0.5" stroke="#808080" stroke-width="0.015625" fill="none"/><path d="M-3.16667,-26.5v0l0.333334,0.5h0.666667l0.333333,-0.5" stroke="#808080" stroke-width="0.015625" fill="none"/><path d="M-3.16667,-25.5v0l0.333334,0.5h0.666667l0.333333,-0.5" stroke="#808080" stroke-width="0.015625" fill="none"/><path d="M-3.16667,-24.5v0l0.333334,0.5h0.666667l0.333333,-0.5" stroke="#808080" stroke-width="0.015625" fill="none"/><path d="M-3.16667,-23.5v0l0.333334,0.5h0.666667l0.333333,-0.5" stroke="#808080" stroke-width="0.015625" fill="none"/><path d="M-3.16667,-22.5v0l0.333334,0.5h0.666667l0.333333,-0.5" stroke="#808080" stroke-width="0.015625" fill="none"/><path d="M-3.16667,-21.5v0l0.333334,0.5h0.666667l0.333333,-0.5" stroke="#808080" stroke-width="0.015625" fill="none"/><path d="M-3.16667,-20.5v0l0.333334,0.5h0.666667l0.333333,-0.5" stroke="#808080" stroke-width="0.015625" fill="none"/><path d="M-3.16667,-19.5v0l0.333334,0.5h0.666667l0.333333,-0.5" stroke="#808080" stroke-width="0.015625" fill="none"/><path d="M-2.16667,-31v0l0.333333,0.5h0.666667l0.333333,-0.5" stroke="#808080" stroke-width="0.015625" fill="none"/><path d="M-2.16667,-30v0l0.333333,0.5h0.666667l0.333333,-0.5" stroke="#808080" stroke-width="0.015625" fill="none"/><path d="M-2.16667,-29v0l0.333333,0.5h0.666667l0.333333,-0.5" stroke="#808080" stroke-width="0.015625" fill="none"/><path d="M-2.16667,-28v0l0.333333,0.5h0.666667l0.333333,-0.5" stroke="#808080" stroke-width="0.015625" fill="none"/><path d="M-2.16667,-27v0l0.333333,0.5h0.666667l0.333333,-0.5" stroke="#808080" stroke-width="0.015625" fill="none"/><path d="M-2.16667,-26v0l0.333333,0.5h0.666667l0.333333,-0.5" stroke="#808080" stroke-width="0.015625" fill="none"/><path d="M-2.16667,-25v0l0.333333,0.5h0.666667l0.333333,-0.5" stroke="#808080" stroke-width="0.015625" fill="none"/><path d="M-2.16667,-24v0l0.333333,0.5h0.666667l0.333333,-0.5" stroke="#808080" stroke-width="0.015625" fill="none"/><path d="M-2.16667,-23v0l0.333333,0.5h0.666667l0.333333,-0.5" stroke="#808080" stroke-width="0.015625" fill="none"/><path d="M-2.16667,-22v0l0.333333,0.5h0.666667l0.333333,-0.5" stroke="#808080" stroke-width="0.015625" fill="none"/><path d="M-2.16667,-21v0l0.333333,0.5h0.666667l0.333333,-0.5" stroke="#808080" stroke-width="0.015625" fill="none"/><path d="M-2.16667,-20v0l0.333333,0.5h0.666667l0.333333,-0.5" stroke="#808080" stroke-width="0.015625" fill="none"/><path d="M-2.16667,-19v0l0.333333,0.5h0.666667l0.333333,-0.5" stroke="#808080" stroke-width="0.015625" fill="none"/><path d="M-1.16667,-31.5v0l0.333333,0.5h0.666667l0.333333,-0.5" stroke="#808080" stroke-width="0.015625" fill="none"/><path d="M-1.16667,-30.5v0l0.333333,0.5h0.666667l0.333333,-0.5" stroke="#808080" stroke-width="0.015625" fill="none"/><path d="M-1.16667,-29.5v0l0.333333,0.5h0.666667l0.333333,-0.5" stroke="#808080" stroke-width="0.015625" fill="none"/><path d="M-1.16667,-28.5v0l0.333333,0.5h0.666667l0.333333,-0.5" stroke="#808080" stroke-width="0.015625" fill="none"/><path d="M-1.16667,-27.5v0l0.333333,0.5h0.666667l0.333333,-0.5" stroke="#808080" stroke-width="0.015625" fill="none"/><path d="M-1.16667,-26.5v0l0.333333,0.5h0.666667l0.333333,-0.5" stroke="#808080" stroke-width="0.015625" fill="none"/><path d="M-1.16667,-25.5v0l0.333333,0.5h0.666667l0.333333,-0.5" stroke="#808080" stroke-width="0.015625" fill="none"/><path d="M-1.16667,-24.5v0l0.333333,0.5h0.666667l0.333333,-0.5" stroke="#808080" stroke-width="0.015625" fill="none"/><path d="M-1.16667,-23.5v0l0.333333,0.5h0.666667l0.333333,-0.5" stroke="#808080" stroke-width="0.015625" fill="none"/><path d="M-1.16667,-22.5v0l0.333333,0.5h0.666667l0.333333,-0.5" stroke="#808080" stroke-width="0.015625" fill="none"/><path d="M-1.16667,-21.5v0l0.333333,0.5h0.666667l0.333333,-0.5" stroke="#808080" stroke-width="0.015625" fill="none"/><path d="M-1.16667,-20.5v0l0.333333,0.5h0.666667l0.333333,-0.5" stroke="#808080" stroke-width="0.015625" fill="none"/><path d="M-1.16667,-19.5v0l0.333333,0.5h0.666667l0.333333,-0.5" stroke="#808080" stroke-width="0.015625" fill="none"/><path d="M-0.166667,-31v0l0.333333,0.5h0.666667l0.333333,-0.5" stroke="#808080" stroke-width="0.015625" fill="none"/><path d="M-0.166667,-30v0l0.333333,0.5h0.666667l0.333333,-0.5" stroke="#808080" stroke-width="0.015625" fill="none"/><path d="M-0.166667,-29v0l0.333333,0.5h0.666667l0.333333,-0.5" stroke="#808080" stroke-width="0.015625" fill="none"/><path d="M-0.166667,-28v0l0.333333,0.5h0.666667l0.333333,-0.5" stroke="#808080" stroke-width="0.015625" fill="none"/><path d="M-0.166667,-27v0l0.333333,0.5h0.666667l0.333333,-0.5" stroke="#808080" stroke-width="0.015625" fill="none"/><path d="M-0.166667,-26v0l0.333333,0.5h0.666667l0.333333,-0.5" stroke="#808080" stroke-width="0.015625" fill="none"/><path d="M-0.166667,-25v0l0.333333,0.5h0.666667l0.333333,-0.5" stroke="#808080" stroke-width="0.015625" fill="none"/><path d="M-0.166667,-24v0l0.333333,0.5h0.666667l0.333333,-0.5" stroke="#808080" stroke-width="0.015625" fill="none"/><path d="M-0.166667,-23v0l0.333333,0.5h0.666667l0.333333,-0.5" stroke="#808080" stroke-width="0.015625" fill="none"/><path d="M-0.166667,-22v0l0.333333,0.5h0.666667l0.333333,-0.5" stroke="#808080" stroke-width="0.015625" fill="none"/><path d="M-0.166667,-21v0l0.333333,0.5h0.666667l0.333333,-0.5" stroke="#808080" stroke-width="0.015625" fill="none"/><path d="M-0.166667,-20v0l0.333333,0.5h0.666667l0.333333,-0.5" stroke="#808080" stroke-width="0.015625" fill="none"/><path d="M-0.166667,-19v0l0.333333,0.5h0.666667l0.333333,-0.5" stroke="#808080" stroke-width="0.015625" fill="none"/><path d="M0.833333,-31.5v0l0.333333,0.5h0.666667l0.333333,-0.5" stroke="#808080" stroke-width="0.015625" fill="none"/><path d="M0.833333,-30.5v0l0.333333,0.5h0.666667l0.333333,-0.5" stroke="#808080" stroke-width="0.015625" fill="none"/><path d="M0.833333,-29.5v0l0.333333,0.5h0.666667l0.333333,-0.5" stroke="#808080" stroke-width="0.015625" fill="none"/><path d="M0.833333,-28.5v0l0.333333,0.5h0.666667l0.333333,-0.5" stroke="#808080" stroke-width="0.015625" fill="none"/><path d="M0.833333,-27.5v0l0.333333,0.5h0.666667l0.333333,-0.5" stroke="#808080" stroke-width="0.015625" fill="none"/><path d="M0.833333,-26.5v0l0.333333,0.5h0.666667l0.333333,-0.5" stroke="#808080" stroke-width="0.015625" fill="none"/><path d="M0.833333,-25.5v0l0.333333,0.5h0.666667l0.333333,-0.5" stroke="#808080" stroke-width="0.015625" fill="none"/><path d="M0.833333,-24.5v0l0.333333,0.5h0.666667l0.333333,-0.5" stroke="#808080" stroke-width="0.015625" fill="none"/><path d="M0.833333,-23.5v0l0.333333,0.5h0.666667l0.333333,-0.5" stroke="#808080" stroke-width="0.015625" fill="none"/><path d="M0.833333,-22.5v0l0.333333,0.5h0.666667l0.333333,-0.5" stroke="#808080" stroke-width="0.015625" fill="none"/><path d="M0.833333,-21.5v0l0.333333,0.5h0.666667l0.333333,-0.5" stroke="#808080" stroke-width="0.015625" fill="none"/><path d="M0.833333,-20.5v0l0.333333,0.5h0.666667l0.333333,-0.5" stroke="#808080" stroke-width="0.015625" fill="none"/><path d="M0.833333,-19.5v0l0.333333,0.5h0.666667l0.333333,-0.5" stroke="#808080" stroke-width="0.015625" fill="none"/><path d="M1.83333,-31v0l0.333333,0.5h0.666667l0.333334,-0.5" stroke="#808080" stroke-width="0.015625" fill="none"/><path d="M1.83333,-30v0l0.333333,0.5h0.666667l0.333334,-0.5" stroke="#808080" stroke-width="0.015625" fill="none"/><path d="M1.83333,-29v0l0.333333,0.5h0.666667l0.333334,-0.5" stroke="#808080" stroke-width="0.015625" fill="none"/><path d="M1.83333,-28v0l0.333333,0.5h0.666667l0.333334,-0.5" stroke="#808080" stroke-width="0.015625" fill="none"/><path d="M1.83333,-27v0l0.333333,0.5h0.666667l0.333334,-0.5" stroke="#808080" stroke-width="0.015625" fill="none"/><path d="M1.83333,-26v0l0.333333,0.5h0.666667l0.333334,-0.5" stroke="#808080" stroke-width="0.015625" fill="none"/><path d="M1.83333,-25v0l0.333333,0.5h0.666667l0.333334,-0.5" stroke="#808080" stroke-width="0.015625" fill="none"/><path d="M1.83333,-24v0l0.333333,0.5h0.666667l0.333334,-0.5" stroke="#808080" stroke-width="0.015625" fill="none"/><path d="M1.83333,-23v0l0.333333,0.5h0.666667l0.333334,-0.5" stroke="#808080" stroke-width="0.015625" fill="none"/><path d="M1.83333,-22v0l0.333333,0.5h0.666667l0.333334,-0.5" stroke="#808080" stroke-width="0.015625" fill="none"/><path d="M1.83333,-21v0l0.333333,0.5h0.666667l0.333334,-0.5" stroke="#808080" stroke-width="0.015625" fill="none"/><path d="M1.83333,-20v0l0.333333,0.5h0.666667l0.333334,-0.5" stroke="#808080" stroke-width="0.015625" fill="none"/><path d="M1.83333,-19v0l0.333333,0.5h0.666667l0.333334,-0.5" stroke="#808080" stroke-width="0.015625" fill="none"/><path d="M2.83333,-31.5v0l0.333334,0.5h0.666667l0.333333,-0.5" stroke="#808080" stroke-width="0.015625" fill="none"/><path d="M2.83333,-30.5v0l0.333334,0.5h0.666667l0.333333,-0.5" stroke="#808080" stroke-width="0.015625" fill="none"/><path d="M2.83333,-29.5v0l0.333334,0.5h0.666667l0.333333,-0.5" stroke="#808080" stroke-width="0.015625" fill="none"/><path d="M2.83333,-28.5v0l0.333334,0.5h0.666667l0.333333,-0.5" stroke="#808080" stroke-width="0.015625" fill="none"/><path d="M2.83333,-27.5v0l0.333334,0.5h0.666667l0.333333,-0.5" stroke="#808080" stroke-width="0.015625" fill="none"/><path d="M2.83333,-26.5v0l0.333334,0.5h0.666667l0.333333,-0.5" stroke="#808080" stroke-width="0.015625" fill="none"/><path d="M2.83333,-25.5v0l0.333334,0.5h0.666667l0.333333,-0.5" stroke="#808080" stroke-width="0.015625" fill="none"/><path d="M2.83333,-24.5v0l0.333334,0.5h0.666667l0.333333,-0.5" stroke="#808080" stroke-width="0.015625" fill="none"/><path d="M2.83333,-23.5v0l0.333334,0.5h0.666667l0.333333,-0.5" stroke="#808080" stroke-width="0.015625" fill="none"/><path d="M2.83333,-22.5v0l0.333334,0.5h0.666667l0.333333,-0.5" stroke="#808080" stroke-width="0.015625" fill="none"/><path d="M2.83333,-21.5v0l0.333334,0.5h0.666667l0.333333,-0.5" stroke="#808080" stroke-width="0.015625" fill="none"/><path d="M2.83333,-20.5v0l0.333334,0.5h0.666667l0.333333,-0.5" stroke="#808080" stroke-width="0.015625" fill="none"/><path d="M2.83333,-19.5v0l0.333334,0.5h0.666667l0.333333,-0.5" stroke="#808080" stroke-width="0.015625" fill="none"/><path d="M3.83333,-31v0l0.333333,0.5h0.666667l0.333333,-0.5" stroke="#808080" stroke-width="0.015625" fill="none"/><path d="M3.83333,-30v0l0.333333,0.5h0.666667l0.333333,-0.5" stroke="#808080" stroke-width="0.015625" fill="none"/><path d="M3.83333,-29v0l0.333333,0.5h0.666667l0.333333,-0.5" stroke="#808080" stroke-width="0.015625" fill="none"/><path d="M3.83333,-28v0l0.333333,0.5h0.666667l0.333333,-0.5" stroke="#808080" stroke-width="0.015625" fill="none"/><path d="M3.83333,-27v0l0.333333,0.5h0.666667l0.333333,-0.5" stroke="#808080" stroke-width="0.015625" fill="none"/><path d="M3.83333,-26v0l0.333333,0.5h0.666667l0.333333,-0.5" stroke="#808080" stroke-width="0.015625" fill="none"/><path d="M3.83333,-25v0l0.333333,0.5h0.666667l0.333333,-0.5" stroke="#808080" stroke-width="0.015625" fill="none"/><path d="M3.83333,-24v0l0.333333,0.5h0.666667l0.333333,-0.5" stroke="#808080" stroke-width="0.015625" fill="none"/><path d="M3.83333,-23v0l0.333333,0.5h0.666667l0.333333,-0.5" stroke="#808080" stroke-width="0.015625" fill="none"/><path d="M3.83333,-22v0l0.333333,0.5h0.666667l0.333333,-0.5" stroke="#808080" stroke-width="0.015625" fill="none"/><path d="M3.83333,-21v0l0.333333,0.5h0.666667l0.333333,-0.5" stroke="#808080" stroke-width="0.015625" fill="none"/><path d="M3.83333,-20v0l0.333333,0.5h0.666667l0.333333,-0.5" stroke="#808080" stroke-width="0.015625" fill="none"/><path d="M3.83333,-19v0l0.333333,0.5h0.666667l0.333333,-0.5" stroke="#808080" stroke-width="0.015625" fill="none"/><path d="M4.83333,-31.5v0l0.333333,0.5h0.666667l0.333333,-0.5" stroke="#808080" stroke-width="0.015625" fill="none"/><path d="M4.83333,-30.5v0l0.333333,0.5h0.666667l0.333333,-0.5" stroke="#808080" stroke-width="0.015625" fill="none"/><path d="M4.83333,-29.5v0l0.333333,0.5h0.666667l0.333333,-0.5" stroke="#808080" stroke-width="0.015625" fill="none"/><path d="M4.83333,-28.5v0l0.333333,0.5h0.666667l0.333333,-0.5" stroke="#808080" stroke-width="0.015625" fill="none"/><path d="M4.83333,-27.5v0l0.333333,0.5h0.666667l0.333333,-0.5" stroke="#808080" stroke-width="0.015625" fill="none"/><path d="M4.83333,-26.5v0l0.333333,0.5h0.666667l0.333333,-0.5" stroke="#808080" stroke-width="0.015625" fill="none"/><path d="M4.83333,-25.5v0l0.333333,0.5h0.666667l0.333333,-0.5" stroke="#808080" stroke-width="0.015625" fill="none"/><path d="M4.83333,-24.5v0l0.333333,0.5h0.666667l0.333333,-0.5" stroke="#808080" stroke-width="0.015625" fill="none"/><path d="M4.83333,-23.5v0l0.333333,0.5h0.666667l0.333333,-0.5" stroke="#808080" stroke-width="0.015625" fill="none"/><path d="M4.83333,-22.5v0l0.333333,0.5h0.666667l0.333333,-0.5" stroke="#808080" stroke-width="0.015625" fill="none"/><path d="M4.83333,-21.5v0l0.333333,0.5h0.666667l0.333333,-0.5" stroke="#808080" stroke-width="0.015625" fill="none"/><path d="M4.83333,-20.5v0l0.333333,0.5h0.666667l0.333333,-0.5" stroke="#808080" stroke-width="0.015625" fill="none"/><path d="M4.83333,-19.5v0l0.333333,0.5h0.666667l0.333333,-0.5" stroke="#808080" stroke-width="0.015625" fill="none"/><path d="M5.83333,-31v0l0.333333,0.5h0.666667l0.333333,-0.5" stroke="#808080" stroke-width="0.015625" fill="none"/><path d="M5.83333,-30v0l0.333333,0.5h0.666667l0.333333,-0.5" stroke="#808080" stroke-width="0.015625" fill="none"/><path d="M5.83333,-29v0l0.333333,0.5h0.666667l0.333333,-0.5" stroke="#808080" stroke-width="0.015625" fill="none"/><path d="M5.83333,-28v0l0.333333,0.5h0.666667l0.333333,-0.5" stroke="#808080" stroke-width="0.015625" fill="none"/><path d="M5.83333,-27v0l0.333333,0.5h0.666667l0.333333,-0.5" stroke="#808080" stroke-width="0.015625" fill="none"/><path d="M5.83333,-26v0l0.333333,0.5h0.666667l0.333333,-0.5" stroke="#808080" stroke-width="0.015625" fill="none"/><path d="M5.83333,-25v0l0.333333,0.5h0.666667l0.333333,-0.5" stroke="#808080" stroke-width="0.015625" fill="none"/><path d="M5.83333,-24v0l0.333333,0.5h0.666667l0.333333,-0.5" stroke="#808080" stroke-width="0.015625" fill="none"/><path d="M5.83333,-23v0l0.333333,0.5h0.666667l0.333333,-0.5" stroke="#808080" stroke-width="0.015625" fill="none"/><path d="M5.83333,-22v0l0.333333,0.5h0.666667l0.333333,-0.5" stroke="#808080" stroke-width="0.015625" fill="none"/><path d="M5.83333,-21v0l0.333333,0.5h0.666667l0.333333,-0.5" stroke="#808080" stroke-width="0.015625" fill="none"/><path d="M5.83333,-20v0l0.333333,0.5h0.666667l0.333333,-0.5" stroke="#808080" stroke-width="0.015625" fill="none"/><path d="M5.83333,-19v0l0.333333,0.5h0.666667l0.333333,-0.5" stroke="#808080" stroke-width="0.015625" fill="none"/><path d="M6.83333,-31.5v0l0.333333,0.5h0.666667l0.333334,-0.5" stroke="#808080" stroke-width="0.015625" fill="none"/><path d="M6.83333,-30.5v0l0.333333,0.5h0.666667l0.333334,-0.5" stroke="#808080" stroke-width="0.015625" fill="none"/><path d="M6.83333,-29.5v0l0.333333,0.5h0.666667l0.333334,-0.5" stroke="#808080" stroke-width="0.015625" fill="none"/><path d="M6.83333,-28.5v0l0.333333,0.5h0.666667l0.333334,-0.5" stroke="#808080" stroke-width="0.015625" fill="none"/><path d="M6.83333,-27.5v0l0.333333,0.5h0.666667l0.333334,-0.5" stroke="#808080" stroke-width="0.015625" fill="none"/><path d="M6.83333,-26.5v0l0.333333,0.5h0.666667l0.333334,-0.5" stroke="#808080" stroke-width="0.015625" fill="none"/><path d="M6.83333,-25.5v0l0.333333,0.5h0.666667l0.333334,-0.5" stroke="#808080" stroke-width="0.015625" fill="none"/><path d="M6.83333,-24.5v0l0.333333,0.5h0.666667l0.333334,-0.5" stroke="#808080" stroke-width="0.015625" fill="none"/><path d="M6.83333,-23.5v0l0.333333,0.5h0.666667l0.333334,-0.5" stroke="#808080" stroke-width="0.015625" fill="none"/><path d="M6.83333,-22.5v0l0.333333,0.5h0.666667l0.333334,-0.5" stroke="#808080" stroke-width="0.015625" fill="none"/><path d="M6.83333,-21.5v0l0.333333,0.5h0.666667l0.333334,-0.5" stroke="#808080" stroke-width="0.015625" fill="none"/><path d="M6.83333,-20.5v0l0.333333,0.5h0.666667l0.333334,-0.5" stroke="#808080" stroke-width="0.015625" fill="none"/><path d="M6.83333,-19.5v0l0.333333,0.5h0.666667l0.333334,-0.5" stroke="#808080" stroke-width="0.015625" fill="none"/><path clip-path="url(#did2)" d="M-1.83333,-39.5l-0.333334,-0.5l0.333334,-0.5h0.666667l0.333333,-0.5h0.666667l0.333333,0.5h0.666667l0.333333,-0.5h0.666667l0.333334,0.5h0.666667l0.333334,-0.5h0.666667l0.333333,0.5h0.666667l0.333333,-0.5h0.666667l0.333333,0.5h0.666667l0.333333,-0.5h0.666667l0.333334,0.5h0.666666l0.333334,-0.5h0.666666l0.333334,0.5h0.666666l0.333334,-0.5h0.666666l0.333334,0.5h0.666666l0.333334,-0.5h0.666666l0.333334,0.5h0.666666l0.333334,-0.5h0.666666l0.333333,0.5h0.666668l0.333332,-0.5h0.666668l0.333332,0.5h0.666668l0.333332,-0.5h0.666668l0.333332,0.5h0.666668l0.333332,-0.5h0.666668l0.333332,0.5h0.666668l0.333332,-0.5h0.666668l0.333332,0.5h0.666668l0.333332,-0.5h0.666668l0.333332,0.5h0.666668l0.333332,-0.5h0.666668l0.333332,0.5h0.666668l0.333332,-0.5h0.666668l0.333332,0.5h0.666668l0.333332,-0.5h0.666668l0.333334,0.5l-0.333334,0.5l0.333334,0.5l-0.333334,0.5l0.333334,0.5l-0.333334,0.5l0.333334,0.5l-0.333334,0.5l0.333334,0.5l-0.333334,0.5l0.333334,0.5l-0.333334,0.5l0.333334,0.5l-0.333334,0.5l0.333334,0.5l-0.333334,0.5l0.333334,0.5l-0.333334,0.5l0.333334,0.5l-0.333334,0.5l0.333334,0.5l-0.333334,0.5l0.333334,0.5l-0.333334,0.5l0.333334,0.5l-0.333334,0.5l0.333334,0.5l-0.333334,0.5l0.333334,0.5l-0.333334,0.5l0.333334,0.5l-0.333334,0.5l0.333334,0.5l-0.333334,0.5l0.333334,0.5l-0.333334,0.5l0.333334,0.5l-0.333334,0.5l0.333334,0.5l-0.333334,0.5l0.333334,0.5l-0.333334,0.5l0.333334,0.5l-0.333334,0.5l0.333334,0.5l-0.333334,0.5l0.333334,0.5l-0.333334,0.5l0.333334,0.5l-0.333334,0.5l0.333334,0.5l-0.333334,0.5l0.333334,0.5l-0.333334,0.5l0.333334,0.5l-0.333334,0.5l0.333334,0.5l-0.333334,0.5l0.333334,0.5l-0.333334,0.5l0.333334,0.5l-0.333334,0.5l0.333334,0.5l-0.333334,0.5l0.333334,0.5l-0.333334,0.5l0.333334,0.5l-0.333334,0.5l0.333334,0.5l-0.333334,0.5l0.333334,0.5l-0.333334,0.5l0.333334,0.5l-0.333334,0.5l0.333334,0.5l-0.333334,0.5l0.333334,0.5l-0.333334,0.5l0.333334,0.5l-0.333334,0.5l0.333334,0.5l-0.333334,0.5l0.333334,0.5l-0.333334,0.5h-0.666668l-0.333332,0.5h-0.666668l-0.333332,-0.5h-0.666668l-0.333332,0.5h-0.666668l-0.333332,-0.5h-0.666668l-0.333332,0.5h-0.666668l-0.333332,-0.5h-0.666668l-0.333332,0.5h-0.666668l-0.333332,-0.5h-0.666668l-0.333332,0.5h-0.666668l-0.333332,-0.5h-0.666668l-0.333332,0.5h-0.666668l-0.333332,-0.5h-0.666668l-0.333332,0.5h-0.666668l-0.333332,-0.5h-0.666668l-0.333332,0.5h-0.666668l-0.333333,-0.5h-0.666666l-0.333334,0.5h-0.666666l-0.333334,-0.5h-0.666666l-0.333334,0.5h-0.666666l-0.333334,-0.5h-0.666666l-0.333334,0.5h-0.666666l-0.333334,-0.5h-0.666666l-0.333334,0.5h-0.666666l-0.333334,-0.5h-0.666667l-0.333333,0.5h-0.666667l-0.333333,-0.5h-0.666667l-0.333333,0.5h-0.666667l-0.333333,-0.5h-0.666667l-0.333334,0.5h-0.666667l-0.333334,-0.5h-0.666667l-0.333333,0.5h-0.666667l-0.333333,-0.5h-0.666667l-0.333333,0.5h-0.666667l-0.333334,-0.5l0.333334,-0.5l-0.333334,-0.5l0.333334,-0.5l-0.333334,-0.5l0.333334,-0.5l-0.333334,-0.5l0.333334,-0.5l-0.333334,-0.5l0.333334,-0.5l-0.333334,-0.5l0.333334,-0.5l-0.333334,-0.5l0.333334,-0.5l-0.333334,-0.5l0.333334,-0.5l-0.333334,-0.5l0.333334,-0.5l-0.333334,-0.5l0.333334,-0.5l-0.333334,-0.5l0.333334,-0.5l-0.333334,-0.5l0.333334,-0.5l-0.333334,-0.5l0.333334,-0.5l-0.333334,-0.5l0.333334,-0.5l-0.333334,-0.5l0.333334,-0.5l-0.333334,-0.5l0.333334,-0.5l-0.333334,-0.5l0.333334,-0.5l-0.333334,-0.5l0.333334,-0.5l-0.333334,-0.5l0.333334,-0.5l-0.333334,-0.5l0.333334,-0.5l-0.333334,-0.5l0.333334,-0.5l-0.333334,-0.5l0.333334,-0.5l-0.333334,-0.5l0.333334,-0.5l-0.333334,-0.5l0.333334,-0.5l-0.333334,-0.5l0.333334,-0.5l-0.333334,-0.5l0.333334,-0.5l-0.333334,-0.5l0.333334,-0.5l-0.333334,-0.5l0.333334,-0.5l-0.333334,-0.5l0.333334,-0.5l-0.333334,-0.5l0.333334,-0.5l-0.333334,-0.5l0.333334,-0.5l-0.333334,-0.5l0.333334,-0.5l-0.333334,-0.5l0.333334,-0.5l-0.333334,-0.5l0.333334,-0.5l-0.333334,-0.5l0.333334,-0.5l-0.333334,-0.5l0.333334,-0.5l-0.333334,-0.5l0.333334,-0.5l-0.333334,-0.5l0.333334,-0.5l-0.333334,-0.5l0.333334,-0.5l-0.333334,-0.5l0.333334,-0.5l-0.333334,-0.5Z" stroke="#E32736" stroke-width="0.16" fill="none"/><path clip-path="url(#did3)" d="M19.1667,-22l-0.333332,-0.5l0.333332,-0.5h0.666668l0.333332,-0.5l-0.333332,-0.5l0.333332,-0.5l-0.333332,-0.5l0.333332,-0.5l-0.333332,-0.5l0.333332,-0.5l-0.333332,-0.5l0.333332,-0.5h0.666668l0.333332,0.5h0.666668l0.333332,-0.5h0.666668l0.333332,-0.5h0.666668l0.333332,0.5h0.666668l0.333332,0.5h0.666668l0.333332,-0.5h0.666668l0.333332,-0.5h0.666668l0.333332,0.5h0.666668l0.333332,-0.5h0.666668l0.333332,0.5l-0.333332,0.5l0.333332,0.5l-0.333332,0.5l0.333332,0.5l-0.333332,0.5l0.333332,0.5h0.666668l0.333332,0.5l-0.333332,0.5h-0.666668l-0.333332,0.5h-0.666668l-0.333332,-0.5h-0.666668l-0.333332,-0.5h-0.666668l-0.333332,0.5h-0.666668l-0.333332,-0.5h-0.666668l-0.333332,0.5h-0.666668l-0.333332,0.5h-0.666668l-0.333332,0.5h-0.666668l-0.333332,0.5h-0.666668l-0.333332,-0.5h-0.666668l-0.333332,0.5Z" stroke="Blue" stroke-width="0.16" fill="none"/><line x1="-0.355662" y1="-28.7165" x2="0.355662" y2="-29.7835" stroke="#048104" stroke-width="0.08"/><line x1="6.68898" y1="-29.189" x2="8.31102" y2="-30.811" stroke="#048104" stroke-width="0.08"/><line x1="6.5" y1="-28.75" x2="6.5" y2="-28.25" stroke="#048104" stroke-width="0.08"/><line x1="3.78347" y1="-28.4528" x2="6.21653" y2="-28.0473" stroke="#048104" stroke-width="0.08"/><line x1="-0.211325" y1="-28.5" x2="3.21133" y2="-28.5" stroke="#048104" stroke-width="0.08"/><line x1="6.78868" y1="-28" x2="8.21133" y2="-28" stroke="#048104" stroke-width="0.08"/><line x1="6.59449" y1="-27.7638" x2="7.40551" y2="-25.7362" stroke="#048104" stroke-width="0.08"/><line x1="3.75" y1="-23.625" x2="7.25" y2="-25.375" stroke="#048104" stroke-width="0.08"/><line x1="2.75" y1="-23.875" x2="3.25" y2="-23.625" stroke="#048104" stroke-width="0.08"/><line x1="0.788675" y1="-24" x2="2.21133" y2="-24" stroke="#048104" stroke-width="0.08"/><line x1="3.5" y1="-23.25" x2="3.5" y2="-21.75" stroke="#048104" stroke-width="0.08"/><line x1="2.64434" y1="-20.2165" x2="3.35566" y2="-21.2835" stroke="#048104" stroke-width="0.08"/><line x1="2.5" y1="-19.75" x2="2.5" y2="-19.25" stroke="#048104" stroke-width="0.08"/><line x1="-2.25" y1="-29.375" x2="-0.75" y2="-28.625" stroke="#048104" stroke-width="0.08"/><line x1="-2.31102" y1="-26.689" x2="-0.688982" y2="-28.311" stroke="#048104" stroke-width="0.08"/><line x1="-2.25" y1="-25.375" x2="0.25" y2="-24.125" stroke="#048104" stroke-width="0.08"/></g><g clip-path="url(#did4)"><text transform="translate(-0.5,-28.5) scale(1.1547 1)" font-family="Arial" font-size="0.14" text-anchor="middle" x="0" y="-0.381" fill="DarkGray">0112</text><text transform="translate(-0.5,-27.5) scale(1.1547 1)" font-family="Arial" font-size="0.14" text-anchor="middle" x="0" y="-0.381" fill="DarkGray">0113</text><text transform="translate(-0.5,-26.5) scale(1.1547 1)" font-family="Arial" font-size="0.14" text-anchor="middle" x="0" y="-0.381" fill="DarkGray">0114</text><text transform="translate(-0.5,-24.5) scale(1.1547 1)" font-family="Arial" font-size="0.14" text-anchor="middle" x="0" y="-0.381" fill="DarkGray">0116</text><text transform="translate(-0.5,-23.5) scale(1.1547 1)" font-family="Arial" font-size="0.14" text-anchor="middle" x="0" y="-0.381" fill="DarkGray">0117</text><text transform="translate(-0.5,-20.5) scale(1.1547 1)" font-family="Arial" font-size="0.14" text-anchor="middle" x="0" y="-0.381" fill="DarkGray">0120</text><text transform="translate(0.5,-28) scale(1.1547 1)" font-family="Arial" font-size="0.14" text-anchor="middle" x="0" y="-0.381" fill="DarkGray">0212</text><text transform="translate(0.5,-24) scale(1.1547 1)" font-family="Arial" font-size="0.14" text-anchor="middle" x="0" y="-0.381" fill="DarkGray">0216</text><text transform="translate(0.5,-22) scale(1.1547 1)" font-family="Arial" font-size="0.14" text-anchor="middle" x="0" y="-0.381" fill="DarkGray">0218</text><text transform="translate(0.5,-20) scale(1.1547 1)" font-family="Arial" font-size="0.14" text-anchor="middle" x="0" y="-0.381" fill="DarkGray">0220</text><text transform="translate(1.5,-27.5) scale(1.1547 1)" font-family="Arial" font-size="0.14" text-anchor="middle" x="0" y="-0.381" fill="DarkGray">0313</text><text transform="translate(1.5,-26.5) scale(1.1547 1)" font-family="Arial" font-size="0.14" text-anchor="middle" x="0" y="-0.381" fill="DarkGray">0314</text><text transform="translate(1.5,-25.5) scale(1.1547 1)" font-family="Arial" font-size="0.14" text-anchor="middle" x="0" y="-0.381" fill="DarkGray">0315</text><text transform="translate(1.5,-24.5) scale(1.1547 1)" font-family="Arial" font-size="0.14" text-anchor="middle" x="0" y="-0.381" fill="DarkGray">0316</text><text transform="translate(1.5,-21.5) scale(1.1547 1)" font-family="Arial" font-size="0.14" text-anchor="middle" x="0" y="-0.381" fill="DarkGray">0319</text><text transform="translate(2.5,-29) scale(1.1547 1)" font-family="Arial" font-size="0.14" text-anchor="middle" x="0" y="-0.381" fill="DarkGray">0411</text><text transform="translate(2.5,-26) scale(1.1547 1)" font-family="Arial" font-size="0.14" text-anchor="middle" x="0" y="-0.381" fill="DarkGray">0414</text><g transform="translate(2.5,-24) scale(1.1547 1)"><circle r="0.4" cx="0" cy="0" stroke="#FFCC00" stroke-width="0.05" fill="none"/><text font-family="Arial" font-size="0.14" text-anchor="middle" x="0" y="-0.381" fill="DarkGray">0416</text></g><text transform="translate(2.5,-22) scale(1.1547 1)" font-family="Arial" font-size="0.14" text-anchor="middle" x="0" y="-0.381" fill="DarkGray">0418</text><text transform="translate(2.5,-20) scale(1.1547 1)" font-family="Arial" font-size="0.14" text-anchor="middle" x="0" y="-0.381" fill="DarkGray">0420</text><text transform="translate(3.5,-29.5) scale(1.1547 1)" font-family="Arial" font-size="0.14" text-anchor="middle" x="0" y="-0.381" fill="DarkGray">0511</text><text transform="translate(3.5,-28.5) scale(1.1547 1)" font-family="Arial" font-size="0.14" text-anchor="middle" x="0" y="-0.381" fill="DarkGray">0512</text><text transform="translate(3.5,-27.5) scale(1.1547 1)" font-family="Arial" font-size="0.14" text-anchor="middle" x="0" y="-0.381" fill="DarkGray">0513</text><text transform="translate(3.5,-24.5) scale(1.1547 1)" font-family="Arial" font-size="0.14" text-anchor="middle" x="0" y="-0.381" fill="DarkGray">0516</text><text transform="translate(3.5,-23.5) scale(1.1547 1)" font-family="Arial" font-size="0.14" text-anchor="middle" x="0" y="-0.381" fill="DarkGray">0517</text><text transform="translate(3.5,-21.5) scale(1.1547 1)" font-family="Arial" font-size="0.14" text-anchor="middle" x="0" y="-0.381" fill="DarkGray">0519</text><text transform="translate(4.5,-28) scale(1.1547 1)" font-family="Arial" font-size="0.14" text-anchor="middle" x="0" y="-0.381" fill="DarkGray">0612</text><text transform="translate(4.5,-21) scale(1.1547 1)" font-family="Arial" font-size="0.14" text-anchor="middle" x="0" y="-0.381" fill="DarkGray">0619</text><text transform="translate(5.5,-27.5) scale(1.1547 1)" font-family="Arial" font-size="0.14" text-anchor="middle" x="0" y="-0.381" fill="DarkGray">0713</text><g transform="translate(5.5,-26.5) scale(1.1547 1)"><circle r="0.4" cx="0" cy="0" stroke="#FFCC00" stroke-width="0.05" fill="none"/><text font-family="Arial" font-size="0.14" text-anchor="middle" x="0" y="-0.381" fill="DarkGray">0714</text></g><text transform="translate(5.5,-22.5) scale(1.1547 1)" font-family="Arial" font-size="0.14" text-anchor="middle" x="0" y="-0.381" fill="DarkGray">0718</text><g transform="translate(6.5,-29) scale(1.1547 1)"><circle r="0.4" cx="0" cy="0" stroke="#FFCC00" stroke-width="0.05" fill="none"/><text font-family="Arial" font-size="0.14" text-anchor="middle" x="0" y="-0.381" fill="DarkGray">0811</text></g><text transform="translate(6.5,-28) scale(1.1547 1)" font-family="Arial" font-size="0.14" text-anchor="middle" x="0" y="-0.381" fill="DarkGray">0812</text><text transform="translate(6.5,-24) scale(1.1547 1)" font-family="Arial" font-size="0.14" text-anchor="middle" x="0" y="-0.381" fill="DarkGray">0816</text><text transform="translate(6.5,-20) scale(1.1547 1)" font-family="Arial" font-size="0.14" text-anchor="middle" x="0" y="-0.381" fill="DarkGray">0820</text></g><g transform="translate(-0.5,-28.5) scale(1.1547 1)"><circle transform="translate(0.25,-0.18)" r="0.05" cx="0" cy="0" stroke="none" fill="Black"/><rect x="-0.113084" y="-0.35543" width="0.226167" height="0.260859" stroke="none" fill="White"/><text font-family="Arial" font-size="0.21" font-weight="bold" text-anchor="middle" x="0" y="-0.13575" fill="Black">A</text><circle r="0.1" cx="0" cy="0" stroke="none" fill="DeepSkyBlue"/><rect x="-0.209368" y="0.23957" width="0.418735" height="0.260859" stroke="none" fill="White"/><text font-family="Arial" font-size="0.21" font-weight="bold" text-anchor="middle" x="0" y="0.45925" fill="Black">Per</text></g><g transform="translate(-0.5,-27.5) scale(1.1547 1)"><circle transform="translate(0.25,-0.18)" r="0.05" cx="0" cy="0" stroke="none" fill="Black"/><rect x="-0.113084" y="-0.35543" width="0.226167" height="0.260859" stroke="none" fill="White"/><text font-family="Arial" font-size="0.21" font-weight="bold" text-anchor="middle" x="0" y="-0.13575" fill="Black">C</text><circle r="0.1" cx="0" cy="0" stroke="none" fill="DeepSkyBlue"/><rect x="-0.365483" y="0.23957" width="0.730967" height="0.260859" stroke="none" fill="White"/><text font-family="Arial" font-size="0.21" font-weight="bold" text-anchor="middle" x="0" y="0.45925" fill="Black">Khishi</text></g><g transform="translate(-0.5,-26.5) scale(1.1547 1)"><rect x="-0.113084" y="-0.35543" width="0.226167" height="0.260859" stroke="none" fill="White"/><text font-family="Arial" font-size="0.21" font-weight="bold" text-anchor="middle" x="0" y="-0.13575" fill="Black">B</text><text font-family="Arial Unicode MS,Segoe UI Symbol,Arial" font-size="0.21" font-weight="bold" text-anchor="middle" x="-0.25" y="-0.09075" fill="Black">★</text><text font-family="Arial Unicode MS,Segoe UI Symbol,Arial" font-size="0.21" font-weight="bold" text-anchor="middle" x="-0.25" y="0.26925" fill="Black">▲</text><circle r="0.1" cx="0" cy="0" stroke="Black" stroke-width="0.015625" fill="White"/><rect x="-0.2753" y="0.23957" width="0.550601" height="0.260859" stroke="none" fill="White"/><text font-family="Arial" font-size="0.21" font-weight="bold" text-anchor="middle" x="0" y="0.45925" fill="Black">Khid</text></g><g transform="translate(-0.5,-24.5) scale(1.1547 1)"><circle transform="translate(0.25,-0.18)" r="0.05" cx="0" cy="0" stroke="none" fill="Black"/><rect x="-0.113084" y="-0.35543" width="0.226167" height="0.260859" stroke="none" fill="White"/><text font-family="Arial" font-size="0.21" font-weight="bold" text-anchor="middle" x="0" y="-0.13575" fill="Black">B</text><circle r="0.1" cx="0" cy="0" stroke="none" fill="DeepSkyBlue"/><rect x="-0.32939" y="0.23957" width="0.658779" height="0.260859" stroke="none" fill="White"/><text font-family="Arial" font-size="0.21" font-weight="bold" text-anchor="middle" x="0" y="0.45925" fill="Black">Idpuu</text></g><g transform="translate(-0.5,-23.5) scale(1.1547 1)"><rect x="-0.113084" y="-0.35543" width="0.226167" height="0.260859" stroke="none" fill="White"/><text font-family="Arial" font-size="0.21" font-weight="bold" text-anchor="middle" x="0" y="-0.13575" fill="Black">B</text><text font-family="Arial Unicode MS,Segoe UI Symbol,Arial" font-size="0.21" font-weight="bold" text-anchor="middle" x="-0.25" y="-0.09075" fill="Black">★</text><circle r="0.1" cx="0" cy="0" stroke="none" fill="DeepSkyBlue"/><rect x="-0.263406" y="0.23957" width="0.526812" height="0.260859" stroke="none" fill="White"/><text font-family="Arial" font-size="0.21" font-weight="bold" text-anchor="middle" x="0" y="0.45925" fill="Black">Neki</text></g><g transform="translate(-0.5,-20.5) scale(1.1547 1)"><rect x="-0.113084" y="-0.35543" width="0.226167" height="0.260859" stroke="none" fill="White"/><text font-family="Arial" font-size="0.21" font-weight="bold" text-anchor="middle" x="0" y="-0.13575" fill="Black">C</text><circle r="0.1" cx="0" cy="0" stroke="none" fill="DeepSkyBlue"/><rect x="-0.269353" y="0.23957" width="0.538706" height="0.260859" stroke="none" fill="White"/><text font-family="Arial" font-size="0.21" font-weight="bold" text-anchor="middle" x="0" y="0.45925" fill="Black">Kein</text></g><g transform="translate(0.5,-28) scale(1.1547 1)"><circle transform="translate(0.25,-0.18)" r="0.05" cx="0" cy="0" stroke="none" fill="Black"/><rect x="-0.113084" y="-0.35543" width="0.226167" height="0.260859" stroke="none" fill="White"/><text font-family="Arial" font-size="0.21" font-weight="bold" text-anchor="middle" x="0" y="-0.13575" fill="Black">B</text><text font-family="Arial Unicode MS,Segoe UI Symbol,Arial" font-size="0.21" font-weight="bold" text-anchor="middle" x="-0.25" y="-0.09075" fill="Black">★</text><circle r="0.1" cx="0" cy="0" stroke="none" fill="DeepSkyBlue"/><rect x="-0.19127" y="0.23957" width="0.382539" height="0.260859" stroke="none" fill="White"/><text font-family="Arial" font-size="0.21" font-weight="bold" text-anchor="middle" x="0" y="0.45925" fill="Black">Gir</text></g><g transform="translate(0.5,-24) scale(1.1547 1)"><circle transform="translate(0.25,-0.18)" r="0.05" cx="0" cy="0" stroke="none" fill="Black"/><rect x="-0.113084" y="-0.35543" width="0.226167" height="0.260859" stroke="none" fill="White"/><text font-family="Arial" font-size="0.21" font-weight="bold" text-anchor="middle" x="0" y="-0.13575" fill="Black">B</text><text font-family="Arial Unicode MS,Segoe UI Symbol,Arial" font-size="0.21" font-weight="bold" text-anchor="middle" x="-0.25" y="-0.09075" fill="Black">★</text><circle r="0.1" cx="0" cy="0" stroke="none" fill="DeepSkyBlue"/><rect x="-0.425674" y="0.23957" width="0.851348" height="0.260859" stroke="none" fill="White"/><text font-family="Arial" font-size="0.21" font-weight="bold" text-anchor="middle" x="0" y="0.45925" fill="Black">Emuuis</text></g><g transform="translate(0.5,-22) scale(1.1547 1)"><circle transform="translate(0.25,-0.18)" r="0.05" cx="0" cy="0" stroke="none" fill="Black"/><rect x="-0.113084" y="-0.35543" width="0.226167" height="0.260859" stroke="none" fill="White"/><text font-family="Arial" font-size="0.21" font-weight="bold" text-anchor="middle" x="0" y="-0.13575" fill="Black">D</text><text font-family="Arial Unicode MS,Segoe UI Symbol,Arial" font-size="0.21" font-weight="bold" text-anchor="middle" x="-0.25" y="0.26925" fill="Black">▲</text><circle r="0.1" cx="0" cy="0" stroke="none" fill="DeepSkyBlue"/><rect x="-0.605886" y="0.23957" width="1.21177" height="0.260859" stroke="none" fill="White"/><text font-family="Arial" font-size="0.21" font-weight="bold" text-anchor="middle" x="0" y="0.45925" fill="Black">Darnii Kimi</text></g><g transform="translate(0.5,-20) scale(1.1547 1)"><circle transform="translate(0.25,-0.18)" r="0.05" cx="0" cy="0" stroke="none" fill="Black"/><rect x="-0.113084" y="-0.35543" width="0.226167" height="0.260859" stroke="none" fill="White"/><text font-family="Arial" font-size="0.21" font-weight="bold" text-anchor="middle" x="0" y="-0.13575" fill="Black">D</text><circle r="0.1" cx="0" cy="0" stroke="none" fill="DeepSkyBlue"/><rect x="-0.203267" y="0.23957" width="0.406533" height="0.260859" stroke="none" fill="White"/><text font-family="Arial" font-size="0.21" font-weight="bold" text-anchor="middle" x="0" y="0.45925" fill="Black">Inir</text></g><g transform="translate(1.5,-27.5) scale(1.1547 1)"><circle transform="translate(0.25,-0.18)" r="0.05" cx="0" cy="0" stroke="none" fill="Black"/><rect x="-0.113084" y="-0.35543" width="0.226167" height="0.260859" stroke="none" fill="White"/><text font-family="Arial" font-size="0.21" font-weight="bold" text-anchor="middle" x="0" y="-0.13575" fill="Black">B</text><text font-family="Arial Unicode MS,Segoe UI Symbol,Arial" font-size="0.21" font-weight="bold" text-anchor="middle" x="-0.25" y="-0.09075" fill="Black">★</text><text font-family="Arial Unicode MS,Segoe UI Symbol,Arial" font-size="0.21" font-weight="bold" text-anchor="middle" x="-0.25" y="0.26925" fill="Black">▲</text><circle r="0.1" cx="0" cy="0" stroke="none" fill="DeepSkyBlue"/><rect x="-0.702068" y="0.23957" width="1.40414" height="0.260859" stroke="none" fill="White"/><text font-family="Arial" font-size="0.21" font-weight="bold" text-anchor="middle" x="0" y="0.45925" fill="Black">Maish Akush</text></g><g transform="translate(1.5,-26.5) scale(1.1547 1)"><circle transform="translate(0.25,-0.18)" r="0.05" cx="0" cy="0" stroke="none" fill="Black"/><rect x="-0.113084" y="-0.35543" width="0.226167" height="0.260859" stroke="none" fill="White"/><text font-family="Arial" font-size="0.21" font-weight="bold" text-anchor="middle" x="0" y="-0.13575" fill="Black">B</text><circle r="0.1" cx="0" cy="0" stroke="Black" stroke-width="0.015625" fill="White"/><rect x="-0.798352" y="0.23957" width="1.5967" height="0.260859" stroke="none" fill="White"/><text font-family="Arial" font-size="0.21" font-weight="bold" text-anchor="middle" x="0" y="0.45925" fill="Black">Maarshigervlig</text></g><g transform="translate(1.5,-25.5) scale(1.1547 1)"><circle transform="translate(0.25,-0.18)" r="0.05" cx="0" cy="0" stroke="none" fill="Black"/><rect x="-0.113084" y="-0.35543" width="0.226167" height="0.260859" stroke="none" fill="White"/><text font-family="Arial" font-size="0.21" font-weight="bold" text-anchor="middle" x="0" y="-0.13575" fill="Black">B</text><circle r="0.1" cx="0" cy="0" stroke="none" fill="DeepSkyBlue"/><rect x="-0.575996" y="0.23957" width="1.15199" height="0.260859" stroke="none" fill="White"/><text font-family="Arial" font-size="0.21" font-weight="bold" text-anchor="middle" x="0" y="0.45925" fill="Black">Dankahlas</text></g><g transform="translate(1.5,-24.5) scale(1.1547 1)"><circle transform="translate(0.25,-0.18)" r="0.05" cx="0" cy="0" stroke="none" fill="Black"/><rect x="-0.113084" y="-0.35543" width="0.226167" height="0.260859" stroke="none" fill="White"/><text font-family="Arial" font-size="0.21" font-weight="bold" text-anchor="middle" x="0" y="-0.13575" fill="Black">D</text><text font-family="Arial Unicode MS,Segoe UI Symbol,Arial" font-size="0.21" font-weight="bold" text-anchor="middle" x="-0.25" y="0.26925" fill="Black">▲</text><circle r="0.1" cx="0" cy="0" stroke="none" fill="DeepSkyBlue"/><rect x="-0.377378" y="0.23957" width="0.754756" height="0.260859" stroke="none" fill="White"/><text font-family="Arial" font-size="0.21" font-weight="bold" text-anchor="middle" x="0" y="0.45925" fill="Black">DUDIN</text></g><g transform="translate(1.5,-21.5) scale(1.1547 1)"><circle transform="translate(0.25,-0.18)" r="0.05" cx="0" cy="0" stroke="none" fill="Black"/><rect x="-0.113084" y="-0.35543" width="0.226167" height="0.260859" stroke="none" fill="White"/><text font-family="Arial" font-size="0.21" font-weight="bold" text-anchor="middle" x="0" y="-0.13575" fill="Black">B</text><circle r="0.1" cx="0" cy="0" stroke="none" fill="DeepSkyBlue"/><rect x="-0.335491" y="0.23957" width="0.670981" height="0.260859" stroke="none" fill="White"/><text font-family="Arial" font-size="0.21" font-weight="bold" text-anchor="middle" x="0" y="0.45925" fill="Black">Uurze</text></g><g transform="translate(2.5,-29) scale(1.1547 1)"><circle transform="translate(0.25,-0.18)" r="0.05" cx="0" cy="0" stroke="none" fill="Black"/><rect x="-0.113084" y="-0.35543" width="0.226167" height="0.260859" stroke="none" fill="White"/><text font-family="Arial" font-size="0.21" font-weight="bold" text-anchor="middle" x="0" y="-0.13575" fill="Black">D</text><text font-family="Arial Unicode MS,Segoe UI Symbol,Arial" font-size="0.21" font-weight="bold" text-anchor="middle" x="-0.25" y="0.26925" fill="Black">▲</text><circle r="0.1" cx="0" cy="0" stroke="none" fill="DeepSkyBlue"/><rect x="-0.299448" y="0.23957" width="0.598896" height="0.260859" stroke="none" fill="White"/><text font-family="Arial" font-size="0.21" font-weight="bold" text-anchor="middle" x="0" y="0.45925" fill="Black">Kash</text></g><g transform="translate(2.5,-26) scale(1.1547 1)"><circle transform="translate(0.25,-0.18)" r="0.05" cx="0" cy="0" stroke="none" fill="Black"/><rect x="-0.113084" y="-0.35543" width="0.226167" height="0.260859" stroke="none" fill="White"/><text font-family="Arial" font-size="0.21" font-weight="bold" text-anchor="middle" x="0" y="-0.13575" fill="Black">D</text><text font-family="Arial Unicode MS,Segoe UI Symbol,Arial" font-size="0.21" font-weight="bold" text-anchor="middle" x="-0.25" y="0.26925" fill="Black">▲</text><circle r="0.1" cx="0" cy="0" stroke="none" fill="DeepSkyBlue"/><rect x="-0.485762" y="0.23957" width="0.971524" height="0.260859" stroke="none" fill="White"/><text font-family="Arial" font-size="0.21" font-weight="bold" text-anchor="middle" x="0" y="0.45925" fill="Black">Shiinaua</text></g><g transform="translate(2.5,-24) scale(1.1547 1)"><circle transform="translate(0.25,-0.18)" r="0.05" cx="0" cy="0" stroke="none" fill="Black"/><rect x="-0.113084" y="-0.35543" width="0.226167" height="0.260859" stroke="none" fill="White"/><text font-family="Arial" font-size="0.21" font-weight="bold" text-anchor="middle" x="0" y="-0.13575" fill="Black">A</text><text font-family="Arial Unicode MS,Segoe UI Symbol,Arial" font-size="0.21" font-weight="bold" text-anchor="middle" x="-0.25" y="-0.09075" fill="Black">★</text><text font-family="Arial Unicode MS,Segoe UI Symbol,Arial" font-size="0.21" font-weight="bold" text-anchor="middle" x="-0.25" y="0.26925" fill="Black">▲</text><circle r="0.1" cx="0" cy="0" stroke="none" fill="DeepSkyBlue"/><rect x="-0.563743" y="0.23957" width="1.12749" height="0.260859" stroke="none" fill="White"/><text font-family="Arial" font-size="0.21" font-weight="bold" text-anchor="middle" x="0" y="0.45925" fill="#E32736">SANCHES</text></g><g transform="translate(2.5,-22) scale(1.1547 1)"><circle transform="translate(0.25,-0.18)" r="0.05" cx="0" cy="0" stroke="none" fill="Black"/><rect x="-0.107136" y="-0.35543" width="0.214273" height="0.260859" stroke="none" fill="White"/><text font-family="Arial" font-size="0.21" font-weight="bold" text-anchor="middle" x="0" y="-0.13575" fill="Black">E</text><circle r="0.1" cx="0" cy="0" stroke="none" fill="DeepSkyBlue"/><rect x="-0.449514" y="0.23957" width="0.899028" height="0.260859" stroke="none" fill="White"/><text font-family="Arial" font-size="0.21" font-weight="bold" text-anchor="middle" x="0" y="0.45925" fill="Black">SHARDI</text></g><g transform="translate(2.5,-20) scale(1.1547 1)"><circle transform="translate(0.25,-0.18)" r="0.05" cx="0" cy="0" stroke="none" fill="Black"/><rect x="-0.113084" y="-0.35543" width="0.226167" height="0.260859" stroke="none" fill="White"/><text font-family="Arial" font-size="0.21" font-weight="bold" text-anchor="middle" x="0" y="-0.13575" fill="Black">B</text><text font-family="Arial Unicode MS,Segoe UI Symbol,Arial" font-size="0.21" font-weight="bold" text-anchor="middle" x="-0.25" y="-0.09075" fill="Black">★</text><circle r="0.1" cx="0" cy="0" stroke="Black" stroke-width="0.015625" fill="White"/><rect x="-0.407627" y="0.23957" width="0.815254" height="0.260859" stroke="none" fill="White"/><text font-family="Arial" font-size="0.21" font-weight="bold" text-anchor="middle" x="0" y="0.45925" fill="Black">Nirgem</text></g><g transform="translate(3.5,-29.5) scale(1.1547 1)"><circle transform="translate(0.25,-0.18)" r="0.05" cx="0" cy="0" stroke="none" fill="Black"/><rect x="-0.113084" y="-0.35543" width="0.226167" height="0.260859" stroke="none" fill="White"/><text font-family="Arial" font-size="0.21" font-weight="bold" text-anchor="middle" x="0" y="-0.13575" fill="Black">D</text><text font-family="Arial Unicode MS,Segoe UI Symbol,Arial" font-size="0.21" font-weight="bold" text-anchor="middle" x="-0.25" y="0.26925" fill="Black">▲</text><circle r="0.1" cx="0" cy="0" stroke="none" fill="DeepSkyBlue"/><rect x="-0.377634" y="0.23957" width="0.755269" height="0.260859" stroke="none" fill="White"/><text font-family="Arial" font-size="0.21" font-weight="bold" text-anchor="middle" x="0" y="0.45925" fill="Black">Gaadir</text></g><g transform="translate(3.5,-28.5) scale(1.1547 1)"><circle transform="translate(0.25,-0.18)" r="0.05" cx="0" cy="0" stroke="none" fill="Black"/><rect x="-0.113084" y="-0.35543" width="0.226167" height="0.260859" stroke="none" fill="White"/><text font-family="Arial" font-size="0.21" font-weight="bold" text-anchor="middle" x="0" y="-0.13575" fill="Black">B</text><text font-family="Arial Unicode MS,Segoe UI Symbol,Arial" font-size="0.21" font-weight="bold" text-anchor="middle" x="-0.25" y="-0.09075" fill="Black">★</text><circle r="0.1" cx="0" cy="0" stroke="Black" stroke-width="0.015625" fill="White"/><rect x="-0.419573" y="0.23957" width="0.839146" height="0.260859" stroke="none" fill="White"/><text font-family="Arial" font-size="0.21" font-weight="bold" text-anchor="middle" x="0" y="0.45925" fill="Black">Arla Un</text></g><g transform="translate(3.5,-27.5) scale(1.1547 1)"><circle transform="translate(0.25,-0.18)" r="0.05" cx="0" cy="0" stroke="none" fill="Black"/><rect x="-0.113084" y="-0.35543" width="0.226167" height="0.260859" stroke="none" fill="White"/><text font-family="Arial" font-size="0.21" font-weight="bold" text-anchor="middle" x="0" y="-0.13575" fill="Black">D</text><text font-family="Arial Unicode MS,Segoe UI Symbol,Arial" font-size="0.21" font-weight="bold" text-anchor="middle" x="-0.25" y="0.26925" fill="Black">▲</text><circle r="0.1" cx="0" cy="0" stroke="none" fill="DeepSkyBlue"/><rect x="-0.39563" y="0.23957" width="0.79126" height="0.260859" stroke="none" fill="White"/><text font-family="Arial" font-size="0.21" font-weight="bold" text-anchor="middle" x="0" y="0.45925" fill="Black">Kaman</text></g><g transform="translate(3.5,-24.5) scale(1.1547 1)"><circle transform="translate(0.25,-0.18)" r="0.05" cx="0" cy="0" stroke="none" fill="Black"/><rect x="-0.113084" y="-0.35543" width="0.226167" height="0.260859" stroke="none" fill="White"/><text font-family="Arial" font-size="0.21" font-weight="bold" text-anchor="middle" x="0" y="-0.13575" fill="Black">B</text><text font-family="Arial Unicode MS,Segoe UI Symbol,Arial" font-size="0.21" font-weight="bold" text-anchor="middle" x="-0.25" y="-0.09075" fill="Black">★</text><circle r="0.1" cx="0" cy="0" stroke="none" fill="DeepSkyBlue"/><rect x="-0.503501" y="0.23957" width="1.007" height="0.260859" stroke="none" fill="White"/><text font-family="Arial" font-size="0.21" font-weight="bold" text-anchor="middle" x="0" y="0.45925" fill="Black">RUNDAN</text></g><g transform="translate(3.5,-23.5) scale(1.1547 1)"><circle transform="translate(0.25,-0.18)" r="0.05" cx="0" cy="0" stroke="none" fill="Black"/><rect x="-0.113084" y="-0.35543" width="0.226167" height="0.260859" stroke="none" fill="White"/><text font-family="Arial" font-size="0.21" font-weight="bold" text-anchor="middle" x="0" y="-0.13575" fill="Black">A</text><circle r="0.1" cx="0" cy="0" stroke="none" fill="DeepSkyBlue"/><rect x="-0.557898" y="0.23957" width="1.1158" height="0.260859" stroke="none" fill="White"/><text font-family="Arial" font-size="0.21" font-weight="bold" text-anchor="middle" x="0" y="0.45925" fill="Black">Shiga Sha</text></g><g transform="translate(3.5,-21.5) scale(1.1547 1)"><circle transform="translate(0.25,-0.18)" r="0.05" cx="0" cy="0" stroke="none" fill="Black"/><rect x="-0.113084" y="-0.35543" width="0.226167" height="0.260859" stroke="none" fill="White"/><text font-family="Arial" font-size="0.21" font-weight="bold" text-anchor="middle" x="0" y="-0.13575" fill="Black">B</text><text font-family="Arial Unicode MS,Segoe UI Symbol,Arial" font-size="0.21" font-weight="bold" text-anchor="middle" x="-0.25" y="-0.09075" fill="Black">★</text><circle r="0.1" cx="0" cy="0" stroke="Black" stroke-width="0.015625" fill="White"/><rect x="-0.227312" y="0.23957" width="0.454624" height="0.260859" stroke="none" fill="White"/><text font-family="Arial" font-size="0.21" font-weight="bold" text-anchor="middle" x="0" y="0.45925" fill="Black">Zan</text></g><g transform="translate(4.5,-28) scale(1.1547 1)"><rect x="-0.113084" y="-0.35543" width="0.226167" height="0.260859" stroke="none" fill="White"/><text font-family="Arial" font-size="0.21" font-weight="bold" text-anchor="middle" x="0" y="-0.13575" fill="Black">B</text><circle r="0.1" cx="0" cy="0" stroke="none" fill="DeepSkyBlue"/><rect x="-0.455461" y="0.23957" width="0.910923" height="0.260859" stroke="none" fill="White"/><text font-family="Arial" font-size="0.21" font-weight="bold" text-anchor="middle" x="0" y="0.45925" fill="Black">KHUKHI</text></g><g transform="translate(4.5,-21) scale(1.1547 1)"><circle transform="translate(0.25,-0.18)" r="0.05" cx="0" cy="0" stroke="none" fill="Black"/><rect x="-0.113084" y="-0.35543" width="0.226167" height="0.260859" stroke="none" fill="White"/><text font-family="Arial" font-size="0.21" font-weight="bold" text-anchor="middle" x="0" y="-0.13575" fill="Black">B</text><text font-family="Arial Unicode MS,Segoe UI Symbol,Arial" font-size="0.21" font-weight="bold" text-anchor="middle" x="-0.25" y="0.26925" fill="Black">▲</text><circle r="0.1" cx="0" cy="0" stroke="none" fill="DeepSkyBlue"/><rect x="-0.467561" y="0.23957" width="0.935122" height="0.260859" stroke="none" fill="White"/><text font-family="Arial" font-size="0.21" font-weight="bold" text-anchor="middle" x="0" y="0.45925" fill="Black">IGGAAR</text></g><g transform="translate(5.5,-27.5) scale(1.1547 1)"><circle transform="translate(0.25,-0.18)" r="0.05" cx="0" cy="0" stroke="none" fill="Black"/><rect x="-0.113084" y="-0.35543" width="0.226167" height="0.260859" stroke="none" fill="White"/><text font-family="Arial" font-size="0.21" font-weight="bold" text-anchor="middle" x="0" y="-0.13575" fill="Black">B</text><circle r="0.1" cx="0" cy="0" stroke="none" fill="DeepSkyBlue"/><rect x="-0.341387" y="0.23957" width="0.682773" height="0.260859" stroke="none" fill="White"/><text font-family="Arial" font-size="0.21" font-weight="bold" text-anchor="middle" x="0" y="0.45925" fill="Black">Ruuni</text></g><g transform="translate(5.5,-26.5) scale(1.1547 1)"><circle transform="translate(0.25,-0.18)" r="0.05" cx="0" cy="0" stroke="none" fill="Black"/><rect x="-0.113084" y="-0.35543" width="0.226167" height="0.260859" stroke="none" fill="White"/><text font-family="Arial" font-size="0.21" font-weight="bold" text-anchor="middle" x="0" y="-0.13575" fill="Black">B</text><circle r="0.1" cx="0" cy="0" stroke="Black" stroke-width="0.015625" fill="White"/><rect x="-0.425623" y="0.23957" width="0.851245" height="0.260859" stroke="none" fill="White"/><text font-family="Arial" font-size="0.21" font-weight="bold" text-anchor="middle" x="0" y="0.45925" fill="Black">Kiishad</text></g><g transform="translate(5.5,-22.5) scale(1.1547 1)"><circle transform="translate(0.25,-0.18)" r="0.05" cx="0" cy="0" stroke="none" fill="Black"/><rect x="-0.113084" y="-0.35543" width="0.226167" height="0.260859" stroke="none" fill="White"/><text font-family="Arial" font-size="0.21" font-weight="bold" text-anchor="middle" x="0" y="-0.13575" fill="Black">D</text><circle r="0.1" cx="0" cy="0" stroke="none" fill="DeepSkyBlue"/><rect x="-0.341387" y="0.23957" width="0.682773" height="0.260859" stroke="none" fill="White"/><text font-family="Arial" font-size="0.21" font-weight="bold" text-anchor="middle" x="0" y="0.45925" fill="Black">Uupig</text></g><g transform="translate(6.5,-29) scale(1.1547 1)"><circle transform="translate(0.25,-0.18)" r="0.05" cx="0" cy="0" stroke="none" fill="Black"/><rect x="-0.113084" y="-0.35543" width="0.226167" height="0.260859" stroke="none" fill="White"/><text font-family="Arial" font-size="0.21" font-weight="bold" text-anchor="middle" x="0" y="-0.13575" fill="Black">B</text><circle r="0.1" cx="0" cy="0" stroke="none" fill="DeepSkyBlue"/><rect x="-0.66582" y="0.23957" width="1.33164" height="0.260859" stroke="none" fill="White"/><text font-family="Arial" font-size="0.21" font-weight="bold" text-anchor="middle" x="0" y="0.45925" fill="Black">ALEKVADIN</text></g><g transform="translate(6.5,-28) scale(1.1547 1)"><circle transform="translate(0.25,-0.18)" r="0.05" cx="0" cy="0" stroke="none" fill="Black"/><rect x="-0.113084" y="-0.35543" width="0.226167" height="0.260859" stroke="none" fill="White"/><text font-family="Arial" font-size="0.21" font-weight="bold" text-anchor="middle" x="0" y="-0.13575" fill="Black">A</text><circle r="0.1" cx="0" cy="0" stroke="none" fill="DeepSkyBlue"/><rect x="-0.666077" y="0.23957" width="1.33215" height="0.260859" stroke="none" fill="White"/><text font-family="Arial" font-size="0.21" font-weight="bold" text-anchor="middle" x="0" y="0.45925" fill="Black">Kakhu Gash</text></g><g transform="translate(6.5,-24) scale(1.1547 1)"><circle transform="translate(0.25,-0.18)" r="0.05" cx="0" cy="0" stroke="none" fill="Black"/><rect x="-0.113084" y="-0.35543" width="0.226167" height="0.260859" stroke="none" fill="White"/><text font-family="Arial" font-size="0.21" font-weight="bold" text-anchor="middle" x="0" y="-0.13575" fill="Black">B</text><circle r="0.1" cx="0" cy="0" stroke="none" fill="DeepSkyBlue"/><rect x="-0.329492" y="0.23957" width="0.658984" height="0.260859" stroke="none" fill="White"/><text font-family="Arial" font-size="0.21" font-weight="bold" text-anchor="middle" x="0" y="0.45925" fill="Black">Keshi</text></g><g transform="translate(6.5,-20) scale(1.1547 1)"><rect x="-0.113084" y="-0.35543" width="0.226167" height="0.260859" stroke="none" fill="White"/><text font-family="Arial" font-size="0.21" font-weight="bold" text-anchor="middle" x="0" y="-0.13575" fill="Black">B</text><circle r="0.1" cx="0" cy="0" stroke="none" fill="DeepSkyBlue"/><rect x="-0.383582" y="0.23957" width="0.767163" height="0.260859" stroke="none" fill="White"/><text font-family="Arial" font-size="0.21" font-weight="bold" text-anchor="middle" x="0" y="0.45925" fill="Black">Iruukzi</text></g></g></svg>