<?xml version = "1.0" encoding="utf-8"?>
<svg version="1.1" baseProfile="full" xmlns="http://www.w3.org/2000/svg" xmlns:xlink="http://www.w3.org/1999/xlink" width="471" height="684" viewBox="0 0 471 684" clip="0 471 0 684"><defs><clipPath id="did1"><rect x="30.75" y="-30.1" width="8.5" height="10.7"/></clipPath><clipPath id="did2"><path d="M30.1667,-39.5l-0.333332,-0.5l0.333332,-0.5h0.666668l0.333332,-0.5h0.666668l0.333334,0.5h0.666664l0.333336,-0.5h0.666664l0.333336,0.5h0.666664l0.333336,-0.5h0.666664l0.333336,0.5h0.666664l0.333336,-0.5h0.666664l0.333336,0.5h0.666664l0.333336,-0.5h0.666664l0.333336,0.5h0.666664l0.333336,-0.5h0.666664l0.333336,0.5h0.666664l0.333336,-0.5h0.666664l0.333336,0.5h0.666664l0.333336,-0.5h0.666664l0.333336,0.5h0.666664l0.333336,-0.5h0.666664l0.333336,0.5h0.666664l0.333336,-0.5h0.666664l0.333336,0.5h0.666664l0.333336,-0.5h0.666664l0.333336,0.5h0.666664l0.333336,-0.5h0.666664l0.333336,0.5h0.666664l0.333336,-0.5h0.666664l0.333336,0.5h0.666664l0.333336,-0.5h0.666664l0.333336,0.5h0.666664l0.333336,-0.5h0.666664l0.333336,0.5h0.666664l0.333336,-0.5h0.666664l0.333336,0.5h0.666664l0.333336,-0.5h0.666664l0.333332,0.5l-0.333332,0.5l0.333332,0.5l-0.333332,0.5l0.333332,0.5l-0.333332,0.5l0.333332,0.5l-0.333332,0.5l0.333332,0.5l-0.333332,0.5l0.333332,0.5l-0.333332,0.5l0.333332,0.5l-0.333332,0.5l0.333332,0.5l-0.333332,0.5l0.333332,0.5l-0.333332,0.5l0.333332,0.5l-0.333332,0.5l0.333332,0.5l-0.333332,0.5l0.333332,0.5l-0.333332,0.5l0.333332,0.5l-0.333332,0.5l0.333332,0.5l-0.333332,0.5l0.333332,0.5l-0.333332,0.5l0.333332,0.5l-0.333332,0.5l0.333332,0.5l-0.333332,0.5l0.333332,0.5l-0.333332,0.5l0.333332,0.5l-0.333332,0.5l0.333332,0.5l-0.333332,0.5l0.333332,0.5l-0.333332,0.5l0.333332,0.5l-0.333332,0.5l0.333332,0.5l-0.333332,0.5l0.333332,0.5l-0.333332,0.5l0.333332,0.5l-0.333332,0.5l0.333332,0.5l-0.333332,0.5l0.333332,0.5l-0.333332,0.5l0.333332,0.5l-0.333332,0.5l0.333332,0.5l-0.333332,0.5l0.333332,0.5l-0.333332,0.5l0.333332,0.5l-0.333332,0.5l0.333332,0.5l-0.333332,0.5l0.333332,0.5l-0.333332,0.5l0.333332,0.5l-0.333332,0.5l0.333332,0.5l-0.333332,0.5l0.333332,0.5l-0.333332,0.5l0.333332,0.5l-0.333332,0.5l0.333332,0.5l-0.333332,0.5l0.333332,0.5l-0.333332,0.5l0.333332,0.5l-0.333332,0.5h-0.666664l-0.333336,-0.5h-0.666664l-0.333336,-0.5l0.333336,-0.5l-0.333336,-0.5h-0.666664l-0.333336,-0.5l0.333336,-0.5l-0.333336,-0.5h-0.666664l-0.333336,0.5h-0.666664l-0.333336,0.5l0.333336,0.5l-0.333336,0.5h-0.666664l-0.333336,0.5h-0.666664l-0.333336,0.5h-0.666664l-0.333336,0.5h-0.666664l-0.333336,0.5h-0.666664l-0.333336,0.5h-0.666664l-0.333336,0.5h-0.666664l-0.333336,-0.5h-0.666664l-0.333336,0.5h-0.666664l-0.333336,0.5h-0.666664l-0.333336,0.5h-0.666664l-0.333336,-0.5h-0.666664l-0.333336,0.5h-0.666664l-0.333336,-0.5h-0.666664l-0.333336,0.5h-0.666664l-0.333336,-0.5h-0.666664l-0.333336,0.5h-0.666664l-0.333336,-0.5h-0.666664l-0.333336,0.5h-0.666664l-0.333336,-0.5h-0.666664l-0.333336,0.5h-0.666664l-0.333336,-0.5h-0.666664l-0.333336,0.5h-0.666664l-0.333336,-0.5h-0.666664l-0.333336,0.5h-0.666664l-0.333336,-0.5h-0.666664l-0.333336,0.5h-0.666664l-0.333334,-0.5h-0.666668l-0.333332,0.5h-0.666668l-0.333332,-0.5l0.333332,-0.5l-0.333332,-0.5l0.333332,-0.5l-0.333332,-0.5l0.333332,-0.5l-0.333332,-0.5l0.333332,-0.5l-0.333332,-0.5l0.333332,-0.5l-0.333332,-0.5l0.333332,-0.5l-0.333332,-0.5l0.333332,-0.5l-0.333332,-0.5l0.333332,-0.5l-0.333332,-0.5l0.333332,-0.5l-0.333332,-0.5l0.333332,-0.5l-0.333332,-0.5l0.333332,-0.5l-0.333332,-0.5l0.333332,-0.5l-0.333332,-0.5l0.333332,-0.5l-0.333332,-0.5l0.333332,-0.5l-0.333332,-0.5l0.333332,-0.5l-0.333332,-0.5l0.333332,-0.5l-0.333332,-0.5l0.333332,-0.5l-0.333332,-0.5l0.333332,-0.5l-0.333332,-0.5l0.333332,-0.5l-0.333332,-0.5l0.333332,-0.5l-0.333332,-0.5l0.333332,-0.5l-0.333332,-0.5l0.333332,-0.5l-0.333332,-0.5l0.333332,-0.5l-0.333332,-0.5l0.333332,-0.5l-0.333332,-0.5l0.333332,-0.5l-0.333332,-0.5l0.333332,-0.5l-0.333332,-0.5l0.333332,-0.5l-0.333332,-0.5l0.333332,-0.5l-0.333332,-0.5l0.333332,-0.5l-0.333332,-0.5l0.333332,-0.5l-0.333332,-0.5l0.333332,-0.5l-0.333332,-0.5l0.333332,-0.5l-0.333332,-0.5l0.333332,-0.5l-0.333332,-0.5l0.333332,-0.5l-0.333332,-0.5l0.333332,-0.5l-0.333332,-0.5l0.333332,-0.5l-0.333332,-0.5l0.333332,-0.5l-0.333332,-0.5l0.333332,-0.5l-0.333332,-0.5l0.333332,-0.5l-0.333332,-0.5l0.333332,-0.5l-0.333332,-0.5Z"/></clipPath><clipPath id="did3"><rect x="30.75" y="-30.1" width="8.5" height="10.7"/></clipPath><clipPath id="did4"><rect x="30.75" y="-30.1" width="8.5" height="10.7"/></clipPath></defs><g fill="None" stroke="None" transform="matrix(1,0,0,1,0,0) matrix(55.4256,0,0,64,-1704.34,1926.4)"><g clip-path="url(#did1)"><rect x="29.9" y="-31.17" width="10.2" height="12.84" stroke="none" fill="White"/><path d="M28.8333,-31.5v0l0.333332,0.5h0.666668l0.333332,-0.5" stroke="#808080" stroke-width="0.015625" fill="none"/><path d="M28.8333,-30.5v0l0.333332,0.5h0.666668l0.333332,-0.5" stroke="#808080" stroke-width="0.015625" fill="none"/><path d="M28.8333,-29.5v0l0.333332,0.5h0.666668l0.333332,-0.5" stroke="#808080" stroke-width="0.015625" fill="none"/><path d="M28.8333,-28.5v0l0.333332,0.5h0.666668l0.333332,-0.5" stroke="#808080" stroke-width="0.015625" fill="none"/><path d="M28.8333,-27.5v0l0.333332,0.5h0.666668l0.333332,-0.5" stroke="#808080" stroke-width="0.015625" fill="none"/><path d="M28.8333,-26.5v0l0.333332,0.5h0.666668l0.333332,-0.5" stroke="#808080" stroke-width="0.015625" fill="none"/><path d="M28.8333,-25.5v0l0.333332,0.5h0.666668l0.333332,-0.5" stroke="#808080" stroke-width="0.015625" fill="none"/><path d="M28.8333,-24.5v0l0.333332,0.5h0.666668l0.333332,-0.5" stroke="#808080" stroke-width="0.015625" fill="none"/><path d="M28.8333,-23.5v0l0.333332,0.5h0.666668l0.333332,-0.5" stroke="#808080" stroke-width="0.015625" fill="none"/><path d="M28.8333,-22.5v0l0.333332,0.5h0.666668l0.333332,-0.5" stroke="#808080" stroke-width="0.015625" fill="none"/><path d="M28.8333,-21.5v0l0.333332,0.5h0.666668l0.333332,-0.5" stroke="#808080" stroke-width="0.015625" fill="none"/><path d="M28.8333,-20.5v0l0.333332,0.5h0.666668l0.333332,-0.5" stroke="#808080" stroke-width="0.015625" fill="none"/><path d="M28.8333,-19.5v0l0.333332,0.5h0.666668l0.333332,-0.5" stroke="#808080" stroke-width="0.015625" fill="none"/><path d="M29.8333,-31v0l0.333332,0.5h0.666668l0.333332,-0.5" stroke="#808080" stroke-width="0.015625" fill="none"/><path d="M29.8333,-30v0l0.333332,0.5h0.666668l0.333332,-0.5" stroke="#808080" stroke-width="0.015625" fill="none"/><path d="M29.8333,-29v0l0.333332,0.5h0.666668l0.333332,-0.5" stroke="#808080" stroke-width="0.015625" fill="none"/><path d="M29.8333,-28v0l0.333332,0.5h0.666668l0.333332,-0.5" stroke="#808080" stroke-width="0.015625" fill="none"/><path d="M29.8333,-27v0l0.333332,0.5h0.666668l0.333332,-0.5" stroke="#808080" stroke-width="0.015625" fill="none"/><path d="M29.8333,-26v0l0.333332,0.5h0.666668l0.333332,-0.5" stroke="#808080" stroke-width="0.015625" fill="none"/><path d="M29.8333,-25v0l0.333332,0.5h0.666668l0.333332,-0.5" stroke="#808080" stroke-width="0.015625" fill="none"/><path d="M29.8333,-24v0l0.333332,0.5h0.666668l0.333332,-0.5" stroke="#808080" stroke-width="0.015625" fill="none"/><path d="M29.8333,-23v0l0.333332,0.5h0.666668l0.333332,-0.5" stroke="#808080" stroke-width="0.015625" fill="none"/><path d="M29.8333,-22v0l0.333332,0.5h0.666668l0.333332,-0.5" stroke="#808080" stroke-width="0.015625" fill="none"/><path d="M29.8333,-21v0l0.333332,0.5h0.666668l0.333332,-0.5" stroke="#808080" stroke-width="0.015625" fill="none"/><path d="M29.8333,-20v0l0.333332,0.5h0.666668l0.333332,-0.5" stroke="#808080" stroke-width="0.015625" fill="none"/><path d="M29.8333,-19v0l0.333332,0.5h0.666668l0.333332,-0.5" stroke="#808080" stroke-width="0.015625" fill="none"/><path d="M30.8333,-31.5v0l0.333332,0.5h0.666668l0.333334,-0.5" stroke="#808080" stroke-width="0.015625" fill="none"/><path d="M30.8333,-30.5v0l0.333332,0.5h0.666668l0.333334,-0.5" stroke="#808080" stroke-width="0.015625" fill="none"/><path d="M30.8333,-29.5v0l0.333332,0.5h0.666668l0.333334,-0.5" stroke="#808080" stroke-width="0.015625" fill="none"/><path d="M30.8333,-28.5v0l0.333332,0.5h0.666668l0.333334,-0.5" stroke="#808080" stroke-width="0.015625" fill="none"/><path d="M30.8333,-27.5v0l0.333332,0.5h0.666668l0.333334,-0.5" stroke="#808080" stroke-width="0.015625" fill="none"/><path d="M30.8333,-26.5v0l0.333332,0.5h0.666668l0.333334,-0.5" stroke="#808080" stroke-width="0.015625" fill="none"/><path d="M30.8333,-25.5v0l0.333332,0.5h0.666668l0.333334,-0.5" stroke="#808080" stroke-width="0.015625" fill="none"/><path d="M30.8333,-24.5v0l0.333332,0.5h0.666668l0.333334,-0.5" stroke="#808080" stroke-width="0.015625" fill="none"/><path d="M30.8333,-23.5v0l0.333332,0.5h0.666668l0.333334,-0.5" stroke="#808080" stroke-width="0.015625" fill="none"/><path d="M30.8333,-22.5v0l0.333332,0.5h0.666668l0.333334,-0.5" stroke="#808080" stroke-width="0.015625" fill="none"/><path d="M30.8333,-21.5v0l0.333332,0.5h0.666668l0.333334,-0.5" stroke="#808080" stroke-width="0.015625" fill="none"/><path d="M30.8333,-20.5v0l0.333332,0.5h0.666668l0.333334,-0.5" stroke="#808080" stroke-width="0.015625" fill="none"/><path d="M30.8333,-19.5v0l0.333332,0.5h0.666668l0.333334,-0.5" stroke="#808080" stroke-width="0.015625" fill="none"/><path d="M31.8333,-31v0l0.333334,0.5h0.666664l0.333336,-0.5" stroke="#808080" stroke-width="0.015625" fill="none"/><path d="M31.8333,-30v0l0.333334,0.5h0.666664l0.333336,-0.5" stroke="#808080" stroke-width="0.015625" fill="none"/><path d="M31.8333,-29v0l0.333334,0.5h0.666664l0.333336,-0.5" stroke="#808080" stroke-width="0.015625" fill="none"/><path d="M31.8333,-28v0l0.333334,0.5h0.666664l0.333336,-0.5" stroke="#808080" stroke-width="0.015625" fill="none"/><path d="M31.8333,-27v0l0.333334,0.5h0.666664l0.333336,-0.5" stroke="#808080" stroke-width="0.015625" fill="none"/><path d="M31.8333,-26v0l0.333334,0.5h0.666664l0.333336,-0.5" stroke="#808080" stroke-width="0.015625" fill="none"/><path d="M31.8333,-25v0l0.333334,0.5h0.666664l0.333336,-0.5" stroke="#808080" stroke-width="0.015625" fill="none"/><path d="M31.8333,-24v0l0.333334,0.5h0.666664l0.333336,-0.5" stroke="#808080" stroke-width="0.015625" fill="none"/><path d="M31.8333,-23v0l0.333334,0.5h0.666664l0.333336,-0.5" stroke="#808080" stroke-width="0.015625" fill="none"/><path d="M31.8333,-22v0l0.333334,0.5h0.666664l0.333336,-0.5" stroke="#808080" stroke-width="0.015625" fill="none"/><path d="M31.8333,-21v0l0.333334,0.5h0.666664l0.333336,-0.5" stroke="#808080" stroke-width="0.015625" fill="none"/><path d="M31.8333,-20v0l0.333334,0.5h0.666664l0.333336,-0.5" stroke="#808080" stroke-width="0.015625" fill="none"/><path d="M31.8333,-19v0l0.333334,0.5h0.666664l0.333336,-0.5" stroke="#808080" stroke-width="0.015625" fill="none"/><path d="M32.8333,-31.5v0l0.333336,0.5h0.666664l0.333336,-0.5" stroke="#808080" stroke-width="0.015625" fill="none"/><path d="M32.8333,-30.5v0l0.333336,0.5h0.666664l0.333336,-0.5" stroke="#808080" stroke-width="0.015625" fill="none"/><path d="M32.8333,-29.5v0l0.333336,0.5h0.666664l0.333336,-0.5" stroke="#808080" stroke-width="0.015625" fill="none"/><path d="M32.8333,-28.5v0l0.333336,0.5h0.666664l0.333336,-0.5" stroke="#808080" stroke-width="0.015625" fill="none"/><path d="M32.8333,-27.5v0l0.333336,0.5h0.666664l0.333336,-0.5" stroke="#808080" stroke-width="0.015625" fill="none"/><path d="M32.8333,-26.5v0l0.333336,0.5h0.666664l0.333336,-0.5" stroke="#808080" stroke-width="0.015625" fill="none"/><path d="M32.8333,-25.5v0l0.333336,0.5h0.666664l0.333336,-0.5" stroke="#808080" stroke-width="0.015625" fill="none"/><path d="M32.8333,-24.5v0l0.333336,0.5h0.666664l0.333336,-0.5" stroke="#808080" stroke-width="0.015625" fill="none"/><path d="M32.8333,-23.5v0l0.333336,0.5h0.666664l0.333336,-0.5" stroke="#808080" stroke-width="0.015625" fill="none"/><path d="M32.8333,-22.5v0l0.333336,0.5h0.666664l0.333336,-0.5" stroke="#808080" stroke-width="0.015625" fill="none"/><path d="M32.8333,-21.5v0l0.333336,0.5h0.666664l0.333336,-0.5" stroke="#808080" stroke-width="0.015625" fill="none"/><path d="M32.8333,-20.5v0l0.333336,0.5h0.666664l0.333336,-0.5" stroke="#808080" stroke-width="0.015625" fill="none"/><path d="M32.8333,-19.5v0l0.333336,0.5h0.666664l0.333336,-0.5" stroke="#808080" stroke-width="0.015625" fill="none"/><path d="M33.8333,-31v0l0.333336,0.5h0.666664l0.333336,-0.5" stroke="#808080" stroke-width="0.015625" fill="none"/><path d="M33.8333,-30v0l0.333336,0.5h0.666664l0.333336,-0.5" stroke="#808080" stroke-width="0.015625" fill="none"/><path d="M33.8333,-29v0l0.333336,0.5h0.666664l0.333336,-0.5" stroke="#808080" stroke-width="0.015625" fill="none"/><path d="M33.8333,-28v0l0.333336,0.5h0.666664l0.333336,-0.5" stroke="#808080" stroke-width="0.015625" fill="none"/><path d="M33.8333,-27v0l0.333336,0.5h0.666664l0.333336,-0.5" stroke="#808080" stroke-width="0.015625" fill="none"/><path d="M33.8333,-26v0l0.333336,0.5h0.666664l0.333336,-0.5" stroke="#808080" stroke-width="0.015625" fill="none"/><path d="M33.8333,-25v0l0.333336,0.5h0.666664l0.333336,-0.5" stroke="#808080" stroke-width="0.015625" fill="none"/><path d="M33.8333,-24v0l0.333336,0.5h0.666664l0.333336,-0.5" stroke="#808080" stroke-width="0.015625" fill="none"/><path d="M33.8333,-23v0l0.333336,0.5h0.666664l0.333336,-0.5" stroke="#808080" stroke-width="0.015625" fill="none"/><path d="M33.8333,-22v0l0.333336,0.5h0.666664l0.333336,-0.5" stroke="#808080" stroke-width="0.015625" fill="none"/><path d="M33.8333,-21v0l0.333336,0.5h0.666664l0.333336,-0.5" stroke="#808080" stroke-width="0.015625" fill="none"/><path d="M33.8333,-20v0l0.333336,0.5h0.666664l0.333336,-0.5" stroke="#808080" stroke-width="0.015625" fill="none"/><path d="M33.8333,-19v0l0.333336,0.5h0.666664l0.333336,-0.5" stroke="#808080" stroke-width="0.015625" fill="none"/><path d="M34.8333,-31.5v0l0.333336,0.5h0.666664l0.333336,-0.5" stroke="#808080" stroke-width="0.015625" fill="none"/><path d="M34.8333,-30.5v0l0.333336,0.5h0.666664l0.333336,-0.5" stroke="#808080" stroke-width="0.015625" fill="none"/><path d="M34.8333,-29.5v0l0.333336,0.5h0.666664l0.333336,-0.5" stroke="#808080" stroke-width="0.015625" fill="none"/><path d="M34.8333,-28.5v0l0.333336,0.5h0.666664l0.333336,-0.5" stroke="#808080" stroke-width="0.015625" fill="none"/><path d="M34.8333,-27.5v0l0.333336,0.5h0.666664l0.333336,-0.5" stroke="#808080" stroke-width="0.015625" fill="none"/><path d="M34.8333,-26.5v0l0.333336,0.5h0.666664l0.333336,-0.5" stroke="#808080" stroke-width="0.015625" fill="none"/><path d="M34.8333,-25.5v0l0.333336,0.5h0.666664l0.333336,-0.5" stroke="#808080" stroke-width="0.015625" fill="none"/><path d="M34.8333,-24.5v0l0.333336,0.5h0.666664l0.333336,-0.5" stroke="#808080" stroke-width="0.015625" fill="none"/><path d="M34.8333,-23.5v0l0.333336,0.5h0.666664l0.333336,-0.5" stroke="#808080" stroke-width="0.015625" fill="none"/><path d="M34.8333,-22.5v0l0.333336,0.5h0.666664l0.333336,-0.5" stroke="#808080" stroke-width="0.015625" fill="none"/><path d="M34.8333,-21.5v0l0.333336,0.5h0.666664l0.333336,-0.5" stroke="#808080" stroke-width="0.015625" fill="none"/><path d="M34.8333,-20.5v0l0.333336,0.5h0.666664l0.333336,-0.5" stroke="#808080" stroke-width="0.015625" fill="none"/><path d="M34.8333,-19.5v0l0.333336,0.5h0.666664l0.333336,-0.5" stroke="#808080" stroke-width="0.015625" fill="none"/><path d="M35.8333,-31v0l0.333336,0.5h0.666664l0.333336,-0.5" stroke="#808080" stroke-width="0.015625" fill="none"/><path d="M35.8333,-30v0l0.333336,0.5h0.666664l0.333336,-0.5" stroke="#808080" stroke-width="0.015625" fill="none"/><path d="M35.8333,-29v0l0.333336,0.5h0.666664l0.333336,-0.5" stroke="#808080" stroke-width="0.015625" fill="none"/><path d="M35.8333,-28v0l0.333336,0.5h0.666664l0.333336,-0.5" stroke="#808080" stroke-width="0.015625" fill="none"/><path d="M35.8333,-27v0l0.333336,0.5h0.666664l0.333336,-0.5" stroke="#808080" stroke-width="0.015625" fill="none"/><path d="M35.8333,-26v0l0.333336,0.5h0.666664l0.333336,-0.5" stroke="#808080" stroke-width="0.015625" fill="none"/><path d="M35.8333,-25v0l0.333336,0.5h0.666664l0.333336,-0.5" stroke="#808080" stroke-width="0.015625" fill="none"/><path d="M35.8333,-24v0l0.333336,0.5h0.666664l0.333336,-0.5" stroke="#808080" stroke-width="0.015625" fill="none"/><path d="M35.8333,-23v0l0.333336,0.5h0.666664l0.333336,-0.5" stroke="#808080" stroke-width="0.015625" fill="none"/><path d="M35.8333,-22v0l0.333336,0.5h0.666664l0.333336,-0.5" stroke="#808080" stroke-width="0.015625" fill="none"/><path d="M35.8333,-21v0l0.333336,0.5h0.666664l0.333336,-0.5" stroke="#808080" stroke-width="0.015625" fill="none"/><path d="M35.8333,-20v0l0.333336,0.5h0.666664l0.333336,-0.5" stroke="#808080" stroke-width="0.015625" fill="none"/><path d="M35.8333,-19v0l0.333336,0.5h0.666664l0.333336,-0.5" stroke="#808080" stroke-width="0.015625" fill="none"/><path d="M36.8333,-31.5v0l0.333336,0.5h0.666664l0.333336,-0.5" stroke="#808080" stroke-width="0.015625" fill="none"/><path d="M36.8333,-30.5v0l0.333336,0.5h0.666664l0.333336,-0.5" stroke="#808080" stroke-width="0.015625" fill="none"/><path d="M36.8333,-29.5v0l0.333336,0.5h0.666664l0.333336,-0.5" stroke="#808080" stroke-width="0.015625" fill="none"/><path d="M36.8333,-28.5v0l0.333336,0.5h0.666664l0.333336,-0.5" stroke="#808080" stroke-width="0.015625" fill="none"/><path d="M36.8333,-27.5v0l0.333336,0.5h0.666664l0.333336,-0.5" stroke="#808080" stroke-width="0.015625" fill="none"/><path d="M36.8333,-26.5v0l0.333336,0.5h0.666664l0.333336,-0.5" stroke="#808080" stroke-width="0.015625" fill="none"/><path d="M36.8333,-25.5v0l0.333336,0.5h0.666664l0.333336,-0.5" stroke="#808080" stroke-width="0.015625" fill="none"/><path d="M36.8333,-24.5v0l0.333336,0.5h0.666664l0.333336,-0.5" stroke="#808080" stroke-width="0.015625" fill="none"/><path d="M36.8333,-23.5v0l0.333336,0.5h0.666664l0.333336,-0.5" stroke="#808080" stroke-width="0.015625" fill="none"/><path d="M36.8333,-22.5v0l0.333336,0.5h0.666664l0.333336,-0.5" stroke="#808080" stroke-width="0.015625" fill="none"/><path d="M36.8333,-21.5v0l0.333336,0.5h0.666664l0.333336,-0.5" stroke="#808080" stroke-width="0.015625" fill="none"/><path d="M36.8333,-20.5v0l0.333336,0.5h0.666664l0.333336,-0.5" stroke="#808080" stroke-width="0.015625" fill="none"/><path d="M36.8333,-19.5v0l0.333336,0.5h0.666664l0.333336,-0.5" stroke="#808080" stroke-width="0.015625" fill="none"/><path d="M37.8333,-31v0l0.333336,0.5h0.666664l0.333336,-0.5" stroke="#808080" stroke-width="0.015625" fill="none"/><path d="M37.8333,-30v0l0.333336,0.5h0.666664l0.333336,-0.5" stroke="#808080" stroke-width="0.015625" fill="none"/><path d="M37.8333,-29v0l0.333336,0.5h0.666664l0.333336,-0.5" stroke="#808080" stroke-width="0.015625" fill="none"/><path d="M37.8333,-28v0l0.333336,0.5h0.666664l0.333336,-0.5" stroke="#808080" stroke-width="0.015625" fill="none"/><path d="M37.8333,-27v0l0.333336,0.5h0.666664l0.333336,-0.5" stroke="#808080" stroke-width="0.015625" fill="none"/><path d="M37.8333,-26v0l0.333336,0.5h0.666664l0.333336,-0.5" stroke="#808080" stroke-width="0.015625" fill="none"/><path d="M37.8333,-25v0l0.333336,0.5h0.666664l0.333336,-0.5" stroke="#808080" stroke-width="0.015625" fill="none"/><path d="M37.8333,-24v0l0.333336,0.5h0.666664l0.333336,-0.5" stroke="#808080" stroke-width="0.015625" fill="none"/><path d="M37.8333,-23v0l0.333336,0.5h0.666664l0.333336,-0.5" stroke="#808080" stroke-width="0.015625" fill="none"/><path d="M37.8333,-22v0l0.333336,0.5h0.666664l0.333336,-0.5" stroke="#808080" stroke-width="0.015625" fill="none"/><path d="M37.8333,-21v0l0.333336,0.5h0.666664l0.333336,-0.5" stroke="#808080" stroke-width="0.015625" fill="none"/><path d="M37.8333,-20v0l0.333336,0.5h0.666664l0.333336,-0.5" stroke="#808080" stroke-width="0.015625" fill="none"/><path d="M37.8333,-19v0l0.333336,0.5h0.666664l0.333336,-0.5" stroke="#808080" stroke-width="0.015625" fill="none"/><path d="M38.8333,-31.5v0l0.333336,0.5h0.666664l0.333336,-0.5" stroke="#808080" stroke-width="0.015625" fill="none"/><path d="M38.8333,-30.5v0l0.333336,0.5h0.666664l0.333336,-0.5" stroke="#808080" stroke-width="0.015625" fill="none"/><path d="M38.8333,-29.5v0l0.333336,0.5h0.666664l0.333336,-0.5" stroke="#808080" stroke-width="0.015625" fill="none"/><path d="M38.8333,-28.5v0l0.333336,0.5h0.666664l0.333336,-0.5" stroke="#808080" stroke-width="0.015625" fill="none"/><path d="M38.8333,-27.5v0l0.333336,0.5h0.666664l0.333336,-0.5" stroke="#808080" stroke-width="0.015625" fill="none"/><path d="M38.8333,-26.5v0l0.333336,0.5h0.666664l0.333336,-0.5" stroke="#808080" stroke-width="0.015625" fill="none"/><path d="M38.8333,-25.5v0l0.333336,0.5h0.666664l0.333336,-0.5" stroke="#808080" stroke-width="0.015625" fill="none"/><path d="M38.8333,-24.5v0l0.333336,0.5h0.666664l0.333336,-0.5" stroke="#808080" stroke-width="0.015625" fill="none"/><path d="M38.8333,-23.5v0l0.333336,0.5h0.666664l0.333336,-0.5" stroke="#808080" stroke-width="0.015625" fill="none"/><path d="M38.8333,-22.5v0l0.333336,0.5h0.666664l0.333336,-0.5" stroke="#808080" stroke-width="0.015625" fill="none"/><path d="M38.8333,-21.5v0l0.333336,0.5h0.666664l0.333336,-0.5" stroke="#808080" stroke-width="0.015625" fill="none"/><path d="M38.8333,-20.5v0l0.333336,0.5h0.666664l0.333336,-0.5" stroke="#808080" stroke-width="0.015625" fill="none"/><path d="M38.8333,-19.5v0l0.333336,0.5h0.666664l0.333336,-0.5" stroke="#808080" stroke-width="0.015625" fill="none"/><path clip-path="url(#did2)" d="M30.1667,-39.5l-0.333332,-0.5l0.333332,-0.5h0.666668l0.333332,-0.5h0.666668l0.333334,0.5h0.666664l0.333336,-0.5h0.666664l0.333336,0.5h0.666664l0.333336,-0.5h0.666664l0.333336,0.5h0.666664l0.333336,-0.5h0.666664l0.333336,0.5h0.666664l0.333336,-0.5h0.666664l0.333336,0.5h0.666664l0.333336,-0.5h0.666664l0.333336,0.5h0.666664l0.333336,-0.5h0.666664l0.333336,0.5h0.666664l0.333336,-0.5h0.666664l0.333336,0.5h0.666664l0.333336,-0.5h0.666664l0.333336,0.5h0.666664l0.333336,-0.5h0.666664l0.333336,0.5h0.666664l0.333336,-0.5h0.666664l0.333336,0.5h0.666664l0.333336,-0.5h0.666664l0.333336,0.5h0.666664l0.333336,-0.5h0.666664l0.333336,0.5h0.666664l0.333336,-0.5h0.666664l0.333336,0.5h0.666664l0.333336,-0.5h0.666664l0.333336,0.5h0.666664l0.333336,-0.5h0.666664l0.333336,0.5h0.666664l0.333336,-0.5h0.666664l0.333332,0.5l-0.333332,0.5l0.333332,0.5l-0.333332,0.5l0.333332,0.5l-0.333332,0.5l0.333332,0.5l-0.333332,0.5l0.333332,0.5l-0.333332,0.5l0.333332,0.5l-0.333332,0.5l0.333332,0.5l-0.333332,0.5l0.333332,0.5l-0.333332,0.5l0.333332,0.5l-0.333332,0.5l0.333332,0.5l-0.333332,0.5l0.333332,0.5l-0.333332,0.5l0.333332,0.5l-0.333332,0.5l0.333332,0.5l-0.333332,0.5l0.333332,0.5l-0.333332,0.5l0.333332,0.5l-0.333332,0.5l0.333332,0.5l-0.333332,0.5l0.333332,0.5l-0.333332,0.5l0.333332,0.5l-0.333332,0.5l0.333332,0.5l-0.333332,0.5l0.333332,0.5l-0.333332,0.5l0.333332,0.5l-0.333332,0.5l0.333332,0.5l-0.333332,0.5l0.333332,0.5l-0.333332,0.5l0.333332,0.5l-0.333332,0.5l0.333332,0.5l-0.333332,0.5l0.333332,0.5l-0.333332,0.5l0.333332,0.5l-0.333332,0.5l0.333332,0.5l-0.333332,0.5l0.333332,0.5l-0.333332,0.5l0.333332,0.5l-0.333332,0.5l0.333332,0.5l-0.333332,0.5l0.333332,0.5l-0.333332,0.5l0.333332,0.5l-0.333332,0.5l0.333332,0.5l-0.333332,0.5l0.333332,0.5l-0.333332,0.5l0.333332,0.5l-0.333332,0.5l0.333332,0.5l-0.333332,0.5l0.333332,0.5l-0.333332,0.5l0.333332,0.5l-0.333332,0.5l0.333332,0.5l-0.333332,0.5h-0.666664l-0.333336,-0.5h-0.666664l-0.333336,-0.5l0.333336,-0.5l-0.333336,-0.5h-0.666664l-0.333336,-0.5l0.333336,-0.5l-0.333336,-0.5h-0.666664l-0.333336,0.5h-0.666664l-0.333336,0.5l0.333336,0.5l-0.333336,0.5h-0.666664l-0.333336,0.5h-0.666664l-0.333336,0.5h-0.666664l-0.333336,0.5h-0.666664l-0.333336,0.5h-0.666664l-0.333336,0.5h-0.666664l-0.333336,0.5h-0.666664l-0.333336,-0.5h-0.666664l-0.333336,0.5h-0.666664l-0.333336,0.5h-0.666664l-0.333336,0.5h-0.666664l-0.333336,-0.5h-0.666664l-0.333336,0.5h-0.666664l-0.333336,-0.5h-0.666664l-0.333336,0.5h-0.666664l-0.333336,-0.5h-0.666664l-0.333336,0.5h-0.666664l-0.333336,-0.5h-0.666664l-0.333336,0.5h-0.666664l-0.333336,-0.5h-0.666664l-0.333336,0.5h-0.666664l-0.333336,-0.5h-0.666664l-0.333336,0.5h-0.666664l-0.333336,-0.5h-0.666664l-0.333336,0.5h-0.666664l-0.333336,-0.5h-0.666664l-0.333336,0.5h-0.666664l-0.333334,-0.5h-0.666668l-0.333332,0.5h-0.666668l-0.333332,-0.5l0.333332,-0.5l-0.333332,-0.5l0.333332,-0.5l-0.333332,-0.5l0.333332,-0.5l-0.333332,-0.5l0.333332,-0.5l-0.333332,-0.5l0.333332,-0.5l-0.333332,-0.5l0.333332,-0.5l-0.333332,-0.5l0.333332,-0.5l-0.333332,-0.5l0.333332,-0.5l-0.333332,-0.5l0.333332,-0.5l-0.333332,-0.5l0.333332,-0.5l-0.333332,-0.5l0.333332,-0.5l-0.333332,-0.5l0.333332,-0.5l-0.333332,-0.5l0.333332,-0.5l-0.333332,-0.5l0.333332,-0.5l-0.333332,-0.5l0.333332,-0.5l-0.333332,-0.5l0.333332,-0.5l-0.333332,-0.5l0.333332,-0.5l-0.333332,-0.5l0.333332,-0.5l-0.333332,-0.5l0.333332,-0.5l-0.333332,-0.5l0.333332,-0.5l-0.333332,-0.5l0.333332,-0.5l-0.333332,-0.5l0.333332,-0.5l-0.333332,-0.5l0.333332,-0.5l-0.333332,-0.5l0.333332,-0.5l-0.333332,-0.5l0.333332,-0.5l-0.333332,-0.5l0.333332,-0.5l-0.333332,-0.5l0.333332,-0.5l-0.333332,-0.5l0.333332,-0.5l-0.333332,-0.5l0.333332,-0.5l-0.333332,-0.5l0.333332,-0.5l-0.333332,-0.5l0.333332,-0.5l-0.333332,-0.5l0.333332,-0.5l-0.333332,-0.5l0.333332,-0.5l-0.333332,-0.5l0.333332,-0.5l-0.333332,-0.5l0.333332,-0.5l-0.333332,-0.5l0.333332,-0.5l-0.333332,-0.5l0.333332,-0.5l-0.333332,-0.5l0.333332,-0.5l-0.333332,-0.5l0.333332,-0.5l-0.333332,-0.5l0.333332,-0.5l-0.333332,-0.5Z" stroke="#E32736" stroke-width="0.16" fill="none"/><line x1="31.7835" y1="-27.4528" x2="34.2165" y2="-27.0473" stroke="#048104" stroke-width="0.08"/><line x1="32.689" y1="-30.811" x2="34.311" y2="-29.189" stroke="#048104" stroke-width="0.08"/><line x1="34.5" y1="-28.75" x2="34.5" y2="-27.25" stroke="#048104" stroke-width="0.08"/><line x1="34.7774" y1="-26.9307" x2="38.2227" y2="-26.0693" stroke="#048104" stroke-width="0.08"/><line x1="35.5945" y1="-23.2638" x2="36.4055" y2="-21.2362" stroke="#048104" stroke-width="0.08"/><line x1="35.708" y1="-23.6733" x2="38.292" y2="-25.8267" stroke="#048104" stroke-width="0.08"/><line x1="36.5945" y1="-20.7638" x2="37.4055" y2="-18.7362" stroke="#048104" stroke-width="0.08"/><line x1="38.708" y1="-25.8267" x2="41.292" y2="-23.6733" stroke="#048104" stroke-width="0.08"/></g><g clip-path="url(#did3)"><text transform="translate(31.5,-27.5) scale(1.1547 1)" font-family="Arial" font-size="0.14" text-anchor="middle" x="0" y="-0.381" fill="DarkGray">0113</text><text transform="translate(31.5,-26.5) scale(1.1547 1)" font-family="Arial" font-size="0.14" text-anchor="middle" x="0" y="-0.381" fill="DarkGray">0114</text><text transform="translate(31.5,-20.5) scale(1.1547 1)" font-family="Arial" font-size="0.14" text-anchor="middle" x="0" y="-0.381" fill="DarkGray">0120</text><text transform="translate(32.5,-29) scale(1.1547 1)" font-family="Arial" font-size="0.14" text-anchor="middle" x="0" y="-0.381" fill="DarkGray">0211</text><text transform="translate(32.5,-28) scale(1.1547 1)" font-family="Arial" font-size="0.14" text-anchor="middle" x="0" y="-0.381" fill="DarkGray">0212</text><text transform="translate(32.5,-26) scale(1.1547 1)" font-family="Arial" font-size="0.14" text-anchor="middle" x="0" y="-0.381" fill="DarkGray">0214</text><text transform="translate(32.5,-24) scale(1.1547 1)" font-family="Arial" font-size="0.14" text-anchor="middle" x="0" y="-0.381" fill="DarkGray">0216</text><text transform="translate(32.5,-23) scale(1.1547 1)" font-family="Arial" font-size="0.14" text-anchor="middle" x="0" y="-0.381" fill="DarkGray">0217</text><text transform="translate(33.5,-29.5) scale(1.1547 1)" font-family="Arial" font-size="0.14" text-anchor="middle" x="0" y="-0.381" fill="DarkGray">0311</text><text transform="translate(33.5,-27.5) scale(1.1547 1)" font-family="Arial" font-size="0.14" text-anchor="middle" x="0" y="-0.381" fill="DarkGray">0313</text><text transform="translate(33.5,-26.5) scale(1.1547 1)" font-family="Arial" font-size="0.14" text-anchor="middle" x="0" y="-0.381" fill="DarkGray">0314</text><g transform="translate(33.5,-23.5) scale(1.1547 1)"><circle r="0.4" cx="0" cy="0" stroke="#E32736" stroke-width="0.05" fill="none"/><text font-family="Arial" font-size="0.14" text-anchor="middle" x="0" y="-0.381" fill="DarkGray">0317</text></g><text transform="translate(33.5,-22.5) scale(1.1547 1)" font-family="Arial" font-size="0.14" text-anchor="middle" x="0" y="-0.381" fill="DarkGray">0318</text><text transform="translate(34.5,-29) scale(1.1547 1)" font-family="Arial" font-size="0.14" text-anchor="middle" x="0" y="-0.381" fill="DarkGray">0411</text><text transform="translate(34.5,-27) scale(1.1547 1)" font-family="Arial" font-size="0.14" text-anchor="middle" x="0" y="-0.381" fill="DarkGray">0413</text><text transform="translate(34.5,-26) scale(1.1547 1)" font-family="Arial" font-size="0.14" text-anchor="middle" x="0" y="-0.381" fill="DarkGray">0414</text><text transform="translate(34.5,-25) scale(1.1547 1)" font-family="Arial" font-size="0.14" text-anchor="middle" x="0" y="-0.381" fill="DarkGray">0415</text><text transform="translate(34.5,-22) scale(1.1547 1)" font-family="Arial" font-size="0.14" text-anchor="middle" x="0" y="-0.381" fill="DarkGray">0418</text><text transform="translate(34.5,-21) scale(1.1547 1)" font-family="Arial" font-size="0.14" text-anchor="middle" x="0" y="-0.381" fill="DarkGray">0419</text><text transform="translate(34.5,-20) scale(1.1547 1)" font-family="Arial" font-size="0.14" text-anchor="middle" x="0" y="-0.381" fill="DarkGray">0420</text><text transform="translate(35.5,-29.5) scale(1.1547 1)" font-family="Arial" font-size="0.14" text-anchor="middle" x="0" y="-0.381" fill="DarkGray">0511</text><text transform="translate(35.5,-27.5) scale(1.1547 1)" font-family="Arial" font-size="0.14" text-anchor="middle" x="0" y="-0.381" fill="DarkGray">0513</text><text transform="translate(35.5,-23.5) scale(1.1547 1)" font-family="Arial" font-size="0.14" text-anchor="middle" x="0" y="-0.381" fill="DarkGray">0517</text><text transform="translate(35.5,-21.5) scale(1.1547 1)" font-family="Arial" font-size="0.14" text-anchor="middle" x="0" y="-0.381" fill="DarkGray">0519</text><text transform="translate(35.5,-20.5) scale(1.1547 1)" font-family="Arial" font-size="0.14" text-anchor="middle" x="0" y="-0.381" fill="DarkGray">0520</text><text transform="translate(36.5,-25) scale(1.1547 1)" font-family="Arial" font-size="0.14" text-anchor="middle" x="0" y="-0.381" fill="DarkGray">0615</text><text transform="translate(36.5,-21) scale(1.1547 1)" font-family="Arial" font-size="0.14" text-anchor="middle" x="0" y="-0.381" fill="DarkGray">0619</text><text transform="translate(37.5,-26.5) scale(1.1547 1)" font-family="Arial" font-size="0.14" text-anchor="middle" x="0" y="-0.381" fill="DarkGray">0714</text><text transform="translate(37.5,-25.5) scale(1.1547 1)" font-family="Arial" font-size="0.14" text-anchor="middle" x="0" y="-0.381" fill="DarkGray">0715</text><text transform="translate(37.5,-20.5) scale(1.1547 1)" font-family="Arial" font-size="0.14" text-anchor="middle" x="0" y="-0.381" fill="DarkGray">0720</text><text transform="translate(38.5,-29) scale(1.1547 1)" font-family="Arial" font-size="0.14" text-anchor="middle" x="0" y="-0.381" fill="DarkGray">0811</text><text transform="translate(38.5,-28) scale(1.1547 1)" font-family="Arial" font-size="0.14" text-anchor="middle" x="0" y="-0.381" fill="DarkGray">0812</text><text transform="translate(38.5,-27) scale(1.1547 1)" font-family="Arial" font-size="0.14" text-anchor="middle" x="0" y="-0.381" fill="DarkGray">0813</text><text transform="translate(38.5,-26) scale(1.1547 1)" font-family="Arial" font-size="0.14" text-anchor="middle" x="0" y="-0.381" fill="DarkGray">0814</text><g transform="translate(38.5,-22) scale(1.1547 1)"><circle r="0.4" cx="0" cy="0" stroke="#FFCC00" stroke-width="0.05" fill="none"/><text font-family="Arial" font-size="0.14" text-anchor="middle" x="0" y="-0.381" fill="DarkGray">0818</text></g><text transform="translate(38.5,-21) scale(1.1547 1)" font-family="Arial" font-size="0.14" text-anchor="middle" x="0" y="-0.381" fill="DarkGray">0819</text><text transform="translate(38.5,-20) scale(1.1547 1)" font-family="Arial" font-size="0.14" text-anchor="middle" x="0" y="-0.381" fill="DarkGray">0820</text></g><g transform="translate(31.5,-27.5) scale(1.1547 1)"><circle transform="translate(0.25,-0.18)" r="0.05" cx="0" cy="0" stroke="none" fill="Black"/><rect x="-0.113084" y="-0.35543" width="0.226167" height="0.260859" stroke="none" fill="White"/><text font-family="Arial" font-size="0.21" font-weight="bold" text-anchor="middle" x="0" y="-0.13575" fill="Black">A</text><circle r="0.1" cx="0" cy="0" stroke="none" fill="DeepSkyBlue"/><rect x="-0.377532" y="0.23957" width="0.755064" height="0.260859" stroke="none" fill="White"/><text font-family="Arial" font-size="0.21" font-weight="bold" text-anchor="middle" x="0" y="0.45925" fill="Black">Proust</text></g><g transform="translate(31.5,-26.5) scale(1.1547 1)"><circle transform="translate(0.25,-0.18)" r="0.05" cx="0" cy="0" stroke="none" fill="Black"/><rect x="-0.113084" y="-0.35543" width="0.226167" height="0.260859" stroke="none" fill="White"/><text font-family="Arial" font-size="0.21" font-weight="bold" text-anchor="middle" x="0" y="-0.13575" fill="Black">A</text><circle r="0.1" cx="0" cy="0" stroke="Black" stroke-width="0.015625" fill="White"/><rect x="-0.503809" y="0.23957" width="1.00762" height="0.260859" stroke="none" fill="White"/><text font-family="Arial" font-size="0.21" font-weight="bold" text-anchor="middle" x="0" y="0.45925" fill="Black">Empuura</text></g><g transform="translate(31.5,-20.5) scale(1.1547 1)"><rect x="-0.113084" y="-0.35543" width="0.226167" height="0.260859" stroke="none" fill="White"/><text font-family="Arial" font-size="0.21" font-weight="bold" text-anchor="middle" x="0" y="-0.13575" fill="Black">C</text><circle r="0.1" cx="0" cy="0" stroke="none" fill="DeepSkyBlue"/><rect x="-0.299448" y="0.23957" width="0.598896" height="0.260859" stroke="none" fill="White"/><text font-family="Arial" font-size="0.21" font-weight="bold" text-anchor="middle" x="0" y="0.45925" fill="Black">Resh</text></g><g transform="translate(32.5,-29) scale(1.1547 1)"><circle transform="translate(0.25,-0.18)" r="0.05" cx="0" cy="0" stroke="none" fill="Black"/><rect x="-0.113084" y="-0.35543" width="0.226167" height="0.260859" stroke="none" fill="White"/><text font-family="Arial" font-size="0.21" font-weight="bold" text-anchor="middle" x="0" y="-0.13575" fill="Black">C</text><ellipse rx="0.0201392" ry="0.0215792" cx="-0.07" cy="-0.07" stroke="none" fill="Black"/><ellipse rx="0.0229722" ry="0.0311082" cx="0" cy="-0.07" stroke="none" fill="Black"/><ellipse rx="0.0297198" ry="0.0220441" cx="-0.105" cy="0" stroke="none" fill="Black"/><ellipse rx="0.0238194" ry="0.0308801" cx="0.035" cy="0" stroke="none" fill="Black"/><ellipse rx="0.0312599" ry="0.0338695" cx="0.105" cy="0" stroke="none" fill="Black"/><ellipse rx="0.0253332" ry="0.0248194" cx="-0.07" cy="0.07" stroke="none" fill="Black"/><ellipse rx="0.0208839" ry="0.0270532" cx="0" cy="0.07" stroke="none" fill="Black"/><rect x="-0.335593" y="0.23957" width="0.671187" height="0.260859" stroke="none" fill="White"/><text font-family="Arial" font-size="0.21" font-weight="bold" text-anchor="middle" x="0" y="0.45925" fill="Black">Geam</text></g><g transform="translate(32.5,-28) scale(1.1547 1)"><rect x="-0.113084" y="-0.35543" width="0.226167" height="0.260859" stroke="none" fill="White"/><text font-family="Arial" font-size="0.21" font-weight="bold" text-anchor="middle" x="0" y="-0.13575" fill="Black">C</text><circle r="0.1" cx="0" cy="0" stroke="none" fill="DeepSkyBlue"/><rect x="-0.311445" y="0.23957" width="0.622891" height="0.260859" stroke="none" fill="White"/><text font-family="Arial" font-size="0.21" font-weight="bold" text-anchor="middle" x="0" y="0.45925" fill="Black">Polor</text></g><g transform="translate(32.5,-26) scale(1.1547 1)"><rect x="-0.113084" y="-0.35543" width="0.226167" height="0.260859" stroke="none" fill="White"/><text font-family="Arial" font-size="0.21" font-weight="bold" text-anchor="middle" x="0" y="-0.13575" fill="Black">B</text><circle r="0.1" cx="0" cy="0" stroke="none" fill="DeepSkyBlue"/><rect x="-0.359587" y="0.23957" width="0.719175" height="0.260859" stroke="none" fill="White"/><text font-family="Arial" font-size="0.21" font-weight="bold" text-anchor="middle" x="0" y="0.45925" fill="Black">Rokke</text></g><g transform="translate(32.5,-24) scale(1.1547 1)"><rect x="-0.113084" y="-0.35543" width="0.226167" height="0.260859" stroke="none" fill="White"/><text font-family="Arial" font-size="0.21" font-weight="bold" text-anchor="middle" x="0" y="-0.13575" fill="Black">B</text><circle r="0.1" cx="0" cy="0" stroke="none" fill="DeepSkyBlue"/><rect x="-0.371482" y="0.23957" width="0.742964" height="0.260859" stroke="none" fill="White"/><text font-family="Arial" font-size="0.21" font-weight="bold" text-anchor="middle" x="0" y="0.45925" fill="Black">Rudde</text></g><g transform="translate(32.5,-23) scale(1.1547 1)"><rect x="-0.113084" y="-0.35543" width="0.226167" height="0.260859" stroke="none" fill="White"/><text font-family="Arial" font-size="0.21" font-weight="bold" text-anchor="middle" x="0" y="-0.13575" fill="Black">C</text><circle r="0.1" cx="0" cy="0" stroke="none" fill="DeepSkyBlue"/><rect x="-0.503706" y="0.23957" width="1.00741" height="0.260859" stroke="none" fill="White"/><text font-family="Arial" font-size="0.21" font-weight="bold" text-anchor="middle" x="0" y="0.45925" fill="Black">Miidkhim</text></g><g transform="translate(33.5,-29.5) scale(1.1547 1)"><circle transform="translate(0.25,-0.18)" r="0.05" cx="0" cy="0" stroke="none" fill="Black"/><rect x="-0.113084" y="-0.35543" width="0.226167" height="0.260859" stroke="none" fill="White"/><text font-family="Arial" font-size="0.21" font-weight="bold" text-anchor="middle" x="0" y="-0.13575" fill="Black">C</text><circle r="0.1" cx="0" cy="0" stroke="Black" stroke-width="0.015625" fill="White"/><rect x="-0.359587" y="0.23957" width="0.719175" height="0.260859" stroke="none" fill="White"/><text font-family="Arial" font-size="0.21" font-weight="bold" text-anchor="middle" x="0" y="0.45925" fill="Black">Spede</text></g><g transform="translate(33.5,-27.5) scale(1.1547 1)"><rect x="-0.113084" y="-0.35543" width="0.226167" height="0.260859" stroke="none" fill="White"/><text font-family="Arial" font-size="0.21" font-weight="bold" text-anchor="middle" x="0" y="-0.13575" fill="Black">D</text><text font-family="Arial Unicode MS,Segoe UI Symbol,Arial" font-size="0.21" font-weight="bold" text-anchor="middle" x="-0.25" y="0.26925" fill="Black">▲</text><circle r="0.1" cx="0" cy="0" stroke="none" fill="DeepSkyBlue"/><rect x="-0.575842" y="0.23957" width="1.15169" height="0.260859" stroke="none" fill="White"/><text font-family="Arial" font-size="0.21" font-weight="bold" text-anchor="middle" x="0" y="0.45925" fill="Black">Nagshii Ar</text></g><g transform="translate(33.5,-26.5) scale(1.1547 1)"><circle transform="translate(0.25,-0.18)" r="0.05" cx="0" cy="0" stroke="none" fill="Black"/><rect x="-0.113084" y="-0.35543" width="0.226167" height="0.260859" stroke="none" fill="White"/><text font-family="Arial" font-size="0.21" font-weight="bold" text-anchor="middle" x="0" y="-0.13575" fill="Black">C</text><circle r="0.1" cx="0" cy="0" stroke="none" fill="DeepSkyBlue"/><rect x="-0.335439" y="0.23957" width="0.670879" height="0.260859" stroke="none" fill="White"/><text font-family="Arial" font-size="0.21" font-weight="bold" text-anchor="middle" x="0" y="0.45925" fill="Black">Ricon</text></g><g transform="translate(33.5,-23.5) scale(1.1547 1)"><rect x="-0.107136" y="-0.35543" width="0.214273" height="0.260859" stroke="none" fill="White"/><text font-family="Arial" font-size="0.21" font-weight="bold" text-anchor="middle" x="0" y="-0.13575" fill="Black">X</text><circle r="0.1" cx="0" cy="0" stroke="none" fill="DeepSkyBlue"/><rect x="-0.569844" y="0.23957" width="1.13969" height="0.260859" stroke="none" fill="White"/><text font-family="Arial" font-size="0.21" font-weight="bold" text-anchor="middle" x="0" y="0.45925" fill="Black">Berthegad</text></g><g transform="translate(33.5,-22.5) scale(1.1547 1)"><rect x="-0.113084" y="-0.35543" width="0.226167" height="0.260859" stroke="none" fill="White"/><text font-family="Arial" font-size="0.21" font-weight="bold" text-anchor="middle" x="0" y="-0.13575" fill="Black">A</text><circle r="0.1" cx="0" cy="0" stroke="none" fill="DeepSkyBlue"/><rect x="-0.335439" y="0.23957" width="0.670879" height="0.260859" stroke="none" fill="White"/><text font-family="Arial" font-size="0.21" font-weight="bold" text-anchor="middle" x="0" y="0.45925" fill="Black">Amoli</text></g><g transform="translate(34.5,-29) scale(1.1547 1)"><circle transform="translate(0.25,-0.18)" r="0.05" cx="0" cy="0" stroke="none" fill="Black"/><rect x="-0.113084" y="-0.35543" width="0.226167" height="0.260859" stroke="none" fill="White"/><text font-family="Arial" font-size="0.21" font-weight="bold" text-anchor="middle" x="0" y="-0.13575" fill="Black">B</text><ellipse rx="0.0289418" ry="0.0275488" cx="-0.07" cy="-0.07" stroke="none" fill="Black"/><ellipse rx="0.0215168" ry="0.0273252" cx="0" cy="-0.07" stroke="none" fill="Black"/><ellipse rx="0.0334313" ry="0.0331066" cx="-0.105" cy="0" stroke="none" fill="Black"/><ellipse rx="0.0264956" ry="0.0294429" cx="-0.035" cy="0" stroke="none" fill="Black"/><ellipse rx="0.0317053" ry="0.0349956" cx="0.035" cy="0" stroke="none" fill="Black"/><ellipse rx="0.0214356" ry="0.0248093" cx="0" cy="0.07" stroke="none" fill="Black"/><rect x="-0.732009" y="0.23957" width="1.46402" height="0.260859" stroke="none" fill="White"/><text font-family="Arial" font-size="0.21" font-weight="bold" text-anchor="middle" x="0" y="0.45925" fill="Black">Mongugikiish</text></g><g transform="translate(34.5,-27) scale(1.1547 1)"><circle transform="translate(0.25,-0.18)" r="0.05" cx="0" cy="0" stroke="none" fill="Black"/><rect x="-0.113084" y="-0.35543" width="0.226167" height="0.260859" stroke="none" fill="White"/><text font-family="Arial" font-size="0.21" font-weight="bold" text-anchor="middle" x="0" y="-0.13575" fill="Black">B</text><circle r="0.1" cx="0" cy="0" stroke="none" fill="DeepSkyBlue"/><rect x="-0.401526" y="0.23957" width="0.803052" height="0.260859" stroke="none" fill="White"/><text font-family="Arial" font-size="0.21" font-weight="bold" text-anchor="middle" x="0" y="0.45925" fill="Black">Squibb</text></g><g transform="translate(34.5,-26) scale(1.1547 1)"><circle transform="translate(0.25,-0.18)" r="0.05" cx="0" cy="0" stroke="none" fill="Black"/><rect x="-0.107136" y="-0.35543" width="0.214273" height="0.260859" stroke="none" fill="White"/><text font-family="Arial" font-size="0.21" font-weight="bold" text-anchor="middle" x="0" y="-0.13575" fill="Black">E</text><circle r="0.1" cx="0" cy="0" stroke="none" fill="DeepSkyBlue"/><rect x="-0.401628" y="0.23957" width="0.803257" height="0.260859" stroke="none" fill="White"/><text font-family="Arial" font-size="0.21" font-weight="bold" text-anchor="middle" x="0" y="0.45925" fill="Black">Punsiir</text></g><g transform="translate(34.5,-25) scale(1.1547 1)"><circle transform="translate(0.25,-0.18)" r="0.05" cx="0" cy="0" stroke="none" fill="Black"/><rect x="-0.113084" y="-0.35543" width="0.226167" height="0.260859" stroke="none" fill="White"/><text font-family="Arial" font-size="0.21" font-weight="bold" text-anchor="middle" x="0" y="-0.13575" fill="Black">D</text><circle r="0.1" cx="0" cy="0" stroke="none" fill="DeepSkyBlue"/><rect x="-0.533699" y="0.23957" width="1.0674" height="0.260859" stroke="none" fill="White"/><text font-family="Arial" font-size="0.21" font-weight="bold" text-anchor="middle" x="0" y="0.45925" fill="Black">Cognious</text></g><g transform="translate(34.5,-22) scale(1.1547 1)"><circle transform="translate(0.25,-0.18)" r="0.05" cx="0" cy="0" stroke="none" fill="Black"/><rect x="-0.113084" y="-0.35543" width="0.226167" height="0.260859" stroke="none" fill="White"/><text font-family="Arial" font-size="0.21" font-weight="bold" text-anchor="middle" x="0" y="-0.13575" fill="Black">B</text><circle r="0.1" cx="0" cy="0" stroke="none" fill="DeepSkyBlue"/><rect x="-0.641724" y="0.23957" width="1.28345" height="0.260859" stroke="none" fill="White"/><text font-family="Arial" font-size="0.21" font-weight="bold" text-anchor="middle" x="0" y="0.45925" fill="Black">Coddington</text></g><g transform="translate(34.5,-21) scale(1.1547 1)"><circle transform="translate(0.25,-0.18)" r="0.05" cx="0" cy="0" stroke="none" fill="Black"/><rect x="-0.113084" y="-0.35543" width="0.226167" height="0.260859" stroke="none" fill="White"/><text font-family="Arial" font-size="0.21" font-weight="bold" text-anchor="middle" x="0" y="-0.13575" fill="Black">A</text><circle r="0.1" cx="0" cy="0" stroke="Black" stroke-width="0.015625" fill="White"/><rect x="-0.467715" y="0.23957" width="0.93543" height="0.260859" stroke="none" fill="White"/><text font-family="Arial" font-size="0.21" font-weight="bold" text-anchor="middle" x="0" y="0.45925" fill="#E32736">Prestuyf</text></g><g transform="translate(34.5,-20) scale(1.1547 1)"><circle transform="translate(0.25,-0.18)" r="0.05" cx="0" cy="0" stroke="none" fill="Black"/><rect x="-0.113084" y="-0.35543" width="0.226167" height="0.260859" stroke="none" fill="White"/><text font-family="Arial" font-size="0.21" font-weight="bold" text-anchor="middle" x="0" y="-0.13575" fill="Black">B</text><circle r="0.1" cx="0" cy="0" stroke="none" fill="DeepSkyBlue"/><rect x="-0.413626" y="0.23957" width="0.827251" height="0.260859" stroke="none" fill="White"/><text font-family="Arial" font-size="0.21" font-weight="bold" text-anchor="middle" x="0" y="0.45925" fill="Black">Wylkyn</text></g><g transform="translate(35.5,-29.5) scale(1.1547 1)"><rect x="-0.113084" y="-0.35543" width="0.226167" height="0.260859" stroke="none" fill="White"/><text font-family="Arial" font-size="0.21" font-weight="bold" text-anchor="middle" x="0" y="-0.13575" fill="Black">D</text><circle r="0.1" cx="0" cy="0" stroke="none" fill="DeepSkyBlue"/><rect x="-0.431672" y="0.23957" width="0.863345" height="0.260859" stroke="none" fill="White"/><text font-family="Arial" font-size="0.21" font-weight="bold" text-anchor="middle" x="0" y="0.45925" fill="Black">Hafleikr</text></g><g transform="translate(35.5,-27.5) scale(1.1547 1)"><circle transform="translate(0.25,-0.18)" r="0.05" cx="0" cy="0" stroke="none" fill="Black"/><rect x="-0.113084" y="-0.35543" width="0.226167" height="0.260859" stroke="none" fill="White"/><text font-family="Arial" font-size="0.21" font-weight="bold" text-anchor="middle" x="0" y="-0.13575" fill="Black">C</text><circle r="0.1" cx="0" cy="0" stroke="none" fill="DeepSkyBlue"/><rect x="-0.395579" y="0.23957" width="0.791157" height="0.260859" stroke="none" fill="White"/><text font-family="Arial" font-size="0.21" font-weight="bold" text-anchor="middle" x="0" y="0.45925" fill="Black">Hamlin</text></g><g transform="translate(35.5,-23.5) scale(1.1547 1)"><rect x="-0.113084" y="-0.35543" width="0.226167" height="0.260859" stroke="none" fill="White"/><text font-family="Arial" font-size="0.21" font-weight="bold" text-anchor="middle" x="0" y="-0.13575" fill="Black">A</text><circle r="0.1" cx="0" cy="0" stroke="Black" stroke-width="0.015625" fill="White"/><rect x="-0.443618" y="0.23957" width="0.887236" height="0.260859" stroke="none" fill="White"/><text font-family="Arial" font-size="0.21" font-weight="bold" text-anchor="middle" x="0" y="0.45925" fill="Black">Kendrin</text></g><g transform="translate(35.5,-21.5) scale(1.1547 1)"><rect x="-0.113084" y="-0.35543" width="0.226167" height="0.260859" stroke="none" fill="White"/><text font-family="Arial" font-size="0.21" font-weight="bold" text-anchor="middle" x="0" y="-0.13575" fill="Black">B</text><circle r="0.1" cx="0" cy="0" stroke="none" fill="DeepSkyBlue"/><rect x="-0.630239" y="0.23957" width="1.26048" height="0.260859" stroke="none" fill="White"/><text font-family="Arial" font-size="0.21" font-weight="bold" text-anchor="middle" x="0" y="0.45925" fill="Black">Ekkamshas</text></g><g transform="translate(35.5,-20.5) scale(1.1547 1)"><rect x="-0.113084" y="-0.35543" width="0.226167" height="0.260859" stroke="none" fill="White"/><text font-family="Arial" font-size="0.21" font-weight="bold" text-anchor="middle" x="0" y="-0.13575" fill="Black">C</text><circle r="0.1" cx="0" cy="0" stroke="none" fill="DeepSkyBlue"/><rect x="-0.35364" y="0.23957" width="0.70728" height="0.260859" stroke="none" fill="White"/><text font-family="Arial" font-size="0.21" font-weight="bold" text-anchor="middle" x="0" y="0.45925" fill="Black">Naaka</text></g><g transform="translate(36.5,-25) scale(1.1547 1)"><rect x="-0.113084" y="-0.35543" width="0.226167" height="0.260859" stroke="none" fill="White"/><text font-family="Arial" font-size="0.21" font-weight="bold" text-anchor="middle" x="0" y="-0.13575" fill="Black">D</text><circle r="0.1" cx="0" cy="0" stroke="none" fill="DeepSkyBlue"/><rect x="-0.395579" y="0.23957" width="0.791157" height="0.260859" stroke="none" fill="White"/><text font-family="Arial" font-size="0.21" font-weight="bold" text-anchor="middle" x="0" y="0.45925" fill="Black">Clenen</text></g><g transform="translate(36.5,-21) scale(1.1547 1)"><circle transform="translate(0.25,-0.18)" r="0.05" cx="0" cy="0" stroke="none" fill="Black"/><rect x="-0.113084" y="-0.35543" width="0.226167" height="0.260859" stroke="none" fill="White"/><text font-family="Arial" font-size="0.21" font-weight="bold" text-anchor="middle" x="0" y="-0.13575" fill="Black">A</text><circle r="0.1" cx="0" cy="0" stroke="none" fill="DeepSkyBlue"/><rect x="-0.569792" y="0.23957" width="1.13959" height="0.260859" stroke="none" fill="White"/><text font-family="Arial" font-size="0.21" font-weight="bold" text-anchor="middle" x="0" y="0.45925" fill="Black">Del Fforge</text></g><g transform="translate(37.5,-26.5) scale(1.1547 1)"><circle transform="translate(0.25,-0.18)" r="0.05" cx="0" cy="0" stroke="none" fill="Black"/><rect x="-0.113084" y="-0.35543" width="0.226167" height="0.260859" stroke="none" fill="White"/><text font-family="Arial" font-size="0.21" font-weight="bold" text-anchor="middle" x="0" y="-0.13575" fill="Black">C</text><circle r="0.1" cx="0" cy="0" stroke="none" fill="DeepSkyBlue"/><rect x="-0.347539" y="0.23957" width="0.695078" height="0.260859" stroke="none" fill="White"/><text font-family="Arial" font-size="0.21" font-weight="bold" text-anchor="middle" x="0" y="0.45925" fill="Black">Finley</text></g><g transform="translate(37.5,-25.5) scale(1.1547 1)"><circle transform="translate(0.25,-0.18)" r="0.05" cx="0" cy="0" stroke="none" fill="Black"/><rect x="-0.113084" y="-0.35543" width="0.226167" height="0.260859" stroke="none" fill="White"/><text font-family="Arial" font-size="0.21" font-weight="bold" text-anchor="middle" x="0" y="-0.13575" fill="Black">C</text><circle r="0.1" cx="0" cy="0" stroke="Black" stroke-width="0.015625" fill="White"/><rect x="-0.419624" y="0.23957" width="0.839248" height="0.260859" stroke="none" fill="White"/><text font-family="Arial" font-size="0.21" font-weight="bold" text-anchor="middle" x="0" y="0.45925" fill="Black">Grunen</text></g><g transform="translate(37.5,-20.5) scale(1.1547 1)"><circle transform="translate(0.25,-0.18)" r="0.05" cx="0" cy="0" stroke="none" fill="Black"/><rect x="-0.113084" y="-0.35543" width="0.226167" height="0.260859" stroke="none" fill="White"/><text font-family="Arial" font-size="0.21" font-weight="bold" text-anchor="middle" x="0" y="-0.13575" fill="Black">D</text><circle r="0.1" cx="0" cy="0" stroke="Black" stroke-width="0.015625" fill="White"/><rect x="-0.383735" y="0.23957" width="0.767471" height="0.260859" stroke="none" fill="White"/><text font-family="Arial" font-size="0.21" font-weight="bold" text-anchor="middle" x="0" y="0.45925" fill="Black">Emyys</text></g><g transform="translate(38.5,-29) scale(1.1547 1)"><circle transform="translate(0.25,-0.18)" r="0.05" cx="0" cy="0" stroke="none" fill="Black"/><rect x="-0.107136" y="-0.35543" width="0.214273" height="0.260859" stroke="none" fill="White"/><text font-family="Arial" font-size="0.21" font-weight="bold" text-anchor="middle" x="0" y="-0.13575" fill="Black">E</text><circle r="0.1" cx="0" cy="0" stroke="none" fill="DeepSkyBlue"/><rect x="-0.503757" y="0.23957" width="1.00752" height="0.260859" stroke="none" fill="White"/><text font-family="Arial" font-size="0.21" font-weight="bold" text-anchor="middle" x="0" y="0.45925" fill="Black">Mokanna</text></g><g transform="translate(38.5,-28) scale(1.1547 1)"><rect x="-0.113084" y="-0.35543" width="0.226167" height="0.260859" stroke="none" fill="White"/><text font-family="Arial" font-size="0.21" font-weight="bold" text-anchor="middle" x="0" y="-0.13575" fill="Black">C</text><circle r="0.1" cx="0" cy="0" stroke="none" fill="DeepSkyBlue"/><rect x="-0.305498" y="0.23957" width="0.610996" height="0.260859" stroke="none" fill="White"/><text font-family="Arial" font-size="0.21" font-weight="bold" text-anchor="middle" x="0" y="0.45925" fill="Black">Pyert</text></g><g transform="translate(38.5,-27) scale(1.1547 1)"><rect x="-0.113084" y="-0.35543" width="0.226167" height="0.260859" stroke="none" fill="White"/><text font-family="Arial" font-size="0.21" font-weight="bold" text-anchor="middle" x="0" y="-0.13575" fill="Black">B</text><text font-family="Arial Unicode MS,Segoe UI Symbol,Arial" font-size="0.21" font-weight="bold" text-anchor="middle" x="-0.25" y="-0.09075" fill="Black">★</text><circle r="0.1" cx="0" cy="0" stroke="Black" stroke-width="0.015625" fill="White"/><rect x="-0.28135" y="0.23957" width="0.5627" height="0.260859" stroke="none" fill="White"/><text font-family="Arial" font-size="0.21" font-weight="bold" text-anchor="middle" x="0" y="0.45925" fill="Black">Argii</text></g><g transform="translate(38.5,-26) scale(1.1547 1)"><circle transform="translate(0.25,-0.18)" r="0.05" cx="0" cy="0" stroke="none" fill="Black"/><rect x="-0.113084" y="-0.35543" width="0.226167" height="0.260859" stroke="none" fill="White"/><text font-family="Arial" font-size="0.21" font-weight="bold" text-anchor="middle" x="0" y="-0.13575" fill="Black">A</text><circle r="0.1" cx="0" cy="0" stroke="none" fill="DeepSkyBlue"/><rect x="-0.64803" y="0.23957" width="1.29606" height="0.260859" stroke="none" fill="White"/><text font-family="Arial" font-size="0.21" font-weight="bold" text-anchor="middle" x="0" y="0.45925" fill="Black">Phoebellum</text></g><g transform="translate(38.5,-22) scale(1.1547 1)"><rect x="-0.113084" y="-0.35543" width="0.226167" height="0.260859" stroke="none" fill="White"/><text font-family="Arial" font-size="0.21" font-weight="bold" text-anchor="middle" x="0" y="-0.13575" fill="Black">C</text><circle r="0.1" cx="0" cy="0" stroke="none" fill="DeepSkyBlue"/><rect x="-0.323442" y="0.23957" width="0.646885" height="0.260859" stroke="none" fill="White"/><text font-family="Arial" font-size="0.21" font-weight="bold" text-anchor="middle" x="0" y="0.45925" fill="Black">Junio</text></g><g transform="translate(38.5,-21) scale(1.1547 1)"><circle transform="translate(0.25,-0.18)" r="0.05" cx="0" cy="0" stroke="none" fill="Black"/><rect x="-0.107136" y="-0.35543" width="0.214273" height="0.260859" stroke="none" fill="White"/><text font-family="Arial" font-size="0.21" font-weight="bold" text-anchor="middle" x="0" y="-0.13575" fill="Black">E</text><circle r="0.1" cx="0" cy="0" stroke="none" fill="DeepSkyBlue"/><rect x="-0.599631" y="0.23957" width="1.19926" height="0.260859" stroke="none" fill="White"/><text font-family="Arial" font-size="0.21" font-weight="bold" text-anchor="middle" x="0" y="0.45925" fill="Black">KIDULAAR</text></g><g transform="translate(38.5,-20) scale(1.1547 1)"><circle transform="translate(0.25,-0.18)" r="0.05" cx="0" cy="0" stroke="none" fill="Black"/><rect x="-0.113084" y="-0.35543" width="0.226167" height="0.260859" stroke="none" fill="White"/><text font-family="Arial" font-size="0.21" font-weight="bold" text-anchor="middle" x="0" y="-0.13575" fill="Black">C</text><circle r="0.1" cx="0" cy="0" stroke="none" fill="DeepSkyBlue"/><rect x="-0.281504" y="0.23957" width="0.563008" height="0.260859" stroke="none" fill="White"/><text font-family="Arial" font-size="0.21" font-weight="bold" text-anchor="middle" x="0" y="0.45925" fill="Black">Tess</text></g></g></svg>