<?xml version = "1.0" encoding="utf-8"?>
<svg version="1.1" baseProfile="full" xmlns="http://www.w3.org/2000/svg" xmlns:xlink="http://www.w3.org/1999/xlink" width="471" height="684" viewBox="0 0 471 684" clip="0 471 0 684"><defs><clipPath id="did1"><rect x="-1.25" y="59.9" width="8.5" height="10.7"/></clipPath><clipPath id="did2"><path d="M-1.83333,40.5l-0.333334,-0.5l0.333334,-0.5h0.666667l0.333333,-0.5h0.666667l0.333333,0.5h0.666667l0.333333,-0.5h0.666667l0.333334,0.5h0.666667l0.333334,-0.5h0.666667l0.333333,0.5h0.666667l0.333333,-0.5h0.666667l0.333333,0.5h0.666667l0.333333,-0.5h0.666667l0.333334,0.5h0.666666l0.333334,-0.5h0.666666l0.333334,0.5h0.666666l0.333334,-0.5h0.666666l0.333334,0.5h0.666666l0.333334,-0.5h0.666666l0.333334,0.5h0.666666l0.333334,-0.5h0.666666l0.333333,0.5h0.666668l0.333332,-0.5h0.666668l0.333332,0.5h0.666668l0.333332,-0.5h0.666668l0.333332,0.5h0.666668l0.333332,-0.5h0.666668l0.333332,0.5h0.666668l0.333332,-0.5h0.666668l0.333332,0.5h0.666668l0.333332,-0.5h0.666668l0.333332,0.5h0.666668l0.333332,-0.5h0.666668l0.333332,0.5h0.666668l0.333332,-0.5h0.666668l0.333332,0.5h0.666668l0.333332,-0.5h0.666668l0.333334,0.5l-0.333334,0.5l0.333334,0.5l-0.333334,0.5l0.333334,0.5l-0.333334,0.5l0.333334,0.5l-0.333334,0.5l0.333334,0.5l-0.333334,0.5l0.333334,0.5l-0.333334,0.5l0.333334,0.5l-0.333334,0.5l0.333334,0.5l-0.333334,0.5l0.333334,0.5l-0.333334,0.5l0.333334,0.5l-0.333334,0.5l0.333334,0.5l-0.333334,0.5l0.333334,0.5l-0.333334,0.5l0.333334,0.5l-0.333334,0.5l0.333334,0.5l-0.333334,0.5l0.333334,0.5l-0.333334,0.5l0.333334,0.5l-0.333334,0.5l0.333334,0.5l-0.333334,0.5l0.333334,0.5l-0.333334,0.5l0.333334,0.5l-0.333334,0.5l0.333334,0.5l-0.333334,0.5l0.333334,0.5l-0.333334,0.5l0.333334,0.5l-0.333334,0.5l0.333334,0.5l-0.333334,0.5l0.333334,0.5l-0.333334,0.5l0.333334,0.5l-0.333334,0.5l0.333334,0.5l-0.333334,0.5l0.333334,0.5l-0.333334,0.5l0.333334,0.5l-0.333334,0.5l0.333334,0.5l-0.333334,0.5l0.333334,0.5l-0.333334,0.5l0.333334,0.5l-0.333334,0.5l0.333334,0.5l-0.333334,0.5l0.333334,0.5l-0.333334,0.5l0.333334,0.5l-0.333334,0.5l0.333334,0.5l-0.333334,0.5l0.333334,0.5l-0.333334,0.5l0.333334,0.5l-0.333334,0.5l0.333334,0.5l-0.333334,0.5l0.333334,0.5l-0.333334,0.5l0.333334,0.5l-0.333334,0.5l0.333334,0.5l-0.333334,0.5l0.333334,0.5l-0.333334,0.5h-0.666668l-0.333332,0.5h-0.666668l-0.333332,-0.5h-0.666668l-0.333332,0.5h-0.666668l-0.333332,-0.5h-0.666668l-0.333332,0.5h-0.666668l-0.333332,-0.5h-0.666668l-0.333332,0.5h-0.666668l-0.333332,-0.5h-0.666668l-0.333332,0.5h-0.666668l-0.333332,-0.5h-0.666668l-0.333332,0.5h-0.666668l-0.333332,-0.5h-0.666668l-0.333332,0.5h-0.666668l-0.333332,-0.5h-0.666668l-0.333332,0.5h-0.666668l-0.333333,-0.5h-0.666666l-0.333334,0.5h-0.666666l-0.333334,-0.5h-0.666666l-0.333334,0.5h-0.666666l-0.333334,-0.5h-0.666666l-0.333334,0.5h-0.666666l-0.333334,-0.5h-0.666666l-0.333334,0.5h-0.666666l-0.333334,-0.5h-0.666667l-0.333333,0.5h-0.666667l-0.333333,-0.5h-0.666667l-0.333333,0.5h-0.666667l-0.333333,-0.5h-0.666667l-0.333334,0.5h-0.666667l-0.333334,-0.5h-0.666667l-0.333333,0.5h-0.666667l-0.333333,-0.5h-0.666667l-0.333333,0.5h-0.666667l-0.333334,-0.5l0.333334,-0.5l-0.333334,-0.5l0.333334,-0.5l-0.333334,-0.5l0.333334,-0.5l-0.333334,-0.5l0.333334,-0.5l-0.333334,-0.5l0.333334,-0.5l-0.333334,-0.5l0.333334,-0.5l-0.333334,-0.5l0.333334,-0.5l-0.333334,-0.5l0.333334,-0.5l-0.333334,-0.5l0.333334,-0.5l-0.333334,-0.5l0.333334,-0.5l-0.333334,-0.5l0.333334,-0.5l-0.333334,-0.5l0.333334,-0.5l-0.333334,-0.5l0.333334,-0.5l-0.333334,-0.5l0.333334,-0.5l-0.333334,-0.5l0.333334,-0.5l-0.333334,-0.5l0.333334,-0.5l-0.333334,-0.5l0.333334,-0.5l-0.333334,-0.5l0.333334,-0.5l-0.333334,-0.5l0.333334,-0.5l-0.333334,-0.5l0.333334,-0.5l-0.333334,-0.5l0.333334,-0.5l-0.333334,-0.5l0.333334,-0.5l-0.333334,-0.5l0.333334,-0.5l-0.333334,-0.5l0.333334,-0.5l-0.333334,-0.5l0.333334,-0.5l-0.333334,-0.5l0.333334,-0.5l-0.333334,-0.5l0.333334,-0.5l-0.333334,-0.5l0.333334,-0.5l-0.333334,-0.5l0.333334,-0.5l-0.333334,-0.5l0.333334,-0.5l-0.333334,-0.5l0.333334,-0.5l-0.333334,-0.5l0.333334,-0.5l-0.333334,-0.5l0.333334,-0.5l-0.333334,-0.5l0.333334,-0.5l-0.333334,-0.5l0.333334,-0.5l-0.333334,-0.5l0.333334,-0.5l-0.333334,-0.5l0.333334,-0.5l-0.333334,-0.5l0.333334,-0.5l-0.333334,-0.5l0.333334,-0.5l-0.333334,-0.5l0.333334,-0.5l-0.333334,-0.5Z"/></clipPath><clipPath id="did3"><rect x="-1.25" y="59.9" width="8.5" height="10.7"/></clipPath><clipPath id="did4"><rect x="-1.25" y="59.9" width="8.5" height="10.7"/></clipPath></defs><g fill="None" stroke="None" transform="matrix(1,0,0,1,0,0) matrix(55.4256,0,0,64,69.282,-3833.6)"><g clip-path="url(#did1)"><rect x="-2.1" y="58.83" width="10.2" height="12.84" stroke="none" fill="White"/><path d="M-3.16667,58.5v0l0.333334,0.5h0.666667l0.333333,-0.5" stroke="#808080" stroke-width="0.015625" fill="none"/><path d="M-3.16667,59.5v0l0.333334,0.5h0.666667l0.333333,-0.5" stroke="#808080" stroke-width="0.015625" fill="none"/><path d="M-3.16667,60.5v0l0.333334,0.5h0.666667l0.333333,-0.5" stroke="#808080" stroke-width="0.015625" fill="none"/><path d="M-3.16667,61.5v0l0.333334,0.5h0.666667l0.333333,-0.5" stroke="#808080" stroke-width="0.015625" fill="none"/><path d="M-3.16667,62.5v0l0.333334,0.5h0.666667l0.333333,-0.5" stroke="#808080" stroke-width="0.015625" fill="none"/><path d="M-3.16667,63.5v0l0.333334,0.5h0.666667l0.333333,-0.5" stroke="#808080" stroke-width="0.015625" fill="none"/><path d="M-3.16667,64.5v0l0.333334,0.5h0.666667l0.333333,-0.5" stroke="#808080" stroke-width="0.015625" fill="none"/><path d="M-3.16667,65.5v0l0.333334,0.5h0.666667l0.333333,-0.5" stroke="#808080" stroke-width="0.015625" fill="none"/><path d="M-3.16667,66.5v0l0.333334,0.5h0.666667l0.333333,-0.5" stroke="#808080" stroke-width="0.015625" fill="none"/><path d="M-3.16667,67.5v0l0.333334,0.5h0.666667l0.333333,-0.5" stroke="#808080" stroke-width="0.015625" fill="none"/><path d="M-3.16667,68.5v0l0.333334,0.5h0.666667l0.333333,-0.5" stroke="#808080" stroke-width="0.015625" fill="none"/><path d="M-3.16667,69.5v0l0.333334,0.5h0.666667l0.333333,-0.5" stroke="#808080" stroke-width="0.015625" fill="none"/><path d="M-3.16667,70.5v0l0.333334,0.5h0.666667l0.333333,-0.5" stroke="#808080" stroke-width="0.015625" fill="none"/><path d="M-2.16667,59v0l0.333333,0.5h0.666667l0.333333,-0.5" stroke="#808080" stroke-width="0.015625" fill="none"/><path d="M-2.16667,60v0l0.333333,0.5h0.666667l0.333333,-0.5" stroke="#808080" stroke-width="0.015625" fill="none"/><path d="M-2.16667,61v0l0.333333,0.5h0.666667l0.333333,-0.5" stroke="#808080" stroke-width="0.015625" fill="none"/><path d="M-2.16667,62v0l0.333333,0.5h0.666667l0.333333,-0.5" stroke="#808080" stroke-width="0.015625" fill="none"/><path d="M-2.16667,63v0l0.333333,0.5h0.666667l0.333333,-0.5" stroke="#808080" stroke-width="0.015625" fill="none"/><path d="M-2.16667,64v0l0.333333,0.5h0.666667l0.333333,-0.5" stroke="#808080" stroke-width="0.015625" fill="none"/><path d="M-2.16667,65v0l0.333333,0.5h0.666667l0.333333,-0.5" stroke="#808080" stroke-width="0.015625" fill="none"/><path d="M-2.16667,66v0l0.333333,0.5h0.666667l0.333333,-0.5" stroke="#808080" stroke-width="0.015625" fill="none"/><path d="M-2.16667,67v0l0.333333,0.5h0.666667l0.333333,-0.5" stroke="#808080" stroke-width="0.015625" fill="none"/><path d="M-2.16667,68v0l0.333333,0.5h0.666667l0.333333,-0.5" stroke="#808080" stroke-width="0.015625" fill="none"/><path d="M-2.16667,69v0l0.333333,0.5h0.666667l0.333333,-0.5" stroke="#808080" stroke-width="0.015625" fill="none"/><path d="M-2.16667,70v0l0.333333,0.5h0.666667l0.333333,-0.5" stroke="#808080" stroke-width="0.015625" fill="none"/><path d="M-2.16667,71v0l0.333333,0.5h0.666667l0.333333,-0.5" stroke="#808080" stroke-width="0.015625" fill="none"/><path d="M-1.16667,58.5v0l0.333333,0.5h0.666667l0.333333,-0.5" stroke="#808080" stroke-width="0.015625" fill="none"/><path d="M-1.16667,59.5v0l0.333333,0.5h0.666667l0.333333,-0.5" stroke="#808080" stroke-width="0.015625" fill="none"/><path d="M-1.16667,60.5v0l0.333333,0.5h0.666667l0.333333,-0.5" stroke="#808080" stroke-width="0.015625" fill="none"/><path d="M-1.16667,61.5v0l0.333333,0.5h0.666667l0.333333,-0.5" stroke="#808080" stroke-width="0.015625" fill="none"/><path d="M-1.16667,62.5v0l0.333333,0.5h0.666667l0.333333,-0.5" stroke="#808080" stroke-width="0.015625" fill="none"/><path d="M-1.16667,63.5v0l0.333333,0.5h0.666667l0.333333,-0.5" stroke="#808080" stroke-width="0.015625" fill="none"/><path d="M-1.16667,64.5v0l0.333333,0.5h0.666667l0.333333,-0.5" stroke="#808080" stroke-width="0.015625" fill="none"/><path d="M-1.16667,65.5v0l0.333333,0.5h0.666667l0.333333,-0.5" stroke="#808080" stroke-width="0.015625" fill="none"/><path d="M-1.16667,66.5v0l0.333333,0.5h0.666667l0.333333,-0.5" stroke="#808080" stroke-width="0.015625" fill="none"/><path d="M-1.16667,67.5v0l0.333333,0.5h0.666667l0.333333,-0.5" stroke="#808080" stroke-width="0.015625" fill="none"/><path d="M-1.16667,68.5v0l0.333333,0.5h0.666667l0.333333,-0.5" stroke="#808080" stroke-width="0.015625" fill="none"/><path d="M-1.16667,69.5v0l0.333333,0.5h0.666667l0.333333,-0.5" stroke="#808080" stroke-width="0.015625" fill="none"/><path d="M-1.16667,70.5v0l0.333333,0.5h0.666667l0.333333,-0.5" stroke="#808080" stroke-width="0.015625" fill="none"/><path d="M-0.166667,59v0l0.333333,0.5h0.666667l0.333333,-0.5" stroke="#808080" stroke-width="0.015625" fill="none"/><path d="M-0.166667,60v0l0.333333,0.5h0.666667l0.333333,-0.5" stroke="#808080" stroke-width="0.015625" fill="none"/><path d="M-0.166667,61v0l0.333333,0.5h0.666667l0.333333,-0.5" stroke="#808080" stroke-width="0.015625" fill="none"/><path d="M-0.166667,62v0l0.333333,0.5h0.666667l0.333333,-0.5" stroke="#808080" stroke-width="0.015625" fill="none"/><path d="M-0.166667,63v0l0.333333,0.5h0.666667l0.333333,-0.5" stroke="#808080" stroke-width="0.015625" fill="none"/><path d="M-0.166667,64v0l0.333333,0.5h0.666667l0.333333,-0.5" stroke="#808080" stroke-width="0.015625" fill="none"/><path d="M-0.166667,65v0l0.333333,0.5h0.666667l0.333333,-0.5" stroke="#808080" stroke-width="0.015625" fill="none"/><path d="M-0.166667,66v0l0.333333,0.5h0.666667l0.333333,-0.5" stroke="#808080" stroke-width="0.015625" fill="none"/><path d="M-0.166667,67v0l0.333333,0.5h0.666667l0.333333,-0.5" stroke="#808080" stroke-width="0.015625" fill="none"/><path d="M-0.166667,68v0l0.333333,0.5h0.666667l0.333333,-0.5" stroke="#808080" stroke-width="0.015625" fill="none"/><path d="M-0.166667,69v0l0.333333,0.5h0.666667l0.333333,-0.5" stroke="#808080" stroke-width="0.015625" fill="none"/><path d="M-0.166667,70v0l0.333333,0.5h0.666667l0.333333,-0.5" stroke="#808080" stroke-width="0.015625" fill="none"/><path d="M-0.166667,71v0l0.333333,0.5h0.666667l0.333333,-0.5" stroke="#808080" stroke-width="0.015625" fill="none"/><path d="M0.833333,58.5v0l0.333333,0.5h0.666667l0.333333,-0.5" stroke="#808080" stroke-width="0.015625" fill="none"/><path d="M0.833333,59.5v0l0.333333,0.5h0.666667l0.333333,-0.5" stroke="#808080" stroke-width="0.015625" fill="none"/><path d="M0.833333,60.5v0l0.333333,0.5h0.666667l0.333333,-0.5" stroke="#808080" stroke-width="0.015625" fill="none"/><path d="M0.833333,61.5v0l0.333333,0.5h0.666667l0.333333,-0.5" stroke="#808080" stroke-width="0.015625" fill="none"/><path d="M0.833333,62.5v0l0.333333,0.5h0.666667l0.333333,-0.5" stroke="#808080" stroke-width="0.015625" fill="none"/><path d="M0.833333,63.5v0l0.333333,0.5h0.666667l0.333333,-0.5" stroke="#808080" stroke-width="0.015625" fill="none"/><path d="M0.833333,64.5v0l0.333333,0.5h0.666667l0.333333,-0.5" stroke="#808080" stroke-width="0.015625" fill="none"/><path d="M0.833333,65.5v0l0.333333,0.5h0.666667l0.333333,-0.5" stroke="#808080" stroke-width="0.015625" fill="none"/><path d="M0.833333,66.5v0l0.333333,0.5h0.666667l0.333333,-0.5" stroke="#808080" stroke-width="0.015625" fill="none"/><path d="M0.833333,67.5v0l0.333333,0.5h0.666667l0.333333,-0.5" stroke="#808080" stroke-width="0.015625" fill="none"/><path d="M0.833333,68.5v0l0.333333,0.5h0.666667l0.333333,-0.5" stroke="#808080" stroke-width="0.015625" fill="none"/><path d="M0.833333,69.5v0l0.333333,0.5h0.666667l0.333333,-0.5" stroke="#808080" stroke-width="0.015625" fill="none"/><path d="M0.833333,70.5v0l0.333333,0.5h0.666667l0.333333,-0.5" stroke="#808080" stroke-width="0.015625" fill="none"/><path d="M1.83333,59v0l0.333333,0.5h0.666667l0.333334,-0.5" stroke="#808080" stroke-width="0.015625" fill="none"/><path d="M1.83333,60v0l0.333333,0.5h0.666667l0.333334,-0.5" stroke="#808080" stroke-width="0.015625" fill="none"/><path d="M1.83333,61v0l0.333333,0.5h0.666667l0.333334,-0.5" stroke="#808080" stroke-width="0.015625" fill="none"/><path d="M1.83333,62v0l0.333333,0.5h0.666667l0.333334,-0.5" stroke="#808080" stroke-width="0.015625" fill="none"/><path d="M1.83333,63v0l0.333333,0.5h0.666667l0.333334,-0.5" stroke="#808080" stroke-width="0.015625" fill="none"/><path d="M1.83333,64v0l0.333333,0.5h0.666667l0.333334,-0.5" stroke="#808080" stroke-width="0.015625" fill="none"/><path d="M1.83333,65v0l0.333333,0.5h0.666667l0.333334,-0.5" stroke="#808080" stroke-width="0.015625" fill="none"/><path d="M1.83333,66v0l0.333333,0.5h0.666667l0.333334,-0.5" stroke="#808080" stroke-width="0.015625" fill="none"/><path d="M1.83333,67v0l0.333333,0.5h0.666667l0.333334,-0.5" stroke="#808080" stroke-width="0.015625" fill="none"/><path d="M1.83333,68v0l0.333333,0.5h0.666667l0.333334,-0.5" stroke="#808080" stroke-width="0.015625" fill="none"/><path d="M1.83333,69v0l0.333333,0.5h0.666667l0.333334,-0.5" stroke="#808080" stroke-width="0.015625" fill="none"/><path d="M1.83333,70v0l0.333333,0.5h0.666667l0.333334,-0.5" stroke="#808080" stroke-width="0.015625" fill="none"/><path d="M1.83333,71v0l0.333333,0.5h0.666667l0.333334,-0.5" stroke="#808080" stroke-width="0.015625" fill="none"/><path d="M2.83333,58.5v0l0.333334,0.5h0.666667l0.333333,-0.5" stroke="#808080" stroke-width="0.015625" fill="none"/><path d="M2.83333,59.5v0l0.333334,0.5h0.666667l0.333333,-0.5" stroke="#808080" stroke-width="0.015625" fill="none"/><path d="M2.83333,60.5v0l0.333334,0.5h0.666667l0.333333,-0.5" stroke="#808080" stroke-width="0.015625" fill="none"/><path d="M2.83333,61.5v0l0.333334,0.5h0.666667l0.333333,-0.5" stroke="#808080" stroke-width="0.015625" fill="none"/><path d="M2.83333,62.5v0l0.333334,0.5h0.666667l0.333333,-0.5" stroke="#808080" stroke-width="0.015625" fill="none"/><path d="M2.83333,63.5v0l0.333334,0.5h0.666667l0.333333,-0.5" stroke="#808080" stroke-width="0.015625" fill="none"/><path d="M2.83333,64.5v0l0.333334,0.5h0.666667l0.333333,-0.5" stroke="#808080" stroke-width="0.015625" fill="none"/><path d="M2.83333,65.5v0l0.333334,0.5h0.666667l0.333333,-0.5" stroke="#808080" stroke-width="0.015625" fill="none"/><path d="M2.83333,66.5v0l0.333334,0.5h0.666667l0.333333,-0.5" stroke="#808080" stroke-width="0.015625" fill="none"/><path d="M2.83333,67.5v0l0.333334,0.5h0.666667l0.333333,-0.5" stroke="#808080" stroke-width="0.015625" fill="none"/><path d="M2.83333,68.5v0l0.333334,0.5h0.666667l0.333333,-0.5" stroke="#808080" stroke-width="0.015625" fill="none"/><path d="M2.83333,69.5v0l0.333334,0.5h0.666667l0.333333,-0.5" stroke="#808080" stroke-width="0.015625" fill="none"/><path d="M2.83333,70.5v0l0.333334,0.5h0.666667l0.333333,-0.5" stroke="#808080" stroke-width="0.015625" fill="none"/><path d="M3.83333,59v0l0.333333,0.5h0.666667l0.333333,-0.5" stroke="#808080" stroke-width="0.015625" fill="none"/><path d="M3.83333,60v0l0.333333,0.5h0.666667l0.333333,-0.5" stroke="#808080" stroke-width="0.015625" fill="none"/><path d="M3.83333,61v0l0.333333,0.5h0.666667l0.333333,-0.5" stroke="#808080" stroke-width="0.015625" fill="none"/><path d="M3.83333,62v0l0.333333,0.5h0.666667l0.333333,-0.5" stroke="#808080" stroke-width="0.015625" fill="none"/><path d="M3.83333,63v0l0.333333,0.5h0.666667l0.333333,-0.5" stroke="#808080" stroke-width="0.015625" fill="none"/><path d="M3.83333,64v0l0.333333,0.5h0.666667l0.333333,-0.5" stroke="#808080" stroke-width="0.015625" fill="none"/><path d="M3.83333,65v0l0.333333,0.5h0.666667l0.333333,-0.5" stroke="#808080" stroke-width="0.015625" fill="none"/><path d="M3.83333,66v0l0.333333,0.5h0.666667l0.333333,-0.5" stroke="#808080" stroke-width="0.015625" fill="none"/><path d="M3.83333,67v0l0.333333,0.5h0.666667l0.333333,-0.5" stroke="#808080" stroke-width="0.015625" fill="none"/><path d="M3.83333,68v0l0.333333,0.5h0.666667l0.333333,-0.5" stroke="#808080" stroke-width="0.015625" fill="none"/><path d="M3.83333,69v0l0.333333,0.5h0.666667l0.333333,-0.5" stroke="#808080" stroke-width="0.015625" fill="none"/><path d="M3.83333,70v0l0.333333,0.5h0.666667l0.333333,-0.5" stroke="#808080" stroke-width="0.015625" fill="none"/><path d="M3.83333,71v0l0.333333,0.5h0.666667l0.333333,-0.5" stroke="#808080" stroke-width="0.015625" fill="none"/><path d="M4.83333,58.5v0l0.333333,0.5h0.666667l0.333333,-0.5" stroke="#808080" stroke-width="0.015625" fill="none"/><path d="M4.83333,59.5v0l0.333333,0.5h0.666667l0.333333,-0.5" stroke="#808080" stroke-width="0.015625" fill="none"/><path d="M4.83333,60.5v0l0.333333,0.5h0.666667l0.333333,-0.5" stroke="#808080" stroke-width="0.015625" fill="none"/><path d="M4.83333,61.5v0l0.333333,0.5h0.666667l0.333333,-0.5" stroke="#808080" stroke-width="0.015625" fill="none"/><path d="M4.83333,62.5v0l0.333333,0.5h0.666667l0.333333,-0.5" stroke="#808080" stroke-width="0.015625" fill="none"/><path d="M4.83333,63.5v0l0.333333,0.5h0.666667l0.333333,-0.5" stroke="#808080" stroke-width="0.015625" fill="none"/><path d="M4.83333,64.5v0l0.333333,0.5h0.666667l0.333333,-0.5" stroke="#808080" stroke-width="0.015625" fill="none"/><path d="M4.83333,65.5v0l0.333333,0.5h0.666667l0.333333,-0.5" stroke="#808080" stroke-width="0.015625" fill="none"/><path d="M4.83333,66.5v0l0.333333,0.5h0.666667l0.333333,-0.5" stroke="#808080" stroke-width="0.015625" fill="none"/><path d="M4.83333,67.5v0l0.333333,0.5h0.666667l0.333333,-0.5" stroke="#808080" stroke-width="0.015625" fill="none"/><path d="M4.83333,68.5v0l0.333333,0.5h0.666667l0.333333,-0.5" stroke="#808080" stroke-width="0.015625" fill="none"/><path d="M4.83333,69.5v0l0.333333,0.5h0.666667l0.333333,-0.5" stroke="#808080" stroke-width="0.015625" fill="none"/><path d="M4.83333,70.5v0l0.333333,0.5h0.666667l0.333333,-0.5" stroke="#808080" stroke-width="0.015625" fill="none"/><path d="M5.83333,59v0l0.333333,0.5h0.666667l0.333333,-0.5" stroke="#808080" stroke-width="0.015625" fill="none"/><path d="M5.83333,60v0l0.333333,0.5h0.666667l0.333333,-0.5" stroke="#808080" stroke-width="0.015625" fill="none"/><path d="M5.83333,61v0l0.333333,0.5h0.666667l0.333333,-0.5" stroke="#808080" stroke-width="0.015625" fill="none"/><path d="M5.83333,62v0l0.333333,0.5h0.666667l0.333333,-0.5" stroke="#808080" stroke-width="0.015625" fill="none"/><path d="M5.83333,63v0l0.333333,0.5h0.666667l0.333333,-0.5" stroke="#808080" stroke-width="0.015625" fill="none"/><path d="M5.83333,64v0l0.333333,0.5h0.666667l0.333333,-0.5" stroke="#808080" stroke-width="0.015625" fill="none"/><path d="M5.83333,65v0l0.333333,0.5h0.666667l0.333333,-0.5" stroke="#808080" stroke-width="0.015625" fill="none"/><path d="M5.83333,66v0l0.333333,0.5h0.666667l0.333333,-0.5" stroke="#808080" stroke-width="0.015625" fill="none"/><path d="M5.83333,67v0l0.333333,0.5h0.666667l0.333333,-0.5" stroke="#808080" stroke-width="0.015625" fill="none"/><path d="M5.83333,68v0l0.333333,0.5h0.666667l0.333333,-0.5" stroke="#808080" stroke-width="0.015625" fill="none"/><path d="M5.83333,69v0l0.333333,0.5h0.666667l0.333333,-0.5" stroke="#808080" stroke-width="0.015625" fill="none"/><path d="M5.83333,70v0l0.333333,0.5h0.666667l0.333333,-0.5" stroke="#808080" stroke-width="0.015625" fill="none"/><path d="M5.83333,71v0l0.333333,0.5h0.666667l0.333333,-0.5" stroke="#808080" stroke-width="0.015625" fill="none"/><path d="M6.83333,58.5v0l0.333333,0.5h0.666667l0.333334,-0.5" stroke="#808080" stroke-width="0.015625" fill="none"/><path d="M6.83333,59.5v0l0.333333,0.5h0.666667l0.333334,-0.5" stroke="#808080" stroke-width="0.015625" fill="none"/><path d="M6.83333,60.5v0l0.333333,0.5h0.666667l0.333334,-0.5" stroke="#808080" stroke-width="0.015625" fill="none"/><path d="M6.83333,61.5v0l0.333333,0.5h0.666667l0.333334,-0.5" stroke="#808080" stroke-width="0.015625" fill="none"/><path d="M6.83333,62.5v0l0.333333,0.5h0.666667l0.333334,-0.5" stroke="#808080" stroke-width="0.015625" fill="none"/><path d="M6.83333,63.5v0l0.333333,0.5h0.666667l0.333334,-0.5" stroke="#808080" stroke-width="0.015625" fill="none"/><path d="M6.83333,64.5v0l0.333333,0.5h0.666667l0.333334,-0.5" stroke="#808080" stroke-width="0.015625" fill="none"/><path d="M6.83333,65.5v0l0.333333,0.5h0.666667l0.333334,-0.5" stroke="#808080" stroke-width="0.015625" fill="none"/><path d="M6.83333,66.5v0l0.333333,0.5h0.666667l0.333334,-0.5" stroke="#808080" stroke-width="0.015625" fill="none"/><path d="M6.83333,67.5v0l0.333333,0.5h0.666667l0.333334,-0.5" stroke="#808080" stroke-width="0.015625" fill="none"/><path d="M6.83333,68.5v0l0.333333,0.5h0.666667l0.333334,-0.5" stroke="#808080" stroke-width="0.015625" fill="none"/><path d="M6.83333,69.5v0l0.333333,0.5h0.666667l0.333334,-0.5" stroke="#808080" stroke-width="0.015625" fill="none"/><path d="M6.83333,70.5v0l0.333333,0.5h0.666667l0.333334,-0.5" stroke="#808080" stroke-width="0.015625" fill="none"/><path clip-path="url(#did2)" d="M-1.83333,40.5l-0.333334,-0.5l0.333334,-0.5h0.666667l0.333333,-0.5h0.666667l0.333333,0.5h0.666667l0.333333,-0.5h0.666667l0.333334,0.5h0.666667l0.333334,-0.5h0.666667l0.333333,0.5h0.666667l0.333333,-0.5h0.666667l0.333333,0.5h0.666667l0.333333,-0.5h0.666667l0.333334,0.5h0.666666l0.333334,-0.5h0.666666l0.333334,0.5h0.666666l0.333334,-0.5h0.666666l0.333334,0.5h0.666666l0.333334,-0.5h0.666666l0.333334,0.5h0.666666l0.333334,-0.5h0.666666l0.333333,0.5h0.666668l0.333332,-0.5h0.666668l0.333332,0.5h0.666668l0.333332,-0.5h0.666668l0.333332,0.5h0.666668l0.333332,-0.5h0.666668l0.333332,0.5h0.666668l0.333332,-0.5h0.666668l0.333332,0.5h0.666668l0.333332,-0.5h0.666668l0.333332,0.5h0.666668l0.333332,-0.5h0.666668l0.333332,0.5h0.666668l0.333332,-0.5h0.666668l0.333332,0.5h0.666668l0.333332,-0.5h0.666668l0.333334,0.5l-0.333334,0.5l0.333334,0.5l-0.333334,0.5l0.333334,0.5l-0.333334,0.5l0.333334,0.5l-0.333334,0.5l0.333334,0.5l-0.333334,0.5l0.333334,0.5l-0.333334,0.5l0.333334,0.5l-0.333334,0.5l0.333334,0.5l-0.333334,0.5l0.333334,0.5l-0.333334,0.5l0.333334,0.5l-0.333334,0.5l0.333334,0.5l-0.333334,0.5l0.333334,0.5l-0.333334,0.5l0.333334,0.5l-0.333334,0.5l0.333334,0.5l-0.333334,0.5l0.333334,0.5l-0.333334,0.5l0.333334,0.5l-0.333334,0.5l0.333334,0.5l-0.333334,0.5l0.333334,0.5l-0.333334,0.5l0.333334,0.5l-0.333334,0.5l0.333334,0.5l-0.333334,0.5l0.333334,0.5l-0.333334,0.5l0.333334,0.5l-0.333334,0.5l0.333334,0.5l-0.333334,0.5l0.333334,0.5l-0.333334,0.5l0.333334,0.5l-0.333334,0.5l0.333334,0.5l-0.333334,0.5l0.333334,0.5l-0.333334,0.5l0.333334,0.5l-0.333334,0.5l0.333334,0.5l-0.333334,0.5l0.333334,0.5l-0.333334,0.5l0.333334,0.5l-0.333334,0.5l0.333334,0.5l-0.333334,0.5l0.333334,0.5l-0.333334,0.5l0.333334,0.5l-0.333334,0.5l0.333334,0.5l-0.333334,0.5l0.333334,0.5l-0.333334,0.5l0.333334,0.5l-0.333334,0.5l0.333334,0.5l-0.333334,0.5l0.333334,0.5l-0.333334,0.5l0.333334,0.5l-0.333334,0.5l0.333334,0.5l-0.333334,0.5l0.333334,0.5l-0.333334,0.5h-0.666668l-0.333332,0.5h-0.666668l-0.333332,-0.5h-0.666668l-0.333332,0.5h-0.666668l-0.333332,-0.5h-0.666668l-0.333332,0.5h-0.666668l-0.333332,-0.5h-0.666668l-0.333332,0.5h-0.666668l-0.333332,-0.5h-0.666668l-0.333332,0.5h-0.666668l-0.333332,-0.5h-0.666668l-0.333332,0.5h-0.666668l-0.333332,-0.5h-0.666668l-0.333332,0.5h-0.666668l-0.333332,-0.5h-0.666668l-0.333332,0.5h-0.666668l-0.333333,-0.5h-0.666666l-0.333334,0.5h-0.666666l-0.333334,-0.5h-0.666666l-0.333334,0.5h-0.666666l-0.333334,-0.5h-0.666666l-0.333334,0.5h-0.666666l-0.333334,-0.5h-0.666666l-0.333334,0.5h-0.666666l-0.333334,-0.5h-0.666667l-0.333333,0.5h-0.666667l-0.333333,-0.5h-0.666667l-0.333333,0.5h-0.666667l-0.333333,-0.5h-0.666667l-0.333334,0.5h-0.666667l-0.333334,-0.5h-0.666667l-0.333333,0.5h-0.666667l-0.333333,-0.5h-0.666667l-0.333333,0.5h-0.666667l-0.333334,-0.5l0.333334,-0.5l-0.333334,-0.5l0.333334,-0.5l-0.333334,-0.5l0.333334,-0.5l-0.333334,-0.5l0.333334,-0.5l-0.333334,-0.5l0.333334,-0.5l-0.333334,-0.5l0.333334,-0.5l-0.333334,-0.5l0.333334,-0.5l-0.333334,-0.5l0.333334,-0.5l-0.333334,-0.5l0.333334,-0.5l-0.333334,-0.5l0.333334,-0.5l-0.333334,-0.5l0.333334,-0.5l-0.333334,-0.5l0.333334,-0.5l-0.333334,-0.5l0.333334,-0.5l-0.333334,-0.5l0.333334,-0.5l-0.333334,-0.5l0.333334,-0.5l-0.333334,-0.5l0.333334,-0.5l-0.333334,-0.5l0.333334,-0.5l-0.333334,-0.5l0.333334,-0.5l-0.333334,-0.5l0.333334,-0.5l-0.333334,-0.5l0.333334,-0.5l-0.333334,-0.5l0.333334,-0.5l-0.333334,-0.5l0.333334,-0.5l-0.333334,-0.5l0.333334,-0.5l-0.333334,-0.5l0.333334,-0.5l-0.333334,-0.5l0.333334,-0.5l-0.333334,-0.5l0.333334,-0.5l-0.333334,-0.5l0.333334,-0.5l-0.333334,-0.5l0.333334,-0.5l-0.333334,-0.5l0.333334,-0.5l-0.333334,-0.5l0.333334,-0.5l-0.333334,-0.5l0.333334,-0.5l-0.333334,-0.5l0.333334,-0.5l-0.333334,-0.5l0.333334,-0.5l-0.333334,-0.5l0.333334,-0.5l-0.333334,-0.5l0.333334,-0.5l-0.333334,-0.5l0.333334,-0.5l-0.333334,-0.5l0.333334,-0.5l-0.333334,-0.5l0.333334,-0.5l-0.333334,-0.5l0.333334,-0.5l-0.333334,-0.5l0.333334,-0.5l-0.333334,-0.5Z" stroke="#E32736" stroke-width="0.16" fill="none"/><line x1="3.64434" y1="58.7165" x2="5.35566" y2="61.2835" stroke="#048104" stroke-width="0.08"/><line x1="5.75" y1="61.375" x2="6.25" y2="61.125" stroke="#048104" stroke-width="0.08"/><line x1="6.56934" y1="60.7573" x2="7.43066" y2="57.7427" stroke="#048104" stroke-width="0.08"/><line x1="6.75" y1="61.125" x2="9.25" y2="62.375" stroke="#048104" stroke-width="0.08"/><line x1="3.68898" y1="63.311" x2="5.31102" y2="61.689" stroke="#048104" stroke-width="0.08"/><line x1="2.64434" y1="64.7835" x2="3.35566" y2="63.7165" stroke="#048104" stroke-width="0.08"/><line x1="1.64434" y1="66.2835" x2="2.35566" y2="65.2165" stroke="#048104" stroke-width="0.08"/><line x1="0.644338" y1="67.7835" x2="1.35566" y2="66.7165" stroke="#048104" stroke-width="0.08"/><line x1="0.644338" y1="68.2165" x2="2.35566" y2="70.7835" stroke="#048104" stroke-width="0.08"/><line x1="-1.21133" y1="68" x2="0.211325" y2="68" stroke="#048104" stroke-width="0.08"/><line x1="-1.31102" y1="66.189" x2="0.311018" y2="67.811" stroke="#048104" stroke-width="0.08"/></g><g clip-path="url(#did3)"><text transform="translate(-0.5,60.5) scale(1.1547 1)" font-family="Arial" font-size="0.14" text-anchor="middle" x="0" y="-0.381" fill="DarkGray">0121</text><text transform="translate(0.5,65) scale(1.1547 1)" font-family="Arial" font-size="0.14" text-anchor="middle" x="0" y="-0.381" fill="DarkGray">0225</text><text transform="translate(0.5,67) scale(1.1547 1)" font-family="Arial" font-size="0.14" text-anchor="middle" x="0" y="-0.381" fill="DarkGray">0227</text><text transform="translate(0.5,68) scale(1.1547 1)" font-family="Arial" font-size="0.14" text-anchor="middle" x="0" y="-0.381" fill="DarkGray">0228</text><text transform="translate(1.5,62.5) scale(1.1547 1)" font-family="Arial" font-size="0.14" text-anchor="middle" x="0" y="-0.381" fill="DarkGray">0323</text><text transform="translate(1.5,63.5) scale(1.1547 1)" font-family="Arial" font-size="0.14" text-anchor="middle" x="0" y="-0.381" fill="DarkGray">0324</text><text transform="translate(1.5,65.5) scale(1.1547 1)" font-family="Arial" font-size="0.14" text-anchor="middle" x="0" y="-0.381" fill="DarkGray">0326</text><text transform="translate(1.5,66.5) scale(1.1547 1)" font-family="Arial" font-size="0.14" text-anchor="middle" x="0" y="-0.381" fill="DarkGray">0327</text><g transform="translate(2.5,62) scale(1.1547 1)"><circle r="0.4" cx="0" cy="0" stroke="#FFCC00" stroke-width="0.05" fill="none"/><text font-family="Arial" font-size="0.14" text-anchor="middle" x="0" y="-0.381" fill="DarkGray">0422</text></g><text transform="translate(2.5,65) scale(1.1547 1)" font-family="Arial" font-size="0.14" text-anchor="middle" x="0" y="-0.381" fill="DarkGray">0425</text><g transform="translate(2.5,70) scale(1.1547 1)"><circle r="0.4" cx="0" cy="0" stroke="#FFCC00" stroke-width="0.05" fill="none"/><text font-family="Arial" font-size="0.14" text-anchor="middle" x="0" y="-0.381" fill="DarkGray">0430</text></g><text transform="translate(3.5,60.5) scale(1.1547 1)" font-family="Arial" font-size="0.14" text-anchor="middle" x="0" y="-0.381" fill="DarkGray">0521</text><text transform="translate(3.5,63.5) scale(1.1547 1)" font-family="Arial" font-size="0.14" text-anchor="middle" x="0" y="-0.381" fill="DarkGray">0524</text><text transform="translate(3.5,65.5) scale(1.1547 1)" font-family="Arial" font-size="0.14" text-anchor="middle" x="0" y="-0.381" fill="DarkGray">0526</text><text transform="translate(3.5,68.5) scale(1.1547 1)" font-family="Arial" font-size="0.14" text-anchor="middle" x="0" y="-0.381" fill="DarkGray">0529</text><text transform="translate(3.5,69.5) scale(1.1547 1)" font-family="Arial" font-size="0.14" text-anchor="middle" x="0" y="-0.381" fill="DarkGray">0530</text><text transform="translate(4.5,61) scale(1.1547 1)" font-family="Arial" font-size="0.14" text-anchor="middle" x="0" y="-0.381" fill="DarkGray">0621</text><text transform="translate(4.5,66) scale(1.1547 1)" font-family="Arial" font-size="0.14" text-anchor="middle" x="0" y="-0.381" fill="DarkGray">0626</text><g transform="translate(4.5,67) scale(1.1547 1)"><circle r="0.4" cx="0" cy="0" stroke="#E32736" stroke-width="0.05" fill="none"/><text font-family="Arial" font-size="0.14" text-anchor="middle" x="0" y="-0.381" fill="DarkGray">0627</text></g><text transform="translate(4.5,68) scale(1.1547 1)" font-family="Arial" font-size="0.14" text-anchor="middle" x="0" y="-0.381" fill="DarkGray">0628</text><g transform="translate(4.5,69) scale(1.1547 1)"><circle r="0.4" cx="0" cy="0" stroke="#FFCC00" stroke-width="0.05" fill="none"/><text font-family="Arial" font-size="0.14" text-anchor="middle" x="0" y="-0.381" fill="DarkGray">0629</text></g><text transform="translate(5.5,60.5) scale(1.1547 1)" font-family="Arial" font-size="0.14" text-anchor="middle" x="0" y="-0.381" fill="DarkGray">0721</text><text transform="translate(5.5,61.5) scale(1.1547 1)" font-family="Arial" font-size="0.14" text-anchor="middle" x="0" y="-0.381" fill="DarkGray">0722</text><text transform="translate(5.5,62.5) scale(1.1547 1)" font-family="Arial" font-size="0.14" text-anchor="middle" x="0" y="-0.381" fill="DarkGray">0723</text><text transform="translate(5.5,65.5) scale(1.1547 1)" font-family="Arial" font-size="0.14" text-anchor="middle" x="0" y="-0.381" fill="DarkGray">0726</text><text transform="translate(5.5,68.5) scale(1.1547 1)" font-family="Arial" font-size="0.14" text-anchor="middle" x="0" y="-0.381" fill="DarkGray">0729</text><text transform="translate(6.5,61) scale(1.1547 1)" font-family="Arial" font-size="0.14" text-anchor="middle" x="0" y="-0.381" fill="DarkGray">0821</text><text transform="translate(6.5,63) scale(1.1547 1)" font-family="Arial" font-size="0.14" text-anchor="middle" x="0" y="-0.381" fill="DarkGray">0823</text><text transform="translate(6.5,68) scale(1.1547 1)" font-family="Arial" font-size="0.14" text-anchor="middle" x="0" y="-0.381" fill="DarkGray">0828</text><g transform="translate(6.5,70) scale(1.1547 1)"><circle r="0.4" cx="0" cy="0" stroke="#FFCC00" stroke-width="0.05" fill="none"/><text font-family="Arial" font-size="0.14" text-anchor="middle" x="0" y="-0.381" fill="DarkGray">0830</text></g></g><g transform="translate(-0.5,60.5) scale(1.1547 1)"><circle transform="translate(0.25,-0.18)" r="0.05" cx="0" cy="0" stroke="none" fill="Black"/><rect x="-0.113084" y="-0.35543" width="0.226167" height="0.260859" stroke="none" fill="White"/><text font-family="Arial" font-size="0.21" font-weight="bold" text-anchor="middle" x="0" y="-0.13575" fill="Black">D</text><circle r="0.1" cx="0" cy="0" stroke="none" fill="DeepSkyBlue"/><rect x="-0.245256" y="0.23957" width="0.490513" height="0.260859" stroke="none" fill="White"/><text font-family="Arial" font-size="0.21" font-weight="bold" text-anchor="middle" x="0" y="0.45925" fill="Black">Cod</text></g><g transform="translate(0.5,65) scale(1.1547 1)"><circle transform="translate(0.25,-0.18)" r="0.05" cx="0" cy="0" stroke="none" fill="Black"/><rect x="-0.107136" y="-0.35543" width="0.214273" height="0.260859" stroke="none" fill="White"/><text font-family="Arial" font-size="0.21" font-weight="bold" text-anchor="middle" x="0" y="-0.13575" fill="Black">E</text><circle r="0.1" cx="0" cy="0" stroke="none" fill="DeepSkyBlue"/><rect x="-0.558103" y="0.23957" width="1.11621" height="0.260859" stroke="none" fill="White"/><text font-family="Arial" font-size="0.21" font-weight="bold" text-anchor="middle" x="0" y="0.45925" fill="Black">Karakaara</text></g><g transform="translate(0.5,67) scale(1.1547 1)"><circle transform="translate(0.25,-0.18)" r="0.05" cx="0" cy="0" stroke="none" fill="Black"/><rect x="-0.113084" y="-0.35543" width="0.226167" height="0.260859" stroke="none" fill="White"/><text font-family="Arial" font-size="0.21" font-weight="bold" text-anchor="middle" x="0" y="-0.13575" fill="Black">D</text><circle r="0.1" cx="0" cy="0" stroke="Black" stroke-width="0.015625" fill="White"/><rect x="-0.383582" y="0.23957" width="0.767163" height="0.260859" stroke="none" fill="White"/><text font-family="Arial" font-size="0.21" font-weight="bold" text-anchor="middle" x="0" y="0.45925" fill="Black">Waken</text></g><g transform="translate(0.5,68) scale(1.1547 1)"><circle transform="translate(0.25,-0.18)" r="0.05" cx="0" cy="0" stroke="none" fill="Black"/><rect x="-0.113084" y="-0.35543" width="0.226167" height="0.260859" stroke="none" fill="White"/><text font-family="Arial" font-size="0.21" font-weight="bold" text-anchor="middle" x="0" y="-0.13575" fill="Black">A</text><circle r="0.1" cx="0" cy="0" stroke="none" fill="DeepSkyBlue"/><rect x="-0.419727" y="0.23957" width="0.839453" height="0.260859" stroke="none" fill="White"/><text font-family="Arial" font-size="0.21" font-weight="bold" text-anchor="middle" x="0" y="0.45925" fill="#E32736">Ebasha</text></g><g transform="translate(1.5,62.5) scale(1.1547 1)"><circle transform="translate(0.25,-0.18)" r="0.05" cx="0" cy="0" stroke="none" fill="Black"/><rect x="-0.113084" y="-0.35543" width="0.226167" height="0.260859" stroke="none" fill="White"/><text font-family="Arial" font-size="0.21" font-weight="bold" text-anchor="middle" x="0" y="-0.13575" fill="Black">D</text><circle r="0.1" cx="0" cy="0" stroke="none" fill="DeepSkyBlue"/><rect x="-0.431621" y="0.23957" width="0.863242" height="0.260859" stroke="none" fill="White"/><text font-family="Arial" font-size="0.21" font-weight="bold" text-anchor="middle" x="0" y="0.45925" fill="Black">Hannah</text></g><g transform="translate(1.5,63.5) scale(1.1547 1)"><circle transform="translate(0.25,-0.18)" r="0.05" cx="0" cy="0" stroke="none" fill="Black"/><rect x="-0.113084" y="-0.35543" width="0.226167" height="0.260859" stroke="none" fill="White"/><text font-family="Arial" font-size="0.21" font-weight="bold" text-anchor="middle" x="0" y="-0.13575" fill="Black">B</text><circle r="0.1" cx="0" cy="0" stroke="none" fill="DeepSkyBlue"/><rect x="-0.425623" y="0.23957" width="0.851245" height="0.260859" stroke="none" fill="White"/><text font-family="Arial" font-size="0.21" font-weight="bold" text-anchor="middle" x="0" y="0.45925" fill="Black">Kendell</text></g><g transform="translate(1.5,65.5) scale(1.1547 1)"><circle transform="translate(0.25,-0.18)" r="0.05" cx="0" cy="0" stroke="none" fill="Black"/><rect x="-0.113084" y="-0.35543" width="0.226167" height="0.260859" stroke="none" fill="White"/><text font-family="Arial" font-size="0.21" font-weight="bold" text-anchor="middle" x="0" y="-0.13575" fill="Black">C</text><circle r="0.1" cx="0" cy="0" stroke="Black" stroke-width="0.015625" fill="White"/><rect x="-0.600093" y="0.23957" width="1.20019" height="0.260859" stroke="none" fill="White"/><text font-family="Arial" font-size="0.21" font-weight="bold" text-anchor="middle" x="0" y="0.45925" fill="Black">Ebekiigase</text></g><g transform="translate(1.5,66.5) scale(1.1547 1)"><circle transform="translate(0.25,-0.18)" r="0.05" cx="0" cy="0" stroke="none" fill="Black"/><rect x="-0.113084" y="-0.35543" width="0.226167" height="0.260859" stroke="none" fill="White"/><text font-family="Arial" font-size="0.21" font-weight="bold" text-anchor="middle" x="0" y="-0.13575" fill="Black">C</text><circle r="0.1" cx="0" cy="0" stroke="none" fill="DeepSkyBlue"/><rect x="-0.293501" y="0.23957" width="0.587002" height="0.260859" stroke="none" fill="White"/><text font-family="Arial" font-size="0.21" font-weight="bold" text-anchor="middle" x="0" y="0.45925" fill="Black">Pane</text></g><g transform="translate(2.5,62) scale(1.1547 1)"><circle transform="translate(0.25,-0.18)" r="0.05" cx="0" cy="0" stroke="none" fill="Black"/><rect x="-0.113084" y="-0.35543" width="0.226167" height="0.260859" stroke="none" fill="White"/><text font-family="Arial" font-size="0.21" font-weight="bold" text-anchor="middle" x="0" y="-0.13575" fill="Black">C</text><circle r="0.1" cx="0" cy="0" stroke="none" fill="DeepSkyBlue"/><rect x="-0.461665" y="0.23957" width="0.92333" height="0.260859" stroke="none" fill="White"/><text font-family="Arial" font-size="0.21" font-weight="bold" text-anchor="middle" x="0" y="0.45925" fill="Black">Hideous</text></g><g transform="translate(2.5,65) scale(1.1547 1)"><circle transform="translate(0.25,-0.18)" r="0.05" cx="0" cy="0" stroke="none" fill="Black"/><rect x="-0.113084" y="-0.35543" width="0.226167" height="0.260859" stroke="none" fill="White"/><text font-family="Arial" font-size="0.21" font-weight="bold" text-anchor="middle" x="0" y="-0.13575" fill="Black">B</text><text font-family="Arial Unicode MS,Segoe UI Symbol,Arial" font-size="0.21" font-weight="bold" text-anchor="middle" x="-0.25" y="-0.09075" fill="Black">★</text><circle r="0.1" cx="0" cy="0" stroke="none" fill="DeepSkyBlue"/><rect x="-0.479763" y="0.23957" width="0.959526" height="0.260859" stroke="none" fill="White"/><text font-family="Arial" font-size="0.21" font-weight="bold" text-anchor="middle" x="0" y="0.45925" fill="Black">Flehemu</text></g><g transform="translate(2.5,70) scale(1.1547 1)"><circle transform="translate(0.25,-0.18)" r="0.05" cx="0" cy="0" stroke="none" fill="Black"/><rect x="-0.113084" y="-0.35543" width="0.226167" height="0.260859" stroke="none" fill="White"/><text font-family="Arial" font-size="0.21" font-weight="bold" text-anchor="middle" x="0" y="-0.13575" fill="Black">C</text><circle r="0.1" cx="0" cy="0" stroke="Black" stroke-width="0.015625" fill="White"/><rect x="-0.545901" y="0.23957" width="1.0918" height="0.260859" stroke="none" fill="White"/><text font-family="Arial" font-size="0.21" font-weight="bold" text-anchor="middle" x="0" y="0.45925" fill="Black">Laruusalii</text></g><g transform="translate(3.5,60.5) scale(1.1547 1)"><circle transform="translate(0.25,-0.18)" r="0.05" cx="0" cy="0" stroke="none" fill="Black"/><rect x="-0.113084" y="-0.35543" width="0.226167" height="0.260859" stroke="none" fill="White"/><text font-family="Arial" font-size="0.21" font-weight="bold" text-anchor="middle" x="0" y="-0.13575" fill="Black">D</text><circle r="0.1" cx="0" cy="0" stroke="none" fill="DeepSkyBlue"/><rect x="-0.269353" y="0.23957" width="0.538706" height="0.260859" stroke="none" fill="White"/><text font-family="Arial" font-size="0.21" font-weight="bold" text-anchor="middle" x="0" y="0.45925" fill="Black">Vigo</text></g><g transform="translate(3.5,63.5) scale(1.1547 1)"><circle transform="translate(0.25,-0.18)" r="0.05" cx="0" cy="0" stroke="none" fill="Black"/><rect x="-0.113084" y="-0.35543" width="0.226167" height="0.260859" stroke="none" fill="White"/><text font-family="Arial" font-size="0.21" font-weight="bold" text-anchor="middle" x="0" y="-0.13575" fill="Black">B</text><text font-family="Arial Unicode MS,Segoe UI Symbol,Arial" font-size="0.21" font-weight="bold" text-anchor="middle" x="-0.25" y="-0.09075" fill="Black">★</text><circle r="0.1" cx="0" cy="0" stroke="none" fill="DeepSkyBlue"/><rect x="-0.479763" y="0.23957" width="0.959526" height="0.260859" stroke="none" fill="White"/><text font-family="Arial" font-size="0.21" font-weight="bold" text-anchor="middle" x="0" y="0.45925" fill="Black">Pesuuzu</text></g><g transform="translate(3.5,65.5) scale(1.1547 1)"><rect x="-0.113084" y="-0.35543" width="0.226167" height="0.260859" stroke="none" fill="White"/><text font-family="Arial" font-size="0.21" font-weight="bold" text-anchor="middle" x="0" y="-0.13575" fill="Black">C</text><circle r="0.1" cx="0" cy="0" stroke="none" fill="DeepSkyBlue"/><rect x="-0.425674" y="0.23957" width="0.851348" height="0.260859" stroke="none" fill="White"/><text font-family="Arial" font-size="0.21" font-weight="bold" text-anchor="middle" x="0" y="0.45925" fill="Black">Aahasu</text></g><g transform="translate(3.5,68.5) scale(1.1547 1)"><circle transform="translate(0.25,-0.18)" r="0.05" cx="0" cy="0" stroke="none" fill="Black"/><rect x="-0.113084" y="-0.35543" width="0.226167" height="0.260859" stroke="none" fill="White"/><text font-family="Arial" font-size="0.21" font-weight="bold" text-anchor="middle" x="0" y="-0.13575" fill="Black">C</text><circle r="0.1" cx="0" cy="0" stroke="none" fill="DeepSkyBlue"/><rect x="-0.347539" y="0.23957" width="0.695078" height="0.260859" stroke="none" fill="White"/><text font-family="Arial" font-size="0.21" font-weight="bold" text-anchor="middle" x="0" y="0.45925" fill="Black">Jinchi</text></g><g transform="translate(3.5,69.5) scale(1.1547 1)"><circle transform="translate(0.25,-0.18)" r="0.05" cx="0" cy="0" stroke="none" fill="Black"/><rect x="-0.113084" y="-0.35543" width="0.226167" height="0.260859" stroke="none" fill="White"/><text font-family="Arial" font-size="0.21" font-weight="bold" text-anchor="middle" x="0" y="-0.13575" fill="Black">B</text><circle r="0.1" cx="0" cy="0" stroke="none" fill="DeepSkyBlue"/><rect x="-0.353538" y="0.23957" width="0.707075" height="0.260859" stroke="none" fill="White"/><text font-family="Arial" font-size="0.21" font-weight="bold" text-anchor="middle" x="0" y="0.45925" fill="Black">Zokku</text></g><g transform="translate(4.5,61) scale(1.1547 1)"><circle transform="translate(0.25,-0.18)" r="0.05" cx="0" cy="0" stroke="none" fill="Black"/><rect x="-0.113084" y="-0.35543" width="0.226167" height="0.260859" stroke="none" fill="White"/><text font-family="Arial" font-size="0.21" font-weight="bold" text-anchor="middle" x="0" y="-0.13575" fill="Black">C</text><circle r="0.1" cx="0" cy="0" stroke="Black" stroke-width="0.015625" fill="White"/><rect x="-0.431519" y="0.23957" width="0.863037" height="0.260859" stroke="none" fill="White"/><text font-family="Arial" font-size="0.21" font-weight="bold" text-anchor="middle" x="0" y="0.45925" fill="Black">Hatfield</text></g><g transform="translate(4.5,66) scale(1.1547 1)"><circle transform="translate(0.25,-0.18)" r="0.05" cx="0" cy="0" stroke="none" fill="Black"/><rect x="-0.107136" y="-0.35543" width="0.214273" height="0.260859" stroke="none" fill="White"/><text font-family="Arial" font-size="0.21" font-weight="bold" text-anchor="middle" x="0" y="-0.13575" fill="Black">E</text><circle r="0.1" cx="0" cy="0" stroke="Black" stroke-width="0.015625" fill="White"/><rect x="-0.407576" y="0.23957" width="0.815151" height="0.260859" stroke="none" fill="White"/><text font-family="Arial" font-size="0.21" font-weight="bold" text-anchor="middle" x="0" y="0.45925" fill="Black">Careful</text></g><g transform="translate(4.5,67) scale(1.1547 1)"><circle transform="translate(0.25,-0.18)" r="0.05" cx="0" cy="0" stroke="none" fill="Black"/><rect x="-0.107136" y="-0.35543" width="0.214273" height="0.260859" stroke="none" fill="White"/><text font-family="Arial" font-size="0.21" font-weight="bold" text-anchor="middle" x="0" y="-0.13575" fill="Black">X</text><circle r="0.1" cx="0" cy="0" stroke="none" fill="DeepSkyBlue"/><rect x="-0.431826" y="0.23957" width="0.863652" height="0.260859" stroke="none" fill="White"/><text font-family="Arial" font-size="0.21" font-weight="bold" text-anchor="middle" x="0" y="0.45925" fill="Black">531-210</text></g><g transform="translate(4.5,68) scale(1.1547 1)"><circle transform="translate(0.25,-0.18)" r="0.05" cx="0" cy="0" stroke="none" fill="Black"/><rect x="-0.113084" y="-0.35543" width="0.226167" height="0.260859" stroke="none" fill="White"/><text font-family="Arial" font-size="0.21" font-weight="bold" text-anchor="middle" x="0" y="-0.13575" fill="Black">C</text><circle r="0.1" cx="0" cy="0" stroke="Black" stroke-width="0.015625" fill="White"/><rect x="-0.407627" y="0.23957" width="0.815254" height="0.260859" stroke="none" fill="White"/><text font-family="Arial" font-size="0.21" font-weight="bold" text-anchor="middle" x="0" y="0.45925" fill="Black">Arappa</text></g><g transform="translate(4.5,69) scale(1.1547 1)"><circle transform="translate(0.25,-0.18)" r="0.05" cx="0" cy="0" stroke="none" fill="Black"/><rect x="-0.113084" y="-0.35543" width="0.226167" height="0.260859" stroke="none" fill="White"/><text font-family="Arial" font-size="0.21" font-weight="bold" text-anchor="middle" x="0" y="-0.13575" fill="Black">B</text><circle r="0.1" cx="0" cy="0" stroke="Black" stroke-width="0.015625" fill="White"/><rect x="-0.467715" y="0.23957" width="0.93543" height="0.260859" stroke="none" fill="White"/><text font-family="Arial" font-size="0.21" font-weight="bold" text-anchor="middle" x="0" y="0.45925" fill="Black">Quioxan</text></g><g transform="translate(5.5,60.5) scale(1.1547 1)"><rect x="-0.107136" y="-0.35543" width="0.214273" height="0.260859" stroke="none" fill="White"/><text font-family="Arial" font-size="0.21" font-weight="bold" text-anchor="middle" x="0" y="-0.13575" fill="Black">E</text><circle r="0.1" cx="0" cy="0" stroke="none" fill="DeepSkyBlue"/><rect x="-0.281504" y="0.23957" width="0.563008" height="0.260859" stroke="none" fill="White"/><text font-family="Arial" font-size="0.21" font-weight="bold" text-anchor="middle" x="0" y="0.45925" fill="Black">Jene</text></g><g transform="translate(5.5,61.5) scale(1.1547 1)"><circle transform="translate(0.25,-0.18)" r="0.05" cx="0" cy="0" stroke="none" fill="Black"/><rect x="-0.113084" y="-0.35543" width="0.226167" height="0.260859" stroke="none" fill="White"/><text font-family="Arial" font-size="0.21" font-weight="bold" text-anchor="middle" x="0" y="-0.13575" fill="Black">B</text><circle r="0.1" cx="0" cy="0" stroke="none" fill="DeepSkyBlue"/><rect x="-0.467817" y="0.23957" width="0.935635" height="0.260859" stroke="none" fill="White"/><text font-family="Arial" font-size="0.21" font-weight="bold" text-anchor="middle" x="0" y="0.45925" fill="Black">Zekhesii</text></g><g transform="translate(5.5,62.5) scale(1.1547 1)"><circle transform="translate(0.25,-0.18)" r="0.05" cx="0" cy="0" stroke="none" fill="Black"/><rect x="-0.113084" y="-0.35543" width="0.226167" height="0.260859" stroke="none" fill="White"/><text font-family="Arial" font-size="0.21" font-weight="bold" text-anchor="middle" x="0" y="-0.13575" fill="Black">D</text><circle r="0.1" cx="0" cy="0" stroke="none" fill="DeepSkyBlue"/><rect x="-0.443669" y="0.23957" width="0.887339" height="0.260859" stroke="none" fill="White"/><text font-family="Arial" font-size="0.21" font-weight="bold" text-anchor="middle" x="0" y="0.45925" fill="Black">Six Gun</text></g><g transform="translate(5.5,65.5) scale(1.1547 1)"><circle transform="translate(0.25,-0.18)" r="0.05" cx="0" cy="0" stroke="none" fill="Black"/><rect x="-0.113084" y="-0.35543" width="0.226167" height="0.260859" stroke="none" fill="White"/><text font-family="Arial" font-size="0.21" font-weight="bold" text-anchor="middle" x="0" y="-0.13575" fill="Black">D</text><circle r="0.1" cx="0" cy="0" stroke="Black" stroke-width="0.015625" fill="White"/><rect x="-0.377634" y="0.23957" width="0.755269" height="0.260859" stroke="none" fill="White"/><text font-family="Arial" font-size="0.21" font-weight="bold" text-anchor="middle" x="0" y="0.45925" fill="Black">Oyster</text></g><g transform="translate(5.5,68.5) scale(1.1547 1)"><rect x="-0.113084" y="-0.35543" width="0.226167" height="0.260859" stroke="none" fill="White"/><text font-family="Arial" font-size="0.21" font-weight="bold" text-anchor="middle" x="0" y="-0.13575" fill="Black">C</text><circle r="0.1" cx="0" cy="0" stroke="none" fill="DeepSkyBlue"/><rect x="-0.371482" y="0.23957" width="0.742964" height="0.260859" stroke="none" fill="White"/><text font-family="Arial" font-size="0.21" font-weight="bold" text-anchor="middle" x="0" y="0.45925" fill="Black">Rouen</text></g><g transform="translate(6.5,61) scale(1.1547 1)"><circle transform="translate(0.25,-0.18)" r="0.05" cx="0" cy="0" stroke="none" fill="Black"/><rect x="-0.113084" y="-0.35543" width="0.226167" height="0.260859" stroke="none" fill="White"/><text font-family="Arial" font-size="0.21" font-weight="bold" text-anchor="middle" x="0" y="-0.13575" fill="Black">B</text><circle r="0.1" cx="0" cy="0" stroke="none" fill="DeepSkyBlue"/><rect x="-0.365535" y="0.23957" width="0.731069" height="0.260859" stroke="none" fill="White"/><text font-family="Arial" font-size="0.21" font-weight="bold" text-anchor="middle" x="0" y="0.45925" fill="Black">Bones</text></g><g transform="translate(6.5,63) scale(1.1547 1)"><circle transform="translate(0.25,-0.18)" r="0.05" cx="0" cy="0" stroke="none" fill="Black"/><rect x="-0.113084" y="-0.35543" width="0.226167" height="0.260859" stroke="none" fill="White"/><text font-family="Arial" font-size="0.21" font-weight="bold" text-anchor="middle" x="0" y="-0.13575" fill="Black">D</text><text font-family="Arial Unicode MS,Segoe UI Symbol,Arial" font-size="0.21" font-weight="bold" text-anchor="middle" x="-0.25" y="0.26925" fill="Black">▲</text><circle r="0.1" cx="0" cy="0" stroke="none" fill="DeepSkyBlue"/><rect x="-0.449617" y="0.23957" width="0.899233" height="0.260859" stroke="none" fill="White"/><text font-family="Arial" font-size="0.21" font-weight="bold" text-anchor="middle" x="0" y="0.45925" fill="Black">Justabit</text></g><g transform="translate(6.5,68) scale(1.1547 1)"><circle transform="translate(0.25,-0.18)" r="0.05" cx="0" cy="0" stroke="none" fill="Black"/><rect x="-0.113084" y="-0.35543" width="0.226167" height="0.260859" stroke="none" fill="White"/><text font-family="Arial" font-size="0.21" font-weight="bold" text-anchor="middle" x="0" y="-0.13575" fill="Black">C</text><circle r="0.1" cx="0" cy="0" stroke="Black" stroke-width="0.015625" fill="White"/><rect x="-0.413677" y="0.23957" width="0.827354" height="0.260859" stroke="none" fill="White"/><text font-family="Arial" font-size="0.21" font-weight="bold" text-anchor="middle" x="0" y="0.45925" fill="Black">Szeged</text></g><g transform="translate(6.5,70) scale(1.1547 1)"><circle transform="translate(0.25,-0.18)" r="0.05" cx="0" cy="0" stroke="none" fill="Black"/><rect x="-0.113084" y="-0.35543" width="0.226167" height="0.260859" stroke="none" fill="White"/><text font-family="Arial" font-size="0.21" font-weight="bold" text-anchor="middle" x="0" y="-0.13575" fill="Black">D</text><circle r="0.1" cx="0" cy="0" stroke="Black" stroke-width="0.015625" fill="White"/><rect x="-0.431826" y="0.23957" width="0.863652" height="0.260859" stroke="none" fill="White"/><text font-family="Arial" font-size="0.21" font-weight="bold" text-anchor="middle" x="0" y="0.45925" fill="Black">572-108</text></g></g></svg>