<?xml version = "1.0" encoding="utf-8"?>
<svg version="1.1" baseProfile="full" xmlns="http://www.w3.org/2000/svg" xmlns:xlink="http://www.w3.org/1999/xlink" width="471" height="684" viewBox="0 0 471 684" clip="0 471 0 684"><defs><clipPath id="did1"><rect x="-97.25" y="-30.1" width="8.5" height="10.7"/></clipPath><clipPath id="did2"><path d="M-70.8333,-20l-0.333328,-0.5l0.333328,-0.5h0.666672l0.333328,-0.5h0.666672l0.333328,0.5h0.666672l0.333328,0.5l-0.333328,0.5l0.333328,0.5l-0.333328,0.5l0.333328,0.5l-0.333328,0.5h-0.666672l-0.333328,-0.5l0.333328,-0.5l-0.333328,-0.5h-0.666672l-0.333328,-0.5Z"/></clipPath><clipPath id="did3"><path d="M-97.8333,-39.5l-0.333328,-0.5l0.333328,-0.5h0.666672l0.333328,-0.5h0.666672l0.333328,0.5h0.666672l0.333328,-0.5h0.666672l0.333328,0.5h0.666672l0.333328,-0.5h0.666672l0.333328,0.5h0.666672l0.333328,-0.5h0.666672l0.333328,0.5h0.666672l0.333328,-0.5h0.666672l0.333328,0.5h0.666672l0.333328,-0.5h0.666672l0.333328,0.5h0.666672l0.333328,-0.5h0.666672l0.333328,0.5h0.666672l0.333328,-0.5h0.666672l0.333328,0.5h0.666672l0.333328,0.5l-0.333328,0.5h-0.666672l-0.333328,0.5h-0.666672l-0.333328,0.5h-0.666672l-0.333328,0.5h-0.666672l-0.333328,0.5h-0.666672l-0.333328,0.5h-0.666672l-0.333328,-0.5h-0.666672l-0.333328,0.5h-0.666672l-0.333328,0.5h-0.666672l-0.333328,0.5h-0.666672l-0.333328,0.5l0.333328,0.5l-0.333328,0.5l0.333328,0.5h0.666672l0.333328,0.5l-0.333328,0.5l0.333328,0.5l-0.333328,0.5l0.333328,0.5l-0.333328,0.5l0.333328,0.5l-0.333328,0.5h-0.666672l-0.333328,0.5h-0.666672l-0.333328,0.5h-0.666672l-0.333328,0.5h-0.666672l-0.333328,0.5l0.333328,0.5l-0.333328,0.5h-0.666672l-0.333328,0.5l0.333328,0.5l-0.333328,0.5l0.333328,0.5l-0.333328,0.5l0.333328,0.5l-0.333328,0.5l0.333328,0.5l-0.333328,0.5h-0.666672l-0.333328,0.5h-0.666672l-0.333328,0.5l0.333328,0.5l-0.333328,0.5h-0.666672l-0.333328,-0.5l0.333328,-0.5l-0.333328,-0.5l0.333328,-0.5l-0.333328,-0.5l0.333328,-0.5l-0.333328,-0.5l0.333328,-0.5l-0.333328,-0.5l0.333328,-0.5l-0.333328,-0.5l0.333328,-0.5l-0.333328,-0.5l0.333328,-0.5l-0.333328,-0.5l0.333328,-0.5l-0.333328,-0.5l0.333328,-0.5l-0.333328,-0.5l0.333328,-0.5l-0.333328,-0.5l0.333328,-0.5l-0.333328,-0.5l0.333328,-0.5l-0.333328,-0.5l0.333328,-0.5l-0.333328,-0.5l0.333328,-0.5l-0.333328,-0.5l0.333328,-0.5l-0.333328,-0.5l0.333328,-0.5l-0.333328,-0.5l0.333328,-0.5l-0.333328,-0.5l0.333328,-0.5l-0.333328,-0.5Z"/></clipPath><clipPath id="did4"><path d="M-76.8333,-1l-0.333328,-0.5l0.333328,-0.5h0.666672l0.333328,-0.5h0.666672l0.333328,-0.5l-0.333328,-0.5l0.333328,-0.5h0.666672l0.333328,-0.5l-0.333328,-0.5l0.333328,-0.5h0.666672l0.333328,-0.5l-0.333328,-0.5l0.333328,-0.5h0.666672l0.333328,-0.5h0.666672l0.333328,-0.5l-0.333328,-0.5l0.333328,-0.5l-0.333328,-0.5l0.333328,-0.5h0.666672l0.333328,-0.5h0.666672l0.333328,-0.5h0.666672l0.333328,-0.5l-0.333328,-0.5l0.333328,-0.5h0.666672l0.333328,-0.5h0.666672l0.333328,-0.5h0.666672l0.333328,-0.5l-0.333328,-0.5l0.333328,-0.5l-0.333328,-0.5l0.333328,-0.5h0.666672l0.333332,0.5l-0.333332,0.5l0.333332,0.5l-0.333332,0.5l0.333332,0.5l-0.333332,0.5l0.333332,0.5l-0.333332,0.5l0.333332,0.5l-0.333332,0.5l0.333332,0.5l-0.333332,0.5l0.333332,0.5l-0.333332,0.5l0.333332,0.5l-0.333332,0.5l0.333332,0.5l-0.333332,0.5l0.333332,0.5l-0.333332,0.5l0.333332,0.5l-0.333332,0.5l0.333332,0.5l-0.333332,0.5l0.333332,0.5l-0.333332,0.5l0.333332,0.5l-0.333332,0.5l0.333332,0.5l-0.333332,0.5l0.333332,0.5l-0.333332,0.5l0.333332,0.5l-0.333332,0.5h-0.666672l-0.333328,0.5h-0.666672l-0.333328,-0.5h-0.666672l-0.333328,0.5h-0.666672l-0.333328,-0.5h-0.666672l-0.333328,0.5h-0.666672l-0.333328,-0.5h-0.666672l-0.333328,0.5h-0.666672l-0.333328,-0.5h-0.666672l-0.333328,0.5h-0.666672l-0.333328,-0.5h-0.666672l-0.333328,0.5h-0.666672l-0.333328,-0.5h-0.666672l-0.333328,-0.5l0.333328,-0.5l-0.333328,-0.5Z"/></clipPath><clipPath id="did5"><rect x="-97.25" y="-30.1" width="8.5" height="10.7"/></clipPath><clipPath id="did6"><rect x="-97.25" y="-30.1" width="8.5" height="10.7"/></clipPath></defs><g fill="None" stroke="None" transform="matrix(1,0,0,1,0,0) matrix(55.4256,0,0,64,5390.14,1926.4)"><g clip-path="url(#did1)"><rect x="-98.1" y="-31.17" width="10.2" height="12.84" stroke="none" fill="White"/><path d="M-99.1667,-31.5v0l0.333328,0.5h0.666672l0.333328,-0.5" stroke="#808080" stroke-width="0.015625" fill="none"/><path d="M-99.1667,-30.5v0l0.333328,0.5h0.666672l0.333328,-0.5" stroke="#808080" stroke-width="0.015625" fill="none"/><path d="M-99.1667,-29.5v0l0.333328,0.5h0.666672l0.333328,-0.5" stroke="#808080" stroke-width="0.015625" fill="none"/><path d="M-99.1667,-28.5v0l0.333328,0.5h0.666672l0.333328,-0.5" stroke="#808080" stroke-width="0.015625" fill="none"/><path d="M-99.1667,-27.5v0l0.333328,0.5h0.666672l0.333328,-0.5" stroke="#808080" stroke-width="0.015625" fill="none"/><path d="M-99.1667,-26.5v0l0.333328,0.5h0.666672l0.333328,-0.5" stroke="#808080" stroke-width="0.015625" fill="none"/><path d="M-99.1667,-25.5v0l0.333328,0.5h0.666672l0.333328,-0.5" stroke="#808080" stroke-width="0.015625" fill="none"/><path d="M-99.1667,-24.5v0l0.333328,0.5h0.666672l0.333328,-0.5" stroke="#808080" stroke-width="0.015625" fill="none"/><path d="M-99.1667,-23.5v0l0.333328,0.5h0.666672l0.333328,-0.5" stroke="#808080" stroke-width="0.015625" fill="none"/><path d="M-99.1667,-22.5v0l0.333328,0.5h0.666672l0.333328,-0.5" stroke="#808080" stroke-width="0.015625" fill="none"/><path d="M-99.1667,-21.5v0l0.333328,0.5h0.666672l0.333328,-0.5" stroke="#808080" stroke-width="0.015625" fill="none"/><path d="M-99.1667,-20.5v0l0.333328,0.5h0.666672l0.333328,-0.5" stroke="#808080" stroke-width="0.015625" fill="none"/><path d="M-99.1667,-19.5v0l0.333328,0.5h0.666672l0.333328,-0.5" stroke="#808080" stroke-width="0.015625" fill="none"/><path d="M-98.1667,-31v0l0.333328,0.5h0.666672l0.333328,-0.5" stroke="#808080" stroke-width="0.015625" fill="none"/><path d="M-98.1667,-30v0l0.333328,0.5h0.666672l0.333328,-0.5" stroke="#808080" stroke-width="0.015625" fill="none"/><path d="M-98.1667,-29v0l0.333328,0.5h0.666672l0.333328,-0.5" stroke="#808080" stroke-width="0.015625" fill="none"/><path d="M-98.1667,-28v0l0.333328,0.5h0.666672l0.333328,-0.5" stroke="#808080" stroke-width="0.015625" fill="none"/><path d="M-98.1667,-27v0l0.333328,0.5h0.666672l0.333328,-0.5" stroke="#808080" stroke-width="0.015625" fill="none"/><path d="M-98.1667,-26v0l0.333328,0.5h0.666672l0.333328,-0.5" stroke="#808080" stroke-width="0.015625" fill="none"/><path d="M-98.1667,-25v0l0.333328,0.5h0.666672l0.333328,-0.5" stroke="#808080" stroke-width="0.015625" fill="none"/><path d="M-98.1667,-24v0l0.333328,0.5h0.666672l0.333328,-0.5" stroke="#808080" stroke-width="0.015625" fill="none"/><path d="M-98.1667,-23v0l0.333328,0.5h0.666672l0.333328,-0.5" stroke="#808080" stroke-width="0.015625" fill="none"/><path d="M-98.1667,-22v0l0.333328,0.5h0.666672l0.333328,-0.5" stroke="#808080" stroke-width="0.015625" fill="none"/><path d="M-98.1667,-21v0l0.333328,0.5h0.666672l0.333328,-0.5" stroke="#808080" stroke-width="0.015625" fill="none"/><path d="M-98.1667,-20v0l0.333328,0.5h0.666672l0.333328,-0.5" stroke="#808080" stroke-width="0.015625" fill="none"/><path d="M-98.1667,-19v0l0.333328,0.5h0.666672l0.333328,-0.5" stroke="#808080" stroke-width="0.015625" fill="none"/><path d="M-97.1667,-31.5v0l0.333328,0.5h0.666672l0.333328,-0.5" stroke="#808080" stroke-width="0.015625" fill="none"/><path d="M-97.1667,-30.5v0l0.333328,0.5h0.666672l0.333328,-0.5" stroke="#808080" stroke-width="0.015625" fill="none"/><path d="M-97.1667,-29.5v0l0.333328,0.5h0.666672l0.333328,-0.5" stroke="#808080" stroke-width="0.015625" fill="none"/><path d="M-97.1667,-28.5v0l0.333328,0.5h0.666672l0.333328,-0.5" stroke="#808080" stroke-width="0.015625" fill="none"/><path d="M-97.1667,-27.5v0l0.333328,0.5h0.666672l0.333328,-0.5" stroke="#808080" stroke-width="0.015625" fill="none"/><path d="M-97.1667,-26.5v0l0.333328,0.5h0.666672l0.333328,-0.5" stroke="#808080" stroke-width="0.015625" fill="none"/><path d="M-97.1667,-25.5v0l0.333328,0.5h0.666672l0.333328,-0.5" stroke="#808080" stroke-width="0.015625" fill="none"/><path d="M-97.1667,-24.5v0l0.333328,0.5h0.666672l0.333328,-0.5" stroke="#808080" stroke-width="0.015625" fill="none"/><path d="M-97.1667,-23.5v0l0.333328,0.5h0.666672l0.333328,-0.5" stroke="#808080" stroke-width="0.015625" fill="none"/><path d="M-97.1667,-22.5v0l0.333328,0.5h0.666672l0.333328,-0.5" stroke="#808080" stroke-width="0.015625" fill="none"/><path d="M-97.1667,-21.5v0l0.333328,0.5h0.666672l0.333328,-0.5" stroke="#808080" stroke-width="0.015625" fill="none"/><path d="M-97.1667,-20.5v0l0.333328,0.5h0.666672l0.333328,-0.5" stroke="#808080" stroke-width="0.015625" fill="none"/><path d="M-97.1667,-19.5v0l0.333328,0.5h0.666672l0.333328,-0.5" stroke="#808080" stroke-width="0.015625" fill="none"/><path d="M-96.1667,-31v0l0.333328,0.5h0.666672l0.333328,-0.5" stroke="#808080" stroke-width="0.015625" fill="none"/><path d="M-96.1667,-30v0l0.333328,0.5h0.666672l0.333328,-0.5" stroke="#808080" stroke-width="0.015625" fill="none"/><path d="M-96.1667,-29v0l0.333328,0.5h0.666672l0.333328,-0.5" stroke="#808080" stroke-width="0.015625" fill="none"/><path d="M-96.1667,-28v0l0.333328,0.5h0.666672l0.333328,-0.5" stroke="#808080" stroke-width="0.015625" fill="none"/><path d="M-96.1667,-27v0l0.333328,0.5h0.666672l0.333328,-0.5" stroke="#808080" stroke-width="0.015625" fill="none"/><path d="M-96.1667,-26v0l0.333328,0.5h0.666672l0.333328,-0.5" stroke="#808080" stroke-width="0.015625" fill="none"/><path d="M-96.1667,-25v0l0.333328,0.5h0.666672l0.333328,-0.5" stroke="#808080" stroke-width="0.015625" fill="none"/><path d="M-96.1667,-24v0l0.333328,0.5h0.666672l0.333328,-0.5" stroke="#808080" stroke-width="0.015625" fill="none"/><path d="M-96.1667,-23v0l0.333328,0.5h0.666672l0.333328,-0.5" stroke="#808080" stroke-width="0.015625" fill="none"/><path d="M-96.1667,-22v0l0.333328,0.5h0.666672l0.333328,-0.5" stroke="#808080" stroke-width="0.015625" fill="none"/><path d="M-96.1667,-21v0l0.333328,0.5h0.666672l0.333328,-0.5" stroke="#808080" stroke-width="0.015625" fill="none"/><path d="M-96.1667,-20v0l0.333328,0.5h0.666672l0.333328,-0.5" stroke="#808080" stroke-width="0.015625" fill="none"/><path d="M-96.1667,-19v0l0.333328,0.5h0.666672l0.333328,-0.5" stroke="#808080" stroke-width="0.015625" fill="none"/><path d="M-95.1667,-31.5v0l0.333328,0.5h0.666672l0.333328,-0.5" stroke="#808080" stroke-width="0.015625" fill="none"/><path d="M-95.1667,-30.5v0l0.333328,0.5h0.666672l0.333328,-0.5" stroke="#808080" stroke-width="0.015625" fill="none"/><path d="M-95.1667,-29.5v0l0.333328,0.5h0.666672l0.333328,-0.5" stroke="#808080" stroke-width="0.015625" fill="none"/><path d="M-95.1667,-28.5v0l0.333328,0.5h0.666672l0.333328,-0.5" stroke="#808080" stroke-width="0.015625" fill="none"/><path d="M-95.1667,-27.5v0l0.333328,0.5h0.666672l0.333328,-0.5" stroke="#808080" stroke-width="0.015625" fill="none"/><path d="M-95.1667,-26.5v0l0.333328,0.5h0.666672l0.333328,-0.5" stroke="#808080" stroke-width="0.015625" fill="none"/><path d="M-95.1667,-25.5v0l0.333328,0.5h0.666672l0.333328,-0.5" stroke="#808080" stroke-width="0.015625" fill="none"/><path d="M-95.1667,-24.5v0l0.333328,0.5h0.666672l0.333328,-0.5" stroke="#808080" stroke-width="0.015625" fill="none"/><path d="M-95.1667,-23.5v0l0.333328,0.5h0.666672l0.333328,-0.5" stroke="#808080" stroke-width="0.015625" fill="none"/><path d="M-95.1667,-22.5v0l0.333328,0.5h0.666672l0.333328,-0.5" stroke="#808080" stroke-width="0.015625" fill="none"/><path d="M-95.1667,-21.5v0l0.333328,0.5h0.666672l0.333328,-0.5" stroke="#808080" stroke-width="0.015625" fill="none"/><path d="M-95.1667,-20.5v0l0.333328,0.5h0.666672l0.333328,-0.5" stroke="#808080" stroke-width="0.015625" fill="none"/><path d="M-95.1667,-19.5v0l0.333328,0.5h0.666672l0.333328,-0.5" stroke="#808080" stroke-width="0.015625" fill="none"/><path d="M-94.1667,-31v0l0.333328,0.5h0.666672l0.333328,-0.5" stroke="#808080" stroke-width="0.015625" fill="none"/><path d="M-94.1667,-30v0l0.333328,0.5h0.666672l0.333328,-0.5" stroke="#808080" stroke-width="0.015625" fill="none"/><path d="M-94.1667,-29v0l0.333328,0.5h0.666672l0.333328,-0.5" stroke="#808080" stroke-width="0.015625" fill="none"/><path d="M-94.1667,-28v0l0.333328,0.5h0.666672l0.333328,-0.5" stroke="#808080" stroke-width="0.015625" fill="none"/><path d="M-94.1667,-27v0l0.333328,0.5h0.666672l0.333328,-0.5" stroke="#808080" stroke-width="0.015625" fill="none"/><path d="M-94.1667,-26v0l0.333328,0.5h0.666672l0.333328,-0.5" stroke="#808080" stroke-width="0.015625" fill="none"/><path d="M-94.1667,-25v0l0.333328,0.5h0.666672l0.333328,-0.5" stroke="#808080" stroke-width="0.015625" fill="none"/><path d="M-94.1667,-24v0l0.333328,0.5h0.666672l0.333328,-0.5" stroke="#808080" stroke-width="0.015625" fill="none"/><path d="M-94.1667,-23v0l0.333328,0.5h0.666672l0.333328,-0.5" stroke="#808080" stroke-width="0.015625" fill="none"/><path d="M-94.1667,-22v0l0.333328,0.5h0.666672l0.333328,-0.5" stroke="#808080" stroke-width="0.015625" fill="none"/><path d="M-94.1667,-21v0l0.333328,0.5h0.666672l0.333328,-0.5" stroke="#808080" stroke-width="0.015625" fill="none"/><path d="M-94.1667,-20v0l0.333328,0.5h0.666672l0.333328,-0.5" stroke="#808080" stroke-width="0.015625" fill="none"/><path d="M-94.1667,-19v0l0.333328,0.5h0.666672l0.333328,-0.5" stroke="#808080" stroke-width="0.015625" fill="none"/><path d="M-93.1667,-31.5v0l0.333328,0.5h0.666672l0.333328,-0.5" stroke="#808080" stroke-width="0.015625" fill="none"/><path d="M-93.1667,-30.5v0l0.333328,0.5h0.666672l0.333328,-0.5" stroke="#808080" stroke-width="0.015625" fill="none"/><path d="M-93.1667,-29.5v0l0.333328,0.5h0.666672l0.333328,-0.5" stroke="#808080" stroke-width="0.015625" fill="none"/><path d="M-93.1667,-28.5v0l0.333328,0.5h0.666672l0.333328,-0.5" stroke="#808080" stroke-width="0.015625" fill="none"/><path d="M-93.1667,-27.5v0l0.333328,0.5h0.666672l0.333328,-0.5" stroke="#808080" stroke-width="0.015625" fill="none"/><path d="M-93.1667,-26.5v0l0.333328,0.5h0.666672l0.333328,-0.5" stroke="#808080" stroke-width="0.015625" fill="none"/><path d="M-93.1667,-25.5v0l0.333328,0.5h0.666672l0.333328,-0.5" stroke="#808080" stroke-width="0.015625" fill="none"/><path d="M-93.1667,-24.5v0l0.333328,0.5h0.666672l0.333328,-0.5" stroke="#808080" stroke-width="0.015625" fill="none"/><path d="M-93.1667,-23.5v0l0.333328,0.5h0.666672l0.333328,-0.5" stroke="#808080" stroke-width="0.015625" fill="none"/><path d="M-93.1667,-22.5v0l0.333328,0.5h0.666672l0.333328,-0.5" stroke="#808080" stroke-width="0.015625" fill="none"/><path d="M-93.1667,-21.5v0l0.333328,0.5h0.666672l0.333328,-0.5" stroke="#808080" stroke-width="0.015625" fill="none"/><path d="M-93.1667,-20.5v0l0.333328,0.5h0.666672l0.333328,-0.5" stroke="#808080" stroke-width="0.015625" fill="none"/><path d="M-93.1667,-19.5v0l0.333328,0.5h0.666672l0.333328,-0.5" stroke="#808080" stroke-width="0.015625" fill="none"/><path d="M-92.1667,-31v0l0.333328,0.5h0.666672l0.333328,-0.5" stroke="#808080" stroke-width="0.015625" fill="none"/><path d="M-92.1667,-30v0l0.333328,0.5h0.666672l0.333328,-0.5" stroke="#808080" stroke-width="0.015625" fill="none"/><path d="M-92.1667,-29v0l0.333328,0.5h0.666672l0.333328,-0.5" stroke="#808080" stroke-width="0.015625" fill="none"/><path d="M-92.1667,-28v0l0.333328,0.5h0.666672l0.333328,-0.5" stroke="#808080" stroke-width="0.015625" fill="none"/><path d="M-92.1667,-27v0l0.333328,0.5h0.666672l0.333328,-0.5" stroke="#808080" stroke-width="0.015625" fill="none"/><path d="M-92.1667,-26v0l0.333328,0.5h0.666672l0.333328,-0.5" stroke="#808080" stroke-width="0.015625" fill="none"/><path d="M-92.1667,-25v0l0.333328,0.5h0.666672l0.333328,-0.5" stroke="#808080" stroke-width="0.015625" fill="none"/><path d="M-92.1667,-24v0l0.333328,0.5h0.666672l0.333328,-0.5" stroke="#808080" stroke-width="0.015625" fill="none"/><path d="M-92.1667,-23v0l0.333328,0.5h0.666672l0.333328,-0.5" stroke="#808080" stroke-width="0.015625" fill="none"/><path d="M-92.1667,-22v0l0.333328,0.5h0.666672l0.333328,-0.5" stroke="#808080" stroke-width="0.015625" fill="none"/><path d="M-92.1667,-21v0l0.333328,0.5h0.666672l0.333328,-0.5" stroke="#808080" stroke-width="0.015625" fill="none"/><path d="M-92.1667,-20v0l0.333328,0.5h0.666672l0.333328,-0.5" stroke="#808080" stroke-width="0.015625" fill="none"/><path d="M-92.1667,-19v0l0.333328,0.5h0.666672l0.333328,-0.5" stroke="#808080" stroke-width="0.015625" fill="none"/><path d="M-91.1667,-31.5v0l0.333328,0.5h0.666672l0.333328,-0.5" stroke="#808080" stroke-width="0.015625" fill="none"/><path d="M-91.1667,-30.5v0l0.333328,0.5h0.666672l0.333328,-0.5" stroke="#808080" stroke-width="0.015625" fill="none"/><path d="M-91.1667,-29.5v0l0.333328,0.5h0.666672l0.333328,-0.5" stroke="#808080" stroke-width="0.015625" fill="none"/><path d="M-91.1667,-28.5v0l0.333328,0.5h0.666672l0.333328,-0.5" stroke="#808080" stroke-width="0.015625" fill="none"/><path d="M-91.1667,-27.5v0l0.333328,0.5h0.666672l0.333328,-0.5" stroke="#808080" stroke-width="0.015625" fill="none"/><path d="M-91.1667,-26.5v0l0.333328,0.5h0.666672l0.333328,-0.5" stroke="#808080" stroke-width="0.015625" fill="none"/><path d="M-91.1667,-25.5v0l0.333328,0.5h0.666672l0.333328,-0.5" stroke="#808080" stroke-width="0.015625" fill="none"/><path d="M-91.1667,-24.5v0l0.333328,0.5h0.666672l0.333328,-0.5" stroke="#808080" stroke-width="0.015625" fill="none"/><path d="M-91.1667,-23.5v0l0.333328,0.5h0.666672l0.333328,-0.5" stroke="#808080" stroke-width="0.015625" fill="none"/><path d="M-91.1667,-22.5v0l0.333328,0.5h0.666672l0.333328,-0.5" stroke="#808080" stroke-width="0.015625" fill="none"/><path d="M-91.1667,-21.5v0l0.333328,0.5h0.666672l0.333328,-0.5" stroke="#808080" stroke-width="0.015625" fill="none"/><path d="M-91.1667,-20.5v0l0.333328,0.5h0.666672l0.333328,-0.5" stroke="#808080" stroke-width="0.015625" fill="none"/><path d="M-91.1667,-19.5v0l0.333328,0.5h0.666672l0.333328,-0.5" stroke="#808080" stroke-width="0.015625" fill="none"/><path d="M-90.1667,-31v0l0.333328,0.5h0.666672l0.333328,-0.5" stroke="#808080" stroke-width="0.015625" fill="none"/><path d="M-90.1667,-30v0l0.333328,0.5h0.666672l0.333328,-0.5" stroke="#808080" stroke-width="0.015625" fill="none"/><path d="M-90.1667,-29v0l0.333328,0.5h0.666672l0.333328,-0.5" stroke="#808080" stroke-width="0.015625" fill="none"/><path d="M-90.1667,-28v0l0.333328,0.5h0.666672l0.333328,-0.5" stroke="#808080" stroke-width="0.015625" fill="none"/><path d="M-90.1667,-27v0l0.333328,0.5h0.666672l0.333328,-0.5" stroke="#808080" stroke-width="0.015625" fill="none"/><path d="M-90.1667,-26v0l0.333328,0.5h0.666672l0.333328,-0.5" stroke="#808080" stroke-width="0.015625" fill="none"/><path d="M-90.1667,-25v0l0.333328,0.5h0.666672l0.333328,-0.5" stroke="#808080" stroke-width="0.015625" fill="none"/><path d="M-90.1667,-24v0l0.333328,0.5h0.666672l0.333328,-0.5" stroke="#808080" stroke-width="0.015625" fill="none"/><path d="M-90.1667,-23v0l0.333328,0.5h0.666672l0.333328,-0.5" stroke="#808080" stroke-width="0.015625" fill="none"/><path d="M-90.1667,-22v0l0.333328,0.5h0.666672l0.333328,-0.5" stroke="#808080" stroke-width="0.015625" fill="none"/><path d="M-90.1667,-21v0l0.333328,0.5h0.666672l0.333328,-0.5" stroke="#808080" stroke-width="0.015625" fill="none"/><path d="M-90.1667,-20v0l0.333328,0.5h0.666672l0.333328,-0.5" stroke="#808080" stroke-width="0.015625" fill="none"/><path d="M-90.1667,-19v0l0.333328,0.5h0.666672l0.333328,-0.5" stroke="#808080" stroke-width="0.015625" fill="none"/><path d="M-89.1667,-31.5v0l0.333328,0.5h0.666672l0.333328,-0.5" stroke="#808080" stroke-width="0.015625" fill="none"/><path d="M-89.1667,-30.5v0l0.333328,0.5h0.666672l0.333328,-0.5" stroke="#808080" stroke-width="0.015625" fill="none"/><path d="M-89.1667,-29.5v0l0.333328,0.5h0.666672l0.333328,-0.5" stroke="#808080" stroke-width="0.015625" fill="none"/><path d="M-89.1667,-28.5v0l0.333328,0.5h0.666672l0.333328,-0.5" stroke="#808080" stroke-width="0.015625" fill="none"/><path d="M-89.1667,-27.5v0l0.333328,0.5h0.666672l0.333328,-0.5" stroke="#808080" stroke-width="0.015625" fill="none"/><path d="M-89.1667,-26.5v0l0.333328,0.5h0.666672l0.333328,-0.5" stroke="#808080" stroke-width="0.015625" fill="none"/><path d="M-89.1667,-25.5v0l0.333328,0.5h0.666672l0.333328,-0.5" stroke="#808080" stroke-width="0.015625" fill="none"/><path d="M-89.1667,-24.5v0l0.333328,0.5h0.666672l0.333328,-0.5" stroke="#808080" stroke-width="0.015625" fill="none"/><path d="M-89.1667,-23.5v0l0.333328,0.5h0.666672l0.333328,-0.5" stroke="#808080" stroke-width="0.015625" fill="none"/><path d="M-89.1667,-22.5v0l0.333328,0.5h0.666672l0.333328,-0.5" stroke="#808080" stroke-width="0.015625" fill="none"/><path d="M-89.1667,-21.5v0l0.333328,0.5h0.666672l0.333328,-0.5" stroke="#808080" stroke-width="0.015625" fill="none"/><path d="M-89.1667,-20.5v0l0.333328,0.5h0.666672l0.333328,-0.5" stroke="#808080" stroke-width="0.015625" fill="none"/><path d="M-89.1667,-19.5v0l0.333328,0.5h0.666672l0.333328,-0.5" stroke="#808080" stroke-width="0.015625" fill="none"/><path clip-path="url(#did2)" d="M-70.8333,-20l-0.333328,-0.5l0.333328,-0.5h0.666672l0.333328,-0.5h0.666672l0.333328,0.5h0.666672l0.333328,0.5l-0.333328,0.5l0.333328,0.5l-0.333328,0.5l0.333328,0.5l-0.333328,0.5h-0.666672l-0.333328,-0.5l0.333328,-0.5l-0.333328,-0.5h-0.666672l-0.333328,-0.5Z" stroke="none" fill="#800080" fill-opacity="0.25"/><path clip-path="url(#did3)" d="M-97.8333,-39.5l-0.333328,-0.5l0.333328,-0.5h0.666672l0.333328,-0.5h0.666672l0.333328,0.5h0.666672l0.333328,-0.5h0.666672l0.333328,0.5h0.666672l0.333328,-0.5h0.666672l0.333328,0.5h0.666672l0.333328,-0.5h0.666672l0.333328,0.5h0.666672l0.333328,-0.5h0.666672l0.333328,0.5h0.666672l0.333328,-0.5h0.666672l0.333328,0.5h0.666672l0.333328,-0.5h0.666672l0.333328,0.5h0.666672l0.333328,-0.5h0.666672l0.333328,0.5h0.666672l0.333328,0.5l-0.333328,0.5h-0.666672l-0.333328,0.5h-0.666672l-0.333328,0.5h-0.666672l-0.333328,0.5h-0.666672l-0.333328,0.5h-0.666672l-0.333328,0.5h-0.666672l-0.333328,-0.5h-0.666672l-0.333328,0.5h-0.666672l-0.333328,0.5h-0.666672l-0.333328,0.5h-0.666672l-0.333328,0.5l0.333328,0.5l-0.333328,0.5l0.333328,0.5h0.666672l0.333328,0.5l-0.333328,0.5l0.333328,0.5l-0.333328,0.5l0.333328,0.5l-0.333328,0.5l0.333328,0.5l-0.333328,0.5h-0.666672l-0.333328,0.5h-0.666672l-0.333328,0.5h-0.666672l-0.333328,0.5h-0.666672l-0.333328,0.5l0.333328,0.5l-0.333328,0.5h-0.666672l-0.333328,0.5l0.333328,0.5l-0.333328,0.5l0.333328,0.5l-0.333328,0.5l0.333328,0.5l-0.333328,0.5l0.333328,0.5l-0.333328,0.5h-0.666672l-0.333328,0.5h-0.666672l-0.333328,0.5l0.333328,0.5l-0.333328,0.5h-0.666672l-0.333328,-0.5l0.333328,-0.5l-0.333328,-0.5l0.333328,-0.5l-0.333328,-0.5l0.333328,-0.5l-0.333328,-0.5l0.333328,-0.5l-0.333328,-0.5l0.333328,-0.5l-0.333328,-0.5l0.333328,-0.5l-0.333328,-0.5l0.333328,-0.5l-0.333328,-0.5l0.333328,-0.5l-0.333328,-0.5l0.333328,-0.5l-0.333328,-0.5l0.333328,-0.5l-0.333328,-0.5l0.333328,-0.5l-0.333328,-0.5l0.333328,-0.5l-0.333328,-0.5l0.333328,-0.5l-0.333328,-0.5l0.333328,-0.5l-0.333328,-0.5l0.333328,-0.5l-0.333328,-0.5l0.333328,-0.5l-0.333328,-0.5l0.333328,-0.5l-0.333328,-0.5l0.333328,-0.5l-0.333328,-0.5Z" stroke="#E32736" stroke-width="0.16" fill="none"/><path clip-path="url(#did4)" d="M-76.8333,-1l-0.333328,-0.5l0.333328,-0.5h0.666672l0.333328,-0.5h0.666672l0.333328,-0.5l-0.333328,-0.5l0.333328,-0.5h0.666672l0.333328,-0.5l-0.333328,-0.5l0.333328,-0.5h0.666672l0.333328,-0.5l-0.333328,-0.5l0.333328,-0.5h0.666672l0.333328,-0.5h0.666672l0.333328,-0.5l-0.333328,-0.5l0.333328,-0.5l-0.333328,-0.5l0.333328,-0.5h0.666672l0.333328,-0.5h0.666672l0.333328,-0.5h0.666672l0.333328,-0.5l-0.333328,-0.5l0.333328,-0.5h0.666672l0.333328,-0.5h0.666672l0.333328,-0.5h0.666672l0.333328,-0.5l-0.333328,-0.5l0.333328,-0.5l-0.333328,-0.5l0.333328,-0.5h0.666672l0.333332,0.5l-0.333332,0.5l0.333332,0.5l-0.333332,0.5l0.333332,0.5l-0.333332,0.5l0.333332,0.5l-0.333332,0.5l0.333332,0.5l-0.333332,0.5l0.333332,0.5l-0.333332,0.5l0.333332,0.5l-0.333332,0.5l0.333332,0.5l-0.333332,0.5l0.333332,0.5l-0.333332,0.5l0.333332,0.5l-0.333332,0.5l0.333332,0.5l-0.333332,0.5l0.333332,0.5l-0.333332,0.5l0.333332,0.5l-0.333332,0.5l0.333332,0.5l-0.333332,0.5l0.333332,0.5l-0.333332,0.5l0.333332,0.5l-0.333332,0.5l0.333332,0.5l-0.333332,0.5h-0.666672l-0.333328,0.5h-0.666672l-0.333328,-0.5h-0.666672l-0.333328,0.5h-0.666672l-0.333328,-0.5h-0.666672l-0.333328,0.5h-0.666672l-0.333328,-0.5h-0.666672l-0.333328,0.5h-0.666672l-0.333328,-0.5h-0.666672l-0.333328,0.5h-0.666672l-0.333328,-0.5h-0.666672l-0.333328,0.5h-0.666672l-0.333328,-0.5h-0.666672l-0.333328,-0.5l0.333328,-0.5l-0.333328,-0.5Z" stroke="#E32736" stroke-width="0.16" fill="none"/></g><g clip-path="url(#did5)"><text transform="translate(-96.5,-29.5) scale(1.1547 1)" font-family="Arial" font-size="0.14" text-anchor="middle" x="0" y="-0.381" fill="DarkGray">0111</text><text transform="translate(-96.5,-28.5) scale(1.1547 1)" font-family="Arial" font-size="0.14" text-anchor="middle" x="0" y="-0.381" fill="DarkGray">0112</text><text transform="translate(-96.5,-22.5) scale(1.1547 1)" font-family="Arial" font-size="0.14" text-anchor="middle" x="0" y="-0.381" fill="DarkGray">0118</text><text transform="translate(-95.5,-28) scale(1.1547 1)" font-family="Arial" font-size="0.14" text-anchor="middle" x="0" y="-0.381" fill="DarkGray">0212</text><text transform="translate(-95.5,-24) scale(1.1547 1)" font-family="Arial" font-size="0.14" text-anchor="middle" x="0" y="-0.381" fill="DarkGray">0216</text><text transform="translate(-95.5,-23) scale(1.1547 1)" font-family="Arial" font-size="0.14" text-anchor="middle" x="0" y="-0.381" fill="DarkGray">0217</text><text transform="translate(-94.5,-27.5) scale(1.1547 1)" font-family="Arial" font-size="0.14" text-anchor="middle" x="0" y="-0.381" fill="DarkGray">0313</text><text transform="translate(-93.5,-24) scale(1.1547 1)" font-family="Arial" font-size="0.14" text-anchor="middle" x="0" y="-0.381" fill="DarkGray">0416</text><text transform="translate(-92.5,-29.5) scale(1.1547 1)" font-family="Arial" font-size="0.14" text-anchor="middle" x="0" y="-0.381" fill="DarkGray">0511</text><text transform="translate(-91.5,-27) scale(1.1547 1)" font-family="Arial" font-size="0.14" text-anchor="middle" x="0" y="-0.381" fill="DarkGray">0613</text><text transform="translate(-91.5,-22) scale(1.1547 1)" font-family="Arial" font-size="0.14" text-anchor="middle" x="0" y="-0.381" fill="DarkGray">0618</text></g><g transform="translate(-96.5,-29.5) scale(1.1547 1)"><circle transform="translate(0.25,-0.18)" r="0.05" cx="0" cy="0" stroke="none" fill="Black"/><rect x="-0.113084" y="-0.35543" width="0.226167" height="0.260859" stroke="none" fill="White"/><text font-family="Arial" font-size="0.21" font-weight="bold" text-anchor="middle" x="0" y="-0.13575" fill="Black">B</text><circle r="0.1" cx="0" cy="0" stroke="Black" stroke-width="0.015625" fill="White"/><rect x="-0.48571" y="0.23957" width="0.971421" height="0.260859" stroke="none" fill="White"/><text font-family="Arial" font-size="0.21" font-weight="bold" text-anchor="middle" x="0" y="0.45925" fill="Black">Grudovo</text></g><g transform="translate(-96.5,-28.5) scale(1.1547 1)"><circle transform="translate(0.25,-0.18)" r="0.05" cx="0" cy="0" stroke="none" fill="Black"/><rect x="-0.113084" y="-0.35543" width="0.226167" height="0.260859" stroke="none" fill="White"/><text font-family="Arial" font-size="0.21" font-weight="bold" text-anchor="middle" x="0" y="-0.13575" fill="Black">A</text><circle r="0.1" cx="0" cy="0" stroke="none" fill="DeepSkyBlue"/><rect x="-0.623933" y="0.23957" width="1.24787" height="0.260859" stroke="none" fill="White"/><text font-family="Arial" font-size="0.21" font-weight="bold" text-anchor="middle" x="0" y="0.45925" fill="Black">Banskonno</text></g><g transform="translate(-96.5,-22.5) scale(1.1547 1)"><circle transform="translate(0.25,-0.18)" r="0.05" cx="0" cy="0" stroke="none" fill="Black"/><rect x="-0.113084" y="-0.35543" width="0.226167" height="0.260859" stroke="none" fill="White"/><text font-family="Arial" font-size="0.21" font-weight="bold" text-anchor="middle" x="0" y="-0.13575" fill="Black">B</text><text font-family="Arial Unicode MS,Segoe UI Symbol,Arial" font-size="0.21" font-weight="bold" text-anchor="middle" x="-0.25" y="-0.09075" fill="Black">★</text><circle r="0.1" cx="0" cy="0" stroke="none" fill="DeepSkyBlue"/><rect x="-0.43157" y="0.23957" width="0.86314" height="0.260859" stroke="none" fill="White"/><text font-family="Arial" font-size="0.21" font-weight="bold" text-anchor="middle" x="0" y="0.45925" fill="Black">Bastion</text></g><g transform="translate(-95.5,-28) scale(1.1547 1)"><circle transform="translate(0.25,-0.18)" r="0.05" cx="0" cy="0" stroke="none" fill="Black"/><rect x="-0.113084" y="-0.35543" width="0.226167" height="0.260859" stroke="none" fill="White"/><text font-family="Arial" font-size="0.21" font-weight="bold" text-anchor="middle" x="0" y="-0.13575" fill="Black">B</text><text font-family="Arial Unicode MS,Segoe UI Symbol,Arial" font-size="0.21" font-weight="bold" text-anchor="middle" x="-0.25" y="0.26925" fill="Black">▲</text><circle r="0.1" cx="0" cy="0" stroke="none" fill="DeepSkyBlue"/><rect x="-0.389631" y="0.23957" width="0.779263" height="0.260859" stroke="none" fill="White"/><text font-family="Arial" font-size="0.21" font-weight="bold" text-anchor="middle" x="0" y="0.45925" fill="Black">Aldaya</text></g><g transform="translate(-95.5,-24) scale(1.1547 1)"><circle transform="translate(0.25,-0.18)" r="0.05" cx="0" cy="0" stroke="none" fill="Black"/><rect x="-0.113084" y="-0.35543" width="0.226167" height="0.260859" stroke="none" fill="White"/><text font-family="Arial" font-size="0.21" font-weight="bold" text-anchor="middle" x="0" y="-0.13575" fill="Black">D</text><circle r="0.1" cx="0" cy="0" stroke="none" fill="DeepSkyBlue"/><rect x="-0.305396" y="0.23957" width="0.610791" height="0.260859" stroke="none" fill="White"/><text font-family="Arial" font-size="0.21" font-weight="bold" text-anchor="middle" x="0" y="0.45925" fill="Black">Neon</text></g><g transform="translate(-95.5,-23) scale(1.1547 1)"><circle transform="translate(0.25,-0.18)" r="0.05" cx="0" cy="0" stroke="none" fill="Black"/><rect x="-0.113084" y="-0.35543" width="0.226167" height="0.260859" stroke="none" fill="White"/><text font-family="Arial" font-size="0.21" font-weight="bold" text-anchor="middle" x="0" y="-0.13575" fill="Black">B</text><circle r="0.1" cx="0" cy="0" stroke="none" fill="DeepSkyBlue"/><rect x="-0.437671" y="0.23957" width="0.875342" height="0.260859" stroke="none" fill="White"/><text font-family="Arial" font-size="0.21" font-weight="bold" text-anchor="middle" x="0" y="0.45925" fill="Black">Cerebin</text></g><g transform="translate(-94.5,-27.5) scale(1.1547 1)"><circle transform="translate(0.25,-0.18)" r="0.05" cx="0" cy="0" stroke="none" fill="Black"/><rect x="-0.113084" y="-0.35543" width="0.226167" height="0.260859" stroke="none" fill="White"/><text font-family="Arial" font-size="0.21" font-weight="bold" text-anchor="middle" x="0" y="-0.13575" fill="Black">D</text><text font-family="Arial Unicode MS,Segoe UI Symbol,Arial" font-size="0.21" font-weight="bold" text-anchor="middle" x="-0.35" y="0.08925" fill="#E32736">Β</text><circle r="0.1" cx="0" cy="0" stroke="Black" stroke-width="0.015625" fill="White"/><rect x="-0.32939" y="0.23957" width="0.658779" height="0.260859" stroke="none" fill="White"/><text font-family="Arial" font-size="0.21" font-weight="bold" text-anchor="middle" x="0" y="0.45925" fill="Black">Helifil</text></g><g transform="translate(-93.5,-24) scale(1.1547 1)"><circle transform="translate(0.25,-0.18)" r="0.05" cx="0" cy="0" stroke="none" fill="Black"/><rect x="-0.113084" y="-0.35543" width="0.226167" height="0.260859" stroke="none" fill="White"/><text font-family="Arial" font-size="0.21" font-weight="bold" text-anchor="middle" x="0" y="-0.13575" fill="Black">B</text><circle r="0.1" cx="0" cy="0" stroke="none" fill="DeepSkyBlue"/><rect x="-0.53375" y="0.23957" width="1.0675" height="0.260859" stroke="none" fill="White"/><text font-family="Arial" font-size="0.21" font-weight="bold" text-anchor="middle" x="0" y="0.45925" fill="Black">Tonnurad</text><text font-family="Arial" font-size="0.14" text-anchor="middle" x="0.25" y="0.2395" fill="Black">NaHu</text></g><g transform="translate(-92.5,-29.5) scale(1.1547 1)"><circle transform="translate(0.25,-0.18)" r="0.05" cx="0" cy="0" stroke="none" fill="Black"/><rect x="-0.113084" y="-0.35543" width="0.226167" height="0.260859" stroke="none" fill="White"/><text font-family="Arial" font-size="0.21" font-weight="bold" text-anchor="middle" x="0" y="-0.13575" fill="Black">B</text><circle r="0.1" cx="0" cy="0" stroke="none" fill="DeepSkyBlue"/><rect x="-0.389683" y="0.23957" width="0.779365" height="0.260859" stroke="none" fill="White"/><text font-family="Arial" font-size="0.21" font-weight="bold" text-anchor="middle" x="0" y="0.45925" fill="Black">Fraaga</text></g><g transform="translate(-91.5,-27) scale(1.1547 1)"><text font-family="Arial Unicode MS,Segoe UI Symbol" font-size="0.84" text-anchor="middle" x="0" y="0.357" fill="#E32736">⌖</text><rect x="-1.0747" y="0.23957" width="2.14939" height="0.260859" stroke="none" fill="White"/><text font-family="Arial" font-size="0.21" font-weight="bold" text-anchor="middle" x="0" y="0.45925" fill="Black">Usher Proto-System</text><text font-family="Arial" font-size="0.14" text-anchor="middle" x="0.25" y="0.2395" fill="Black"/></g><g transform="translate(-91.5,-22) scale(1.1547 1)"><text font-family="Arial Unicode MS,Segoe UI Symbol" font-size="0.84" text-anchor="middle" x="0" y="0.357" fill="#E32736">⌖</text><rect x="-0.900276" y="0.23957" width="1.80055" height="0.260859" stroke="none" fill="White"/><text font-family="Arial" font-size="0.21" font-weight="bold" text-anchor="middle" x="0" y="0.45925" fill="Black">Chandler Station</text><text font-family="Arial" font-size="0.14" text-anchor="middle" x="0.25" y="0.2395" fill="Black"/></g></g></svg>