<?xml version = "1.0" encoding="utf-8"?>
<svg version="1.1" baseProfile="full" xmlns="http://www.w3.org/2000/svg" xmlns:xlink="http://www.w3.org/1999/xlink" width="471" height="684" viewBox="0 0 471 684" clip="0 471 0 684"><defs><clipPath id="did1"><rect x="6.75" y="29.9" width="8.5" height="10.7"/></clipPath><clipPath id="did2"><path d="M-1.83333,0.5l-0.333334,-0.5l0.333334,-0.5h0.666667l0.333333,-0.5h0.666667l0.333333,0.5h0.666667l0.333333,-0.5h0.666667l0.333334,0.5h0.666667l0.333334,-0.5h0.666667l0.333333,0.5h0.666667l0.333333,-0.5h0.666667l0.333333,0.5h0.666667l0.333333,-0.5h0.666667l0.333334,0.5h0.666666l0.333334,-0.5h0.666666l0.333334,0.5h0.666666l0.333334,-0.5h0.666666l0.333334,0.5h0.666666l0.333334,-0.5h0.666666l0.333334,0.5h0.666666l0.333334,-0.5h0.666666l0.333333,0.5h0.666668l0.333332,-0.5h0.666668l0.333332,0.5h0.666668l0.333332,-0.5h0.666668l0.333332,0.5h0.666668l0.333332,-0.5h0.666668l0.333332,0.5h0.666668l0.333332,-0.5h0.666668l0.333332,0.5h0.666668l0.333332,-0.5h0.666668l0.333332,0.5h0.666668l0.333332,-0.5h0.666668l0.333332,0.5h0.666668l0.333332,-0.5h0.666668l0.333332,0.5h0.666668l0.333332,-0.5h0.666668l0.333334,0.5l-0.333334,0.5l0.333334,0.5l-0.333334,0.5l0.333334,0.5l-0.333334,0.5l0.333334,0.5l-0.333334,0.5l0.333334,0.5l-0.333334,0.5l0.333334,0.5l-0.333334,0.5l0.333334,0.5l-0.333334,0.5l0.333334,0.5l-0.333334,0.5l0.333334,0.5l-0.333334,0.5l0.333334,0.5l-0.333334,0.5l0.333334,0.5l-0.333334,0.5l0.333334,0.5l-0.333334,0.5l0.333334,0.5l-0.333334,0.5l0.333334,0.5l-0.333334,0.5l0.333334,0.5l-0.333334,0.5l0.333334,0.5l-0.333334,0.5l0.333334,0.5l-0.333334,0.5l0.333334,0.5l-0.333334,0.5l0.333334,0.5l-0.333334,0.5l0.333334,0.5l-0.333334,0.5l0.333334,0.5l-0.333334,0.5l0.333334,0.5l-0.333334,0.5l0.333334,0.5l-0.333334,0.5l0.333334,0.5l-0.333334,0.5l0.333334,0.5l-0.333334,0.5l0.333334,0.5l-0.333334,0.5l0.333334,0.5l-0.333334,0.5l0.333334,0.5l-0.333334,0.5l0.333334,0.5l-0.333334,0.5l0.333334,0.5l-0.333334,0.5l0.333334,0.5l-0.333334,0.5l0.333334,0.5l-0.333334,0.5l0.333334,0.5l-0.333334,0.5l0.333334,0.5l-0.333334,0.5l0.333334,0.5l-0.333334,0.5l0.333334,0.5l-0.333334,0.5l0.333334,0.5l-0.333334,0.5l0.333334,0.5l-0.333334,0.5l0.333334,0.5l-0.333334,0.5l0.333334,0.5l-0.333334,0.5l0.333334,0.5l-0.333334,0.5l0.333334,0.5l-0.333334,0.5h-0.666668l-0.333332,0.5h-0.666668l-0.333332,-0.5h-0.666668l-0.333332,0.5h-0.666668l-0.333332,-0.5h-0.666668l-0.333332,0.5h-0.666668l-0.333332,-0.5h-0.666668l-0.333332,0.5h-0.666668l-0.333332,-0.5h-0.666668l-0.333332,0.5h-0.666668l-0.333332,-0.5h-0.666668l-0.333332,0.5h-0.666668l-0.333332,-0.5h-0.666668l-0.333332,0.5h-0.666668l-0.333332,-0.5h-0.666668l-0.333332,0.5h-0.666668l-0.333333,-0.5h-0.666666l-0.333334,0.5h-0.666666l-0.333334,-0.5h-0.666666l-0.333334,0.5h-0.666666l-0.333334,-0.5h-0.666666l-0.333334,0.5h-0.666666l-0.333334,-0.5h-0.666666l-0.333334,0.5h-0.666666l-0.333334,-0.5h-0.666667l-0.333333,0.5h-0.666667l-0.333333,-0.5h-0.666667l-0.333333,0.5h-0.666667l-0.333333,-0.5h-0.666667l-0.333334,0.5h-0.666667l-0.333334,-0.5h-0.666667l-0.333333,0.5h-0.666667l-0.333333,-0.5h-0.666667l-0.333333,0.5h-0.666667l-0.333334,-0.5l0.333334,-0.5l-0.333334,-0.5l0.333334,-0.5l-0.333334,-0.5l0.333334,-0.5l-0.333334,-0.5l0.333334,-0.5l-0.333334,-0.5l0.333334,-0.5l-0.333334,-0.5l0.333334,-0.5l-0.333334,-0.5l0.333334,-0.5l-0.333334,-0.5l0.333334,-0.5l-0.333334,-0.5l0.333334,-0.5l-0.333334,-0.5l0.333334,-0.5l-0.333334,-0.5l0.333334,-0.5l-0.333334,-0.5l0.333334,-0.5l-0.333334,-0.5l0.333334,-0.5l-0.333334,-0.5l0.333334,-0.5l-0.333334,-0.5l0.333334,-0.5l-0.333334,-0.5l0.333334,-0.5l-0.333334,-0.5l0.333334,-0.5l-0.333334,-0.5l0.333334,-0.5l-0.333334,-0.5l0.333334,-0.5l-0.333334,-0.5l0.333334,-0.5l-0.333334,-0.5l0.333334,-0.5l-0.333334,-0.5l0.333334,-0.5l-0.333334,-0.5l0.333334,-0.5l-0.333334,-0.5l0.333334,-0.5l-0.333334,-0.5l0.333334,-0.5l-0.333334,-0.5l0.333334,-0.5l-0.333334,-0.5l0.333334,-0.5l-0.333334,-0.5l0.333334,-0.5l-0.333334,-0.5l0.333334,-0.5l-0.333334,-0.5l0.333334,-0.5l-0.333334,-0.5l0.333334,-0.5l-0.333334,-0.5l0.333334,-0.5l-0.333334,-0.5l0.333334,-0.5l-0.333334,-0.5l0.333334,-0.5l-0.333334,-0.5l0.333334,-0.5l-0.333334,-0.5l0.333334,-0.5l-0.333334,-0.5l0.333334,-0.5l-0.333334,-0.5l0.333334,-0.5l-0.333334,-0.5l0.333334,-0.5l-0.333334,-0.5l0.333334,-0.5l-0.333334,-0.5Z"/></clipPath><clipPath id="did3"><rect x="6.75" y="29.9" width="8.5" height="10.7"/></clipPath><clipPath id="did4"><rect x="6.75" y="29.9" width="8.5" height="10.7"/></clipPath></defs><g fill="None" stroke="None" transform="matrix(1,0,0,1,0,0) matrix(55.4256,0,0,64,-374.123,-1913.6)"><g clip-path="url(#did1)"><rect x="5.9" y="28.83" width="10.2" height="12.84" stroke="none" fill="White"/><path d="M4.83333,28.5v0l0.333333,0.5h0.666667l0.333333,-0.5" stroke="#808080" stroke-width="0.015625" fill="none"/><path d="M4.83333,29.5v0l0.333333,0.5h0.666667l0.333333,-0.5" stroke="#808080" stroke-width="0.015625" fill="none"/><path d="M4.83333,30.5v0l0.333333,0.5h0.666667l0.333333,-0.5" stroke="#808080" stroke-width="0.015625" fill="none"/><path d="M4.83333,31.5v0l0.333333,0.5h0.666667l0.333333,-0.5" stroke="#808080" stroke-width="0.015625" fill="none"/><path d="M4.83333,32.5v0l0.333333,0.5h0.666667l0.333333,-0.5" stroke="#808080" stroke-width="0.015625" fill="none"/><path d="M4.83333,33.5v0l0.333333,0.5h0.666667l0.333333,-0.5" stroke="#808080" stroke-width="0.015625" fill="none"/><path d="M4.83333,34.5v0l0.333333,0.5h0.666667l0.333333,-0.5" stroke="#808080" stroke-width="0.015625" fill="none"/><path d="M4.83333,35.5v0l0.333333,0.5h0.666667l0.333333,-0.5" stroke="#808080" stroke-width="0.015625" fill="none"/><path d="M4.83333,36.5v0l0.333333,0.5h0.666667l0.333333,-0.5" stroke="#808080" stroke-width="0.015625" fill="none"/><path d="M4.83333,37.5v0l0.333333,0.5h0.666667l0.333333,-0.5" stroke="#808080" stroke-width="0.015625" fill="none"/><path d="M4.83333,38.5v0l0.333333,0.5h0.666667l0.333333,-0.5" stroke="#808080" stroke-width="0.015625" fill="none"/><path d="M4.83333,39.5v0l0.333333,0.5h0.666667l0.333333,-0.5" stroke="#808080" stroke-width="0.015625" fill="none"/><path d="M4.83333,40.5v0l0.333333,0.5h0.666667l0.333333,-0.5" stroke="#808080" stroke-width="0.015625" fill="none"/><path d="M5.83333,29v0l0.333333,0.5h0.666667l0.333333,-0.5" stroke="#808080" stroke-width="0.015625" fill="none"/><path d="M5.83333,30v0l0.333333,0.5h0.666667l0.333333,-0.5" stroke="#808080" stroke-width="0.015625" fill="none"/><path d="M5.83333,31v0l0.333333,0.5h0.666667l0.333333,-0.5" stroke="#808080" stroke-width="0.015625" fill="none"/><path d="M5.83333,32v0l0.333333,0.5h0.666667l0.333333,-0.5" stroke="#808080" stroke-width="0.015625" fill="none"/><path d="M5.83333,33v0l0.333333,0.5h0.666667l0.333333,-0.5" stroke="#808080" stroke-width="0.015625" fill="none"/><path d="M5.83333,34v0l0.333333,0.5h0.666667l0.333333,-0.5" stroke="#808080" stroke-width="0.015625" fill="none"/><path d="M5.83333,35v0l0.333333,0.5h0.666667l0.333333,-0.5" stroke="#808080" stroke-width="0.015625" fill="none"/><path d="M5.83333,36v0l0.333333,0.5h0.666667l0.333333,-0.5" stroke="#808080" stroke-width="0.015625" fill="none"/><path d="M5.83333,37v0l0.333333,0.5h0.666667l0.333333,-0.5" stroke="#808080" stroke-width="0.015625" fill="none"/><path d="M5.83333,38v0l0.333333,0.5h0.666667l0.333333,-0.5" stroke="#808080" stroke-width="0.015625" fill="none"/><path d="M5.83333,39v0l0.333333,0.5h0.666667l0.333333,-0.5" stroke="#808080" stroke-width="0.015625" fill="none"/><path d="M5.83333,40v0l0.333333,0.5h0.666667l0.333333,-0.5" stroke="#808080" stroke-width="0.015625" fill="none"/><path d="M5.83333,41v0l0.333333,0.5h0.666667l0.333333,-0.5" stroke="#808080" stroke-width="0.015625" fill="none"/><path d="M6.83333,28.5v0l0.333333,0.5h0.666667l0.333334,-0.5" stroke="#808080" stroke-width="0.015625" fill="none"/><path d="M6.83333,29.5v0l0.333333,0.5h0.666667l0.333334,-0.5" stroke="#808080" stroke-width="0.015625" fill="none"/><path d="M6.83333,30.5v0l0.333333,0.5h0.666667l0.333334,-0.5" stroke="#808080" stroke-width="0.015625" fill="none"/><path d="M6.83333,31.5v0l0.333333,0.5h0.666667l0.333334,-0.5" stroke="#808080" stroke-width="0.015625" fill="none"/><path d="M6.83333,32.5v0l0.333333,0.5h0.666667l0.333334,-0.5" stroke="#808080" stroke-width="0.015625" fill="none"/><path d="M6.83333,33.5v0l0.333333,0.5h0.666667l0.333334,-0.5" stroke="#808080" stroke-width="0.015625" fill="none"/><path d="M6.83333,34.5v0l0.333333,0.5h0.666667l0.333334,-0.5" stroke="#808080" stroke-width="0.015625" fill="none"/><path d="M6.83333,35.5v0l0.333333,0.5h0.666667l0.333334,-0.5" stroke="#808080" stroke-width="0.015625" fill="none"/><path d="M6.83333,36.5v0l0.333333,0.5h0.666667l0.333334,-0.5" stroke="#808080" stroke-width="0.015625" fill="none"/><path d="M6.83333,37.5v0l0.333333,0.5h0.666667l0.333334,-0.5" stroke="#808080" stroke-width="0.015625" fill="none"/><path d="M6.83333,38.5v0l0.333333,0.5h0.666667l0.333334,-0.5" stroke="#808080" stroke-width="0.015625" fill="none"/><path d="M6.83333,39.5v0l0.333333,0.5h0.666667l0.333334,-0.5" stroke="#808080" stroke-width="0.015625" fill="none"/><path d="M6.83333,40.5v0l0.333333,0.5h0.666667l0.333334,-0.5" stroke="#808080" stroke-width="0.015625" fill="none"/><path d="M7.83333,29v0l0.333334,0.5h0.666666l0.333334,-0.5" stroke="#808080" stroke-width="0.015625" fill="none"/><path d="M7.83333,30v0l0.333334,0.5h0.666666l0.333334,-0.5" stroke="#808080" stroke-width="0.015625" fill="none"/><path d="M7.83333,31v0l0.333334,0.5h0.666666l0.333334,-0.5" stroke="#808080" stroke-width="0.015625" fill="none"/><path d="M7.83333,32v0l0.333334,0.5h0.666666l0.333334,-0.5" stroke="#808080" stroke-width="0.015625" fill="none"/><path d="M7.83333,33v0l0.333334,0.5h0.666666l0.333334,-0.5" stroke="#808080" stroke-width="0.015625" fill="none"/><path d="M7.83333,34v0l0.333334,0.5h0.666666l0.333334,-0.5" stroke="#808080" stroke-width="0.015625" fill="none"/><path d="M7.83333,35v0l0.333334,0.5h0.666666l0.333334,-0.5" stroke="#808080" stroke-width="0.015625" fill="none"/><path d="M7.83333,36v0l0.333334,0.5h0.666666l0.333334,-0.5" stroke="#808080" stroke-width="0.015625" fill="none"/><path d="M7.83333,37v0l0.333334,0.5h0.666666l0.333334,-0.5" stroke="#808080" stroke-width="0.015625" fill="none"/><path d="M7.83333,38v0l0.333334,0.5h0.666666l0.333334,-0.5" stroke="#808080" stroke-width="0.015625" fill="none"/><path d="M7.83333,39v0l0.333334,0.5h0.666666l0.333334,-0.5" stroke="#808080" stroke-width="0.015625" fill="none"/><path d="M7.83333,40v0l0.333334,0.5h0.666666l0.333334,-0.5" stroke="#808080" stroke-width="0.015625" fill="none"/><path d="M7.83333,41v0l0.333334,0.5h0.666666l0.333334,-0.5" stroke="#808080" stroke-width="0.015625" fill="none"/><path d="M8.83333,28.5v0l0.333334,0.5h0.666666l0.333334,-0.5" stroke="#808080" stroke-width="0.015625" fill="none"/><path d="M8.83333,29.5v0l0.333334,0.5h0.666666l0.333334,-0.5" stroke="#808080" stroke-width="0.015625" fill="none"/><path d="M8.83333,30.5v0l0.333334,0.5h0.666666l0.333334,-0.5" stroke="#808080" stroke-width="0.015625" fill="none"/><path d="M8.83333,31.5v0l0.333334,0.5h0.666666l0.333334,-0.5" stroke="#808080" stroke-width="0.015625" fill="none"/><path d="M8.83333,32.5v0l0.333334,0.5h0.666666l0.333334,-0.5" stroke="#808080" stroke-width="0.015625" fill="none"/><path d="M8.83333,33.5v0l0.333334,0.5h0.666666l0.333334,-0.5" stroke="#808080" stroke-width="0.015625" fill="none"/><path d="M8.83333,34.5v0l0.333334,0.5h0.666666l0.333334,-0.5" stroke="#808080" stroke-width="0.015625" fill="none"/><path d="M8.83333,35.5v0l0.333334,0.5h0.666666l0.333334,-0.5" stroke="#808080" stroke-width="0.015625" fill="none"/><path d="M8.83333,36.5v0l0.333334,0.5h0.666666l0.333334,-0.5" stroke="#808080" stroke-width="0.015625" fill="none"/><path d="M8.83333,37.5v0l0.333334,0.5h0.666666l0.333334,-0.5" stroke="#808080" stroke-width="0.015625" fill="none"/><path d="M8.83333,38.5v0l0.333334,0.5h0.666666l0.333334,-0.5" stroke="#808080" stroke-width="0.015625" fill="none"/><path d="M8.83333,39.5v0l0.333334,0.5h0.666666l0.333334,-0.5" stroke="#808080" stroke-width="0.015625" fill="none"/><path d="M8.83333,40.5v0l0.333334,0.5h0.666666l0.333334,-0.5" stroke="#808080" stroke-width="0.015625" fill="none"/><path d="M9.83333,29v0l0.333334,0.5h0.666666l0.333334,-0.5" stroke="#808080" stroke-width="0.015625" fill="none"/><path d="M9.83333,30v0l0.333334,0.5h0.666666l0.333334,-0.5" stroke="#808080" stroke-width="0.015625" fill="none"/><path d="M9.83333,31v0l0.333334,0.5h0.666666l0.333334,-0.5" stroke="#808080" stroke-width="0.015625" fill="none"/><path d="M9.83333,32v0l0.333334,0.5h0.666666l0.333334,-0.5" stroke="#808080" stroke-width="0.015625" fill="none"/><path d="M9.83333,33v0l0.333334,0.5h0.666666l0.333334,-0.5" stroke="#808080" stroke-width="0.015625" fill="none"/><path d="M9.83333,34v0l0.333334,0.5h0.666666l0.333334,-0.5" stroke="#808080" stroke-width="0.015625" fill="none"/><path d="M9.83333,35v0l0.333334,0.5h0.666666l0.333334,-0.5" stroke="#808080" stroke-width="0.015625" fill="none"/><path d="M9.83333,36v0l0.333334,0.5h0.666666l0.333334,-0.5" stroke="#808080" stroke-width="0.015625" fill="none"/><path d="M9.83333,37v0l0.333334,0.5h0.666666l0.333334,-0.5" stroke="#808080" stroke-width="0.015625" fill="none"/><path d="M9.83333,38v0l0.333334,0.5h0.666666l0.333334,-0.5" stroke="#808080" stroke-width="0.015625" fill="none"/><path d="M9.83333,39v0l0.333334,0.5h0.666666l0.333334,-0.5" stroke="#808080" stroke-width="0.015625" fill="none"/><path d="M9.83333,40v0l0.333334,0.5h0.666666l0.333334,-0.5" stroke="#808080" stroke-width="0.015625" fill="none"/><path d="M9.83333,41v0l0.333334,0.5h0.666666l0.333334,-0.5" stroke="#808080" stroke-width="0.015625" fill="none"/><path d="M10.8333,28.5v0l0.333334,0.5h0.666666l0.333334,-0.5" stroke="#808080" stroke-width="0.015625" fill="none"/><path d="M10.8333,29.5v0l0.333334,0.5h0.666666l0.333334,-0.5" stroke="#808080" stroke-width="0.015625" fill="none"/><path d="M10.8333,30.5v0l0.333334,0.5h0.666666l0.333334,-0.5" stroke="#808080" stroke-width="0.015625" fill="none"/><path d="M10.8333,31.5v0l0.333334,0.5h0.666666l0.333334,-0.5" stroke="#808080" stroke-width="0.015625" fill="none"/><path d="M10.8333,32.5v0l0.333334,0.5h0.666666l0.333334,-0.5" stroke="#808080" stroke-width="0.015625" fill="none"/><path d="M10.8333,33.5v0l0.333334,0.5h0.666666l0.333334,-0.5" stroke="#808080" stroke-width="0.015625" fill="none"/><path d="M10.8333,34.5v0l0.333334,0.5h0.666666l0.333334,-0.5" stroke="#808080" stroke-width="0.015625" fill="none"/><path d="M10.8333,35.5v0l0.333334,0.5h0.666666l0.333334,-0.5" stroke="#808080" stroke-width="0.015625" fill="none"/><path d="M10.8333,36.5v0l0.333334,0.5h0.666666l0.333334,-0.5" stroke="#808080" stroke-width="0.015625" fill="none"/><path d="M10.8333,37.5v0l0.333334,0.5h0.666666l0.333334,-0.5" stroke="#808080" stroke-width="0.015625" fill="none"/><path d="M10.8333,38.5v0l0.333334,0.5h0.666666l0.333334,-0.5" stroke="#808080" stroke-width="0.015625" fill="none"/><path d="M10.8333,39.5v0l0.333334,0.5h0.666666l0.333334,-0.5" stroke="#808080" stroke-width="0.015625" fill="none"/><path d="M10.8333,40.5v0l0.333334,0.5h0.666666l0.333334,-0.5" stroke="#808080" stroke-width="0.015625" fill="none"/><path d="M11.8333,29v0l0.333334,0.5h0.666666l0.333334,-0.5" stroke="#808080" stroke-width="0.015625" fill="none"/><path d="M11.8333,30v0l0.333334,0.5h0.666666l0.333334,-0.5" stroke="#808080" stroke-width="0.015625" fill="none"/><path d="M11.8333,31v0l0.333334,0.5h0.666666l0.333334,-0.5" stroke="#808080" stroke-width="0.015625" fill="none"/><path d="M11.8333,32v0l0.333334,0.5h0.666666l0.333334,-0.5" stroke="#808080" stroke-width="0.015625" fill="none"/><path d="M11.8333,33v0l0.333334,0.5h0.666666l0.333334,-0.5" stroke="#808080" stroke-width="0.015625" fill="none"/><path d="M11.8333,34v0l0.333334,0.5h0.666666l0.333334,-0.5" stroke="#808080" stroke-width="0.015625" fill="none"/><path d="M11.8333,35v0l0.333334,0.5h0.666666l0.333334,-0.5" stroke="#808080" stroke-width="0.015625" fill="none"/><path d="M11.8333,36v0l0.333334,0.5h0.666666l0.333334,-0.5" stroke="#808080" stroke-width="0.015625" fill="none"/><path d="M11.8333,37v0l0.333334,0.5h0.666666l0.333334,-0.5" stroke="#808080" stroke-width="0.015625" fill="none"/><path d="M11.8333,38v0l0.333334,0.5h0.666666l0.333334,-0.5" stroke="#808080" stroke-width="0.015625" fill="none"/><path d="M11.8333,39v0l0.333334,0.5h0.666666l0.333334,-0.5" stroke="#808080" stroke-width="0.015625" fill="none"/><path d="M11.8333,40v0l0.333334,0.5h0.666666l0.333334,-0.5" stroke="#808080" stroke-width="0.015625" fill="none"/><path d="M11.8333,41v0l0.333334,0.5h0.666666l0.333334,-0.5" stroke="#808080" stroke-width="0.015625" fill="none"/><path d="M12.8333,28.5v0l0.333334,0.5h0.666666l0.333334,-0.5" stroke="#808080" stroke-width="0.015625" fill="none"/><path d="M12.8333,29.5v0l0.333334,0.5h0.666666l0.333334,-0.5" stroke="#808080" stroke-width="0.015625" fill="none"/><path d="M12.8333,30.5v0l0.333334,0.5h0.666666l0.333334,-0.5" stroke="#808080" stroke-width="0.015625" fill="none"/><path d="M12.8333,31.5v0l0.333334,0.5h0.666666l0.333334,-0.5" stroke="#808080" stroke-width="0.015625" fill="none"/><path d="M12.8333,32.5v0l0.333334,0.5h0.666666l0.333334,-0.5" stroke="#808080" stroke-width="0.015625" fill="none"/><path d="M12.8333,33.5v0l0.333334,0.5h0.666666l0.333334,-0.5" stroke="#808080" stroke-width="0.015625" fill="none"/><path d="M12.8333,34.5v0l0.333334,0.5h0.666666l0.333334,-0.5" stroke="#808080" stroke-width="0.015625" fill="none"/><path d="M12.8333,35.5v0l0.333334,0.5h0.666666l0.333334,-0.5" stroke="#808080" stroke-width="0.015625" fill="none"/><path d="M12.8333,36.5v0l0.333334,0.5h0.666666l0.333334,-0.5" stroke="#808080" stroke-width="0.015625" fill="none"/><path d="M12.8333,37.5v0l0.333334,0.5h0.666666l0.333334,-0.5" stroke="#808080" stroke-width="0.015625" fill="none"/><path d="M12.8333,38.5v0l0.333334,0.5h0.666666l0.333334,-0.5" stroke="#808080" stroke-width="0.015625" fill="none"/><path d="M12.8333,39.5v0l0.333334,0.5h0.666666l0.333334,-0.5" stroke="#808080" stroke-width="0.015625" fill="none"/><path d="M12.8333,40.5v0l0.333334,0.5h0.666666l0.333334,-0.5" stroke="#808080" stroke-width="0.015625" fill="none"/><path d="M13.8333,29v0l0.333334,0.5h0.666666l0.333334,-0.5" stroke="#808080" stroke-width="0.015625" fill="none"/><path d="M13.8333,30v0l0.333334,0.5h0.666666l0.333334,-0.5" stroke="#808080" stroke-width="0.015625" fill="none"/><path d="M13.8333,31v0l0.333334,0.5h0.666666l0.333334,-0.5" stroke="#808080" stroke-width="0.015625" fill="none"/><path d="M13.8333,32v0l0.333334,0.5h0.666666l0.333334,-0.5" stroke="#808080" stroke-width="0.015625" fill="none"/><path d="M13.8333,33v0l0.333334,0.5h0.666666l0.333334,-0.5" stroke="#808080" stroke-width="0.015625" fill="none"/><path d="M13.8333,34v0l0.333334,0.5h0.666666l0.333334,-0.5" stroke="#808080" stroke-width="0.015625" fill="none"/><path d="M13.8333,35v0l0.333334,0.5h0.666666l0.333334,-0.5" stroke="#808080" stroke-width="0.015625" fill="none"/><path d="M13.8333,36v0l0.333334,0.5h0.666666l0.333334,-0.5" stroke="#808080" stroke-width="0.015625" fill="none"/><path d="M13.8333,37v0l0.333334,0.5h0.666666l0.333334,-0.5" stroke="#808080" stroke-width="0.015625" fill="none"/><path d="M13.8333,38v0l0.333334,0.5h0.666666l0.333334,-0.5" stroke="#808080" stroke-width="0.015625" fill="none"/><path d="M13.8333,39v0l0.333334,0.5h0.666666l0.333334,-0.5" stroke="#808080" stroke-width="0.015625" fill="none"/><path d="M13.8333,40v0l0.333334,0.5h0.666666l0.333334,-0.5" stroke="#808080" stroke-width="0.015625" fill="none"/><path d="M13.8333,41v0l0.333334,0.5h0.666666l0.333334,-0.5" stroke="#808080" stroke-width="0.015625" fill="none"/><path d="M14.8333,28.5v0l0.333334,0.5h0.666666l0.333333,-0.5" stroke="#808080" stroke-width="0.015625" fill="none"/><path d="M14.8333,29.5v0l0.333334,0.5h0.666666l0.333333,-0.5" stroke="#808080" stroke-width="0.015625" fill="none"/><path d="M14.8333,30.5v0l0.333334,0.5h0.666666l0.333333,-0.5" stroke="#808080" stroke-width="0.015625" fill="none"/><path d="M14.8333,31.5v0l0.333334,0.5h0.666666l0.333333,-0.5" stroke="#808080" stroke-width="0.015625" fill="none"/><path d="M14.8333,32.5v0l0.333334,0.5h0.666666l0.333333,-0.5" stroke="#808080" stroke-width="0.015625" fill="none"/><path d="M14.8333,33.5v0l0.333334,0.5h0.666666l0.333333,-0.5" stroke="#808080" stroke-width="0.015625" fill="none"/><path d="M14.8333,34.5v0l0.333334,0.5h0.666666l0.333333,-0.5" stroke="#808080" stroke-width="0.015625" fill="none"/><path d="M14.8333,35.5v0l0.333334,0.5h0.666666l0.333333,-0.5" stroke="#808080" stroke-width="0.015625" fill="none"/><path d="M14.8333,36.5v0l0.333334,0.5h0.666666l0.333333,-0.5" stroke="#808080" stroke-width="0.015625" fill="none"/><path d="M14.8333,37.5v0l0.333334,0.5h0.666666l0.333333,-0.5" stroke="#808080" stroke-width="0.015625" fill="none"/><path d="M14.8333,38.5v0l0.333334,0.5h0.666666l0.333333,-0.5" stroke="#808080" stroke-width="0.015625" fill="none"/><path d="M14.8333,39.5v0l0.333334,0.5h0.666666l0.333333,-0.5" stroke="#808080" stroke-width="0.015625" fill="none"/><path d="M14.8333,40.5v0l0.333334,0.5h0.666666l0.333333,-0.5" stroke="#808080" stroke-width="0.015625" fill="none"/><path clip-path="url(#did2)" d="M-1.83333,0.5l-0.333334,-0.5l0.333334,-0.5h0.666667l0.333333,-0.5h0.666667l0.333333,0.5h0.666667l0.333333,-0.5h0.666667l0.333334,0.5h0.666667l0.333334,-0.5h0.666667l0.333333,0.5h0.666667l0.333333,-0.5h0.666667l0.333333,0.5h0.666667l0.333333,-0.5h0.666667l0.333334,0.5h0.666666l0.333334,-0.5h0.666666l0.333334,0.5h0.666666l0.333334,-0.5h0.666666l0.333334,0.5h0.666666l0.333334,-0.5h0.666666l0.333334,0.5h0.666666l0.333334,-0.5h0.666666l0.333333,0.5h0.666668l0.333332,-0.5h0.666668l0.333332,0.5h0.666668l0.333332,-0.5h0.666668l0.333332,0.5h0.666668l0.333332,-0.5h0.666668l0.333332,0.5h0.666668l0.333332,-0.5h0.666668l0.333332,0.5h0.666668l0.333332,-0.5h0.666668l0.333332,0.5h0.666668l0.333332,-0.5h0.666668l0.333332,0.5h0.666668l0.333332,-0.5h0.666668l0.333332,0.5h0.666668l0.333332,-0.5h0.666668l0.333334,0.5l-0.333334,0.5l0.333334,0.5l-0.333334,0.5l0.333334,0.5l-0.333334,0.5l0.333334,0.5l-0.333334,0.5l0.333334,0.5l-0.333334,0.5l0.333334,0.5l-0.333334,0.5l0.333334,0.5l-0.333334,0.5l0.333334,0.5l-0.333334,0.5l0.333334,0.5l-0.333334,0.5l0.333334,0.5l-0.333334,0.5l0.333334,0.5l-0.333334,0.5l0.333334,0.5l-0.333334,0.5l0.333334,0.5l-0.333334,0.5l0.333334,0.5l-0.333334,0.5l0.333334,0.5l-0.333334,0.5l0.333334,0.5l-0.333334,0.5l0.333334,0.5l-0.333334,0.5l0.333334,0.5l-0.333334,0.5l0.333334,0.5l-0.333334,0.5l0.333334,0.5l-0.333334,0.5l0.333334,0.5l-0.333334,0.5l0.333334,0.5l-0.333334,0.5l0.333334,0.5l-0.333334,0.5l0.333334,0.5l-0.333334,0.5l0.333334,0.5l-0.333334,0.5l0.333334,0.5l-0.333334,0.5l0.333334,0.5l-0.333334,0.5l0.333334,0.5l-0.333334,0.5l0.333334,0.5l-0.333334,0.5l0.333334,0.5l-0.333334,0.5l0.333334,0.5l-0.333334,0.5l0.333334,0.5l-0.333334,0.5l0.333334,0.5l-0.333334,0.5l0.333334,0.5l-0.333334,0.5l0.333334,0.5l-0.333334,0.5l0.333334,0.5l-0.333334,0.5l0.333334,0.5l-0.333334,0.5l0.333334,0.5l-0.333334,0.5l0.333334,0.5l-0.333334,0.5l0.333334,0.5l-0.333334,0.5l0.333334,0.5l-0.333334,0.5l0.333334,0.5l-0.333334,0.5h-0.666668l-0.333332,0.5h-0.666668l-0.333332,-0.5h-0.666668l-0.333332,0.5h-0.666668l-0.333332,-0.5h-0.666668l-0.333332,0.5h-0.666668l-0.333332,-0.5h-0.666668l-0.333332,0.5h-0.666668l-0.333332,-0.5h-0.666668l-0.333332,0.5h-0.666668l-0.333332,-0.5h-0.666668l-0.333332,0.5h-0.666668l-0.333332,-0.5h-0.666668l-0.333332,0.5h-0.666668l-0.333332,-0.5h-0.666668l-0.333332,0.5h-0.666668l-0.333333,-0.5h-0.666666l-0.333334,0.5h-0.666666l-0.333334,-0.5h-0.666666l-0.333334,0.5h-0.666666l-0.333334,-0.5h-0.666666l-0.333334,0.5h-0.666666l-0.333334,-0.5h-0.666666l-0.333334,0.5h-0.666666l-0.333334,-0.5h-0.666667l-0.333333,0.5h-0.666667l-0.333333,-0.5h-0.666667l-0.333333,0.5h-0.666667l-0.333333,-0.5h-0.666667l-0.333334,0.5h-0.666667l-0.333334,-0.5h-0.666667l-0.333333,0.5h-0.666667l-0.333333,-0.5h-0.666667l-0.333333,0.5h-0.666667l-0.333334,-0.5l0.333334,-0.5l-0.333334,-0.5l0.333334,-0.5l-0.333334,-0.5l0.333334,-0.5l-0.333334,-0.5l0.333334,-0.5l-0.333334,-0.5l0.333334,-0.5l-0.333334,-0.5l0.333334,-0.5l-0.333334,-0.5l0.333334,-0.5l-0.333334,-0.5l0.333334,-0.5l-0.333334,-0.5l0.333334,-0.5l-0.333334,-0.5l0.333334,-0.5l-0.333334,-0.5l0.333334,-0.5l-0.333334,-0.5l0.333334,-0.5l-0.333334,-0.5l0.333334,-0.5l-0.333334,-0.5l0.333334,-0.5l-0.333334,-0.5l0.333334,-0.5l-0.333334,-0.5l0.333334,-0.5l-0.333334,-0.5l0.333334,-0.5l-0.333334,-0.5l0.333334,-0.5l-0.333334,-0.5l0.333334,-0.5l-0.333334,-0.5l0.333334,-0.5l-0.333334,-0.5l0.333334,-0.5l-0.333334,-0.5l0.333334,-0.5l-0.333334,-0.5l0.333334,-0.5l-0.333334,-0.5l0.333334,-0.5l-0.333334,-0.5l0.333334,-0.5l-0.333334,-0.5l0.333334,-0.5l-0.333334,-0.5l0.333334,-0.5l-0.333334,-0.5l0.333334,-0.5l-0.333334,-0.5l0.333334,-0.5l-0.333334,-0.5l0.333334,-0.5l-0.333334,-0.5l0.333334,-0.5l-0.333334,-0.5l0.333334,-0.5l-0.333334,-0.5l0.333334,-0.5l-0.333334,-0.5l0.333334,-0.5l-0.333334,-0.5l0.333334,-0.5l-0.333334,-0.5l0.333334,-0.5l-0.333334,-0.5l0.333334,-0.5l-0.333334,-0.5l0.333334,-0.5l-0.333334,-0.5l0.333334,-0.5l-0.333334,-0.5l0.333334,-0.5l-0.333334,-0.5Z" stroke="#E32736" stroke-width="0.16" fill="none"/><line x1="5.78868" y1="32.5" x2="7.21133" y2="32.5" stroke="#048104" stroke-width="0.08"/><line x1="5.78868" y1="32.5" x2="7.21133" y2="32.5" stroke="#048104" stroke-width="0.08"/><line x1="7.78868" y1="32.5" x2="9.21133" y2="32.5" stroke="#048104" stroke-width="0.08"/><line x1="9.78868" y1="32.5" x2="13.2113" y2="32.5" stroke="#048104" stroke-width="0.08"/><line x1="5.64434" y1="35.2835" x2="7.35566" y2="32.7165" stroke="#048104" stroke-width="0.08"/><line x1="6.64434" y1="33.7835" x2="7.35566" y2="32.7165" stroke="#048104" stroke-width="0.08"/><line x1="6.75" y1="39.125" x2="8.25" y2="39.875" stroke="#048104" stroke-width="0.08"/><line x1="8.78347" y1="39.9528" x2="11.2165" y2="39.5473" stroke="#048104" stroke-width="0.08"/><line x1="9.70801" y1="32.3267" x2="12.292" y2="30.1733" stroke="#048104" stroke-width="0.08"/><line x1="11.7887" y1="39.5" x2="13.2113" y2="39.5" stroke="#048104" stroke-width="0.08"/><line x1="12.5945" y1="30.2362" x2="13.4055" y2="32.2638" stroke="#048104" stroke-width="0.08"/><line x1="12.7774" y1="35.9307" x2="16.2227" y2="35.0693" stroke="#048104" stroke-width="0.08"/><line x1="13.708" y1="32.6733" x2="16.292" y2="34.8267" stroke="#048104" stroke-width="0.08"/><line x1="13.75" y1="39.625" x2="15.25" y2="40.375" stroke="#048104" stroke-width="0.08"/></g><g clip-path="url(#did3)"><g transform="translate(7.5,30.5) scale(1.1547 1)"><circle r="0.4" cx="0" cy="0" stroke="#FFCC00" stroke-width="0.05" fill="none"/><text font-family="Arial" font-size="0.14" text-anchor="middle" x="0" y="-0.381" fill="DarkGray">0931</text></g><text transform="translate(7.5,31.5) scale(1.1547 1)" font-family="Arial" font-size="0.14" text-anchor="middle" x="0" y="-0.381" fill="DarkGray">0932</text><text transform="translate(7.5,32.5) scale(1.1547 1)" font-family="Arial" font-size="0.14" text-anchor="middle" x="0" y="-0.381" fill="DarkGray">0933</text><g transform="translate(7.5,33.5) scale(1.1547 1)"><circle r="0.4" cx="0" cy="0" stroke="#FFCC00" stroke-width="0.05" fill="none"/><text font-family="Arial" font-size="0.14" text-anchor="middle" x="0" y="-0.381" fill="DarkGray">0934</text></g><text transform="translate(7.5,36.5) scale(1.1547 1)" font-family="Arial" font-size="0.14" text-anchor="middle" x="0" y="-0.381" fill="DarkGray">0937</text><text transform="translate(7.5,37.5) scale(1.1547 1)" font-family="Arial" font-size="0.14" text-anchor="middle" x="0" y="-0.381" fill="DarkGray">0938</text><g transform="translate(7.5,38.5) scale(1.1547 1)"><circle r="0.4" cx="0" cy="0" stroke="#FFCC00" stroke-width="0.05" fill="none"/><text font-family="Arial" font-size="0.14" text-anchor="middle" x="0" y="-0.381" fill="DarkGray">0939</text></g><g transform="translate(8.5,32) scale(1.1547 1)"><circle r="0.4" cx="0" cy="0" stroke="#FFCC00" stroke-width="0.05" fill="none"/><text font-family="Arial" font-size="0.14" text-anchor="middle" x="0" y="-0.381" fill="DarkGray">1032</text></g><text transform="translate(8.5,38) scale(1.1547 1)" font-family="Arial" font-size="0.14" text-anchor="middle" x="0" y="-0.381" fill="DarkGray">1038</text><text transform="translate(8.5,40) scale(1.1547 1)" font-family="Arial" font-size="0.14" text-anchor="middle" x="0" y="-0.381" fill="DarkGray">1040</text><text transform="translate(9.5,30.5) scale(1.1547 1)" font-family="Arial" font-size="0.14" text-anchor="middle" x="0" y="-0.381" fill="DarkGray">1131</text><text transform="translate(9.5,32.5) scale(1.1547 1)" font-family="Arial" font-size="0.14" text-anchor="middle" x="0" y="-0.381" fill="DarkGray">1133</text><g transform="translate(9.5,33.5) scale(1.1547 1)"><circle r="0.4" cx="0" cy="0" stroke="#FFCC00" stroke-width="0.05" fill="none"/><text font-family="Arial" font-size="0.14" text-anchor="middle" x="0" y="-0.381" fill="DarkGray">1134</text></g><g transform="translate(10.5,33) scale(1.1547 1)"><circle r="0.4" cx="0" cy="0" stroke="#FFCC00" stroke-width="0.05" fill="none"/><text font-family="Arial" font-size="0.14" text-anchor="middle" x="0" y="-0.381" fill="DarkGray">1233</text></g><text transform="translate(10.5,34) scale(1.1547 1)" font-family="Arial" font-size="0.14" text-anchor="middle" x="0" y="-0.381" fill="DarkGray">1234</text><text transform="translate(10.5,35) scale(1.1547 1)" font-family="Arial" font-size="0.14" text-anchor="middle" x="0" y="-0.381" fill="DarkGray">1235</text><text transform="translate(10.5,38) scale(1.1547 1)" font-family="Arial" font-size="0.14" text-anchor="middle" x="0" y="-0.381" fill="DarkGray">1238</text><text transform="translate(10.5,39) scale(1.1547 1)" font-family="Arial" font-size="0.14" text-anchor="middle" x="0" y="-0.381" fill="DarkGray">1239</text><text transform="translate(11.5,34.5) scale(1.1547 1)" font-family="Arial" font-size="0.14" text-anchor="middle" x="0" y="-0.381" fill="DarkGray">1335</text><text transform="translate(11.5,39.5) scale(1.1547 1)" font-family="Arial" font-size="0.14" text-anchor="middle" x="0" y="-0.381" fill="DarkGray">1340</text><text transform="translate(12.5,32) scale(1.1547 1)" font-family="Arial" font-size="0.14" text-anchor="middle" x="0" y="-0.381" fill="DarkGray">1432</text><text transform="translate(12.5,34) scale(1.1547 1)" font-family="Arial" font-size="0.14" text-anchor="middle" x="0" y="-0.381" fill="DarkGray">1434</text><text transform="translate(12.5,36) scale(1.1547 1)" font-family="Arial" font-size="0.14" text-anchor="middle" x="0" y="-0.381" fill="DarkGray">1436</text><text transform="translate(13.5,31.5) scale(1.1547 1)" font-family="Arial" font-size="0.14" text-anchor="middle" x="0" y="-0.381" fill="DarkGray">1532</text><g transform="translate(13.5,32.5) scale(1.1547 1)"><circle r="0.4" cx="0" cy="0" stroke="#FFCC00" stroke-width="0.05" fill="none"/><text font-family="Arial" font-size="0.14" text-anchor="middle" x="0" y="-0.381" fill="DarkGray">1533</text></g><text transform="translate(13.5,33.5) scale(1.1547 1)" font-family="Arial" font-size="0.14" text-anchor="middle" x="0" y="-0.381" fill="DarkGray">1534</text><text transform="translate(13.5,34.5) scale(1.1547 1)" font-family="Arial" font-size="0.14" text-anchor="middle" x="0" y="-0.381" fill="DarkGray">1535</text><g transform="translate(13.5,37.5) scale(1.1547 1)"><circle r="0.4" cx="0" cy="0" stroke="#FFCC00" stroke-width="0.05" fill="none"/><text font-family="Arial" font-size="0.14" text-anchor="middle" x="0" y="-0.381" fill="DarkGray">1538</text></g><g transform="translate(13.5,39.5) scale(1.1547 1)"><circle r="0.4" cx="0" cy="0" stroke="#FFCC00" stroke-width="0.05" fill="none"/><text font-family="Arial" font-size="0.14" text-anchor="middle" x="0" y="-0.381" fill="DarkGray">1540</text></g><text transform="translate(14.5,34) scale(1.1547 1)" font-family="Arial" font-size="0.14" text-anchor="middle" x="0" y="-0.381" fill="DarkGray">1634</text><text transform="translate(14.5,39) scale(1.1547 1)" font-family="Arial" font-size="0.14" text-anchor="middle" x="0" y="-0.381" fill="DarkGray">1639</text></g><g transform="translate(7.5,30.5) scale(1.1547 1)"><circle transform="translate(0.25,-0.18)" r="0.05" cx="0" cy="0" stroke="none" fill="Black"/><rect x="-0.113084" y="-0.35543" width="0.226167" height="0.260859" stroke="none" fill="White"/><text font-family="Arial" font-size="0.21" font-weight="bold" text-anchor="middle" x="0" y="-0.13575" fill="Black">C</text><circle r="0.1" cx="0" cy="0" stroke="none" fill="DeepSkyBlue"/><rect x="-0.395476" y="0.23957" width="0.790952" height="0.260859" stroke="none" fill="White"/><text font-family="Arial" font-size="0.21" font-weight="bold" text-anchor="middle" x="0" y="0.45925" fill="Black">LLYRN</text></g><g transform="translate(7.5,31.5) scale(1.1547 1)"><circle transform="translate(0.25,-0.18)" r="0.05" cx="0" cy="0" stroke="none" fill="Black"/><rect x="-0.113084" y="-0.35543" width="0.226167" height="0.260859" stroke="none" fill="White"/><text font-family="Arial" font-size="0.21" font-weight="bold" text-anchor="middle" x="0" y="-0.13575" fill="Black">B</text><circle r="0.1" cx="0" cy="0" stroke="none" fill="DeepSkyBlue"/><rect x="-0.449668" y="0.23957" width="0.899336" height="0.260859" stroke="none" fill="White"/><text font-family="Arial" font-size="0.21" font-weight="bold" text-anchor="middle" x="0" y="0.45925" fill="Black">Ar Chaa</text></g><g transform="translate(7.5,32.5) scale(1.1547 1)"><circle transform="translate(0.25,-0.18)" r="0.05" cx="0" cy="0" stroke="none" fill="Black"/><rect x="-0.113084" y="-0.35543" width="0.226167" height="0.260859" stroke="none" fill="White"/><text font-family="Arial" font-size="0.21" font-weight="bold" text-anchor="middle" x="0" y="-0.13575" fill="Black">A</text><text font-family="Arial Unicode MS,Segoe UI Symbol,Arial" font-size="0.21" font-weight="bold" text-anchor="middle" x="-0.25" y="0.26925" fill="Black">▲</text><circle r="0.1" cx="0" cy="0" stroke="none" fill="DeepSkyBlue"/><rect x="-0.311548" y="0.23957" width="0.623096" height="0.260859" stroke="none" fill="White"/><text font-family="Arial" font-size="0.21" font-weight="bold" text-anchor="middle" x="0" y="0.45925" fill="Black">Jacat</text></g><g transform="translate(7.5,33.5) scale(1.1547 1)"><circle transform="translate(0.25,-0.18)" r="0.05" cx="0" cy="0" stroke="none" fill="Black"/><rect x="-0.113084" y="-0.35543" width="0.226167" height="0.260859" stroke="none" fill="White"/><text font-family="Arial" font-size="0.21" font-weight="bold" text-anchor="middle" x="0" y="-0.13575" fill="Black">D</text><circle r="0.1" cx="0" cy="0" stroke="Black" stroke-width="0.015625" fill="White"/><rect x="-0.425674" y="0.23957" width="0.851348" height="0.260859" stroke="none" fill="White"/><text font-family="Arial" font-size="0.21" font-weight="bold" text-anchor="middle" x="0" y="0.45925" fill="Black">Deward</text></g><g transform="translate(7.5,36.5) scale(1.1547 1)"><rect x="-0.113084" y="-0.35543" width="0.226167" height="0.260859" stroke="none" fill="White"/><text font-family="Arial" font-size="0.21" font-weight="bold" text-anchor="middle" x="0" y="-0.13575" fill="Black">B</text><circle r="0.1" cx="0" cy="0" stroke="none" fill="DeepSkyBlue"/><rect x="-0.299346" y="0.23957" width="0.598691" height="0.260859" stroke="none" fill="White"/><text font-family="Arial" font-size="0.21" font-weight="bold" text-anchor="middle" x="0" y="0.45925" fill="Black">Lodd</text></g><g transform="translate(7.5,37.5) scale(1.1547 1)"><circle transform="translate(0.25,-0.18)" r="0.05" cx="0" cy="0" stroke="none" fill="Black"/><rect x="-0.113084" y="-0.35543" width="0.226167" height="0.260859" stroke="none" fill="White"/><text font-family="Arial" font-size="0.21" font-weight="bold" text-anchor="middle" x="0" y="-0.13575" fill="Black">B</text><circle r="0.1" cx="0" cy="0" stroke="Black" stroke-width="0.015625" fill="White"/><rect x="-0.653977" y="0.23957" width="1.30795" height="0.260859" stroke="none" fill="White"/><text font-family="Arial" font-size="0.21" font-weight="bold" text-anchor="middle" x="0" y="0.45925" fill="Black">Baughallum</text></g><g transform="translate(7.5,38.5) scale(1.1547 1)"><rect x="-0.113084" y="-0.35543" width="0.226167" height="0.260859" stroke="none" fill="White"/><text font-family="Arial" font-size="0.21" font-weight="bold" text-anchor="middle" x="0" y="-0.13575" fill="Black">D</text><circle r="0.1" cx="0" cy="0" stroke="Black" stroke-width="0.015625" fill="White"/><rect x="-0.377634" y="0.23957" width="0.755269" height="0.260859" stroke="none" fill="White"/><text font-family="Arial" font-size="0.21" font-weight="bold" text-anchor="middle" x="0" y="0.45925" fill="Black">Timely</text></g><g transform="translate(8.5,32) scale(1.1547 1)"><circle transform="translate(0.25,-0.18)" r="0.05" cx="0" cy="0" stroke="none" fill="Black"/><rect x="-0.113084" y="-0.35543" width="0.226167" height="0.260859" stroke="none" fill="White"/><text font-family="Arial" font-size="0.21" font-weight="bold" text-anchor="middle" x="0" y="-0.13575" fill="Black">B</text><text font-family="Arial Unicode MS,Segoe UI Symbol,Arial" font-size="0.21" font-weight="bold" text-anchor="middle" x="-0.25" y="0.26925" fill="Black">▲</text><circle r="0.1" cx="0" cy="0" stroke="none" fill="DeepSkyBlue"/><rect x="-0.35969" y="0.23957" width="0.71938" height="0.260859" stroke="none" fill="White"/><text font-family="Arial" font-size="0.21" font-weight="bold" text-anchor="middle" x="0" y="0.45925" fill="Black">Vakris</text></g><g transform="translate(8.5,38) scale(1.1547 1)"><circle transform="translate(0.25,-0.18)" r="0.05" cx="0" cy="0" stroke="none" fill="Black"/><rect x="-0.113084" y="-0.35543" width="0.226167" height="0.260859" stroke="none" fill="White"/><text font-family="Arial" font-size="0.21" font-weight="bold" text-anchor="middle" x="0" y="-0.13575" fill="Black">C</text><circle r="0.1" cx="0" cy="0" stroke="Black" stroke-width="0.015625" fill="White"/><rect x="-0.317341" y="0.23957" width="0.634683" height="0.260859" stroke="none" fill="White"/><text font-family="Arial" font-size="0.21" font-weight="bold" text-anchor="middle" x="0" y="0.45925" fill="Black">Melot</text></g><g transform="translate(8.5,40) scale(1.1547 1)"><circle transform="translate(0.25,-0.18)" r="0.05" cx="0" cy="0" stroke="none" fill="Black"/><rect x="-0.113084" y="-0.35543" width="0.226167" height="0.260859" stroke="none" fill="White"/><text font-family="Arial" font-size="0.21" font-weight="bold" text-anchor="middle" x="0" y="-0.13575" fill="Black">A</text><circle r="0.1" cx="0" cy="0" stroke="none" fill="DeepSkyBlue"/><rect x="-0.281401" y="0.23957" width="0.562803" height="0.260859" stroke="none" fill="White"/><text font-family="Arial" font-size="0.21" font-weight="bold" text-anchor="middle" x="0" y="0.45925" fill="Black">Bruy</text></g><g transform="translate(9.5,30.5) scale(1.1547 1)"><rect x="-0.113084" y="-0.35543" width="0.226167" height="0.260859" stroke="none" fill="White"/><text font-family="Arial" font-size="0.21" font-weight="bold" text-anchor="middle" x="0" y="-0.13575" fill="Black">B</text><text font-family="Arial Unicode MS,Segoe UI Symbol,Arial" font-size="0.21" font-weight="bold" text-anchor="middle" x="-0.25" y="-0.09075" fill="Black">★</text><circle r="0.1" cx="0" cy="0" stroke="none" fill="DeepSkyBlue"/><rect x="-0.672178" y="0.23957" width="1.34436" height="0.260859" stroke="none" fill="White"/><text font-family="Arial" font-size="0.21" font-weight="bold" text-anchor="middle" x="0" y="0.45925" fill="Black">Ashavakuna</text></g><g transform="translate(9.5,32.5) scale(1.1547 1)"><circle transform="translate(0.25,-0.18)" r="0.05" cx="0" cy="0" stroke="none" fill="Black"/><rect x="-0.113084" y="-0.35543" width="0.226167" height="0.260859" stroke="none" fill="White"/><text font-family="Arial" font-size="0.21" font-weight="bold" text-anchor="middle" x="0" y="-0.13575" fill="Black">A</text><text font-family="Arial Unicode MS,Segoe UI Symbol,Arial" font-size="0.21" font-weight="bold" text-anchor="middle" x="-0.25" y="-0.09075" fill="Black">★</text><circle r="0.1" cx="0" cy="0" stroke="none" fill="DeepSkyBlue"/><rect x="-0.467869" y="0.23957" width="0.935737" height="0.260859" stroke="none" fill="White"/><text font-family="Arial" font-size="0.21" font-weight="bold" text-anchor="middle" x="0" y="0.45925" fill="Black">Garency</text></g><g transform="translate(9.5,33.5) scale(1.1547 1)"><circle transform="translate(0.25,-0.18)" r="0.05" cx="0" cy="0" stroke="none" fill="Black"/><rect x="-0.113084" y="-0.35543" width="0.226167" height="0.260859" stroke="none" fill="White"/><text font-family="Arial" font-size="0.21" font-weight="bold" text-anchor="middle" x="0" y="-0.13575" fill="Black">C</text><text font-family="Arial Unicode MS,Segoe UI Symbol,Arial" font-size="0.21" font-weight="bold" text-anchor="middle" x="-0.25" y="0.26925" fill="Black">▲</text><circle r="0.1" cx="0" cy="0" stroke="none" fill="DeepSkyBlue"/><rect x="-0.43157" y="0.23957" width="0.86314" height="0.260859" stroke="none" fill="White"/><text font-family="Arial" font-size="0.21" font-weight="bold" text-anchor="middle" x="0" y="0.45925" fill="Black">Conlyte</text></g><g transform="translate(10.5,33) scale(1.1547 1)"><rect x="-0.113084" y="-0.35543" width="0.226167" height="0.260859" stroke="none" fill="White"/><text font-family="Arial" font-size="0.21" font-weight="bold" text-anchor="middle" x="0" y="-0.13575" fill="Black">B</text><circle r="0.1" cx="0" cy="0" stroke="none" fill="DeepSkyBlue"/><rect x="-0.491555" y="0.23957" width="0.98311" height="0.260859" stroke="none" fill="White"/><text font-family="Arial" font-size="0.21" font-weight="bold" text-anchor="middle" x="0" y="0.45925" fill="#E32736">NAGIIDA</text></g><g transform="translate(10.5,34) scale(1.1547 1)"><circle transform="translate(0.25,-0.18)" r="0.05" cx="0" cy="0" stroke="none" fill="Black"/><rect x="-0.113084" y="-0.35543" width="0.226167" height="0.260859" stroke="none" fill="White"/><text font-family="Arial" font-size="0.21" font-weight="bold" text-anchor="middle" x="0" y="-0.13575" fill="Black">B</text><ellipse rx="0.0327123" ry="0.026398" cx="-0.07" cy="-0.07" stroke="none" fill="Black"/><ellipse rx="0.0307542" ry="0.0258304" cx="0" cy="-0.07" stroke="none" fill="Black"/><ellipse rx="0.0201686" ry="0.020749" cx="0.07" cy="-0.07" stroke="none" fill="Black"/><ellipse rx="0.0274679" ry="0.0271491" cx="-0.105" cy="0" stroke="none" fill="Black"/><ellipse rx="0.0319997" ry="0.030215" cx="-0.035" cy="0" stroke="none" fill="Black"/><ellipse rx="0.0214564" ry="0.0262298" cx="0.035" cy="0" stroke="none" fill="Black"/><ellipse rx="0.023969" ry="0.0336028" cx="-0.07" cy="0.07" stroke="none" fill="Black"/><ellipse rx="0.0307726" ry="0.0334518" cx="0.07" cy="0.07" stroke="none" fill="Black"/><rect x="-0.455769" y="0.23957" width="0.911538" height="0.260859" stroke="none" fill="White"/><text font-family="Arial" font-size="0.21" font-weight="bold" text-anchor="middle" x="0" y="0.45925" fill="Black">Weemar</text></g><g transform="translate(10.5,35) scale(1.1547 1)"><circle transform="translate(0.25,-0.18)" r="0.05" cx="0" cy="0" stroke="none" fill="Black"/><rect x="-0.113084" y="-0.35543" width="0.226167" height="0.260859" stroke="none" fill="White"/><text font-family="Arial" font-size="0.21" font-weight="bold" text-anchor="middle" x="0" y="-0.13575" fill="Black">B</text><text font-family="Arial Unicode MS,Segoe UI Symbol,Arial" font-size="0.21" font-weight="bold" text-anchor="middle" x="-0.25" y="-0.09075" fill="Black">★</text><circle r="0.1" cx="0" cy="0" stroke="none" fill="DeepSkyBlue"/><rect x="-0.419573" y="0.23957" width="0.839146" height="0.260859" stroke="none" fill="White"/><text font-family="Arial" font-size="0.21" font-weight="bold" text-anchor="middle" x="0" y="0.45925" fill="Black">Ruetzel</text></g><g transform="translate(10.5,38) scale(1.1547 1)"><circle transform="translate(0.25,-0.18)" r="0.05" cx="0" cy="0" stroke="none" fill="Black"/><rect x="-0.113084" y="-0.35543" width="0.226167" height="0.260859" stroke="none" fill="White"/><text font-family="Arial" font-size="0.21" font-weight="bold" text-anchor="middle" x="0" y="-0.13575" fill="Black">C</text><circle r="0.1" cx="0" cy="0" stroke="none" fill="DeepSkyBlue"/><rect x="-0.353538" y="0.23957" width="0.707075" height="0.260859" stroke="none" fill="White"/><text font-family="Arial" font-size="0.21" font-weight="bold" text-anchor="middle" x="0" y="0.45925" fill="Black">Tanny</text></g><g transform="translate(10.5,39) scale(1.1547 1)"><circle transform="translate(0.25,-0.18)" r="0.05" cx="0" cy="0" stroke="none" fill="Black"/><rect x="-0.113084" y="-0.35543" width="0.226167" height="0.260859" stroke="none" fill="White"/><text font-family="Arial" font-size="0.21" font-weight="bold" text-anchor="middle" x="0" y="-0.13575" fill="Black">B</text><circle r="0.1" cx="0" cy="0" stroke="none" fill="DeepSkyBlue"/><rect x="-0.341335" y="0.23957" width="0.682671" height="0.260859" stroke="none" fill="White"/><text font-family="Arial" font-size="0.21" font-weight="bold" text-anchor="middle" x="0" y="0.45925" fill="Black">Nilton</text></g><g transform="translate(11.5,34.5) scale(1.1547 1)"><circle transform="translate(0.25,-0.18)" r="0.05" cx="0" cy="0" stroke="none" fill="Black"/><rect x="-0.113084" y="-0.35543" width="0.226167" height="0.260859" stroke="none" fill="White"/><text font-family="Arial" font-size="0.21" font-weight="bold" text-anchor="middle" x="0" y="-0.13575" fill="Black">B</text><circle r="0.1" cx="0" cy="0" stroke="none" fill="DeepSkyBlue"/><rect x="-0.323545" y="0.23957" width="0.64709" height="0.260859" stroke="none" fill="White"/><text font-family="Arial" font-size="0.21" font-weight="bold" text-anchor="middle" x="0" y="0.45925" fill="Black">Scole</text></g><g transform="translate(11.5,39.5) scale(1.1547 1)"><circle transform="translate(0.25,-0.18)" r="0.05" cx="0" cy="0" stroke="none" fill="Black"/><rect x="-0.113084" y="-0.35543" width="0.226167" height="0.260859" stroke="none" fill="White"/><text font-family="Arial" font-size="0.21" font-weight="bold" text-anchor="middle" x="0" y="-0.13575" fill="Black">B</text><circle r="0.1" cx="0" cy="0" stroke="none" fill="DeepSkyBlue"/><rect x="-0.714116" y="0.23957" width="1.42823" height="0.260859" stroke="none" fill="White"/><text font-family="Arial" font-size="0.21" font-weight="bold" text-anchor="middle" x="0" y="0.45925" fill="Black">Wewarbinner</text></g><g transform="translate(12.5,32) scale(1.1547 1)"><rect x="-0.113084" y="-0.35543" width="0.226167" height="0.260859" stroke="none" fill="White"/><text font-family="Arial" font-size="0.21" font-weight="bold" text-anchor="middle" x="0" y="-0.13575" fill="Black">C</text><circle r="0.1" cx="0" cy="0" stroke="none" fill="DeepSkyBlue"/><rect x="-0.419675" y="0.23957" width="0.839351" height="0.260859" stroke="none" fill="White"/><text font-family="Arial" font-size="0.21" font-weight="bold" text-anchor="middle" x="0" y="0.45925" fill="Black">Nemille</text></g><g transform="translate(12.5,34) scale(1.1547 1)"><rect x="-0.113084" y="-0.35543" width="0.226167" height="0.260859" stroke="none" fill="White"/><text font-family="Arial" font-size="0.21" font-weight="bold" text-anchor="middle" x="0" y="-0.13575" fill="Black">B</text><circle r="0.1" cx="0" cy="0" stroke="none" fill="DeepSkyBlue"/><rect x="-0.377532" y="0.23957" width="0.755064" height="0.260859" stroke="none" fill="White"/><text font-family="Arial" font-size="0.21" font-weight="bold" text-anchor="middle" x="0" y="0.45925" fill="Black">Filliagi</text></g><g transform="translate(12.5,36) scale(1.1547 1)"><circle transform="translate(0.25,-0.18)" r="0.05" cx="0" cy="0" stroke="none" fill="Black"/><rect x="-0.113084" y="-0.35543" width="0.226167" height="0.260859" stroke="none" fill="White"/><text font-family="Arial" font-size="0.21" font-weight="bold" text-anchor="middle" x="0" y="-0.13575" fill="Black">B</text><text font-family="Arial Unicode MS,Segoe UI Symbol,Arial" font-size="0.21" font-weight="bold" text-anchor="middle" x="-0.25" y="-0.09075" fill="Black">★</text><circle r="0.1" cx="0" cy="0" stroke="none" fill="DeepSkyBlue"/><rect x="-0.593838" y="0.23957" width="1.18768" height="0.260859" stroke="none" fill="White"/><text font-family="Arial" font-size="0.21" font-weight="bold" text-anchor="middle" x="0" y="0.45925" fill="Black">Wergatoen</text></g><g transform="translate(13.5,31.5) scale(1.1547 1)"><circle transform="translate(0.25,-0.18)" r="0.05" cx="0" cy="0" stroke="none" fill="Black"/><rect x="-0.113084" y="-0.35543" width="0.226167" height="0.260859" stroke="none" fill="White"/><text font-family="Arial" font-size="0.21" font-weight="bold" text-anchor="middle" x="0" y="-0.13575" fill="Black">B</text><text font-family="Arial Unicode MS,Segoe UI Symbol,Arial" font-size="0.21" font-weight="bold" text-anchor="middle" x="-0.25" y="0.26925" fill="Black">▲</text><circle r="0.1" cx="0" cy="0" stroke="none" fill="DeepSkyBlue"/><rect x="-0.48571" y="0.23957" width="0.971421" height="0.260859" stroke="none" fill="White"/><text font-family="Arial" font-size="0.21" font-weight="bold" text-anchor="middle" x="0" y="0.45925" fill="Black">Tenonyn</text></g><g transform="translate(13.5,32.5) scale(1.1547 1)"><circle transform="translate(0.25,-0.18)" r="0.05" cx="0" cy="0" stroke="none" fill="Black"/><rect x="-0.113084" y="-0.35543" width="0.226167" height="0.260859" stroke="none" fill="White"/><text font-family="Arial" font-size="0.21" font-weight="bold" text-anchor="middle" x="0" y="-0.13575" fill="Black">B</text><circle r="0.1" cx="0" cy="0" stroke="none" fill="DeepSkyBlue"/><rect x="-0.395732" y="0.23957" width="0.791465" height="0.260859" stroke="none" fill="White"/><text font-family="Arial" font-size="0.21" font-weight="bold" text-anchor="middle" x="0" y="0.45925" fill="Black">Serock</text></g><g transform="translate(13.5,33.5) scale(1.1547 1)"><rect x="-0.113084" y="-0.35543" width="0.226167" height="0.260859" stroke="none" fill="White"/><text font-family="Arial" font-size="0.21" font-weight="bold" text-anchor="middle" x="0" y="-0.13575" fill="Black">C</text><text font-family="Arial Unicode MS,Segoe UI Symbol,Arial" font-size="0.21" font-weight="bold" text-anchor="middle" x="-0.25" y="0.26925" fill="Black">▲</text><circle r="0.1" cx="0" cy="0" stroke="none" fill="DeepSkyBlue"/><rect x="-0.600041" y="0.23957" width="1.20008" height="0.260859" stroke="none" fill="White"/><text font-family="Arial" font-size="0.21" font-weight="bold" text-anchor="middle" x="0" y="0.45925" fill="Black">Theradway</text></g><g transform="translate(13.5,34.5) scale(1.1547 1)"><circle transform="translate(0.25,-0.18)" r="0.05" cx="0" cy="0" stroke="none" fill="Black"/><rect x="-0.113084" y="-0.35543" width="0.226167" height="0.260859" stroke="none" fill="White"/><text font-family="Arial" font-size="0.21" font-weight="bold" text-anchor="middle" x="0" y="-0.13575" fill="Black">D</text><circle r="0.1" cx="0" cy="0" stroke="none" fill="DeepSkyBlue"/><rect x="-0.395579" y="0.23957" width="0.791157" height="0.260859" stroke="none" fill="White"/><text font-family="Arial" font-size="0.21" font-weight="bold" text-anchor="middle" x="0" y="0.45925" fill="Black">Dyglen</text></g><g transform="translate(13.5,37.5) scale(1.1547 1)"><circle transform="translate(0.25,-0.18)" r="0.05" cx="0" cy="0" stroke="none" fill="Black"/><rect x="-0.113084" y="-0.35543" width="0.226167" height="0.260859" stroke="none" fill="White"/><text font-family="Arial" font-size="0.21" font-weight="bold" text-anchor="middle" x="0" y="-0.13575" fill="Black">B</text><circle r="0.1" cx="0" cy="0" stroke="Black" stroke-width="0.015625" fill="White"/><rect x="-0.437568" y="0.23957" width="0.875137" height="0.260859" stroke="none" fill="White"/><text font-family="Arial" font-size="0.21" font-weight="bold" text-anchor="middle" x="0" y="0.45925" fill="Black">Nobody</text></g><g transform="translate(13.5,39.5) scale(1.1547 1)"><circle transform="translate(0.25,-0.18)" r="0.05" cx="0" cy="0" stroke="none" fill="Black"/><rect x="-0.113084" y="-0.35543" width="0.226167" height="0.260859" stroke="none" fill="White"/><text font-family="Arial" font-size="0.21" font-weight="bold" text-anchor="middle" x="0" y="-0.13575" fill="Black">A</text><text font-family="Arial Unicode MS,Segoe UI Symbol,Arial" font-size="0.21" font-weight="bold" text-anchor="middle" x="-0.25" y="-0.09075" fill="Black">★</text><circle r="0.1" cx="0" cy="0" stroke="none" fill="DeepSkyBlue"/><rect x="-0.479661" y="0.23957" width="0.959321" height="0.260859" stroke="none" fill="White"/><text font-family="Arial" font-size="0.21" font-weight="bold" text-anchor="middle" x="0" y="0.45925" fill="Black">Marilithe</text></g><g transform="translate(14.5,34) scale(1.1547 1)"><circle transform="translate(0.25,-0.18)" r="0.05" cx="0" cy="0" stroke="none" fill="Black"/><rect x="-0.113084" y="-0.35543" width="0.226167" height="0.260859" stroke="none" fill="White"/><text font-family="Arial" font-size="0.21" font-weight="bold" text-anchor="middle" x="0" y="-0.13575" fill="Black">B</text><text font-family="Arial Unicode MS,Segoe UI Symbol,Arial" font-size="0.21" font-weight="bold" text-anchor="middle" x="-0.25" y="0.26925" fill="Black">▲</text><circle r="0.1" cx="0" cy="0" stroke="Black" stroke-width="0.015625" fill="White"/><rect x="-0.281504" y="0.23957" width="0.563008" height="0.260859" stroke="none" fill="White"/><text font-family="Arial" font-size="0.21" font-weight="bold" text-anchor="middle" x="0" y="0.45925" fill="Black">Jade</text></g><g transform="translate(14.5,39) scale(1.1547 1)"><circle transform="translate(0.25,-0.18)" r="0.05" cx="0" cy="0" stroke="none" fill="Black"/><rect x="-0.113084" y="-0.35543" width="0.226167" height="0.260859" stroke="none" fill="White"/><text font-family="Arial" font-size="0.21" font-weight="bold" text-anchor="middle" x="0" y="-0.13575" fill="Black">D</text><circle r="0.1" cx="0" cy="0" stroke="none" fill="DeepSkyBlue"/><rect x="-0.491709" y="0.23957" width="0.983418" height="0.260859" stroke="none" fill="White"/><text font-family="Arial" font-size="0.21" font-weight="bold" text-anchor="middle" x="0" y="0.45925" fill="Black">Wranklin</text></g></g></svg>