<?xml version = "1.0" encoding="utf-8"?>
<svg version="1.1" baseProfile="full" xmlns="http://www.w3.org/2000/svg" xmlns:xlink="http://www.w3.org/1999/xlink" width="471" height="684" viewBox="0 0 471 684" clip="0 471 0 684"><defs><clipPath id="did1"><rect x="-1.25" y="109.9" width="8.5" height="10.7"/></clipPath><clipPath id="did2"><path d="M-1.83333,112.5l-0.333334,-0.5l0.333334,-0.5h0.666667l0.333333,-0.5l-0.333333,-0.5l0.333333,-0.5l-0.333333,-0.5l0.333333,-0.5l-0.333333,-0.5l0.333333,-0.5l-0.333333,-0.5l0.333333,-0.5h0.666667l0.333333,0.5h0.666667l0.333333,0.5h0.666667l0.333334,0.5h0.666667l0.333334,0.5h0.666667l0.333333,0.5h0.666667l0.333333,0.5h0.666667l0.333333,-0.5h0.666667l0.333333,0.5h0.666667l0.333334,0.5h0.666666l0.333334,-0.5h0.666666l0.333334,0.5h0.666666l0.333334,0.5h0.666666l0.333334,0.5h0.666666l0.333334,0.5l-0.333334,0.5l0.333334,0.5h0.666666l0.333334,0.5h0.666666l0.333334,0.5h0.666666l0.333333,-0.5h0.666668l0.333332,-0.5h0.666668l0.333332,-0.5h0.666668l0.333332,-0.5h0.666668l0.333332,-0.5h0.666668l0.333332,-0.5h0.666668l0.333332,-0.5h0.666668l0.333332,-0.5h0.666668l0.333332,-0.5h0.666668l0.333332,0.5h0.666668l0.333332,-0.5h0.666668l0.333332,0.5h0.666668l0.333332,0.5h0.666668l0.333332,-0.5h0.666668l0.333332,-0.5h0.666668l0.333332,0.5h0.666668l0.333334,0.5l-0.333334,0.5l0.333334,0.5l-0.333334,0.5l0.333334,0.5l-0.333334,0.5l0.333334,0.5l-0.333334,0.5l0.333334,0.5l-0.333334,0.5l0.333334,0.5l-0.333334,0.5l0.333334,0.5l-0.333334,0.5l0.333334,0.5l-0.333334,0.5l0.333334,0.5l-0.333334,0.5l0.333334,0.5l-0.333334,0.5l0.333334,0.5l-0.333334,0.5h-0.666668l-0.333332,0.5h-0.666668l-0.333332,-0.5h-0.666668l-0.333332,0.5h-0.666668l-0.333332,-0.5h-0.666668l-0.333332,0.5h-0.666668l-0.333332,-0.5h-0.666668l-0.333332,0.5h-0.666668l-0.333332,-0.5h-0.666668l-0.333332,0.5h-0.666668l-0.333332,-0.5h-0.666668l-0.333332,0.5h-0.666668l-0.333332,-0.5h-0.666668l-0.333332,0.5h-0.666668l-0.333332,-0.5h-0.666668l-0.333332,0.5h-0.666668l-0.333333,-0.5h-0.666666l-0.333334,0.5h-0.666666l-0.333334,-0.5h-0.666666l-0.333334,0.5h-0.666666l-0.333334,-0.5h-0.666666l-0.333334,0.5h-0.666666l-0.333334,-0.5h-0.666666l-0.333334,0.5h-0.666666l-0.333334,-0.5h-0.666667l-0.333333,0.5h-0.666667l-0.333333,-0.5h-0.666667l-0.333333,0.5h-0.666667l-0.333333,-0.5h-0.666667l-0.333334,0.5h-0.666667l-0.333334,-0.5h-0.666667l-0.333333,0.5h-0.666667l-0.333333,-0.5h-0.666667l-0.333333,0.5h-0.666667l-0.333334,-0.5l0.333334,-0.5l-0.333334,-0.5l0.333334,-0.5l-0.333334,-0.5l0.333334,-0.5l-0.333334,-0.5l0.333334,-0.5l-0.333334,-0.5l0.333334,-0.5l-0.333334,-0.5l0.333334,-0.5l-0.333334,-0.5l0.333334,-0.5l-0.333334,-0.5l0.333334,-0.5l-0.333334,-0.5Z"/></clipPath><clipPath id="did3"><path d="M-1.83333,80.5l-0.333334,-0.5l0.333334,-0.5h0.666667l0.333333,-0.5h0.666667l0.333333,0.5h0.666667l0.333333,-0.5h0.666667l0.333334,0.5h0.666667l0.333334,-0.5h0.666667l0.333333,0.5h0.666667l0.333333,-0.5h0.666667l0.333333,0.5h0.666667l0.333333,-0.5h0.666667l0.333334,0.5h0.666666l0.333334,-0.5h0.666666l0.333334,0.5h0.666666l0.333334,-0.5h0.666666l0.333334,0.5h0.666666l0.333334,-0.5h0.666666l0.333334,0.5h0.666666l0.333334,-0.5h0.666666l0.333333,0.5h0.666668l0.333332,-0.5h0.666668l0.333332,0.5h0.666668l0.333332,-0.5h0.666668l0.333332,0.5h0.666668l0.333332,-0.5h0.666668l0.333332,0.5h0.666668l0.333332,-0.5h0.666668l0.333332,0.5h0.666668l0.333332,-0.5h0.666668l0.333332,0.5h0.666668l0.333332,-0.5h0.666668l0.333332,0.5h0.666668l0.333332,-0.5h0.666668l0.333332,0.5h0.666668l0.333332,-0.5h0.666668l0.333334,0.5l-0.333334,0.5l0.333334,0.5l-0.333334,0.5l0.333334,0.5l-0.333334,0.5l0.333334,0.5l-0.333334,0.5l0.333334,0.5l-0.333334,0.5l0.333334,0.5l-0.333334,0.5l0.333334,0.5l-0.333334,0.5l0.333334,0.5l-0.333334,0.5l0.333334,0.5l-0.333334,0.5l0.333334,0.5l-0.333334,0.5l0.333334,0.5l-0.333334,0.5l0.333334,0.5l-0.333334,0.5l0.333334,0.5l-0.333334,0.5l0.333334,0.5l-0.333334,0.5l0.333334,0.5l-0.333334,0.5l0.333334,0.5l-0.333334,0.5l0.333334,0.5l-0.333334,0.5l0.333334,0.5l-0.333334,0.5l0.333334,0.5l-0.333334,0.5l0.333334,0.5l-0.333334,0.5l0.333334,0.5l-0.333334,0.5l0.333334,0.5l-0.333334,0.5l0.333334,0.5l-0.333334,0.5l0.333334,0.5l-0.333334,0.5l0.333334,0.5l-0.333334,0.5l0.333334,0.5l-0.333334,0.5l0.333334,0.5l-0.333334,0.5l0.333334,0.5l-0.333334,0.5l0.333334,0.5l-0.333334,0.5l0.333334,0.5l-0.333334,0.5l0.333334,0.5l-0.333334,0.5h-0.666668l-0.333332,-0.5h-0.666668l-0.333332,0.5h-0.666668l-0.333332,0.5h-0.666668l-0.333332,-0.5h-0.666668l-0.333332,-0.5h-0.666668l-0.333332,0.5h-0.666668l-0.333332,-0.5h-0.666668l-0.333332,0.5h-0.666668l-0.333332,0.5h-0.666668l-0.333332,0.5h-0.666668l-0.333332,0.5h-0.666668l-0.333332,0.5h-0.666668l-0.333332,0.5h-0.666668l-0.333332,0.5h-0.666668l-0.333332,0.5h-0.666668l-0.333333,0.5h-0.666666l-0.333334,-0.5h-0.666666l-0.333334,-0.5h-0.666666l-0.333334,-0.5l0.333334,-0.5l-0.333334,-0.5h-0.666666l-0.333334,-0.5h-0.666666l-0.333334,-0.5h-0.666666l-0.333334,-0.5h-0.666666l-0.333334,0.5h-0.666666l-0.333334,-0.5h-0.666667l-0.333333,-0.5h-0.666667l-0.333333,0.5h-0.666667l-0.333333,-0.5h-0.666667l-0.333333,-0.5h-0.666667l-0.333334,-0.5h-0.666667l-0.333334,-0.5h-0.666667l-0.333333,-0.5h-0.666667l-0.333333,-0.5h-0.666667l-0.333333,0.5l0.333333,0.5l-0.333333,0.5l0.333333,0.5l-0.333333,0.5l0.333333,0.5l-0.333333,0.5l0.333333,0.5l-0.333333,0.5h-0.666667l-0.333334,-0.5l0.333334,-0.5l-0.333334,-0.5l0.333334,-0.5l-0.333334,-0.5l0.333334,-0.5l-0.333334,-0.5l0.333334,-0.5l-0.333334,-0.5l0.333334,-0.5l-0.333334,-0.5l0.333334,-0.5l-0.333334,-0.5l0.333334,-0.5l-0.333334,-0.5l0.333334,-0.5l-0.333334,-0.5l0.333334,-0.5l-0.333334,-0.5l0.333334,-0.5l-0.333334,-0.5l0.333334,-0.5l-0.333334,-0.5l0.333334,-0.5l-0.333334,-0.5l0.333334,-0.5l-0.333334,-0.5l0.333334,-0.5l-0.333334,-0.5l0.333334,-0.5l-0.333334,-0.5l0.333334,-0.5l-0.333334,-0.5l0.333334,-0.5l-0.333334,-0.5l0.333334,-0.5l-0.333334,-0.5l0.333334,-0.5l-0.333334,-0.5l0.333334,-0.5l-0.333334,-0.5l0.333334,-0.5l-0.333334,-0.5l0.333334,-0.5l-0.333334,-0.5l0.333334,-0.5l-0.333334,-0.5l0.333334,-0.5l-0.333334,-0.5l0.333334,-0.5l-0.333334,-0.5l0.333334,-0.5l-0.333334,-0.5l0.333334,-0.5l-0.333334,-0.5l0.333334,-0.5l-0.333334,-0.5l0.333334,-0.5l-0.333334,-0.5l0.333334,-0.5l-0.333334,-0.5Z"/></clipPath><clipPath id="did4"><path d="M9.16667,99l-0.333334,-0.5l0.333334,-0.5h0.666666l0.333334,-0.5h0.666666l0.333334,-0.5h0.666666l0.333334,-0.5h0.666666l0.333334,-0.5l-0.333334,-0.5l0.333334,-0.5l-0.333334,-0.5l0.333334,-0.5h0.666666l0.333334,-0.5h0.666666l0.333334,-0.5h0.666666l0.333333,-0.5h0.666668l0.333332,0.5h0.666668l0.333332,0.5h0.666668l0.333332,-0.5h0.666668l0.333332,-0.5h0.666668l0.333332,0.5l-0.333332,0.5l0.333332,0.5l-0.333332,0.5l0.333332,0.5l-0.333332,0.5l0.333332,0.5l-0.333332,0.5l0.333332,0.5l-0.333332,0.5l0.333332,0.5h0.666668l0.333332,0.5l-0.333332,0.5h-0.666668l-0.333332,-0.5h-0.666668l-0.333332,0.5h-0.666668l-0.333332,-0.5h-0.666668l-0.333332,0.5h-0.666668l-0.333332,0.5h-0.666668l-0.333333,0.5h-0.666666l-0.333334,-0.5h-0.666666l-0.333334,-0.5h-0.666666l-0.333334,0.5h-0.666666l-0.333334,0.5h-0.666666l-0.333334,-0.5h-0.666666l-0.333334,0.5h-0.666666l-0.333334,-0.5Z"/></clipPath><clipPath id="did5"><path d="M22.1667,113.5l-0.333332,-0.5l0.333332,-0.5h0.666668l0.333332,0.5l-0.333332,0.5Z"/></clipPath><clipPath id="did6"><path d="M9.16667,116l-0.333334,-0.5l0.333334,-0.5h0.666666l0.333334,0.5h0.666666l0.333334,-0.5h0.666666l0.333334,-0.5h0.666666l0.333334,0.5h0.666666l0.333334,0.5h0.666666l0.333334,-0.5h0.666666l0.333333,0.5h0.666668l0.333332,0.5l-0.333332,0.5h-0.666668l-0.333333,0.5l0.333333,0.5l-0.333333,0.5l0.333333,0.5l-0.333333,0.5l0.333333,0.5l-0.333333,0.5h-0.666666l-0.333334,-0.5h-0.666666l-0.333334,0.5h-0.666666l-0.333334,0.5l0.333334,0.5l-0.333334,0.5h-0.666666l-0.333334,-0.5l0.333334,-0.5l-0.333334,-0.5h-0.666666l-0.333334,-0.5h-0.666666l-0.333334,0.5h-0.666666l-0.333334,-0.5l0.333334,-0.5h0.666666l0.333334,-0.5l-0.333334,-0.5l0.333334,-0.5l-0.333334,-0.5h-0.666666l-0.333334,-0.5Z"/></clipPath><clipPath id="did7"><rect x="-1.25" y="109.9" width="8.5" height="10.7"/></clipPath><clipPath id="did8"><rect x="-1.25" y="109.9" width="8.5" height="10.7"/></clipPath></defs><g fill="None" stroke="None" transform="matrix(1,0,0,1,0,0) matrix(55.4256,0,0,64,69.282,-7033.6)"><g clip-path="url(#did1)"><rect x="-2.1" y="108.83" width="10.2" height="12.84" stroke="none" fill="White"/><path d="M-3.16667,108.5v0l0.333334,0.5h0.666667l0.333333,-0.5" stroke="#808080" stroke-width="0.015625" fill="none"/><path d="M-3.16667,109.5v0l0.333334,0.5h0.666667l0.333333,-0.5" stroke="#808080" stroke-width="0.015625" fill="none"/><path d="M-3.16667,110.5v0l0.333334,0.5h0.666667l0.333333,-0.5" stroke="#808080" stroke-width="0.015625" fill="none"/><path d="M-3.16667,111.5v0l0.333334,0.5h0.666667l0.333333,-0.5" stroke="#808080" stroke-width="0.015625" fill="none"/><path d="M-3.16667,112.5v0l0.333334,0.5h0.666667l0.333333,-0.5" stroke="#808080" stroke-width="0.015625" fill="none"/><path d="M-3.16667,113.5v0l0.333334,0.5h0.666667l0.333333,-0.5" stroke="#808080" stroke-width="0.015625" fill="none"/><path d="M-3.16667,114.5v0l0.333334,0.5h0.666667l0.333333,-0.5" stroke="#808080" stroke-width="0.015625" fill="none"/><path d="M-3.16667,115.5v0l0.333334,0.5h0.666667l0.333333,-0.5" stroke="#808080" stroke-width="0.015625" fill="none"/><path d="M-3.16667,116.5v0l0.333334,0.5h0.666667l0.333333,-0.5" stroke="#808080" stroke-width="0.015625" fill="none"/><path d="M-3.16667,117.5v0l0.333334,0.5h0.666667l0.333333,-0.5" stroke="#808080" stroke-width="0.015625" fill="none"/><path d="M-3.16667,118.5v0l0.333334,0.5h0.666667l0.333333,-0.5" stroke="#808080" stroke-width="0.015625" fill="none"/><path d="M-3.16667,119.5v0l0.333334,0.5h0.666667l0.333333,-0.5" stroke="#808080" stroke-width="0.015625" fill="none"/><path d="M-3.16667,120.5v0l0.333334,0.5h0.666667l0.333333,-0.5" stroke="#808080" stroke-width="0.015625" fill="none"/><path d="M-2.16667,109v0l0.333333,0.5h0.666667l0.333333,-0.5" stroke="#808080" stroke-width="0.015625" fill="none"/><path d="M-2.16667,110v0l0.333333,0.5h0.666667l0.333333,-0.5" stroke="#808080" stroke-width="0.015625" fill="none"/><path d="M-2.16667,111v0l0.333333,0.5h0.666667l0.333333,-0.5" stroke="#808080" stroke-width="0.015625" fill="none"/><path d="M-2.16667,112v0l0.333333,0.5h0.666667l0.333333,-0.5" stroke="#808080" stroke-width="0.015625" fill="none"/><path d="M-2.16667,113v0l0.333333,0.5h0.666667l0.333333,-0.5" stroke="#808080" stroke-width="0.015625" fill="none"/><path d="M-2.16667,114v0l0.333333,0.5h0.666667l0.333333,-0.5" stroke="#808080" stroke-width="0.015625" fill="none"/><path d="M-2.16667,115v0l0.333333,0.5h0.666667l0.333333,-0.5" stroke="#808080" stroke-width="0.015625" fill="none"/><path d="M-2.16667,116v0l0.333333,0.5h0.666667l0.333333,-0.5" stroke="#808080" stroke-width="0.015625" fill="none"/><path d="M-2.16667,117v0l0.333333,0.5h0.666667l0.333333,-0.5" stroke="#808080" stroke-width="0.015625" fill="none"/><path d="M-2.16667,118v0l0.333333,0.5h0.666667l0.333333,-0.5" stroke="#808080" stroke-width="0.015625" fill="none"/><path d="M-2.16667,119v0l0.333333,0.5h0.666667l0.333333,-0.5" stroke="#808080" stroke-width="0.015625" fill="none"/><path d="M-2.16667,120v0l0.333333,0.5h0.666667l0.333333,-0.5" stroke="#808080" stroke-width="0.015625" fill="none"/><path d="M-2.16667,121v0l0.333333,0.5h0.666667l0.333333,-0.5" stroke="#808080" stroke-width="0.015625" fill="none"/><path d="M-1.16667,108.5v0l0.333333,0.5h0.666667l0.333333,-0.5" stroke="#808080" stroke-width="0.015625" fill="none"/><path d="M-1.16667,109.5v0l0.333333,0.5h0.666667l0.333333,-0.5" stroke="#808080" stroke-width="0.015625" fill="none"/><path d="M-1.16667,110.5v0l0.333333,0.5h0.666667l0.333333,-0.5" stroke="#808080" stroke-width="0.015625" fill="none"/><path d="M-1.16667,111.5v0l0.333333,0.5h0.666667l0.333333,-0.5" stroke="#808080" stroke-width="0.015625" fill="none"/><path d="M-1.16667,112.5v0l0.333333,0.5h0.666667l0.333333,-0.5" stroke="#808080" stroke-width="0.015625" fill="none"/><path d="M-1.16667,113.5v0l0.333333,0.5h0.666667l0.333333,-0.5" stroke="#808080" stroke-width="0.015625" fill="none"/><path d="M-1.16667,114.5v0l0.333333,0.5h0.666667l0.333333,-0.5" stroke="#808080" stroke-width="0.015625" fill="none"/><path d="M-1.16667,115.5v0l0.333333,0.5h0.666667l0.333333,-0.5" stroke="#808080" stroke-width="0.015625" fill="none"/><path d="M-1.16667,116.5v0l0.333333,0.5h0.666667l0.333333,-0.5" stroke="#808080" stroke-width="0.015625" fill="none"/><path d="M-1.16667,117.5v0l0.333333,0.5h0.666667l0.333333,-0.5" stroke="#808080" stroke-width="0.015625" fill="none"/><path d="M-1.16667,118.5v0l0.333333,0.5h0.666667l0.333333,-0.5" stroke="#808080" stroke-width="0.015625" fill="none"/><path d="M-1.16667,119.5v0l0.333333,0.5h0.666667l0.333333,-0.5" stroke="#808080" stroke-width="0.015625" fill="none"/><path d="M-1.16667,120.5v0l0.333333,0.5h0.666667l0.333333,-0.5" stroke="#808080" stroke-width="0.015625" fill="none"/><path d="M-0.166667,109v0l0.333333,0.5h0.666667l0.333333,-0.5" stroke="#808080" stroke-width="0.015625" fill="none"/><path d="M-0.166667,110v0l0.333333,0.5h0.666667l0.333333,-0.5" stroke="#808080" stroke-width="0.015625" fill="none"/><path d="M-0.166667,111v0l0.333333,0.5h0.666667l0.333333,-0.5" stroke="#808080" stroke-width="0.015625" fill="none"/><path d="M-0.166667,112v0l0.333333,0.5h0.666667l0.333333,-0.5" stroke="#808080" stroke-width="0.015625" fill="none"/><path d="M-0.166667,113v0l0.333333,0.5h0.666667l0.333333,-0.5" stroke="#808080" stroke-width="0.015625" fill="none"/><path d="M-0.166667,114v0l0.333333,0.5h0.666667l0.333333,-0.5" stroke="#808080" stroke-width="0.015625" fill="none"/><path d="M-0.166667,115v0l0.333333,0.5h0.666667l0.333333,-0.5" stroke="#808080" stroke-width="0.015625" fill="none"/><path d="M-0.166667,116v0l0.333333,0.5h0.666667l0.333333,-0.5" stroke="#808080" stroke-width="0.015625" fill="none"/><path d="M-0.166667,117v0l0.333333,0.5h0.666667l0.333333,-0.5" stroke="#808080" stroke-width="0.015625" fill="none"/><path d="M-0.166667,118v0l0.333333,0.5h0.666667l0.333333,-0.5" stroke="#808080" stroke-width="0.015625" fill="none"/><path d="M-0.166667,119v0l0.333333,0.5h0.666667l0.333333,-0.5" stroke="#808080" stroke-width="0.015625" fill="none"/><path d="M-0.166667,120v0l0.333333,0.5h0.666667l0.333333,-0.5" stroke="#808080" stroke-width="0.015625" fill="none"/><path d="M-0.166667,121v0l0.333333,0.5h0.666667l0.333333,-0.5" stroke="#808080" stroke-width="0.015625" fill="none"/><path d="M0.833333,108.5v0l0.333333,0.5h0.666667l0.333333,-0.5" stroke="#808080" stroke-width="0.015625" fill="none"/><path d="M0.833333,109.5v0l0.333333,0.5h0.666667l0.333333,-0.5" stroke="#808080" stroke-width="0.015625" fill="none"/><path d="M0.833333,110.5v0l0.333333,0.5h0.666667l0.333333,-0.5" stroke="#808080" stroke-width="0.015625" fill="none"/><path d="M0.833333,111.5v0l0.333333,0.5h0.666667l0.333333,-0.5" stroke="#808080" stroke-width="0.015625" fill="none"/><path d="M0.833333,112.5v0l0.333333,0.5h0.666667l0.333333,-0.5" stroke="#808080" stroke-width="0.015625" fill="none"/><path d="M0.833333,113.5v0l0.333333,0.5h0.666667l0.333333,-0.5" stroke="#808080" stroke-width="0.015625" fill="none"/><path d="M0.833333,114.5v0l0.333333,0.5h0.666667l0.333333,-0.5" stroke="#808080" stroke-width="0.015625" fill="none"/><path d="M0.833333,115.5v0l0.333333,0.5h0.666667l0.333333,-0.5" stroke="#808080" stroke-width="0.015625" fill="none"/><path d="M0.833333,116.5v0l0.333333,0.5h0.666667l0.333333,-0.5" stroke="#808080" stroke-width="0.015625" fill="none"/><path d="M0.833333,117.5v0l0.333333,0.5h0.666667l0.333333,-0.5" stroke="#808080" stroke-width="0.015625" fill="none"/><path d="M0.833333,118.5v0l0.333333,0.5h0.666667l0.333333,-0.5" stroke="#808080" stroke-width="0.015625" fill="none"/><path d="M0.833333,119.5v0l0.333333,0.5h0.666667l0.333333,-0.5" stroke="#808080" stroke-width="0.015625" fill="none"/><path d="M0.833333,120.5v0l0.333333,0.5h0.666667l0.333333,-0.5" stroke="#808080" stroke-width="0.015625" fill="none"/><path d="M1.83333,109v0l0.333333,0.5h0.666667l0.333334,-0.5" stroke="#808080" stroke-width="0.015625" fill="none"/><path d="M1.83333,110v0l0.333333,0.5h0.666667l0.333334,-0.5" stroke="#808080" stroke-width="0.015625" fill="none"/><path d="M1.83333,111v0l0.333333,0.5h0.666667l0.333334,-0.5" stroke="#808080" stroke-width="0.015625" fill="none"/><path d="M1.83333,112v0l0.333333,0.5h0.666667l0.333334,-0.5" stroke="#808080" stroke-width="0.015625" fill="none"/><path d="M1.83333,113v0l0.333333,0.5h0.666667l0.333334,-0.5" stroke="#808080" stroke-width="0.015625" fill="none"/><path d="M1.83333,114v0l0.333333,0.5h0.666667l0.333334,-0.5" stroke="#808080" stroke-width="0.015625" fill="none"/><path d="M1.83333,115v0l0.333333,0.5h0.666667l0.333334,-0.5" stroke="#808080" stroke-width="0.015625" fill="none"/><path d="M1.83333,116v0l0.333333,0.5h0.666667l0.333334,-0.5" stroke="#808080" stroke-width="0.015625" fill="none"/><path d="M1.83333,117v0l0.333333,0.5h0.666667l0.333334,-0.5" stroke="#808080" stroke-width="0.015625" fill="none"/><path d="M1.83333,118v0l0.333333,0.5h0.666667l0.333334,-0.5" stroke="#808080" stroke-width="0.015625" fill="none"/><path d="M1.83333,119v0l0.333333,0.5h0.666667l0.333334,-0.5" stroke="#808080" stroke-width="0.015625" fill="none"/><path d="M1.83333,120v0l0.333333,0.5h0.666667l0.333334,-0.5" stroke="#808080" stroke-width="0.015625" fill="none"/><path d="M1.83333,121v0l0.333333,0.5h0.666667l0.333334,-0.5" stroke="#808080" stroke-width="0.015625" fill="none"/><path d="M2.83333,108.5v0l0.333334,0.5h0.666667l0.333333,-0.5" stroke="#808080" stroke-width="0.015625" fill="none"/><path d="M2.83333,109.5v0l0.333334,0.5h0.666667l0.333333,-0.5" stroke="#808080" stroke-width="0.015625" fill="none"/><path d="M2.83333,110.5v0l0.333334,0.5h0.666667l0.333333,-0.5" stroke="#808080" stroke-width="0.015625" fill="none"/><path d="M2.83333,111.5v0l0.333334,0.5h0.666667l0.333333,-0.5" stroke="#808080" stroke-width="0.015625" fill="none"/><path d="M2.83333,112.5v0l0.333334,0.5h0.666667l0.333333,-0.5" stroke="#808080" stroke-width="0.015625" fill="none"/><path d="M2.83333,113.5v0l0.333334,0.5h0.666667l0.333333,-0.5" stroke="#808080" stroke-width="0.015625" fill="none"/><path d="M2.83333,114.5v0l0.333334,0.5h0.666667l0.333333,-0.5" stroke="#808080" stroke-width="0.015625" fill="none"/><path d="M2.83333,115.5v0l0.333334,0.5h0.666667l0.333333,-0.5" stroke="#808080" stroke-width="0.015625" fill="none"/><path d="M2.83333,116.5v0l0.333334,0.5h0.666667l0.333333,-0.5" stroke="#808080" stroke-width="0.015625" fill="none"/><path d="M2.83333,117.5v0l0.333334,0.5h0.666667l0.333333,-0.5" stroke="#808080" stroke-width="0.015625" fill="none"/><path d="M2.83333,118.5v0l0.333334,0.5h0.666667l0.333333,-0.5" stroke="#808080" stroke-width="0.015625" fill="none"/><path d="M2.83333,119.5v0l0.333334,0.5h0.666667l0.333333,-0.5" stroke="#808080" stroke-width="0.015625" fill="none"/><path d="M2.83333,120.5v0l0.333334,0.5h0.666667l0.333333,-0.5" stroke="#808080" stroke-width="0.015625" fill="none"/><path d="M3.83333,109v0l0.333333,0.5h0.666667l0.333333,-0.5" stroke="#808080" stroke-width="0.015625" fill="none"/><path d="M3.83333,110v0l0.333333,0.5h0.666667l0.333333,-0.5" stroke="#808080" stroke-width="0.015625" fill="none"/><path d="M3.83333,111v0l0.333333,0.5h0.666667l0.333333,-0.5" stroke="#808080" stroke-width="0.015625" fill="none"/><path d="M3.83333,112v0l0.333333,0.5h0.666667l0.333333,-0.5" stroke="#808080" stroke-width="0.015625" fill="none"/><path d="M3.83333,113v0l0.333333,0.5h0.666667l0.333333,-0.5" stroke="#808080" stroke-width="0.015625" fill="none"/><path d="M3.83333,114v0l0.333333,0.5h0.666667l0.333333,-0.5" stroke="#808080" stroke-width="0.015625" fill="none"/><path d="M3.83333,115v0l0.333333,0.5h0.666667l0.333333,-0.5" stroke="#808080" stroke-width="0.015625" fill="none"/><path d="M3.83333,116v0l0.333333,0.5h0.666667l0.333333,-0.5" stroke="#808080" stroke-width="0.015625" fill="none"/><path d="M3.83333,117v0l0.333333,0.5h0.666667l0.333333,-0.5" stroke="#808080" stroke-width="0.015625" fill="none"/><path d="M3.83333,118v0l0.333333,0.5h0.666667l0.333333,-0.5" stroke="#808080" stroke-width="0.015625" fill="none"/><path d="M3.83333,119v0l0.333333,0.5h0.666667l0.333333,-0.5" stroke="#808080" stroke-width="0.015625" fill="none"/><path d="M3.83333,120v0l0.333333,0.5h0.666667l0.333333,-0.5" stroke="#808080" stroke-width="0.015625" fill="none"/><path d="M3.83333,121v0l0.333333,0.5h0.666667l0.333333,-0.5" stroke="#808080" stroke-width="0.015625" fill="none"/><path d="M4.83333,108.5v0l0.333333,0.5h0.666667l0.333333,-0.5" stroke="#808080" stroke-width="0.015625" fill="none"/><path d="M4.83333,109.5v0l0.333333,0.5h0.666667l0.333333,-0.5" stroke="#808080" stroke-width="0.015625" fill="none"/><path d="M4.83333,110.5v0l0.333333,0.5h0.666667l0.333333,-0.5" stroke="#808080" stroke-width="0.015625" fill="none"/><path d="M4.83333,111.5v0l0.333333,0.5h0.666667l0.333333,-0.5" stroke="#808080" stroke-width="0.015625" fill="none"/><path d="M4.83333,112.5v0l0.333333,0.5h0.666667l0.333333,-0.5" stroke="#808080" stroke-width="0.015625" fill="none"/><path d="M4.83333,113.5v0l0.333333,0.5h0.666667l0.333333,-0.5" stroke="#808080" stroke-width="0.015625" fill="none"/><path d="M4.83333,114.5v0l0.333333,0.5h0.666667l0.333333,-0.5" stroke="#808080" stroke-width="0.015625" fill="none"/><path d="M4.83333,115.5v0l0.333333,0.5h0.666667l0.333333,-0.5" stroke="#808080" stroke-width="0.015625" fill="none"/><path d="M4.83333,116.5v0l0.333333,0.5h0.666667l0.333333,-0.5" stroke="#808080" stroke-width="0.015625" fill="none"/><path d="M4.83333,117.5v0l0.333333,0.5h0.666667l0.333333,-0.5" stroke="#808080" stroke-width="0.015625" fill="none"/><path d="M4.83333,118.5v0l0.333333,0.5h0.666667l0.333333,-0.5" stroke="#808080" stroke-width="0.015625" fill="none"/><path d="M4.83333,119.5v0l0.333333,0.5h0.666667l0.333333,-0.5" stroke="#808080" stroke-width="0.015625" fill="none"/><path d="M4.83333,120.5v0l0.333333,0.5h0.666667l0.333333,-0.5" stroke="#808080" stroke-width="0.015625" fill="none"/><path d="M5.83333,109v0l0.333333,0.5h0.666667l0.333333,-0.5" stroke="#808080" stroke-width="0.015625" fill="none"/><path d="M5.83333,110v0l0.333333,0.5h0.666667l0.333333,-0.5" stroke="#808080" stroke-width="0.015625" fill="none"/><path d="M5.83333,111v0l0.333333,0.5h0.666667l0.333333,-0.5" stroke="#808080" stroke-width="0.015625" fill="none"/><path d="M5.83333,112v0l0.333333,0.5h0.666667l0.333333,-0.5" stroke="#808080" stroke-width="0.015625" fill="none"/><path d="M5.83333,113v0l0.333333,0.5h0.666667l0.333333,-0.5" stroke="#808080" stroke-width="0.015625" fill="none"/><path d="M5.83333,114v0l0.333333,0.5h0.666667l0.333333,-0.5" stroke="#808080" stroke-width="0.015625" fill="none"/><path d="M5.83333,115v0l0.333333,0.5h0.666667l0.333333,-0.5" stroke="#808080" stroke-width="0.015625" fill="none"/><path d="M5.83333,116v0l0.333333,0.5h0.666667l0.333333,-0.5" stroke="#808080" stroke-width="0.015625" fill="none"/><path d="M5.83333,117v0l0.333333,0.5h0.666667l0.333333,-0.5" stroke="#808080" stroke-width="0.015625" fill="none"/><path d="M5.83333,118v0l0.333333,0.5h0.666667l0.333333,-0.5" stroke="#808080" stroke-width="0.015625" fill="none"/><path d="M5.83333,119v0l0.333333,0.5h0.666667l0.333333,-0.5" stroke="#808080" stroke-width="0.015625" fill="none"/><path d="M5.83333,120v0l0.333333,0.5h0.666667l0.333333,-0.5" stroke="#808080" stroke-width="0.015625" fill="none"/><path d="M5.83333,121v0l0.333333,0.5h0.666667l0.333333,-0.5" stroke="#808080" stroke-width="0.015625" fill="none"/><path d="M6.83333,108.5v0l0.333333,0.5h0.666667l0.333334,-0.5" stroke="#808080" stroke-width="0.015625" fill="none"/><path d="M6.83333,109.5v0l0.333333,0.5h0.666667l0.333334,-0.5" stroke="#808080" stroke-width="0.015625" fill="none"/><path d="M6.83333,110.5v0l0.333333,0.5h0.666667l0.333334,-0.5" stroke="#808080" stroke-width="0.015625" fill="none"/><path d="M6.83333,111.5v0l0.333333,0.5h0.666667l0.333334,-0.5" stroke="#808080" stroke-width="0.015625" fill="none"/><path d="M6.83333,112.5v0l0.333333,0.5h0.666667l0.333334,-0.5" stroke="#808080" stroke-width="0.015625" fill="none"/><path d="M6.83333,113.5v0l0.333333,0.5h0.666667l0.333334,-0.5" stroke="#808080" stroke-width="0.015625" fill="none"/><path d="M6.83333,114.5v0l0.333333,0.5h0.666667l0.333334,-0.5" stroke="#808080" stroke-width="0.015625" fill="none"/><path d="M6.83333,115.5v0l0.333333,0.5h0.666667l0.333334,-0.5" stroke="#808080" stroke-width="0.015625" fill="none"/><path d="M6.83333,116.5v0l0.333333,0.5h0.666667l0.333334,-0.5" stroke="#808080" stroke-width="0.015625" fill="none"/><path d="M6.83333,117.5v0l0.333333,0.5h0.666667l0.333334,-0.5" stroke="#808080" stroke-width="0.015625" fill="none"/><path d="M6.83333,118.5v0l0.333333,0.5h0.666667l0.333334,-0.5" stroke="#808080" stroke-width="0.015625" fill="none"/><path d="M6.83333,119.5v0l0.333333,0.5h0.666667l0.333334,-0.5" stroke="#808080" stroke-width="0.015625" fill="none"/><path d="M6.83333,120.5v0l0.333333,0.5h0.666667l0.333334,-0.5" stroke="#808080" stroke-width="0.015625" fill="none"/><path clip-path="url(#did2)" d="M-1.83333,112.5l-0.333334,-0.5l0.333334,-0.5h0.666667l0.333333,-0.5l-0.333333,-0.5l0.333333,-0.5l-0.333333,-0.5l0.333333,-0.5l-0.333333,-0.5l0.333333,-0.5l-0.333333,-0.5l0.333333,-0.5h0.666667l0.333333,0.5h0.666667l0.333333,0.5h0.666667l0.333334,0.5h0.666667l0.333334,0.5h0.666667l0.333333,0.5h0.666667l0.333333,0.5h0.666667l0.333333,-0.5h0.666667l0.333333,0.5h0.666667l0.333334,0.5h0.666666l0.333334,-0.5h0.666666l0.333334,0.5h0.666666l0.333334,0.5h0.666666l0.333334,0.5h0.666666l0.333334,0.5l-0.333334,0.5l0.333334,0.5h0.666666l0.333334,0.5h0.666666l0.333334,0.5h0.666666l0.333333,-0.5h0.666668l0.333332,-0.5h0.666668l0.333332,-0.5h0.666668l0.333332,-0.5h0.666668l0.333332,-0.5h0.666668l0.333332,-0.5h0.666668l0.333332,-0.5h0.666668l0.333332,-0.5h0.666668l0.333332,-0.5h0.666668l0.333332,0.5h0.666668l0.333332,-0.5h0.666668l0.333332,0.5h0.666668l0.333332,0.5h0.666668l0.333332,-0.5h0.666668l0.333332,-0.5h0.666668l0.333332,0.5h0.666668l0.333334,0.5l-0.333334,0.5l0.333334,0.5l-0.333334,0.5l0.333334,0.5l-0.333334,0.5l0.333334,0.5l-0.333334,0.5l0.333334,0.5l-0.333334,0.5l0.333334,0.5l-0.333334,0.5l0.333334,0.5l-0.333334,0.5l0.333334,0.5l-0.333334,0.5l0.333334,0.5l-0.333334,0.5l0.333334,0.5l-0.333334,0.5l0.333334,0.5l-0.333334,0.5h-0.666668l-0.333332,0.5h-0.666668l-0.333332,-0.5h-0.666668l-0.333332,0.5h-0.666668l-0.333332,-0.5h-0.666668l-0.333332,0.5h-0.666668l-0.333332,-0.5h-0.666668l-0.333332,0.5h-0.666668l-0.333332,-0.5h-0.666668l-0.333332,0.5h-0.666668l-0.333332,-0.5h-0.666668l-0.333332,0.5h-0.666668l-0.333332,-0.5h-0.666668l-0.333332,0.5h-0.666668l-0.333332,-0.5h-0.666668l-0.333332,0.5h-0.666668l-0.333333,-0.5h-0.666666l-0.333334,0.5h-0.666666l-0.333334,-0.5h-0.666666l-0.333334,0.5h-0.666666l-0.333334,-0.5h-0.666666l-0.333334,0.5h-0.666666l-0.333334,-0.5h-0.666666l-0.333334,0.5h-0.666666l-0.333334,-0.5h-0.666667l-0.333333,0.5h-0.666667l-0.333333,-0.5h-0.666667l-0.333333,0.5h-0.666667l-0.333333,-0.5h-0.666667l-0.333334,0.5h-0.666667l-0.333334,-0.5h-0.666667l-0.333333,0.5h-0.666667l-0.333333,-0.5h-0.666667l-0.333333,0.5h-0.666667l-0.333334,-0.5l0.333334,-0.5l-0.333334,-0.5l0.333334,-0.5l-0.333334,-0.5l0.333334,-0.5l-0.333334,-0.5l0.333334,-0.5l-0.333334,-0.5l0.333334,-0.5l-0.333334,-0.5l0.333334,-0.5l-0.333334,-0.5l0.333334,-0.5l-0.333334,-0.5l0.333334,-0.5l-0.333334,-0.5Z" stroke="Orange" stroke-width="0.16" fill="none"/><path clip-path="url(#did3)" d="M-1.83333,80.5l-0.333334,-0.5l0.333334,-0.5h0.666667l0.333333,-0.5h0.666667l0.333333,0.5h0.666667l0.333333,-0.5h0.666667l0.333334,0.5h0.666667l0.333334,-0.5h0.666667l0.333333,0.5h0.666667l0.333333,-0.5h0.666667l0.333333,0.5h0.666667l0.333333,-0.5h0.666667l0.333334,0.5h0.666666l0.333334,-0.5h0.666666l0.333334,0.5h0.666666l0.333334,-0.5h0.666666l0.333334,0.5h0.666666l0.333334,-0.5h0.666666l0.333334,0.5h0.666666l0.333334,-0.5h0.666666l0.333333,0.5h0.666668l0.333332,-0.5h0.666668l0.333332,0.5h0.666668l0.333332,-0.5h0.666668l0.333332,0.5h0.666668l0.333332,-0.5h0.666668l0.333332,0.5h0.666668l0.333332,-0.5h0.666668l0.333332,0.5h0.666668l0.333332,-0.5h0.666668l0.333332,0.5h0.666668l0.333332,-0.5h0.666668l0.333332,0.5h0.666668l0.333332,-0.5h0.666668l0.333332,0.5h0.666668l0.333332,-0.5h0.666668l0.333334,0.5l-0.333334,0.5l0.333334,0.5l-0.333334,0.5l0.333334,0.5l-0.333334,0.5l0.333334,0.5l-0.333334,0.5l0.333334,0.5l-0.333334,0.5l0.333334,0.5l-0.333334,0.5l0.333334,0.5l-0.333334,0.5l0.333334,0.5l-0.333334,0.5l0.333334,0.5l-0.333334,0.5l0.333334,0.5l-0.333334,0.5l0.333334,0.5l-0.333334,0.5l0.333334,0.5l-0.333334,0.5l0.333334,0.5l-0.333334,0.5l0.333334,0.5l-0.333334,0.5l0.333334,0.5l-0.333334,0.5l0.333334,0.5l-0.333334,0.5l0.333334,0.5l-0.333334,0.5l0.333334,0.5l-0.333334,0.5l0.333334,0.5l-0.333334,0.5l0.333334,0.5l-0.333334,0.5l0.333334,0.5l-0.333334,0.5l0.333334,0.5l-0.333334,0.5l0.333334,0.5l-0.333334,0.5l0.333334,0.5l-0.333334,0.5l0.333334,0.5l-0.333334,0.5l0.333334,0.5l-0.333334,0.5l0.333334,0.5l-0.333334,0.5l0.333334,0.5l-0.333334,0.5l0.333334,0.5l-0.333334,0.5l0.333334,0.5l-0.333334,0.5l0.333334,0.5l-0.333334,0.5h-0.666668l-0.333332,-0.5h-0.666668l-0.333332,0.5h-0.666668l-0.333332,0.5h-0.666668l-0.333332,-0.5h-0.666668l-0.333332,-0.5h-0.666668l-0.333332,0.5h-0.666668l-0.333332,-0.5h-0.666668l-0.333332,0.5h-0.666668l-0.333332,0.5h-0.666668l-0.333332,0.5h-0.666668l-0.333332,0.5h-0.666668l-0.333332,0.5h-0.666668l-0.333332,0.5h-0.666668l-0.333332,0.5h-0.666668l-0.333332,0.5h-0.666668l-0.333333,0.5h-0.666666l-0.333334,-0.5h-0.666666l-0.333334,-0.5h-0.666666l-0.333334,-0.5l0.333334,-0.5l-0.333334,-0.5h-0.666666l-0.333334,-0.5h-0.666666l-0.333334,-0.5h-0.666666l-0.333334,-0.5h-0.666666l-0.333334,0.5h-0.666666l-0.333334,-0.5h-0.666667l-0.333333,-0.5h-0.666667l-0.333333,0.5h-0.666667l-0.333333,-0.5h-0.666667l-0.333333,-0.5h-0.666667l-0.333334,-0.5h-0.666667l-0.333334,-0.5h-0.666667l-0.333333,-0.5h-0.666667l-0.333333,-0.5h-0.666667l-0.333333,0.5l0.333333,0.5l-0.333333,0.5l0.333333,0.5l-0.333333,0.5l0.333333,0.5l-0.333333,0.5l0.333333,0.5l-0.333333,0.5h-0.666667l-0.333334,-0.5l0.333334,-0.5l-0.333334,-0.5l0.333334,-0.5l-0.333334,-0.5l0.333334,-0.5l-0.333334,-0.5l0.333334,-0.5l-0.333334,-0.5l0.333334,-0.5l-0.333334,-0.5l0.333334,-0.5l-0.333334,-0.5l0.333334,-0.5l-0.333334,-0.5l0.333334,-0.5l-0.333334,-0.5l0.333334,-0.5l-0.333334,-0.5l0.333334,-0.5l-0.333334,-0.5l0.333334,-0.5l-0.333334,-0.5l0.333334,-0.5l-0.333334,-0.5l0.333334,-0.5l-0.333334,-0.5l0.333334,-0.5l-0.333334,-0.5l0.333334,-0.5l-0.333334,-0.5l0.333334,-0.5l-0.333334,-0.5l0.333334,-0.5l-0.333334,-0.5l0.333334,-0.5l-0.333334,-0.5l0.333334,-0.5l-0.333334,-0.5l0.333334,-0.5l-0.333334,-0.5l0.333334,-0.5l-0.333334,-0.5l0.333334,-0.5l-0.333334,-0.5l0.333334,-0.5l-0.333334,-0.5l0.333334,-0.5l-0.333334,-0.5l0.333334,-0.5l-0.333334,-0.5l0.333334,-0.5l-0.333334,-0.5l0.333334,-0.5l-0.333334,-0.5l0.333334,-0.5l-0.333334,-0.5l0.333334,-0.5l-0.333334,-0.5l0.333334,-0.5l-0.333334,-0.5Z" stroke="#E32736" stroke-width="0.16" fill="none"/><path clip-path="url(#did4)" d="M9.16667,99l-0.333334,-0.5l0.333334,-0.5h0.666666l0.333334,-0.5h0.666666l0.333334,-0.5h0.666666l0.333334,-0.5h0.666666l0.333334,-0.5l-0.333334,-0.5l0.333334,-0.5l-0.333334,-0.5l0.333334,-0.5h0.666666l0.333334,-0.5h0.666666l0.333334,-0.5h0.666666l0.333333,-0.5h0.666668l0.333332,0.5h0.666668l0.333332,0.5h0.666668l0.333332,-0.5h0.666668l0.333332,-0.5h0.666668l0.333332,0.5l-0.333332,0.5l0.333332,0.5l-0.333332,0.5l0.333332,0.5l-0.333332,0.5l0.333332,0.5l-0.333332,0.5l0.333332,0.5l-0.333332,0.5l0.333332,0.5h0.666668l0.333332,0.5l-0.333332,0.5h-0.666668l-0.333332,-0.5h-0.666668l-0.333332,0.5h-0.666668l-0.333332,-0.5h-0.666668l-0.333332,0.5h-0.666668l-0.333332,0.5h-0.666668l-0.333333,0.5h-0.666666l-0.333334,-0.5h-0.666666l-0.333334,-0.5h-0.666666l-0.333334,0.5h-0.666666l-0.333334,0.5h-0.666666l-0.333334,-0.5h-0.666666l-0.333334,0.5h-0.666666l-0.333334,-0.5Z" stroke="Blue" stroke-width="0.16" fill="none"/><path clip-path="url(#did5)" d="M22.1667,113.5l-0.333332,-0.5l0.333332,-0.5h0.666668l0.333332,0.5l-0.333332,0.5Z" stroke="Orange" stroke-width="0.16" fill="none"/><path clip-path="url(#did6)" d="M9.16667,116l-0.333334,-0.5l0.333334,-0.5h0.666666l0.333334,0.5h0.666666l0.333334,-0.5h0.666666l0.333334,-0.5h0.666666l0.333334,0.5h0.666666l0.333334,0.5h0.666666l0.333334,-0.5h0.666666l0.333333,0.5h0.666668l0.333332,0.5l-0.333332,0.5h-0.666668l-0.333333,0.5l0.333333,0.5l-0.333333,0.5l0.333333,0.5l-0.333333,0.5l0.333333,0.5l-0.333333,0.5h-0.666666l-0.333334,-0.5h-0.666666l-0.333334,0.5h-0.666666l-0.333334,0.5l0.333334,0.5l-0.333334,0.5h-0.666666l-0.333334,-0.5l0.333334,-0.5l-0.333334,-0.5h-0.666666l-0.333334,-0.5h-0.666666l-0.333334,0.5h-0.666666l-0.333334,-0.5l0.333334,-0.5h0.666666l0.333334,-0.5l-0.333334,-0.5l0.333334,-0.5l-0.333334,-0.5h-0.666666l-0.333334,-0.5Z" stroke="Blue" stroke-width="0.16" fill="none"/><line x1="0.5" y1="110.25" x2="0.5" y2="112.75" stroke="#048104" stroke-width="0.08"/><line x1="0.5" y1="110.25" x2="0.5" y2="112.75" stroke="#048104" stroke-width="0.08"/><line x1="0.5" y1="113.25" x2="0.5" y2="116.75" stroke="#048104" stroke-width="0.08"/><line x1="0.5" y1="117.25" x2="0.5" y2="118.75" stroke="#048104" stroke-width="0.08"/><line x1="0.5" y1="119.25" x2="0.5" y2="119.75" stroke="#048104" stroke-width="0.08"/><line x1="0.5" y1="120.25" x2="0.5" y2="120.75" stroke="#048104" stroke-width="0.08"/><line x1="1.70801" y1="109.673" x2="4.29199" y2="111.827" stroke="#048104" stroke-width="0.08"/><line x1="4.75" y1="112.125" x2="6.25" y2="112.875" stroke="#048104" stroke-width="0.08"/><line x1="6.59449" y1="112.764" x2="7.40551" y2="110.736" stroke="#048104" stroke-width="0.08"/><line x1="6.75" y1="113.125" x2="8.25" y2="113.875" stroke="#048104" stroke-width="0.08"/></g><g clip-path="url(#did7)"><text transform="translate(-0.5,115.5) scale(1.1547 1)" font-family="Arial" font-size="0.14" text-anchor="middle" x="0" y="-0.381" fill="DarkGray">0136</text><text transform="translate(-0.5,117.5) scale(1.1547 1)" font-family="Arial" font-size="0.14" text-anchor="middle" x="0" y="-0.381" fill="DarkGray">0138</text><text transform="translate(0.5,111) scale(1.1547 1)" font-family="Arial" font-size="0.14" text-anchor="middle" x="0" y="-0.381" fill="DarkGray">0231</text><g transform="translate(0.5,113) scale(1.1547 1)"><circle r="0.4" cx="0" cy="0" stroke="#FFCC00" stroke-width="0.05" fill="none"/><text font-family="Arial" font-size="0.14" text-anchor="middle" x="0" y="-0.381" fill="DarkGray">0233</text></g><text transform="translate(0.5,117) scale(1.1547 1)" font-family="Arial" font-size="0.14" text-anchor="middle" x="0" y="-0.381" fill="DarkGray">0237</text><g transform="translate(0.5,119) scale(1.1547 1)"><circle r="0.4" cx="0" cy="0" stroke="#FFCC00" stroke-width="0.05" fill="none"/><text font-family="Arial" font-size="0.14" text-anchor="middle" x="0" y="-0.381" fill="DarkGray">0239</text></g><text transform="translate(0.5,120) scale(1.1547 1)" font-family="Arial" font-size="0.14" text-anchor="middle" x="0" y="-0.381" fill="DarkGray">0240</text><text transform="translate(1.5,110.5) scale(1.1547 1)" font-family="Arial" font-size="0.14" text-anchor="middle" x="0" y="-0.381" fill="DarkGray">0331</text><text transform="translate(1.5,111.5) scale(1.1547 1)" font-family="Arial" font-size="0.14" text-anchor="middle" x="0" y="-0.381" fill="DarkGray">0332</text><text transform="translate(1.5,114.5) scale(1.1547 1)" font-family="Arial" font-size="0.14" text-anchor="middle" x="0" y="-0.381" fill="DarkGray">0335</text><text transform="translate(2.5,112) scale(1.1547 1)" font-family="Arial" font-size="0.14" text-anchor="middle" x="0" y="-0.381" fill="DarkGray">0432</text><text transform="translate(2.5,114) scale(1.1547 1)" font-family="Arial" font-size="0.14" text-anchor="middle" x="0" y="-0.381" fill="DarkGray">0434</text><text transform="translate(2.5,117) scale(1.1547 1)" font-family="Arial" font-size="0.14" text-anchor="middle" x="0" y="-0.381" fill="DarkGray">0437</text><text transform="translate(2.5,118) scale(1.1547 1)" font-family="Arial" font-size="0.14" text-anchor="middle" x="0" y="-0.381" fill="DarkGray">0438</text><text transform="translate(2.5,120) scale(1.1547 1)" font-family="Arial" font-size="0.14" text-anchor="middle" x="0" y="-0.381" fill="DarkGray">0440</text><text transform="translate(3.5,111.5) scale(1.1547 1)" font-family="Arial" font-size="0.14" text-anchor="middle" x="0" y="-0.381" fill="DarkGray">0532</text><text transform="translate(3.5,112.5) scale(1.1547 1)" font-family="Arial" font-size="0.14" text-anchor="middle" x="0" y="-0.381" fill="DarkGray">0533</text><text transform="translate(3.5,115.5) scale(1.1547 1)" font-family="Arial" font-size="0.14" text-anchor="middle" x="0" y="-0.381" fill="DarkGray">0536</text><text transform="translate(4.5,112) scale(1.1547 1)" font-family="Arial" font-size="0.14" text-anchor="middle" x="0" y="-0.381" fill="DarkGray">0632</text><text transform="translate(4.5,117) scale(1.1547 1)" font-family="Arial" font-size="0.14" text-anchor="middle" x="0" y="-0.381" fill="DarkGray">0637</text><text transform="translate(4.5,119) scale(1.1547 1)" font-family="Arial" font-size="0.14" text-anchor="middle" x="0" y="-0.381" fill="DarkGray">0639</text><text transform="translate(4.5,120) scale(1.1547 1)" font-family="Arial" font-size="0.14" text-anchor="middle" x="0" y="-0.381" fill="DarkGray">0640</text><text transform="translate(6.5,112) scale(1.1547 1)" font-family="Arial" font-size="0.14" text-anchor="middle" x="0" y="-0.381" fill="DarkGray">0832</text><text transform="translate(6.5,113) scale(1.1547 1)" font-family="Arial" font-size="0.14" text-anchor="middle" x="0" y="-0.381" fill="DarkGray">0833</text><g transform="translate(6.5,115) scale(1.1547 1)"><circle r="0.4" cx="0" cy="0" stroke="#FFCC00" stroke-width="0.05" fill="none"/><text font-family="Arial" font-size="0.14" text-anchor="middle" x="0" y="-0.381" fill="DarkGray">0835</text></g></g><g transform="translate(-0.5,115.5) scale(1.1547 1)"><rect x="-0.113084" y="-0.35543" width="0.226167" height="0.260859" stroke="none" fill="White"/><text font-family="Arial" font-size="0.21" font-weight="bold" text-anchor="middle" x="0" y="-0.13575" fill="Black">C</text><circle r="0.1" cx="0" cy="0" stroke="none" fill="DeepSkyBlue"/><rect x="-0.587891" y="0.23957" width="1.17578" height="0.260859" stroke="none" fill="White"/><text font-family="Arial" font-size="0.21" font-weight="bold" text-anchor="middle" x="0" y="0.45925" fill="Black">Swinburne</text><text font-family="Arial" font-size="0.14" text-anchor="middle" x="0.25" y="0.2395" fill="Black">SoCf</text></g><g transform="translate(-0.5,117.5) scale(1.1547 1)"><rect x="-0.113084" y="-0.35543" width="0.226167" height="0.260859" stroke="none" fill="White"/><text font-family="Arial" font-size="0.21" font-weight="bold" text-anchor="middle" x="0" y="-0.13575" fill="Black">C</text><circle r="0.1" cx="0" cy="0" stroke="none" fill="DeepSkyBlue"/><rect x="-0.335593" y="0.23957" width="0.671187" height="0.260859" stroke="none" fill="White"/><text font-family="Arial" font-size="0.21" font-weight="bold" text-anchor="middle" x="0" y="0.45925" fill="Black">Erech</text><text font-family="Arial" font-size="0.14" text-anchor="middle" x="0.25" y="0.2395" fill="Black">SoCf</text></g><g transform="translate(0.5,111) scale(1.1547 1)"><circle transform="translate(0.25,-0.18)" r="0.05" cx="0" cy="0" stroke="none" fill="Black"/><rect x="-0.113084" y="-0.35543" width="0.226167" height="0.260859" stroke="none" fill="White"/><text font-family="Arial" font-size="0.21" font-weight="bold" text-anchor="middle" x="0" y="-0.13575" fill="Black">D</text><circle r="0.1" cx="0" cy="0" stroke="Black" stroke-width="0.015625" fill="White"/><rect x="-0.353435" y="0.23957" width="0.70687" height="0.260859" stroke="none" fill="White"/><text font-family="Arial" font-size="0.21" font-weight="bold" text-anchor="middle" x="0" y="0.45925" fill="Black">Luzon</text><text font-family="Arial" font-size="0.14" text-anchor="middle" x="0.25" y="0.2395" fill="Black">SoCf</text></g><g transform="translate(0.5,113) scale(1.1547 1)"><circle transform="translate(0.25,-0.18)" r="0.05" cx="0" cy="0" stroke="none" fill="Black"/><rect x="-0.113084" y="-0.35543" width="0.226167" height="0.260859" stroke="none" fill="White"/><text font-family="Arial" font-size="0.21" font-weight="bold" text-anchor="middle" x="0" y="-0.13575" fill="Black">A</text><text font-family="Arial Unicode MS,Segoe UI Symbol,Arial" font-size="0.21" font-weight="bold" text-anchor="middle" x="-0.25" y="-0.09075" fill="#E32736">★</text><text font-family="Arial Unicode MS,Segoe UI Symbol,Arial" font-size="0.21" font-weight="bold" text-anchor="middle" x="-0.25" y="0.26925" fill="Black">✦</text><circle r="0.1" cx="0" cy="0" stroke="none" fill="DeepSkyBlue"/><rect x="-0.437517" y="0.23957" width="0.875034" height="0.260859" stroke="none" fill="White"/><text font-family="Arial" font-size="0.21" font-weight="bold" text-anchor="middle" x="0" y="0.45925" fill="#E32736">JARDIN</text><text font-family="Arial" font-size="0.14" text-anchor="middle" x="0.25" y="0.2395" fill="Black">SoCf</text></g><g transform="translate(0.5,117) scale(1.1547 1)"><circle transform="translate(0.25,-0.18)" r="0.05" cx="0" cy="0" stroke="none" fill="Black"/><rect x="-0.113084" y="-0.35543" width="0.226167" height="0.260859" stroke="none" fill="White"/><text font-family="Arial" font-size="0.21" font-weight="bold" text-anchor="middle" x="0" y="-0.13575" fill="Black">B</text><circle r="0.1" cx="0" cy="0" stroke="Black" stroke-width="0.015625" fill="White"/><rect x="-0.473816" y="0.23957" width="0.947632" height="0.260859" stroke="none" fill="White"/><text font-family="Arial" font-size="0.21" font-weight="bold" text-anchor="middle" x="0" y="0.45925" fill="Black">Theseus</text><text font-family="Arial" font-size="0.14" text-anchor="middle" x="0.25" y="0.2395" fill="Black">SoCf</text></g><g transform="translate(0.5,119) scale(1.1547 1)"><circle transform="translate(0.25,-0.18)" r="0.05" cx="0" cy="0" stroke="none" fill="Black"/><rect x="-0.113084" y="-0.35543" width="0.226167" height="0.260859" stroke="none" fill="White"/><text font-family="Arial" font-size="0.21" font-weight="bold" text-anchor="middle" x="0" y="-0.13575" fill="Black">A</text><text font-family="Arial Unicode MS,Segoe UI Symbol,Arial" font-size="0.21" font-weight="bold" text-anchor="middle" x="-0.25" y="-0.09075" fill="#E32736">★</text><text font-family="Arial Unicode MS,Segoe UI Symbol,Arial" font-size="0.21" font-weight="bold" text-anchor="middle" x="-0.25" y="0.26925" fill="Black">✦</text><circle r="0.1" cx="0" cy="0" stroke="none" fill="DeepSkyBlue"/><rect x="-0.599734" y="0.23957" width="1.19947" height="0.260859" stroke="none" fill="White"/><text font-family="Arial" font-size="0.21" font-weight="bold" text-anchor="middle" x="0" y="0.45925" fill="Black">BARSOOM</text><text font-family="Arial" font-size="0.14" text-anchor="middle" x="0.25" y="0.2395" fill="Black">SoCf</text></g><g transform="translate(0.5,120) scale(1.1547 1)"><rect x="-0.113084" y="-0.35543" width="0.226167" height="0.260859" stroke="none" fill="White"/><text font-family="Arial" font-size="0.21" font-weight="bold" text-anchor="middle" x="0" y="-0.13575" fill="Black">A</text><circle r="0.1" cx="0" cy="0" stroke="none" fill="DeepSkyBlue"/><rect x="-0.563845" y="0.23957" width="1.12769" height="0.260859" stroke="none" fill="White"/><text font-family="Arial" font-size="0.21" font-weight="bold" text-anchor="middle" x="0" y="0.45925" fill="Black">Gladstone</text><text font-family="Arial" font-size="0.14" text-anchor="middle" x="0.25" y="0.2395" fill="Black">SoCf</text></g><g transform="translate(1.5,110.5) scale(1.1547 1)"><circle transform="translate(0.25,-0.18)" r="0.05" cx="0" cy="0" stroke="none" fill="Black"/><rect x="-0.113084" y="-0.35543" width="0.226167" height="0.260859" stroke="none" fill="White"/><text font-family="Arial" font-size="0.21" font-weight="bold" text-anchor="middle" x="0" y="-0.13575" fill="Black">B</text><circle r="0.1" cx="0" cy="0" stroke="Black" stroke-width="0.015625" fill="White"/><rect x="-0.395579" y="0.23957" width="0.791157" height="0.260859" stroke="none" fill="White"/><text font-family="Arial" font-size="0.21" font-weight="bold" text-anchor="middle" x="0" y="0.45925" fill="Black">Liberte</text><text font-family="Arial" font-size="0.14" text-anchor="middle" x="0.25" y="0.2395" fill="Black">SoCf</text></g><g transform="translate(1.5,111.5) scale(1.1547 1)"><circle transform="translate(0.25,-0.18)" r="0.05" cx="0" cy="0" stroke="none" fill="Black"/><rect x="-0.113084" y="-0.35543" width="0.226167" height="0.260859" stroke="none" fill="White"/><text font-family="Arial" font-size="0.21" font-weight="bold" text-anchor="middle" x="0" y="-0.13575" fill="Black">B</text><circle r="0.1" cx="0" cy="0" stroke="none" fill="DeepSkyBlue"/><rect x="-0.533647" y="0.23957" width="1.0673" height="0.260859" stroke="none" fill="White"/><text font-family="Arial" font-size="0.21" font-weight="bold" text-anchor="middle" x="0" y="0.45925" fill="Black">PILGHAM</text><text font-family="Arial" font-size="0.14" text-anchor="middle" x="0.25" y="0.2395" fill="Black">SoCf</text></g><g transform="translate(1.5,114.5) scale(1.1547 1)"><circle transform="translate(0.25,-0.18)" r="0.05" cx="0" cy="0" stroke="none" fill="Black"/><rect x="-0.113084" y="-0.35543" width="0.226167" height="0.260859" stroke="none" fill="White"/><text font-family="Arial" font-size="0.21" font-weight="bold" text-anchor="middle" x="0" y="-0.13575" fill="Black">C</text><circle r="0.1" cx="0" cy="0" stroke="none" fill="DeepSkyBlue"/><rect x="-0.431724" y="0.23957" width="0.863447" height="0.260859" stroke="none" fill="White"/><text font-family="Arial" font-size="0.21" font-weight="bold" text-anchor="middle" x="0" y="0.45925" fill="Black">Miasma</text><text font-family="Arial" font-size="0.14" text-anchor="middle" x="0.25" y="0.2395" fill="Black">SoCf</text></g><g transform="translate(2.5,112) scale(1.1547 1)"><circle transform="translate(0.25,-0.18)" r="0.05" cx="0" cy="0" stroke="none" fill="Black"/><rect x="-0.113084" y="-0.35543" width="0.226167" height="0.260859" stroke="none" fill="White"/><text font-family="Arial" font-size="0.21" font-weight="bold" text-anchor="middle" x="0" y="-0.13575" fill="Black">C</text><circle r="0.1" cx="0" cy="0" stroke="none" fill="DeepSkyBlue"/><rect x="-0.40168" y="0.23957" width="0.803359" height="0.260859" stroke="none" fill="White"/><text font-family="Arial" font-size="0.21" font-weight="bold" text-anchor="middle" x="0" y="0.45925" fill="Black">Kraken</text><text font-family="Arial" font-size="0.14" text-anchor="middle" x="0.25" y="0.2395" fill="Black">SoCf</text></g><g transform="translate(2.5,114) scale(1.1547 1)"><circle transform="translate(0.25,-0.18)" r="0.05" cx="0" cy="0" stroke="none" fill="Black"/><rect x="-0.113084" y="-0.35543" width="0.226167" height="0.260859" stroke="none" fill="White"/><text font-family="Arial" font-size="0.21" font-weight="bold" text-anchor="middle" x="0" y="-0.13575" fill="Black">B</text><circle r="0.1" cx="0" cy="0" stroke="Black" stroke-width="0.015625" fill="White"/><rect x="-0.413574" y="0.23957" width="0.827148" height="0.260859" stroke="none" fill="White"/><text font-family="Arial" font-size="0.21" font-weight="bold" text-anchor="middle" x="0" y="0.45925" fill="Black">Durgha</text><text font-family="Arial" font-size="0.14" text-anchor="middle" x="0.25" y="0.2395" fill="Black">SoCf</text></g><g transform="translate(2.5,117) scale(1.1547 1)"><circle transform="translate(0.25,-0.18)" r="0.05" cx="0" cy="0" stroke="none" fill="Black"/><rect x="-0.113084" y="-0.35543" width="0.226167" height="0.260859" stroke="none" fill="White"/><text font-family="Arial" font-size="0.21" font-weight="bold" text-anchor="middle" x="0" y="-0.13575" fill="Black">B</text><text font-family="Arial Unicode MS,Segoe UI Symbol,Arial" font-size="0.21" font-weight="bold" text-anchor="middle" x="-0.25" y="-0.09075" fill="#E32736">★</text><text font-family="Arial Unicode MS,Segoe UI Symbol,Arial" font-size="0.21" font-weight="bold" text-anchor="middle" x="-0.25" y="0.26925" fill="Black">✦</text><circle r="0.1" cx="0" cy="0" stroke="Black" stroke-width="0.015625" fill="White"/><rect x="-0.317393" y="0.23957" width="0.634785" height="0.260859" stroke="none" fill="White"/><text font-family="Arial" font-size="0.21" font-weight="bold" text-anchor="middle" x="0" y="0.45925" fill="Black">Dolor</text><text font-family="Arial" font-size="0.14" text-anchor="middle" x="0.25" y="0.2395" fill="Black">SoCf</text></g><g transform="translate(2.5,118) scale(1.1547 1)"><circle transform="translate(0.25,-0.18)" r="0.05" cx="0" cy="0" stroke="none" fill="Black"/><rect x="-0.113084" y="-0.35543" width="0.226167" height="0.260859" stroke="none" fill="White"/><text font-family="Arial" font-size="0.21" font-weight="bold" text-anchor="middle" x="0" y="-0.13575" fill="Black">B</text><circle r="0.1" cx="0" cy="0" stroke="none" fill="DeepSkyBlue"/><rect x="-0.563691" y="0.23957" width="1.12738" height="0.260859" stroke="none" fill="White"/><text font-family="Arial" font-size="0.21" font-weight="bold" text-anchor="middle" x="0" y="0.45925" fill="Black">Zhongguo</text><text font-family="Arial" font-size="0.14" text-anchor="middle" x="0.25" y="0.2395" fill="Black">SoCf</text></g><g transform="translate(2.5,120) scale(1.1547 1)"><circle transform="translate(0.25,-0.18)" r="0.05" cx="0" cy="0" stroke="none" fill="Black"/><rect x="-0.113084" y="-0.35543" width="0.226167" height="0.260859" stroke="none" fill="White"/><text font-family="Arial" font-size="0.21" font-weight="bold" text-anchor="middle" x="0" y="-0.13575" fill="Black">B</text><circle r="0.1" cx="0" cy="0" stroke="Black" stroke-width="0.015625" fill="White"/><rect x="-0.437722" y="0.23957" width="0.875444" height="0.260859" stroke="none" fill="White"/><text font-family="Arial" font-size="0.21" font-weight="bold" text-anchor="middle" x="0" y="0.45925" fill="Black">Ormadz</text><text font-family="Arial" font-size="0.14" text-anchor="middle" x="0.25" y="0.2395" fill="Black">SoCf</text></g><g transform="translate(3.5,111.5) scale(1.1547 1)"><circle transform="translate(0.25,-0.18)" r="0.05" cx="0" cy="0" stroke="none" fill="Black"/><rect x="-0.113084" y="-0.35543" width="0.226167" height="0.260859" stroke="none" fill="White"/><text font-family="Arial" font-size="0.21" font-weight="bold" text-anchor="middle" x="0" y="-0.13575" fill="Black">C</text><circle r="0.1" cx="0" cy="0" stroke="none" fill="DeepSkyBlue"/><rect x="-0.461716" y="0.23957" width="0.923433" height="0.260859" stroke="none" fill="White"/><text font-family="Arial" font-size="0.21" font-weight="bold" text-anchor="middle" x="0" y="0.45925" fill="Black">Cadmus</text><text font-family="Arial" font-size="0.14" text-anchor="middle" x="0.25" y="0.2395" fill="Black">SoCf</text></g><g transform="translate(3.5,112.5) scale(1.1547 1)"><circle transform="translate(0.25,-0.18)" r="0.05" cx="0" cy="0" stroke="none" fill="Black"/><rect x="-0.113084" y="-0.35543" width="0.226167" height="0.260859" stroke="none" fill="White"/><text font-family="Arial" font-size="0.21" font-weight="bold" text-anchor="middle" x="0" y="-0.13575" fill="Black">B</text><circle r="0.1" cx="0" cy="0" stroke="Black" stroke-width="0.015625" fill="White"/><rect x="-0.40168" y="0.23957" width="0.803359" height="0.260859" stroke="none" fill="White"/><text font-family="Arial" font-size="0.21" font-weight="bold" text-anchor="middle" x="0" y="0.45925" fill="Black">Skyron</text><text font-family="Arial" font-size="0.14" text-anchor="middle" x="0.25" y="0.2395" fill="Black">SoCf</text></g><g transform="translate(3.5,115.5) scale(1.1547 1)"><circle transform="translate(0.25,-0.18)" r="0.05" cx="0" cy="0" stroke="none" fill="Black"/><rect x="-0.113084" y="-0.35543" width="0.226167" height="0.260859" stroke="none" fill="White"/><text font-family="Arial" font-size="0.21" font-weight="bold" text-anchor="middle" x="0" y="-0.13575" fill="Black">C</text><circle r="0.1" cx="0" cy="0" stroke="none" fill="DeepSkyBlue"/><rect x="-0.407473" y="0.23957" width="0.814946" height="0.260859" stroke="none" fill="White"/><text font-family="Arial" font-size="0.21" font-weight="bold" text-anchor="middle" x="0" y="0.45925" fill="Black">Chinon</text><text font-family="Arial" font-size="0.14" text-anchor="middle" x="0.25" y="0.2395" fill="Black">SoCf</text></g><g transform="translate(4.5,112) scale(1.1547 1)"><circle transform="translate(0.25,-0.18)" r="0.05" cx="0" cy="0" stroke="none" fill="Black"/><rect x="-0.113084" y="-0.35543" width="0.226167" height="0.260859" stroke="none" fill="White"/><text font-family="Arial" font-size="0.21" font-weight="bold" text-anchor="middle" x="0" y="-0.13575" fill="Black">C</text><circle r="0.1" cx="0" cy="0" stroke="none" fill="DeepSkyBlue"/><rect x="-0.521804" y="0.23957" width="1.04361" height="0.260859" stroke="none" fill="White"/><text font-family="Arial" font-size="0.21" font-weight="bold" text-anchor="middle" x="0" y="0.45925" fill="Black">Sionnach</text><text font-family="Arial" font-size="0.14" text-anchor="middle" x="0.25" y="0.2395" fill="Black">SoCf</text></g><g transform="translate(4.5,117) scale(1.1547 1)"><rect x="-0.113084" y="-0.35543" width="0.226167" height="0.260859" stroke="none" fill="White"/><text font-family="Arial" font-size="0.21" font-weight="bold" text-anchor="middle" x="0" y="-0.13575" fill="Black">C</text><circle r="0.1" cx="0" cy="0" stroke="none" fill="DeepSkyBlue"/><rect x="-0.497708" y="0.23957" width="0.995415" height="0.260859" stroke="none" fill="White"/><text font-family="Arial" font-size="0.21" font-weight="bold" text-anchor="middle" x="0" y="0.45925" fill="Black">Nonsuch</text><text font-family="Arial" font-size="0.14" text-anchor="middle" x="0.25" y="0.2395" fill="Black">SoCf</text></g><g transform="translate(4.5,119) scale(1.1547 1)"><circle transform="translate(0.25,-0.18)" r="0.05" cx="0" cy="0" stroke="none" fill="Black"/><rect x="-0.113084" y="-0.35543" width="0.226167" height="0.260859" stroke="none" fill="White"/><text font-family="Arial" font-size="0.21" font-weight="bold" text-anchor="middle" x="0" y="-0.13575" fill="Black">B</text><circle r="0.1" cx="0" cy="0" stroke="none" fill="DeepSkyBlue"/><rect x="-0.455718" y="0.23957" width="0.911436" height="0.260859" stroke="none" fill="White"/><text font-family="Arial" font-size="0.21" font-weight="bold" text-anchor="middle" x="0" y="0.45925" fill="Black">Ptolemy</text><text font-family="Arial" font-size="0.14" text-anchor="middle" x="0.25" y="0.2395" fill="Black">SoCf</text></g><g transform="translate(4.5,120) scale(1.1547 1)"><circle transform="translate(0.25,-0.18)" r="0.05" cx="0" cy="0" stroke="none" fill="Black"/><rect x="-0.113084" y="-0.35543" width="0.226167" height="0.260859" stroke="none" fill="White"/><text font-family="Arial" font-size="0.21" font-weight="bold" text-anchor="middle" x="0" y="-0.13575" fill="Black">B</text><circle r="0.1" cx="0" cy="0" stroke="none" fill="DeepSkyBlue"/><rect x="-0.335542" y="0.23957" width="0.671084" height="0.260859" stroke="none" fill="White"/><text font-family="Arial" font-size="0.21" font-weight="bold" text-anchor="middle" x="0" y="0.45925" fill="Black">Arisia</text><text font-family="Arial" font-size="0.14" text-anchor="middle" x="0.25" y="0.2395" fill="Black">SoCf</text></g><g transform="translate(6.5,112) scale(1.1547 1)"><circle transform="translate(0.25,-0.18)" r="0.05" cx="0" cy="0" stroke="none" fill="Black"/><rect x="-0.113084" y="-0.35543" width="0.226167" height="0.260859" stroke="none" fill="White"/><text font-family="Arial" font-size="0.21" font-weight="bold" text-anchor="middle" x="0" y="-0.13575" fill="Black">D</text><circle r="0.1" cx="0" cy="0" stroke="none" fill="DeepSkyBlue"/><rect x="-0.443669" y="0.23957" width="0.887339" height="0.260859" stroke="none" fill="White"/><text font-family="Arial" font-size="0.21" font-weight="bold" text-anchor="middle" x="0" y="0.45925" fill="Black">Wallach</text><text font-family="Arial" font-size="0.14" text-anchor="middle" x="0.25" y="0.2395" fill="Black">SoCf</text></g><g transform="translate(6.5,113) scale(1.1547 1)"><rect x="-0.113084" y="-0.35543" width="0.226167" height="0.260859" stroke="none" fill="White"/><text font-family="Arial" font-size="0.21" font-weight="bold" text-anchor="middle" x="0" y="-0.13575" fill="Black">A</text><circle r="0.1" cx="0" cy="0" stroke="none" fill="DeepSkyBlue"/><rect x="-0.497913" y="0.23957" width="0.995825" height="0.260859" stroke="none" fill="White"/><text font-family="Arial" font-size="0.21" font-weight="bold" text-anchor="middle" x="0" y="0.45925" fill="Black">Thalassa</text><text font-family="Arial" font-size="0.14" text-anchor="middle" x="0.25" y="0.2395" fill="Black">SoCf</text></g><g transform="translate(6.5,115) scale(1.1547 1)"><circle transform="translate(0.25,-0.18)" r="0.05" cx="0" cy="0" stroke="none" fill="Black"/><rect x="-0.113084" y="-0.35543" width="0.226167" height="0.260859" stroke="none" fill="White"/><text font-family="Arial" font-size="0.21" font-weight="bold" text-anchor="middle" x="0" y="-0.13575" fill="Black">A</text><circle r="0.1" cx="0" cy="0" stroke="none" fill="DeepSkyBlue"/><rect x="-0.552002" y="0.23957" width="1.104" height="0.260859" stroke="none" fill="White"/><text font-family="Arial" font-size="0.21" font-weight="bold" text-anchor="middle" x="0" y="0.45925" fill="Black">Odysseus</text><text font-family="Arial" font-size="0.14" text-anchor="middle" x="0.25" y="0.2395" fill="Black">SoCf</text></g></g></svg>