<?xml version = "1.0" encoding="utf-8"?>
<svg version="1.1" baseProfile="full" xmlns="http://www.w3.org/2000/svg" xmlns:xlink="http://www.w3.org/1999/xlink" width="471" height="684" viewBox="0 0 471 684" clip="0 471 0 684"><defs><clipPath id="did1"><rect x="-105.25" y="-60.1" width="8.5" height="10.7"/></clipPath><clipPath id="did2"><path d="M-127.833,-56.5l-0.333336,-0.5l0.333336,-0.5h0.666672l0.333328,-0.5h0.666672l0.333328,-0.5l-0.333328,-0.5l0.333328,-0.5h0.666672l0.333328,0.5h0.666672l0.333328,-0.5h0.666672l0.333328,-0.5h0.666672l0.333328,0.5h0.666672l0.333328,0.5l-0.333328,0.5l0.333328,0.5l-0.333328,0.5h-0.666672l-0.333328,0.5l0.333328,0.5l-0.333328,0.5l0.333328,0.5l-0.333328,0.5l0.333328,0.5l-0.333328,0.5l0.333328,0.5l-0.333328,0.5l0.333328,0.5l-0.333328,0.5h-0.666672l-0.333328,-0.5h-0.666672l-0.333328,-0.5h-0.666672l-0.333328,0.5h-0.666672l-0.333328,-0.5l0.333328,-0.5l-0.333328,-0.5h-0.666672l-0.333328,-0.5l0.333328,-0.5l-0.333328,-0.5h-0.666672l-0.333336,-0.5Z"/></clipPath><clipPath id="did3"><path d="M-123.833,-59.5l-0.333328,-0.5l0.333328,-0.5h0.666672l0.333328,-0.5h0.666672l0.333328,0.5h0.666672l0.333328,0.5h0.666672l0.333328,0.5h0.666672l0.333328,-0.5h0.666672l0.333328,0.5h0.666672l0.333328,0.5h0.666672l0.333328,-0.5h0.666672l0.333328,0.5h0.666672l0.333328,0.5l-0.333328,0.5l0.333328,0.5l-0.333328,0.5l0.333328,0.5l-0.333328,0.5l0.333328,0.5l-0.333328,0.5l0.333328,0.5h0.666672l0.333328,0.5l-0.333328,0.5l0.333328,0.5l-0.333328,0.5l0.333328,0.5l-0.333328,0.5h-0.666672l-0.333328,0.5h-0.666672l-0.333328,-0.5l0.333328,-0.5l-0.333328,-0.5h-0.666672l-0.333328,-0.5h-0.666672l-0.333328,0.5h-0.666672l-0.333328,0.5l0.333328,0.5l-0.333328,0.5l0.333328,0.5l-0.333328,0.5h-0.666672l-0.333328,-0.5l0.333328,-0.5l-0.333328,-0.5h-0.666672l-0.333328,-0.5h-0.666672l-0.333328,-0.5l0.333328,-0.5l-0.333328,-0.5l0.333328,-0.5l-0.333328,-0.5l0.333328,-0.5l-0.333328,-0.5l0.333328,-0.5l-0.333328,-0.5l0.333328,-0.5l-0.333328,-0.5l0.333328,-0.5l-0.333328,-0.5l0.333328,-0.5l-0.333328,-0.5h-0.666672l-0.333328,-0.5h-0.666672l-0.333328,0.5Z"/></clipPath><clipPath id="did4"><path d="M-129.833,-79.5l-0.333344,-0.5l0.333344,-0.5h0.666657l0.333344,-0.5h0.666657l0.333336,0.5h0.666672l0.333328,0.5l-0.333328,0.5h-0.666672l-0.333336,0.5l0.333336,0.5h0.666672l0.333328,0.5h0.666672l0.333328,0.5h0.666672l0.333328,0.5h0.666672l0.333328,0.5h0.666672l0.333328,0.5h0.666672l0.333328,-0.5h0.666672l0.333328,-0.5h0.666672l0.333328,-0.5h0.666672l0.333328,-0.5l-0.333328,-0.5l0.333328,-0.5h0.666672l0.333328,-0.5h0.666672l0.333328,0.5h0.666672l0.333328,-0.5h0.666672l0.333328,0.5l-0.333328,0.5l0.333328,0.5l-0.333328,0.5h-0.666672l-0.333328,0.5h-0.666672l-0.333328,-0.5h-0.666672l-0.333328,0.5h-0.666672l-0.333328,0.5h-0.666672l-0.333328,0.5h-0.666672l-0.333328,0.5h-0.666672l-0.333328,0.5h-0.666672l-0.333328,-0.5h-0.666672l-0.333328,0.5l0.333328,0.5l-0.333328,0.5l0.333328,0.5l-0.333328,0.5l0.333328,0.5h0.666672l0.333328,0.5l-0.333328,0.5l0.333328,0.5l-0.333328,0.5l0.333328,0.5l-0.333328,0.5l0.333328,0.5h0.666672l0.333328,0.5l-0.333328,0.5h-0.666672l-0.333328,0.5l0.333328,0.5l-0.333328,0.5l0.333328,0.5l-0.333328,0.5h-0.666672l-0.333328,-0.5h-0.666672l-0.333328,-0.5h-0.666672l-0.333328,-0.5l0.333328,-0.5l-0.333328,-0.5l0.333328,-0.5h0.666672l0.333328,-0.5l-0.333328,-0.5l0.333328,-0.5h0.666672l0.333328,-0.5l-0.333328,-0.5l0.333328,-0.5l-0.333328,-0.5h-0.666672l-0.333328,-0.5h-0.666672l-0.333328,-0.5h-0.666672l-0.333328,-0.5h-0.666672l-0.333336,-0.5h-0.666657l-0.333344,0.5h-0.666657l-0.333344,-0.5l0.333344,-0.5l-0.333344,-0.5l0.333344,-0.5l-0.333344,-0.5l0.333344,-0.5l-0.333344,-0.5l0.333344,-0.5l-0.333344,-0.5l0.333344,-0.5l-0.333344,-0.5Z"/></clipPath><clipPath id="did5"><path d="M-119.833,-74.5l-0.333328,-0.5l0.333328,-0.5h0.666672l0.333328,-0.5h0.666672l0.333328,-0.5h0.666672l0.333328,0.5h0.666672l0.333328,0.5h0.666672l0.333328,-0.5h0.666672l0.333328,-0.5h0.666672l0.333328,-0.5h0.666672l0.333328,-0.5l-0.333328,-0.5l0.333328,-0.5h0.666672l0.333328,0.5h0.666672l0.333328,-0.5h0.666672l0.333328,-0.5h0.666672l0.333328,-0.5h0.666672l0.333328,0.5h0.666672l0.333328,0.5h0.666672l0.333328,-0.5h0.666672l0.333328,-0.5h0.666672l0.333328,-0.5h0.666672l0.333328,0.5h0.666672l0.333328,0.5h0.666672l0.333328,-0.5h0.666672l0.333328,0.5h0.666672l0.333328,-0.5h0.666672l0.333328,0.5h0.666672l0.333328,0.5l-0.333328,0.5l0.333328,0.5l-0.333328,0.5l0.333328,0.5l-0.333328,0.5l0.333328,0.5l-0.333328,0.5l0.333328,0.5l-0.333328,0.5l0.333328,0.5l-0.333328,0.5l0.333328,0.5l-0.333328,0.5l0.333328,0.5l-0.333328,0.5l0.333328,0.5l-0.333328,0.5l0.333328,0.5l-0.333328,0.5l0.333328,0.5l-0.333328,0.5l0.333328,0.5l-0.333328,0.5l0.333328,0.5l-0.333328,0.5l0.333328,0.5l-0.333328,0.5l0.333328,0.5l-0.333328,0.5l0.333328,0.5l-0.333328,0.5l0.333328,0.5l-0.333328,0.5l0.333328,0.5l-0.333328,0.5l0.333328,0.5l-0.333328,0.5l0.333328,0.5l-0.333328,0.5l0.333328,0.5l-0.333328,0.5l0.333328,0.5l-0.333328,0.5l0.333328,0.5l-0.333328,0.5l0.333328,0.5l-0.333328,0.5l0.333328,0.5l-0.333328,0.5l0.333328,0.5l-0.333328,0.5l0.333328,0.5l-0.333328,0.5l0.333328,0.5l-0.333328,0.5l0.333328,0.5l-0.333328,0.5l0.333328,0.5l-0.333328,0.5l0.333328,0.5l-0.333328,0.5l0.333328,0.5l-0.333328,0.5l0.333328,0.5l-0.333328,0.5l0.333328,0.5l-0.333328,0.5l0.333328,0.5l-0.333328,0.5l0.333328,0.5l-0.333328,0.5l0.333328,0.5l-0.333328,0.5l0.333328,0.5l-0.333328,0.5l0.333328,0.5l-0.333328,0.5l0.333328,0.5l-0.333328,0.5h-0.666672l-0.333328,0.5h-0.666672l-0.333328,-0.5h-0.666672l-0.333328,0.5h-0.666672l-0.333328,-0.5h-0.666672l-0.333328,0.5h-0.666672l-0.333328,-0.5h-0.666672l-0.333328,0.5h-0.666672l-0.333328,-0.5h-0.666672l-0.333328,0.5h-0.666672l-0.333328,-0.5h-0.666672l-0.333328,0.5h-0.666672l-0.333328,-0.5h-0.666672l-0.333328,0.5h-0.666672l-0.333328,-0.5h-0.666672l-0.333328,-0.5h-0.666672l-0.333328,-0.5l0.333328,-0.5l-0.333328,-0.5h-0.666672l-0.333328,-0.5l0.333328,-0.5l-0.333328,-0.5h-0.666672l-0.333328,-0.5h-0.666672l-0.333328,-0.5l0.333328,-0.5h0.666672l0.333328,-0.5h0.666672l0.333328,-0.5h0.666672l0.333328,-0.5l-0.333328,-0.5l0.333328,-0.5l-0.333328,-0.5h-0.666672l-0.333328,-0.5l0.333328,-0.5h0.666672l0.333328,-0.5l-0.333328,-0.5h-0.666672l-0.333328,-0.5l0.333328,-0.5l-0.333328,-0.5l0.333328,-0.5l-0.333328,-0.5l0.333328,-0.5l-0.333328,-0.5l0.333328,-0.5l-0.333328,-0.5l0.333328,-0.5h0.666672l0.333328,-0.5l-0.333328,-0.5l0.333328,-0.5l-0.333328,-0.5l0.333328,-0.5l-0.333328,-0.5l0.333328,-0.5l-0.333328,-0.5l0.333328,-0.5l-0.333328,-0.5h-0.666672l-0.333328,-0.5h-0.666672l-0.333328,-0.5h-0.666672l-0.333328,-0.5h-0.666672l-0.333328,0.5h-0.666672l-0.333328,-0.5h-0.666672l-0.333328,-0.5h-0.666672l-0.333328,0.5l0.333328,0.5l-0.333328,0.5h-0.666672l-0.333328,-0.5l0.333328,-0.5l-0.333328,-0.5l0.333328,-0.5l-0.333328,-0.5l0.333328,-0.5h0.666672l0.333328,-0.5l-0.333328,-0.5l0.333328,-0.5l-0.333328,-0.5l0.333328,-0.5h0.666672l0.333328,-0.5l-0.333328,-0.5l0.333328,-0.5h0.666672l0.333328,-0.5l-0.333328,-0.5l0.333328,-0.5h0.666672l0.333328,-0.5h0.666672l0.333328,-0.5h0.666672l0.333328,-0.5h0.666672l0.333328,-0.5h0.666672l0.333328,-0.5h0.666672l0.333328,-0.5l-0.333328,-0.5h-0.666672l-0.333328,-0.5h-0.666672l-0.333328,-0.5h-0.666672l-0.333328,-0.5h-0.666672l-0.333328,0.5h-0.666672l-0.333328,-0.5h-0.666672l-0.333328,0.5h-0.666672l-0.333328,-0.5h-0.666672l-0.333328,-0.5h-0.666672l-0.333328,-0.5Z"/></clipPath><clipPath id="did6"><path d="M-116.833,-51l-0.333328,-0.5l0.333328,-0.5h0.666672l0.333328,0.5h0.666672l0.333328,0.5l-0.333328,0.5l0.333328,0.5l-0.333328,0.5h-0.666672l-0.333328,-0.5h-0.666672l-0.333328,-0.5Z"/></clipPath><clipPath id="did7"><path d="M-128.833,-47l-0.333344,-0.5l0.333344,-0.5h0.666657l0.333336,-0.5h0.666672l0.333328,-0.5h0.666672l0.333328,0.5h0.666672l0.333328,0.5h0.666672l0.333328,-0.5h0.666672l0.333328,-0.5h0.666672l0.333328,0.5l-0.333328,0.5l0.333328,0.5l-0.333328,0.5h-0.666672l-0.333328,0.5h-0.666672l-0.333328,0.5l0.333328,0.5h0.666672l0.333328,0.5l-0.333328,0.5l0.333328,0.5h0.666672l0.333328,0.5l-0.333328,0.5l0.333328,0.5l-0.333328,0.5h-0.666672l-0.333328,0.5h-0.666672l-0.333328,0.5h-0.666672l-0.333328,-0.5h-0.666672l-0.333328,0.5h-0.666672l-0.333328,-0.5h-0.666672l-0.333336,0.5h-0.666657l-0.333344,-0.5l0.333344,-0.5l-0.333344,-0.5l0.333344,-0.5l-0.333344,-0.5l0.333344,-0.5l-0.333344,-0.5l0.333344,-0.5l-0.333344,-0.5l0.333344,-0.5l-0.333344,-0.5Z"/></clipPath><clipPath id="did8"><path d="M-120.833,-50l-0.333328,-0.5l0.333328,-0.5h0.666672l0.333328,0.5l-0.333328,0.5Z"/></clipPath><clipPath id="did9"><rect x="-105.25" y="-60.1" width="8.5" height="10.7"/></clipPath><clipPath id="did10"><rect x="-105.25" y="-60.1" width="8.5" height="10.7"/></clipPath></defs><g fill="None" stroke="None" transform="matrix(1,0,0,1,0,0) matrix(55.4256,0,0,64,5833.55,3846.4)"><g clip-path="url(#did1)"><rect x="-106.1" y="-61.17" width="10.2" height="12.84" stroke="none" fill="White"/><path d="M-107.167,-61.5v0l0.333328,0.5h0.666672l0.333328,-0.5" stroke="#808080" stroke-width="0.015625" fill="none"/><path d="M-107.167,-60.5v0l0.333328,0.5h0.666672l0.333328,-0.5" stroke="#808080" stroke-width="0.015625" fill="none"/><path d="M-107.167,-59.5v0l0.333328,0.5h0.666672l0.333328,-0.5" stroke="#808080" stroke-width="0.015625" fill="none"/><path d="M-107.167,-58.5v0l0.333328,0.5h0.666672l0.333328,-0.5" stroke="#808080" stroke-width="0.015625" fill="none"/><path d="M-107.167,-57.5v0l0.333328,0.5h0.666672l0.333328,-0.5" stroke="#808080" stroke-width="0.015625" fill="none"/><path d="M-107.167,-56.5v0l0.333328,0.5h0.666672l0.333328,-0.5" stroke="#808080" stroke-width="0.015625" fill="none"/><path d="M-107.167,-55.5v0l0.333328,0.5h0.666672l0.333328,-0.5" stroke="#808080" stroke-width="0.015625" fill="none"/><path d="M-107.167,-54.5v0l0.333328,0.5h0.666672l0.333328,-0.5" stroke="#808080" stroke-width="0.015625" fill="none"/><path d="M-107.167,-53.5v0l0.333328,0.5h0.666672l0.333328,-0.5" stroke="#808080" stroke-width="0.015625" fill="none"/><path d="M-107.167,-52.5v0l0.333328,0.5h0.666672l0.333328,-0.5" stroke="#808080" stroke-width="0.015625" fill="none"/><path d="M-107.167,-51.5v0l0.333328,0.5h0.666672l0.333328,-0.5" stroke="#808080" stroke-width="0.015625" fill="none"/><path d="M-107.167,-50.5v0l0.333328,0.5h0.666672l0.333328,-0.5" stroke="#808080" stroke-width="0.015625" fill="none"/><path d="M-107.167,-49.5v0l0.333328,0.5h0.666672l0.333328,-0.5" stroke="#808080" stroke-width="0.015625" fill="none"/><path d="M-106.167,-61v0l0.333328,0.5h0.666672l0.333328,-0.5" stroke="#808080" stroke-width="0.015625" fill="none"/><path d="M-106.167,-60v0l0.333328,0.5h0.666672l0.333328,-0.5" stroke="#808080" stroke-width="0.015625" fill="none"/><path d="M-106.167,-59v0l0.333328,0.5h0.666672l0.333328,-0.5" stroke="#808080" stroke-width="0.015625" fill="none"/><path d="M-106.167,-58v0l0.333328,0.5h0.666672l0.333328,-0.5" stroke="#808080" stroke-width="0.015625" fill="none"/><path d="M-106.167,-57v0l0.333328,0.5h0.666672l0.333328,-0.5" stroke="#808080" stroke-width="0.015625" fill="none"/><path d="M-106.167,-56v0l0.333328,0.5h0.666672l0.333328,-0.5" stroke="#808080" stroke-width="0.015625" fill="none"/><path d="M-106.167,-55v0l0.333328,0.5h0.666672l0.333328,-0.5" stroke="#808080" stroke-width="0.015625" fill="none"/><path d="M-106.167,-54v0l0.333328,0.5h0.666672l0.333328,-0.5" stroke="#808080" stroke-width="0.015625" fill="none"/><path d="M-106.167,-53v0l0.333328,0.5h0.666672l0.333328,-0.5" stroke="#808080" stroke-width="0.015625" fill="none"/><path d="M-106.167,-52v0l0.333328,0.5h0.666672l0.333328,-0.5" stroke="#808080" stroke-width="0.015625" fill="none"/><path d="M-106.167,-51v0l0.333328,0.5h0.666672l0.333328,-0.5" stroke="#808080" stroke-width="0.015625" fill="none"/><path d="M-106.167,-50v0l0.333328,0.5h0.666672l0.333328,-0.5" stroke="#808080" stroke-width="0.015625" fill="none"/><path d="M-106.167,-49v0l0.333328,0.5h0.666672l0.333328,-0.5" stroke="#808080" stroke-width="0.015625" fill="none"/><path d="M-105.167,-61.5v0l0.333328,0.5h0.666672l0.333328,-0.5" stroke="#808080" stroke-width="0.015625" fill="none"/><path d="M-105.167,-60.5v0l0.333328,0.5h0.666672l0.333328,-0.5" stroke="#808080" stroke-width="0.015625" fill="none"/><path d="M-105.167,-59.5v0l0.333328,0.5h0.666672l0.333328,-0.5" stroke="#808080" stroke-width="0.015625" fill="none"/><path d="M-105.167,-58.5v0l0.333328,0.5h0.666672l0.333328,-0.5" stroke="#808080" stroke-width="0.015625" fill="none"/><path d="M-105.167,-57.5v0l0.333328,0.5h0.666672l0.333328,-0.5" stroke="#808080" stroke-width="0.015625" fill="none"/><path d="M-105.167,-56.5v0l0.333328,0.5h0.666672l0.333328,-0.5" stroke="#808080" stroke-width="0.015625" fill="none"/><path d="M-105.167,-55.5v0l0.333328,0.5h0.666672l0.333328,-0.5" stroke="#808080" stroke-width="0.015625" fill="none"/><path d="M-105.167,-54.5v0l0.333328,0.5h0.666672l0.333328,-0.5" stroke="#808080" stroke-width="0.015625" fill="none"/><path d="M-105.167,-53.5v0l0.333328,0.5h0.666672l0.333328,-0.5" stroke="#808080" stroke-width="0.015625" fill="none"/><path d="M-105.167,-52.5v0l0.333328,0.5h0.666672l0.333328,-0.5" stroke="#808080" stroke-width="0.015625" fill="none"/><path d="M-105.167,-51.5v0l0.333328,0.5h0.666672l0.333328,-0.5" stroke="#808080" stroke-width="0.015625" fill="none"/><path d="M-105.167,-50.5v0l0.333328,0.5h0.666672l0.333328,-0.5" stroke="#808080" stroke-width="0.015625" fill="none"/><path d="M-105.167,-49.5v0l0.333328,0.5h0.666672l0.333328,-0.5" stroke="#808080" stroke-width="0.015625" fill="none"/><path d="M-104.167,-61v0l0.333328,0.5h0.666672l0.333328,-0.5" stroke="#808080" stroke-width="0.015625" fill="none"/><path d="M-104.167,-60v0l0.333328,0.5h0.666672l0.333328,-0.5" stroke="#808080" stroke-width="0.015625" fill="none"/><path d="M-104.167,-59v0l0.333328,0.5h0.666672l0.333328,-0.5" stroke="#808080" stroke-width="0.015625" fill="none"/><path d="M-104.167,-58v0l0.333328,0.5h0.666672l0.333328,-0.5" stroke="#808080" stroke-width="0.015625" fill="none"/><path d="M-104.167,-57v0l0.333328,0.5h0.666672l0.333328,-0.5" stroke="#808080" stroke-width="0.015625" fill="none"/><path d="M-104.167,-56v0l0.333328,0.5h0.666672l0.333328,-0.5" stroke="#808080" stroke-width="0.015625" fill="none"/><path d="M-104.167,-55v0l0.333328,0.5h0.666672l0.333328,-0.5" stroke="#808080" stroke-width="0.015625" fill="none"/><path d="M-104.167,-54v0l0.333328,0.5h0.666672l0.333328,-0.5" stroke="#808080" stroke-width="0.015625" fill="none"/><path d="M-104.167,-53v0l0.333328,0.5h0.666672l0.333328,-0.5" stroke="#808080" stroke-width="0.015625" fill="none"/><path d="M-104.167,-52v0l0.333328,0.5h0.666672l0.333328,-0.5" stroke="#808080" stroke-width="0.015625" fill="none"/><path d="M-104.167,-51v0l0.333328,0.5h0.666672l0.333328,-0.5" stroke="#808080" stroke-width="0.015625" fill="none"/><path d="M-104.167,-50v0l0.333328,0.5h0.666672l0.333328,-0.5" stroke="#808080" stroke-width="0.015625" fill="none"/><path d="M-104.167,-49v0l0.333328,0.5h0.666672l0.333328,-0.5" stroke="#808080" stroke-width="0.015625" fill="none"/><path d="M-103.167,-61.5v0l0.333328,0.5h0.666672l0.333328,-0.5" stroke="#808080" stroke-width="0.015625" fill="none"/><path d="M-103.167,-60.5v0l0.333328,0.5h0.666672l0.333328,-0.5" stroke="#808080" stroke-width="0.015625" fill="none"/><path d="M-103.167,-59.5v0l0.333328,0.5h0.666672l0.333328,-0.5" stroke="#808080" stroke-width="0.015625" fill="none"/><path d="M-103.167,-58.5v0l0.333328,0.5h0.666672l0.333328,-0.5" stroke="#808080" stroke-width="0.015625" fill="none"/><path d="M-103.167,-57.5v0l0.333328,0.5h0.666672l0.333328,-0.5" stroke="#808080" stroke-width="0.015625" fill="none"/><path d="M-103.167,-56.5v0l0.333328,0.5h0.666672l0.333328,-0.5" stroke="#808080" stroke-width="0.015625" fill="none"/><path d="M-103.167,-55.5v0l0.333328,0.5h0.666672l0.333328,-0.5" stroke="#808080" stroke-width="0.015625" fill="none"/><path d="M-103.167,-54.5v0l0.333328,0.5h0.666672l0.333328,-0.5" stroke="#808080" stroke-width="0.015625" fill="none"/><path d="M-103.167,-53.5v0l0.333328,0.5h0.666672l0.333328,-0.5" stroke="#808080" stroke-width="0.015625" fill="none"/><path d="M-103.167,-52.5v0l0.333328,0.5h0.666672l0.333328,-0.5" stroke="#808080" stroke-width="0.015625" fill="none"/><path d="M-103.167,-51.5v0l0.333328,0.5h0.666672l0.333328,-0.5" stroke="#808080" stroke-width="0.015625" fill="none"/><path d="M-103.167,-50.5v0l0.333328,0.5h0.666672l0.333328,-0.5" stroke="#808080" stroke-width="0.015625" fill="none"/><path d="M-103.167,-49.5v0l0.333328,0.5h0.666672l0.333328,-0.5" stroke="#808080" stroke-width="0.015625" fill="none"/><path d="M-102.167,-61v0l0.333328,0.5h0.666672l0.333328,-0.5" stroke="#808080" stroke-width="0.015625" fill="none"/><path d="M-102.167,-60v0l0.333328,0.5h0.666672l0.333328,-0.5" stroke="#808080" stroke-width="0.015625" fill="none"/><path d="M-102.167,-59v0l0.333328,0.5h0.666672l0.333328,-0.5" stroke="#808080" stroke-width="0.015625" fill="none"/><path d="M-102.167,-58v0l0.333328,0.5h0.666672l0.333328,-0.5" stroke="#808080" stroke-width="0.015625" fill="none"/><path d="M-102.167,-57v0l0.333328,0.5h0.666672l0.333328,-0.5" stroke="#808080" stroke-width="0.015625" fill="none"/><path d="M-102.167,-56v0l0.333328,0.5h0.666672l0.333328,-0.5" stroke="#808080" stroke-width="0.015625" fill="none"/><path d="M-102.167,-55v0l0.333328,0.5h0.666672l0.333328,-0.5" stroke="#808080" stroke-width="0.015625" fill="none"/><path d="M-102.167,-54v0l0.333328,0.5h0.666672l0.333328,-0.5" stroke="#808080" stroke-width="0.015625" fill="none"/><path d="M-102.167,-53v0l0.333328,0.5h0.666672l0.333328,-0.5" stroke="#808080" stroke-width="0.015625" fill="none"/><path d="M-102.167,-52v0l0.333328,0.5h0.666672l0.333328,-0.5" stroke="#808080" stroke-width="0.015625" fill="none"/><path d="M-102.167,-51v0l0.333328,0.5h0.666672l0.333328,-0.5" stroke="#808080" stroke-width="0.015625" fill="none"/><path d="M-102.167,-50v0l0.333328,0.5h0.666672l0.333328,-0.5" stroke="#808080" stroke-width="0.015625" fill="none"/><path d="M-102.167,-49v0l0.333328,0.5h0.666672l0.333328,-0.5" stroke="#808080" stroke-width="0.015625" fill="none"/><path d="M-101.167,-61.5v0l0.333328,0.5h0.666672l0.333328,-0.5" stroke="#808080" stroke-width="0.015625" fill="none"/><path d="M-101.167,-60.5v0l0.333328,0.5h0.666672l0.333328,-0.5" stroke="#808080" stroke-width="0.015625" fill="none"/><path d="M-101.167,-59.5v0l0.333328,0.5h0.666672l0.333328,-0.5" stroke="#808080" stroke-width="0.015625" fill="none"/><path d="M-101.167,-58.5v0l0.333328,0.5h0.666672l0.333328,-0.5" stroke="#808080" stroke-width="0.015625" fill="none"/><path d="M-101.167,-57.5v0l0.333328,0.5h0.666672l0.333328,-0.5" stroke="#808080" stroke-width="0.015625" fill="none"/><path d="M-101.167,-56.5v0l0.333328,0.5h0.666672l0.333328,-0.5" stroke="#808080" stroke-width="0.015625" fill="none"/><path d="M-101.167,-55.5v0l0.333328,0.5h0.666672l0.333328,-0.5" stroke="#808080" stroke-width="0.015625" fill="none"/><path d="M-101.167,-54.5v0l0.333328,0.5h0.666672l0.333328,-0.5" stroke="#808080" stroke-width="0.015625" fill="none"/><path d="M-101.167,-53.5v0l0.333328,0.5h0.666672l0.333328,-0.5" stroke="#808080" stroke-width="0.015625" fill="none"/><path d="M-101.167,-52.5v0l0.333328,0.5h0.666672l0.333328,-0.5" stroke="#808080" stroke-width="0.015625" fill="none"/><path d="M-101.167,-51.5v0l0.333328,0.5h0.666672l0.333328,-0.5" stroke="#808080" stroke-width="0.015625" fill="none"/><path d="M-101.167,-50.5v0l0.333328,0.5h0.666672l0.333328,-0.5" stroke="#808080" stroke-width="0.015625" fill="none"/><path d="M-101.167,-49.5v0l0.333328,0.5h0.666672l0.333328,-0.5" stroke="#808080" stroke-width="0.015625" fill="none"/><path d="M-100.167,-61v0l0.333328,0.5h0.666672l0.333328,-0.5" stroke="#808080" stroke-width="0.015625" fill="none"/><path d="M-100.167,-60v0l0.333328,0.5h0.666672l0.333328,-0.5" stroke="#808080" stroke-width="0.015625" fill="none"/><path d="M-100.167,-59v0l0.333328,0.5h0.666672l0.333328,-0.5" stroke="#808080" stroke-width="0.015625" fill="none"/><path d="M-100.167,-58v0l0.333328,0.5h0.666672l0.333328,-0.5" stroke="#808080" stroke-width="0.015625" fill="none"/><path d="M-100.167,-57v0l0.333328,0.5h0.666672l0.333328,-0.5" stroke="#808080" stroke-width="0.015625" fill="none"/><path d="M-100.167,-56v0l0.333328,0.5h0.666672l0.333328,-0.5" stroke="#808080" stroke-width="0.015625" fill="none"/><path d="M-100.167,-55v0l0.333328,0.5h0.666672l0.333328,-0.5" stroke="#808080" stroke-width="0.015625" fill="none"/><path d="M-100.167,-54v0l0.333328,0.5h0.666672l0.333328,-0.5" stroke="#808080" stroke-width="0.015625" fill="none"/><path d="M-100.167,-53v0l0.333328,0.5h0.666672l0.333328,-0.5" stroke="#808080" stroke-width="0.015625" fill="none"/><path d="M-100.167,-52v0l0.333328,0.5h0.666672l0.333328,-0.5" stroke="#808080" stroke-width="0.015625" fill="none"/><path d="M-100.167,-51v0l0.333328,0.5h0.666672l0.333328,-0.5" stroke="#808080" stroke-width="0.015625" fill="none"/><path d="M-100.167,-50v0l0.333328,0.5h0.666672l0.333328,-0.5" stroke="#808080" stroke-width="0.015625" fill="none"/><path d="M-100.167,-49v0l0.333328,0.5h0.666672l0.333328,-0.5" stroke="#808080" stroke-width="0.015625" fill="none"/><path d="M-99.1667,-61.5v0l0.333328,0.5h0.666672l0.333328,-0.5" stroke="#808080" stroke-width="0.015625" fill="none"/><path d="M-99.1667,-60.5v0l0.333328,0.5h0.666672l0.333328,-0.5" stroke="#808080" stroke-width="0.015625" fill="none"/><path d="M-99.1667,-59.5v0l0.333328,0.5h0.666672l0.333328,-0.5" stroke="#808080" stroke-width="0.015625" fill="none"/><path d="M-99.1667,-58.5v0l0.333328,0.5h0.666672l0.333328,-0.5" stroke="#808080" stroke-width="0.015625" fill="none"/><path d="M-99.1667,-57.5v0l0.333328,0.5h0.666672l0.333328,-0.5" stroke="#808080" stroke-width="0.015625" fill="none"/><path d="M-99.1667,-56.5v0l0.333328,0.5h0.666672l0.333328,-0.5" stroke="#808080" stroke-width="0.015625" fill="none"/><path d="M-99.1667,-55.5v0l0.333328,0.5h0.666672l0.333328,-0.5" stroke="#808080" stroke-width="0.015625" fill="none"/><path d="M-99.1667,-54.5v0l0.333328,0.5h0.666672l0.333328,-0.5" stroke="#808080" stroke-width="0.015625" fill="none"/><path d="M-99.1667,-53.5v0l0.333328,0.5h0.666672l0.333328,-0.5" stroke="#808080" stroke-width="0.015625" fill="none"/><path d="M-99.1667,-52.5v0l0.333328,0.5h0.666672l0.333328,-0.5" stroke="#808080" stroke-width="0.015625" fill="none"/><path d="M-99.1667,-51.5v0l0.333328,0.5h0.666672l0.333328,-0.5" stroke="#808080" stroke-width="0.015625" fill="none"/><path d="M-99.1667,-50.5v0l0.333328,0.5h0.666672l0.333328,-0.5" stroke="#808080" stroke-width="0.015625" fill="none"/><path d="M-99.1667,-49.5v0l0.333328,0.5h0.666672l0.333328,-0.5" stroke="#808080" stroke-width="0.015625" fill="none"/><path d="M-98.1667,-61v0l0.333328,0.5h0.666672l0.333328,-0.5" stroke="#808080" stroke-width="0.015625" fill="none"/><path d="M-98.1667,-60v0l0.333328,0.5h0.666672l0.333328,-0.5" stroke="#808080" stroke-width="0.015625" fill="none"/><path d="M-98.1667,-59v0l0.333328,0.5h0.666672l0.333328,-0.5" stroke="#808080" stroke-width="0.015625" fill="none"/><path d="M-98.1667,-58v0l0.333328,0.5h0.666672l0.333328,-0.5" stroke="#808080" stroke-width="0.015625" fill="none"/><path d="M-98.1667,-57v0l0.333328,0.5h0.666672l0.333328,-0.5" stroke="#808080" stroke-width="0.015625" fill="none"/><path d="M-98.1667,-56v0l0.333328,0.5h0.666672l0.333328,-0.5" stroke="#808080" stroke-width="0.015625" fill="none"/><path d="M-98.1667,-55v0l0.333328,0.5h0.666672l0.333328,-0.5" stroke="#808080" stroke-width="0.015625" fill="none"/><path d="M-98.1667,-54v0l0.333328,0.5h0.666672l0.333328,-0.5" stroke="#808080" stroke-width="0.015625" fill="none"/><path d="M-98.1667,-53v0l0.333328,0.5h0.666672l0.333328,-0.5" stroke="#808080" stroke-width="0.015625" fill="none"/><path d="M-98.1667,-52v0l0.333328,0.5h0.666672l0.333328,-0.5" stroke="#808080" stroke-width="0.015625" fill="none"/><path d="M-98.1667,-51v0l0.333328,0.5h0.666672l0.333328,-0.5" stroke="#808080" stroke-width="0.015625" fill="none"/><path d="M-98.1667,-50v0l0.333328,0.5h0.666672l0.333328,-0.5" stroke="#808080" stroke-width="0.015625" fill="none"/><path d="M-98.1667,-49v0l0.333328,0.5h0.666672l0.333328,-0.5" stroke="#808080" stroke-width="0.015625" fill="none"/><path d="M-97.1667,-61.5v0l0.333328,0.5h0.666672l0.333328,-0.5" stroke="#808080" stroke-width="0.015625" fill="none"/><path d="M-97.1667,-60.5v0l0.333328,0.5h0.666672l0.333328,-0.5" stroke="#808080" stroke-width="0.015625" fill="none"/><path d="M-97.1667,-59.5v0l0.333328,0.5h0.666672l0.333328,-0.5" stroke="#808080" stroke-width="0.015625" fill="none"/><path d="M-97.1667,-58.5v0l0.333328,0.5h0.666672l0.333328,-0.5" stroke="#808080" stroke-width="0.015625" fill="none"/><path d="M-97.1667,-57.5v0l0.333328,0.5h0.666672l0.333328,-0.5" stroke="#808080" stroke-width="0.015625" fill="none"/><path d="M-97.1667,-56.5v0l0.333328,0.5h0.666672l0.333328,-0.5" stroke="#808080" stroke-width="0.015625" fill="none"/><path d="M-97.1667,-55.5v0l0.333328,0.5h0.666672l0.333328,-0.5" stroke="#808080" stroke-width="0.015625" fill="none"/><path d="M-97.1667,-54.5v0l0.333328,0.5h0.666672l0.333328,-0.5" stroke="#808080" stroke-width="0.015625" fill="none"/><path d="M-97.1667,-53.5v0l0.333328,0.5h0.666672l0.333328,-0.5" stroke="#808080" stroke-width="0.015625" fill="none"/><path d="M-97.1667,-52.5v0l0.333328,0.5h0.666672l0.333328,-0.5" stroke="#808080" stroke-width="0.015625" fill="none"/><path d="M-97.1667,-51.5v0l0.333328,0.5h0.666672l0.333328,-0.5" stroke="#808080" stroke-width="0.015625" fill="none"/><path d="M-97.1667,-50.5v0l0.333328,0.5h0.666672l0.333328,-0.5" stroke="#808080" stroke-width="0.015625" fill="none"/><path d="M-97.1667,-49.5v0l0.333328,0.5h0.666672l0.333328,-0.5" stroke="#808080" stroke-width="0.015625" fill="none"/><path clip-path="url(#did2)" d="M-127.833,-56.5l-0.333336,-0.5l0.333336,-0.5h0.666672l0.333328,-0.5h0.666672l0.333328,-0.5l-0.333328,-0.5l0.333328,-0.5h0.666672l0.333328,0.5h0.666672l0.333328,-0.5h0.666672l0.333328,-0.5h0.666672l0.333328,0.5h0.666672l0.333328,0.5l-0.333328,0.5l0.333328,0.5l-0.333328,0.5h-0.666672l-0.333328,0.5l0.333328,0.5l-0.333328,0.5l0.333328,0.5l-0.333328,0.5l0.333328,0.5l-0.333328,0.5l0.333328,0.5l-0.333328,0.5l0.333328,0.5l-0.333328,0.5h-0.666672l-0.333328,-0.5h-0.666672l-0.333328,-0.5h-0.666672l-0.333328,0.5h-0.666672l-0.333328,-0.5l0.333328,-0.5l-0.333328,-0.5h-0.666672l-0.333328,-0.5l0.333328,-0.5l-0.333328,-0.5h-0.666672l-0.333336,-0.5Z" stroke="LightBlue" stroke-width="0.16" fill="none"/><path clip-path="url(#did3)" d="M-123.833,-59.5l-0.333328,-0.5l0.333328,-0.5h0.666672l0.333328,-0.5h0.666672l0.333328,0.5h0.666672l0.333328,0.5h0.666672l0.333328,0.5h0.666672l0.333328,-0.5h0.666672l0.333328,0.5h0.666672l0.333328,0.5h0.666672l0.333328,-0.5h0.666672l0.333328,0.5h0.666672l0.333328,0.5l-0.333328,0.5l0.333328,0.5l-0.333328,0.5l0.333328,0.5l-0.333328,0.5l0.333328,0.5l-0.333328,0.5l0.333328,0.5h0.666672l0.333328,0.5l-0.333328,0.5l0.333328,0.5l-0.333328,0.5l0.333328,0.5l-0.333328,0.5h-0.666672l-0.333328,0.5h-0.666672l-0.333328,-0.5l0.333328,-0.5l-0.333328,-0.5h-0.666672l-0.333328,-0.5h-0.666672l-0.333328,0.5h-0.666672l-0.333328,0.5l0.333328,0.5l-0.333328,0.5l0.333328,0.5l-0.333328,0.5h-0.666672l-0.333328,-0.5l0.333328,-0.5l-0.333328,-0.5h-0.666672l-0.333328,-0.5h-0.666672l-0.333328,-0.5l0.333328,-0.5l-0.333328,-0.5l0.333328,-0.5l-0.333328,-0.5l0.333328,-0.5l-0.333328,-0.5l0.333328,-0.5l-0.333328,-0.5l0.333328,-0.5l-0.333328,-0.5l0.333328,-0.5l-0.333328,-0.5l0.333328,-0.5l-0.333328,-0.5h-0.666672l-0.333328,-0.5h-0.666672l-0.333328,0.5Z" stroke="Blue" stroke-width="0.16" fill="none"/><path clip-path="url(#did4)" d="M-129.833,-79.5l-0.333344,-0.5l0.333344,-0.5h0.666657l0.333344,-0.5h0.666657l0.333336,0.5h0.666672l0.333328,0.5l-0.333328,0.5h-0.666672l-0.333336,0.5l0.333336,0.5h0.666672l0.333328,0.5h0.666672l0.333328,0.5h0.666672l0.333328,0.5h0.666672l0.333328,0.5h0.666672l0.333328,0.5h0.666672l0.333328,-0.5h0.666672l0.333328,-0.5h0.666672l0.333328,-0.5h0.666672l0.333328,-0.5l-0.333328,-0.5l0.333328,-0.5h0.666672l0.333328,-0.5h0.666672l0.333328,0.5h0.666672l0.333328,-0.5h0.666672l0.333328,0.5l-0.333328,0.5l0.333328,0.5l-0.333328,0.5h-0.666672l-0.333328,0.5h-0.666672l-0.333328,-0.5h-0.666672l-0.333328,0.5h-0.666672l-0.333328,0.5h-0.666672l-0.333328,0.5h-0.666672l-0.333328,0.5h-0.666672l-0.333328,0.5h-0.666672l-0.333328,-0.5h-0.666672l-0.333328,0.5l0.333328,0.5l-0.333328,0.5l0.333328,0.5l-0.333328,0.5l0.333328,0.5h0.666672l0.333328,0.5l-0.333328,0.5l0.333328,0.5l-0.333328,0.5l0.333328,0.5l-0.333328,0.5l0.333328,0.5h0.666672l0.333328,0.5l-0.333328,0.5h-0.666672l-0.333328,0.5l0.333328,0.5l-0.333328,0.5l0.333328,0.5l-0.333328,0.5h-0.666672l-0.333328,-0.5h-0.666672l-0.333328,-0.5h-0.666672l-0.333328,-0.5l0.333328,-0.5l-0.333328,-0.5l0.333328,-0.5h0.666672l0.333328,-0.5l-0.333328,-0.5l0.333328,-0.5h0.666672l0.333328,-0.5l-0.333328,-0.5l0.333328,-0.5l-0.333328,-0.5h-0.666672l-0.333328,-0.5h-0.666672l-0.333328,-0.5h-0.666672l-0.333328,-0.5h-0.666672l-0.333336,-0.5h-0.666657l-0.333344,0.5h-0.666657l-0.333344,-0.5l0.333344,-0.5l-0.333344,-0.5l0.333344,-0.5l-0.333344,-0.5l0.333344,-0.5l-0.333344,-0.5l0.333344,-0.5l-0.333344,-0.5l0.333344,-0.5l-0.333344,-0.5Z" stroke="Blue" stroke-width="0.16" fill="none"/><path clip-path="url(#did5)" d="M-119.833,-74.5l-0.333328,-0.5l0.333328,-0.5h0.666672l0.333328,-0.5h0.666672l0.333328,-0.5h0.666672l0.333328,0.5h0.666672l0.333328,0.5h0.666672l0.333328,-0.5h0.666672l0.333328,-0.5h0.666672l0.333328,-0.5h0.666672l0.333328,-0.5l-0.333328,-0.5l0.333328,-0.5h0.666672l0.333328,0.5h0.666672l0.333328,-0.5h0.666672l0.333328,-0.5h0.666672l0.333328,-0.5h0.666672l0.333328,0.5h0.666672l0.333328,0.5h0.666672l0.333328,-0.5h0.666672l0.333328,-0.5h0.666672l0.333328,-0.5h0.666672l0.333328,0.5h0.666672l0.333328,0.5h0.666672l0.333328,-0.5h0.666672l0.333328,0.5h0.666672l0.333328,-0.5h0.666672l0.333328,0.5h0.666672l0.333328,0.5l-0.333328,0.5l0.333328,0.5l-0.333328,0.5l0.333328,0.5l-0.333328,0.5l0.333328,0.5l-0.333328,0.5l0.333328,0.5l-0.333328,0.5l0.333328,0.5l-0.333328,0.5l0.333328,0.5l-0.333328,0.5l0.333328,0.5l-0.333328,0.5l0.333328,0.5l-0.333328,0.5l0.333328,0.5l-0.333328,0.5l0.333328,0.5l-0.333328,0.5l0.333328,0.5l-0.333328,0.5l0.333328,0.5l-0.333328,0.5l0.333328,0.5l-0.333328,0.5l0.333328,0.5l-0.333328,0.5l0.333328,0.5l-0.333328,0.5l0.333328,0.5l-0.333328,0.5l0.333328,0.5l-0.333328,0.5l0.333328,0.5l-0.333328,0.5l0.333328,0.5l-0.333328,0.5l0.333328,0.5l-0.333328,0.5l0.333328,0.5l-0.333328,0.5l0.333328,0.5l-0.333328,0.5l0.333328,0.5l-0.333328,0.5l0.333328,0.5l-0.333328,0.5l0.333328,0.5l-0.333328,0.5l0.333328,0.5l-0.333328,0.5l0.333328,0.5l-0.333328,0.5l0.333328,0.5l-0.333328,0.5l0.333328,0.5l-0.333328,0.5l0.333328,0.5l-0.333328,0.5l0.333328,0.5l-0.333328,0.5l0.333328,0.5l-0.333328,0.5l0.333328,0.5l-0.333328,0.5l0.333328,0.5l-0.333328,0.5l0.333328,0.5l-0.333328,0.5l0.333328,0.5l-0.333328,0.5l0.333328,0.5l-0.333328,0.5l0.333328,0.5l-0.333328,0.5l0.333328,0.5l-0.333328,0.5h-0.666672l-0.333328,0.5h-0.666672l-0.333328,-0.5h-0.666672l-0.333328,0.5h-0.666672l-0.333328,-0.5h-0.666672l-0.333328,0.5h-0.666672l-0.333328,-0.5h-0.666672l-0.333328,0.5h-0.666672l-0.333328,-0.5h-0.666672l-0.333328,0.5h-0.666672l-0.333328,-0.5h-0.666672l-0.333328,0.5h-0.666672l-0.333328,-0.5h-0.666672l-0.333328,0.5h-0.666672l-0.333328,-0.5h-0.666672l-0.333328,-0.5h-0.666672l-0.333328,-0.5l0.333328,-0.5l-0.333328,-0.5h-0.666672l-0.333328,-0.5l0.333328,-0.5l-0.333328,-0.5h-0.666672l-0.333328,-0.5h-0.666672l-0.333328,-0.5l0.333328,-0.5h0.666672l0.333328,-0.5h0.666672l0.333328,-0.5h0.666672l0.333328,-0.5l-0.333328,-0.5l0.333328,-0.5l-0.333328,-0.5h-0.666672l-0.333328,-0.5l0.333328,-0.5h0.666672l0.333328,-0.5l-0.333328,-0.5h-0.666672l-0.333328,-0.5l0.333328,-0.5l-0.333328,-0.5l0.333328,-0.5l-0.333328,-0.5l0.333328,-0.5l-0.333328,-0.5l0.333328,-0.5l-0.333328,-0.5l0.333328,-0.5h0.666672l0.333328,-0.5l-0.333328,-0.5l0.333328,-0.5l-0.333328,-0.5l0.333328,-0.5l-0.333328,-0.5l0.333328,-0.5l-0.333328,-0.5l0.333328,-0.5l-0.333328,-0.5h-0.666672l-0.333328,-0.5h-0.666672l-0.333328,-0.5h-0.666672l-0.333328,-0.5h-0.666672l-0.333328,0.5h-0.666672l-0.333328,-0.5h-0.666672l-0.333328,-0.5h-0.666672l-0.333328,0.5l0.333328,0.5l-0.333328,0.5h-0.666672l-0.333328,-0.5l0.333328,-0.5l-0.333328,-0.5l0.333328,-0.5l-0.333328,-0.5l0.333328,-0.5h0.666672l0.333328,-0.5l-0.333328,-0.5l0.333328,-0.5l-0.333328,-0.5l0.333328,-0.5h0.666672l0.333328,-0.5l-0.333328,-0.5l0.333328,-0.5h0.666672l0.333328,-0.5l-0.333328,-0.5l0.333328,-0.5h0.666672l0.333328,-0.5h0.666672l0.333328,-0.5h0.666672l0.333328,-0.5h0.666672l0.333328,-0.5h0.666672l0.333328,-0.5h0.666672l0.333328,-0.5l-0.333328,-0.5h-0.666672l-0.333328,-0.5h-0.666672l-0.333328,-0.5h-0.666672l-0.333328,-0.5h-0.666672l-0.333328,0.5h-0.666672l-0.333328,-0.5h-0.666672l-0.333328,0.5h-0.666672l-0.333328,-0.5h-0.666672l-0.333328,-0.5h-0.666672l-0.333328,-0.5Z" stroke="#E32736" stroke-width="0.16" fill="none"/><path clip-path="url(#did6)" d="M-116.833,-51l-0.333328,-0.5l0.333328,-0.5h0.666672l0.333328,0.5h0.666672l0.333328,0.5l-0.333328,0.5l0.333328,0.5l-0.333328,0.5h-0.666672l-0.333328,-0.5h-0.666672l-0.333328,-0.5Z" stroke="#E32736" stroke-width="0.16" fill="none"/><path clip-path="url(#did7)" d="M-128.833,-47l-0.333344,-0.5l0.333344,-0.5h0.666657l0.333336,-0.5h0.666672l0.333328,-0.5h0.666672l0.333328,0.5h0.666672l0.333328,0.5h0.666672l0.333328,-0.5h0.666672l0.333328,-0.5h0.666672l0.333328,0.5l-0.333328,0.5l0.333328,0.5l-0.333328,0.5h-0.666672l-0.333328,0.5h-0.666672l-0.333328,0.5l0.333328,0.5h0.666672l0.333328,0.5l-0.333328,0.5l0.333328,0.5h0.666672l0.333328,0.5l-0.333328,0.5l0.333328,0.5l-0.333328,0.5h-0.666672l-0.333328,0.5h-0.666672l-0.333328,0.5h-0.666672l-0.333328,-0.5h-0.666672l-0.333328,0.5h-0.666672l-0.333328,-0.5h-0.666672l-0.333336,0.5h-0.666657l-0.333344,-0.5l0.333344,-0.5l-0.333344,-0.5l0.333344,-0.5l-0.333344,-0.5l0.333344,-0.5l-0.333344,-0.5l0.333344,-0.5l-0.333344,-0.5l0.333344,-0.5l-0.333344,-0.5Z" stroke="#E32736" stroke-width="0.16" fill="none"/><path clip-path="url(#did8)" d="M-120.833,-50l-0.333328,-0.5l0.333328,-0.5h0.666672l0.333328,0.5l-0.333328,0.5Z" stroke="#E32736" stroke-width="0.16" fill="none"/><line x1="-105.356" y1="-61.7835" x2="-103.644" y2="-59.2165" stroke="#048104" stroke-width="0.08"/><line x1="-106.25" y1="-57.625" x2="-103.75" y2="-58.875" stroke="#048104" stroke-width="0.08"/><line x1="-99.5" y1="-49.75" x2="-99.5" y2="-48.25" stroke="#048104" stroke-width="0.08"/><line x1="-99.5" y1="-50.75" x2="-99.5" y2="-50.25" stroke="#048104" stroke-width="0.08"/><line x1="-100.406" y1="-53.2638" x2="-99.5945" y2="-51.2362" stroke="#048104" stroke-width="0.08"/><line x1="-101.356" y1="-52.2165" x2="-100.644" y2="-53.2835" stroke="#048104" stroke-width="0.08"/><line x1="-100.356" y1="-53.7165" x2="-99.6443" y2="-54.7835" stroke="#048104" stroke-width="0.08"/><line x1="-102.217" y1="-54.5473" x2="-99.7835" y2="-54.9528" stroke="#048104" stroke-width="0.08"/><line x1="-106.25" y1="-56.375" x2="-102.75" y2="-54.625" stroke="#048104" stroke-width="0.08"/><line x1="-99.3557" y1="-55.2165" x2="-98.6443" y2="-56.2835" stroke="#048104" stroke-width="0.08"/><line x1="-98.2113" y1="-56.5" x2="-96.7887" y2="-56.5" stroke="#048104" stroke-width="0.08"/></g><g clip-path="url(#did9)"><g transform="translate(-104.5,-59.5) scale(1.1547 1)"><circle r="0.4" cx="0" cy="0" stroke="#FFCC00" stroke-width="0.05" fill="none"/><text font-family="Arial" font-size="0.14" text-anchor="middle" x="0" y="-0.381" fill="DarkGray">2521</text></g><text transform="translate(-104.5,-57.5) scale(1.1547 1)" font-family="Arial" font-size="0.14" text-anchor="middle" x="0" y="-0.381" fill="DarkGray">2523</text><text transform="translate(-104.5,-53.5) scale(1.1547 1)" font-family="Arial" font-size="0.14" text-anchor="middle" x="0" y="-0.381" fill="DarkGray">2527</text><text transform="translate(-103.5,-59) scale(1.1547 1)" font-family="Arial" font-size="0.14" text-anchor="middle" x="0" y="-0.381" fill="DarkGray">2621</text><text transform="translate(-103.5,-56) scale(1.1547 1)" font-family="Arial" font-size="0.14" text-anchor="middle" x="0" y="-0.381" fill="DarkGray">2624</text><text transform="translate(-103.5,-53) scale(1.1547 1)" font-family="Arial" font-size="0.14" text-anchor="middle" x="0" y="-0.381" fill="DarkGray">2627</text><text transform="translate(-102.5,-54.5) scale(1.1547 1)" font-family="Arial" font-size="0.14" text-anchor="middle" x="0" y="-0.381" fill="DarkGray">2726</text><g transform="translate(-102.5,-52.5) scale(1.1547 1)"><circle r="0.4" cx="0" cy="0" stroke="#FFCC00" stroke-width="0.05" fill="none"/><text font-family="Arial" font-size="0.14" text-anchor="middle" x="0" y="-0.381" fill="DarkGray">2728</text></g><g transform="translate(-101.5,-56) scale(1.1547 1)"><circle r="0.4" cx="0" cy="0" stroke="#FFCC00" stroke-width="0.05" fill="none"/><text font-family="Arial" font-size="0.14" text-anchor="middle" x="0" y="-0.381" fill="DarkGray">2824</text></g><text transform="translate(-101.5,-53) scale(1.1547 1)" font-family="Arial" font-size="0.14" text-anchor="middle" x="0" y="-0.381" fill="DarkGray">2827</text><text transform="translate(-101.5,-52) scale(1.1547 1)" font-family="Arial" font-size="0.14" text-anchor="middle" x="0" y="-0.381" fill="DarkGray">2828</text><text transform="translate(-101.5,-50) scale(1.1547 1)" font-family="Arial" font-size="0.14" text-anchor="middle" x="0" y="-0.381" fill="DarkGray">2830</text><text transform="translate(-100.5,-56.5) scale(1.1547 1)" font-family="Arial" font-size="0.14" text-anchor="middle" x="0" y="-0.381" fill="DarkGray">2924</text><text transform="translate(-100.5,-53.5) scale(1.1547 1)" font-family="Arial" font-size="0.14" text-anchor="middle" x="0" y="-0.381" fill="DarkGray">2927</text><text transform="translate(-100.5,-50.5) scale(1.1547 1)" font-family="Arial" font-size="0.14" text-anchor="middle" x="0" y="-0.381" fill="DarkGray">2930</text><text transform="translate(-99.5,-59) scale(1.1547 1)" font-family="Arial" font-size="0.14" text-anchor="middle" x="0" y="-0.381" fill="DarkGray">3021</text><text transform="translate(-99.5,-58) scale(1.1547 1)" font-family="Arial" font-size="0.14" text-anchor="middle" x="0" y="-0.381" fill="DarkGray">3022</text><g transform="translate(-99.5,-56) scale(1.1547 1)"><circle r="0.4" cx="0" cy="0" stroke="#FFCC00" stroke-width="0.05" fill="none"/><text font-family="Arial" font-size="0.14" text-anchor="middle" x="0" y="-0.381" fill="DarkGray">3024</text></g><text transform="translate(-99.5,-55) scale(1.1547 1)" font-family="Arial" font-size="0.14" text-anchor="middle" x="0" y="-0.381" fill="DarkGray">3025</text><text transform="translate(-99.5,-54) scale(1.1547 1)" font-family="Arial" font-size="0.14" text-anchor="middle" x="0" y="-0.381" fill="DarkGray">3026</text><g transform="translate(-99.5,-51) scale(1.1547 1)"><circle r="0.4" cx="0" cy="0" stroke="#FFCC00" stroke-width="0.05" fill="none"/><text font-family="Arial" font-size="0.14" text-anchor="middle" x="0" y="-0.381" fill="DarkGray">3029</text></g><text transform="translate(-99.5,-50) scale(1.1547 1)" font-family="Arial" font-size="0.14" text-anchor="middle" x="0" y="-0.381" fill="DarkGray">3030</text><text transform="translate(-98.5,-57.5) scale(1.1547 1)" font-family="Arial" font-size="0.14" text-anchor="middle" x="0" y="-0.381" fill="DarkGray">3123</text><text transform="translate(-98.5,-56.5) scale(1.1547 1)" font-family="Arial" font-size="0.14" text-anchor="middle" x="0" y="-0.381" fill="DarkGray">3124</text><text transform="translate(-97.5,-57) scale(1.1547 1)" font-family="Arial" font-size="0.14" text-anchor="middle" x="0" y="-0.381" fill="DarkGray">3223</text><g transform="translate(-97.5,-52) scale(1.1547 1)"><circle r="0.4" cx="0" cy="0" stroke="#FFCC00" stroke-width="0.05" fill="none"/><text font-family="Arial" font-size="0.14" text-anchor="middle" x="0" y="-0.381" fill="DarkGray">3228</text></g></g><g transform="translate(-104.5,-59.5) scale(1.1547 1)"><circle transform="translate(0.25,-0.18)" r="0.05" cx="0" cy="0" stroke="none" fill="Black"/><rect x="-0.113084" y="-0.35543" width="0.226167" height="0.260859" stroke="none" fill="White"/><text font-family="Arial" font-size="0.21" font-weight="bold" text-anchor="middle" x="0" y="-0.13575" fill="Black">B</text><circle r="0.1" cx="0" cy="0" stroke="none" fill="DeepSkyBlue"/><rect x="-0.455564" y="0.23957" width="0.911128" height="0.260859" stroke="none" fill="White"/><text font-family="Arial" font-size="0.21" font-weight="bold" text-anchor="middle" x="0" y="0.45925" fill="Black">HERONI</text></g><g transform="translate(-104.5,-57.5) scale(1.1547 1)"><circle transform="translate(0.25,-0.18)" r="0.05" cx="0" cy="0" stroke="none" fill="Black"/><rect x="-0.113084" y="-0.35543" width="0.226167" height="0.260859" stroke="none" fill="White"/><text font-family="Arial" font-size="0.21" font-weight="bold" text-anchor="middle" x="0" y="-0.13575" fill="Black">B</text><circle r="0.1" cx="0" cy="0" stroke="none" fill="DeepSkyBlue"/><rect x="-0.311445" y="0.23957" width="0.622891" height="0.260859" stroke="none" fill="White"/><text font-family="Arial" font-size="0.21" font-weight="bold" text-anchor="middle" x="0" y="0.45925" fill="Black">Byret</text></g><g transform="translate(-104.5,-53.5) scale(1.1547 1)"><circle transform="translate(0.25,-0.18)" r="0.05" cx="0" cy="0" stroke="none" fill="Black"/><rect x="-0.107136" y="-0.35543" width="0.214273" height="0.260859" stroke="none" fill="White"/><text font-family="Arial" font-size="0.21" font-weight="bold" text-anchor="middle" x="0" y="-0.13575" fill="Black">E</text><circle r="0.1" cx="0" cy="0" stroke="Black" stroke-width="0.015625" fill="White"/><rect x="-0.419727" y="0.23957" width="0.839453" height="0.260859" stroke="none" fill="White"/><text font-family="Arial" font-size="0.21" font-weight="bold" text-anchor="middle" x="0" y="0.45925" fill="Black">Pimane</text></g><g transform="translate(-103.5,-59) scale(1.1547 1)"><rect x="-0.113084" y="-0.35543" width="0.226167" height="0.260859" stroke="none" fill="White"/><text font-family="Arial" font-size="0.21" font-weight="bold" text-anchor="middle" x="0" y="-0.13575" fill="Black">A</text><circle r="0.1" cx="0" cy="0" stroke="none" fill="DeepSkyBlue"/><rect x="-0.34759" y="0.23957" width="0.695181" height="0.260859" stroke="none" fill="White"/><text font-family="Arial" font-size="0.21" font-weight="bold" text-anchor="middle" x="0" y="0.45925" fill="Black">Fosey</text></g><g transform="translate(-103.5,-56) scale(1.1547 1)"><circle transform="translate(0.25,-0.18)" r="0.05" cx="0" cy="0" stroke="none" fill="Black"/><rect x="-0.113084" y="-0.35543" width="0.226167" height="0.260859" stroke="none" fill="White"/><text font-family="Arial" font-size="0.21" font-weight="bold" text-anchor="middle" x="0" y="-0.13575" fill="Black">B</text><text font-family="Arial Unicode MS,Segoe UI Symbol,Arial" font-size="0.21" font-weight="bold" text-anchor="middle" x="-0.25" y="-0.09075" fill="Black">★</text><text font-family="Arial Unicode MS,Segoe UI Symbol,Arial" font-size="0.21" font-weight="bold" text-anchor="middle" x="-0.25" y="0.26925" fill="Black">▲</text><circle r="0.1" cx="0" cy="0" stroke="none" fill="DeepSkyBlue"/><rect x="-0.455769" y="0.23957" width="0.911538" height="0.260859" stroke="none" fill="White"/><text font-family="Arial" font-size="0.21" font-weight="bold" text-anchor="middle" x="0" y="0.45925" fill="Black">Mercury</text></g><g transform="translate(-103.5,-53) scale(1.1547 1)"><circle transform="translate(0.25,-0.18)" r="0.05" cx="0" cy="0" stroke="none" fill="Black"/><rect x="-0.113084" y="-0.35543" width="0.226167" height="0.260859" stroke="none" fill="White"/><text font-family="Arial" font-size="0.21" font-weight="bold" text-anchor="middle" x="0" y="-0.13575" fill="Black">C</text><circle r="0.1" cx="0" cy="0" stroke="none" fill="DeepSkyBlue"/><rect x="-0.2874" y="0.23957" width="0.5748" height="0.260859" stroke="none" fill="White"/><text font-family="Arial" font-size="0.21" font-weight="bold" text-anchor="middle" x="0" y="0.45925" fill="Black">Tivid</text></g><g transform="translate(-102.5,-54.5) scale(1.1547 1)"><rect x="-0.113084" y="-0.35543" width="0.226167" height="0.260859" stroke="none" fill="White"/><text font-family="Arial" font-size="0.21" font-weight="bold" text-anchor="middle" x="0" y="-0.13575" fill="Black">C</text><circle r="0.1" cx="0" cy="0" stroke="none" fill="DeepSkyBlue"/><rect x="-0.335593" y="0.23957" width="0.671187" height="0.260859" stroke="none" fill="White"/><text font-family="Arial" font-size="0.21" font-weight="bold" text-anchor="middle" x="0" y="0.45925" fill="Black">Carey</text></g><g transform="translate(-102.5,-52.5) scale(1.1547 1)"><circle transform="translate(0.25,-0.18)" r="0.05" cx="0" cy="0" stroke="none" fill="Black"/><rect x="-0.113084" y="-0.35543" width="0.226167" height="0.260859" stroke="none" fill="White"/><text font-family="Arial" font-size="0.21" font-weight="bold" text-anchor="middle" x="0" y="-0.13575" fill="Black">A</text><text font-family="Arial Unicode MS,Segoe UI Symbol,Arial" font-size="0.21" font-weight="bold" text-anchor="middle" x="-0.35" y="0.08925" fill="#E32736">Α</text><circle r="0.1" cx="0" cy="0" stroke="none" fill="DeepSkyBlue"/><rect x="-0.329492" y="0.23957" width="0.658984" height="0.260859" stroke="none" fill="White"/><text font-family="Arial" font-size="0.21" font-weight="bold" text-anchor="middle" x="0" y="0.45925" fill="Black">Duale</text></g><g transform="translate(-101.5,-56) scale(1.1547 1)"><rect x="-0.113084" y="-0.35543" width="0.226167" height="0.260859" stroke="none" fill="White"/><text font-family="Arial" font-size="0.21" font-weight="bold" text-anchor="middle" x="0" y="-0.13575" fill="Black">C</text><circle r="0.1" cx="0" cy="0" stroke="Black" stroke-width="0.015625" fill="White"/><rect x="-0.32939" y="0.23957" width="0.658779" height="0.260859" stroke="none" fill="White"/><text font-family="Arial" font-size="0.21" font-weight="bold" text-anchor="middle" x="0" y="0.45925" fill="Black">Catuz</text></g><g transform="translate(-101.5,-53) scale(1.1547 1)"><circle transform="translate(0.25,-0.18)" r="0.05" cx="0" cy="0" stroke="none" fill="Black"/><rect x="-0.113084" y="-0.35543" width="0.226167" height="0.260859" stroke="none" fill="White"/><text font-family="Arial" font-size="0.21" font-weight="bold" text-anchor="middle" x="0" y="-0.13575" fill="Black">C</text><text font-family="Arial Unicode MS,Segoe UI Symbol,Arial" font-size="0.21" font-weight="bold" text-anchor="middle" x="-0.25" y="0.26925" fill="Black">▲</text><circle r="0.1" cx="0" cy="0" stroke="none" fill="DeepSkyBlue"/><rect x="-0.377481" y="0.23957" width="0.754961" height="0.260859" stroke="none" fill="White"/><text font-family="Arial" font-size="0.21" font-weight="bold" text-anchor="middle" x="0" y="0.45925" fill="Black">Meleto</text></g><g transform="translate(-101.5,-52) scale(1.1547 1)"><circle transform="translate(0.25,-0.18)" r="0.05" cx="0" cy="0" stroke="none" fill="Black"/><rect x="-0.113084" y="-0.35543" width="0.226167" height="0.260859" stroke="none" fill="White"/><text font-family="Arial" font-size="0.21" font-weight="bold" text-anchor="middle" x="0" y="-0.13575" fill="Black">B</text><text font-family="Arial Unicode MS,Segoe UI Symbol,Arial" font-size="0.21" font-weight="bold" text-anchor="middle" x="-0.25" y="-0.09075" fill="Black">★</text><circle r="0.1" cx="0" cy="0" stroke="none" fill="DeepSkyBlue"/><rect x="-0.359587" y="0.23957" width="0.719175" height="0.260859" stroke="none" fill="White"/><text font-family="Arial" font-size="0.21" font-weight="bold" text-anchor="middle" x="0" y="0.45925" fill="Black">Hexos</text></g><g transform="translate(-101.5,-50) scale(1.1547 1)"><circle transform="translate(0.25,-0.18)" r="0.05" cx="0" cy="0" stroke="none" fill="Black"/><rect x="-0.113084" y="-0.35543" width="0.226167" height="0.260859" stroke="none" fill="White"/><text font-family="Arial" font-size="0.21" font-weight="bold" text-anchor="middle" x="0" y="-0.13575" fill="Black">C</text><text font-family="Arial Unicode MS,Segoe UI Symbol,Arial" font-size="0.21" font-weight="bold" text-anchor="middle" x="-0.25" y="0.26925" fill="Black">▲</text><circle r="0.1" cx="0" cy="0" stroke="Black" stroke-width="0.015625" fill="White"/><rect x="-0.413779" y="0.23957" width="0.827559" height="0.260859" stroke="none" fill="White"/><text font-family="Arial" font-size="0.21" font-weight="bold" text-anchor="middle" x="0" y="0.45925" fill="Black">Pedase</text></g><g transform="translate(-100.5,-56.5) scale(1.1547 1)"><circle transform="translate(0.25,-0.18)" r="0.05" cx="0" cy="0" stroke="none" fill="Black"/><rect x="-0.113084" y="-0.35543" width="0.226167" height="0.260859" stroke="none" fill="White"/><text font-family="Arial" font-size="0.21" font-weight="bold" text-anchor="middle" x="0" y="-0.13575" fill="Black">C</text><text font-family="Arial Unicode MS,Segoe UI Symbol,Arial" font-size="0.21" font-weight="bold" text-anchor="middle" x="-0.25" y="-0.09075" fill="Black">★</text><circle r="0.1" cx="0" cy="0" stroke="none" fill="DeepSkyBlue"/><rect x="-0.359485" y="0.23957" width="0.71897" height="0.260859" stroke="none" fill="White"/><text font-family="Arial" font-size="0.21" font-weight="bold" text-anchor="middle" x="0" y="0.45925" fill="Black">Moran</text></g><g transform="translate(-100.5,-53.5) scale(1.1547 1)"><circle transform="translate(0.25,-0.18)" r="0.05" cx="0" cy="0" stroke="none" fill="Black"/><rect x="-0.113084" y="-0.35543" width="0.226167" height="0.260859" stroke="none" fill="White"/><text font-family="Arial" font-size="0.21" font-weight="bold" text-anchor="middle" x="0" y="-0.13575" fill="Black">A</text><circle r="0.1" cx="0" cy="0" stroke="Black" stroke-width="0.015625" fill="White"/><rect x="-0.305344" y="0.23957" width="0.610688" height="0.260859" stroke="none" fill="White"/><text font-family="Arial" font-size="0.21" font-weight="bold" text-anchor="middle" x="0" y="0.45925" fill="Black">Maitz</text></g><g transform="translate(-100.5,-50.5) scale(1.1547 1)"><circle transform="translate(0.25,-0.18)" r="0.05" cx="0" cy="0" stroke="none" fill="Black"/><rect x="-0.113084" y="-0.35543" width="0.226167" height="0.260859" stroke="none" fill="White"/><text font-family="Arial" font-size="0.21" font-weight="bold" text-anchor="middle" x="0" y="-0.13575" fill="Black">C</text><text font-family="Arial Unicode MS,Segoe UI Symbol,Arial" font-size="0.21" font-weight="bold" text-anchor="middle" x="-0.25" y="0.26925" fill="Black">▲</text><circle r="0.1" cx="0" cy="0" stroke="none" fill="DeepSkyBlue"/><rect x="-0.335439" y="0.23957" width="0.670879" height="0.260859" stroke="none" fill="White"/><text font-family="Arial" font-size="0.21" font-weight="bold" text-anchor="middle" x="0" y="0.45925" fill="Black">Mainz</text></g><g transform="translate(-99.5,-59) scale(1.1547 1)"><circle transform="translate(0.25,-0.18)" r="0.05" cx="0" cy="0" stroke="none" fill="Black"/><rect x="-0.113084" y="-0.35543" width="0.226167" height="0.260859" stroke="none" fill="White"/><text font-family="Arial" font-size="0.21" font-weight="bold" text-anchor="middle" x="0" y="-0.13575" fill="Black">C</text><circle r="0.1" cx="0" cy="0" stroke="Black" stroke-width="0.015625" fill="White"/><rect x="-0.377532" y="0.23957" width="0.755064" height="0.260859" stroke="none" fill="White"/><text font-family="Arial" font-size="0.21" font-weight="bold" text-anchor="middle" x="0" y="0.45925" fill="Black">Brodie</text></g><g transform="translate(-99.5,-58) scale(1.1547 1)"><circle transform="translate(0.25,-0.18)" r="0.05" cx="0" cy="0" stroke="none" fill="Black"/><rect x="-0.113084" y="-0.35543" width="0.226167" height="0.260859" stroke="none" fill="White"/><text font-family="Arial" font-size="0.21" font-weight="bold" text-anchor="middle" x="0" y="-0.13575" fill="Black">C</text><circle r="0.1" cx="0" cy="0" stroke="none" fill="DeepSkyBlue"/><rect x="-0.371585" y="0.23957" width="0.743169" height="0.260859" stroke="none" fill="White"/><text font-family="Arial" font-size="0.21" font-weight="bold" text-anchor="middle" x="0" y="0.45925" fill="Black">Rorise</text></g><g transform="translate(-99.5,-56) scale(1.1547 1)"><rect x="-0.113084" y="-0.35543" width="0.226167" height="0.260859" stroke="none" fill="White"/><text font-family="Arial" font-size="0.21" font-weight="bold" text-anchor="middle" x="0" y="-0.13575" fill="Black">B</text><circle r="0.1" cx="0" cy="0" stroke="none" fill="DeepSkyBlue"/><rect x="-0.425674" y="0.23957" width="0.851348" height="0.260859" stroke="none" fill="White"/><text font-family="Arial" font-size="0.21" font-weight="bold" text-anchor="middle" x="0" y="0.45925" fill="Black">Jokotre</text></g><g transform="translate(-99.5,-55) scale(1.1547 1)"><circle transform="translate(0.25,-0.18)" r="0.05" cx="0" cy="0" stroke="none" fill="Black"/><rect x="-0.113084" y="-0.35543" width="0.226167" height="0.260859" stroke="none" fill="White"/><text font-family="Arial" font-size="0.21" font-weight="bold" text-anchor="middle" x="0" y="-0.13575" fill="Black">A</text><circle r="0.1" cx="0" cy="0" stroke="none" fill="DeepSkyBlue"/><rect x="-0.52165" y="0.23957" width="1.0433" height="0.260859" stroke="none" fill="White"/><text font-family="Arial" font-size="0.21" font-weight="bold" text-anchor="middle" x="0" y="0.45925" fill="Black">FORNICE</text></g><g transform="translate(-99.5,-54) scale(1.1547 1)"><circle transform="translate(0.25,-0.18)" r="0.05" cx="0" cy="0" stroke="none" fill="Black"/><rect x="-0.107136" y="-0.35543" width="0.214273" height="0.260859" stroke="none" fill="White"/><text font-family="Arial" font-size="0.21" font-weight="bold" text-anchor="middle" x="0" y="-0.13575" fill="Black">E</text><circle r="0.1" cx="0" cy="0" stroke="Black" stroke-width="0.015625" fill="White"/><rect x="-0.311497" y="0.23957" width="0.622993" height="0.260859" stroke="none" fill="White"/><text font-family="Arial" font-size="0.21" font-weight="bold" text-anchor="middle" x="0" y="0.45925" fill="Black">Grille</text></g><g transform="translate(-99.5,-51) scale(1.1547 1)"><rect x="-0.113084" y="-0.35543" width="0.226167" height="0.260859" stroke="none" fill="White"/><text font-family="Arial" font-size="0.21" font-weight="bold" text-anchor="middle" x="0" y="-0.13575" fill="Black">A</text><circle r="0.1" cx="0" cy="0" stroke="Black" stroke-width="0.015625" fill="White"/><rect x="-0.515703" y="0.23957" width="1.03141" height="0.260859" stroke="none" fill="White"/><text font-family="Arial" font-size="0.21" font-weight="bold" text-anchor="middle" x="0" y="0.45925" fill="Black">PALIQUE</text></g><g transform="translate(-99.5,-50) scale(1.1547 1)"><circle transform="translate(0.25,-0.18)" r="0.05" cx="0" cy="0" stroke="none" fill="Black"/><rect x="-0.113084" y="-0.35543" width="0.226167" height="0.260859" stroke="none" fill="White"/><text font-family="Arial" font-size="0.21" font-weight="bold" text-anchor="middle" x="0" y="-0.13575" fill="Black">C</text><text font-family="Arial Unicode MS,Segoe UI Symbol,Arial" font-size="0.21" font-weight="bold" text-anchor="middle" x="-0.25" y="0.26925" fill="Black">▲</text><circle r="0.1" cx="0" cy="0" stroke="none" fill="DeepSkyBlue"/><rect x="-0.389631" y="0.23957" width="0.779263" height="0.260859" stroke="none" fill="White"/><text font-family="Arial" font-size="0.21" font-weight="bold" text-anchor="middle" x="0" y="0.45925" fill="Black">Nexine</text></g><g transform="translate(-98.5,-57.5) scale(1.1547 1)"><rect x="-0.113084" y="-0.35543" width="0.226167" height="0.260859" stroke="none" fill="White"/><text font-family="Arial" font-size="0.21" font-weight="bold" text-anchor="middle" x="0" y="-0.13575" fill="Black">D</text><text font-family="Arial Unicode MS,Segoe UI Symbol,Arial" font-size="0.21" font-weight="bold" text-anchor="middle" x="-0.25" y="0.26925" fill="Black">▲</text><circle r="0.1" cx="0" cy="0" stroke="Black" stroke-width="0.015625" fill="White"/><rect x="-0.377532" y="0.23957" width="0.755064" height="0.260859" stroke="none" fill="White"/><text font-family="Arial" font-size="0.21" font-weight="bold" text-anchor="middle" x="0" y="0.45925" fill="Black">Nadrin</text></g><g transform="translate(-98.5,-56.5) scale(1.1547 1)"><circle transform="translate(0.25,-0.18)" r="0.05" cx="0" cy="0" stroke="none" fill="Black"/><rect x="-0.113084" y="-0.35543" width="0.226167" height="0.260859" stroke="none" fill="White"/><text font-family="Arial" font-size="0.21" font-weight="bold" text-anchor="middle" x="0" y="-0.13575" fill="Black">A</text><text font-family="Arial Unicode MS,Segoe UI Symbol,Arial" font-size="0.21" font-weight="bold" text-anchor="middle" x="-0.25" y="-0.09075" fill="Black">★</text><text font-family="Arial Unicode MS,Segoe UI Symbol,Arial" font-size="0.21" font-weight="bold" text-anchor="middle" x="-0.25" y="0.26925" fill="Black">▲</text><circle r="0.1" cx="0" cy="0" stroke="none" fill="DeepSkyBlue"/><rect x="-0.365381" y="0.23957" width="0.730762" height="0.260859" stroke="none" fill="White"/><text font-family="Arial" font-size="0.21" font-weight="bold" text-anchor="middle" x="0" y="0.45925" fill="#E32736">MORA</text></g><g transform="translate(-97.5,-57) scale(1.1547 1)"><rect x="-0.113084" y="-0.35543" width="0.226167" height="0.260859" stroke="none" fill="White"/><text font-family="Arial" font-size="0.21" font-weight="bold" text-anchor="middle" x="0" y="-0.13575" fill="Black">C</text><text font-family="Arial Unicode MS,Segoe UI Symbol,Arial" font-size="0.21" font-weight="bold" text-anchor="middle" x="-0.25" y="0.26925" fill="Black">▲</text><circle r="0.1" cx="0" cy="0" stroke="Black" stroke-width="0.015625" fill="White"/><rect x="-0.407473" y="0.23957" width="0.814946" height="0.260859" stroke="none" fill="White"/><text font-family="Arial" font-size="0.21" font-weight="bold" text-anchor="middle" x="0" y="0.45925" fill="Black">Dojodo</text></g><g transform="translate(-97.5,-52) scale(1.1547 1)"><circle transform="translate(0.25,-0.18)" r="0.05" cx="0" cy="0" stroke="none" fill="Black"/><rect x="-0.113084" y="-0.35543" width="0.226167" height="0.260859" stroke="none" fill="White"/><text font-family="Arial" font-size="0.21" font-weight="bold" text-anchor="middle" x="0" y="-0.13575" fill="Black">C</text><circle r="0.1" cx="0" cy="0" stroke="none" fill="DeepSkyBlue"/><rect x="-0.625728" y="0.23957" width="1.25146" height="0.260859" stroke="none" fill="White"/><text font-family="Arial" font-size="0.21" font-weight="bold" text-anchor="middle" x="0" y="0.45925" fill="Black">Fenl&apos;s Gren</text></g></g></svg>